<svg width="375" height="395" viewBox="0 0 375 395" fill="none" xmlns="http://www.w3.org/2000/svg">
<path d="M364.529 215.147C364.529 215.262 287.174 215.356 191.774 215.356C96.3405 215.356 19.002 215.262 19.002 215.147C19.002 215.031 96.3405 214.938 191.774 214.938C287.173 214.938 364.529 215.031 364.529 215.147Z" fill="#E0E0E0"/>
<path d="M123.93 185.94C116.591 183.888 110.178 178.722 106.61 171.988C103.042 165.254 102.37 157.046 104.794 149.822C106.686 144.184 110.331 139.221 111.894 133.484C113.669 126.971 112.612 120.062 111.516 113.401C110.421 106.741 109.304 99.853 110.968 93.3109C112.631 86.7687 117.868 80.6254 124.602 80.1607C130.848 79.7297 136.618 84.3575 139.225 90.0507C141.831 95.7438 141.848 102.271 141.239 108.502C140.631 114.734 139.444 120.957 139.817 127.208C140.572 139.859 147.659 151.769 146.826 164.416C146.391 171.001 143.844 175.217 139.481 180.169C135.72 184.441 129.468 187.249 123.93 185.94Z" fill="#F0F0F0"/>
<path d="M125.125 217.421C125.03 217.421 124.954 194.585 124.954 166.424C124.954 138.252 125.031 115.422 125.125 115.422C125.22 115.422 125.297 138.252 125.297 166.424C125.297 194.585 125.22 217.421 125.125 217.421Z" fill="#E0E0E0"/>
<path d="M136.457 155.862C136.515 155.936 134.041 157.965 130.933 160.392C127.823 162.82 125.256 164.727 125.198 164.652C125.14 164.578 127.613 162.55 130.723 160.122C133.83 157.694 136.398 155.787 136.457 155.862Z" fill="#E0E0E0"/>
<path d="M125.135 154.389C125.082 154.467 123.522 153.482 121.651 152.189C119.78 150.896 118.308 149.785 118.362 149.707C118.416 149.63 119.975 150.614 121.846 151.907C123.716 153.199 125.189 154.311 125.135 154.389Z" fill="#E0E0E0"/>
<path d="M55.3857 118.18L41.6131 145.961L45.7256 146.117L34.0563 168.193H40.1852L30.624 187.806H84.07L72.3019 168.193L77.9403 167.947L66.6634 145.883L70.8305 145.638L55.3857 118.18Z" fill="#F0F0F0"/>
<path d="M55.9088 150.305C56.0245 150.306 55.9458 164.729 55.7335 182.516C55.5212 200.309 55.2551 214.728 55.1393 214.726C55.0236 214.724 55.1024 200.304 55.3146 182.511C55.5269 164.724 55.793 150.303 55.9088 150.305Z" fill="#E0E0E0"/>
<path d="M63.8546 158.613C63.9286 158.703 62.1758 160.278 59.9407 162.131C57.7048 163.985 55.8331 165.415 55.7591 165.327C55.6851 165.237 57.4379 163.663 59.673 161.808C61.9081 159.955 63.7806 158.524 63.8546 158.613Z" fill="#E0E0E0"/>
<path d="M40.9727 64.5844H80.1637C80.1637 64.5844 80.1685 55.6126 75.5367 55.6126C69.4263 55.6126 68.3513 61.1755 68.3513 61.1755C68.3513 61.1755 68.3513 44.4298 59.9262 46.8868C51.9529 49.212 51.0524 59.9309 51.0524 59.9309C51.0524 59.9309 49.6173 54.5401 45.2958 57.5784C40.9727 60.6159 40.9727 64.5844 40.9727 64.5844Z" fill="#F0F0F0"/>
<path d="M374.431 346.373C374.431 346.489 293.349 346.582 193.352 346.582C93.3209 346.582 12.2559 346.488 12.2559 346.373C12.2559 346.257 93.3209 346.164 193.352 346.164C293.349 346.163 374.431 346.257 374.431 346.373Z" fill="#263238"/>
<path d="M166.586 106.198V253.819H332.605V106.198H314.645L278.287 60.6406L247.624 105.759L166.586 106.198Z" fill="#E8505B"/>
<g opacity="0.5">
<path d="M166.586 106.198V253.819H332.605V106.198H314.645L278.287 60.6406L247.624 105.759L166.586 106.198Z" fill="white"/>
</g>
<path d="M199.41 51.9409C198.592 53.0303 151.728 108.342 151.728 108.342H246.547L278.288 60.6402L314.646 106.197L347.905 106.162L307.307 50.5781L199.41 51.9409Z" fill="#263238"/>
<path d="M230.909 247.695H191.569V253.821H230.909V247.695Z" fill="#E6E6E6"/>
<path d="M235.001 256.867H182.508V261.623H235.001V256.867Z" fill="#E6E6E6"/>
<path d="M194.182 188.352L194.506 247.374H228.297V188.352H194.182Z" fill="#E8505B"/>
<g opacity="0.2">
<path d="M194.182 188.352L194.506 247.374H228.297V188.352H194.182Z" fill="black"/>
</g>
<g opacity="0.4">
<path d="M221.775 216.804C222.357 217.386 222.357 218.331 221.775 218.913C221.193 219.495 220.248 219.495 219.666 218.913C219.084 218.331 219.084 217.386 219.666 216.804C220.249 216.222 221.193 216.222 221.775 216.804Z" fill="black"/>
</g>
<path d="M211.354 168.078L180.195 193.769V200.875L211.63 175.345L240.424 198.937V191.515L211.354 168.078Z" fill="#263238"/>
<path d="M228.251 44.3047H220.968V54.3941H228.251V44.3047Z" fill="#E8505B"/>
<path d="M240.85 38.9922H233.173V54.3968H240.85V38.9922Z" fill="#E8505B"/>
<g opacity="0.4">
<path d="M228.251 44.3047H220.968V54.3941H228.251V44.3047Z" fill="black"/>
<path d="M240.85 38.9922H233.173V54.3968H240.85V38.9922Z" fill="black"/>
</g>
<path d="M283.744 84.3672H275.155V92.9555H283.744V84.3672Z" fill="white"/>
<g opacity="0.1">
<path d="M246.547 108.342H251.122L281.157 64.2353L278.288 60.6406L246.547 108.342Z" fill="black"/>
</g>
<g opacity="0.1">
<path d="M166.586 108.344V113.106L246.546 108.344H166.586Z" fill="black"/>
</g>
<g opacity="0.1">
<path d="M314.646 106.203L332.605 112.166V106.203H314.646Z" fill="black"/>
</g>
<path d="M233.172 251.469H187.446V257.413H233.172V251.469Z" fill="#E6E6E6"/>
<path d="M231.973 251.545C231.973 251.661 222.084 251.754 209.89 251.754C197.691 251.754 187.805 251.66 187.805 251.545C187.805 251.43 197.691 251.336 209.89 251.336C222.084 251.336 231.973 251.43 231.973 251.545Z" fill="#E0E0E0"/>
<path d="M231.973 256.857C231.973 256.973 222.084 257.067 209.89 257.067C197.691 257.067 187.805 256.972 187.805 256.857C187.805 256.743 197.691 256.648 209.89 256.648C222.084 256.648 231.973 256.742 231.973 256.857Z" fill="#E0E0E0"/>
<path d="M229.67 116.516H191.569V152.709H229.67V116.516Z" fill="white"/>
<path d="M208.807 116.516C208.807 116.516 198.007 134.938 192.083 135.099C192.083 135.099 197.569 137.896 197.984 152.71H191.569V116.516L208.807 116.516Z" fill="#E8505B"/>
<path d="M212.431 116.516C212.431 116.516 223.231 134.938 229.155 135.099C229.155 135.099 223.669 137.896 223.253 152.71H229.668V116.516L212.431 116.516Z" fill="#E8505B"/>
<path d="M210.913 116.195H209.705V154.805H210.913V116.195Z" fill="#263238"/>
<path d="M191.004 134.901V136.109H229.614V134.901H191.004Z" fill="#263238"/>
<path d="M231.586 152.711H189.032V153.61H231.586V152.711Z" fill="#263238"/>
<path d="M309.223 116.516H271.122V152.709H309.223V116.516Z" fill="white"/>
<path d="M288.36 116.516C288.36 116.516 277.56 134.938 271.636 135.099C271.636 135.099 277.122 137.896 277.537 152.71H271.122V116.516L288.36 116.516Z" fill="#E8505B"/>
<path d="M291.983 116.516C291.983 116.516 302.784 134.938 308.707 135.099C308.707 135.099 303.222 137.896 302.806 152.71H309.221V116.516L291.983 116.516Z" fill="#E8505B"/>
<path d="M290.466 116.195H289.258V154.805H290.466V116.195Z" fill="#263238"/>
<path d="M270.557 134.901V136.109H309.166V134.901H270.557Z" fill="#263238"/>
<path d="M311.139 152.711H268.585V153.61H311.139V152.711Z" fill="#263238"/>
<path d="M309.223 192.953H271.122V229.147H309.223V192.953Z" fill="white"/>
<path d="M288.36 192.953C288.36 192.953 277.56 211.376 271.636 211.537C271.636 211.537 277.122 214.334 277.537 229.148H271.122V192.954L288.36 192.953Z" fill="#E8505B"/>
<path d="M291.983 192.953C291.983 192.953 302.784 211.376 308.707 211.537C308.707 211.537 303.222 214.334 302.806 229.148H309.221V192.954L291.983 192.953Z" fill="#E8505B"/>
<path d="M290.466 192.633H289.258V231.242H290.466V192.633Z" fill="#263238"/>
<path d="M270.557 211.338V212.547H309.166V211.338H270.557Z" fill="#263238"/>
<path d="M311.139 229.148H268.585V230.047H311.139V229.148Z" fill="#263238"/>
<path d="M170.446 224.938V345.789H180.818V233.055H259.732V224.938H170.446Z" fill="#455A64"/>
<path d="M180.818 233.055H177.466V345.789H180.818V233.055Z" fill="#263238"/>
<path d="M259.732 224.938H253.421V233.055H259.732V224.938Z" fill="#263238"/>
<path d="M261.593 238.969H185.452V286.981H261.593V238.969Z" fill="#E8505B"/>
<path d="M261.593 238.969H185.452V286.981H261.593V238.969Z" fill="#AAAAAA"/>
<path d="M216.03 270.208C216.465 270.237 216.903 270.174 217.312 270.021C217.721 269.868 218.093 269.63 218.403 269.323C218.99 268.613 219.282 267.705 219.221 266.786C219.226 266.284 219.146 265.785 218.986 265.31C218.848 264.888 218.645 264.491 218.384 264.133C218.137 263.802 217.867 263.49 217.575 263.198C217.283 262.907 216.988 262.628 216.691 262.361C216.405 262.107 216.132 261.837 215.874 261.555C215.627 261.283 215.423 260.975 215.27 260.641C215.115 260.306 215.035 259.941 215.036 259.572C215.036 258.679 215.393 258.232 216.106 258.23C216.819 258.228 217.176 258.676 217.176 259.572V260.135H219.199V259.71C219.261 258.794 218.976 257.889 218.402 257.173C218.096 256.865 217.728 256.626 217.321 256.474C216.915 256.321 216.481 256.258 216.048 256.289C215.615 256.258 215.18 256.321 214.774 256.474C214.368 256.626 213.999 256.865 213.694 257.173C213.119 257.889 212.835 258.794 212.896 259.71C212.889 260.385 213.035 261.053 213.325 261.663C213.583 262.215 213.939 262.715 214.375 263.14C214.789 263.535 215.201 263.914 215.61 264.277C216.011 264.632 216.362 265.04 216.651 265.491C216.93 265.915 217.079 266.412 217.079 266.92C217.079 267.8 216.71 268.241 215.97 268.241C215.23 268.242 214.86 267.802 214.86 266.922V265.949H212.838V266.786C212.776 267.705 213.069 268.613 213.656 269.323C213.966 269.631 214.338 269.869 214.747 270.022C215.157 270.174 215.594 270.238 216.03 270.208ZM222.586 270.051V256.442H220.447V270.053H222.586V270.051ZM227.529 270.051C229.655 270.051 230.719 268.93 230.72 266.687V259.806C230.72 257.563 229.656 256.441 227.529 256.442H224.143V270.053H227.529V270.051ZM227.487 268.107H226.283V258.386H227.488C228.214 258.386 228.577 258.826 228.577 259.708V266.785C228.577 267.666 228.214 268.107 227.488 268.107H227.487Z" fill="#EB5535"/>
<path d="M219.253 246.508V248.114H206.958V260.429H205.354V246.508H219.253Z" fill="#EB5535"/>
<path d="M224.104 246.508V248.114H236.399V260.429H238.001V246.508H224.104Z" fill="#80BB01"/>
<path d="M219.253 279.991V278.385H206.958V266.07H205.354V279.991H219.253Z" fill="#F9AE39"/>
<path d="M224.104 279.991V278.385H236.399V266.07H238.001V279.991H224.104Z" fill="#397BE7"/>
<path d="M261.594 238.969H257.391V286.981H261.594V238.969Z" fill="#E8505B"/>
<g opacity="0.2">
<path d="M261.594 238.969H257.391V286.981H261.594V238.969Z" fill="black"/>
</g>
<path d="M253.42 282.843C253.42 282.843 253.408 282.59 253.403 282.115C253.399 281.627 253.392 280.927 253.384 280.017C253.375 278.17 253.36 275.477 253.342 272.027C253.322 265.122 253.292 255.198 253.256 243.061L253.42 243.226C236.143 243.238 214.006 243.254 189.945 243.271H189.94L190.15 243.062C190.144 257.168 190.138 270.613 190.133 282.844L189.94 282.651C208.552 282.69 224.396 282.723 235.601 282.746C241.204 282.769 245.647 282.786 248.704 282.798C250.221 282.809 251.392 282.816 252.2 282.822C252.589 282.826 252.889 282.83 253.106 282.833C253.31 282.836 253.42 282.843 253.42 282.843C253.42 282.843 253.326 282.851 253.129 282.855C252.917 282.858 252.624 282.861 252.245 282.866C251.446 282.871 250.288 282.88 248.788 282.889C245.741 282.901 241.313 282.919 235.729 282.941C224.492 282.965 208.605 282.998 189.94 283.036H189.748V282.843C189.743 270.611 189.737 257.167 189.731 243.061V242.852H189.941H189.946C214.007 242.868 236.143 242.884 253.421 242.897H253.587L253.586 243.061C253.55 255.24 253.52 265.2 253.499 272.129C253.482 275.563 253.467 278.243 253.457 280.082C253.449 280.98 253.443 281.669 253.439 282.149C253.432 282.614 253.42 282.843 253.42 282.843Z" fill="#263238"/>
<path d="M200.163 233.055H197.899V238.972H200.163V233.055Z" fill="#E8505B"/>
<path d="M237.344 233.055H235.081V238.972H237.344V233.055Z" fill="#E8505B"/>
<path d="M251.923 246.347C251.889 246.348 251.874 246.199 251.791 245.958C251.708 245.722 251.531 245.385 251.171 245.134C250.823 244.882 250.269 244.752 249.742 244.956C249.22 245.145 248.776 245.701 248.781 246.347C248.776 246.994 249.22 247.551 249.742 247.739C250.269 247.943 250.823 247.813 251.171 247.561C251.53 247.31 251.708 246.972 251.791 246.737C251.875 246.496 251.889 246.347 251.923 246.347C251.946 246.347 251.989 246.498 251.949 246.776C251.909 247.049 251.755 247.463 251.351 247.796C250.962 248.13 250.285 248.337 249.611 248.102C248.944 247.889 248.355 247.18 248.363 246.347C248.355 245.515 248.944 244.806 249.611 244.593C250.285 244.358 250.961 244.565 251.351 244.899C251.755 245.232 251.909 245.646 251.949 245.919C251.99 246.198 251.946 246.349 251.923 246.347Z" fill="#263238"/>
<path d="M251.159 245.348C251.243 245.427 250.944 245.882 250.491 246.365C250.037 246.847 249.602 247.174 249.517 247.096C249.433 247.017 249.732 246.561 250.185 246.078C250.639 245.596 251.075 245.269 251.159 245.348Z" fill="#263238"/>
<path d="M251.34 246.981C251.298 247.085 250.721 246.938 250.168 246.482C249.611 246.029 249.355 245.491 249.449 245.43C249.546 245.361 249.927 245.747 250.433 246.158C250.935 246.574 251.388 246.872 251.34 246.981Z" fill="#263238"/>
<path d="M251.308 280.246C251.275 280.247 251.26 280.097 251.177 279.857C251.094 279.62 250.916 279.284 250.557 279.032C250.209 278.779 249.655 278.649 249.128 278.854C248.605 279.043 248.162 279.6 248.167 280.246C248.162 280.892 248.606 281.449 249.128 281.638C249.655 281.842 250.209 281.712 250.557 281.459C250.916 281.208 251.094 280.871 251.177 280.635C251.26 280.395 251.275 280.246 251.308 280.246C251.332 280.245 251.375 280.396 251.335 280.674C251.295 280.946 251.14 281.361 250.737 281.695C250.348 282.028 249.671 282.236 248.997 282C248.33 281.787 247.74 281.079 247.749 280.246C247.741 279.413 248.33 278.705 248.997 278.492C249.671 278.256 250.347 278.463 250.737 278.797C251.14 279.131 251.295 279.545 251.335 279.817C251.375 280.096 251.332 280.248 251.308 280.246Z" fill="#263238"/>
<path d="M250.545 279.246C250.629 279.326 250.33 279.781 249.877 280.263C249.423 280.746 248.987 281.073 248.903 280.994C248.819 280.915 249.118 280.459 249.571 279.977C250.025 279.495 250.461 279.167 250.545 279.246Z" fill="#263238"/>
<path d="M250.726 280.88C250.685 280.984 250.107 280.837 249.554 280.381C248.998 279.927 248.741 279.39 248.835 279.328C248.933 279.26 249.314 279.646 249.82 280.057C250.321 280.472 250.775 280.771 250.726 280.88Z" fill="#263238"/>
<path d="M195 279.433C194.966 279.434 194.952 279.285 194.868 279.044C194.786 278.808 194.607 278.471 194.248 278.22C193.9 277.968 193.346 277.837 192.819 278.042C192.298 278.231 191.853 278.787 191.859 279.433C191.853 280.08 192.298 280.636 192.819 280.825C193.346 281.029 193.9 280.899 194.248 280.647C194.607 280.396 194.785 280.058 194.868 279.822C194.952 279.582 194.966 279.433 195 279.433C195.023 279.433 195.067 279.584 195.026 279.862C194.986 280.135 194.832 280.549 194.428 280.882C194.039 281.216 193.362 281.423 192.688 281.188C192.021 280.975 191.432 280.266 191.441 279.433C191.432 278.6 192.021 277.892 192.688 277.679C193.362 277.444 194.038 277.651 194.428 277.985C194.832 278.318 194.986 278.732 195.026 279.005C195.067 279.283 195.023 279.434 195 279.433Z" fill="#263238"/>
<path d="M194.236 278.434C194.321 278.512 194.021 278.968 193.568 279.451C193.115 279.933 192.679 280.26 192.594 280.181C192.51 280.103 192.809 279.647 193.262 279.164C193.716 278.682 194.152 278.355 194.236 278.434Z" fill="#263238"/>
<path d="M194.418 280.067C194.376 280.17 193.799 280.024 193.246 279.568C192.689 279.115 192.433 278.577 192.527 278.516C192.624 278.447 193.005 278.833 193.511 279.244C194.013 279.66 194.466 279.957 194.418 280.067Z" fill="#263238"/>
<path d="M195.297 247.019C195.263 247.02 195.248 246.871 195.165 246.63C195.082 246.394 194.904 246.057 194.545 245.805C194.197 245.553 193.643 245.423 193.116 245.627C192.594 245.816 192.15 246.372 192.155 247.019C192.15 247.665 192.594 248.221 193.116 248.41C193.643 248.615 194.197 248.484 194.545 248.232C194.904 247.981 195.082 247.643 195.165 247.407C195.248 247.168 195.262 247.019 195.297 247.019C195.32 247.019 195.363 247.17 195.323 247.448C195.283 247.72 195.129 248.135 194.725 248.468C194.336 248.802 193.659 249.009 192.985 248.774C192.318 248.561 191.729 247.852 191.737 247.019C191.729 246.186 192.318 245.478 192.985 245.265C193.659 245.029 194.335 245.237 194.724 245.571C195.128 245.904 195.282 246.318 195.322 246.591C195.363 246.87 195.319 247.021 195.297 247.019Z" fill="#263238"/>
<path d="M194.533 246.012C194.617 246.091 194.318 246.546 193.865 247.029C193.411 247.511 192.976 247.838 192.891 247.76C192.807 247.681 193.106 247.225 193.559 246.743C194.013 246.26 194.449 245.933 194.533 246.012Z" fill="#263238"/>
<path d="M194.715 247.645C194.673 247.749 194.096 247.602 193.543 247.146C192.986 246.693 192.73 246.156 192.824 246.094C192.921 246.026 193.302 246.411 193.809 246.822C194.31 247.238 194.763 247.536 194.715 247.645Z" fill="#263238"/>
<path d="M290.49 327.997C285.666 325.397 283.721 321.731 282.587 316.37C281.453 311.009 282.791 305.177 286.149 300.847C288.947 297.237 293.07 294.602 294.986 290.455C297.028 286.035 296.291 280.418 299.404 276.674C301.542 274.102 304.985 273.082 307.721 271.157C309.954 269.587 311.692 267.427 313.686 265.562C315.68 263.698 318.112 262.06 320.839 261.951C324.953 261.786 328.59 265.425 329.255 269.488C329.921 273.552 328.092 277.723 325.28 280.73C323.24 282.911 320.624 284.702 319.439 287.444C317.213 292.593 320.896 298.964 318.451 304.013C316.665 307.699 311.908 309.915 311.685 314.005C311.603 315.509 312.194 316.965 312.355 318.463C312.86 323.147 308.92 327.423 304.411 328.785C299.9 330.146 295.032 329.245 290.49 327.997Z" fill="#E8505B"/>
<path d="M313.901 279.415C313.915 279.428 313.767 279.636 313.473 280.019C313.139 280.443 312.704 280.994 312.165 281.678C311.583 282.387 310.886 283.264 310.139 284.332C309.383 285.392 308.468 286.559 307.601 287.951C307.152 288.637 306.682 289.355 306.194 290.101C305.708 290.851 305.264 291.669 304.77 292.494C303.758 294.134 302.842 295.975 301.838 297.893C299.942 301.782 298.092 306.173 296.559 310.927C295.069 315.697 294.047 320.353 293.354 324.624C293.067 326.769 292.754 328.802 292.635 330.725C292.563 331.684 292.453 332.609 292.418 333.502C292.386 334.394 292.357 335.251 292.328 336.071C292.234 337.707 292.308 339.189 292.314 340.491C292.308 341.793 292.372 342.912 292.439 343.826C292.485 344.696 292.522 345.397 292.551 345.936C292.571 346.419 292.571 346.674 292.552 346.677C292.533 346.678 292.494 346.427 292.438 345.947C292.382 345.409 292.31 344.711 292.22 343.842C292.12 342.928 292.024 341.807 292 340.501C291.964 339.195 291.861 337.709 291.931 336.064C291.947 335.24 291.966 334.378 291.984 333.481C292.009 332.583 292.107 331.654 292.17 330.688C292.27 328.754 292.567 326.706 292.842 324.546C293.51 320.246 294.524 315.557 296.024 310.758C297.567 305.974 299.442 301.559 301.375 297.661C302.396 295.74 303.334 293.896 304.368 292.258C304.874 291.433 305.329 290.616 305.828 289.869C306.329 289.126 306.812 288.412 307.273 287.729C308.165 286.346 309.106 285.19 309.889 284.144C310.662 283.091 311.387 282.23 311.996 281.54C312.57 280.883 313.032 280.354 313.388 279.946C313.709 279.585 313.886 279.402 313.901 279.415Z" fill="#263238"/>
<path d="M269.348 310.414C271.278 310.498 273.08 311.562 274.341 313.025C275.601 314.489 276.366 316.322 276.849 318.192C277.784 321.81 277.154 326.065 276.094 329.648C272.197 328.218 269.824 324.03 268.753 321.829C267.061 318.351 266.113 311.038 269.348 310.414Z" fill="#E8505B"/>
<path d="M281.681 334.073C280.462 332.292 280.455 329.83 281.446 327.913C282.437 325.997 284.322 324.625 286.39 324.009C287.346 323.725 288.453 323.611 289.278 324.172C290.049 324.697 290.376 325.716 290.268 326.642C290.16 327.569 289.683 328.414 289.122 329.159C287.199 331.716 284.87 333.837 281.681 334.073Z" fill="#E8505B"/>
<g opacity="0.2">
<path d="M269.348 310.414C271.278 310.498 273.08 311.562 274.341 313.025C275.601 314.489 276.366 316.322 276.849 318.192C277.784 321.81 277.154 326.065 276.094 329.648C272.197 328.218 269.824 324.03 268.753 321.829C267.061 318.351 266.113 311.038 269.348 310.414Z" fill="black"/>
</g>
<g opacity="0.2">
<path d="M281.681 334.073C280.462 332.292 280.455 329.83 281.446 327.913C282.437 325.997 284.322 324.625 286.39 324.009C287.346 323.725 288.453 323.611 289.278 324.172C290.049 324.697 290.376 325.716 290.268 326.642C290.16 327.569 289.683 328.414 289.122 329.159C287.199 331.716 284.87 333.837 281.681 334.073Z" fill="black"/>
</g>
<g opacity="0.2">
<path d="M277.623 337.619C275.092 333.84 270.64 331.423 266.091 331.36C264.934 331.344 263.557 331.62 263.104 332.685C262.649 333.753 263.411 334.94 264.246 335.745C267.724 339.095 273.326 340.004 277.683 337.927" fill="black"/>
</g>
<path d="M277.623 337.619C275.092 333.84 270.64 331.423 266.091 331.36C264.934 331.344 263.557 331.62 263.104 332.685C262.649 333.753 263.411 334.94 264.246 335.745C267.724 339.095 273.326 340.004 277.683 337.927" fill="#E8505B"/>
<path d="M281.713 346.483C281.685 346.487 281.617 346.216 281.521 345.721C281.424 345.227 281.299 344.509 281.171 343.616C280.926 341.837 280.633 339.325 280.989 336.563C281.347 333.796 282.467 331.438 283.634 330.037C284.21 329.329 284.762 328.832 285.172 328.532C285.581 328.231 285.83 328.099 285.843 328.119C285.897 328.185 284.932 328.789 283.868 330.218C282.794 331.625 281.754 333.923 281.404 336.618C281.055 339.315 281.296 341.8 281.465 343.581C281.649 345.366 281.774 346.474 281.713 346.483Z" fill="#263238"/>
<path d="M270.562 315.922C270.588 315.911 270.792 316.324 271.138 317.081C271.485 317.839 271.969 318.942 272.551 320.312C273.718 323.051 275.267 326.862 276.874 331.112C278.48 335.364 279.839 339.247 280.776 342.073C281.245 343.486 281.613 344.633 281.853 345.431C282.094 346.227 282.215 346.672 282.187 346.682C282.16 346.69 281.987 346.263 281.699 345.483C281.39 344.631 280.985 343.516 280.497 342.17C279.488 339.371 278.087 335.508 276.482 331.261C274.877 327.016 273.373 323.192 272.277 320.425C271.753 319.093 271.319 317.988 270.988 317.146C270.688 316.368 270.535 315.934 270.562 315.922Z" fill="#263238"/>
<path d="M268.084 334.206C268.086 334.177 268.353 334.183 268.836 334.217C269.079 334.23 269.374 334.258 269.711 334.325C270.05 334.388 270.441 334.438 270.857 334.563C271.702 334.764 272.681 335.117 273.722 335.607C274.752 336.118 275.837 336.78 276.874 337.612C277.901 338.458 278.771 339.385 279.482 340.288C280.175 341.207 280.721 342.093 281.09 342.879C281.297 343.261 281.426 343.634 281.557 343.952C281.692 344.269 281.779 344.553 281.841 344.787C281.974 345.253 282.033 345.513 282.006 345.521C281.928 345.547 281.632 344.517 280.827 343.015C280.431 342.261 279.872 341.412 279.179 340.527C278.468 339.658 277.612 338.762 276.61 337.937C275.598 337.125 274.547 336.471 273.55 335.952C272.543 335.456 271.598 335.082 270.778 334.849C269.144 334.366 268.075 334.287 268.084 334.206Z" fill="#263238"/>
<path d="M85.8859 343.898L85.6873 345.673C85.6873 345.673 80.9943 356.672 81.8683 357.503C82.7422 358.334 84.2883 359.065 86.3626 358.204C88.437 357.344 96.2446 347.351 96.2446 347.351L96.5582 345.892L85.8859 343.898Z" fill="#E8505B"/>
<path d="M82.1826 355.179C82.1826 355.179 84.6766 353.572 86.7646 356.788C86.7646 356.788 87.8572 356.174 90.6447 352.979C93.4322 349.784 96.1199 346.668 96.1199 346.668C96.1199 346.668 96.4102 346.352 96.3523 346.631C96.2944 346.91 96.2349 347.395 96.2349 347.395L90.8947 353.839C90.8947 353.839 87.6836 357.605 86.7919 358.007C85.9003 358.409 85.0103 358.869 83.7423 358.527C82.4744 358.184 81.7613 357.436 81.7364 357.276C81.7106 357.116 82.1826 355.179 82.1826 355.179Z" fill="#F0F0F0"/>
<path d="M87.3014 357.865C87.2379 357.917 86.7659 356.455 85.2568 355.551C83.7493 354.643 82.237 354.915 82.2531 354.834C82.2474 354.806 82.5988 354.696 83.1897 354.703C83.775 354.708 84.6056 354.867 85.3863 355.335C86.1669 355.804 86.6976 356.462 86.9766 356.976C87.2604 357.494 87.3279 357.857 87.3014 357.865Z" fill="#263238"/>
<path d="M96.5657 346.149C96.5786 346.16 96.4066 346.384 96.0825 346.778C95.6934 347.242 95.2311 347.793 94.694 348.434C93.4309 349.9 91.8213 351.767 90.0413 353.833C89.1247 354.876 88.2757 355.909 87.3141 356.673C86.3622 357.441 85.2784 357.874 84.3393 357.887C83.3946 357.907 82.6766 357.542 82.2827 357.214C81.8815 356.879 81.7705 356.603 81.7705 356.603C81.7906 356.586 81.9377 356.838 82.3422 357.137C82.7393 357.431 83.438 357.751 84.3329 357.71C85.2245 357.675 86.2528 357.248 87.1694 356.494C88.0932 355.744 88.9366 354.712 89.8539 353.667C91.6549 351.621 93.283 349.771 94.5606 348.318C95.121 347.698 95.6034 347.164 96.0094 346.716C96.3551 346.339 96.5529 346.138 96.5657 346.149Z" fill="#263238"/>
<path d="M87.4362 351.924C87.4 351.985 86.8509 351.72 86.1699 351.414C85.4889 351.107 84.9269 350.873 84.9478 350.805C84.9671 350.741 85.5766 350.871 86.2728 351.185C86.9691 351.498 87.4716 351.866 87.4362 351.924Z" fill="#263238"/>
<path d="M88.5363 350.274C88.5114 350.34 87.8505 350.15 87.0336 349.937C86.2176 349.72 85.5494 349.558 85.5607 349.488C85.5703 349.421 86.2682 349.474 87.0979 349.694C87.9277 349.912 88.5604 350.211 88.5363 350.274Z" fill="#263238"/>
<path d="M89.5701 348.833C89.5291 348.895 88.8891 348.504 88.0184 348.237C87.1501 347.962 86.4008 347.922 86.4024 347.847C86.3967 347.784 87.1814 347.71 88.0932 347.998C89.0065 348.278 89.6111 348.784 89.5701 348.833Z" fill="#263238"/>
<path d="M90.0568 347.248C90.0206 347.312 89.4369 347.026 88.6731 346.823C87.9109 346.613 87.2629 346.566 87.2637 346.492C87.2597 346.427 87.9382 346.361 88.739 346.58C89.5398 346.795 90.093 347.194 90.0568 347.248Z" fill="#455A64"/>
<path d="M89.522 345.899C89.51 345.927 89.1651 345.822 88.6674 345.523C88.419 345.373 88.1367 345.173 87.8489 344.917C87.7058 344.79 87.5611 344.648 87.4196 344.494C87.3512 344.418 87.2716 344.337 87.2105 344.221C87.1462 344.111 87.1213 343.926 87.2154 343.789C87.4188 343.53 87.7106 343.543 87.9285 343.588C88.1488 343.639 88.3426 343.743 88.5026 343.865C88.825 344.113 89.0115 344.436 89.1176 344.709C89.321 345.266 89.3001 345.632 89.2752 345.634C89.2326 345.643 89.186 345.282 88.9544 344.78C88.8354 344.533 88.6513 344.256 88.3643 344.051C88.1086 343.853 87.6182 343.697 87.4252 343.925C87.3512 344.018 87.4606 344.181 87.6021 344.33C87.7356 344.481 87.8706 344.62 88.0049 344.748C88.2734 345.003 88.5355 345.212 88.7647 345.376C89.2238 345.702 89.5389 345.864 89.522 345.899Z" fill="#455A64"/>
<path d="M89.361 345.742C89.3352 345.741 89.3465 345.354 89.6512 344.829C89.8064 344.572 90.0363 344.286 90.3611 344.047C90.5243 343.928 90.7036 343.822 90.9135 343.735C91.0228 343.695 91.1426 343.662 91.2817 343.674C91.4208 343.681 91.584 343.781 91.6403 343.933C91.7368 344.243 91.5784 344.472 91.4755 344.652C91.3573 344.839 91.2166 345.001 91.0687 345.138C90.7712 345.412 90.4423 345.581 90.1553 345.672C89.5724 345.856 89.1913 345.755 89.1993 345.733C89.1985 345.687 89.5692 345.718 90.0942 345.505C90.3539 345.4 90.6474 345.229 90.9095 344.97C91.0405 344.841 91.1635 344.691 91.2664 344.523C91.3718 344.357 91.457 344.155 91.4079 344.026C91.3685 343.902 91.1772 343.897 90.9995 343.965C90.821 344.036 90.6465 344.132 90.4962 344.236C90.1907 344.444 89.964 344.696 89.7999 344.925C89.4775 345.392 89.4028 345.753 89.361 345.742Z" fill="#455A64"/>
<path d="M94.6804 345.62C94.6764 345.661 94.3081 345.537 93.8233 345.819C93.3498 346.086 92.8006 346.686 92.504 347.477C92.2017 348.273 92.266 349.073 92.4123 349.607C92.5586 350.148 92.7516 350.452 92.7154 350.473C92.6945 350.49 92.4429 350.216 92.2427 349.659C92.0441 349.112 91.942 348.247 92.2684 347.388C92.59 346.536 93.197 345.914 93.7429 345.66C94.3089 345.391 94.7093 345.599 94.6804 345.62Z" fill="#263238"/>
<path d="M91.6541 350.253C91.7063 350.298 91.318 350.837 90.7866 351.455C90.2551 352.074 89.7815 352.539 89.7285 352.493C89.6754 352.448 90.0638 351.909 90.596 351.291C91.1283 350.673 91.6018 350.208 91.6541 350.253Z" fill="#263238"/>
<path d="M92.7451 349.258C92.8142 349.246 92.8995 349.406 92.9694 349.604C93.0386 349.804 93.0723 349.98 93.0104 350.014C92.9509 350.048 92.8094 349.908 92.7322 349.687C92.655 349.467 92.6776 349.27 92.7451 349.258Z" fill="#263238"/>
<path d="M92.855 347.667C92.9202 347.692 92.9129 347.872 92.8711 348.08C92.8285 348.287 92.7642 348.457 92.6943 348.454C92.6259 348.451 92.5785 348.258 92.6251 348.029C92.6709 347.8 92.7907 347.642 92.855 347.667Z" fill="#263238"/>
<path d="M93.7847 346.378C93.8265 346.434 93.722 346.582 93.5757 346.734C93.4277 346.885 93.2838 346.995 93.2267 346.955C93.1696 346.917 93.2324 346.728 93.3956 346.56C93.558 346.392 93.7437 346.323 93.7847 346.378Z" fill="#455A64"/>
<path d="M95.2521 345.762C95.2593 345.832 95.0945 345.906 94.8903 345.961C94.686 346.016 94.5052 346.035 94.477 345.971C94.4489 345.908 94.5992 345.779 94.8243 345.718C95.0503 345.658 95.2456 345.693 95.2521 345.762Z" fill="#455A64"/>
<path d="M111.676 347.866L113.259 340.514L99.5068 337.461L97.0771 348.193L97.9181 348.436C101.666 349.49 117.05 353.527 119.757 353.321C122.777 353.091 111.676 347.866 111.676 347.866Z" fill="#E8505B"/>
<path d="M102.087 349.192C102.147 347.999 101.745 346.79 100.984 345.87C100.222 344.95 99.1737 344.321 97.991 344.156L97.1348 347.999L102.087 349.192Z" fill="#E8505B"/>
<path d="M117.055 350.623C117.055 350.623 120.888 352.714 120.228 353.275C119.567 353.836 103.867 350.34 97.0771 348.193L97.1672 347.891L115.445 352.124C115.445 352.124 116.247 350.48 117.055 350.623Z" fill="#F0F0F0"/>
<path d="M96.9531 347.829C96.9515 347.835 97.0311 347.861 97.1839 347.907C97.3849 347.965 97.6052 348.028 97.8536 348.099C98.5266 348.28 99.3531 348.501 100.329 348.764C102.423 349.309 105.326 350.025 108.548 350.745C111.773 351.465 114.704 352.053 116.831 352.45C117.826 352.628 118.668 352.779 119.353 352.903C119.608 352.944 119.835 352.98 120.042 353.013C120.199 353.037 120.283 353.046 120.284 353.041C120.284 353.035 120.203 353.014 120.048 352.98C119.843 352.937 119.619 352.89 119.366 352.837C118.684 352.7 117.845 352.531 116.855 352.332C114.734 351.905 111.808 351.298 108.586 350.579C105.365 349.859 102.46 349.162 100.359 348.646C99.378 348.405 98.5467 348.201 97.8713 348.035C97.6197 347.976 97.397 347.923 97.1935 347.874C97.0368 347.839 96.9548 347.824 96.9531 347.829Z" fill="#263238"/>
<path d="M115.393 352.333C115.442 352.351 115.615 351.762 116.126 351.244C116.628 350.716 117.21 350.526 117.191 350.477C117.19 350.433 116.543 350.561 116.004 351.125C115.457 351.683 115.35 352.334 115.393 352.333Z" fill="#263238"/>
<path d="M111.795 349.369C111.828 349.403 112.075 349.209 112.346 348.938C112.617 348.666 112.81 348.42 112.776 348.387C112.742 348.353 112.496 348.547 112.225 348.818C111.954 349.089 111.761 349.336 111.795 349.369Z" fill="#263238"/>
<path d="M110.812 348.534C110.836 348.575 111.085 348.479 111.369 348.319C111.653 348.159 111.865 347.996 111.841 347.955C111.818 347.914 111.569 348.01 111.285 348.17C111.001 348.33 110.789 348.493 110.812 348.534Z" fill="#263238"/>
<path d="M110.398 347.082C110.387 347.128 110.699 347.24 111.095 347.334C111.49 347.426 111.82 347.465 111.831 347.418C111.842 347.372 111.53 347.26 111.134 347.167C110.738 347.074 110.408 347.036 110.398 347.082Z" fill="#263238"/>
<path d="M110.36 346.116C110.335 346.154 110.65 346.39 111.108 346.527C111.567 346.667 111.959 346.646 111.96 346.601C111.962 346.552 111.593 346.497 111.158 346.364C110.722 346.234 110.385 346.074 110.36 346.116Z" fill="#263238"/>
<path d="M112.528 348.275C112.524 348.293 112.853 348.41 113.414 348.466C113.693 348.494 114.029 348.501 114.4 348.468C114.586 348.445 114.776 348.439 114.988 348.366C115.088 348.328 115.203 348.267 115.268 348.14C115.334 348.016 115.296 347.852 115.212 347.758C114.465 347.132 113.513 347.419 113.103 347.786C112.881 347.97 112.753 348.17 112.684 348.311C112.614 348.454 112.598 348.541 112.608 348.545C112.637 348.563 112.745 348.21 113.178 347.881C113.391 347.719 113.69 347.582 114.042 347.558C114.375 347.535 114.825 347.609 115.079 347.865C115.197 348 115.105 348.152 114.928 348.211C114.762 348.272 114.561 348.287 114.385 348.312C114.025 348.353 113.697 348.358 113.422 348.347C112.872 348.321 112.534 348.247 112.528 348.275Z" fill="#263238"/>
<path d="M112.747 348.375C112.758 348.388 112.939 348.191 112.986 347.784C113.008 347.584 112.988 347.337 112.889 347.084C112.776 346.853 112.636 346.538 112.254 346.47C112.043 346.451 111.891 346.661 111.89 346.817C111.872 346.976 111.912 347.124 111.952 347.246C112.034 347.496 112.144 347.707 112.251 347.873C112.468 348.205 112.663 348.358 112.677 348.343C112.697 348.325 112.536 348.146 112.354 347.812C112.264 347.645 112.172 347.438 112.103 347.199C112.023 346.985 112.014 346.632 112.245 346.64C112.471 346.669 112.648 346.939 112.743 347.145C112.84 347.367 112.871 347.591 112.866 347.776C112.853 348.151 112.719 348.362 112.747 348.375Z" fill="#263238"/>
<path d="M98.0713 344.135C98.0673 344.167 98.4733 344.185 99.0787 344.397C99.6793 344.603 100.479 345.046 101.092 345.804C101.704 346.564 101.968 347.44 102.041 348.07C102.12 348.706 102.052 349.106 102.084 349.11C102.095 349.111 102.121 349.013 102.146 348.832C102.172 348.651 102.186 348.385 102.161 348.057C102.117 347.407 101.863 346.489 101.225 345.697C100.585 344.906 99.742 344.463 99.1165 344.282C98.8014 344.189 98.5384 344.147 98.3559 344.134C98.1734 344.119 98.0721 344.125 98.0713 344.135Z" fill="#263238"/>
<path d="M100.771 338.727C100.725 338.715 100.389 339.969 100.023 341.525C99.6554 343.081 99.3949 344.351 99.4408 344.362C99.4866 344.372 99.8219 343.12 100.189 341.564C100.556 340.007 100.816 338.737 100.771 338.727Z" fill="#455A64"/>
<path d="M104.115 348.232C104.1 348.274 104.963 348.62 106.078 348.878C107.193 349.14 108.12 349.21 108.125 349.165C108.131 349.116 107.221 348.971 106.117 348.713C105.012 348.456 104.132 348.185 104.115 348.232Z" fill="#263238"/>
<path d="M101.421 347.628C101.38 347.654 101.453 347.834 101.498 348.061C101.548 348.287 101.554 348.482 101.602 348.489C101.646 348.499 101.721 348.287 101.666 348.026C101.612 347.764 101.458 347.601 101.421 347.628Z" fill="#263238"/>
<path d="M100.688 346.144C100.647 346.169 100.705 346.332 100.815 346.507C100.925 346.683 101.046 346.806 101.086 346.781C101.127 346.756 101.07 346.592 100.959 346.416C100.849 346.241 100.728 346.119 100.688 346.144Z" fill="#455A64"/>
<path d="M99.3624 345.237C99.3616 345.286 99.5449 345.324 99.7306 345.441C99.9195 345.552 100.039 345.696 100.081 345.673C100.124 345.656 100.051 345.434 99.819 345.294C99.5883 345.153 99.3583 345.191 99.3624 345.237Z" fill="#455A64"/>
<path d="M98.3888 344.737C98.3623 344.777 98.4258 344.864 98.5303 344.934C98.6349 345.004 98.7402 345.028 98.7667 344.99C98.7933 344.951 98.7297 344.863 98.6252 344.793C98.5207 344.723 98.4154 344.698 98.3888 344.737Z" fill="#455A64"/>
<path d="M118.23 223.423L101.945 217.664L79.5186 221.731L80.1593 347.414L101.453 347.135C101.453 347.135 101.435 345.67 101.404 343.097L113.886 346.512C113.886 346.512 126.054 305.415 130.203 288.546C133.662 274.476 118.23 223.423 118.23 223.423ZM101.173 322.612C100.848 292.206 100.409 243.588 100.854 237.263C100.854 237.263 112.779 279.697 112.893 283.289C112.962 285.473 106.359 306.484 101.173 322.612Z" fill="#263238"/>
<path d="M101.378 321.461C101.494 321.461 101.588 327.096 101.59 334.047C101.592 340.999 101.499 346.633 101.384 346.633C101.268 346.633 101.174 340.999 101.172 334.047C101.17 327.096 101.262 321.461 101.378 321.461Z" fill="#455A64"/>
<path d="M105.997 344.151C105.989 344.15 106.008 344.051 106.05 343.861C106.099 343.65 106.164 343.372 106.247 343.018C106.435 342.256 106.702 341.173 107.043 339.79C107.759 336.966 108.785 332.922 110.05 327.935C112.632 317.914 116.19 304.11 120.12 288.864C120.919 285.787 121.703 282.769 122.452 279.882L122.45 279.974C119.84 266.662 117.227 255.007 115.161 246.706C114.129 242.574 113.299 239.253 112.721 236.939C112.44 235.813 112.22 234.933 112.065 234.31C111.999 234.025 111.945 233.8 111.904 233.626C111.871 233.472 111.856 233.392 111.862 233.391C111.868 233.389 111.895 233.465 111.941 233.617C111.991 233.788 112.056 234.01 112.138 234.29C112.31 234.909 112.553 235.783 112.864 236.903C113.483 239.18 114.37 242.494 115.425 246.64C117.562 254.925 120.228 266.581 122.854 279.893L122.863 279.94L122.851 279.986C122.103 282.874 121.321 285.892 120.524 288.969C116.548 304.204 112.948 317.996 110.335 328.009C109.016 332.981 107.946 337.014 107.2 339.83C106.826 341.205 106.534 342.281 106.328 343.039C106.228 343.387 106.15 343.662 106.091 343.871C106.035 344.059 106.003 344.154 105.997 344.151Z" fill="#455A64"/>
<path d="M89.1504 346.373C89.0347 346.373 88.9414 321.08 88.9414 289.888C88.9414 258.685 89.0355 233.398 89.1504 233.398C89.2654 233.398 89.3595 258.685 89.3595 289.888C89.3595 321.08 89.2654 346.373 89.1504 346.373Z" fill="#455A64"/>
<path d="M95.0538 155.038L107.94 155.676C108.075 154.183 108.183 148.394 108.183 148.394C108.183 148.394 113.543 147.763 113.807 142.439C114.072 137.113 113.604 124.845 113.604 124.845C107.535 121.964 100.383 122.594 94.9107 126.49L94.0986 127.069L95.0538 155.038Z" fill="#E6BBAC"/>
<path d="M110.912 133.953C110.606 133.654 110.6 133.164 110.899 132.858C111.198 132.552 111.687 132.547 111.994 132.845C112.299 133.144 112.305 133.634 112.007 133.94C111.708 134.246 111.218 134.252 110.912 133.953Z" fill="#263238"/>
<path d="M113.373 132.785C113.286 132.874 112.778 132.452 112.045 132.422C111.312 132.38 110.764 132.75 110.687 132.653C110.649 132.609 110.739 132.446 110.977 132.278C111.212 132.111 111.61 131.956 112.067 131.979C112.523 132.001 112.905 132.194 113.122 132.384C113.343 132.575 113.416 132.746 113.373 132.785Z" fill="#263238"/>
<path d="M104.122 133.115C104.477 133.352 104.574 133.833 104.336 134.188C104.099 134.543 103.618 134.64 103.262 134.402C102.907 134.165 102.811 133.684 103.049 133.328C103.286 132.973 103.767 132.878 104.122 133.115Z" fill="#263238"/>
<path d="M105.38 133.137C105.293 133.226 104.785 132.804 104.052 132.773C103.319 132.732 102.771 133.101 102.694 133.004C102.656 132.961 102.745 132.797 102.984 132.629C103.219 132.462 103.617 132.308 104.074 132.33C104.53 132.353 104.911 132.546 105.128 132.736C105.35 132.926 105.422 133.097 105.38 133.137Z" fill="#263238"/>
<path d="M108.096 139.303C108.093 139.245 108.55 139.17 109.292 139.095C109.485 139.082 109.637 139.044 109.655 138.941C109.694 138.826 109.627 138.618 109.538 138.386C109.368 137.893 109.194 137.396 109.013 136.874C108.291 134.72 107.794 132.944 107.904 132.907C108.013 132.87 108.688 134.586 109.411 136.74C109.581 137.266 109.744 137.768 109.904 138.263C109.966 138.487 110.09 138.752 109.979 139.065C109.92 139.222 109.764 139.332 109.637 139.36C109.508 139.394 109.399 139.389 109.307 139.39C108.562 139.389 108.099 139.361 108.096 139.303Z" fill="#263238"/>
<path d="M105.683 140.025C104.935 139.541 107.746 141.222 109.243 141.205C109.243 141.205 108.335 142.542 106.82 141.923C105.246 141.279 105.683 140.025 105.683 140.025Z" fill="white"/>
<path d="M108.196 148.319C108.196 148.319 104.818 148.467 101.323 146.086C101.323 146.086 102.822 149.981 108.156 149.7L108.196 148.319Z" fill="#D88876"/>
<path d="M95.1021 132.925C94.9855 132.884 91.1424 132.48 91.6144 136.995C92.0863 141.511 96.4914 139.54 96.485 139.41C96.4802 139.28 95.1021 132.925 95.1021 132.925Z" fill="#E6BBAC"/>
<path d="M94.9363 137.973C94.9146 137.961 94.8631 138.036 94.7369 138.111C94.6131 138.183 94.3952 138.249 94.15 138.185C93.6547 138.06 93.1739 137.344 93.067 136.533C93.0123 136.123 93.0573 135.722 93.1691 135.383C93.272 135.038 93.4617 134.785 93.6973 134.717C93.9305 134.637 94.1154 134.763 94.1837 134.885C94.2577 135.004 94.2384 135.098 94.2633 135.102C94.277 135.112 94.3526 135.016 94.2963 134.834C94.2682 134.746 94.2038 134.645 94.0889 134.569C93.9715 134.492 93.8075 134.464 93.6418 134.499C93.2961 134.56 93.0163 134.914 92.8933 135.286C92.7518 135.662 92.6907 136.113 92.7526 136.573C92.8764 137.48 93.4312 138.282 94.1041 138.403C94.4306 138.453 94.6854 138.329 94.8109 138.208C94.9395 138.083 94.9532 137.979 94.9363 137.973Z" fill="#D88876"/>
<path d="M112.861 125.174C114.167 124.818 115.062 123.427 114.98 122.076C114.898 120.725 113.935 119.504 112.69 118.972C111.445 118.439 109.976 118.553 108.752 119.132C108.331 117.176 106.368 115.674 104.37 115.779C102.372 115.883 100.577 117.58 100.362 119.57C100.208 118.547 99.0317 118.001 97.9977 117.965C96.9654 117.928 95.8671 118.258 95.2167 119.061C94.5663 119.864 94.5317 121.184 95.31 121.863C94.1562 121.761 92.9478 122.03 92.0272 122.735C91.1066 123.439 90.5181 124.603 90.6323 125.755C90.7464 126.908 91.6308 127.98 92.7701 128.188C93.1625 128.26 93.6328 128.27 93.8515 128.602C93.9729 128.787 93.9753 129.023 93.9745 129.243C93.9681 130.52 93.9625 131.797 93.956 133.073C94.6217 132.717 95.4877 133.185 95.8318 133.857C96.1751 134.529 96.1397 135.325 96.0963 136.079C96.4356 136.564 97.2589 136.398 97.6046 135.917C97.9503 135.437 97.9567 134.8 97.9503 134.209C97.9262 132.156 97.9021 130.104 97.878 128.052C98.489 128.372 99.264 128.353 99.859 128.003C100.454 127.654 100.848 126.986 100.866 126.297C101.752 127.108 103.011 127.494 104.201 127.32C105.391 127.146 106.486 126.413 107.101 125.381C107.749 125.869 108.406 126.362 109.154 126.674C109.903 126.986 110.765 127.103 111.525 126.82C112.285 126.537 112.898 125.792 112.866 124.981C112.774 124.906 112.682 124.832 112.59 124.757" fill="#263238"/>
<path d="M155.41 170.289C152.982 170.289 151.014 172.257 151.014 174.685C151.014 177.113 152.982 179.082 155.41 179.082C157.838 179.082 159.807 177.113 159.807 174.685C159.807 172.257 157.838 170.289 155.41 170.289ZM155.41 173.888C154.714 173.888 154.148 173.323 154.148 172.626C154.148 171.93 154.713 171.365 155.41 171.365C156.106 171.365 156.671 171.929 156.671 172.626C156.671 173.323 156.106 173.888 155.41 173.888Z" fill="#E8505B"/>
<path d="M153.952 178.758V186.664C153.952 186.664 155.702 187.469 155.607 187.574C155.513 187.68 156.868 186.664 156.868 186.664V185.717L156.073 184.912L156.868 184.176L156.039 183.17L156.868 182.284L155.969 181.268L156.868 180.357V178.758H153.952Z" fill="#E8505B"/>
<path d="M160.306 163.25L155.275 158.758L150.243 163.315L151.737 163.55L151.866 168.161L158.707 168.276L158.511 163.435L160.306 163.25ZM155.238 167.422C154.779 167.401 154.425 167.012 154.446 166.554C154.467 166.096 154.855 165.741 155.313 165.762C155.771 165.783 156.126 166.171 156.105 166.63C156.084 167.087 155.696 167.443 155.238 167.422Z" fill="#263238"/>
<path d="M155.91 167.125C155.903 167.154 155.76 167.163 155.518 167.158C155.279 167.133 154.925 167.168 154.531 167.312C154.14 167.46 153.704 167.738 153.387 168.185C153.065 168.623 152.874 169.227 152.943 169.852C153.006 170.477 153.324 171.027 153.732 171.386C154.14 171.753 154.622 171.933 155.036 171.994C155.884 172.104 156.399 171.811 156.422 171.881C156.455 171.907 155.97 172.325 155.007 172.288C154.539 172.261 153.969 172.087 153.48 171.678C152.99 171.278 152.6 170.633 152.526 169.896C152.444 169.161 152.685 168.448 153.077 167.953C153.465 167.446 153.986 167.157 154.438 167.03C154.895 166.906 155.284 166.92 155.533 166.995C155.787 167.053 155.918 167.098 155.91 167.125Z" fill="#455A64"/>
<path d="M157.516 170.822C157.412 170.763 157.659 170.198 157.617 169.486C157.594 168.758 157.315 168.239 157.393 168.168C157.479 168.067 158.009 168.614 158.035 169.467C158.078 170.329 157.601 170.896 157.516 170.822Z" fill="#455A64"/>
<path d="M142.706 164.397C143.165 163.214 143.885 161.18 144.61 160.138C145.335 159.096 146.309 158.191 147.495 157.742C149.042 157.156 150.761 157.39 152.397 157.633C153.717 157.829 155.037 158.025 156.358 158.221C156.895 158.3 157.579 158.545 157.558 159.087C157.545 159.407 157.255 159.659 156.946 159.74C156.637 159.822 156.311 159.773 155.994 159.734C155.119 159.627 154.235 159.602 153.355 159.659C152.726 159.7 151.948 159.918 151.847 160.541C151.757 161.094 152.34 161.57 152.901 161.587C153.461 161.604 153.977 161.307 154.459 161.019C154.974 160.712 155.49 160.404 156.006 160.096C156.301 159.92 156.635 159.737 156.97 159.815C157.541 159.947 157.677 160.766 157.375 161.269C157.072 161.771 156.516 162.05 156.031 162.38C154.038 163.731 153.114 165.921 152.196 168.812" fill="#E6BBAC"/>
<path d="M142.742 163.792L133.865 186.59L124.666 165.311C121.789 155.008 109.073 154.332 109.073 154.332L96.4882 152.715C91.9641 150.873 84.6292 152.41 81.7613 153.986C78.1039 155.997 74.8525 162.186 74.1313 166.744C74.1313 166.744 61.4587 199.507 63.6214 202.929C65.7842 206.351 79.3493 219.707 79.3493 219.707L77.4591 226.608L98.9919 227.967L101.195 219.484L101.451 228.575L121.695 230.004C120.809 221.999 119.381 213.964 118.991 211.672L117.372 188.199L117.575 183.338L117.773 182.834C119.672 186.011 122.054 190.092 124.995 195.287C130.908 205.734 136.88 203.063 140.388 198.869C142.678 196.131 143.708 192.412 143.708 192.412L152.413 167.936L142.742 163.792ZM81.0634 202.918C81.053 203.042 78.8926 199.046 78.8926 199.046L82.0532 188.631C82.0532 188.631 81.0747 202.793 81.0634 202.918Z" fill="#E8505B"/>
<path d="M94.8721 152.992L101.663 179.079L108.711 154.579L107.928 154.518L108.117 151.296L94.8721 149.711V152.992Z" fill="white"/>
<path d="M94.5125 153.242C94.5246 153.245 94.5117 153.365 94.4763 153.594C94.4305 153.863 94.3734 154.194 94.3043 154.599C94.129 155.525 93.891 156.784 93.5968 158.34C93.2792 159.95 92.9021 161.861 92.4784 164.012C92.2742 165.068 91.9671 166.282 92.5636 167.28C93.1546 168.276 94.4 168.761 95.6172 169.167L95.852 169.245L95.729 169.46C94.7545 171.157 94.8301 173.435 95.5505 175.477C95.9943 176.783 96.6174 178 97.2083 179.195C97.8001 180.39 98.3749 181.552 98.9297 182.672C100.03 184.908 101.048 186.976 101.952 188.812L101.636 188.889C101.623 185.937 101.613 183.5 101.605 181.742C101.613 180.928 101.618 180.273 101.622 179.773C101.632 179.321 101.645 179.081 101.662 179.081C101.679 179.081 101.699 179.32 101.721 179.771C101.74 180.271 101.765 180.926 101.794 181.739C101.837 183.497 101.896 185.933 101.969 188.884L101.987 189.625L101.653 188.962C100.732 187.134 99.6951 185.075 98.5743 182.85C98.0148 181.732 97.4343 180.573 96.8377 179.381C96.2443 178.19 95.61 176.958 95.1525 175.612C94.4104 173.505 94.3139 171.096 95.3768 169.26L95.4878 169.552C94.8607 169.341 94.24 169.112 93.6659 168.792C93.0951 168.477 92.562 168.046 92.234 167.475C91.8931 166.906 91.8167 166.241 91.8561 165.646C91.8947 165.043 92.0249 164.481 92.1367 163.944C92.595 161.801 93.0018 159.896 93.3443 158.291C93.6868 156.744 93.9642 155.493 94.1684 154.574C94.2641 154.174 94.3429 153.847 94.4064 153.582C94.4651 153.356 94.5013 153.24 94.5125 153.242Z" fill="#263238"/>
<path d="M109.937 154.742C109.963 154.738 110.061 155.168 110.21 155.959C110.358 156.75 110.558 157.9 110.777 159.34C110.989 160.782 111.25 162.506 111.4 164.463C111.436 164.954 111.468 165.456 111.449 165.985C111.454 166.519 111.281 167.105 110.952 167.564C110.297 168.496 109.336 169.156 108.281 169.685L108.319 169.331C108.699 169.64 108.985 170 109.242 170.406C109.304 170.507 109.364 170.611 109.42 170.716C109.448 170.785 109.477 170.928 109.468 170.991L109.446 171.189C109.402 171.435 109.339 171.665 109.272 171.893C108.463 174.413 107.468 176.699 106.597 178.798C105.71 180.889 104.886 182.76 104.182 184.327C103.479 185.893 102.897 187.155 102.484 188.022C102.291 188.417 102.131 188.745 101.999 189.016C101.883 189.241 101.816 189.357 101.802 189.35C101.789 189.344 101.83 189.218 101.921 188.981C102.034 188.702 102.171 188.363 102.335 187.956C102.733 187.01 103.265 185.744 103.911 184.209C104.583 182.607 105.37 180.727 106.241 178.649C107.09 176.551 108.078 174.245 108.871 171.775C108.936 171.555 108.996 171.333 109.034 171.123L109.05 170.976C109.05 170.925 109.05 170.951 109.051 170.911C108.999 170.814 108.944 170.719 108.887 170.625C108.66 170.258 108.372 169.909 108.072 169.663L107.815 169.453L108.11 169.307C109.099 168.818 110.039 168.17 110.624 167.339C111.25 166.519 111.048 165.447 111.033 164.486C110.909 162.547 110.679 160.818 110.504 159.376C110.322 157.984 110.174 156.841 110.061 155.98C109.96 155.185 109.911 154.747 109.937 154.742Z" fill="#263238"/>
<path d="M101.197 220.475C101.081 220.472 101.194 213.099 101.448 204.01C101.702 194.918 102.002 187.551 102.117 187.555C102.232 187.558 102.12 194.929 101.866 204.021C101.612 213.111 101.313 220.478 101.197 220.475Z" fill="#263238"/>
<path d="M104.477 194.145C104.425 194.115 104.69 193.852 105.128 194.049C105.322 194.143 105.558 194.346 105.592 194.695C105.63 195.053 105.323 195.394 104.978 195.473C104.637 195.575 104.203 195.43 104.059 195.102C103.914 194.784 104.015 194.491 104.135 194.311C104.412 193.921 104.772 194.01 104.744 194.061C104.749 194.122 104.512 194.165 104.392 194.458C104.335 194.595 104.317 194.79 104.399 194.922C104.473 195.057 104.662 195.12 104.87 195.068C105.076 195.011 105.208 194.862 105.206 194.709C105.212 194.554 105.098 194.395 104.979 194.306C104.728 194.113 104.504 194.2 104.477 194.145Z" fill="#263238"/>
<path d="M104.559 202.504C104.507 202.474 104.772 202.212 105.209 202.409C105.404 202.503 105.64 202.705 105.673 203.054C105.711 203.412 105.404 203.754 105.059 203.832C104.719 203.935 104.284 203.79 104.14 203.461C103.995 203.143 104.096 202.85 104.216 202.671C104.493 202.281 104.852 202.369 104.825 202.421C104.83 202.482 104.593 202.524 104.473 202.817C104.416 202.954 104.398 203.149 104.481 203.282C104.555 203.416 104.744 203.479 104.952 203.427C105.158 203.37 105.29 203.221 105.288 203.069C105.294 202.913 105.181 202.754 105.062 202.665C104.811 202.472 104.586 202.559 104.559 202.504Z" fill="#263238"/>
<path d="M104.199 211.957C104.148 211.928 104.412 211.665 104.85 211.862C105.044 211.956 105.281 212.158 105.314 212.507C105.352 212.865 105.045 213.207 104.699 213.286C104.359 213.388 103.924 213.243 103.78 212.914C103.636 212.597 103.737 212.303 103.857 212.124C104.134 211.734 104.493 211.822 104.465 211.874C104.471 211.935 104.234 211.977 104.114 212.27C104.056 212.408 104.038 212.602 104.122 212.735C104.196 212.869 104.385 212.933 104.592 212.88C104.798 212.823 104.931 212.675 104.928 212.522C104.935 212.367 104.821 212.207 104.702 212.118C104.451 211.926 104.226 212.013 104.199 211.957Z" fill="#263238"/>
<path d="M108.711 180.004H114.629V179.078H108.396L108.711 180.004Z" fill="#263238"/>
<path d="M150.725 172.524C150.675 172.628 148.543 171.712 145.964 170.478C143.384 169.244 141.334 168.16 141.384 168.055C141.434 167.95 143.565 168.866 146.145 170.1C148.723 171.335 150.774 172.42 150.725 172.524Z" fill="#455A64"/>
<path d="M142.706 166.289C142.664 166.263 142.752 166.028 143.105 165.896C143.274 165.836 143.517 165.807 143.766 165.926C144.021 166.034 144.213 166.36 144.186 166.666C144.184 166.972 143.961 167.301 143.636 167.346C143.299 167.379 143.102 167.163 143.016 166.998C142.922 166.823 142.937 166.635 143 166.539C143.064 166.443 143.13 166.432 143.146 166.449C143.186 166.492 143.093 166.656 143.265 166.838C143.433 167.052 143.742 167.021 143.767 166.648C143.795 166.286 143.441 166.149 143.174 166.184C142.907 166.209 142.751 166.332 142.706 166.289Z" fill="#455A64"/>
<path d="M133.439 191.371C133.324 191.357 133.37 190.194 133.541 188.774C133.711 187.353 133.943 186.213 134.058 186.227C134.173 186.24 134.127 187.403 133.956 188.824C133.785 190.243 133.554 191.384 133.439 191.371Z" fill="#263238"/>
<path d="M135.493 191.128C135.383 191.165 134.944 190.15 134.514 188.861C134.083 187.572 133.821 186.499 133.931 186.462C134.041 186.425 134.48 187.44 134.911 188.728C135.342 190.017 135.602 191.091 135.493 191.128Z" fill="#263238"/>
<path d="M103.31 152.416C103.052 153.543 102.495 154.569 101.804 155.552L102.986 158.759H103.994L104.839 155.676C104.839 155.676 104.247 155.2 103.811 152.312L103.31 152.416Z" fill="#455A64"/>
<path d="M107.893 154.443C107.911 154.458 107.797 154.659 107.539 154.999C107.276 155.313 106.863 155.874 106.039 156.066C105.647 156.148 105.13 156.125 104.724 155.778C104.323 155.426 104.181 154.893 104.039 154.405C103.753 153.397 103.548 152.243 103.504 151.001L103.906 151.051C103.719 151.711 103.544 152.406 103.308 153.111C103.052 153.823 102.802 154.495 102.415 155.129C102.216 155.438 101.961 155.73 101.63 155.918C101.301 156.112 100.919 156.172 100.576 156.156C99.8788 156.111 99.3016 155.864 98.7685 155.637C98.2379 155.399 97.7691 155.131 97.3559 154.867C96.5318 154.336 95.9167 153.843 95.4914 153.506C95.0685 153.164 94.8434 152.965 94.8603 152.942C94.9045 152.877 95.8693 153.61 97.5102 154.615C97.9251 154.858 98.389 155.103 98.906 155.319C99.4206 155.525 99.9986 155.746 100.59 155.771C101.192 155.812 101.73 155.481 102.07 154.909C102.409 154.349 102.67 153.656 102.912 152.978C103.141 152.295 103.318 151.603 103.513 150.939C103.543 150.829 103.657 150.766 103.765 150.797C103.853 150.822 103.912 150.902 103.915 150.988C103.949 152.196 104.13 153.322 104.385 154.311C104.513 154.807 104.641 155.272 104.935 155.541C105.225 155.812 105.644 155.86 105.991 155.804C106.704 155.679 107.142 155.189 107.43 154.905C107.717 154.6 107.871 154.426 107.893 154.443Z" fill="#E0E0E0"/>
<path d="M102.985 158.753C102.813 159.17 99.6523 171.359 99.6523 171.359L101.662 179.079L105.365 166.208C105.365 166.208 104.108 158.333 104.05 158.543C103.993 158.753 102.985 158.753 102.985 158.753Z" fill="#455A64"/>
<path d="M91.4062 215.842C91.4207 215.946 89.1944 216.254 86.4487 215.999C83.7015 215.757 81.5668 215.056 81.599 214.956C81.6303 214.834 83.7819 215.345 86.4857 215.582C89.1888 215.834 91.3974 215.717 91.4062 215.842Z" fill="#263238"/>
<path d="M119.33 217.508C119.323 217.624 117.791 217.633 115.908 217.529C114.025 217.426 112.504 217.247 112.511 217.132C112.517 217.016 114.049 217.008 115.932 217.111C117.815 217.215 119.336 217.393 119.33 217.508Z" fill="#263238"/>
<path d="M82.1927 177.07C82.2071 177.07 82.2224 177.223 82.2377 177.515C82.2505 177.853 82.2658 178.276 82.2851 178.791C82.3197 179.899 82.3406 181.503 82.343 183.485C82.3494 187.448 82.2457 192.925 81.9185 198.966C81.5889 205.008 81.0992 210.464 80.6626 214.404C80.4456 216.374 80.2502 217.966 80.0966 219.063C80.0219 219.574 79.9607 219.991 79.9117 220.326C79.8651 220.614 79.8329 220.765 79.8192 220.763C79.8048 220.761 79.8088 220.608 79.8281 220.316C79.8562 219.978 79.8916 219.558 79.935 219.045C80.0428 217.883 80.1899 216.302 80.3684 214.374C80.7286 210.431 81.1708 204.977 81.5004 198.943C81.8268 192.911 81.9772 187.442 82.0463 183.482C82.0777 181.547 82.1026 179.959 82.1211 178.792C82.134 178.276 82.1444 177.854 82.1525 177.516C82.1645 177.224 82.1782 177.07 82.1927 177.07Z" fill="#263238"/>
<path d="M78.8927 199.444C78.7817 199.412 79.5343 196.422 80.5739 192.766C81.6142 189.109 82.5469 186.171 82.6586 186.203C82.7696 186.235 82.017 189.224 80.9767 192.881C79.9371 196.537 79.0036 199.476 78.8927 199.444Z" fill="#263238"/>
<path d="M81.3823 203.68C81.281 203.736 80.0815 201.77 78.7026 199.29C77.3229 196.809 76.2874 194.753 76.3887 194.696C76.49 194.64 77.6896 196.605 79.0684 199.086C80.4473 201.567 81.4836 203.623 81.3823 203.68Z" fill="#263238"/>
</svg>
