<svg width="375" height="395" viewBox="0 0 375 395" fill="none" xmlns="http://www.w3.org/2000/svg">
<g opacity="0.75">
<path d="M407 291.516H-33V291.736H407V291.516Z" fill="#EBEBEB"/>
<path d="M362.913 305.68H333.766V305.9H362.913V305.68Z" fill="#EBEBEB"/>
<path d="M258.474 308.062H250.824V308.282H258.474V308.062Z" fill="#EBEBEB"/>
<path d="M332.885 297.508H315.996V297.728H332.885V297.508Z" fill="#EBEBEB"/>
<path d="M51.1739 298.984H13.1641V299.204H51.1739V298.984Z" fill="#EBEBEB"/>
<path d="M64.5828 298.984H59.0098V299.204H64.5828V298.984Z" fill="#EBEBEB"/>
<path d="M165.129 302.703H82.6943V302.923H165.129V302.703Z" fill="#EBEBEB"/>
<path d="M175.572 252.266H5.64511C2.87575 252.266 0.62207 250.012 0.62207 247.243V8.38242C0.62207 5.61305 2.87575 3.35938 5.64511 3.35938H175.572C178.341 3.35938 180.594 5.61305 180.594 8.38242V247.243C180.594 250.012 178.341 252.266 175.572 252.266ZM5.64511 3.58025C2.99631 3.58025 0.84207 5.73449 0.84207 8.38329V247.243C0.84207 249.892 2.99631 252.046 5.64511 252.046H175.572C178.22 252.046 180.374 249.892 180.374 247.243V8.38242C180.374 5.7345 178.22 3.57937 175.572 3.57937L5.64511 3.58025Z" fill="#EBEBEB"/>
<path d="M365.913 252.266H195.987C193.218 252.266 190.965 250.012 190.965 247.243V8.38242C190.965 5.61305 193.219 3.35938 195.987 3.35938H365.913C368.683 3.35938 370.936 5.61305 370.936 8.38242V247.243C370.937 250.012 368.683 252.266 365.913 252.266ZM195.987 3.58025C193.339 3.58025 191.185 5.73449 191.185 8.38329V247.243C191.185 249.892 193.339 252.046 195.987 252.046H365.913C368.562 252.046 370.716 249.892 370.716 247.243V8.38242C370.716 5.7345 368.562 3.57937 365.913 3.57937L195.987 3.58025Z" fill="#EBEBEB"/>
<path d="M17.5422 286.377H351.401V167.22H362.581V163.481H355.819L339.448 138.857H330.107V138.821H277.902L263.017 108.716H187.053V97.5194H196.127V93.0384H186.438L172.259 66.6094H134.562L116.206 93.0384H106.807V97.5194H115.88V138.821H88.9788L77.1666 164.259H56.1038V155.334H39.3838V164.259H35.2971V117.436H33.2775V164.259H24.1572L11.2247 194.31H6.05469V198.924H17.5422V286.377Z" fill="#F0F0F0"/>
<path d="M70.3656 71.8739C83.8704 71.8739 94.8182 60.9261 94.8182 47.4213C94.8182 33.9165 83.8704 22.9688 70.3656 22.9688C56.8609 22.9688 45.9131 33.9165 45.9131 47.4213C45.9131 60.9261 56.8609 71.8739 70.3656 71.8739Z" fill="#FAFAFA"/>
<path d="M57.6811 47.1437C57.6811 44.7958 55.7777 42.8933 53.4307 42.8933C53.0066 42.8933 52.5974 42.9575 52.2102 43.0728C52.2718 42.6469 52.3052 42.2113 52.3052 41.7677C52.3052 36.7966 48.2748 32.7662 43.3037 32.7662C42.737 32.7662 42.1834 32.8208 41.6458 32.9211C40.2624 30.6569 37.7755 29.1406 34.9278 29.1406C30.6176 29.1406 27.1214 32.6034 27.0571 36.8987C27.0131 36.8978 26.97 36.8925 26.926 36.8925C22.9211 36.8925 19.6748 40.1389 19.6748 44.1437C19.6748 48.1486 22.9211 51.3949 26.926 51.3949H53.5557L53.5504 51.3888C55.841 51.3237 57.6811 49.4501 57.6811 47.1437Z" fill="#F5F5F5"/>
<path d="M275.834 66.839C275.834 64.4911 273.931 62.5886 271.584 62.5886C271.16 62.5886 270.751 62.6528 270.363 62.7681C270.425 62.3422 270.459 61.9066 270.459 61.4631C270.459 56.4919 266.428 52.4615 261.457 52.4615C260.89 52.4615 260.337 52.5161 259.799 52.6164C258.416 50.3522 255.929 48.8359 253.081 48.8359C248.771 48.8359 245.275 52.2987 245.21 56.594C245.166 56.5931 245.123 56.5879 245.079 56.5879C241.074 56.5879 237.828 59.8342 237.828 63.8391C237.828 67.8439 241.074 71.0903 245.079 71.0903H271.708L271.703 71.0841C273.995 71.019 275.834 69.1455 275.834 66.839Z" fill="#F5F5F5"/>
<path d="M155.951 39.339C155.951 36.9911 157.855 35.0886 160.202 35.0886C160.626 35.0886 161.035 35.1528 161.422 35.2681C161.361 34.8422 161.327 34.4066 161.327 33.9631C161.327 28.9919 165.357 24.9615 170.329 24.9615C170.895 24.9615 171.449 25.0161 171.987 25.1164C173.37 22.8522 175.858 21.3359 178.704 21.3359C183.015 21.3359 186.511 24.7987 186.575 29.094C186.619 29.0931 186.662 29.087 186.706 29.087C190.711 29.087 193.957 32.3333 193.957 36.3382C193.957 40.3431 190.711 43.5894 186.706 43.5894H160.077L160.082 43.5832C157.79 43.5199 155.951 41.6463 155.951 39.339Z" fill="#F5F5F5"/>
<path d="M352.846 122.253C352.846 119.905 350.943 118.003 348.596 118.003C348.172 118.003 347.762 118.067 347.375 118.182C347.437 117.756 347.47 117.321 347.47 116.877C347.47 111.906 343.44 107.876 338.469 107.876C337.902 107.876 337.348 107.93 336.811 108.03C335.427 105.766 332.941 104.25 330.093 104.25C325.783 104.25 322.286 107.713 322.222 112.008C322.178 112.007 322.135 112.002 322.091 112.002C318.086 112.002 314.84 115.248 314.84 119.253C314.84 123.258 318.086 126.504 322.091 126.504H348.721L348.715 126.498C351.007 126.434 352.846 124.56 352.846 122.253Z" fill="#F5F5F5"/>
<path d="M111.016 59.8793C111.016 58.4194 109.832 57.2367 108.373 57.2367C108.109 57.2367 107.855 57.2763 107.614 57.3485C107.653 57.0836 107.673 56.8125 107.673 56.5371C107.673 53.4465 105.168 50.9412 102.078 50.9412C101.726 50.9412 101.381 50.9755 101.047 51.038C100.187 49.63 98.6403 48.6875 96.8706 48.6875C94.191 48.6875 92.0174 50.8409 91.9778 53.5108C91.9505 53.5099 91.9241 53.5064 91.8959 53.5064C89.4064 53.5064 87.3877 55.5251 87.3877 58.0146C87.3877 60.5041 89.4064 62.5229 91.8959 62.5229H108.451L108.448 62.5193C109.873 62.478 111.016 61.3137 111.016 59.8793Z" fill="#F5F5F5"/>
<path d="M121.767 106.076C121.767 104.616 122.95 103.433 124.409 103.433C124.673 103.433 124.928 103.472 125.168 103.545C125.129 103.28 125.109 103.009 125.109 102.733C125.109 99.6427 127.614 97.1374 130.705 97.1374C131.057 97.1374 131.402 97.1717 131.735 97.2333C132.595 95.8253 134.141 94.8828 135.912 94.8828C138.591 94.8828 140.765 97.0362 140.805 99.7061C140.832 99.7052 140.858 99.7017 140.886 99.7017C143.376 99.7017 145.395 101.72 145.395 104.21C145.395 106.699 143.376 108.718 140.886 108.718H124.331L124.334 108.715C122.91 108.674 121.767 107.51 121.767 106.076Z" fill="#F5F5F5"/>
<path d="M319.913 47.8646C319.913 46.4047 321.097 45.222 322.556 45.222C322.82 45.222 323.074 45.2616 323.314 45.3337C323.276 45.0688 323.255 44.7978 323.255 44.5224C323.255 41.4318 325.761 38.9264 328.851 38.9264C329.203 38.9264 329.548 38.9608 329.882 39.0224C330.741 37.6144 332.288 36.6719 334.058 36.6719C336.738 36.6719 338.911 38.8252 338.951 41.4952C338.978 41.4952 339.005 41.4908 339.033 41.4908C341.522 41.4908 343.541 43.5095 343.541 45.999C343.541 48.4885 341.523 50.5072 339.033 50.5072H322.477L322.481 50.5037C321.057 50.4632 319.913 49.299 319.913 47.8646Z" fill="#F5F5F5"/>
<path d="M187 331.257C281.232 331.257 357.623 326.795 357.623 321.292C357.623 315.789 281.232 311.328 187 311.328C92.7682 311.328 16.3779 315.789 16.3779 321.292C16.3779 326.795 92.7682 331.257 187 331.257Z" fill="#F5F5F5"/>
<path d="M366.038 252.648H7.96263C5.56287 252.648 3.61719 254.594 3.61719 256.994V291.243H370.384V256.994C370.384 254.594 368.438 252.648 366.038 252.648Z" fill="#E0E0E0"/>
<path d="M217.056 255.559L215.65 254.195H181.798L180.205 255.559H217.056Z" fill="#F0F0F0"/>
<path d="M179.393 256.258L175.735 259.391H221.003L217.774 256.258H179.393Z" fill="#F0F0F0"/>
<path d="M174.923 260.086L168.015 266.005H227.822L221.722 260.086H174.923Z" fill="#F0F0F0"/>
<path d="M229.616 267.742H165.982L154.198 277.838H240.022L229.616 267.742Z" fill="#F0F0F0"/>
<path d="M242.893 280.625H150.948L139.569 290.373H252.941L242.893 280.625Z" fill="#F0F0F0"/>
<path d="M207.567 291.485H206.555V284.884H207.567V291.485ZM207.567 280.759H206.555V274.157H207.567V280.759ZM207.567 270.032H206.555V263.431H207.567V270.032ZM207.567 259.305H206.555V252.704H207.567V259.305ZM207.567 248.579H206.555V241.978H207.567V248.579ZM207.567 237.853H206.555V231.252H207.567V237.853ZM207.567 227.125H206.555V220.525H207.567V227.125ZM207.567 216.399H206.555V209.798H207.567V216.399ZM207.567 205.672H206.555V199.071H207.567V205.672ZM207.567 194.946H206.555V188.345H207.567V194.946ZM207.567 184.218H206.555V177.618H207.567V184.218ZM207.567 173.492H206.555V166.891H207.567V173.492ZM207.567 162.765H206.555V156.164H207.567V162.765ZM207.567 152.039H206.555V145.438H207.567V152.039ZM207.567 141.312H206.555V134.711H207.567V141.312ZM207.567 130.585H206.555V123.984H207.567V130.585ZM207.567 119.859H206.555V113.258H207.567V119.859ZM207.567 109.132H206.555V102.532H207.567V109.132ZM207.567 98.4052H206.555V91.8044H207.567V98.4052ZM207.567 87.6789H206.555V81.078H207.567V87.6789ZM207.567 76.9517H206.555V70.3508H207.567V76.9517ZM207.567 66.2254H206.555V59.6245H207.567V66.2254ZM207.567 55.4991H206.555V48.8973H207.567V55.4991ZM207.567 44.7728H206.555V38.1719H207.567V44.7728Z" fill="#263238"/>
<g opacity="0.7">
<path d="M207.567 291.485H206.555V284.884H207.567V291.485ZM207.567 280.759H206.555V274.157H207.567V280.759ZM207.567 270.032H206.555V263.431H207.567V270.032ZM207.567 259.305H206.555V252.704H207.567V259.305ZM207.567 248.579H206.555V241.978H207.567V248.579ZM207.567 237.853H206.555V231.252H207.567V237.853ZM207.567 227.125H206.555V220.525H207.567V227.125ZM207.567 216.399H206.555V209.798H207.567V216.399ZM207.567 205.672H206.555V199.071H207.567V205.672ZM207.567 194.946H206.555V188.345H207.567V194.946ZM207.567 184.218H206.555V177.618H207.567V184.218ZM207.567 173.492H206.555V166.891H207.567V173.492ZM207.567 162.765H206.555V156.164H207.567V162.765ZM207.567 152.039H206.555V145.438H207.567V152.039ZM207.567 141.312H206.555V134.711H207.567V141.312ZM207.567 130.585H206.555V123.984H207.567V130.585ZM207.567 119.859H206.555V113.258H207.567V119.859ZM207.567 109.132H206.555V102.532H207.567V109.132ZM207.567 98.4052H206.555V91.8044H207.567V98.4052ZM207.567 87.6789H206.555V81.078H207.567V87.6789ZM207.567 76.9517H206.555V70.3508H207.567V76.9517ZM207.567 66.2254H206.555V59.6245H207.567V66.2254ZM207.567 55.4991H206.555V48.8973H207.567V55.4991ZM207.567 44.7728H206.555V38.1719H207.567V44.7728Z" fill="white"/>
</g>
<path d="M204.213 180.578H98.208V253.205H204.213V180.578Z" fill="#263238"/>
<path opacity="0.8" d="M204.213 180.578H98.208V253.205H204.213V180.578Z" fill="white"/>
<path opacity="0.05" d="M179.824 180.578H98.2109V253.201H179.824V180.578Z" fill="black"/>
<path d="M204.212 199.469H187.431V253.202H204.212V199.469Z" fill="#263238"/>
<path opacity="0.1" d="M204.212 199.469H187.431V253.202H204.212V199.469Z" fill="white"/>
<path d="M152.296 215.984H142.942V231.388H152.296V215.984Z" fill="#263238"/>
<path d="M152.296 199.469H142.942V214.872H152.296V199.469Z" fill="#263238"/>
<path d="M163.007 215.984H153.4V231.388H163.007V215.984Z" fill="#263238"/>
<path d="M163.007 199.469H153.4V214.872H163.007V199.469Z" fill="#263238"/>
<path opacity="0.5" d="M152.296 215.984H142.942V231.388H152.296V215.984Z" fill="white"/>
<path opacity="0.5" d="M152.296 199.469H142.942V214.872H152.296V199.469Z" fill="white"/>
<path opacity="0.5" d="M163.007 215.984H153.4V231.388H163.007V215.984Z" fill="white"/>
<path opacity="0.5" d="M163.007 199.469H153.4V214.872H163.007V199.469Z" fill="white"/>
<path opacity="0.3" d="M142.942 199.469V207.091L144.982 199.469H142.942Z" fill="white"/>
<path opacity="0.3" d="M142.942 215.984V221.835L144.508 215.984H142.942Z" fill="white"/>
<path opacity="0.3" d="M148.933 199.469L144.811 214.872H143.191L147.314 199.469H148.933Z" fill="white"/>
<path opacity="0.3" d="M163.006 215.984H160.803L156.68 231.389H161.572L163.006 226.03V215.984Z" fill="white"/>
<path opacity="0.3" d="M163.006 207.773L161.105 214.874H163.006V207.773Z" fill="white"/>
<path d="M119.575 215.984H110.222V231.388H119.575V215.984Z" fill="#263238"/>
<path d="M119.575 199.469H110.222V214.872H119.575V199.469Z" fill="#263238"/>
<path d="M130.286 215.984H120.68V231.388H130.286V215.984Z" fill="#263238"/>
<path d="M130.286 199.469H120.68V214.872H130.286V199.469Z" fill="#263238"/>
<path opacity="0.5" d="M119.575 215.984H110.222V231.388H119.575V215.984Z" fill="white"/>
<path opacity="0.5" d="M119.575 199.469H110.222V214.872H119.575V199.469Z" fill="white"/>
<path opacity="0.5" d="M130.286 215.984H120.68V231.388H130.286V215.984Z" fill="white"/>
<path opacity="0.5" d="M130.286 199.469H120.68V214.872H130.286V199.469Z" fill="white"/>
<path opacity="0.3" d="M110.222 199.469V207.091L112.262 199.469H110.222Z" fill="white"/>
<path opacity="0.3" d="M110.222 215.984V221.835L111.787 215.984H110.222Z" fill="white"/>
<path opacity="0.3" d="M116.213 199.469L112.09 214.872H110.47L114.593 199.469H116.213Z" fill="white"/>
<path opacity="0.3" d="M130.285 215.984H128.082L123.959 231.389H128.851L130.285 226.03V215.984Z" fill="white"/>
<path opacity="0.3" d="M130.286 207.773L128.385 214.874H130.286V207.773Z" fill="white"/>
<path d="M131.166 194.352H107.219V197.372H131.166V194.352Z" fill="#263238"/>
<path opacity="0.4" d="M131.167 194.352H128.146V197.372H131.167V194.352Z" fill="white"/>
<path d="M163.888 194.352H139.94V197.372H163.888V194.352Z" fill="#263238"/>
<path opacity="0.4" d="M163.888 194.352H160.868V197.372H163.888V194.352Z" fill="white"/>
<path d="M204.213 128.773H108.302V178.194H204.213V128.773Z" fill="#263238"/>
<path opacity="0.8" d="M204.213 128.773H108.302V178.194H204.213V128.773Z" fill="white"/>
<path opacity="0.05" d="M178.724 128.773H108.298V178.196H178.724V128.773Z" fill="black"/>
<path d="M204.212 112.008V128.772H102.476L106.524 125.595L123.833 112.008H204.212Z" fill="#263238"/>
<path opacity="0.4" d="M204.213 112.008V127.381H179.653L179.547 125.595L178.729 112.008H204.213Z" fill="white"/>
<path d="M204.213 125.594H100.54V130.302H204.213V125.594Z" fill="#263238"/>
<path opacity="0.4" d="M204.213 125.594H100.54V130.302H204.213V125.594Z" fill="white"/>
<path opacity="0.4" d="M204.213 125.594H180.145V130.302H204.213V125.594Z" fill="white"/>
<path d="M158.214 158.492H148.86V173.896H158.214V158.492Z" fill="#263238"/>
<path d="M158.214 141.977H148.86V157.38H158.214V141.977Z" fill="#263238"/>
<path d="M168.925 158.492H159.318V173.896H168.925V158.492Z" fill="#263238"/>
<path d="M168.925 141.977H159.318V157.38H168.925V141.977Z" fill="#263238"/>
<path opacity="0.5" d="M158.214 158.492H148.86V173.896H158.214V158.492Z" fill="white"/>
<path opacity="0.5" d="M158.214 141.977H148.86V157.38H158.214V141.977Z" fill="white"/>
<path opacity="0.5" d="M168.925 158.492H159.318V173.896H168.925V158.492Z" fill="white"/>
<path opacity="0.5" d="M168.925 141.977H159.318V157.38H168.925V141.977Z" fill="white"/>
<path opacity="0.3" d="M148.86 141.977V149.599L150.9 141.977H148.86Z" fill="white"/>
<path opacity="0.3" d="M148.86 158.492V164.343L150.426 158.492H148.86Z" fill="white"/>
<path opacity="0.3" d="M154.851 141.977L150.728 157.38H149.108L153.232 141.977H154.851Z" fill="white"/>
<path opacity="0.3" d="M168.924 158.492H166.72L162.598 173.896H167.49L168.924 168.537V158.492Z" fill="white"/>
<path opacity="0.3" d="M168.924 150.281L167.023 157.382H168.924V150.281Z" fill="white"/>
<path d="M125.492 158.492H116.139V173.896H125.492V158.492Z" fill="#263238"/>
<path d="M125.492 141.977H116.139V157.38H125.492V141.977Z" fill="#263238"/>
<path d="M136.204 158.492H126.597V173.896H136.204V158.492Z" fill="#263238"/>
<path d="M136.204 141.977H126.597V157.38H136.204V141.977Z" fill="#263238"/>
<path opacity="0.5" d="M125.492 158.492H116.139V173.896H125.492V158.492Z" fill="white"/>
<path opacity="0.5" d="M125.492 141.977H116.139V157.38H125.492V141.977Z" fill="white"/>
<path opacity="0.5" d="M136.204 158.492H126.597V173.896H136.204V158.492Z" fill="white"/>
<path opacity="0.5" d="M136.204 141.977H126.597V157.38H136.204V141.977Z" fill="white"/>
<path opacity="0.3" d="M116.139 141.977V149.599L118.179 141.977H116.139Z" fill="white"/>
<path opacity="0.3" d="M116.139 158.492V164.343L117.705 158.492H116.139Z" fill="white"/>
<path opacity="0.3" d="M122.131 141.977L118.008 157.38H116.388L120.51 141.977H122.131Z" fill="white"/>
<path opacity="0.3" d="M136.203 158.492H134L129.877 173.896H134.769L136.203 168.537V158.492Z" fill="white"/>
<path opacity="0.3" d="M136.204 150.281L134.303 157.382H136.204V150.281Z" fill="white"/>
<path d="M137.084 136.859H113.137V139.88H137.084V136.859Z" fill="#263238"/>
<path opacity="0.4" d="M137.085 136.859H134.064V139.88H137.085V136.859Z" fill="white"/>
<path d="M169.805 136.859H145.857V139.88H169.805V136.859Z" fill="#263238"/>
<path opacity="0.4" d="M169.805 136.859H166.785V139.88H169.805V136.859Z" fill="white"/>
<path d="M196.662 158.492H187.309V173.896H196.662V158.492Z" fill="#263238"/>
<path d="M196.662 141.977H187.309V157.38H196.662V141.977Z" fill="#263238"/>
<path d="M204.213 158.492H197.763V173.901H204.213V158.492Z" fill="#263238"/>
<path d="M204.213 141.977H197.763V157.377H204.213V141.977Z" fill="#263238"/>
<path opacity="0.5" d="M196.662 158.492H187.309V173.896H196.662V158.492Z" fill="white"/>
<path opacity="0.5" d="M196.662 141.977H187.309V157.38H196.662V141.977Z" fill="white"/>
<path opacity="0.5" d="M204.213 158.492H197.763V173.901H204.213V158.492Z" fill="white"/>
<path opacity="0.5" d="M204.213 141.977H197.763V157.377H204.213V141.977Z" fill="white"/>
<path opacity="0.3" d="M187.309 141.977V149.599L189.349 141.977H187.309Z" fill="white"/>
<path opacity="0.3" d="M187.309 158.492V164.343L188.875 158.492H187.309Z" fill="white"/>
<path opacity="0.3" d="M193.3 141.977L189.177 157.38H187.558L191.68 141.977H193.3Z" fill="white"/>
<path opacity="0.3" d="M204.213 162.07V173.898H201.045L204.213 162.07Z" fill="white"/>
<path d="M204.213 136.859H185.944V139.878H204.213V136.859Z" fill="#263238"/>
<path opacity="0.4" d="M185.943 139.883H188.963V136.863H185.943V139.883Z" fill="white"/>
<path d="M204.212 178.266V187.752H86.9346L90.9738 184.734L99.6418 178.266H204.212Z" fill="#263238"/>
<path opacity="0.4" d="M204.213 178.266V186.423H179.652L179.546 184.734L179.282 180.58L179.133 178.266H204.213Z" fill="white"/>
<path d="M204.213 184.734H84.999V189.205H204.213V184.734Z" fill="#263238"/>
<path opacity="0.4" d="M204.213 184.734H84.999V189.205H204.213V184.734Z" fill="white"/>
<path opacity="0.4" d="M204.213 184.734H180.145V189.205H204.213V184.734Z" fill="white"/>
<path d="M204.213 251.555V253.2H91.8896L94.2481 251.555H204.213Z" fill="#263238"/>
<path d="M173.138 64.0781H126.019C124.23 64.0781 122.779 65.5284 122.779 67.3174V81.6693C122.779 83.4584 124.23 84.9086 126.019 84.9086H147.005L149.578 93.6936L152.152 84.9086H173.138C174.927 84.9086 176.377 83.4584 176.377 81.6693V67.3174C176.377 65.5284 174.927 64.0781 173.138 64.0781Z" fill="#CCCCCC"/>
<path d="M136.044 75.5445C136.044 76.6735 135.187 77.3229 133.521 77.3229H130.377V70.7344H133.333C134.848 70.7344 135.696 71.3741 135.696 72.4381C135.696 73.1535 135.329 73.6525 134.811 73.9059C135.555 74.1136 136.044 74.6689 136.044 75.5445ZM131.319 71.4965V73.6049H133.249C134.209 73.6049 134.756 73.2477 134.756 72.5507C134.756 71.8537 134.209 71.4965 133.249 71.4965H131.319ZM135.094 75.4688C135.094 74.7067 134.529 74.3679 133.484 74.3679H131.319V76.5617H133.484C134.529 76.5609 135.094 76.2317 135.094 75.4688Z" fill="white"/>
<path d="M142.283 76.5037V77.3229H137.501V70.7344H142.151V71.5528H138.443V73.5768H141.746V74.3767H138.443V76.5037H142.283Z" fill="white"/>
<path d="M144.746 71.5528V73.8496H148.05V74.6592H144.746V77.3229H143.805V70.7344H148.455V71.5528H144.746Z" fill="white"/>
<path d="M149.169 74.0267C149.169 72.0968 150.656 70.6562 152.68 70.6562C154.685 70.6562 156.172 72.0871 156.172 74.0267C156.172 75.9653 154.685 77.3962 152.68 77.3962C150.656 77.3962 149.169 75.9565 149.169 74.0267ZM155.23 74.0267C155.23 72.5676 154.138 71.494 152.68 71.494C151.202 71.494 150.111 72.5667 150.111 74.0267C150.111 75.4857 151.203 76.5584 152.68 76.5584C154.138 76.5584 155.23 75.4857 155.23 74.0267Z" fill="white"/>
<path d="M162.015 77.3238L160.593 75.2998C160.462 75.3095 160.321 75.3183 160.18 75.3183H158.551V77.3229H157.609V70.7344H160.179C161.891 70.7344 162.927 71.6003 162.927 73.0312C162.927 74.0476 162.4 74.7815 161.478 75.1115L163.04 77.3238H162.015ZM161.986 73.0312C161.986 72.0896 161.356 71.5528 160.151 71.5528H158.551V74.5184H160.151C161.356 74.5184 161.986 73.9728 161.986 73.0312Z" fill="white"/>
<path d="M169.232 76.5037V77.3229H164.45V70.7344H169.1V71.5528H165.392V73.5768H168.695V74.3767H165.392V76.5037H169.232Z" fill="white"/>
<path d="M334.555 116.703H332.071V183.093H334.555V116.703Z" fill="#CCCCCC"/>
<path d="M257.198 171.633H209.827V253.209H257.198V171.633Z" fill="#CCCCCC"/>
<path opacity="0.8" d="M257.198 171.633H209.827V253.209H257.198V171.633Z" fill="white"/>
<path d="M308.701 185.367H254.252V253.206H308.701V185.367Z" fill="#CCCCCC"/>
<path opacity="0.4" d="M308.702 185.367H254.256V253.209H308.702V185.367Z" fill="white"/>
<path opacity="0.1" d="M308.701 185.367V211.57L277.225 225.075V253.209H254.256V185.367H308.701Z" fill="black"/>
<path d="M331.036 188.453H326.896V253.208H331.036V188.453Z" fill="#CCCCCC"/>
<path d="M321.413 188.453H317.273V253.208H321.413V188.453Z" fill="#CCCCCC"/>
<path d="M311.789 188.453H307.649V253.208H311.789V188.453Z" fill="#CCCCCC"/>
<path d="M302.165 188.453H298.025V253.208H302.165V188.453Z" fill="#CCCCCC"/>
<path d="M292.541 188.453H288.401V253.208H292.541V188.453Z" fill="#CCCCCC"/>
<path d="M278.679 163.414V165.315H285.508V167.163H278.679V167.664H285.508V169.565H278.679V170.058H285.508V171.959H278.679V172.452H285.508V174.352H278.679V174.854H285.508V176.755H278.679V177.248H285.508V179.148H278.679V179.65H285.508V181.551H278.679V182.044H285.508V183.091H286.951V182.044H306.205V183.091H307.648V182.044H326.894V183.091H328.346V165.315H331.039V163.414H278.679ZM286.951 165.315H306.205V167.163H286.951V165.315ZM286.951 167.664H306.205V169.565H286.951V167.664ZM286.951 170.058H306.205V171.959H286.951V170.058ZM286.951 172.452H306.205V174.352H286.951V172.452ZM286.951 174.854H306.205V176.755H286.951V174.854ZM286.951 177.248H306.205V179.148H286.951V177.248ZM286.951 181.551V179.65H306.205V181.551H286.951ZM307.648 165.315H326.894V167.163H307.648V165.315ZM307.648 167.664H326.894V169.565H307.648V167.664ZM307.648 170.058H326.894V171.959H307.648V170.058ZM307.648 172.452H326.894V174.352H307.648V172.452ZM307.648 174.854H326.894V176.755H307.648V174.854ZM307.648 177.248H326.894V179.148H307.648V177.248ZM307.648 181.551V179.65H326.894V181.551H307.648Z" fill="#CCCCCC"/>
<g opacity="0.2">
<path d="M278.679 163.414V165.315H285.508V167.163H278.679V167.664H285.508V169.565H278.679V170.058H285.508V171.959H278.679V172.452H285.508V174.352H278.679V174.854H285.508V176.755H278.679V177.248H285.508V179.148H278.679V179.65H285.508V181.551H278.679V182.044H285.508V183.091H286.951V182.044H306.205V183.091H307.648V182.044H326.894V183.091H328.346V165.315H331.039V163.414H278.679ZM286.951 165.315H306.205V167.163H286.951V165.315ZM286.951 167.664H306.205V169.565H286.951V167.664ZM286.951 170.058H306.205V171.959H286.951V170.058ZM286.951 172.452H306.205V174.352H286.951V172.452ZM286.951 174.854H306.205V176.755H286.951V174.854ZM286.951 177.248H306.205V179.148H286.951V177.248ZM286.951 181.551V179.65H306.205V181.551H286.951ZM307.648 165.315H326.894V167.163H307.648V165.315ZM307.648 167.664H326.894V169.565H307.648V167.664ZM307.648 170.058H326.894V171.959H307.648V170.058ZM307.648 172.452H326.894V174.352H307.648V172.452ZM307.648 174.854H326.894V176.755H307.648V174.854ZM307.648 177.248H326.894V179.148H307.648V177.248ZM307.648 181.551V179.65H326.894V181.551H307.648Z" fill="black"/>
</g>
<path d="M280.746 116.703H209.827V182.58H280.746V116.703Z" fill="#CCCCCC"/>
<path opacity="0.8" d="M280.746 116.703H209.827V182.58H280.746V116.703Z" fill="white"/>
<path d="M274.446 126.078H209.827V182.583H274.446V126.078Z" fill="#CCCCCC"/>
<path opacity="0.1" d="M209.827 126.078V130.399H270.178V178.913H209.827V182.583H274.446V126.078H209.827Z" fill="white"/>
<path d="M265.637 130.398H209.827V178.253H265.637V130.398Z" fill="#CCCCCC"/>
<path opacity="0.5" d="M265.637 130.398H209.827V178.253H265.637V130.398Z" fill="white"/>
<path opacity="0.3" d="M265.633 130.398V156.805L259.889 178.261H248.87L261.686 130.398H265.633Z" fill="white"/>
<path opacity="0.3" d="M258.57 130.398L245.755 178.261H244.154L256.969 130.398H258.57Z" fill="white"/>
<path d="M258.571 225.9V199.477H264.187V194.875H222.707V230.577H264.187V225.9H258.571Z" fill="#CCCCCC"/>
<path d="M259.771 199.477H231.105V225.899H259.771V199.477Z" fill="black"/>
<path d="M259.771 199.477H231.105V225.899H259.771V199.477Z" fill="#CCCCCC"/>
<path opacity="0.5" d="M259.771 199.477H231.105V225.899H259.771V199.477Z" fill="white"/>
<path opacity="0.3" d="M250.59 199.477L243.52 225.899H232.502L239.573 199.477H250.59Z" fill="white"/>
<path opacity="0.3" d="M257.135 199.477L250.065 225.899H246.895L253.965 199.477H257.135Z" fill="white"/>
<path opacity="0.1" d="M226.622 194.875H222.707V230.577H226.622V194.875Z" fill="black"/>
<path d="M220.835 188.516H210.487V253.21H220.835V188.516Z" fill="#CCCCCC"/>
<path opacity="0.3" d="M220.835 188.516H210.487V253.21H220.835V188.516Z" fill="white"/>
<path opacity="0.2" d="M220.835 188.516H215.661V253.21H220.835V188.516Z" fill="white"/>
<path d="M298.862 188.516H288.514V253.21H298.862V188.516Z" fill="#CCCCCC"/>
<path opacity="0.3" d="M298.862 188.516H288.514V253.21H298.862V188.516Z" fill="white"/>
<path opacity="0.2" d="M298.861 188.516H293.688V253.21H298.861V188.516Z" fill="white"/>
<path d="M340.19 182.578H209.827V189.293H340.19V182.578Z" fill="#CCCCCC"/>
<path opacity="0.3" d="M340.19 182.578H209.827V189.293H340.19V182.578Z" fill="white"/>
<path opacity="0.2" d="M298.862 182.578H215.661V189.297H298.862V182.578Z" fill="white"/>
<path d="M337.049 111.953H209.827V118.668H337.049V111.953Z" fill="#CCCCCC"/>
<path opacity="0.3" d="M337.049 111.953H209.827V118.668H337.049V111.953Z" fill="white"/>
<path opacity="0.2" d="M337.047 111.953H215.661V118.672H337.047V111.953Z" fill="white"/>
<path d="M346.878 253.208H209.827V251.562H344.52L346.878 253.208Z" fill="#CCCCCC"/>
<path d="M297.034 64.0781H249.914C248.125 64.0781 246.675 65.5284 246.675 67.3174V81.6693C246.675 83.4584 248.125 84.9086 249.914 84.9086H270.9L273.473 93.6936L276.047 84.9086H297.034C298.823 84.9086 300.273 83.4584 300.273 81.6693V67.3174C300.273 65.5284 298.823 64.0781 297.034 64.0781Z" fill="#CCCCCC"/>
<g filter="url(#filter0_d_9359_23823)">
<path d="M262.871 75.6678H259.37L258.645 77.3151H257.675L260.659 70.7266H261.591L264.584 77.3151H263.595L262.871 75.6678ZM262.542 74.9145L261.121 71.6858L259.7 74.9145H262.542Z" fill="url(#paint0_linear_9359_23823)"/>
<path d="M266.502 71.545V73.8418H269.806V74.6514H266.502V77.3151H265.561V70.7266H270.21V71.545H266.502Z" fill="url(#paint1_linear_9359_23823)"/>
<path d="M272.891 71.545H270.632V70.7266H276.082V71.545H273.823V77.3151H272.891V71.545Z" fill="url(#paint2_linear_9359_23823)"/>
<path d="M281.889 76.4958V77.3151H277.107V70.7266H281.757V71.545H278.049V73.569H281.353V74.3689H278.049V76.4958H281.889Z" fill="url(#paint3_linear_9359_23823)"/>
<path d="M287.816 77.316L286.395 75.292C286.264 75.3017 286.122 75.3105 285.982 75.3105H284.353V77.3151H283.411V70.7266H285.981C287.694 70.7266 288.729 71.5925 288.729 73.0234C288.729 74.0398 288.202 74.7737 287.28 75.1037L288.842 77.316H287.816ZM287.788 73.0234C287.788 72.0818 287.157 71.545 285.953 71.545H284.353V74.5106H285.953C287.157 74.5106 287.788 73.965 287.788 73.0234Z" fill="url(#paint4_linear_9359_23823)"/>
</g>
<path d="M44.4417 242.719C44.4417 242.719 39.9291 238.956 36.0589 242.719C32.1886 246.482 31.4424 269.793 31.4424 269.793" stroke="#CCCCCC" stroke-miterlimit="10"/>
<path d="M31.1224 274.298C31.1224 274.298 33.7827 246.942 23.7656 235.445" stroke="#CCCCCC" stroke-miterlimit="10"/>
<path d="M32.0755 271.412C32.0755 271.412 30.0268 240.269 37.5394 233.359" stroke="#CCCCCC" stroke-miterlimit="10"/>
<path d="M31.122 271.411C31.122 271.411 30.9469 250.832 25.3642 247.633C19.7815 244.434 16.9355 254.868 16.9355 254.868" stroke="#CCCCCC" stroke-miterlimit="10"/>
<path d="M33.3271 271.413C33.3271 271.413 32.4163 255.614 36.7415 249.967C41.0667 244.32 45.6198 252.387 45.6198 252.387" stroke="#CCCCCC" stroke-miterlimit="10"/>
<path d="M31.8196 273.529C31.8196 273.529 34.6171 236.581 29.9883 230.32" stroke="#CCCCCC" stroke-miterlimit="10"/>
<path d="M20.5836 250.633C20.5836 250.633 23.3671 251.66 22.5399 254.082C21.7127 256.505 12.91 260.492 12.91 260.492C12.91 260.492 9.22371 257.113 12.6091 251.617C15.9935 246.123 20.5079 248.9 20.5836 250.633Z" fill="#CCCCCC"/>
<path opacity="0.2" d="M20.5836 250.633C20.5836 250.633 23.3671 251.66 22.5399 254.082C21.7127 256.505 12.91 260.492 12.91 260.492C12.91 260.492 9.22371 257.113 12.6091 251.617C15.9935 246.123 20.5079 248.9 20.5836 250.633Z" fill="white"/>
<path d="M32.6848 246.022C32.6848 246.022 29.7209 245.898 29.552 248.452C29.3839 251.007 35.9733 258.075 35.9733 258.075C35.9733 258.075 40.6761 256.375 39.6658 250C38.6565 243.625 33.4213 244.45 32.6848 246.022Z" fill="#CCCCCC"/>
<path opacity="0.2" d="M32.6848 246.022C32.6848 246.022 29.7209 245.898 29.552 248.452C29.3839 251.007 35.9733 258.075 35.9733 258.075C35.9733 258.075 40.6761 256.375 39.6658 250C38.6565 243.625 33.4213 244.45 32.6848 246.022Z" fill="white"/>
<path d="M35.1945 233.791C35.1945 233.791 33.218 233.579 33.3773 232.375C33.5366 231.172 41.0597 228.073 45.4984 233.084C45.4984 233.084 42.656 237.966 38.5473 238.03C34.4386 238.095 35.1945 233.791 35.1945 233.791Z" fill="#CCCCCC"/>
<path opacity="0.2" d="M35.1945 233.791C35.1945 233.791 33.218 233.579 33.3773 232.375C33.5366 231.172 41.0597 228.073 45.4984 233.084C45.4984 233.084 42.656 237.966 38.5473 238.03C34.4386 238.095 35.1945 233.791 35.1945 233.791Z" fill="white"/>
<path d="M31.5116 230.869C31.5116 230.869 33.3015 231.734 33.8031 230.629C34.3047 229.523 29.558 222.915 23.141 224.819C23.141 224.819 22.9712 230.466 26.4243 232.693C29.8774 234.92 31.5116 230.869 31.5116 230.869Z" fill="#CCCCCC"/>
<path opacity="0.2" d="M31.5116 230.869C31.5116 230.869 33.3015 231.734 33.8031 230.629C34.3047 229.523 29.558 222.915 23.141 224.819C23.141 224.819 22.9712 230.466 26.4243 232.693C29.8774 234.92 31.5116 230.869 31.5116 230.869Z" fill="white"/>
<path d="M40.8689 249.656C40.8689 249.656 39.5049 248.555 40.9772 248.017C42.4494 247.48 49.6716 247.633 49.7473 254.787C49.7473 254.787 41.3353 256.186 40.2943 253.46C39.2524 250.734 40.8689 249.656 40.8689 249.656Z" fill="#CCCCCC"/>
<path opacity="0.2" d="M40.8689 249.656C40.8689 249.656 39.5049 248.555 40.9772 248.017C42.4494 247.48 49.6716 247.633 49.7473 254.787C49.7473 254.787 41.3353 256.186 40.2943 253.46C39.2524 250.734 40.8689 249.656 40.8689 249.656Z" fill="white"/>
<path d="M23.7152 233.617C23.7152 233.617 25.0792 232.516 23.607 231.978C22.1347 231.441 14.9126 231.594 14.8369 238.748C14.8369 238.748 23.2488 240.146 24.2899 237.421C25.3318 234.695 23.7152 233.617 23.7152 233.617Z" fill="#CCCCCC"/>
<path opacity="0.2" d="M23.7152 233.617C23.7152 233.617 25.0792 232.516 23.607 231.978C22.1347 231.441 14.9126 231.594 14.8369 238.748C14.8369 238.748 23.2488 240.146 24.2899 237.421C25.3318 234.695 23.7152 233.617 23.7152 233.617Z" fill="white"/>
<path d="M28.1624 239.373C28.1624 239.373 28.2821 238.035 27.2015 238.559C26.1208 239.084 22.3553 243.146 26.2581 247C26.2581 247 31.5117 243.109 30.5648 241.083C29.6188 239.057 28.1624 239.373 28.1624 239.373Z" fill="#CCCCCC"/>
<path opacity="0.2" d="M28.1624 239.373C28.1624 239.373 28.2821 238.035 27.2015 238.559C26.1208 239.084 22.3553 243.146 26.2581 247C26.2581 247 31.5117 243.109 30.5648 241.083C29.6188 239.057 28.1624 239.373 28.1624 239.373Z" fill="white"/>
<path d="M42.0886 241.288C42.0886 241.288 41.2737 240.219 42.467 240.086C43.6611 239.954 49.0124 241.383 47.7663 246.724C47.7663 246.724 41.2473 246.234 40.9674 244.015C40.6885 241.796 42.0886 241.288 42.0886 241.288Z" fill="#CCCCCC"/>
<path opacity="0.2" d="M42.0886 241.288C42.0886 241.288 41.2737 240.219 42.467 240.086C43.6611 239.954 49.0124 241.383 47.7663 246.724C47.7663 246.724 41.2473 246.234 40.9674 244.015C40.6885 241.796 42.0886 241.288 42.0886 241.288Z" fill="white"/>
<path d="M20.0624 291.249H42.4311L44.8449 266.758H17.6494L20.0624 291.249Z" fill="#CCCCCC"/>
<path opacity="0.5" d="M20.0624 291.249H42.4311L44.8449 266.758H17.6494L20.0624 291.249Z" fill="white"/>
<path d="M16.4552 269.461H46.0391V264.057H16.4552V269.461Z" fill="#CCCCCC"/>
<path opacity="0.2" d="M16.4552 269.461H46.0391V264.057H16.4552V269.461Z" fill="white"/>
<path d="M344.695 270.823C344.695 270.823 348.713 262.059 344.123 253.419C339.533 244.779 338.203 242.745 341.129 240.974C344.055 239.204 345.397 247.886 345.397 247.886C345.397 247.886 347.863 241.913 345.826 235.662C343.79 229.412 342.513 219.231 345.294 218.139C348.075 217.047 345.825 230.839 348.237 235.54C348.237 235.54 350.264 230.307 350.598 225.286C350.931 220.266 350.41 212.249 352.607 210.193C354.802 208.136 356.209 209.559 354.052 220.638C351.894 231.717 351.91 240.723 351.91 240.723C351.91 240.723 356.677 226.19 359.875 225.766C363.074 225.342 363.071 230.049 360.332 234.131C357.594 238.214 352.313 245.526 351.447 249.289C351.447 249.289 356.678 238.353 361.386 241.705C366.092 245.056 357.289 251.663 353.365 254.05C349.441 256.437 346.717 271.4 346.717 271.4L344.695 270.823Z" fill="#CCCCCC"/>
<path opacity="0.6" d="M344.695 270.823C344.695 270.823 348.713 262.059 344.123 253.419C339.533 244.779 338.203 242.745 341.129 240.974C344.055 239.204 345.397 247.886 345.397 247.886C345.397 247.886 347.863 241.913 345.826 235.662C343.79 229.412 342.513 219.231 345.294 218.139C348.075 217.047 345.825 230.839 348.237 235.54C348.237 235.54 350.264 230.307 350.598 225.286C350.931 220.266 350.41 212.249 352.607 210.193C354.802 208.136 356.209 209.559 354.052 220.638C351.894 231.717 351.91 240.723 351.91 240.723C351.91 240.723 356.677 226.19 359.875 225.766C363.074 225.342 363.071 230.049 360.332 234.131C357.594 238.214 352.313 245.526 351.447 249.289C351.447 249.289 356.678 238.353 361.386 241.705C366.092 245.056 357.289 251.663 353.365 254.05C349.441 256.437 346.717 271.4 346.717 271.4L344.695 270.823Z" fill="white"/>
<path d="M347.866 274.417C347.866 274.417 343.954 265.594 348.647 257.023C353.34 248.452 354.695 246.437 351.791 244.624C348.887 242.81 347.441 251.471 347.441 251.471C347.441 251.471 345.046 245.462 347.157 239.242C349.269 233.022 350.668 222.862 347.9 221.729C345.133 220.595 347.217 234.42 344.748 239.085C344.748 239.085 342.784 233.822 342.511 228.797C342.238 223.772 342.855 215.764 340.683 213.675C338.512 211.586 337.088 212.988 339.113 224.098C341.138 235.208 341.014 244.213 341.014 244.213C341.014 244.213 336.422 229.61 333.229 229.138C330.035 228.666 329.982 233.373 332.672 237.496C335.361 241.618 340.554 249.009 341.374 252.786C341.374 252.786 336.274 241.771 331.528 245.053C326.782 248.334 335.504 255.072 339.398 257.516C343.293 259.962 345.838 274.964 345.838 274.964L347.866 274.417Z" fill="#CCCCCC"/>
<path opacity="0.7" d="M347.866 274.417C347.866 274.417 343.954 265.594 348.647 257.023C353.34 248.452 354.695 246.437 351.791 244.624C348.887 242.81 347.441 251.471 347.441 251.471C347.441 251.471 345.046 245.462 347.157 239.242C349.269 233.022 350.668 222.862 347.9 221.729C345.133 220.595 347.217 234.42 344.748 239.085C344.748 239.085 342.784 233.822 342.511 228.797C342.238 223.772 342.855 215.764 340.683 213.675C338.512 211.586 337.088 212.988 339.113 224.098C341.138 235.208 341.014 244.213 341.014 244.213C341.014 244.213 336.422 229.61 333.229 229.138C330.035 228.666 329.982 233.373 332.672 237.496C335.361 241.618 340.554 249.009 341.374 252.786C341.374 252.786 336.274 241.771 331.528 245.053C326.782 248.334 335.504 255.072 339.398 257.516C343.293 259.962 345.838 274.964 345.838 274.964L347.866 274.417Z" fill="white"/>
<path d="M329.826 268.125H362.138L359.523 291.248H332.442L329.826 268.125Z" fill="#CCCCCC"/>
<path d="M59.7741 58.0904C59.7741 52.6467 54.3128 48.2344 47.5755 48.2344C40.8382 48.2344 35.377 52.6476 35.377 58.0904C35.377 62.8635 39.5772 66.8437 45.1546 67.751C46.1244 69.6721 47.99 72.4396 51.1703 73.9286C51.1703 73.9286 48.987 72.2487 49.1894 67.8504C55.1611 67.2107 59.7741 63.0905 59.7741 58.0904Z" fill="#CCCCCC"/>
<path opacity="0.8" d="M59.7741 58.0904C59.7741 52.6467 54.3128 48.2344 47.5755 48.2344C40.8382 48.2344 35.377 52.6476 35.377 58.0904C35.377 62.8635 39.5772 66.8437 45.1546 67.751C46.1244 69.6721 47.99 72.4396 51.1703 73.9286C51.1703 73.9286 48.987 72.2487 49.1894 67.8504C55.1611 67.2107 59.7741 63.0905 59.7741 58.0904Z" fill="white"/>
<path d="M42.6727 53.8587C44.247 51.9157 46.6265 53.0491 47.6975 54.8566C49.1944 53.3826 51.7833 52.8933 52.8103 55.1734C54.5412 59.0181 49.5956 61.7312 47.2935 62.7458C47.0322 62.8629 46.8166 62.9588 46.6371 63.0336C46.4831 62.9157 46.2983 62.7678 46.0756 62.5883C44.1088 61.0202 40.0186 57.1358 42.6727 53.8587Z" fill="#CCCCCC"/>
<path d="M109.823 134.494C107.954 139.194 101.608 140.185 96.4658 138.07C91.323 135.954 84.2549 123.471 84.2549 123.471L91.4031 110.555L109.823 134.494Z" fill="#CCCCCC"/>
<path opacity="0.2" d="M109.823 134.494C107.954 139.194 101.608 140.185 96.4658 138.07C91.323 135.954 84.2549 123.471 84.2549 123.471L91.4031 110.555L109.823 134.494Z" fill="black"/>
<path d="M61.4468 75.6049C61.4468 75.6049 65.002 69.393 72.731 69.7406C80.4601 70.0891 83.1845 70.7852 84.2555 77.5735C85.3265 84.3618 85.8483 85.2946 88.285 86.7431C90.7217 88.1916 84.8671 91.3974 85.88 94.3208C86.8929 97.2433 90.0257 97.0699 89.8514 99.768C89.6772 102.466 86.2381 102.416 85.88 104.515C85.5218 106.614 87.3047 110.298 85.88 113.258C84.4553 116.217 55.9089 125.995 52.0792 118.756C48.2494 111.517 54.3417 107.956 55.0386 104.515C55.7347 101.073 53.7477 101.233 53.6104 97.1491C53.4722 93.065 56.2961 92.7174 56.5373 90.4541C56.7793 88.1907 53.9941 86.0576 54.8644 83.4686C55.7347 80.8805 58.9432 75.6049 61.4468 75.6049Z" fill="#263238"/>
<path d="M43.2891 304.232L39.6758 299.502L45.7997 293.595L51.371 288.227L56.6061 293.119L49.5643 299L43.2891 304.232Z" fill="#EEC1BB"/>
<path d="M39.4649 298.063C39.9956 297.677 44.4809 304.396 44.4809 304.396C44.4809 304.396 43.4821 311.4 45.5061 315.917C47.5301 320.434 43.5983 320.05 40.3291 315.77C37.0608 311.491 34.566 308.224 32.2437 305.184C29.9205 302.143 33.9623 302.065 39.4649 298.063Z" fill="#263238"/>
<path d="M46.0013 309.469C44.9823 309.23 44.3214 306.327 44.1991 305.747C44.1929 305.719 44.1929 305.69 44.1982 305.662L44.1991 305.661C44.2035 305.639 44.2114 305.617 44.2228 305.597C44.2343 305.577 44.2492 305.558 44.2668 305.543C44.2677 305.544 44.2677 305.543 44.2677 305.543L44.2695 305.542C44.2915 305.522 44.3161 305.509 44.3425 305.5C44.4349 305.471 46.3313 304.87 47.3548 305.464C47.6804 305.653 47.8863 305.937 47.9655 306.31C48.05 306.708 47.9778 306.988 47.7481 307.142C47.3961 307.38 46.7097 307.182 46.0348 306.873C46.5003 307.374 46.9104 307.941 46.9746 308.43C47.0089 308.689 46.9508 308.917 46.803 309.103C46.5645 309.405 46.3304 309.488 46.1456 309.488C46.0937 309.487 46.0444 309.48 46.0013 309.469ZM46.0981 309.056C46.1395 309.066 46.2653 309.096 46.4686 308.838C46.5434 308.744 46.5716 308.628 46.5522 308.484C46.4651 307.82 45.4619 306.847 44.7535 306.251C45.0764 307.5 45.6203 308.943 46.0981 309.056ZM44.9268 305.785C46.0119 306.459 47.2078 306.996 47.5105 306.79C47.6038 306.727 47.5748 306.517 47.5492 306.399C47.4947 306.145 47.3618 305.959 47.1418 305.831C46.8787 305.679 46.5293 305.626 46.1703 305.626C45.7206 305.626 45.256 305.709 44.9268 305.785Z" fill="#CCCCCC"/>
<path opacity="0.2" d="M49.5644 299L45.7998 293.595L51.3711 288.227L56.6062 293.119L49.5644 299Z" fill="black"/>
<path d="M79.4825 311.723H73.531L72.5533 303.435L71.6689 295.83L78.7345 294.68L79.134 303.703L79.4825 311.723Z" fill="#EEC1BB"/>
<path d="M72.2547 311.341C72.2705 310.685 80.3322 311.2 80.3322 311.2C80.3322 311.2 85.2919 316.245 90.1108 317.378C94.9288 318.512 92.2368 321.403 86.8512 321.403C81.4665 321.403 77.356 321.403 73.5298 321.403C69.7044 321.402 72.0954 318.143 72.2547 311.341Z" fill="#263238"/>
<path d="M81.2331 312.241C81.2067 312.229 81.1847 312.212 81.1663 312.191L81.1654 312.19C81.1504 312.173 81.1372 312.153 81.1284 312.132C81.1196 312.111 81.1143 312.088 81.1126 312.065L81.1117 312.065C81.1099 312.035 81.1143 312.005 81.124 311.977C81.1583 311.882 81.8351 310.015 82.9227 309.562C83.2703 309.418 83.6206 309.429 83.9655 309.59C84.3325 309.764 84.5111 309.992 84.4962 310.268C84.4715 310.692 83.8969 311.118 83.2422 311.467C83.9224 311.402 84.622 311.42 85.0497 311.665C85.2767 311.795 85.4219 311.979 85.48 312.211C85.6015 312.688 85.4413 312.942 85.2847 313.07C85.1166 313.208 84.8675 313.264 84.5736 313.264C83.4481 313.263 81.6573 312.444 81.2331 312.241ZM81.9706 312.107C83.1595 312.609 84.6361 313.054 85.0154 312.742C85.0488 312.715 85.1491 312.632 85.0691 312.316C85.0391 312.198 84.9635 312.107 84.8385 312.035C84.6159 311.906 84.2744 311.859 83.8881 311.859C83.2668 311.858 82.5276 311.983 81.9706 312.107ZM83.0873 309.955C82.4555 310.217 81.9565 311.134 81.7048 311.688C82.8981 311.234 84.0509 310.607 84.072 310.245C84.0782 310.132 83.8943 310.027 83.7843 309.975C83.6593 309.916 83.5361 309.886 83.4138 309.886C83.3055 309.886 83.1973 309.909 83.0873 309.955Z" fill="#CCCCCC"/>
<path opacity="0.2" d="M79.134 303.885L72.5533 303.595L71.6689 295.909L78.7345 294.719L79.134 303.885Z" fill="black"/>
<path d="M94.3436 168.516C94.3436 168.516 111.931 210.091 114.697 228.335C117.462 246.58 54.9768 295.493 54.9768 295.493L48.5889 288.695C48.5889 288.695 95.0713 240.912 95.0713 232.692C95.0713 224.473 76.9425 186.932 76.9425 186.932C76.9425 186.932 75.1939 171.795 94.3436 168.516Z" fill="#263238"/>
<path opacity="0.2" d="M81.6084 272.744C75.2231 278.619 69.0499 283.925 64.2539 287.939C58.6844 292.589 54.977 295.489 54.977 295.489L48.5908 288.695C48.5908 288.695 54.977 282.139 63.0035 273.458C69.321 266.63 76.6672 258.493 82.7304 251.207C89.7537 242.763 95.068 235.468 95.068 232.696C95.068 228.359 90.0256 215.877 85.2639 205.036C80.9871 195.326 76.9391 186.933 76.9391 186.933C76.9391 186.933 76.6839 184.714 77.4407 181.797C78.6648 177.087 82.5254 170.548 94.3447 168.516C94.3447 168.516 111.929 210.095 114.692 228.334C116.206 238.308 98.2228 257.448 81.6084 272.744Z" fill="white"/>
<path opacity="0.2" d="M82.7301 251.203L81.6081 272.741C75.2228 278.617 69.0496 283.922 64.2536 287.936C63.4968 284.671 62.6212 279.357 63.004 273.456C69.3216 266.627 76.6678 258.49 82.7301 251.203Z" fill="black"/>
<path opacity="0.2" d="M85.2646 205.033C80.9878 195.324 76.9398 186.931 76.9398 186.931C76.9398 186.931 76.6846 184.712 77.4414 181.795C78.5722 181.098 79.4399 180.953 79.4399 180.953C79.4399 180.953 84.6442 189.124 85.2646 205.033Z" fill="black"/>
<path d="M79.6913 180.953L80.8362 239.496V299.404H70.6986C46.8902 185.884 63.2159 157.429 63.2159 157.429L63.2749 157.444C63.2916 157.402 63.3092 157.346 63.3259 157.311C67.1522 148.809 92.2357 155.077 92.2357 155.077C94.0388 162.126 95.1934 176.433 95.1934 176.433L79.6913 180.953Z" fill="#263238"/>
<path opacity="0.2" d="M79.6913 180.953L80.8362 239.496V299.404H70.6986C46.8902 185.884 63.2159 157.429 63.2159 157.429L63.2749 157.444C63.2916 157.402 63.3092 157.346 63.3259 157.311C67.1522 148.809 92.2357 155.077 92.2357 155.077C94.0388 162.126 95.1934 176.433 95.1934 176.433L79.6913 180.953Z" fill="white"/>
<path d="M69.4209 297.965L81.8799 296.141L80.8371 301.12L70.5543 302.506L69.4209 297.965Z" fill="#CCCCCC"/>
<path d="M48.5917 286.398L56.9499 295.484L52.7708 297.877L46.3213 291.033L48.5917 286.398Z" fill="#CCCCCC"/>
<path d="M95.779 165.35C95.779 165.35 89.9534 167.981 81.083 169.723C65.331 172.812 57.7542 171.483 57.7542 171.483C59.9718 166.203 61.0366 158.706 61.0014 150.328C60.9838 146.175 60.7022 141.81 60.1478 137.383C60.1214 137.199 60.1038 137.014 60.0774 136.829V136.82C59.6638 133.652 59.1182 130.458 58.4494 127.299V127.29C57.9742 125.046 57.4286 122.828 56.8126 120.646C56.3814 119.088 55.9238 117.566 55.4222 116.061C54.8678 114.371 54.2606 112.594 53.6094 110.702C57.5518 109.443 61.5734 108.475 65.6566 107.798C69.9686 107.032 74.3334 106.566 78.6982 106.416C84.3566 106.372 90.8422 107.015 90.8422 107.015C90.8422 107.015 91.7662 107.235 92.347 113.219C92.5142 115.005 92.1974 119.387 91.8542 125.028C91.115 137.137 92.039 155.019 95.779 165.35Z" fill="#CCCCCC"/>
<path opacity="0.3" d="M70.1013 127.054C71.2875 125.057 72.3145 123.107 73.154 121.399C72.8821 121.404 72.6137 121.41 72.3347 121.41C72.1121 121.41 71.8859 121.402 71.6615 121.398C71.1098 122.523 70.4753 123.753 69.7695 125.034C69.8883 125.671 70.0001 126.348 70.1013 127.054Z" fill="white"/>
<path opacity="0.3" d="M75.4004 121.305C74.9912 121.33 74.5723 121.35 74.1446 121.366C73.1326 123.453 71.8302 125.931 70.2832 128.444C70.3395 128.947 70.3835 129.46 70.4222 129.977C72.441 126.985 74.1288 123.882 75.4004 121.305Z" fill="white"/>
<path opacity="0.3" d="M88.0105 147.184C87.9419 146.594 87.8688 145.949 87.7932 145.266C86.8348 146.951 85.7568 148.698 84.5732 150.395C85.1056 150.285 85.6284 150.172 86.1264 150.055C86.7891 149.108 87.4174 148.145 88.0105 147.184Z" fill="white"/>
<path opacity="0.3" d="M87.6293 143.753C87.5616 143.122 87.4956 142.483 87.4313 141.844C86.0471 144.585 84.2378 147.815 82.0889 150.859C82.5033 150.787 82.9125 150.713 83.3191 150.637C84.9577 148.374 86.407 145.983 87.6293 143.753Z" fill="white"/>
<path opacity="0.3" d="M80.8584 151.065C83.5538 147.382 85.7468 143.331 87.2727 140.185C87.1821 139.197 87.1055 138.266 87.051 137.445C85.6086 140.7 82.8622 146.345 79.2119 151.319C79.7584 151.238 80.3075 151.154 80.8584 151.065Z" fill="white"/>
<path opacity="0.3" d="M70.5121 133.136C73.6229 129.199 76.152 124.612 77.8698 121.094C77.3999 121.147 76.915 121.196 76.4134 121.238C74.9746 124.197 72.9594 127.928 70.498 131.42C70.5174 131.992 70.5262 132.565 70.5121 133.136Z" fill="white"/>
<path opacity="0.3" d="M87.418 149.723C87.7154 149.642 88.0085 149.559 88.2821 149.475C88.2522 149.23 88.2153 148.914 88.1739 148.57C87.9275 148.956 87.6758 149.34 87.418 149.723Z" fill="white"/>
<path opacity="0.3" d="M77.9795 151.499C82.6206 145.413 85.8837 138.028 86.9678 135.41C86.9678 135.296 86.967 135.174 86.9714 135.079C86.9758 134.965 87.4114 124.298 86.2207 119.234C84.9491 119.695 82.4376 120.47 78.9114 120.959C77.0379 124.858 74.0996 130.25 70.4274 134.633C70.3402 135.666 70.1889 136.675 69.9434 137.625C70.0701 138.927 70.8471 147.246 70.5875 152.372C72.036 152.231 74.8617 151.933 77.9795 151.499Z" fill="white"/>
<path opacity="0.3" d="M70.6905 121.374C70.1105 121.356 69.5288 121.328 68.9463 121.289C69.1056 121.902 69.3036 122.723 69.5042 123.677C69.931 122.878 70.327 122.107 70.6905 121.374Z" fill="white"/>
<path d="M76.4824 105.731C76.2123 104.961 76.0257 103.894 76.0442 102.384C76.0583 101.375 76.1542 100.181 76.3804 98.7571L67.7643 97.1484C67.7643 97.1484 70.3374 102.236 68.6496 106.419C64.9967 107.078 61.1115 108.275 57.2148 110.297C57.2148 110.297 64.5514 115.868 75.026 115.345C85.5007 114.822 89.2433 107.599 89.2433 107.599C89.2433 107.599 83.9941 105.741 76.4824 105.731Z" fill="#EEC1BB"/>
<path opacity="0.2" d="M76.3797 98.7571C76.1535 100.181 76.0567 101.375 76.0426 102.384C71.889 101.422 67.7627 97.1484 67.7627 97.1484L76.3797 98.7571Z" fill="black"/>
<path opacity="0.1" d="M76.4824 105.731C76.2123 104.961 76.0257 103.894 76.0442 102.384C76.0583 101.375 76.1542 100.181 76.3804 98.7571L67.7643 97.1484C67.7643 97.1484 70.3374 102.236 68.6496 106.419C64.9967 107.078 61.1115 108.275 57.2148 110.297C57.2148 110.297 64.5514 115.868 75.026 115.345C85.5007 114.822 89.2433 107.599 89.2433 107.599C89.2433 107.599 83.9941 105.741 76.4824 105.731Z" fill="black"/>
<path d="M75.9702 100.638C75.2134 100.647 74.3862 100.585 73.4798 100.436C70.3294 99.9251 67.9534 98.0595 66.3606 95.5691V95.5603C61.8022 88.4147 63.7294 76.1123 72.4678 75.6371C79.5606 75.2499 82.051 78.9195 82.975 86.1971C84.0046 94.3811 82.755 100.541 75.9702 100.638Z" fill="#EEC1BB"/>
<path d="M78.3643 86.0547C78.3643 86.0547 79.4484 87.8534 80.5889 88.883C80.5889 88.883 80.0345 89.8809 78.7629 89.7877L78.3643 86.0547Z" fill="#D4827D"/>
<path d="M73.9905 85.7112C74.0362 86.2928 73.7582 86.7892 73.371 86.82C72.9829 86.8508 72.6318 86.4037 72.586 85.8212C72.5402 85.2395 72.8174 84.7432 73.2055 84.7124C73.5936 84.6824 73.9447 85.1295 73.9905 85.7112Z" fill="#263238"/>
<path d="M73.0459 84.752L74.2726 84.1562C74.2726 84.1562 73.7261 85.2712 73.0459 84.752Z" fill="#263238"/>
<path d="M81.2151 85.0237C81.2608 85.6053 80.9828 86.1016 80.5956 86.1324C80.2075 86.1624 79.8564 85.7153 79.8106 85.1337C79.7648 84.552 80.0429 84.0557 80.4301 84.0249C80.8182 83.9949 81.1702 84.442 81.2151 85.0237Z" fill="#263238"/>
<path d="M80.2705 84.0636L81.4972 83.4688C81.4972 83.4688 80.9507 84.5828 80.2705 84.0636Z" fill="#263238"/>
<path d="M73.6513 80.8172C73.6513 80.8172 71.644 80.6676 70.6338 82.058" stroke="#263238" stroke-width="0.6862" stroke-miterlimit="10" stroke-linecap="round" stroke-linejoin="round"/>
<path d="M78.79 80.2332C78.79 80.2332 80.0176 79.7008 81.6483 80.6608" stroke="#263238" stroke-width="0.6862" stroke-miterlimit="10" stroke-linecap="round" stroke-linejoin="round"/>
<path d="M77.8826 92.6361C77.5192 93.5135 77.1901 95.145 77.1901 95.145C77.0369 95.1415 76.8838 95.1388 76.7307 95.1274C74.6548 95.0315 73.7237 94.302 73.3207 93.5214C73.1016 93.0937 73.0461 92.6458 73.0479 92.2823C73.0461 91.8626 73.1412 91.5625 73.1412 91.5625C74.2112 92.2709 76.1402 92.5085 77.1751 92.593C77.608 92.6317 77.8826 92.6361 77.8826 92.6361Z" fill="#263238"/>
<path d="M77.1751 92.5921L76.9516 93.3269C74.9962 93.2319 73.6331 92.9027 73.0479 92.2823C73.0461 91.8626 73.1412 91.5625 73.1412 91.5625C74.2112 92.27 76.1393 92.5076 77.1751 92.5921Z" fill="white"/>
<path d="M76.7303 95.1294C74.6544 95.0335 73.7234 94.304 73.3203 93.5234C74.0261 93.5833 74.8709 93.7338 75.6039 94.0866C76.1654 94.3533 76.5086 94.7422 76.7303 95.1294Z" fill="#DE5753"/>
<path d="M65.3706 88.0133C65.3706 88.0133 68.3679 82.0038 67.619 77.5325C67.619 77.5325 81.3602 71.0205 82.8351 85.2492C82.8351 85.2492 83.5145 72.5059 71.3062 72.8914C59.1173 73.2768 60.1267 91.1118 66.7153 96.082C66.7153 96.082 63.5182 91.77 65.3706 88.0133Z" fill="#263238"/>
<path d="M66.6102 89.4442C66.5002 88.3046 65.2163 86.4364 63.1052 86.7848C60.9201 87.1448 60.1202 91.7146 65.6466 92.5004C66.4395 92.6122 66.8399 91.8211 66.6102 89.4442Z" fill="#EEC1BB"/>
<path opacity="0.1" d="M75.9699 100.635C75.2132 100.644 74.3859 100.582 73.4795 100.433C70.3291 99.9223 67.9532 98.0567 66.3604 95.5663V95.5575C67.0925 94.3202 69.4139 92.9492 70.2059 92.8612C71.2716 92.7468 74.1396 98.0127 75.9699 100.635Z" fill="black"/>
<path d="M87.5041 91.5548C87.5041 91.5548 83.8723 100.198 84.5121 101.591C85.1519 102.983 88.2847 110.817 88.2847 110.817L92.2605 108.728L89.155 102.382C89.155 102.382 92.7559 96.6552 92.2605 96.0771C91.7659 95.4989 88.8619 90.9528 87.5041 91.5548Z" fill="#EEC1BB"/>
<path d="M86.3701 109.078L92.3075 105.531C92.3075 105.531 110.996 128.05 109.823 134.491C109.21 137.857 103.7 139.915 99.2507 135.71C95.1877 131.87 92.4412 122.569 86.3701 109.078Z" fill="#CCCCCC"/>
<path opacity="0.1" d="M86.3701 109.078L92.3075 105.531C92.3075 105.531 110.996 128.05 109.823 134.491C109.21 137.857 103.7 139.915 99.2507 135.71C95.1877 131.87 92.4412 122.569 86.3701 109.078Z" fill="black"/>
<path d="M65.8145 96.0833C65.8145 96.0833 69.2817 93.2884 70.3413 93.3527C71.4008 93.4169 74.78 102.719 75.4646 103.512C76.1493 104.305 73.8137 111.819 73.8137 111.819L68.9641 111.883L70.7029 105.601C70.7029 105.601 64.1804 97.31 65.8145 96.0833Z" fill="#EEC1BB"/>
<path opacity="0.2" d="M61.0011 150.324C60.9835 146.171 60.7019 141.806 60.1475 137.38C62.4179 134.687 65.4187 132.355 68.9475 131.281C68.9475 131.281 69.1499 145.801 61.0011 150.324Z" fill="black"/>
<path d="M68.964 109.484L75.1117 110.819C75.1117 110.819 69.1162 137.451 64.9732 141.164C60.8301 144.878 56.7073 144.431 53.6106 139.433C50.513 134.434 49.4394 111.916 53.6106 110.701C53.6106 110.701 55.6012 113.667 57.7572 118.713C59.9132 123.759 60.567 126.389 60.567 126.389L68.964 109.484Z" fill="#CCCCCC"/>
<path opacity="0.1" d="M75.108 110.813C75.108 110.813 69.1153 137.451 64.9705 141.164C60.8257 144.878 56.7072 144.429 53.6096 139.431C50.512 134.432 49.4384 111.913 53.6096 110.699C53.6096 110.699 55.5984 113.664 57.7544 118.707C58.5904 120.66 59.1977 122.253 59.6289 123.468C60.3241 125.395 60.5705 126.389 60.5705 126.389L68.9657 109.484L75.108 110.813Z" fill="black"/>
<path opacity="0.2" d="M60.5708 126.39C60.5708 126.39 57.4556 130.606 56.5404 133.272C56.5404 133.272 55.5636 127.2 59.6292 123.469C60.3244 125.396 60.5708 126.39 60.5708 126.39Z" fill="black"/>
<path d="M302.704 306.998H294.013V209.033C294.013 207.336 295.286 205.961 296.858 205.961H300.353C301.651 205.961 302.704 207.098 302.704 208.5V306.998Z" fill="url(#paint5_linear_9359_23823)"/>
<path d="M325.976 255.938H271.826C270.279 255.938 269.024 254.659 269.024 253.082V221.857C269.024 220.279 270.279 219 271.826 219H325.976C327.523 219 328.778 220.279 328.778 221.857V253.082C328.778 254.659 327.523 255.938 325.976 255.938Z" fill="url(#paint6_linear_9359_23823)"/>
<path d="M323.88 254.851H273.922C272.417 254.851 271.197 253.594 271.197 252.043V223.98C271.197 222.429 272.417 221.172 273.922 221.172H323.88C325.385 221.172 326.605 222.429 326.605 223.98V252.043C326.605 253.594 325.385 254.851 323.88 254.851Z" fill="white"/>
<path d="M295.072 242.588C295.358 242.607 295.645 242.565 295.914 242.465C296.183 242.364 296.428 242.208 296.631 242.006C297.017 241.539 297.209 240.943 297.169 240.339C297.172 240.01 297.12 239.682 297.015 239.369C296.924 239.092 296.79 238.832 296.619 238.596C296.457 238.379 296.279 238.174 296.087 237.982C295.895 237.791 295.702 237.607 295.506 237.432C295.318 237.265 295.139 237.088 294.969 236.902C294.807 236.724 294.674 236.521 294.573 236.302C294.471 236.082 294.418 235.842 294.419 235.6C294.419 235.013 294.653 234.719 295.122 234.718C295.591 234.717 295.825 235.011 295.825 235.6V235.969H297.154V235.69C297.195 235.088 297.008 234.494 296.63 234.024C296.43 233.821 296.187 233.664 295.921 233.564C295.654 233.464 295.368 233.422 295.084 233.442C294.799 233.422 294.514 233.464 294.247 233.564C293.98 233.664 293.738 233.821 293.537 234.024C293.16 234.494 292.973 235.089 293.013 235.69C293.008 236.134 293.105 236.573 293.295 236.973C293.464 237.336 293.698 237.665 293.985 237.944C294.257 238.203 294.527 238.452 294.796 238.691C295.06 238.924 295.29 239.192 295.48 239.488C295.663 239.767 295.761 240.093 295.762 240.427C295.762 241.006 295.519 241.295 295.033 241.296C294.547 241.296 294.303 241.007 294.303 240.429V239.789H292.975V240.339C292.934 240.943 293.127 241.54 293.512 242.006C293.716 242.208 293.96 242.365 294.229 242.465C294.498 242.565 294.786 242.607 295.072 242.588ZM299.38 242.484V233.543H297.974V242.486H299.38V242.484ZM302.627 242.484C304.024 242.484 304.723 241.748 304.724 240.275V235.753C304.724 234.279 304.025 233.543 302.627 233.543H300.402V242.486H302.627V242.484ZM302.599 241.207H301.808V234.82H302.601C303.077 234.82 303.316 235.11 303.316 235.689V240.339C303.316 240.917 303.077 241.207 302.601 241.207H302.599Z" fill="#EB5535"/>
<path d="M297.189 227.016V228.071H289.111V236.162H288.058V227.016H297.189Z" fill="#EB5535"/>
<path d="M300.377 227.016V228.071H308.455V236.162H309.507V227.016H300.377Z" fill="#80BB01"/>
<path d="M297.189 249.014V247.958H289.111V239.867H288.058V249.014H297.189Z" fill="#F9AE39"/>
<path d="M300.377 249.014V247.958H308.455V239.867H309.507V249.014H300.377Z" fill="#397BE7"/>
<path d="M297.867 307.909C297.697 307.899 297.54 307.822 297.429 307.693C295.807 305.817 283.932 291.078 297.115 275.795C309.629 261.287 315.553 258.056 315.774 250.069C315.799 249.136 317.033 248.82 317.507 249.623C321.049 255.628 326.931 269.819 311.8 280.564C295.109 292.415 297.409 303.857 298.501 307.076C298.645 307.501 298.315 307.936 297.867 307.909Z" fill="#BDD0FB"/>
<path d="M300.057 308.043C299.655 308.018 299.317 307.735 299.226 307.343C298.606 304.671 296.822 294.646 304.055 291.408C312.018 287.844 319.199 294.976 324.766 288.551C325.059 288.213 325.612 288.447 325.57 288.893C325.268 292.052 323.426 299.457 312.924 301.71C301.683 304.121 300.503 305.521 300.854 307.122C300.962 307.615 300.561 308.073 300.057 308.043Z" fill="#BDD0FB"/>
<path d="M315.985 258.18C315.89 258.779 315.747 259.344 315.568 259.908C315.393 260.472 315.184 261.024 314.952 261.566C314.493 262.655 313.923 263.694 313.288 264.691C312.008 266.682 310.412 268.465 308.622 270.011C307.729 270.78 306.767 271.497 305.811 272.151C304.881 272.789 303.992 273.491 303.147 274.243C301.456 275.747 299.948 277.457 298.642 279.306C296.042 283.006 294.326 287.364 293.994 291.891C293.82 294.151 293.988 296.438 294.464 298.667C294.938 300.899 295.746 303.059 296.752 305.124C296.807 305.234 296.761 305.367 296.651 305.422C296.546 305.474 296.418 305.433 296.36 305.332C295.212 303.303 294.304 301.121 293.721 298.843C293.425 297.705 293.213 296.543 293.089 295.369C292.973 294.195 292.934 293.011 292.994 291.829C293.102 289.465 293.59 287.121 294.379 284.889C295.17 282.656 296.278 280.542 297.611 278.59C298.944 276.635 300.526 274.857 302.284 273.275C303.165 272.486 304.093 271.747 305.068 271.072C306.024 270.424 306.929 269.769 307.797 269.036C309.532 267.588 311.113 265.947 312.441 264.11C313.114 263.199 313.713 262.232 314.252 261.232C314.779 260.23 315.262 259.178 315.586 258.104L315.59 258.09C315.623 257.982 315.736 257.922 315.843 257.954C315.941 257.984 316.001 258.081 315.985 258.18Z" fill="url(#paint7_linear_9359_23823)"/>
<path d="M299.448 306.24C299.476 306.14 299.458 306.05 299.448 305.956L299.418 305.679L299.37 305.122C299.343 304.751 299.323 304.379 299.311 304.007C299.289 303.263 299.296 302.517 299.34 301.773C299.431 300.286 299.654 298.793 300.144 297.366C300.628 295.949 301.418 294.57 302.644 293.616C303.255 293.147 303.957 292.793 304.697 292.584C305.436 292.369 306.205 292.288 306.965 292.297C309.947 292.418 312.888 292.767 315.828 293.01C317.291 293.117 318.773 293.199 320.18 292.898C320.529 292.819 320.871 292.716 321.201 292.582C321.527 292.44 321.845 292.278 322.138 292.075C322.73 291.675 323.237 291.152 323.682 290.579L323.683 290.578C323.745 290.499 323.858 290.485 323.937 290.546C324.015 290.607 324.029 290.718 323.971 290.797C323.522 291.401 322.999 291.967 322.371 292.411C322.06 292.637 321.72 292.82 321.371 292.98C321.018 293.133 320.653 293.252 320.282 293.343C318.785 293.679 317.271 293.603 315.792 293.512C314.308 293.414 312.838 293.25 311.365 293.124C309.898 292.997 308.413 292.879 306.956 292.818C306.238 292.803 305.519 292.874 304.834 293.066C304.148 293.254 303.503 293.573 302.936 293.999C301.793 294.855 301.013 296.138 300.521 297.5C300.022 298.87 299.774 300.33 299.658 301.794C299.601 302.528 299.58 303.264 299.589 304.001C299.594 304.369 299.607 304.737 299.627 305.105L299.665 305.656L299.689 305.931C299.698 306.022 299.701 306.116 299.752 306.199C299.801 306.278 299.776 306.381 299.698 306.43C299.619 306.479 299.515 306.455 299.467 306.376C299.441 306.335 299.436 306.287 299.448 306.244L299.448 306.24Z" fill="url(#paint8_linear_9359_23823)"/>
</g>
<defs>
<filter id="filter0_d_9359_23823" x="245.675" y="58.7266" width="55.167" height="30.5859" filterUnits="userSpaceOnUse" color-interpolation-filters="sRGB">
<feFlood flood-opacity="0" result="BackgroundImageFix"/>
<feColorMatrix in="SourceAlpha" type="matrix" values="0 0 0 0 0 0 0 0 0 0 0 0 0 0 0 0 0 0 127 0" result="hardAlpha"/>
<feOffset/>
<feGaussianBlur stdDeviation="6"/>
<feComposite in2="hardAlpha" operator="out"/>
<feColorMatrix type="matrix" values="0 0 0 0 0 0 0 0 0 0 0 0 0 0 0 0 0 0 0.08 0"/>
<feBlend mode="normal" in2="BackgroundImageFix" result="effect1_dropShadow_9359_23823"/>
<feBlend mode="normal" in="SourceGraphic" in2="effect1_dropShadow_9359_23823" result="shape"/>
</filter>
<linearGradient id="paint0_linear_9359_23823" x1="257.675" y1="74.0208" x2="264.823" y2="74.1222" gradientUnits="userSpaceOnUse">
<stop offset="0.345549" stop-color="#5246ED"/>
<stop offset="0.979226" stop-color="#A51FF7"/>
</linearGradient>
<linearGradient id="paint1_linear_9359_23823" x1="265.561" y1="74.0208" x2="270.372" y2="74.0668" gradientUnits="userSpaceOnUse">
<stop offset="0.345549" stop-color="#5246ED"/>
<stop offset="0.979226" stop-color="#A51FF7"/>
</linearGradient>
<linearGradient id="paint2_linear_9359_23823" x1="270.632" y1="74.0208" x2="276.271" y2="74.0839" gradientUnits="userSpaceOnUse">
<stop offset="0.345549" stop-color="#5246ED"/>
<stop offset="0.979226" stop-color="#A51FF7"/>
</linearGradient>
<linearGradient id="paint3_linear_9359_23823" x1="277.107" y1="74.0208" x2="282.056" y2="74.0694" gradientUnits="userSpaceOnUse">
<stop offset="0.345549" stop-color="#5246ED"/>
<stop offset="0.979226" stop-color="#A51FF7"/>
</linearGradient>
<linearGradient id="paint4_linear_9359_23823" x1="283.411" y1="74.0213" x2="289.03" y2="74.0839" gradientUnits="userSpaceOnUse">
<stop offset="0.345549" stop-color="#5246ED"/>
<stop offset="0.979226" stop-color="#A51FF7"/>
</linearGradient>
<linearGradient id="paint5_linear_9359_23823" x1="333.176" y1="217.368" x2="256.165" y2="293.317" gradientUnits="userSpaceOnUse">
<stop stop-color="#FF928E"/>
<stop offset="1" stop-color="#FEB3B1"/>
</linearGradient>
<linearGradient id="paint6_linear_9359_23823" x1="302.625" y1="235.306" x2="410.91" y2="174.82" gradientUnits="userSpaceOnUse">
<stop stop-color="#FE7062"/>
<stop offset="1" stop-color="#FF928E"/>
</linearGradient>
<linearGradient id="paint7_linear_9359_23823" x1="292.966" y1="281.695" x2="315.987" y2="281.695" gradientUnits="userSpaceOnUse">
<stop stop-color="#DAE3FE"/>
<stop offset="1" stop-color="#E9EFFD"/>
</linearGradient>
<linearGradient id="paint8_linear_9359_23823" x1="299.299" y1="298.482" x2="324.007" y2="298.482" gradientUnits="userSpaceOnUse">
<stop stop-color="#DAE3FE"/>
<stop offset="1" stop-color="#E9EFFD"/>
</linearGradient>
</defs>
</svg>
