<svg width="28" height="29" viewBox="0 0 28 29" fill="none" xmlns="http://www.w3.org/2000/svg">
<g id="apartment-svgrepo-com 1">
<g id="Group 18512">
<rect id="Rectangle 8005" x="17.6934" y="8.53906" width="10.3064" height="18.2205" rx="1" fill="#34CD8E"/>
<g id="Group">
<path id="Union" fill-rule="evenodd" clip-rule="evenodd" d="M19.7715 12.6492C19.7715 13.0243 20.1062 13.2744 20.6082 13.2744C21.1102 13.2744 21.4449 13.0243 21.4449 12.6492V11.3987C21.4449 11.0235 21.1102 10.7734 20.6082 10.7734C20.1062 10.7734 19.7715 11.0235 19.7715 11.3987V12.6492ZM19.7715 16.4006C19.7715 16.7758 20.1062 17.0258 20.6082 17.0258C21.1102 17.0258 21.4449 16.7758 21.4449 16.4006V15.1501C21.4449 14.775 21.1102 14.5249 20.6082 14.5249C20.1062 14.5249 19.7715 14.775 19.7715 15.1501V16.4006ZM19.7715 20.1521C19.7715 20.5272 20.1062 20.7773 20.6082 20.7773C21.1102 20.7773 21.4449 20.5272 21.4449 20.1521V18.9016C21.4449 18.5264 21.1102 18.2763 20.6082 18.2763C20.1062 18.2763 19.7715 18.5264 19.7715 18.9016V20.1521ZM19.7715 23.9035C19.7715 24.2787 20.1062 24.5287 20.6082 24.5287C21.1102 24.5287 21.4449 24.2787 21.4449 23.9035V22.653C21.4449 22.2779 21.1102 22.0278 20.6082 22.0278C20.1062 22.0278 19.7715 22.2779 19.7715 22.653V23.9035ZM24.2488 12.6492C24.2488 13.0243 24.5834 13.2744 25.0855 13.2744C25.5875 13.2744 25.9222 13.0243 25.9222 12.6492V11.3987C25.9222 11.0235 25.5875 10.7734 25.0855 10.7734C24.5834 10.7734 24.2488 11.0235 24.2488 11.3987V12.6492ZM24.2488 16.4006C24.2488 16.7758 24.5834 17.0258 25.0855 17.0258C25.5875 17.0258 25.9222 16.7758 25.9222 16.4006V15.1501C25.9222 14.775 25.5875 14.5249 25.0855 14.5249C24.5834 14.5249 24.2488 14.775 24.2488 15.1501V16.4006ZM24.2488 20.1521C24.2488 20.5272 24.5834 20.7773 25.0855 20.7773C25.5875 20.7773 25.9222 20.5272 25.9222 20.1521V18.9016C25.9222 18.5264 25.5875 18.2763 25.0855 18.2763C24.5834 18.2763 24.2488 18.5264 24.2488 18.9016V20.1521ZM24.2488 23.9035C24.2488 24.2787 24.5834 24.5287 25.0855 24.5287C25.5875 24.5287 25.9222 24.2787 25.9222 23.9035V22.653C25.9222 22.2779 25.5875 22.0278 25.0855 22.0278C24.5834 22.0278 24.2488 22.2779 24.2488 22.653V23.9035Z" fill="#E2ECF5"/>
</g>
</g>
</g>
</svg>
