<svg width="48" height="48" viewBox="0 0 48 48" fill="none" xmlns="http://www.w3.org/2000/svg">
<g id="Apple">
<path id="back" d="M0 24C0 10.7452 10.7452 0 24 0C37.2548 0 48 10.7452 48 24C48 37.2548 37.2548 48 24 48C10.7452 48 0 37.2548 0 24Z" fill="#BBD1EA" fill-opacity="0.3"/>
<path id="Shape" fill-rule="evenodd" clip-rule="evenodd" d="M29.2669 9.60156C29.5182 11.3082 28.8235 12.9801 27.9072 14.163C26.9268 15.4318 25.2369 16.4132 23.5996 16.362C23.3007 14.728 24.066 13.0445 24.9972 11.9129C26.0186 10.6639 27.7692 9.70565 29.2669 9.60156ZM34.1854 33.6232C35.0295 32.3296 35.3448 31.677 36 30.2165C31.2343 28.4042 30.4707 21.6289 35.1871 19.0285C33.7485 17.2244 31.727 16.1786 29.8187 16.1786C28.4437 16.1786 27.5016 16.5374 26.6452 16.8636C25.9315 17.1354 25.2772 17.3846 24.4815 17.3846C23.6216 17.3846 22.8601 17.1116 22.0628 16.8257C21.1866 16.5116 20.2672 16.1819 19.1262 16.1819C16.9848 16.1819 14.7054 17.4904 13.2602 19.7273C11.2288 22.8779 11.5753 28.8007 14.8696 33.8462C16.0471 35.652 17.6203 37.6807 19.678 37.6989C20.5318 37.7074 21.1 37.4526 21.7148 37.1768C22.4186 36.8612 23.1834 36.5181 24.5078 36.5111C25.8399 36.5031 26.5927 36.8503 27.2871 37.1706C27.8862 37.4469 28.4417 37.7031 29.2883 37.694C31.3476 37.6774 33.0079 35.4289 34.1854 33.6232Z" fill="#0B0B0A"/>
</g>
</svg>
