<svg width="30" height="30" viewBox="0 0 30 30" fill="none" xmlns="http://www.w3.org/2000/svg">
<g id="avatar">
<path id="Vector" d="M26.0109 3.90156C26.0297 4.15469 25.8422 4.37969 25.5891 4.40781C25.5375 4.4125 25.3875 4.42656 25.1813 4.42656C24.825 4.42656 24.2953 4.38438 23.7937 4.21094L23.9953 2.96406C24.1172 2.22344 23.9062 1.47344 23.4187 0.901562C23.3813 0.859375 23.3391 0.817187 23.2969 0.775C23.7422 0.8125 24.2812 0.94375 24.7687 1.30469C25.4953 1.83906 25.9125 2.71563 26.0063 3.90625L26.0109 3.90156ZM18.8812 2.89844C19.2984 2.84219 20.1703 2.64531 20.7141 1.91406C20.8641 1.71719 21.1406 1.66562 21.3469 1.80625C22.2047 2.37812 23.175 2.82344 23.5359 2.82344C23.6156 2.2375 23.4469 1.64687 23.0625 1.19687C22.6641 0.732812 22.0875 0.465625 21.4781 0.465625H20.9344C20.325 0.465625 19.7437 0.732812 19.35 1.19687C18.9516 1.66094 18.7828 2.275 18.8812 2.87969V2.89844ZM25.4672 16.6187C25.5656 17.5234 25.3219 19.0516 25.1531 19.7734C24.5391 22.4031 23.8125 27.8125 24.4547 28.75C24.5531 28.8953 24.5625 29.0781 24.4828 29.2328C24.4031 29.3875 24.2437 29.4813 24.0703 29.4813H19.5234C19.3406 29.4813 19.1766 29.3734 19.0969 29.2094C19.0219 29.0453 19.0453 28.8484 19.1672 28.7078C19.9406 27.8031 19.4672 21.8922 18.5906 19.1031C18.0984 17.5328 18.2203 15.6156 18.5672 14.4062C18.6422 14.1344 18.7313 13.9047 18.8109 13.6891C18.975 13.2391 19.0875 12.9438 19.0125 12.5688C18.9422 12.2219 18.8625 11.9125 18.7875 11.6453L17.1141 15.8078C16.9406 16.4312 16.3688 16.8625 15.7219 16.8625C15.4453 16.8625 15.1875 16.7781 14.9625 16.6375C14.7375 16.7781 14.475 16.8625 14.2031 16.8625C13.5422 16.8625 12.9656 16.4172 12.8016 15.7797L12.6703 15.3578L11.8922 19.0094L11.7328 27.1937L12.3891 28.8391C12.4453 28.9844 12.4266 29.1484 12.3422 29.275C12.2578 29.4016 12.1078 29.4813 11.9531 29.4813H5.61562C5.46094 29.4813 5.31562 29.4062 5.22656 29.275C5.1375 29.1437 5.12344 28.9844 5.17969 28.8391L5.83594 27.1937L5.67656 18.9625L5.42344 16.8484C5.38594 16.8484 5.34844 16.8578 5.31094 16.8578C4.51406 16.8578 3.86719 16.2109 3.86719 15.4141V8.91719C3.86719 7.21563 5.07187 5.79063 6.675 5.44844C6.37969 5.07344 6.20156 4.60938 6.20156 4.09375V2.41563C6.20156 1.3375 7.07812 0.460938 8.15625 0.460938H10.9266C11.1844 0.460938 11.3953 0.671875 11.3953 0.929688V4.09375C11.3953 4.60938 11.2125 5.07344 10.9172 5.45313C12.6281 5.74375 12.9516 6.64844 13.5234 8.26094L13.7016 8.75781L15.0375 13.2016L17.1984 7.60938C17.6062 6.55937 18.5063 5.78125 19.5656 5.49531C19.3594 5.22813 19.2141 4.90938 19.1531 4.55313L19.0359 3.81719C19.5469 3.74687 20.4656 3.52187 21.1828 2.8C21.7453 3.14687 22.6828 3.65312 23.4 3.7375L23.2687 4.55313C23.2078 4.92813 23.0531 5.26094 22.8281 5.53281C24.0891 5.94063 25.0594 7.04219 25.2375 8.41562L26.1375 15.3484C26.1375 15.3484 26.1375 15.3906 26.1375 15.4094C26.1375 15.9766 25.8938 16.3891 25.4672 16.6094V16.6187ZM10.7859 27.2687L10.95 18.9437C10.95 18.9156 10.95 18.8828 10.9594 18.8547L11.3813 16.8625H6.37031L6.61406 18.8969L6.77813 27.2687C6.77813 27.3297 6.76875 27.3953 6.74531 27.4516L6.30938 28.5438H8.31562V19.9141C8.31562 19.6562 8.52656 19.4453 8.78437 19.4453C9.04219 19.4453 9.25312 19.6562 9.25312 19.9141V28.5438H11.2594L10.8234 27.4516C10.8 27.3953 10.7906 27.3297 10.7906 27.2687H10.7859ZM14.6906 15.3109L12.8062 9.05313L12.6328 8.575C12 6.78906 11.8641 6.41875 10.1437 6.30625H7.41094C5.97188 6.30625 4.8 7.47813 4.8 8.91719V15.4141C4.8 15.6953 5.02969 15.9203 5.30625 15.9203C5.58281 15.9203 5.8125 15.6906 5.8125 15.4141V10.3141C5.8125 10.0563 6.02344 9.84531 6.28125 9.84531C6.53906 9.84531 6.75 10.0563 6.75 10.3141V15.9203H11.5734L12.075 13.5719C12.075 13.5719 12.0844 13.5531 12.0891 13.5391L11.0578 10.2438C10.9828 9.99531 11.1188 9.73281 11.3672 9.65781C11.6156 9.58281 11.8781 9.71875 11.9531 9.96719L13.6875 15.5172C13.7531 15.7656 13.9547 15.9203 14.1844 15.9203C14.3391 15.9203 14.4797 15.85 14.5781 15.7328C14.6766 15.6156 14.7141 15.4609 14.6812 15.3109H14.6906ZM24.5438 16.7687C23.9109 16.6609 23.6203 16.0234 23.4187 15.5781C23.3813 15.4984 23.2406 15.1844 23.2078 15.1H19.3594C19.1484 16.15 19.1063 17.6219 19.4813 18.8172C20.1375 20.9031 20.8875 26.2609 20.2453 28.5391H21.3937V19.9094C21.3937 19.6516 21.6047 19.4406 21.8625 19.4406C22.1203 19.4406 22.3312 19.6516 22.3312 19.9094V28.5391H23.3953C22.8422 25.9703 24.2156 19.6234 24.2344 19.5531C24.4828 18.4891 24.5766 17.2984 24.5438 16.7687ZM25.2 15.4422L24.3047 8.54219C24.1406 7.26719 23.0437 6.30625 21.7594 6.30625H20.4656C19.4109 6.30625 18.45 6.96719 18.0703 7.94687L15.4734 14.6641L15.6 15.0859C15.6609 15.3719 15.6328 15.6391 15.5484 15.8875C15.8719 16.2109 16.1109 15.7281 16.2234 15.4844C16.8328 14.1812 18.3703 10.1406 18.3703 10.1406C18.4406 9.96719 18.6047 9.85 18.7922 9.84531C18.975 9.82656 19.1531 9.94844 19.2281 10.1172C19.2469 10.1547 19.6406 11.0125 19.9172 12.3813C20.0438 13.0141 19.8656 13.5016 19.6781 14.0125C19.6594 14.0641 19.6406 14.1156 19.6219 14.1672H22.9031C22.7437 13.5578 22.6312 12.9203 22.5797 12.4984C22.5141 11.9359 22.6781 10.4828 22.6969 10.3188C22.725 10.0609 22.9641 9.87813 23.2172 9.90625C23.475 9.93437 23.6578 10.1687 23.6297 10.4266C23.5594 11.0031 23.4703 12.0437 23.5078 12.3859C23.5828 13.0094 23.7563 13.8438 23.9578 14.4531C23.9578 14.4531 24.4359 15.8266 24.675 15.8687C25.0125 15.925 25.2188 15.7188 25.1906 15.4469L25.2 15.4422Z" fill="url(#paint0_linear_12367_16032)"/>
</g>
<defs>
<linearGradient id="paint0_linear_12367_16032" x1="2.59219" y1="8.14375" x2="28.1438" y2="22.8953" gradientUnits="userSpaceOnUse">
<stop stop-color="#1EC4FF"/>
<stop offset="0.15" stop-color="#2CB8FF"/>
<stop offset="0.43" stop-color="#539BFF"/>
<stop offset="0.81" stop-color="#916DFF"/>
<stop offset="1" stop-color="#B255FF"/>
</linearGradient>
</defs>
</svg>
