<svg width="20" height="20" viewBox="0 0 20 20" fill="none" xmlns="http://www.w3.org/2000/svg">
<g id="block 1" clip-path="url(#clip0_5963_4102)">
<path id="Vector" d="M10 20C4.5 20 0 15.5 0 10C0 4.5 4.5 0 10 0C15.5 0 20 4.5 20 10C20 15.5 15.5 20 10 20ZM10 1.66667C5.41667 1.66667 1.66667 5.41667 1.66667 10C1.66667 14.5833 5.41667 18.3333 10 18.3333C14.5833 18.3333 18.3333 14.5833 18.3333 10C18.3333 5.41667 14.5833 1.66667 10 1.66667Z" fill="#D70000" fill-opacity="0.5"/>
<path id="Vector_2" d="M16.5003 17.3307C16.2503 17.3307 16.0837 17.2474 15.917 17.0807L2.91699 4.08073C2.58366 3.7474 2.58366 3.2474 2.91699 2.91406C3.25033 2.58073 3.75033 2.58073 4.08366 2.91406L17.0837 15.9141C17.417 16.2474 17.417 16.7474 17.0837 17.0807C16.917 17.2474 16.667 17.3307 16.5003 17.3307Z" fill="#D70000" fill-opacity="0.5"/>
</g>
<defs>
<clipPath id="clip0_5963_4102">
<rect width="20" height="20" fill="white"/>
</clipPath>
</defs>
</svg>
