<svg width="30" height="30" viewBox="0 0 30 30" fill="none" xmlns="http://www.w3.org/2000/svg">
<g id="blueprint" clip-path="url(#clip0_12367_16055)">
<path id="Vector" d="M7.57324 12.7412L7.59844 12.7266L7.57324 12.7412Z" fill="#011839"/>
<path id="Vector_2" d="M28.9746 7.23438H23.7211L25.2539 8.11328H28.9746C29.0135 8.11328 29.0507 8.12871 29.0782 8.15619C29.1057 8.18366 29.1211 8.22092 29.1211 8.25977V24.666C29.1211 24.7049 29.1057 24.7421 29.0782 24.7696C29.0507 24.7971 29.0135 24.8125 28.9746 24.8125H2.19727C1.93652 24.8125 1.68163 24.7352 1.46482 24.5903C1.24802 24.4455 1.07904 24.2396 0.97926 23.9987C0.879477 23.7578 0.853369 23.4927 0.904238 23.2369C0.955107 22.9812 1.08067 22.7463 1.26504 22.5619C1.44942 22.3775 1.68433 22.252 1.94007 22.2011C2.1958 22.1502 2.46088 22.1764 2.70178 22.2761C2.94268 22.3759 3.14858 22.5449 3.29344 22.7617C3.4383 22.9785 3.51562 23.2334 3.51562 23.4941C3.51562 23.6107 3.56192 23.7225 3.64434 23.8049C3.72675 23.8873 3.83853 23.9336 3.95508 23.9336C4.07163 23.9336 4.1834 23.8873 4.26582 23.8049C4.34823 23.7225 4.39453 23.6107 4.39453 23.4941V8.11328H8.20312L9.73535 7.23438H4.39453V6.50195C4.39453 5.9192 4.16303 5.36032 3.75097 4.94825C3.3389 4.53618 2.78002 4.30469 2.19727 4.30469C1.61451 4.30469 1.05563 4.53618 0.643564 4.94825C0.231497 5.36032 0 5.9192 0 6.50195L0 23.4941C0.000620406 24.0767 0.232317 24.6352 0.644249 25.0472C1.05618 25.4591 1.6147 25.6908 2.19727 25.6914H28.9746C29.2465 25.6911 29.5071 25.583 29.6993 25.3907C29.8916 25.1985 29.9997 24.9379 30 24.666V8.25977C29.9997 7.98791 29.8916 7.72728 29.6993 7.53505C29.5071 7.34282 29.2465 7.23469 28.9746 7.23438ZM0.878906 6.50195C0.878906 6.1523 1.0178 5.81697 1.26504 5.56973C1.51229 5.32249 1.84762 5.18359 2.19727 5.18359C2.54692 5.18359 2.88225 5.32249 3.12949 5.56973C3.37673 5.81697 3.51562 6.1523 3.51562 6.50195V21.7363C3.13559 21.4503 2.67288 21.2957 2.19727 21.2957C1.72165 21.2957 1.25894 21.4503 0.878906 21.7363V6.50195Z" fill="#011839"/>
<path id="Vector_3" d="M6.91406 22.9082C6.91406 23.0248 6.96036 23.1365 7.04278 23.219C7.12519 23.3014 7.23697 23.3477 7.35352 23.3477H26.1035C26.2201 23.3477 26.3318 23.3014 26.4143 23.219C26.4967 23.1365 26.543 23.0248 26.543 22.9082C26.543 22.7917 26.4967 22.6799 26.4143 22.5975C26.3318 22.5151 26.2201 22.4688 26.1035 22.4688H7.35352C7.23697 22.4688 7.12519 22.5151 7.04278 22.5975C6.96036 22.6799 6.91406 22.7917 6.91406 22.9082ZM6.91406 10.1207V12.107L16.51 6.60334C16.5764 6.56503 16.6518 6.54486 16.7285 6.54486C16.8052 6.54486 16.8806 6.56503 16.9471 6.60334L26.543 12.107V10.1207C26.5428 10.0434 26.5224 9.96753 26.4836 9.90068C26.4448 9.83382 26.3891 9.77835 26.3221 9.73986L16.9471 4.36271C16.8805 4.32469 16.8052 4.30469 16.7285 4.30469C16.6519 4.30469 16.5765 4.32469 16.51 4.36271L7.13496 9.73986C7.06786 9.77826 7.01209 9.8337 6.9733 9.90058C6.93451 9.96746 6.91407 10.0434 6.91406 10.1207Z" fill="#7738C8"/>
<path id="Vector_4" d="M8.47754 12.2248V21.591H13.6525V14.9992C13.6525 14.8827 13.6988 14.7709 13.7813 14.6885C13.8637 14.6061 13.9754 14.5598 14.092 14.5598H19.3654C19.482 14.5598 19.5938 14.6061 19.6762 14.6885C19.7586 14.7709 19.8049 14.8827 19.8049 14.9992V21.591H24.9805V12.2248L16.7299 7.49219L8.47754 12.2248Z" fill="#7738C8"/>
<path id="Vector_5" d="M14.5312 15.4375V21.5898H18.9258V15.4375H14.5312ZM18.6328 18.8066C18.6328 18.9232 18.5865 19.035 18.5041 19.1174C18.4217 19.1998 18.3099 19.2461 18.1934 19.2461C18.0768 19.2461 17.965 19.1998 17.8826 19.1174C17.8002 19.035 17.7539 18.9232 17.7539 18.8066V18.2207C17.7539 18.1042 17.8002 17.9924 17.8826 17.91C17.965 17.8275 18.0768 17.7812 18.1934 17.7812C18.3099 17.7812 18.4217 17.8275 18.5041 17.91C18.5865 17.9924 18.6328 18.1042 18.6328 18.2207V18.8066Z" fill="#7738C8"/>
</g>
<defs>
<clipPath id="clip0_12367_16055">
<rect width="30" height="30" fill="white"/>
</clipPath>
</defs>
</svg>
