<svg width="18" height="21" viewBox="0 0 18 21" fill="none" xmlns="http://www.w3.org/2000/svg">
<g id="book-blank">
<path id="Path" d="M3.75 15.8787H15.625C16.6605 15.8787 17.5 15.0392 17.5 14.0037V2.75366C17.5 1.71812 16.6602 0.878662 15.625 0.878662H3.75C1.67891 0.878662 0 2.55757 0 4.62866V17.1287C0 19.1998 1.67891 20.8787 3.75 20.8787H16.25C16.9402 20.8787 17.5 20.3189 17.5 19.6638C17.5 18.9373 16.9414 18.3787 16.25 18.3787H3.80469C3.15195 18.3787 2.56875 17.9013 2.50703 17.2513C2.43477 16.5076 3.01914 15.8787 3.75 15.8787Z" fill="#5246ED"/>
<path id="Path_2" opacity="0.4" d="M15.625 15.8786H3.75C3.05977 15.8786 2.5 16.4384 2.5 17.1286C2.5 17.8189 3.05977 18.3786 3.75 18.3786H16.25V15.7638C16.0195 15.8318 15.8438 15.8786 15.625 15.8786Z" fill="#5246ED"/>
</g>
</svg>
