<svg width="30" height="30" viewBox="0 0 30 30" fill="none" xmlns="http://www.w3.org/2000/svg">
<g id="bus">
<path id="Vector" d="M14.1832 4.28906H26.0637C26.5734 4.28906 27.0479 4.49996 27.3818 4.83388C27.7333 5.18537 27.9442 5.64231 27.9442 6.15198V19.1573C27.9442 19.6669 27.7333 20.1414 27.3818 20.4754C27.0479 20.8268 26.5734 21.0377 26.0637 21.0377H14.1832C13.656 21.0377 13.199 20.8268 12.8475 20.4754C12.5136 20.1414 12.3027 19.6669 12.3027 19.1573V6.15198C12.3027 5.64231 12.5136 5.1678 12.8475 4.83388C13.199 4.49996 13.656 4.28906 14.1832 4.28906ZM26.0637 4.99205H14.1832C13.8493 4.99205 13.5681 5.11507 13.3572 5.32597C13.1287 5.53687 13.0057 5.83564 13.0057 6.15198V19.1573C13.0057 19.4736 13.1287 19.7724 13.3572 19.9833C13.5681 20.1942 13.8493 20.3348 14.1832 20.3348H26.0637C26.3801 20.3348 26.6788 20.1942 26.8897 19.9833C27.1006 19.7724 27.2412 19.4736 27.2412 19.1573V6.15198C27.2412 5.83564 27.1006 5.53687 26.8897 5.32597C26.6788 5.11507 26.3801 4.99205 26.0637 4.99205Z" fill="#474748"/>
<path id="Vector_2" d="M14.8329 7.16958H25.3953V6.13268H14.8329V7.16958ZM25.571 7.87257H14.6571C14.5165 7.87257 14.3759 7.81985 14.2881 7.73197C14.1826 7.62652 14.1299 7.5035 14.1299 7.34533V5.95693C14.1299 5.83391 14.1826 5.71088 14.2529 5.60543C14.2705 5.60543 14.2705 5.58786 14.2881 5.58786C14.3759 5.48241 14.5165 5.42969 14.6571 5.42969H25.571C25.7292 5.42969 25.8522 5.48241 25.9401 5.58786H25.9576C26.0455 5.67573 26.0982 5.81633 26.0982 5.95693V7.34533C26.0982 7.5035 26.0455 7.62652 25.9576 7.73197C25.8522 7.81985 25.7116 7.87257 25.571 7.87257ZM15.7468 16.7829C16.151 16.7829 16.5025 16.9411 16.7661 17.2047C17.0297 17.4684 17.2055 17.8198 17.2055 18.2241C17.2055 18.6283 17.0297 18.9798 16.7661 19.2434C16.52 19.507 16.151 19.6652 15.7468 19.6652C15.3425 19.6652 14.991 19.507 14.7274 19.2434C14.4638 18.9798 14.3056 18.6283 14.3056 18.2241C14.3056 17.8198 14.4638 17.4684 14.7274 17.2047C14.7274 17.1872 14.745 17.1872 14.745 17.1872C15.0086 16.9411 15.3601 16.7829 15.7468 16.7829ZM16.274 17.6968C16.151 17.5562 15.9577 17.4859 15.7468 17.4859C15.5534 17.4859 15.3777 17.5562 15.2371 17.6792C15.2371 17.6968 15.2371 17.6968 15.2195 17.6968C15.0965 17.8374 15.0086 18.0132 15.0086 18.2241C15.0086 18.435 15.0965 18.6107 15.2195 18.7513C15.3601 18.8919 15.5359 18.9622 15.7468 18.9622C15.9577 18.9622 16.1334 18.8919 16.274 18.7513C16.4146 18.6107 16.5025 18.435 16.5025 18.2241C16.5025 18.0132 16.4146 17.8374 16.274 17.6968Z" fill="#474748"/>
<path id="Vector_3" d="M12.83 19.6464C13.0057 19.5937 13.199 19.6992 13.2518 19.8925C13.3045 20.0682 13.1815 20.2615 13.0057 20.3143V22.9856H27.2412V20.3143C27.0479 20.2615 26.9425 20.0682 26.9952 19.8749C27.0655 19.6992 27.2588 19.5937 27.4345 19.6464C27.5751 19.6816 27.7157 19.7695 27.8036 19.8925C27.8915 20.0155 27.9442 20.1561 27.9442 20.3143V23.0032C27.9442 23.1965 27.8563 23.3723 27.7333 23.4953C27.6103 23.6183 27.4345 23.6886 27.2412 23.6886H13.0057C12.8124 23.6886 12.6367 23.6183 12.5136 23.4953C12.373 23.3723 12.3027 23.1965 12.3027 23.0032V20.3143C12.3027 20.1561 12.3555 19.9979 12.4433 19.8925C12.5488 19.7695 12.6718 19.6816 12.83 19.6464Z" fill="#474748"/>
<path id="Vector_4" d="M14.8685 25.041C15.0443 25.1289 15.1146 25.3398 15.0267 25.5155C14.9388 25.6913 14.7279 25.7616 14.5522 25.6737C14.3237 25.5507 14.1479 25.3749 14.0073 25.164C13.8843 24.9531 13.7964 24.7071 13.7964 24.4435V23.3363C13.7964 23.143 13.9546 22.9848 14.1479 22.9848H16.4151C16.6084 22.9848 16.7666 23.143 16.7666 23.3363V24.4435C16.7666 24.7071 16.6963 24.9531 16.5733 25.164C16.4327 25.3749 16.2393 25.5507 16.0109 25.6737C15.8527 25.7616 15.6418 25.6913 15.5539 25.5155C15.466 25.3398 15.5363 25.1289 15.6945 25.041C15.8175 24.9883 15.9054 24.9004 15.9757 24.795C16.0284 24.6895 16.0636 24.5841 16.0636 24.4435V23.6878H14.4994V24.4435C14.4994 24.5841 14.5346 24.6895 14.6049 24.795C14.6752 24.9004 14.7631 24.9883 14.8685 25.041ZM24.5346 25.041C24.7103 25.1289 24.7806 25.3398 24.6928 25.5155C24.6049 25.6913 24.394 25.7616 24.2182 25.6737C23.9898 25.5507 23.7964 25.3749 23.6734 25.164C23.5328 24.9531 23.4625 24.7071 23.4625 24.4435V23.3363C23.4625 23.143 23.6207 22.9848 23.814 22.9848H26.0812C26.2745 22.9848 26.4327 23.143 26.4327 23.3363V24.4435C26.4327 24.7071 26.3624 24.9531 26.2218 25.164C26.0987 25.3749 25.9054 25.5507 25.6769 25.6737C25.5012 25.7616 25.2903 25.6913 25.2024 25.5155C25.1146 25.3398 25.1848 25.1289 25.3606 25.041C25.4836 24.9883 25.5715 24.9004 25.6418 24.795C25.6945 24.6895 25.7297 24.5841 25.7297 24.4435V23.6878H24.1655V24.4435C24.1655 24.5841 24.2007 24.6895 24.271 24.795C24.3237 24.9004 24.4291 24.9883 24.5346 25.041ZM24.5697 16.7809C24.9564 16.7809 25.3254 16.9391 25.5891 17.2027C25.8527 17.4663 26.0109 17.8178 26.0109 18.222C26.0109 18.6263 25.8527 18.9778 25.5891 19.2414C25.3254 19.505 24.9564 19.6632 24.5697 19.6632C24.1655 19.6632 23.7964 19.505 23.5328 19.2414C23.5328 19.2414 23.5328 19.2414 23.5153 19.2238C23.2692 18.9602 23.111 18.6087 23.111 18.222C23.111 17.8178 23.2868 17.4663 23.5328 17.2027C23.5504 17.1851 23.5504 17.1851 23.568 17.1851C23.814 16.9391 24.1831 16.7809 24.5697 16.7809ZM25.097 17.6948C24.9564 17.5542 24.7631 17.4839 24.5697 17.4839C24.3588 17.4839 24.1831 17.5542 24.0601 17.6772C24.0425 17.6948 24.0425 17.6948 24.0425 17.6948C23.9019 17.8354 23.814 18.0111 23.814 18.222C23.814 18.4154 23.9019 18.6087 24.0249 18.7317C24.0249 18.7493 24.0249 18.7493 24.0425 18.7493C24.1655 18.8899 24.3588 18.9602 24.5697 18.9602C24.7631 18.9602 24.9564 18.8899 25.097 18.7493C25.22 18.6087 25.3079 18.4329 25.3079 18.222C25.3079 18.0111 25.22 17.8354 25.097 17.6948ZM17.7332 18.0814C17.5399 18.0814 17.3817 17.9233 17.3817 17.73C17.3817 17.5366 17.5399 17.3785 17.7332 17.3785H22.4959C22.6892 17.3785 22.8474 17.5366 22.8474 17.73C22.8474 17.9233 22.6892 18.0814 22.4959 18.0814H17.7332ZM17.7332 19.0832C17.5399 19.0832 17.3817 18.925 17.3817 18.7317C17.3817 18.5384 17.5399 18.3802 17.7332 18.3802H22.4959C22.6892 18.3802 22.8474 18.5384 22.8474 18.7317C22.8474 18.925 22.6892 19.0832 22.4959 19.0832H17.7332ZM19.7543 14.4435C19.9124 14.5665 19.93 14.795 19.8246 14.9356C19.7015 15.0937 19.4907 15.1289 19.3325 15.0059C19.227 14.9356 19.1567 14.8477 19.0864 14.7423C19.0337 14.6368 18.9986 14.5138 18.9986 14.3908C18.9986 14.1271 19.1392 13.8811 19.3852 13.7229C19.5785 13.5999 19.8421 13.512 20.1233 13.512C20.4045 13.512 20.6682 13.5999 20.8615 13.7229C21.0899 13.8811 21.2481 14.1271 21.2481 14.3908C21.2481 14.5138 21.213 14.6368 21.1427 14.7423C21.0899 14.8477 21.0021 14.9356 20.9142 15.0059C20.756 15.1289 20.5276 15.0937 20.4221 14.9356C20.2991 14.795 20.3342 14.5665 20.4924 14.4435C20.51 14.4259 20.5276 14.4083 20.5451 14.3908C20.5451 14.3732 20.51 14.338 20.4748 14.3029C20.387 14.2502 20.2639 14.215 20.1233 14.215C19.9827 14.215 19.8421 14.2502 19.7718 14.3029C19.7191 14.338 19.7015 14.3732 19.7015 14.3908C19.7015 14.4083 19.7191 14.4259 19.7543 14.4435ZM3.12861 5.09375H9.08643C9.49065 5.09375 9.87729 5.2695 10.1409 5.53312C10.4221 5.81431 10.5979 6.18338 10.5979 6.60517V8.43294C10.5979 8.83716 10.4221 9.2238 10.1409 9.48742C10.1409 9.505 10.1409 9.505 10.1233 9.52257C9.85972 9.78619 9.49065 9.94436 9.08643 9.94436H3.12861C2.72439 9.94436 2.33775 9.76862 2.05655 9.48742C1.79293 9.2238 1.61719 8.83716 1.61719 8.43294V6.60517C1.61719 6.18338 1.79293 5.81431 2.05655 5.53312H2.07413C2.33775 5.2695 2.72439 5.09375 3.12861 5.09375ZM9.08643 5.79674H3.12861C2.91771 5.79674 2.70682 5.88461 2.56622 6.02521C2.40805 6.18338 2.32018 6.3767 2.32018 6.60517V8.43294C2.32018 8.64384 2.40805 8.85473 2.56622 8.99533C2.70682 9.1535 2.91771 9.24138 3.12861 9.24138H9.08643C9.29733 9.24138 9.49065 9.1535 9.63125 9.01291C9.64882 9.01291 9.64882 8.99533 9.64882 8.99533C9.80699 8.85473 9.89487 8.64384 9.89487 8.43294V6.60517C9.89487 6.3767 9.80699 6.18338 9.64882 6.04278V6.02521C9.50822 5.88461 9.29733 5.79674 9.08643 5.79674Z" fill="#474748"/>
<path id="Vector_5" d="M4.88529 9.59368C4.88529 9.40036 5.04346 9.24219 5.23678 9.24219C5.4301 9.24219 5.58827 9.40036 5.58827 9.59368V21.0172C5.58827 21.2106 5.4301 21.3687 5.23678 21.3687C5.04346 21.3687 4.88529 21.2106 4.88529 21.0172V9.59368ZM7.32817 21.0172C7.32817 21.2106 7.17 21.3687 6.97667 21.3687C6.78335 21.3687 6.62518 21.2106 6.62518 21.0172V9.59368C6.62518 9.40036 6.78335 9.24219 6.97667 9.24219C7.17 9.24219 7.32817 9.40036 7.32817 9.59368V21.0172ZM4.30532 22.1947H7.90813C8.40022 22.1947 8.83959 22.3881 9.15594 22.7044C9.47228 23.0207 9.6656 23.4601 9.6656 23.9522V25.3582C9.6656 25.5515 9.50743 25.7097 9.31411 25.7097H2.89935C2.70602 25.7097 2.54785 25.5515 2.54785 25.3582V23.9522C2.54785 23.4601 2.74117 23.0207 3.05752 22.7044C3.37386 22.3881 3.81323 22.1947 4.30532 22.1947ZM7.90813 22.8977H4.30532C4.00655 22.8977 3.74293 23.0207 3.54961 23.1965C3.35629 23.3898 3.25084 23.6534 3.25084 23.9522V25.0067H8.96261V23.9522C8.96261 23.6534 8.85717 23.3898 8.66384 23.1965C8.47052 23.0207 8.2069 22.8977 7.90813 22.8977Z" fill="#474748"/>
<path id="Vector_6" d="M4.55185 22.5504C4.55185 22.7437 4.39367 22.9019 4.20035 22.9019C4.00703 22.9019 3.84886 22.7437 3.84886 22.5504C3.84886 21.9704 4.0949 21.4607 4.5167 21.0741C4.92091 20.705 5.46573 20.4766 6.06327 20.4766H6.15114C6.74868 20.4766 7.2935 20.705 7.69772 21.0741C8.10193 21.4607 8.36555 21.9704 8.36555 22.5504C8.36555 22.7437 8.20738 22.9019 8.01406 22.9019C7.82074 22.9019 7.66257 22.7437 7.66257 22.5504C7.66257 22.1813 7.50439 21.8474 7.2232 21.6013C6.95958 21.3377 6.57294 21.1796 6.15114 21.1796H6.06327C5.64148 21.1796 5.25483 21.3377 4.99121 21.6013C4.71002 21.8474 4.55185 22.1813 4.55185 22.5504ZM0.351494 25.7138C0.158172 25.7138 0 25.5556 0 25.3623C0 25.169 0.158172 25.0108 0.351494 25.0108H28.1722C28.3656 25.0108 28.5237 25.169 28.5237 25.3623C28.5237 25.5556 28.3656 25.7138 28.1722 25.7138H0.351494Z" fill="#474748"/>
<path id="Vector_7" d="M3.497 6.07812H4.02424C4.27029 6.07812 4.48118 6.166 4.65693 6.32417C4.65693 6.34175 4.65693 6.34175 4.67451 6.35932C4.8151 6.51749 4.90298 6.72839 4.90298 6.95686V6.99201C4.90298 7.22048 4.8151 7.44895 4.63936 7.60712H4.65693C4.48118 7.7653 4.27029 7.87074 4.02424 7.87074H3.497C3.30368 7.87074 3.14551 7.71257 3.14551 7.51925V6.42962C3.14551 6.2363 3.30368 6.07812 3.497 6.07812ZM4.02424 6.78111H3.8485V7.16776H4.02424C4.07697 7.16776 4.11212 7.15018 4.14727 7.11503C4.18241 7.07988 4.19999 7.04473 4.19999 6.99201V6.95686C4.19999 6.90414 4.18241 6.86899 4.16484 6.83384H4.14727C4.11212 6.79869 4.07697 6.78111 4.02424 6.78111Z" fill="#5246ED"/>
<path id="Vector_8" d="M3.8485 8.25739H4.02424C4.07697 8.25739 4.11212 8.23981 4.14727 8.20466L4.16484 8.18709C4.18241 8.16951 4.19999 8.11679 4.19999 8.08164V8.04649C4.19999 7.99377 4.18241 7.95862 4.14727 7.92347C4.11212 7.88832 4.07697 7.87074 4.02424 7.87074H3.8485V8.25739ZM4.02424 8.96037H3.497C3.30368 8.96037 3.14551 8.8022 3.14551 8.60888V7.51925C3.14551 7.32593 3.30368 7.16776 3.497 7.16776H4.02424C4.27029 7.16776 4.48118 7.25563 4.65693 7.43138C4.8151 7.58955 4.90298 7.80044 4.90298 8.04649V8.08164C4.90298 8.31011 4.8151 8.52101 4.67451 8.67918C4.65693 8.67918 4.65693 8.69675 4.65693 8.69675C4.48118 8.85493 4.27029 8.96037 4.02424 8.96037ZM6.25623 6.42962C6.25623 6.2363 6.4144 6.07812 6.60772 6.07812C6.80104 6.07812 6.95922 6.2363 6.95922 6.42962V8.08164C6.95922 8.32769 6.87134 8.53858 6.71317 8.69675C6.555 8.85493 6.32653 8.96037 6.09806 8.96037C5.85201 8.96037 5.62354 8.85493 5.46537 8.69675C5.46537 8.69675 5.44779 8.69675 5.44779 8.67918C5.30719 8.52101 5.21932 8.31011 5.21932 8.08164V6.42962C5.21932 6.2363 5.37749 6.07812 5.57082 6.07812C5.76414 6.07812 5.92231 6.2363 5.92231 6.42962V8.08164C5.92231 8.13436 5.93988 8.16951 5.95746 8.20466H5.97503C5.99261 8.23981 6.04533 8.25739 6.09806 8.25739C6.13321 8.25739 6.18593 8.23981 6.2035 8.20466C6.23865 8.16951 6.25623 8.13436 6.25623 8.08164V6.42962ZM9.06818 6.97443C9.06818 7.16776 8.91001 7.32593 8.71669 7.32593H8.69911C8.91001 7.43138 9.06818 7.64227 9.06818 8.06406C9.06818 8.31011 8.96273 8.53858 8.80456 8.69675C8.64639 8.85493 8.41792 8.96037 8.17187 8.96037C7.92582 8.96037 7.69735 8.85493 7.53918 8.69675C7.52161 8.69675 7.52161 8.67918 7.50403 8.67918C7.36343 8.52101 7.27556 8.29254 7.27556 8.06406C7.27556 7.87074 7.43373 7.71257 7.62705 7.71257H7.64463C7.43373 7.58955 7.27556 7.39623 7.27556 6.97443C7.27556 6.72839 7.38101 6.49992 7.53918 6.34175C7.69735 6.166 7.92582 6.07812 8.17187 6.07812C8.41792 6.07812 8.64639 6.166 8.80456 6.34175C8.96273 6.49992 9.06818 6.72839 9.06818 6.97443ZM8.48821 7.23805C8.41792 7.16776 8.36519 7.07988 8.36519 6.97443C8.36519 6.92171 8.34762 6.86899 8.31247 6.83384C8.27732 6.79869 8.22459 6.78111 8.17187 6.78111C8.11915 6.78111 8.06642 6.79869 8.03127 6.83384C7.99612 6.86899 7.97855 6.92171 7.97855 6.97443C7.97855 7.11503 8.11915 7.15018 8.25974 7.16776C8.33004 7.18533 8.41792 7.22048 8.48821 7.23805ZM8.084 7.85317C8.0137 7.83559 7.92582 7.81802 7.85553 7.80044C7.92582 7.85317 7.97855 7.95862 7.97855 8.06406C7.97855 8.11679 7.99612 8.15194 8.0137 8.18709L8.03127 8.20466C8.06642 8.23981 8.11915 8.25739 8.17187 8.25739C8.22459 8.25739 8.27732 8.23981 8.31247 8.20466C8.34762 8.16951 8.36519 8.11679 8.36519 8.06406C8.36519 7.92347 8.22459 7.88832 8.084 7.85317Z" fill="#5246ED"/>
<path id="Vector_9" d="M27.5923 9.61719H28.6116C28.9983 9.61719 29.3322 9.77536 29.5958 10.0214C29.8419 10.2675 30 10.6189 30 11.0056V12.271C30 12.6576 29.8419 12.9915 29.5958 13.2551C29.3322 13.5012 28.9983 13.6594 28.6116 13.6594H27.5923C27.3814 13.6594 27.2408 13.5012 27.2408 13.3079V9.96868C27.2408 9.77536 27.3814 9.61719 27.5923 9.61719ZM28.6116 10.3202H27.9438V12.9564H28.6116C28.805 12.9564 28.9631 12.8685 29.0862 12.7455C29.2092 12.6225 29.2971 12.4643 29.2971 12.271V11.0056C29.2971 10.8123 29.2092 10.6541 29.0862 10.5311C28.9631 10.408 28.805 10.3202 28.6116 10.3202ZM12.3023 10.3202H11.5993C11.4236 10.3202 11.2478 10.408 11.1072 10.5311C11.1072 10.5311 11.1072 10.5311 11.1072 10.5486C10.9842 10.6717 10.9139 10.8298 10.9139 11.0232V12.2534C10.9139 12.4467 10.9842 12.6225 11.1072 12.7455C11.2478 12.8685 11.406 12.9564 11.5993 12.9564H12.3023V10.3202ZM11.5993 9.61719H12.6538C12.8471 9.61719 13.0053 9.77536 13.0053 9.96868V13.3079C13.0053 13.5012 12.8471 13.6594 12.6538 13.6594H11.5993C11.2303 13.6594 10.8788 13.5012 10.6152 13.2376C10.3691 12.9915 10.2109 12.64 10.2109 12.2534V11.0232C10.2109 10.6541 10.3515 10.3026 10.5976 10.0566C10.5976 10.039 10.6152 10.039 10.6152 10.039C10.8788 9.77536 11.2303 9.61719 11.5993 9.61719ZM17.399 22.2885C17.2057 22.2885 17.0475 22.1304 17.0475 21.937C17.0475 21.7437 17.2057 21.5856 17.399 21.5856H22.8471C23.0405 21.5856 23.1986 21.7437 23.1986 21.937C23.1986 22.1304 23.0405 22.2885 22.8471 22.2885H17.399Z" fill="#474748"/>
<path id="Vector_10" d="M15.1141 8.1875H25.1141C25.3953 8.1875 25.6413 8.31052 25.8171 8.48627C25.9928 8.66202 26.0982 8.90806 26.0982 9.17168V14.0926C26.0982 14.3738 25.9928 14.6198 25.8171 14.7956C25.6413 14.9713 25.3953 15.0768 25.1141 15.0768H15.1141C14.8504 15.0768 14.6044 14.9713 14.4111 14.7956C14.4111 14.7956 14.4111 14.778 14.3935 14.778C14.2353 14.6023 14.1299 14.3562 14.1299 14.0926V9.17168C14.1299 8.90806 14.2353 8.66202 14.4287 8.48627H14.4111C14.6044 8.31052 14.8504 8.1875 15.1141 8.1875ZM25.1141 8.89049H15.1141C15.0438 8.89049 14.9735 8.92564 14.9207 8.97836C14.868 9.03109 14.8329 9.10138 14.8329 9.17168V14.0926C14.8329 14.1629 14.868 14.2332 14.9032 14.2859L14.9207 14.3035C14.9735 14.3562 15.0438 14.3738 15.1141 14.3738H25.1141C25.2019 14.3738 25.2722 14.3562 25.325 14.3035C25.3777 14.2508 25.3953 14.1805 25.3953 14.0926V9.17168C25.3953 9.10138 25.3777 9.03109 25.325 8.97836C25.2722 8.92564 25.2019 8.89049 25.1141 8.89049ZM18.0139 16.4828H22.2142C22.39 16.4828 22.5482 16.5531 22.6712 16.6761C22.7766 16.7815 22.8469 16.9397 22.8469 17.1154V19.3299C22.8469 19.5056 22.7766 19.6638 22.6712 19.7692C22.5482 19.8922 22.39 19.9625 22.2142 19.9625H18.0139C17.8381 19.9625 17.68 19.8922 17.5745 19.7692C17.4515 19.6638 17.3812 19.5056 17.3812 19.3299V17.1154C17.3812 16.9573 17.4515 16.7991 17.5745 16.6761C17.68 16.5531 17.8381 16.4828 18.0139 16.4828ZM22.1439 17.1857H18.0842V19.2596H22.1439V17.1857Z" fill="#5246ED"/>
</g>
</svg>
