<svg width="30" height="30" viewBox="0 0 30 30" fill="none" xmlns="http://www.w3.org/2000/svg">
<g id="business-meeting">
<path id="Vector" d="M1.65234 13.8047C1.65234 15.1172 2.71875 16.1836 4.03125 16.1836C5.34375 16.1836 6.41016 15.1172 6.41016 13.8047C6.41016 12.4922 5.34375 11.4258 4.03125 11.4258C2.71875 11.4258 1.65234 12.498 1.65234 13.8047ZM3.99023 24.293H7.3418C8.02148 24.293 8.57227 24.8438 8.57227 25.5234V28.3535C8.57227 28.6113 8.7832 28.8223 9.04102 28.8223H11.4258C11.6836 28.8223 11.8945 28.6113 11.8945 28.3535V25.5234C11.8945 23.0156 9.84961 20.9707 7.3418 20.9707H6.88477V19.0137C6.88477 17.4609 5.625 16.2012 4.07227 16.2012H3.99023C2.4375 16.2012 1.17773 17.4609 1.17773 19.0137V21.4805C1.17773 23.0332 2.4375 24.293 3.99023 24.293ZM26.209 16.1836C27.5215 16.1836 28.5879 15.1172 28.5879 13.8047C28.5879 12.4922 27.5215 11.4258 26.209 11.4258C24.8965 11.4258 23.8301 12.4922 23.8301 13.8047C23.8301 15.1172 24.8965 16.1836 26.209 16.1836ZM26.25 16.2012H26.168C24.6152 16.2012 23.3555 17.4609 23.3555 19.0137V20.9707H22.8984C20.3906 20.9707 18.3457 23.0156 18.3457 25.5234V28.3535C18.3457 28.6113 18.5566 28.8223 18.8145 28.8223H21.1992C21.457 28.8223 21.668 28.6113 21.668 28.3535V25.5234C21.668 24.8438 22.2187 24.293 22.8984 24.293H26.168C26.1973 24.293 26.2207 24.293 26.25 24.2871V24.293C27.8027 24.293 29.0625 23.0332 29.0625 21.4805V19.0137C29.0625 17.4609 27.8027 16.2012 26.25 16.2012ZM21.668 19.5293V17.1445C21.668 16.8867 21.457 16.6758 21.1992 16.6758H8.80078C8.54297 16.6758 8.33203 16.8867 8.33203 17.1445V19.5293C8.33203 19.7871 8.54297 19.998 8.80078 19.998H13.1016V28.5938C13.1016 28.8516 13.3125 29.0625 13.5703 29.0625H16.4297C16.6875 29.0625 16.8984 28.8516 16.8984 28.5938V19.998H21.1992C21.457 19.998 21.668 19.7871 21.668 19.5293ZM21.1992 10.7812C21.0527 10.6992 20.877 10.7051 20.7363 10.7871C20.0098 11.209 19.1836 11.4316 18.3398 11.4316C15.7031 11.4316 13.5645 9.28711 13.5645 6.65625C13.5645 4.02539 15.7031 1.875 18.3398 1.875C20.9766 1.875 23.1152 4.01953 23.1152 6.65039C23.1152 7.91016 22.6289 9.09961 21.75 9.99609C21.6094 10.1367 21.5742 10.3535 21.668 10.5352L22.0137 11.2266L21.1992 10.7812ZM12.6211 6.65039C12.6211 8.0625 13.1367 9.35156 13.9863 10.3477C13.2598 11.0918 12.2754 11.5078 11.2266 11.5078C10.541 11.5078 9.87305 11.3262 9.28711 10.9863C9.14648 10.9043 8.9707 10.8984 8.82422 10.9805L8.38477 11.2266L8.55469 10.8867C8.64258 10.7051 8.60742 10.4941 8.47266 10.3477C7.75781 9.62109 7.36523 8.66016 7.36523 7.64062C7.36523 5.50781 9.09961 3.77344 11.2324 3.77344C11.9121 3.77344 12.5625 3.94922 13.1426 4.27734C12.8086 5.00977 12.6211 5.8125 12.6211 6.65039Z" fill="url(#paint0_linear_12364_16028)"/>
</g>
<defs>
<linearGradient id="paint0_linear_12364_16028" x1="5.54519" y1="27.0128" x2="25.4988" y2="7.05908" gradientUnits="userSpaceOnUse">
<stop stop-color="#FF00FF"/>
<stop offset="1" stop-color="#29ABE2"/>
</linearGradient>
</defs>
</svg>
