<svg width="20" height="22" viewBox="0 0 20 22" fill="none" xmlns="http://www.w3.org/2000/svg">
<path id="Vector" d="M6.92308 12.0323C6.49825 12.0323 6.15385 12.369 6.15385 12.7843C6.15385 13.1996 6.49825 13.5363 6.92308 13.5363V12.0323ZM13.0769 13.5363C13.5017 13.5363 13.8462 13.1996 13.8462 12.7843C13.8462 12.369 13.5017 12.0323 13.0769 12.0323V13.5363ZM12.3077 3.76008C12.3077 4.17541 12.6521 4.5121 13.0769 4.5121C13.5017 4.5121 13.8462 4.17541 13.8462 3.76008H12.3077ZM13.8462 0.752017C13.8462 0.336693 13.5017 0 13.0769 0C12.6521 0 12.3077 0.336693 12.3077 0.752017H13.8462ZM6.15385 3.76008C6.15385 4.17541 6.49825 4.5121 6.92308 4.5121C7.34791 4.5121 7.69231 4.17541 7.69231 3.76008H6.15385ZM7.69231 0.752017C7.69231 0.336693 7.34791 0 6.92308 0C6.49825 0 6.15385 0.336693 6.15385 0.752017H7.69231ZM10 20.0538C8.0599 20.0538 6.66666 20.0528 5.58773 19.9385C4.52321 19.8257 3.85633 19.61 3.33529 19.2399L2.43101 20.4567C3.25801 21.0441 4.22661 21.3071 5.42203 21.4338C6.60306 21.5588 8.09415 21.5578 10 21.5578V20.0538ZM2.78781e-07 11.7816C2.78781e-07 13.6448 -0.00105619 15.1025 0.126903 16.2571C0.256421 17.4258 0.525457 18.3727 1.12631 19.1812L2.37095 18.2972C1.9924 17.7878 1.77174 17.1359 1.65641 16.0952C1.53952 15.0403 1.53846 13.6783 1.53846 11.7816H2.78781e-07ZM3.33529 19.2399C2.96524 18.9771 2.63982 18.6589 2.37095 18.2972L1.12631 19.1812C1.49006 19.6707 1.93035 20.1011 2.43101 20.4567L3.33529 19.2399ZM17.629 18.2972C17.3602 18.6589 17.0348 18.9771 16.6647 19.2399L17.569 20.4567C18.0696 20.1011 18.51 19.6707 18.8736 19.1812L17.629 18.2972ZM16.6647 4.32327C17.0348 4.58612 17.3602 4.90426 17.629 5.26603L18.8736 4.38198C18.51 3.89253 18.0696 3.46209 17.569 3.10648L16.6647 4.32327ZM2.43101 3.10648C1.93035 3.46209 1.49006 3.89253 1.12631 4.38198L2.37095 5.26603C2.63982 4.90426 2.96524 4.58612 3.33529 4.32327L2.43101 3.10648ZM17.2826 14.1086C14.7591 14.4994 12.78 16.4342 12.3803 18.9012L13.8998 19.1365C14.1953 17.313 15.6581 15.883 17.5233 15.5941L17.2826 14.1086ZM6.92308 13.5363H13.0769V12.0323H6.92308V13.5363ZM19.2011 14.0376C18.2962 14.0376 17.7517 14.036 17.2826 14.1086L17.5233 15.5941C17.8431 15.5446 18.2398 15.5417 19.2011 15.5417V14.0376ZM18.4615 11.7816C18.4615 12.9579 18.4614 13.933 18.4323 14.7639L19.9698 14.8154C20.0001 13.9532 20 12.9495 20 11.7816H18.4615ZM18.4323 14.7639C18.3672 16.6238 18.1548 17.5897 17.629 18.2972L18.8736 19.1812C19.6961 18.0746 19.904 16.6939 19.9698 14.8154L18.4323 14.7639ZM13.8462 20.7768C13.8462 19.837 13.8491 19.4492 13.8998 19.1365L12.3803 18.9012C12.3061 19.3598 12.3077 19.8921 12.3077 20.7768H13.8462ZM10 21.5578C11.1947 21.5578 12.2213 21.5579 13.1033 21.5283L13.0506 20.0252C12.2006 20.0537 11.2032 20.0538 10 20.0538V21.5578ZM13.1033 21.5283C15.0247 21.464 16.437 21.2607 17.569 20.4567L16.6647 19.2399C15.941 19.7539 14.953 19.9615 13.0506 20.0252L13.1033 21.5283ZM1.53846 11.7816C1.53846 10.6053 1.53855 9.63023 1.56768 8.7993L0.0301234 8.74778C-9.19574e-05 9.60997 2.78781e-07 10.6137 2.78781e-07 11.7816H1.53846ZM1.56768 8.7993C1.63286 6.93936 1.8452 5.97348 2.37095 5.26603L1.12631 4.38198C0.303898 5.48862 0.0959491 6.86929 0.0301234 8.74778L1.56768 8.7993ZM0.798903 9.52555H19.2011V8.02151H0.798903V9.52555ZM20 11.7816C20 10.6137 20.0001 9.60997 19.9698 8.74778L18.4323 8.7993C18.4614 9.63023 18.4615 10.6053 18.4615 11.7816H20ZM19.9698 8.74778C19.904 6.86929 19.6961 5.48862 18.8736 4.38198L17.629 5.26603C18.1548 5.97348 18.3672 6.93936 18.4323 8.7993L19.9698 8.74778ZM13.8462 3.76008V2.7864H12.3077V3.76008H13.8462ZM13.8462 2.7864V0.752017H12.3077V2.7864H13.8462ZM10 3.50941C11.2032 3.50941 12.2006 3.5095 13.0506 3.53798L13.1033 2.03483C12.2213 2.00529 11.1947 2.00538 10 2.00538V3.50941ZM13.0506 3.53798C14.953 3.6017 15.941 3.80929 16.6647 4.32327L17.569 3.10648C16.437 2.30247 15.0247 2.09919 13.1033 2.03483L13.0506 3.53798ZM7.69231 3.76008V2.7864H6.15385V3.76008H7.69231ZM7.69231 2.7864V0.752017H6.15385V2.7864H7.69231ZM10 2.00538C8.80533 2.00538 7.77871 2.00529 6.89674 2.03483L6.94942 3.53798C7.79944 3.5095 8.79682 3.50941 10 3.50941V2.00538ZM6.89674 2.03483C4.97525 2.09919 3.56297 2.30247 2.43101 3.10648L3.33529 4.32327C4.05893 3.80929 5.04692 3.6017 6.94942 3.53798L6.89674 2.03483Z" fill="#5246ED"/>
</svg>
