<svg width="98" height="244" viewBox="0 0 98 244" fill="none" xmlns="http://www.w3.org/2000/svg">
<g id="Character_1_">
<g id="Group">
<path id="Vector" d="M22.8859 228.898L22.6873 230.673C22.6873 230.673 17.9943 241.672 18.8683 242.503C19.7422 243.334 21.2883 244.065 23.3626 243.204C25.437 242.344 33.2446 232.351 33.2446 232.351L33.5582 230.892L22.8859 228.898Z" fill="#E8505B"/>
<path id="Vector_2" d="M19.1826 240.179C19.1826 240.179 21.6766 238.572 23.7646 241.788C23.7646 241.788 24.8572 241.174 27.6447 237.979C30.4322 234.784 33.1199 231.668 33.1199 231.668C33.1199 231.668 33.4102 231.352 33.3523 231.631C33.2944 231.91 33.2349 232.395 33.2349 232.395L27.8947 238.839C27.8947 238.839 24.6836 242.605 23.7919 243.007C22.9003 243.409 22.0103 243.869 20.7423 243.527C19.4744 243.184 18.7613 242.436 18.7364 242.276C18.7106 242.116 19.1826 240.179 19.1826 240.179Z" fill="#F0F0F0"/>
<g id="Group_2">
<path id="Vector_3" d="M24.3014 242.865C24.2379 242.917 23.7659 241.455 22.2568 240.551C20.7493 239.643 19.237 239.915 19.2531 239.834C19.2474 239.806 19.5988 239.696 20.1897 239.703C20.775 239.708 21.6056 239.867 22.3863 240.335C23.1669 240.804 23.6976 241.462 23.9766 241.976C24.2604 242.494 24.3279 242.857 24.3014 242.865Z" fill="#263238"/>
</g>
<g id="Group_3">
<path id="Vector_4" d="M33.5657 231.149C33.5786 231.16 33.4066 231.384 33.0825 231.778C32.6934 232.242 32.2311 232.793 31.694 233.434C30.4309 234.9 28.8213 236.767 27.0413 238.833C26.1247 239.876 25.2757 240.909 24.3141 241.673C23.3622 242.441 22.2784 242.874 21.3393 242.887C20.3946 242.907 19.6766 242.542 19.2827 242.214C18.8815 241.879 18.7705 241.603 18.7705 241.603C18.7906 241.586 18.9377 241.838 19.3422 242.137C19.7393 242.431 20.438 242.751 21.3329 242.71C22.2245 242.675 23.2528 242.248 24.1694 241.494C25.0932 240.744 25.9366 239.712 26.8539 238.667C28.6549 236.621 30.283 234.771 31.5606 233.318C32.121 232.698 32.6034 232.164 33.0094 231.716C33.3551 231.339 33.5529 231.138 33.5657 231.149Z" fill="#263238"/>
</g>
<g id="Group_4">
<path id="Vector_5" d="M24.4362 236.924C24.4 236.985 23.8509 236.72 23.1699 236.414C22.4889 236.107 21.9269 235.873 21.9478 235.805C21.9671 235.741 22.5766 235.871 23.2728 236.185C23.9691 236.498 24.4716 236.866 24.4362 236.924Z" fill="#263238"/>
</g>
<g id="Group_5">
<path id="Vector_6" d="M25.5363 235.274C25.5114 235.34 24.8505 235.15 24.0336 234.937C23.2176 234.72 22.5494 234.558 22.5607 234.488C22.5703 234.421 23.2682 234.474 24.0979 234.694C24.9277 234.912 25.5604 235.211 25.5363 235.274Z" fill="#263238"/>
</g>
<g id="Group_6">
<path id="Vector_7" d="M26.5701 233.833C26.5291 233.895 25.8891 233.504 25.0184 233.237C24.1501 232.962 23.4008 232.922 23.4024 232.847C23.3967 232.784 24.1814 232.71 25.0932 232.998C26.0065 233.278 26.6111 233.784 26.5701 233.833Z" fill="#263238"/>
</g>
<g id="Group_7">
<path id="Vector_8" d="M27.0568 232.248C27.0206 232.312 26.4369 232.026 25.6731 231.823C24.9109 231.613 24.2629 231.566 24.2637 231.492C24.2597 231.427 24.9382 231.361 25.739 231.58C26.5398 231.795 27.093 232.194 27.0568 232.248Z" fill="#455A64"/>
</g>
<g id="Group_8">
<path id="Vector_9" d="M26.522 230.899C26.51 230.927 26.1651 230.822 25.6674 230.523C25.419 230.373 25.1367 230.173 24.8489 229.917C24.7058 229.79 24.5611 229.648 24.4196 229.494C24.3512 229.418 24.2716 229.337 24.2105 229.221C24.1462 229.111 24.1213 228.926 24.2154 228.789C24.4188 228.53 24.7106 228.543 24.9285 228.588C25.1488 228.639 25.3426 228.743 25.5026 228.865C25.825 229.113 26.0115 229.436 26.1176 229.709C26.321 230.266 26.3001 230.632 26.2752 230.634C26.2326 230.643 26.186 230.282 25.9544 229.78C25.8354 229.533 25.6513 229.256 25.3643 229.051C25.1086 228.853 24.6182 228.697 24.4252 228.925C24.3512 229.018 24.4606 229.181 24.6021 229.33C24.7356 229.481 24.8706 229.62 25.0049 229.748C25.2734 230.003 25.5355 230.212 25.7647 230.376C26.2238 230.702 26.5389 230.864 26.522 230.899Z" fill="#455A64"/>
</g>
<g id="Group_9">
<path id="Vector_10" d="M26.361 230.742C26.3352 230.741 26.3465 230.354 26.6512 229.829C26.8064 229.572 27.0363 229.286 27.3611 229.047C27.5243 228.928 27.7036 228.822 27.9135 228.735C28.0228 228.695 28.1426 228.662 28.2817 228.674C28.4208 228.681 28.584 228.781 28.6403 228.933C28.7368 229.243 28.5784 229.472 28.4755 229.652C28.3573 229.839 28.2166 230.001 28.0687 230.138C27.7712 230.412 27.4423 230.581 27.1553 230.672C26.5724 230.856 26.1913 230.755 26.1993 230.733C26.1985 230.687 26.5692 230.718 27.0942 230.505C27.3539 230.4 27.6474 230.229 27.9095 229.97C28.0405 229.841 28.1635 229.691 28.2664 229.523C28.3718 229.357 28.457 229.155 28.4079 229.026C28.3685 228.902 28.1772 228.897 27.9995 228.965C27.821 229.036 27.6465 229.132 27.4962 229.236C27.1907 229.444 26.964 229.696 26.7999 229.925C26.4775 230.392 26.4028 230.753 26.361 230.742Z" fill="#455A64"/>
</g>
<g id="Group_10">
<path id="Vector_11" d="M31.6804 230.62C31.6764 230.661 31.3081 230.537 30.8233 230.819C30.3498 231.086 29.8006 231.686 29.504 232.477C29.2017 233.273 29.266 234.073 29.4123 234.607C29.5586 235.148 29.7516 235.452 29.7154 235.473C29.6945 235.49 29.4429 235.216 29.2427 234.659C29.0441 234.112 28.942 233.247 29.2684 232.388C29.59 231.536 30.197 230.914 30.7429 230.66C31.3089 230.391 31.7093 230.599 31.6804 230.62Z" fill="#263238"/>
</g>
<g id="Group_11">
<path id="Vector_12" d="M28.6541 235.253C28.7063 235.298 28.318 235.837 27.7866 236.455C27.2551 237.074 26.7815 237.539 26.7285 237.493C26.6754 237.448 27.0638 236.909 27.596 236.291C28.1283 235.673 28.6018 235.208 28.6541 235.253Z" fill="#263238"/>
</g>
<g id="Group_12">
<g id="Group_13">
<path id="Vector_13" d="M29.7451 234.258C29.8142 234.246 29.8995 234.406 29.9694 234.604C30.0386 234.804 30.0723 234.98 30.0104 235.014C29.9509 235.048 29.8094 234.908 29.7322 234.687C29.655 234.467 29.6776 234.27 29.7451 234.258Z" fill="#263238"/>
</g>
</g>
<g id="Group_14">
<g id="Group_15">
<path id="Vector_14" d="M29.855 232.667C29.9202 232.692 29.9129 232.872 29.8711 233.08C29.8285 233.287 29.7642 233.457 29.6943 233.454C29.6259 233.451 29.5785 233.258 29.6251 233.029C29.6709 232.8 29.7907 232.642 29.855 232.667Z" fill="#263238"/>
</g>
</g>
<g id="Group_16">
<g id="Group_17">
<path id="Vector_15" d="M30.7847 231.378C30.8265 231.434 30.722 231.582 30.5757 231.734C30.4277 231.885 30.2838 231.995 30.2267 231.955C30.1696 231.917 30.2324 231.728 30.3956 231.56C30.558 231.392 30.7437 231.323 30.7847 231.378Z" fill="#455A64"/>
</g>
</g>
<g id="Group_18">
<g id="Group_19">
<path id="Vector_16" d="M32.2521 230.762C32.2593 230.832 32.0945 230.906 31.8903 230.961C31.686 231.016 31.5052 231.035 31.477 230.971C31.4489 230.908 31.5992 230.779 31.8243 230.718C32.0503 230.658 32.2456 230.693 32.2521 230.762Z" fill="#455A64"/>
</g>
</g>
<g id="Group_20">
<g id="Group_21">
<g id="Group_22">
<g id="Group_23">
<path id="Vector_17" d="M48.6762 232.866L50.2593 225.514L36.5068 222.461L34.0771 233.193L34.9181 233.436C38.6664 234.49 54.0502 238.527 56.7572 238.321C59.7771 238.091 48.6762 232.866 48.6762 232.866Z" fill="#E8505B"/>
</g>
</g>
</g>
<g id="Group_24">
<g id="Group_25">
<g id="Group_26">
<path id="Vector_18" d="M39.0874 234.192C39.1469 232.999 38.7449 231.79 37.9835 230.87C37.2221 229.95 36.1737 229.321 34.991 229.156L34.1348 232.999L39.0874 234.192Z" fill="#E8505B"/>
</g>
</g>
</g>
</g>
<g id="Group_27">
<g id="Group_28">
<g id="Group_29">
<path id="Vector_19" d="M54.055 235.623C54.055 235.623 57.8885 237.714 57.2276 238.275C56.5667 238.836 40.8669 235.34 34.0771 233.193L34.1672 232.891L52.4454 237.124C52.4454 237.124 53.247 235.48 54.055 235.623Z" fill="#F0F0F0"/>
</g>
</g>
</g>
<g id="Group_30">
<g id="Group_31">
<g id="Group_32">
<g id="Group_33">
<path id="Vector_20" d="M33.9531 232.829C33.9515 232.835 34.0311 232.861 34.1839 232.907C34.3849 232.965 34.6052 233.028 34.8536 233.099C35.5266 233.28 36.3531 233.501 37.3291 233.764C39.4228 234.309 42.326 235.025 45.5485 235.745C48.7725 236.465 51.7039 237.053 53.8313 237.45C54.8258 237.628 55.6684 237.779 56.3534 237.903C56.6083 237.944 56.835 237.98 57.0417 238.013C57.1992 238.037 57.2829 238.046 57.2837 238.041C57.2845 238.035 57.2033 238.014 57.0481 237.98C56.8431 237.937 56.6188 237.89 56.3663 237.837C55.6837 237.7 54.8451 237.531 53.8546 237.332C51.7344 236.905 48.8079 236.298 45.5862 235.579C42.3654 234.859 39.4597 234.162 37.3589 233.646C36.378 233.405 35.5467 233.201 34.8713 233.035C34.6197 232.976 34.397 232.923 34.1935 232.874C34.0368 232.839 33.9548 232.824 33.9531 232.829Z" fill="#263238"/>
</g>
</g>
</g>
</g>
<g id="Group_34">
<g id="Group_35">
<g id="Group_36">
<g id="Group_37">
<path id="Vector_21" d="M52.3934 237.333C52.4425 237.351 52.6145 236.762 53.1259 236.244C53.6276 235.716 54.2105 235.526 54.1912 235.477C54.1904 235.433 53.5432 235.561 53.0037 236.125C52.457 236.683 52.35 237.334 52.3934 237.333Z" fill="#263238"/>
</g>
</g>
</g>
</g>
<g id="Group_38">
<g id="Group_39">
<g id="Group_40">
<g id="Group_41">
<path id="Vector_22" d="M48.7949 234.369C48.8278 234.403 49.0746 234.209 49.3456 233.938C49.6165 233.666 49.8095 233.42 49.7757 233.387C49.742 233.353 49.4959 233.547 49.225 233.818C48.954 234.089 48.7611 234.336 48.7949 234.369Z" fill="#263238"/>
</g>
</g>
</g>
</g>
<g id="Group_42">
<g id="Group_43">
<g id="Group_44">
<g id="Group_45">
<path id="Vector_23" d="M47.8123 233.534C47.8356 233.575 48.0849 233.479 48.3687 233.319C48.6533 233.159 48.8647 232.996 48.8414 232.955C48.8181 232.914 48.5689 233.01 48.285 233.17C48.0012 233.33 47.789 233.493 47.8123 233.534Z" fill="#263238"/>
</g>
</g>
</g>
</g>
<g id="Group_46">
<g id="Group_47">
<g id="Group_48">
<g id="Group_49">
<path id="Vector_24" d="M47.3977 232.082C47.3873 232.128 47.6992 232.24 48.0948 232.334C48.4903 232.426 48.82 232.465 48.8312 232.418C48.8417 232.372 48.5298 232.26 48.1342 232.167C47.7378 232.074 47.4082 232.036 47.3977 232.082Z" fill="#263238"/>
</g>
</g>
</g>
</g>
<g id="Group_50">
<g id="Group_51">
<g id="Group_52">
<g id="Group_53">
<path id="Vector_25" d="M47.3598 231.116C47.3349 231.154 47.65 231.39 48.1083 231.527C48.5666 231.667 48.9589 231.646 48.9597 231.601C48.9621 231.552 48.5931 231.497 48.1581 231.364C47.7224 231.234 47.3847 231.074 47.3598 231.116Z" fill="#263238"/>
</g>
</g>
</g>
</g>
<g id="Group_54">
<g id="Group_55">
<g id="Group_56">
<g id="Group_57">
<path id="Vector_26" d="M49.5284 233.275C49.5235 233.293 49.8532 233.41 50.4136 233.466C50.6934 233.494 51.0294 233.501 51.4001 233.468C51.5858 233.445 51.7764 233.439 51.9878 233.366C52.0883 233.328 52.2033 233.267 52.2676 233.14C52.3335 233.016 52.2957 232.852 52.2121 232.758C51.4652 232.132 50.5133 232.419 50.1032 232.786C49.8805 232.97 49.7535 233.17 49.6836 233.311C49.6144 233.454 49.5983 233.541 49.608 233.545C49.6369 233.563 49.7455 233.21 50.178 232.881C50.3911 232.719 50.6902 232.582 51.0423 232.558C51.3752 232.535 51.8246 232.609 52.0795 232.865C52.1969 233 52.1052 233.152 51.9283 233.211C51.7619 233.272 51.5609 233.287 51.3848 233.312C51.0246 233.353 50.6966 233.358 50.4224 233.347C49.8717 233.321 49.534 233.247 49.5284 233.275Z" fill="#263238"/>
</g>
</g>
</g>
</g>
<g id="Group_58">
<g id="Group_59">
<g id="Group_60">
<g id="Group_61">
<path id="Vector_27" d="M49.7474 233.375C49.7579 233.388 49.9388 233.191 49.9862 232.784C50.0079 232.584 49.9878 232.337 49.8889 232.084C49.7764 231.853 49.6365 231.538 49.2538 231.47C49.0431 231.451 48.8912 231.661 48.8904 231.817C48.8719 231.976 48.9121 232.124 48.9523 232.246C49.0343 232.496 49.1436 232.707 49.2506 232.873C49.4676 233.205 49.663 233.358 49.6767 233.343C49.6968 233.325 49.536 233.146 49.3543 232.812C49.2642 232.645 49.1718 232.438 49.1026 232.199C49.023 231.985 49.0142 231.632 49.2449 231.64C49.4709 231.669 49.6477 231.939 49.7434 232.145C49.8399 232.367 49.8713 232.591 49.8656 232.776C49.8528 233.151 49.7193 233.362 49.7474 233.375Z" fill="#263238"/>
</g>
</g>
</g>
</g>
<g id="Group_62">
<g id="Group_63">
<g id="Group_64">
<g id="Group_65">
<path id="Vector_28" d="M35.0713 229.135C35.0673 229.167 35.4733 229.185 36.0787 229.397C36.6793 229.603 37.4793 230.046 38.092 230.804C38.7038 231.564 38.9675 232.44 39.0415 233.07C39.1203 233.706 39.0519 234.106 39.0841 234.11C39.0946 234.111 39.1211 234.013 39.146 233.832C39.1717 233.651 39.1862 233.385 39.1613 233.057C39.1171 232.407 38.863 231.489 38.2246 230.697C37.5854 229.906 36.742 229.463 36.1165 229.282C35.8014 229.189 35.5384 229.147 35.3559 229.134C35.1734 229.119 35.0721 229.125 35.0713 229.135Z" fill="#263238"/>
</g>
</g>
</g>
</g>
<g id="Group_66">
<g id="Group_67">
<g id="Group_68">
<g id="Group_69">
<path id="Vector_29" d="M37.7706 223.727C37.7248 223.715 37.3895 224.969 37.0229 226.525C36.6554 228.081 36.3949 229.351 36.4408 229.362C36.4866 229.372 36.8219 228.12 37.1885 226.564C37.5559 225.007 37.8164 223.737 37.7706 223.727Z" fill="#455A64"/>
</g>
</g>
</g>
</g>
<g id="Group_70">
<g id="Group_71">
<g id="Group_72">
<g id="Group_73">
<path id="Vector_30" d="M41.1154 233.232C41.1002 233.274 41.9628 233.62 43.078 233.878C44.1931 234.14 45.1202 234.21 45.125 234.165C45.1314 234.116 44.2213 233.971 43.1166 233.713C42.0119 233.456 41.1315 233.185 41.1154 233.232Z" fill="#263238"/>
</g>
</g>
</g>
</g>
<g id="Group_74">
<g id="Group_75">
<g id="Group_76">
<g id="Group_77">
<path id="Vector_31" d="M38.4213 232.628C38.3803 232.654 38.4527 232.834 38.4985 233.061C38.5475 233.287 38.554 233.482 38.6022 233.489C38.6464 233.499 38.7212 233.287 38.6657 233.026C38.6119 232.764 38.4583 232.601 38.4213 232.628Z" fill="#263238"/>
</g>
</g>
</g>
</g>
<g id="Group_78">
<g id="Group_79">
<g id="Group_80">
<g id="Group_81">
<path id="Vector_32" d="M37.6877 231.144C37.6475 231.169 37.7046 231.332 37.8147 231.507C37.9249 231.683 38.0463 231.806 38.0865 231.781C38.1267 231.756 38.0696 231.592 37.9594 231.416C37.8493 231.241 37.7279 231.119 37.6877 231.144Z" fill="#455A64"/>
</g>
</g>
</g>
</g>
<g id="Group_82">
<g id="Group_83">
<g id="Group_84">
<g id="Group_85">
<path id="Vector_33" d="M36.3624 230.237C36.3616 230.286 36.5449 230.324 36.7306 230.441C36.9195 230.552 37.0385 230.696 37.0811 230.673C37.1237 230.656 37.0514 230.434 36.819 230.294C36.5883 230.153 36.3583 230.191 36.3624 230.237Z" fill="#455A64"/>
</g>
</g>
</g>
</g>
<g id="Group_86">
<g id="Group_87">
<g id="Group_88">
<g id="Group_89">
<path id="Vector_34" d="M35.3888 229.737C35.3623 229.777 35.4258 229.864 35.5303 229.934C35.6349 230.004 35.7402 230.028 35.7667 229.99C35.7933 229.951 35.7297 229.863 35.6252 229.793C35.5207 229.723 35.4154 229.698 35.3888 229.737Z" fill="#455A64"/>
</g>
</g>
</g>
</g>
<g id="Group_90">
<path id="Vector_35" d="M55.2296 108.423L38.9446 102.664L16.5186 106.731L17.1593 232.414L38.4533 232.135C38.4533 232.135 38.4348 230.67 38.4043 228.097L50.8864 231.512C50.8864 231.512 63.0542 190.415 67.2028 173.546C70.6616 159.476 55.2296 108.423 55.2296 108.423ZM38.1727 207.612C37.8479 177.206 37.4089 128.588 37.8535 122.263C37.8535 122.263 49.7793 164.697 49.8927 168.289C49.9618 170.473 43.3585 191.484 38.1727 207.612Z" fill="#263238"/>
</g>
<g id="Group_91">
<path id="Vector_36" d="M38.3777 206.461C38.4935 206.461 38.5884 212.096 38.59 219.047C38.5916 225.999 38.4992 231.633 38.3842 231.633C38.2684 231.633 38.1735 225.999 38.1719 219.047C38.1695 212.096 38.262 206.461 38.3777 206.461Z" fill="#455A64"/>
</g>
<g id="Group_92">
<path id="Vector_37" d="M42.9967 229.151C42.9894 229.15 43.0079 229.051 43.0497 228.861C43.0988 228.65 43.1639 228.372 43.2467 228.018C43.4348 227.256 43.7018 226.173 44.0435 224.79C44.759 221.966 45.7849 217.922 47.0496 212.935C49.6321 202.914 53.1898 189.11 57.1197 173.864C57.9189 170.787 58.7028 167.769 59.4521 164.882L59.4497 164.974C56.8399 151.662 54.2269 140.007 52.1615 131.706C51.1291 127.574 50.2994 124.253 49.7213 121.939C49.4399 120.813 49.2204 119.933 49.0652 119.31C48.9985 119.025 48.9455 118.8 48.9044 118.626C48.8707 118.472 48.8562 118.392 48.8618 118.391C48.8683 118.389 48.8948 118.465 48.9414 118.617C48.9913 118.788 49.0564 119.01 49.1384 119.29C49.3105 119.909 49.5533 120.783 49.8636 121.903C50.4827 124.18 51.3695 127.494 52.4252 131.64C54.5622 139.925 57.2283 151.581 59.8541 164.893L59.863 164.94L59.8509 164.986C59.1032 167.874 58.3209 170.892 57.5242 173.969C53.5476 189.204 49.948 202.996 47.335 213.009C46.0165 217.981 44.9463 222.014 44.2002 224.83C43.8264 226.205 43.5337 227.281 43.3279 228.039C43.2282 228.387 43.1502 228.662 43.0907 228.871C43.0352 229.059 43.0031 229.154 42.9967 229.151Z" fill="#455A64"/>
</g>
<g id="Group_93">
<path id="Vector_38" d="M26.1504 231.373C26.0347 231.373 25.9414 206.08 25.9414 174.888C25.9414 143.685 26.0355 118.398 26.1504 118.398C26.2654 118.398 26.3595 143.685 26.3595 174.888C26.3595 206.08 26.2654 231.373 26.1504 231.373Z" fill="#455A64"/>
</g>
<g id="Group_94">
<path id="Vector_39" d="M32.0538 40.0381L44.9395 40.6757C45.0754 39.1834 45.1831 33.3938 45.1831 33.3938C45.1831 33.3938 50.5426 32.7635 50.8071 27.4386C51.0716 22.1129 50.6037 9.84466 50.6037 9.84466C44.5351 6.96393 37.3827 7.59426 31.9107 11.4904L31.0986 12.0685L32.0538 40.0381Z" fill="#E6BBAC"/>
</g>
<g id="Group_95">
<g id="Group_96">
<path id="Vector_40" d="M47.9116 18.953C47.6061 18.6539 47.6005 18.1642 47.8988 17.8579C48.1978 17.5524 48.6875 17.5468 48.9938 17.845C49.2993 18.1441 49.305 18.6338 49.0067 18.9401C48.7084 19.2464 48.218 19.252 47.9116 18.953Z" fill="#263238"/>
</g>
<g id="Group_97">
<g id="Group_98">
<path id="Vector_41" d="M50.3732 17.7852C50.2864 17.8744 49.7783 17.4523 49.045 17.4218C48.3118 17.38 47.7643 17.7498 47.6871 17.6525C47.6493 17.6091 47.7385 17.4459 47.9773 17.2779C48.2121 17.1106 48.6101 16.9562 49.0667 16.9788C49.5234 17.0013 49.9045 17.1942 50.1216 17.384C50.3427 17.5745 50.4159 17.7458 50.3732 17.7852Z" fill="#263238"/>
</g>
</g>
</g>
<g id="Group_99">
<g id="Group_100">
<path id="Vector_42" d="M41.1219 18.1147C41.4773 18.3519 41.5738 18.8327 41.3358 19.188C41.0986 19.5434 40.6178 19.6399 40.2625 19.4019C39.9071 19.1647 39.8106 18.6839 40.0486 18.3277C40.2858 17.9732 40.7666 17.8775 41.1219 18.1147Z" fill="#263238"/>
</g>
<g id="Group_101">
<g id="Group_102">
<path id="Vector_43" d="M42.3801 18.1367C42.2932 18.226 41.7851 17.8039 41.0519 17.7733C40.3186 17.7315 39.7711 18.1014 39.6939 18.0041C39.6561 17.9607 39.7454 17.7974 39.9841 17.6294C40.2189 17.4622 40.6169 17.3078 41.0736 17.3303C41.5302 17.3528 41.9113 17.5458 42.1284 17.7355C42.3495 17.9261 42.4219 18.0973 42.3801 18.1367Z" fill="#263238"/>
</g>
</g>
</g>
<g id="Group_103">
<g id="Group_104">
<path id="Vector_44" d="M45.0961 24.3027C45.0929 24.2448 45.5504 24.17 46.2925 24.0952C46.4854 24.0816 46.6374 24.0438 46.6551 23.9409C46.6937 23.8259 46.6269 23.6185 46.5385 23.3861C46.368 22.8932 46.1944 22.3956 46.0135 21.8738C45.2907 19.7199 44.7938 17.9438 44.904 17.9068C45.0133 17.8699 45.6879 19.5864 46.4107 21.7403C46.5811 22.2661 46.7435 22.7678 46.9043 23.2631C46.9662 23.4874 47.09 23.7519 46.9791 24.0655C46.9204 24.2223 46.7644 24.3316 46.6366 24.3597C46.5079 24.3935 46.3994 24.3895 46.3069 24.3903C45.5616 24.3895 45.0993 24.3605 45.0961 24.3027Z" fill="#263238"/>
</g>
</g>
<g id="Group_105">
<path id="Vector_45" d="M42.6828 25.0251C41.9351 24.5411 44.7459 26.2222 46.2429 26.2045C46.2429 26.2045 45.3352 27.5416 43.8197 26.9225C42.2462 26.2793 42.6828 25.0251 42.6828 25.0251Z" fill="white"/>
</g>
<g id="Group_106">
<path id="Vector_46" d="M45.1959 33.3187C45.1959 33.3187 41.8182 33.4674 38.3232 31.0859C38.3232 31.0859 39.8219 34.9813 45.1565 34.6999L45.1959 33.3187Z" fill="#D88876"/>
</g>
<g id="Group_107">
<path id="Vector_47" d="M32.1021 17.9251C31.9855 17.8841 28.1424 17.4797 28.6144 21.9949C29.0863 26.511 33.4914 24.5404 33.485 24.4102C33.4802 24.2799 32.1021 17.9251 32.1021 17.9251Z" fill="#E6BBAC"/>
</g>
<g id="Group_108">
<g id="Group_109">
<path id="Vector_48" d="M31.9363 22.9728C31.9146 22.9607 31.8631 23.0363 31.7369 23.111C31.6131 23.1834 31.3952 23.2485 31.15 23.185C30.6547 23.0596 30.1739 22.344 30.067 21.5328C30.0123 21.1228 30.0573 20.7224 30.1691 20.3831C30.272 20.0382 30.4617 19.7849 30.6973 19.7174C30.9305 19.637 31.1154 19.7632 31.1837 19.8846C31.2577 20.0044 31.2384 20.0977 31.2633 20.1025C31.277 20.1121 31.3526 20.0165 31.2963 19.8339C31.2682 19.7463 31.2038 19.645 31.0889 19.5694C30.9715 19.4922 30.8075 19.4641 30.6418 19.4995C30.2961 19.5598 30.0163 19.9135 29.8933 20.2858C29.7518 20.6621 29.6907 21.1131 29.7526 21.573C29.8764 22.4799 30.4312 23.2823 31.1041 23.4029C31.4306 23.4527 31.6854 23.3289 31.8109 23.2083C31.9395 23.0829 31.9532 22.9792 31.9363 22.9728Z" fill="#D88876"/>
</g>
</g>
<path id="Vector_49" d="M49.8613 10.1741C51.167 9.81794 52.0619 8.42702 51.9799 7.0763C51.8979 5.72478 50.9347 4.50431 49.6901 3.97207C48.4455 3.43901 46.9758 3.55317 45.7521 4.13205C45.3308 2.17592 43.3682 0.674058 41.3703 0.778578C39.3715 0.883098 37.577 2.58033 37.3615 4.57023C37.2079 3.54674 36.0317 3.00083 34.9977 2.96465C33.9654 2.92847 32.8671 3.25811 32.2167 4.0613C31.5663 4.8637 31.5317 6.18386 32.31 6.86324C31.1562 6.76114 29.9478 7.03048 29.0272 7.73478C28.1066 8.43908 27.5181 9.60328 27.6323 10.7554C27.7464 11.9083 28.6308 12.9801 29.7701 13.1883C30.1625 13.2599 30.6328 13.2695 30.8515 13.6024C30.9729 13.7873 30.9753 14.0229 30.9745 14.2432C30.9681 15.5199 30.9625 16.7967 30.956 18.0734C31.6217 17.7173 32.4877 18.1852 32.8318 18.8573C33.1751 19.5295 33.1397 20.3246 33.0963 21.0788C33.4356 21.5636 34.2589 21.398 34.6046 20.9172C34.9503 20.4372 34.9567 19.8004 34.9503 19.2087C34.9262 17.156 34.9021 15.1042 34.878 13.0516C35.489 13.3716 36.264 13.3531 36.859 13.0034C37.454 12.6537 37.8479 11.9863 37.8656 11.2965C38.7524 12.1077 40.0115 12.4945 41.2014 12.32C42.3905 12.1455 43.4856 11.4131 44.1015 10.3807C44.7487 10.8688 45.4055 11.3624 46.1541 11.6744C46.9026 11.9863 47.7653 12.1029 48.5251 11.8199C49.2849 11.5369 49.8983 10.7916 49.8661 9.98116C49.7737 9.90639 49.682 9.83161 49.5904 9.75684" fill="#263238"/>
<g id="Group_110">
<g id="Group_111">
<path id="Vector_50" d="M92.41 55.2891C89.9819 55.2891 88.0137 57.2573 88.0137 59.6853C88.0137 62.1134 89.9819 64.0816 92.41 64.0816C94.838 64.0816 96.807 62.1134 96.807 59.6853C96.807 57.2573 94.838 55.2891 92.41 55.2891ZM92.41 58.8878C91.7137 58.8878 91.1485 58.3234 91.1485 57.6263C91.1485 56.93 91.7129 56.3648 92.41 56.3648C93.1062 56.3648 93.6714 56.9292 93.6714 57.6263C93.6714 58.3234 93.1062 58.8878 92.41 58.8878Z" fill="#E8505B"/>
</g>
<g id="Group_112">
<path id="Vector_51" d="M90.9521 63.7578V71.6636C90.9521 71.6636 92.7017 72.4692 92.6068 72.5745C92.5127 72.6798 93.8683 71.6636 93.8683 71.6636V70.7172L93.0731 69.9116L93.8683 69.176L93.0385 68.1702L93.8683 67.2842L92.9686 66.2679L93.8683 65.357V63.7578H90.9521Z" fill="#E8505B"/>
</g>
</g>
<g id="Group_113">
<path id="Vector_52" d="M97.3061 48.2498L92.2746 43.7578L87.2432 48.3149L88.737 48.5497L88.8665 53.1606L95.7069 53.2764L95.5107 48.4347L97.3061 48.2498ZM92.2376 52.4217C91.7793 52.4008 91.4248 52.0125 91.4457 51.5542C91.4666 51.0959 91.8549 50.7414 92.3132 50.7623C92.7715 50.7832 93.126 51.1715 93.1051 51.6298C93.0842 52.0873 92.6959 52.4426 92.2376 52.4217Z" fill="#263238"/>
</g>
<g id="Group_114">
<g id="Group_115">
<path id="Vector_53" d="M92.9104 52.1254C92.9031 52.1536 92.76 52.1632 92.518 52.1584C92.2792 52.1335 91.9255 52.1681 91.5307 52.312C91.1399 52.4599 90.7042 52.7381 90.3866 53.1851C90.065 53.6233 89.8744 54.2271 89.9428 54.8518C90.0063 55.4765 90.3239 56.0273 90.7323 56.3858C91.1399 56.7533 91.6223 56.9326 92.0364 56.9937C92.8838 57.1038 93.3992 56.8111 93.4225 56.8811C93.4555 56.9068 92.9699 57.3249 92.0075 57.2879C91.5387 57.2606 90.9687 57.0869 90.4799 56.6777C89.9902 56.2781 89.6003 55.6333 89.5255 54.896C89.4443 54.1612 89.6847 53.448 90.0771 52.9528C90.4654 52.4462 90.9864 52.1568 91.4382 52.0298C91.8949 51.9059 92.284 51.9196 92.5333 51.9952C92.7873 52.0531 92.9184 52.0981 92.9104 52.1254Z" fill="#455A64"/>
</g>
</g>
<g id="Group_116">
<g id="Group_117">
<path id="Vector_54" d="M94.5156 55.8223C94.4119 55.7628 94.6587 55.1984 94.6169 54.486C94.5944 53.7584 94.3146 53.239 94.3926 53.1683C94.4794 53.067 95.0093 53.6145 95.035 54.4667C95.0776 55.3294 94.6008 55.8962 94.5156 55.8223Z" fill="#455A64"/>
</g>
</g>
<path id="Vector_55" d="M79.7061 49.3971C80.1651 48.2136 80.8847 46.1803 81.6099 45.1383C82.3351 44.0963 83.3088 43.191 84.4955 42.7416C86.0416 42.1562 87.7613 42.3902 89.3967 42.633C90.7169 42.8292 92.037 43.0246 93.358 43.2207C93.8951 43.3003 94.5793 43.5447 94.5576 44.0874C94.5447 44.4066 94.2553 44.6591 93.9457 44.7403C93.637 44.8215 93.3106 44.7733 92.9938 44.7339C92.119 44.6269 91.2346 44.602 90.3551 44.6591C89.7255 44.7001 88.9481 44.918 88.8468 45.5411C88.7567 46.0942 89.3404 46.5702 89.9008 46.5871C90.4612 46.604 90.9774 46.3073 91.4589 46.0195C91.9743 45.7115 92.4905 45.4044 93.0058 45.0965C93.3009 44.9204 93.6354 44.7371 93.9698 44.8151C94.5415 44.9469 94.6774 45.7662 94.3751 46.2687C94.072 46.7712 93.5164 47.0502 93.0308 47.3798C91.0385 48.7313 90.1139 50.9206 89.1965 53.8118" fill="#E6BBAC"/>
<g id="Group_118">
<path id="Vector_56" d="M79.7424 48.792L70.8646 71.5903L61.666 50.3108C58.7885 40.0083 46.0732 39.3322 46.0732 39.3322L33.4882 37.7153C28.9641 35.8726 21.6292 37.4098 18.7613 38.9865C15.1039 40.9973 11.8525 47.1865 11.1313 51.7435C11.1313 51.7435 -1.54134 84.5073 0.621426 87.9292C2.78419 91.351 16.3493 104.707 16.3493 104.707L14.4591 111.608L35.9919 112.967L38.1948 104.484L38.4505 113.575L58.6953 115.004C57.8093 106.999 56.3805 98.9641 55.9914 96.6719L54.3722 73.1991L54.5748 68.3381L54.7733 67.834C56.6724 71.0114 59.0538 75.0925 61.9949 80.2871C67.9075 90.7343 73.8804 88.0634 77.3883 83.869C79.6781 81.1305 80.708 77.412 80.708 77.412L89.4129 52.9359L79.7424 48.792ZM18.0634 87.9179C18.053 88.0417 15.8926 84.0458 15.8926 84.0458L19.0532 73.6308C19.0532 73.6308 18.0747 87.7933 18.0634 87.9179Z" fill="#E8505B"/>
</g>
<path id="Vector_57" d="M31.8721 37.9921L38.6627 64.0794L45.7113 39.5792L44.9283 39.518L45.1172 36.2964L31.8721 34.7109V37.9921Z" fill="white"/>
<g id="Group_119">
<path id="Vector_58" d="M31.5125 38.2422C31.5246 38.2446 31.5117 38.3652 31.4763 38.5944C31.4305 38.8629 31.3734 39.1942 31.3043 39.5994C31.129 40.5248 30.891 41.7838 30.5968 43.3396C30.2792 44.95 29.9021 46.8611 29.4784 49.0118C29.2742 50.0683 28.9671 51.2815 29.5636 52.2801C30.1546 53.2762 31.4 53.761 32.6172 54.1671L32.852 54.245L32.729 54.4597C31.7545 56.157 31.8301 58.4347 32.5505 60.4768C32.9943 61.7825 33.6174 62.9998 34.2083 64.1953C34.8001 65.3901 35.3749 66.5519 35.9297 67.6718C37.0304 69.9078 38.0483 71.9765 38.952 73.812L38.636 73.8892C38.6231 70.9369 38.6135 68.5 38.6054 66.7416C38.6127 65.928 38.6183 65.2727 38.6223 64.7726C38.632 64.3208 38.6448 64.0812 38.6617 64.0812C38.6786 64.0812 38.6987 64.32 38.7212 64.771C38.7397 65.2711 38.7646 65.9256 38.7944 66.7392C38.837 68.4967 38.8965 70.9329 38.9688 73.8844L38.9873 74.6248L38.6529 73.9615C37.7323 72.134 36.6951 70.075 35.5743 67.8495C35.0148 66.732 34.4343 65.5726 33.8377 64.3811C33.2443 63.1895 32.61 61.9578 32.1525 60.6119C31.4104 58.5054 31.3139 56.0958 32.3768 54.2595L32.4878 54.5522C31.8607 54.3407 31.24 54.1116 30.6659 53.7924C30.0951 53.4772 29.562 53.0463 29.234 52.4746C28.8931 51.9062 28.8167 51.2413 28.8561 50.6455C28.8947 50.0433 29.0249 49.4813 29.1367 48.9443C29.595 46.8008 30.0018 44.8961 30.3443 43.2905C30.6868 41.7445 30.9642 40.4926 31.1684 39.5737C31.2641 39.1741 31.3429 38.8468 31.4064 38.5823C31.4651 38.3556 31.5013 38.2398 31.5125 38.2422Z" fill="#263238"/>
</g>
<g id="Group_120">
<path id="Vector_59" d="M46.9372 39.7422C46.963 39.7382 47.061 40.1675 47.2098 40.9587C47.3577 41.7498 47.5579 42.9003 47.7774 44.3403C47.9889 45.7819 48.2502 47.5056 48.3997 49.4634C48.4359 49.9538 48.4681 50.4563 48.4488 50.9854C48.4536 51.5192 48.2807 52.1045 47.9519 52.5636C47.2966 53.4962 46.3358 54.1563 45.281 54.6854L45.3188 54.3308C45.6991 54.6403 45.9853 54.9997 46.2418 55.4058C46.3045 55.5071 46.364 55.6108 46.4203 55.7161C46.4484 55.7852 46.4765 55.9283 46.4677 55.9911L46.446 56.1888C46.4018 56.4349 46.3391 56.6648 46.2723 56.8931C45.4627 59.4129 44.4681 61.6986 43.5966 63.7979C42.7098 65.8891 41.8857 67.76 41.1822 69.327C40.4787 70.8932 39.8966 72.1547 39.4841 73.0222C39.2912 73.417 39.1312 73.745 38.9985 74.0159C38.8827 74.241 38.816 74.3568 38.8023 74.3504C38.7887 74.344 38.8305 74.2177 38.9213 73.9814C39.0339 73.7016 39.1706 73.3631 39.3354 72.9563C39.7334 72.01 40.2648 70.7445 40.9112 69.2088C41.5826 67.6073 42.3705 65.7267 43.2412 63.6492C44.0903 61.5507 45.0784 59.2448 45.8711 56.775C45.9362 56.5547 45.9957 56.3328 46.0335 56.1229L46.0504 55.9758C46.0496 55.9251 46.0504 55.9509 46.0512 55.9115C45.999 55.8142 45.9443 55.7185 45.8872 55.6252C45.6597 55.2578 45.3718 54.9089 45.072 54.6628L44.8155 54.453L45.1097 54.3075C46.0987 53.8179 47.0393 53.1698 47.6238 52.3393C48.2502 51.5192 48.0484 50.4475 48.0331 49.4859C47.9093 47.5474 47.6785 45.818 47.5041 44.3765C47.3223 42.9839 47.1736 41.8415 47.061 40.9804C46.9597 40.1852 46.9115 39.747 46.9372 39.7422Z" fill="#263238"/>
</g>
<g id="Group_121">
<path id="Vector_60" d="M38.1969 105.475C38.0811 105.472 38.1937 98.0994 38.4478 89.0102C38.7018 79.9177 39.0017 72.5515 39.1167 72.5547C39.2325 72.5579 39.1199 79.929 38.8659 89.0214C38.6118 98.1114 38.3127 105.478 38.1969 105.475Z" fill="#263238"/>
</g>
<g id="Group_122">
<path id="Vector_61" d="M41.4767 79.1449C41.4252 79.1151 41.6897 78.8522 42.1279 79.0492C42.3225 79.1432 42.5581 79.3459 42.5918 79.6948C42.6304 80.0526 42.3233 80.3943 41.9776 80.4731C41.6375 80.5752 41.2025 80.4305 41.0586 80.1016C40.9139 79.784 41.0152 79.4906 41.135 79.3113C41.4124 78.9213 41.7718 79.0098 41.7436 79.0612C41.7492 79.1223 41.5121 79.165 41.3923 79.4576C41.3352 79.5951 41.3167 79.7897 41.3995 79.9223C41.4735 80.0566 41.6624 80.1201 41.8698 80.0678C42.0757 80.0108 42.2083 79.862 42.2059 79.7093C42.2123 79.5541 42.0982 79.3949 41.9792 79.3057C41.7283 79.1127 41.504 79.1995 41.4767 79.1449Z" fill="#263238"/>
</g>
<g id="Group_123">
<path id="Vector_62" d="M41.5585 87.5042C41.5071 87.4745 41.7716 87.2116 42.209 87.4086C42.4035 87.5026 42.6399 87.7052 42.6729 88.0542C42.7115 88.412 42.4044 88.7536 42.0586 88.8324C41.7185 88.9353 41.2836 88.7898 41.1397 88.461C40.9949 88.1434 41.0962 87.85 41.216 87.6707C41.4934 87.2807 41.852 87.3692 41.8247 87.4206C41.8303 87.4817 41.5931 87.5243 41.4733 87.817C41.4162 87.9545 41.3977 88.149 41.4814 88.2817C41.5553 88.416 41.7443 88.4795 41.9517 88.4272C42.1575 88.3701 42.2902 88.2214 42.2878 88.0686C42.2942 87.9135 42.1808 87.7543 42.0618 87.665C41.811 87.4721 41.5859 87.5589 41.5585 87.5042Z" fill="#263238"/>
</g>
<g id="Group_124">
<path id="Vector_63" d="M41.1992 96.9574C41.1477 96.9276 41.4122 96.6647 41.8496 96.8617C42.0442 96.9558 42.2806 97.1583 42.3135 97.5073C42.3521 97.8651 42.045 98.2068 41.6993 98.2856C41.3592 98.3885 40.9242 98.2429 40.7803 97.9141C40.6356 97.5965 40.7369 97.3031 40.8567 97.1238C41.134 96.7338 41.4926 96.8223 41.4653 96.8737C41.4709 96.9348 41.2337 96.9775 41.114 97.2701C41.0561 97.4076 41.0384 97.6022 41.122 97.7348C41.196 97.8691 41.3849 97.9326 41.5923 97.8804C41.7982 97.8233 41.9308 97.6745 41.9284 97.5218C41.9348 97.3666 41.8215 97.2074 41.7025 97.1182C41.4508 96.926 41.2257 97.0128 41.1992 96.9574Z" fill="#263238"/>
</g>
<path id="Vector_64" d="M45.7115 65.0035H51.6289V64.0781H45.3955L45.7115 65.0035Z" fill="#263238"/>
<g id="Group_125">
<path id="Vector_65" d="M87.7246 57.5236C87.6747 57.6282 85.5433 56.7124 82.9641 55.4783C80.3841 54.2441 78.3339 53.1595 78.3837 53.055C78.4336 52.9505 80.565 53.8662 83.145 55.1004C85.7234 56.3345 87.7744 57.4199 87.7246 57.5236Z" fill="#455A64"/>
</g>
<g id="Group_126">
<path id="Vector_66" d="M79.7059 51.289C79.6641 51.2632 79.7525 51.0277 80.1046 50.8958C80.2743 50.8363 80.5171 50.8066 80.7655 50.9256C81.0212 51.0341 81.2126 51.3597 81.186 51.666C81.1844 51.9716 80.9609 52.3012 80.6361 52.3462C80.2992 52.3792 80.1022 52.1629 80.0162 51.9981C79.9221 51.8228 79.9374 51.6347 80.0001 51.539C80.0636 51.4425 80.1304 51.4321 80.1465 51.449C80.1859 51.4916 80.0934 51.6556 80.2646 51.8381C80.4327 52.052 80.7422 52.0206 80.7671 51.6475C80.7953 51.2857 80.4407 51.1491 80.1738 51.1845C79.9069 51.2094 79.7509 51.3324 79.7059 51.289Z" fill="#455A64"/>
</g>
<g id="Group_127">
<path id="Vector_67" d="M70.4394 76.3707C70.3244 76.357 70.3703 75.1936 70.5407 73.7738C70.7111 72.3531 70.9427 71.213 71.0577 71.2267C71.1726 71.2404 71.1268 72.4029 70.9564 73.8236C70.7851 75.2435 70.5536 76.3843 70.4394 76.3707Z" fill="#263238"/>
</g>
<g id="Group_128">
<path id="Vector_68" d="M72.4928 76.1275C72.3835 76.1645 71.9445 75.1499 71.5135 73.8611C71.0826 72.5722 70.8213 71.4989 70.9314 71.4619C71.0408 71.4249 71.4798 72.4396 71.9107 73.7284C72.3417 75.0172 72.6022 76.0914 72.4928 76.1275Z" fill="#263238"/>
</g>
<path id="Vector_69" d="M40.3104 37.4162C40.0523 38.5426 39.4952 39.5693 38.8037 40.5518L39.9856 43.759H40.9938L41.8388 40.6764C41.8388 40.6764 41.2471 40.1997 40.8105 37.3125L40.3104 37.4162Z" fill="#455A64"/>
<g id="Group_129">
<path id="Vector_70" d="M44.8931 39.4432C44.9108 39.4577 44.7966 39.6587 44.5386 39.9988C44.2765 40.3131 43.8632 40.8735 43.0391 41.0657C42.6467 41.1477 42.1298 41.1252 41.7237 40.7778C41.3225 40.4257 41.1811 39.8935 41.0387 39.4046C40.7533 38.3972 40.5483 37.2427 40.5041 36.0013L40.9061 36.0511C40.7187 36.7112 40.5443 37.4059 40.3079 38.111C40.0522 38.8225 39.8022 39.4955 39.4147 40.129C39.2161 40.4378 38.9612 40.7296 38.63 40.9178C38.3011 41.1123 37.9192 41.1718 37.5759 41.1557C36.8788 41.1107 36.3016 40.8639 35.7685 40.6372C35.2379 40.3992 34.7691 40.1306 34.3559 39.8669C33.5318 39.3363 32.9167 38.8434 32.4914 38.5058C32.0685 38.1641 31.8434 37.9655 31.8603 37.9421C31.9045 37.877 32.8693 38.6103 34.5102 39.6153C34.9251 39.8581 35.389 40.1033 35.906 40.3188C36.4206 40.5246 36.9986 40.7457 37.5904 40.7706C38.1918 40.8124 38.7305 40.4812 39.0697 39.9087C39.409 39.3491 39.6703 38.6561 39.9123 37.9775C40.1415 37.2949 40.3184 36.6035 40.5129 35.9386C40.5435 35.8292 40.6568 35.7657 40.7654 35.7971C40.853 35.822 40.9117 35.9024 40.9149 35.9884C40.9487 37.196 41.1304 38.3224 41.3853 39.3114C41.5131 39.8066 41.6409 40.2721 41.9352 40.5415C42.2254 40.8116 42.6443 40.8599 42.9909 40.8036C43.704 40.679 44.1422 40.1885 44.43 39.9047C44.717 39.6 44.8714 39.4263 44.8931 39.4432Z" fill="#E0E0E0"/>
</g>
<path id="Vector_71" d="M39.9849 43.753C39.8129 44.1703 36.6523 56.3589 36.6523 56.3589L38.6615 64.079L42.3648 51.2077C42.3648 51.2077 41.1081 43.3333 41.0502 43.5432C40.9931 43.753 39.9849 43.753 39.9849 43.753Z" fill="#455A64"/>
<g id="Group_130">
<path id="Vector_72" d="M28.4062 100.842C28.4207 100.946 26.1944 101.254 23.4487 100.999C20.7015 100.757 18.5668 100.056 18.599 99.9559C18.6303 99.8345 20.7819 100.345 23.4857 100.582C26.1888 100.834 28.3974 100.717 28.4062 100.842Z" fill="#263238"/>
</g>
<g id="Group_131">
<path id="Vector_73" d="M56.3295 102.508C56.3231 102.624 54.7914 102.633 52.9085 102.529C51.0255 102.426 49.5043 102.247 49.5108 102.132C49.5172 102.016 51.0488 102.008 52.9318 102.111C54.8148 102.215 56.3359 102.393 56.3295 102.508Z" fill="#263238"/>
</g>
<g id="Group_132">
<path id="Vector_74" d="M19.1927 62.0703C19.2071 62.0703 19.2224 62.2231 19.2377 62.5149C19.2505 62.8534 19.2658 63.2755 19.2851 63.7909C19.3197 64.8988 19.3406 66.5028 19.343 68.4846C19.3494 72.4483 19.2457 77.9252 18.9185 83.9656C18.5889 90.0077 18.0992 95.4645 17.6626 99.4041C17.4456 101.374 17.2502 102.966 17.0966 104.063C17.0219 104.574 16.9607 104.991 16.9117 105.326C16.8651 105.614 16.8329 105.765 16.8192 105.763C16.8048 105.761 16.8088 105.608 16.8281 105.316C16.8562 104.978 16.8916 104.558 16.935 104.045C17.0428 102.883 17.1899 101.302 17.3684 99.3743C17.7286 95.4307 18.1708 89.9772 18.5004 83.9431C18.8268 77.9107 18.9772 72.4419 19.0463 68.4822C19.0777 66.547 19.1026 64.9591 19.1211 63.7917C19.134 63.2763 19.1444 62.8542 19.1525 62.5157C19.1645 62.2239 19.1782 62.0703 19.1927 62.0703Z" fill="#263238"/>
</g>
<g id="Group_133">
<path id="Vector_75" d="M15.8927 84.4437C15.7817 84.4123 16.5343 81.4222 17.5739 77.7664C18.6142 74.109 19.5469 71.1712 19.6586 71.2034C19.7696 71.2347 19.017 74.224 17.9767 77.8814C16.9371 81.5372 16.0036 84.4758 15.8927 84.4437Z" fill="#263238"/>
</g>
<g id="Group_134">
<path id="Vector_76" d="M18.3823 88.6796C18.281 88.7359 17.0815 86.7701 15.7026 84.2898C14.3229 81.8086 13.2874 79.7528 13.3887 79.6965C13.49 79.6402 14.6896 81.6052 16.0684 84.0863C17.4473 86.5667 18.4836 88.6233 18.3823 88.6796Z" fill="#263238"/>
</g>
</g>
</g>
</svg>
