<svg width="146" height="250" viewBox="0 0 146 250" fill="none" xmlns="http://www.w3.org/2000/svg">
<g id="Character">
<g id="_x3C_Group_x3E__57_">
<g id="Group">
<path id="Vector" d="M92.0484 45.7736C92.0484 45.7736 76.568 30.4587 57.9931 29.5078C57.9931 29.5078 46.9202 56.324 41.5518 82.9184L78.4202 89.4905C78.4202 89.4905 83.4862 61.8948 92.0484 45.7736Z" fill="#407BFF"/>
<path id="Vector_2" opacity="0.6" d="M92.0481 45.7702C83.4885 61.8898 78.4233 89.4838 78.4233 89.4838L41.5557 82.915C43.5297 73.1122 46.2849 63.2842 48.9729 54.7834C50.9889 48.391 52.9713 42.7546 54.5589 38.4286C56.6001 32.8846 57.9945 29.5078 57.9945 29.5078C76.5669 30.457 92.0481 45.7702 92.0481 45.7702Z" fill="white"/>
</g>
<g id="Group_2">
<path id="Vector_3" d="M84.0666 30.4646C83.6886 30.8258 83.3106 31.2038 82.9662 31.5986C82.9074 31.6742 82.8402 31.7414 82.7814 31.817C82.0254 32.7074 81.4038 33.6566 81.0846 34.6646C80.9418 35.1182 80.8578 35.5886 80.8494 36.0674C80.8326 37.4282 81.4122 38.8731 82.941 40.4186C82.8738 42.2666 78.1026 40.469 78.1026 40.469C78.1026 40.469 71.0886 36.7226 70.1982 32.4638C72.8946 31.9094 75.339 28.9106 77.2626 25.5926C77.7498 24.7526 78.2034 23.879 78.6234 23.0306C79.3458 21.5522 79.9506 20.1074 80.4126 18.9062L84.0666 30.4646Z" fill="#E4897B"/>
<path id="Vector_4" opacity="0.2" d="M82.966 31.6003C82.9072 31.6759 82.84 31.7431 82.7812 31.8187C82.0252 32.7091 81.4036 33.6583 81.0844 34.6663C80.9416 35.1199 80.8576 35.5903 80.8492 36.0691C78.7912 34.1119 76.1704 30.4159 77.2624 25.5943C77.4724 24.6283 77.842 23.6203 78.388 22.5703L78.6232 23.0323L82.966 31.6003Z" fill="black"/>
</g>
<g id="Group_3">
<path id="Vector_5" d="M101.723 14.6918C101.723 14.6918 99.7154 23.9713 93.7749 25.5715C87.8344 27.1717 94.0538 10.8438 94.0538 10.8438L101.723 14.6918Z" fill="#263238"/>
<path id="Vector_6" d="M77.6043 27.3934C78.6265 31.5002 81.9865 33.7539 85.57 33.9597C87.8733 34.095 90.2706 33.3768 92.2001 31.7656C92.4563 31.5573 92.7016 31.3263 92.9418 31.0844C97.2745 26.5971 101.575 17.4991 97.2451 11.8266C94.1867 7.75929 88.3991 6.93693 84.3293 10.0038C83.1659 10.8681 82.2318 12.0047 81.5875 13.3075C78.5047 19.3093 76.4098 22.692 77.6043 27.3934Z" fill="#E4897B"/>
<path id="Vector_7" d="M89.4475 20.1352C89.1384 20.5846 89.1896 21.1357 89.5046 21.3205C89.8188 21.5053 90.2917 21.2625 90.5722 20.793C90.8536 20.3234 90.8226 19.7875 90.5151 19.6077C90.2077 19.428 89.7339 19.659 89.4475 20.1352Z" fill="#263238"/>
<path id="Vector_8" d="M94.7965 23.296C94.4874 23.7454 94.5462 24.3015 94.8536 24.4812C95.161 24.661 95.6398 24.4233 95.9212 23.9537C96.2026 23.4841 96.1716 22.9482 95.8641 22.7685C95.5567 22.5887 95.0628 22.8483 94.7965 23.296Z" fill="#263238"/>
<path id="Vector_9" d="M92.9595 22.5234C92.6689 24.3026 92.626 26.1136 92.8318 27.9045C91.8961 27.9868 90.9721 27.6508 90.3076 26.9872L92.9595 22.5234Z" fill="#DE5753"/>
<path id="Vector_10" d="M98.1275 22.1789C98.0074 22.1755 97.8973 22.1083 97.8402 22.0025C97.479 21.2667 96.791 20.7442 95.9846 20.593C95.8082 20.5762 95.6797 20.4199 95.6957 20.2435C95.7125 20.0671 95.8687 19.9378 96.0451 19.9546H96.0468C97.0708 20.1192 97.9511 20.7702 98.4089 21.7009C98.4954 21.8555 98.44 22.0512 98.2854 22.1369C98.2829 22.1377 98.2812 22.1394 98.2787 22.1403C98.2308 22.1621 98.1796 22.1747 98.1275 22.1789Z" fill="#263238"/>
<path id="Vector_11" d="M89.6521 17.3731C89.5966 17.3387 89.5546 17.2874 89.5303 17.227C89.4967 17.0531 89.6109 16.8851 89.7848 16.8523C89.7873 16.8515 89.789 16.8515 89.7915 16.8506C90.8121 16.6474 91.8672 16.954 92.6206 17.6722C92.7416 17.8015 92.734 18.0048 92.6047 18.1249L92.6038 18.1258C92.472 18.2425 92.2729 18.235 92.1502 18.1098C91.5396 17.5605 90.7046 17.3328 89.899 17.4949C89.8033 17.4916 89.7126 17.4479 89.6521 17.3731Z" fill="#263238"/>
<path id="Vector_12" d="M90.1269 8.57408L89.0601 11.3738C87.9555 11.3788 86.9215 12.0769 86.7728 13.3234C86.4553 15.9837 83.3901 18.7532 80.9709 19.2261C80.9709 19.2261 81.4237 18.24 80.4955 18.0409C79.5673 17.8418 77.1573 22.9507 77.4791 26.1629C77.4791 26.1629 76.2291 22.7508 77.6454 16.801C78.9558 11.2982 80.9306 7.178 82.9155 5.82812L90.1269 8.57408Z" fill="#263238"/>
<path id="Vector_13" d="M76.2389 16.573C76.1078 18.2681 76.6538 19.9456 77.7584 21.2384C79.2326 22.9394 81.2075 21.9179 81.84 19.8801C82.3851 18.0631 82.3154 14.9417 80.3213 14.0043C78.3271 13.0677 76.4262 14.4948 76.2389 16.573Z" fill="#E4897B"/>
<g id="Group_4">
<path id="Vector_14" d="M89.0594 28.2727C88.2732 28.7792 87.0913 29.9141 87.0913 29.9141C86.9695 29.8259 86.8468 29.7368 86.7301 29.6419C85.1038 28.3996 84.7594 27.2857 84.872 26.4281C84.935 25.9594 85.1408 25.5654 85.3466 25.2722C85.581 24.9312 85.8262 24.7422 85.8262 24.7422C86.295 25.9157 87.7213 27.1908 88.5117 27.8401C88.8402 28.1156 89.0594 28.2727 89.0594 28.2727Z" fill="#263238"/>
<path id="Vector_15" d="M88.5117 27.8401L87.9186 28.3088C86.3898 27.1353 85.4709 26.103 85.3457 25.2722C85.5801 24.9312 85.8253 24.7422 85.8253 24.7422C86.2941 25.9165 87.7212 27.1908 88.5117 27.8401Z" fill="white"/>
<path id="Vector_16" d="M86.7301 29.6435C85.1038 28.4012 84.7594 27.2873 84.872 26.4297C85.4096 26.874 86.0085 27.4704 86.4042 28.1668C86.7082 28.6985 86.7679 29.2059 86.7301 29.6435Z" fill="#DE5753"/>
</g>
<path id="Vector_17" d="M89.0612 11.3751C89.0612 11.3751 101.168 21.487 103.172 11.4751C103.172 11.4751 97.3587 4.15445 90.3246 2.87513C83.2904 1.59581 81.1963 8.58629 81.1963 8.58629L89.0612 11.3751Z" fill="#263238"/>
</g>
<path id="Vector_18" d="M45.4194 241.563H36.906C36.6187 241.564 36.3709 241.764 36.3088 242.044L34.927 248.285C34.8085 248.843 35.1655 249.392 35.725 249.51C35.7997 249.526 35.8762 249.534 35.9526 249.533C38.707 249.488 40.7129 249.319 44.172 249.319C46.3023 249.319 52.7299 249.541 55.6725 249.541C58.6141 249.541 58.998 246.635 57.7943 246.368C52.3914 245.191 48.3267 243.559 46.5971 242.008C46.2754 241.714 45.8545 241.554 45.4194 241.563Z" fill="black"/>
<path id="Vector_19" d="M81.5239 241.336H73.0105C72.7232 241.338 72.4754 241.538 72.4133 241.818L71.0315 248.058C70.913 248.616 71.27 249.165 71.8295 249.283C71.9042 249.299 71.9807 249.307 72.0571 249.306C74.8115 249.262 76.8174 249.092 80.2765 249.092C82.4076 249.092 88.8344 249.315 91.777 249.315C94.7186 249.315 95.1025 246.408 93.8988 246.141C88.4968 244.964 84.4312 243.333 82.7016 241.781C82.3799 241.488 81.959 241.329 81.5239 241.336Z" fill="black"/>
<path id="Vector_20" d="M41.5516 79.8906L79.2961 85.5396C79.7287 87.9 78.6922 92.767 78.6922 92.767C83.0652 121.397 91.7365 188.923 84.7654 242.374H72.1729C72.1729 242.374 73.3388 149.895 62.2206 120.01C60.9421 136.003 47.9423 242.311 47.9423 242.311H35.123C35.123 242.311 37.0374 202.32 38.956 164.545C39.969 144.6 37.9018 103.567 39.8119 88.9735L41.5516 79.8906Z" fill="#263238"/>
<path id="Vector_21" opacity="0.2" d="M62.2236 120.009C63.8642 124.413 65.2283 129.914 66.3783 136.1C67.4182 121.868 63.2577 106.773 63.2577 106.773L62.2236 120.009Z" fill="black"/>
<g id="Group_5">
<g id="Group_6">
<path id="Vector_22" d="M51.8809 86.9302L73.2017 90.1356L73.7452 85.9079L52.4974 82.7344L51.8809 86.9302Z" fill="black"/>
<path id="Vector_23" d="M50.6973 82.4646L40.9928 81.0156L40.1914 85.1711L50.1236 86.6646L50.6973 82.4646Z" fill="black"/>
<path id="Vector_24" d="M75.4136 86.1562L74.6357 90.3504L78.7753 90.972L79.2961 86.7359L75.4136 86.1562Z" fill="black"/>
</g>
<g id="Group_7">
<path id="Vector_25" d="M67.4871 84.9829C67.1805 84.573 66.7404 84.2874 66.27 84.2076L62.8932 83.6187C62.0187 83.4667 61.2854 84.022 61.1871 84.9107L60.9452 87.0955C60.8923 87.5701 61.0385 88.0791 61.3459 88.4907C61.6214 88.8595 62.007 89.1249 62.4202 89.2341C62.469 89.2467 62.5168 89.2568 62.5664 89.2661L65.9441 89.8474C66.8168 89.9977 67.5484 89.4425 67.6467 88.5554L67.8878 86.3773C67.9399 85.9035 67.7937 85.3954 67.4871 84.9829ZM65.965 88.9561L62.5874 88.374C62.3556 88.3353 62.1472 88.201 61.996 87.9985C61.8448 87.7969 61.776 87.5567 61.802 87.3232L62.0439 85.1383C62.0918 84.7082 62.4471 84.4386 62.8705 84.5125L66.2473 85.1013C66.2716 85.1064 66.2952 85.1106 66.3187 85.1165C66.5203 85.1694 66.7017 85.2962 66.837 85.4768C66.9873 85.6784 67.0562 85.9187 67.0302 86.1522L66.9932 86.4832C66.9504 86.4647 66.9101 86.4403 66.8639 86.4319L65.9189 86.258C65.6047 86.2001 65.3384 86.4193 65.3267 86.7444C65.3157 87.0695 65.5635 87.3828 65.8777 87.4407L66.8227 87.6146C66.8386 87.6172 66.8521 87.6121 66.868 87.6138L66.7891 88.3311C66.7421 88.7595 66.3876 89.0284 65.965 88.9561Z" fill="white"/>
</g>
</g>
<path id="Vector_26" d="M72.4619 38.4297L73.7463 44.665C73.7463 44.665 70.8516 60.3772 74.6358 74.9336L78.2772 77.0655L80.2714 74.1709C80.2714 74.1709 74.6232 59.9665 75.9454 45.8385L79.297 41.258L72.4619 38.4297Z" fill="#263238"/>
<path id="Vector_27" d="M73.0504 30.9688L76.6271 39.3721L81.0816 34.6673L84.2148 39.5788C84.2148 39.5788 84.1678 43.457 81.1043 45.8813L76.4801 41.2327L69.4392 42.0475C69.4392 42.0475 67.2536 34.7723 67.7475 32.9008C68.2414 31.0292 73.0504 30.9688 73.0504 30.9688Z" fill="#407BFF"/>
<path id="Vector_28" opacity="0.2" d="M48.9717 54.787C50.9877 48.3946 52.9701 42.7582 54.5577 38.4322L56.8929 37.3906C56.8929 37.3906 59.7321 46.4626 48.9717 54.787Z" fill="black"/>
<path id="Vector_29" opacity="0.4" d="M73.0504 30.9688L76.6271 39.3721L81.0816 34.6673L84.2148 39.5788C84.2148 39.5788 84.1678 43.457 81.1043 45.8813L76.4801 41.2327L69.4392 42.0475C69.4392 42.0475 67.2536 34.7723 67.7475 32.9008C68.2414 31.0292 73.0504 30.9688 73.0504 30.9688Z" fill="white"/>
<g id="Group_8">
<path id="Vector_30" d="M57.9927 29.5036C53.0216 29.2642 42.9701 41.1166 40.4224 43.2216C37.8747 45.3258 30.8884 45.0108 26.769 41.2535C26.769 41.2535 23.6157 40.6176 22.2549 42.7789C22.2549 42.7789 28.9556 52.3541 38.4106 51.3116C47.8665 50.27 54.0178 41.2535 54.0178 41.2535C54.0178 41.2535 56.6495 38.5697 57.9927 35.1358C59.335 31.7019 57.9927 29.5036 57.9927 29.5036Z" fill="#407BFF"/>
<path id="Vector_31" opacity="0.6" d="M57.9927 29.5036C53.0216 29.2642 42.9701 41.1166 40.4224 43.2216C37.8747 45.3258 30.8884 45.0108 26.769 41.2535C26.769 41.2535 23.6157 40.6176 22.2549 42.7789C22.2549 42.7789 28.9556 52.3541 38.4106 51.3116C47.8665 50.27 54.0178 41.2535 54.0178 41.2535C54.0178 41.2535 56.6495 38.5697 57.9927 35.1358C59.335 31.7019 57.9927 29.5036 57.9927 29.5036Z" fill="white"/>
</g>
<g id="Group_9">
<path id="Vector_32" d="M144.37 147.739L145.071 149.398L143.437 148.641L137.337 142.332L138.269 141.43L144.37 147.739Z" fill="#263238"/>
<path id="Vector_33" d="M17.8541 13.2086L13.2458 17.664L0.907911 4.90271C0.462711 4.44239 0.475308 3.70906 0.935628 3.26386L3.87731 0.419629C4.33763 -0.0255705 5.07095 -0.0129729 5.51615 0.447347L17.8541 13.2086Z" fill="#263238"/>
<path id="Vector_34" opacity="0.1" d="M17.8541 13.2086L13.2458 17.664L0.907911 4.90271C0.462711 4.44239 0.475308 3.70906 0.935628 3.26386L3.87731 0.419629C4.33763 -0.0255705 5.07095 -0.0129729 5.51615 0.447347L17.8541 13.2086Z" fill="white"/>
<path id="Vector_35" d="M15.694 9.30703L9.41496 15.3777C8.25072 16.5033 8.1852 18.3522 9.2688 19.5559C46.3153 60.7024 84.8621 100.52 124.785 138.881C124.785 138.881 133.512 145.952 141.985 147.763L143.537 146.263C142.012 137.734 135.239 128.774 135.239 128.774C98.2458 87.5807 59.7494 47.7144 19.8746 9.30199C18.7079 8.17807 16.859 8.18143 15.694 9.30703Z" fill="#407BFF"/>
<path id="Vector_36" d="M18.5185 3.4277L7.93447 13.6606C7.57831 14.005 7.56906 14.5728 7.91346 14.929L8.94162 15.9924L19.702 5.58901C35.9552 20.8879 48.2024 34.8815 48.2024 34.8815L47.779 36.0205L51.6103 38.3482C48.4115 31.1385 24.3867 7.72934 19.9347 3.42686C19.5399 3.04466 18.9141 3.0455 18.5185 3.4277Z" fill="#263238"/>
<path id="Vector_37" d="M74.6102 63.7053L61.8057 76.0859L64.1838 78.5455L76.9884 66.1648L74.6102 63.7053Z" fill="#407BFF"/>
<path id="Vector_38" d="M83.5001 99.3278C95.0895 111.031 106.782 122.614 118.573 134.024C119.11 134.543 119.962 134.542 120.499 134.024L130.533 124.322C131.07 123.803 131.1 122.951 130.599 122.398C119.597 110.233 108.414 98.1568 97.1039 86.1759C96.5747 85.6156 95.6885 85.5954 95.1349 86.1314L83.5227 97.3588C82.9675 97.8939 82.9574 98.7801 83.5001 99.3278Z" fill="#263238"/>
<path id="Vector_39" opacity="0.2" d="M74.6102 63.7053L61.8057 76.0859L64.1838 78.5455L76.9884 66.1648L74.6102 63.7053Z" fill="black"/>
<path id="Vector_40" opacity="0.6" d="M18.5185 3.4277L7.93447 13.6606C7.57831 14.005 7.56906 14.5728 7.91346 14.929L8.94162 15.9924L19.702 5.58901C35.9552 20.8879 48.2024 34.8815 48.2024 34.8815L47.779 36.0205L51.6103 38.3482C48.4115 31.1385 24.3867 7.72934 19.9347 3.42686C19.5399 3.04466 18.9141 3.0455 18.5185 3.4277Z" fill="white"/>
<path id="Vector_41" opacity="0.1" d="M83.5001 99.3278C95.0895 111.031 106.782 122.614 118.573 134.024C119.11 134.543 119.962 134.542 120.499 134.024L130.533 124.322C131.07 123.803 131.1 122.951 130.599 122.398C119.597 110.233 108.414 98.1568 97.1039 86.1759C96.5747 85.6156 95.6885 85.5954 95.1349 86.1314L83.5227 97.3588C82.9675 97.8939 82.9574 98.7801 83.5001 99.3278Z" fill="white"/>
</g>
<path id="Vector_42" d="M101.164 83.9688L100.18 85.2825C100.18 85.2825 98.6189 84.8197 97.1455 85.8218C97.1455 85.8218 97.2329 89.1583 97.3698 89.6026C97.6722 90.5796 102.054 93.4817 103.183 93.6371C103.538 93.6859 104.215 91.3515 104.102 90.5552C103.984 89.7169 102.603 87.5186 102.603 87.5186L103.426 86.3468L101.164 83.9688Z" fill="#E4897B"/>
<path id="Vector_43" d="M26.824 42.9469L26.9576 41.8943C26.9576 41.8943 27.6666 42.0691 27.9706 40.8443C28.2747 39.6196 28.8888 36.5939 28.4578 35.8547C28.0269 35.1155 25.3255 32.1865 24.6988 31.6447C24.0722 31.1029 22.6215 33.6598 22.2973 34.8476C21.973 36.0345 23.6152 40.6201 23.6152 40.6201L23.548 42.6125C23.548 42.6125 25.1071 43.6667 26.824 42.9469Z" fill="#E4897B"/>
<g id="Group_10">
<path id="Vector_44" d="M92.0479 45.7734C94.4545 48.5328 102.036 59.7057 104.114 65.1581C107.027 72.8013 104.114 88.18 104.114 88.18L99.0443 84.7822C99.0443 84.7822 99.9952 73.0776 98.6898 68.9238C97.3836 64.77 87.1768 56.9614 87.1768 56.9614C87.1768 56.9614 87.3834 54.6346 88.7064 51.5182C90.2999 47.7676 92.0479 45.7734 92.0479 45.7734Z" fill="#407BFF"/>
<path id="Vector_45" opacity="0.6" d="M104.118 88.1766L99.044 84.783C99.044 84.783 99.9932 73.0818 98.6912 68.9238C97.952 66.5718 94.3484 63.0438 91.3664 60.4314C89.09 58.4322 87.1748 56.9622 87.1748 56.9622C87.1748 56.9622 87.368 54.8202 88.544 51.897C88.5944 51.771 88.6532 51.645 88.7036 51.519C90.2996 47.7642 92.0468 45.7734 92.0468 45.7734C94.4576 48.5286 102.034 59.709 104.118 65.1606C107.024 72.8046 104.118 88.1766 104.118 88.1766Z" fill="white"/>
<path id="Vector_46" opacity="0.2" d="M91.3664 60.4328C89.09 58.4336 87.1748 56.9636 87.1748 56.9636C87.1748 56.9636 87.368 54.8216 88.544 51.8984C89.6948 53.5952 91.1816 56.5016 91.3664 60.4328Z" fill="black"/>
</g>
</g>
</g>
</svg>
