<svg width="134" height="134" viewBox="0 0 134 134" fill="none" xmlns="http://www.w3.org/2000/svg">
<g id="circle-check">
<path id="Path" d="M97.3073 45.0692C100.16 47.922 100.16 52.5806 97.3073 55.4333L63.8073 88.9333C60.9546 91.786 56.296 91.786 53.4433 88.9333L36.6933 72.1833C33.8405 69.3306 33.8405 64.672 36.6933 61.8192C39.546 58.9665 44.2046 58.9665 47.0573 61.8192L58.6253 73.3872L86.9433 45.0692C89.796 42.2165 94.4546 42.2165 97.3073 45.0692Z" fill="#80BB01"/>
<path id="Shape" opacity="0.2" fill-rule="evenodd" clip-rule="evenodd" d="M67 0C29.993 0 0 29.993 0 67C0 104.007 29.993 134 67 134C104.007 134 134 104.007 134 67C134 29.993 104.007 0 67 0ZM97.307 45.068C100.16 47.9207 100.16 52.5793 97.307 55.432L63.807 88.932C60.9543 91.7848 56.2957 91.7848 53.443 88.932L36.693 72.182C33.8402 69.3293 33.8402 64.6707 36.693 61.818C39.5457 58.9652 44.2043 58.9652 47.057 61.818L58.625 73.3859L86.943 45.068C89.7957 42.2152 94.4543 42.2152 97.307 45.068Z" fill="url(#paint0_linear_10159_10288)"/>
</g>
<defs>
<linearGradient id="paint0_linear_10159_10288" x1="67" y1="0" x2="67" y2="226.5" gradientUnits="userSpaceOnUse">
<stop stop-color="#80BB01"/>
<stop offset="1" stop-color="#80BB01" stop-opacity="0.23"/>
</linearGradient>
</defs>
</svg>
