<svg width="65" height="64" viewBox="0 0 65 64" fill="none" xmlns="http://www.w3.org/2000/svg">
<g id="co-living" clip-path="url(#clip0_13603_17103)">
<path id="Vector" d="M56.4 7.19879V33.9988H48V7.19879C48 5.49879 49.4 4.09879 51.1 4.09879H53.3C55 3.99879 56.4 5.39879 56.4 7.19879Z" fill="#45C8F5"/>
<path id="Vector_2" d="M48 8.50156V7.20156C48 5.50156 49.4 4.10156 51.1 4.10156H53.3C55 4.10156 56.4 5.50156 56.4 7.20156V17.0016" stroke="#2B3C65" stroke-width="2" stroke-miterlimit="10" stroke-linecap="round" stroke-linejoin="round"/>
<path id="Vector_3" d="M57.8002 32.7984V62.2984H7.2002V32.7984L31.8002 8.19844C32.2002 7.79844 32.9002 7.79844 33.3002 8.19844L57.8002 32.7984Z" fill="#C9D8EF"/>
<path id="Vector_4" d="M57.8002 32.8031V62.3031H7.2002V56.7031H22.7002C39.0002 56.7031 52.2002 43.5031 52.2002 27.2031L57.8002 32.8031Z" fill="#B2CBEA"/>
<path id="Vector_5" d="M58.2004 33.2031L33.2004 8.20312C32.8004 7.80312 32.1004 7.80312 31.7004 8.20312L6.70039 33.2031C5.50039 34.4031 3.50039 34.4031 2.30039 33.2031C1.10039 32.0031 1.10039 30.0031 2.30039 28.8031L27.3004 3.80312C30.1004 1.00312 34.7004 1.00312 37.6004 3.80312L62.6004 28.8031C63.8004 30.0031 63.8004 32.0031 62.6004 33.2031C61.4004 34.4031 59.4004 34.4031 58.2004 33.2031Z" fill="#F27DAD"/>
<path id="Vector_6" d="M58.2004 33.2031L33.2004 8.20312C32.8004 7.80312 32.1004 7.80312 31.7004 8.20312L6.70039 33.2031C5.50039 34.4031 3.50039 34.4031 2.30039 33.2031C1.10039 32.0031 1.10039 30.0031 2.30039 28.8031L27.3004 3.80312C30.1004 1.00312 34.7004 1.00312 37.6004 3.80312L62.6004 28.8031C63.8004 30.0031 63.8004 32.0031 62.6004 33.2031C61.4004 34.4031 59.4004 34.4031 58.2004 33.2031Z" stroke="#2B3C65" stroke-width="2" stroke-miterlimit="10" stroke-linecap="round" stroke-linejoin="round"/>
<path id="Vector_7" d="M57.7998 58.3016V37.6016" stroke="#2B3C65" stroke-width="2" stroke-miterlimit="10" stroke-linecap="round" stroke-linejoin="round"/>
<path id="Vector_8" d="M7.2002 58.3016V37.6016" stroke="#2B3C65" stroke-width="2" stroke-miterlimit="10" stroke-linecap="round" stroke-linejoin="round"/>
<path id="Vector_9" d="M34.9004 53.9969V62.2969H10.9004V53.9969C10.9004 52.1969 11.6004 50.6969 12.7004 49.3969C13.0004 48.9969 13.3004 48.6969 13.7004 48.3969C15.0004 47.3969 16.6004 46.7969 18.4004 46.7969H27.5004C29.1004 46.7969 30.5004 47.2969 31.7004 48.1969C33.6004 49.4969 34.8004 51.5969 34.9004 53.9969Z" fill="#45C8F5"/>
<path id="Vector_10" d="M10.9004 58.2984V53.9984C10.9004 53.5984 11.0004 53.0984 11.1004 52.6984C11.1004 52.4984 11.2004 52.2984 11.3004 52.0984C11.4004 51.8984 11.4004 51.6984 11.5004 51.4984C11.6004 51.2984 11.7004 51.0984 11.7004 50.9984C11.7004 50.9984 11.7004 50.9984 11.7004 50.8984C11.8004 50.6984 11.9004 50.5984 12.0004 50.3984C12.6004 49.4984 13.3004 48.6984 14.2004 48.0984C14.4004 47.9984 14.5004 47.8984 14.7004 47.7984C15.1004 47.5984 15.4004 47.3984 15.8004 47.2984C16.0004 47.1984 16.2004 47.1984 16.4004 47.0984C16.6004 46.9984 16.8004 46.9984 17.0004 46.9984C17.0004 46.9984 17.0004 46.9984 17.1004 46.9984C17.5004 46.8984 17.9004 46.8984 18.3004 46.8984H20.1004H25.6004H27.5004H27.6004" stroke="#2B3C65" stroke-width="2" stroke-miterlimit="10" stroke-linecap="round" stroke-linejoin="round"/>
<path id="Vector_11" d="M25.6998 44.2969V46.6969C25.6998 47.4969 25.3998 48.0969 24.8998 48.5969C24.3998 49.0969 23.6998 49.3969 22.9998 49.3969C21.4998 49.3969 20.2998 48.1969 20.2998 46.6969V44.2969H25.6998Z" fill="#FECB4D" stroke="#2B3C65" stroke-width="2" stroke-miterlimit="10" stroke-linecap="round" stroke-linejoin="round"/>
<path id="Vector_12" d="M28.3 34.8984V40.7984C28.3 43.7984 25.9 46.1984 22.9 46.1984C19.9 46.1984 17.5 43.7984 17.5 40.7984V34.8984H28.3Z" fill="#FECB4D" stroke="#2B3C65" stroke-width="2" stroke-miterlimit="10" stroke-linecap="round" stroke-linejoin="round"/>
<path id="Vector_13" d="M28.2998 38.7966C28.2998 38.7966 28.0998 38.5966 27.8998 38.2966C27.5998 37.8966 27.1998 37.2966 26.8998 36.3966C26.6998 35.8966 26.0998 35.5966 25.5998 35.7966C24.4998 36.1966 22.5998 36.6966 20.3998 35.6966C19.8998 35.4966 19.2998 35.6966 19.0998 36.2966C18.6998 37.1966 18.1998 38.3966 17.4998 38.6966C17.3998 38.7966 15.6998 32.6966 18.7998 32.1966C18.7998 32.1966 23.8998 26.6966 28.3998 33.8966C28.5998 34.1966 28.5998 34.3966 28.6998 34.6966C28.7998 35.8966 28.8998 38.0966 28.2998 38.7966Z" fill="#F27DAD"/>
<path id="Vector_14" d="M28.2998 38.7966C28.2998 38.7966 28.0998 38.5966 27.8998 38.2966C27.5998 37.8966 27.1998 37.2966 26.8998 36.3966C26.6998 35.8966 26.0998 35.5966 25.5998 35.7966C24.4998 36.1966 22.5998 36.6966 20.3998 35.6966C19.8998 35.4966 19.2998 35.6966 19.0998 36.2966C18.6998 37.1966 18.1998 38.3966 17.4998 38.6966C17.3998 38.7966 15.6998 32.6966 18.7998 32.1966C18.7998 32.1966 23.8998 26.6966 28.3998 33.8966C28.5998 34.1966 28.5998 34.3966 28.6998 34.6966C28.7998 35.8966 28.8998 38.0966 28.2998 38.7966Z" stroke="#2B3C65" stroke-width="2" stroke-miterlimit="10" stroke-linecap="round" stroke-linejoin="round"/>
<path id="Vector_15" d="M54.1002 53.5975V62.2975H29.2002V53.5975C29.3002 51.4975 30.2002 49.4975 31.7002 48.1975C33.1002 46.8975 34.9002 46.1975 36.9002 46.1975H46.3002C50.5002 46.0975 53.9002 49.3975 54.1002 53.5975Z" fill="#C9D8EF"/>
<path id="Vector_16" d="M29.2002 58.3031V53.6031C29.3002 51.5031 30.2002 49.5031 31.7002 48.2031C33.1002 46.9031 34.9002 46.2031 36.9002 46.2031H38.8002H44.5002H46.4002C50.6002 46.2031 54.0002 49.5031 54.1002 53.6031V58.3031" stroke="#2B3C65" stroke-width="2" stroke-miterlimit="10" stroke-linecap="round" stroke-linejoin="round"/>
<path id="Vector_17" d="M44.5004 43.5V46C44.5004 46.8 44.2004 47.5 43.7004 48C43.2004 48.5 42.5004 48.8 41.7004 48.8C40.1004 48.8 38.9004 47.5 38.9004 46V43.5H44.5004Z" fill="#FECB4D" stroke="#2B3C65" stroke-width="2" stroke-miterlimit="10" stroke-linecap="round" stroke-linejoin="round"/>
<path id="Vector_18" d="M47.2996 33.7969V39.9969C47.2996 43.0969 44.7996 45.5969 41.6996 45.5969C38.5996 45.5969 36.0996 43.0969 36.0996 39.9969V33.7969H47.2996Z" fill="#FECB4D" stroke="#2B3C65" stroke-width="2" stroke-miterlimit="10" stroke-linecap="round" stroke-linejoin="round"/>
<path id="Vector_19" d="M47.2998 37.8972C47.2998 37.8972 47.0998 37.6972 46.8998 37.3972C46.5998 36.9972 46.1998 36.2972 45.8998 35.3972C45.6998 34.8972 45.0998 34.5972 44.4998 34.7972C43.3998 35.2972 41.3998 35.6972 39.0998 34.6972C38.5998 34.4972 37.8998 34.6972 37.6998 35.2972C37.2998 36.1972 36.6998 37.4972 36.0998 37.7972C35.9998 37.8972 34.1998 31.5972 37.4998 31.0972C37.4998 31.0972 42.7998 25.3972 47.4998 32.8972C47.6998 33.1972 47.7998 33.4972 47.7998 33.7972C47.7998 34.7972 47.7998 37.0972 47.2998 37.8972Z" fill="#F27DAD"/>
<path id="Vector_20" d="M47.2998 37.8972C47.2998 37.8972 47.0998 37.6972 46.8998 37.3972C46.5998 36.9972 46.1998 36.2972 45.8998 35.3972C45.6998 34.8972 45.0998 34.5972 44.4998 34.7972C43.3998 35.2972 41.3998 35.6972 39.0998 34.6972C38.5998 34.4972 37.8998 34.6972 37.6998 35.2972C37.2998 36.1972 36.6998 37.4972 36.0998 37.7972C35.9998 37.8972 34.1998 31.5972 37.4998 31.0972C37.4998 31.0972 42.7998 25.3972 47.4998 32.8972C47.6998 33.1972 47.7998 33.4972 47.7998 33.7972C47.7998 34.7972 47.7998 37.0972 47.2998 37.8972Z" stroke="#2B3C65" stroke-width="2" stroke-miterlimit="10" stroke-linecap="round" stroke-linejoin="round"/>
<path id="Vector_21" d="M63.5 62.2969H57.8H54.1H34.9H29.7H29.2H10.9H7.2H1.5" stroke="#2B3C65" stroke-width="2" stroke-miterlimit="10" stroke-linecap="round" stroke-linejoin="round"/>
</g>
<defs>
<clipPath id="clip0_13603_17103">
<rect width="64" height="64" fill="white" transform="translate(0.5)"/>
</clipPath>
</defs>
</svg>
