<svg width="27" height="20" viewBox="0 0 27 20" fill="none" xmlns="http://www.w3.org/2000/svg">
<g id="envelope">
<path id="Path" d="M24.2952 0C25.6445 0 26.7392 1.09129 26.7392 2.4375C26.7392 3.2043 26.3777 3.92539 25.7616 4.3875L14.6822 12.675C14.1017 13.1066 13.3074 13.1066 12.727 12.675L1.64752 4.3875C1.03209 3.92539 0.669922 3.2043 0.669922 2.4375C0.669922 1.09129 1.76412 0 3.11392 0H24.2952Z" fill="#5246ED"/>
<path id="Path_2" opacity="0.4" d="M1.64752 4.3875L12.727 12.675C13.3074 13.1066 14.1017 13.1066 14.6822 12.675L25.7616 4.3875C26.3777 3.92539 26.7392 3.2043 26.7392 2.4375V16.25C26.7392 18.0426 25.2779 19.5 23.4806 19.5H3.92859C2.12868 19.5 0.669922 18.0426 0.669922 16.25V2.4375C0.669922 3.2043 1.03209 3.92539 1.64752 4.3875Z" fill="#5246ED"/>
</g>
</svg>
