<svg width="56" height="55" viewBox="0 0 56 55" fill="none" xmlns="http://www.w3.org/2000/svg">
<g id="exit">
<path id="Vector" d="M39.7404 46.2008C40.0348 46.2008 40.3172 46.0849 40.5254 45.8786C40.7336 45.6723 40.8505 45.3925 40.8505 45.1008V17.6008C40.8505 15.2669 39.9149 13.0286 38.2494 11.3782C36.5839 9.72792 34.3251 8.80078 31.9698 8.80078H23.5331C21.1778 8.80078 18.9189 9.72792 17.2535 11.3782C15.588 13.0286 14.6523 15.2669 14.6523 17.6008V18.7008C14.6523 18.9925 14.7693 19.2723 14.9775 19.4786C15.1857 19.6849 15.468 19.8008 15.7624 19.8008C16.0569 19.8008 16.3392 19.6849 16.5474 19.4786C16.7556 19.2723 16.8725 18.9925 16.8725 18.7008V17.6008C16.8725 15.8504 17.5743 14.1716 18.8234 12.9339C20.0725 11.6961 21.7666 11.0008 23.5331 11.0008H31.9698C33.7363 11.0008 35.4304 11.6961 36.6795 12.9339C37.9286 14.1716 38.6303 15.8504 38.6303 17.6008V45.1008C38.6303 45.3925 38.7473 45.6723 38.9555 45.8786C39.1636 46.0849 39.446 46.2008 39.7404 46.2008Z" fill="#5246ED"/>
<path id="Vector_2" fill-rule="evenodd" clip-rule="evenodd" d="M36.752 35.5C36.752 41.2989 31.827 46 25.752 46C19.6768 46 14.752 41.2989 14.752 35.5C14.752 29.701 19.6768 25 25.752 25C31.827 25 36.752 29.701 36.752 35.5ZM30.1853 32.3182C30.5075 32.6257 30.5075 33.1243 30.1853 33.4318L24.6853 38.6818C24.3631 38.9894 23.8408 38.9894 23.5186 38.6818L21.3186 36.5818C20.9964 36.2743 20.9964 35.7757 21.3186 35.4682C21.6408 35.1606 22.1631 35.1606 22.4853 35.4682L24.102 37.0113L26.5602 34.6647L29.0186 32.3182C29.3408 32.0106 29.8631 32.0106 30.1853 32.3182Z" fill="url(#paint0_linear_3554_24315)"/>
</g>
<defs>
<linearGradient id="paint0_linear_3554_24315" x1="25.752" y1="25" x2="25.752" y2="46" gradientUnits="userSpaceOnUse">
<stop stop-color="#53ED46"/>
<stop offset="1" stop-color="#85A6CB"/>
</linearGradient>
</defs>
</svg>
