<svg width="56" height="55" viewBox="0 0 56 55" fill="none" xmlns="http://www.w3.org/2000/svg">
<g id="exit">
<path id="Vector" d="M39.9894 46.2008C40.2839 46.2008 40.5662 46.0849 40.7744 45.8786C40.9826 45.6723 41.0995 45.3925 41.0995 45.1008V17.6008C41.0995 15.2669 40.1639 13.0286 38.4984 11.3782C36.833 9.72792 34.5741 8.80078 32.2188 8.80078H23.7821C21.4268 8.80078 19.1679 9.72792 17.5025 11.3782C15.837 13.0286 14.9014 15.2669 14.9014 17.6008V18.7008C14.9014 18.9925 15.0183 19.2723 15.2265 19.4786C15.4347 19.6849 15.717 19.8008 16.0115 19.8008C16.3059 19.8008 16.5882 19.6849 16.7964 19.4786C17.0046 19.2723 17.1216 18.9925 17.1216 18.7008V17.6008C17.1216 15.8504 17.8233 14.1716 19.0724 12.9339C20.3215 11.6961 22.0156 11.0008 23.7821 11.0008H32.2188C33.9853 11.0008 35.6794 11.6961 36.9285 12.9339C38.1776 14.1716 38.8793 15.8504 38.8793 17.6008V45.1008C38.8793 45.3925 38.9963 45.6723 39.2045 45.8786C39.4127 46.0849 39.695 46.2008 39.9894 46.2008Z" fill="#5246ED"/>
<path id="Vector_2" d="M31.8031 16.9587C31.8036 16.1436 31.56 15.3466 31.1032 14.6686C30.6465 13.9907 29.997 13.4622 29.2371 13.15C28.4772 12.8379 27.6409 12.7561 26.834 12.915C26.0272 13.0739 25.286 13.4664 24.7043 14.0428C24.1226 14.6192 23.7265 15.3537 23.5661 16.1532C23.4057 16.9527 23.4883 17.7814 23.8033 18.5344C24.1183 19.2875 24.6516 19.931 25.3358 20.3836C26.02 20.8362 26.8243 21.0776 27.647 21.0771C28.7487 21.0754 29.8048 20.6409 30.5839 19.869C31.3629 19.097 31.8014 18.0505 31.8031 16.9587ZM25.7087 16.9587C25.7083 16.5788 25.8216 16.2072 26.0343 15.8911C26.247 15.575 26.5496 15.3285 26.9037 15.1828C27.2578 15.0371 27.6476 14.9987 28.0237 15.0726C28.3998 15.1464 28.7454 15.3292 29.0167 15.5977C29.288 15.8662 29.4728 16.2084 29.5478 16.581C29.6227 16.9537 29.5845 17.3399 29.4378 17.691C29.2912 18.0421 29.0428 18.3422 28.724 18.5533C28.4052 18.7644 28.0304 18.8771 27.647 18.8771C27.1335 18.8766 26.6412 18.6743 26.2779 18.3147C25.9146 17.9552 25.7099 17.4676 25.7087 16.9587ZM28.1465 42.3159H29.0812C29.4667 42.3156 29.8461 42.4111 30.1847 42.5936C30.5233 42.7762 30.8103 43.04 31.0194 43.3609L32.5469 45.6973C32.6475 45.8518 32.7855 45.9789 32.9484 46.0669C33.1113 46.1549 33.2938 46.2011 33.4794 46.2011C33.6786 46.2007 33.8741 46.1471 34.0453 46.0459C34.2164 45.9448 34.3569 45.7999 34.4521 45.6264C34.5473 45.4529 34.5935 45.2572 34.586 45.0599C34.5786 44.8626 34.5176 44.6709 34.4096 44.5049L32.8844 42.1663C32.475 41.5363 31.9124 41.0183 31.2482 40.66C30.584 40.3018 29.8396 40.1147 29.0834 40.1159H28.1487C27.8543 40.1159 27.5719 40.2318 27.3638 40.4381C27.1556 40.6444 27.0386 40.9242 27.0386 41.2159C27.0386 41.5077 27.1556 41.7875 27.3638 41.9938C27.5719 42.2 27.8543 42.3159 28.1487 42.3159H28.1465Z" fill="#B1B1F5"/>
<path id="Vector_3" d="M19.0512 46.0392C19.2251 46.1442 19.4248 46.1998 19.6285 46.1998C19.8191 46.2004 20.0067 46.1523 20.1731 46.0602C20.3395 45.9681 20.4792 45.8351 20.5787 45.674L24.8592 38.7198H27.6478C28.531 38.7198 29.3781 38.3721 30.0026 37.7533C30.6272 37.1344 30.9781 36.295 30.9781 35.4198V34.4738C30.9781 34.1821 30.8611 33.9023 30.6529 33.696C30.4447 33.4897 30.1624 33.3738 29.868 33.3738C29.5736 33.3738 29.2912 33.4897 29.083 33.696C28.8748 33.9023 28.7579 34.1821 28.7579 34.4738V35.4198C28.7579 35.7116 28.6409 35.9914 28.4327 36.1976C28.2246 36.4039 27.9422 36.5198 27.6478 36.5198H24.2265C23.9321 36.5198 23.6497 36.4039 23.4415 36.1976C23.2333 35.9914 23.1164 35.7116 23.1164 35.4198V27.1302C23.1233 26.4495 23.3852 25.7956 23.8513 25.2954L23.9756 25.1414C24.3689 24.7585 24.8677 24.4994 25.4092 24.3965C25.9507 24.2936 26.5109 24.3515 27.0192 24.5631C27.5276 24.7747 27.9615 25.1304 28.2665 25.5856C28.5715 26.0407 28.734 26.5751 28.7335 27.1214V28.8198C28.737 29.5773 29.0422 30.3027 29.5827 30.8383C30.1232 31.3739 30.8553 31.6764 31.6197 31.6798H33.3958C33.6903 31.6798 33.9726 31.5639 34.1808 31.3576C34.389 31.1514 34.5059 30.8716 34.5059 30.5798C34.5059 30.2881 34.389 30.0083 34.1808 29.802C33.9726 29.5957 33.6903 29.4798 33.3958 29.4798H31.6197C31.5322 29.4798 31.4456 29.4628 31.3648 29.4296C31.284 29.3964 31.2106 29.3478 31.1487 29.2865C31.0869 29.2252 31.0378 29.1525 31.0043 29.0724C30.9709 28.9923 30.9536 28.9065 30.9536 28.8198V27.1236C30.9525 25.8028 30.4226 24.5364 29.4803 23.6022C28.5379 22.668 27.2601 22.1424 25.9271 22.1406C24.7493 22.145 23.6111 22.5628 22.7145 23.3198C22.5788 23.3908 22.4587 23.4881 22.3615 23.6058L22.2372 23.7642C22.0431 23.9689 21.8671 24.1897 21.711 24.4242L19.0268 27.81C18.0259 28.8273 17.4679 30.1931 17.4727 31.6138V33.1912C17.4727 33.483 17.5896 33.7628 17.7978 33.969C18.006 34.1753 18.2884 34.2912 18.5828 34.2912C18.8772 34.2912 19.1595 34.1753 19.3677 33.969C19.5759 33.7628 19.6929 33.483 19.6929 33.1912V31.6138C19.6959 31.1754 19.7861 30.7418 19.9583 30.3379C20.1304 29.934 20.3813 29.5676 20.6964 29.2598L20.9184 28.9936V35.4198C20.9212 35.9921 21.0741 36.5538 21.3621 37.0498C21.6502 37.5458 22.0634 37.9591 22.5613 38.249L18.676 44.5256C18.6001 44.6493 18.5495 44.7867 18.5273 44.9298C18.5051 45.0729 18.5116 45.219 18.5464 45.3596C18.5813 45.5003 18.6438 45.6327 18.7305 45.7493C18.8171 45.8659 18.9261 45.9644 19.0512 46.0392Z" fill="#B1B1F5"/>
</g>
</svg>
