<svg width="23" height="20" viewBox="0 0 23 20" fill="none" xmlns="http://www.w3.org/2000/svg">
<g id="file-signature">
<path id="Shape" fill-rule="evenodd" clip-rule="evenodd" d="M10 5V0L15 5H10ZM11.4375 13.375L18.4922 6.35938L21.1441 9.01066L14.1285 16.0654C14.0113 16.1835 13.8517 16.25 13.6852 16.25H11.25V13.8164C11.25 13.6484 11.3164 13.4883 11.4375 13.375Z" fill="#5246ED"/>
<path id="Shape_2" opacity="0.4" fill-rule="evenodd" clip-rule="evenodd" d="M1.875 0H10V5H15V9.83203L11.4346 13.3727C11.3164 13.4904 11.25 13.65 11.25 13.8164V14.9993L10 14.9922C9.85156 14.9805 9.70703 14.8906 9.63398 14.748C9.17031 13.8156 7.82734 13.5617 7.05586 14.1965L6.51367 12.5703C6.38672 12.1846 6.03125 11.9258 5.625 11.9258C5.21875 11.9258 4.86328 12.1836 4.73633 12.5682L4.02344 14.7021C3.96504 14.8779 3.79902 15 3.60859 15H3.125C2.77852 15 2.5 15.2773 2.5 15.625C2.5 15.9727 2.77852 16.25 3.125 16.25H3.60938C4.30078 16.25 4.98047 15.7852 5.21094 15.0977L5.625 13.8516L6.28281 15.8203C6.36094 16.0645 6.57812 16.2305 6.83203 16.25H6.875C7.07422 16.25 7.32812 16.1172 7.43168 15.9025L7.73438 15.3018C7.8418 15.0869 8.04297 15.0625 8.125 15.0625C8.20703 15.0625 8.41016 15.0898 8.52305 15.3164C8.80664 15.8834 9.37227 16.235 10 16.2461L13.6836 16.25C13.8516 16.25 14.0117 16.1836 14.1285 16.0652L15 15.1879V18.125C15 19.1605 14.1605 20 13.125 20H1.875C0.839453 20 0 19.1602 0 18.125V1.875C0 0.839453 0.839453 0 1.875 0ZM20.9609 5.29297L22.207 6.53906C22.5977 6.92578 22.5977 7.55469 22.2062 7.94453L21.1418 9.00898L18.4902 6.35742L19.5547 5.29297C19.9453 4.90234 20.5752 4.90234 20.9609 5.29297Z" fill="#5246ED"/>
</g>
</svg>
