<svg width="20" height="20" viewBox="0 0 20 20" fill="none" xmlns="http://www.w3.org/2000/svg">
<g id="file-certificate">
<path id="Shape" fill-rule="evenodd" clip-rule="evenodd" d="M15 0V5H20L15 0ZM9.66404 9.46484L9.566 9.36531C9.21451 9.00898 9.14421 8.93771 9.05076 8.625C9.02744 8.54985 9.00411 8.46095 8.97509 8.35032C8.96036 8.29418 8.94417 8.23244 8.92576 8.16406C8.89841 8.0625 8.86326 7.96875 8.81248 7.88281C8.66404 7.62109 8.41794 7.42578 8.12107 7.34375C8.06392 7.32812 8.01136 7.31392 7.96282 7.30081L7.96281 7.30081C7.58667 7.1992 7.45165 7.16272 7.28904 7.03125C7.26713 7.01299 7.24447 6.99284 7.21927 6.97044L7.21924 6.97042C7.16358 6.92092 7.09555 6.86044 6.99607 6.78516C6.98599 6.75694 6.95511 6.7256 6.92221 6.69221C6.89136 6.66089 6.85873 6.62778 6.83982 6.59375C6.76635 6.51734 6.68404 6.45862 6.59621 6.39597L6.59618 6.39595C6.56728 6.37532 6.53777 6.35428 6.50779 6.33203C6.47788 6.35072 6.45156 6.3408 6.42196 6.32964L6.41794 6.32812C6.29685 6.28125 6.16404 6.25 6.03123 6.25C5.94265 6.25 5.85406 6.25964 5.76548 6.28184C5.75931 6.2637 5.7519 6.27322 5.74543 6.28152C5.74284 6.28486 5.7404 6.28799 5.73826 6.28906L5.67001 6.30782L5.67 6.30782C5.31942 6.40426 5.15595 6.44922 4.96482 6.44922C4.81728 6.44922 4.67036 6.40889 4.37653 6.32825L4.37652 6.32824L4.22966 6.28809C4.16794 6.26172 4.06638 6.25 3.96873 6.25C3.83513 6.25 3.70545 6.28125 3.58123 6.32812L3.5787 6.32909C3.54881 6.34046 3.52104 6.35103 3.49216 6.33203C3.46096 6.35526 3.43014 6.37718 3.39992 6.39868L3.39989 6.3987L3.39988 6.39871C3.31325 6.46034 3.23156 6.51846 3.15974 6.59375C3.12186 6.63188 3.08684 6.6673 3.05425 6.70027C2.83352 6.92351 2.72436 7.03392 2.59479 7.1092C2.468 7.18286 2.32168 7.22289 2.03218 7.30208C1.9855 7.31485 1.93509 7.32864 1.88045 7.34375C1.48513 7.45312 1.17576 7.76562 1.07341 8.16406C1.05624 8.22908 1.04089 8.28822 1.02685 8.3423L1.02684 8.34231C0.975091 8.54164 0.941233 8.67204 0.900367 8.77344C0.824636 8.96876 0.72696 9.06789 0.459029 9.33981L0.458825 9.34002C0.42139 9.37801 0.380632 9.41937 0.336148 9.46484C0.262906 9.53516 0.202633 9.61719 0.152554 9.70703C0.00241767 9.96875 -0.0405706 10.2852 0.0399763 10.5898C0.0519772 10.6348 0.0632926 10.677 0.0739249 10.7166C0.158378 11.031 0.199736 11.185 0.19928 11.3388C0.198841 11.4865 0.159889 11.6341 0.0835545 11.9232C0.0701749 11.9739 0.0556467 12.0289 0.0399763 12.0891C-0.0405706 12.3894 0.00241376 12.7063 0.152554 12.9695C0.202593 13.0573 0.262906 13.1391 0.336148 13.2123C0.377498 13.2547 0.415616 13.2936 0.450833 13.3294L0.450952 13.3296C0.783591 13.6686 0.85732 13.7437 0.950211 14.0514C0.972745 14.1261 0.995788 14.2146 1.02427 14.3239L1.02427 14.3239L1.02428 14.324C1.039 14.3805 1.05516 14.4425 1.07345 14.5111C1.17599 14.9166 1.48517 15.2291 1.88087 15.3361L2.04032 15.379C2.2078 15.4241 2.2875 15.4455 2.33712 15.4613C2.38263 15.4757 2.40315 15.4855 2.44282 15.5043L2.44286 15.5044C2.45835 15.5117 2.47676 15.5205 2.50072 15.5314V20L5.00033 18.75L7.49994 20V15.5312C7.5214 15.5212 7.53829 15.5129 7.55265 15.5059C7.57168 15.4967 7.58627 15.4896 7.60114 15.4831C7.64984 15.4621 7.70164 15.4482 7.92308 15.3888C7.97757 15.3742 8.04234 15.3568 8.11986 15.3359C8.41642 15.2554 8.66322 15.0595 8.81166 14.7953C8.86111 14.7074 8.89982 14.6119 8.92544 14.5106C8.94149 14.45 8.95598 14.3946 8.96932 14.3435L8.96936 14.3434L8.96938 14.3433C9.00064 14.2237 9.02553 14.1284 9.04923 14.0489C9.1413 13.7391 9.21276 13.6669 9.55174 13.324L9.66252 13.2118C9.95548 12.9188 10.068 12.4891 9.96037 12.0887C9.9447 12.0286 9.93017 11.9736 9.91679 11.9229C9.84049 11.6341 9.80154 11.4866 9.80106 11.339C9.80057 11.185 9.84193 11.031 9.92642 10.7162C9.93705 10.6766 9.94837 10.6345 9.96037 10.5895C10.0664 10.1875 9.95701 9.75781 9.66404 9.46484ZM4.49568 13.6993C4.65853 13.7326 4.82724 13.75 4.99998 13.75C6.38279 13.75 7.49959 12.632 7.49959 11.25C7.49959 9.86797 6.38162 8.75 4.99998 8.75C4.8281 8.75 4.66013 8.76562 4.49646 8.80059C4.17068 8.86711 3.8683 8.99695 3.60232 9.17656C3.3363 9.35625 3.10685 9.58559 2.92732 9.85156C2.65783 10.2508 2.50076 10.7305 2.50076 11.25C2.50076 11.7695 2.65779 12.25 2.92654 12.6484C3.10623 12.9144 3.33564 13.1436 3.60154 13.3234C3.86755 13.503 4.17005 13.6328 4.49568 13.6993Z" fill="#5246ED"/>
<path id="Path" opacity="0.4" d="M15 5V0H6.875C5.83984 0 5 0.839453 5 1.875L5.00003 5.19297C5.06768 5.17786 5.14862 5.15344 5.26093 5.12293L5.40917 5.08266C5.61175 5.02773 5.82089 4.9998 6.03026 4.9998C6.66425 4.9998 7.28417 5.26059 7.73143 5.71543L7.83854 5.82453C7.92331 5.91121 7.98261 5.97559 8.03491 6.02383C8.10096 6.0455 8.1837 6.06547 8.29675 6.09629L8.44714 6.1375C9.27136 6.36332 9.91393 7.01328 10.1323 7.83945L10.1762 8.00555C10.2071 8.12305 10.2267 8.20789 10.2486 8.27547C10.2971 8.33055 10.3627 8.39281 10.4521 8.48344L10.5463 8.57895C11.1541 9.19496 11.3908 10.0821 11.1666 10.918L11.1333 11.042C11.0985 11.172 11.071 11.2625 11.0558 11.3373C11.0703 11.4062 11.0938 11.4883 11.125 11.6055L11.1673 11.7666C11.3904 12.5982 11.1524 13.4912 10.5533 14.09L10.441 14.2039C10.3568 14.289 10.2943 14.3485 10.2477 14.401C10.2258 14.4692 10.206 14.555 10.175 14.6736L10.1366 14.8191C9.95112 15.5523 9.43268 16.1496 8.74909 16.4391L8.71484 20H18.125C19.1605 20 20 19.1605 20 18.125V5H15Z" fill="#5246ED"/>
</g>
</svg>
