<svg width="727" height="555" viewBox="0 0 727 555" fill="none" xmlns="http://www.w3.org/2000/svg">
<g clip-path="url(#clip0_7230_10359)">
<g style="mix-blend-mode:multiply" opacity="0.3">
<path d="M91.4798 518.667L45.3638 537.847C32.0662 543.369 13.9979 541.063 4.9951 532.677C-4.00773 524.292 -0.526772 513.013 12.7709 507.476L58.8868 488.296C72.1844 482.774 90.2527 485.08 99.2556 493.466C108.258 501.851 104.777 513.13 91.4798 518.667Z" fill="#BBD1EA"/>
</g>
<g style="mix-blend-mode:multiply" opacity="0.3">
<path d="M206.16 505.935C209.916 502.704 213.109 499.928 215.951 497.52C240.393 476.856 235.309 481.071 260.966 450.627C272.923 437.145 286.309 415.718 271.183 410.505C265.724 408.273 245.94 410.255 244.625 410.725C230.702 416.203 219.908 414.176 207.562 409.712C195.366 405.247 197.345 389.283 207.562 383.336C208.276 381.368 248.707 372.791 248.707 372.791C296.514 362.1 316.861 361.38 378.729 364.714C386.029 361.174 381.308 364.141 402.256 349.411C405.699 341.833 411.948 338.999 409.681 340.438L689.37 162.722C695.818 158.639 704.696 159.212 714.488 165.41C734.221 177.893 750.211 208.44 750.211 233.641C750.211 246.33 746.167 255.244 739.618 259.385L459.942 437.087C460.831 436.528 456.574 439.877 450 439.671L426.109 453.271C414.289 475.637 412.373 476.078 375.511 516.714C347.701 536.173 360.159 529.388 320.968 546.424C309.598 550.345 303.25 543.193 305.003 537.084C305.003 537.025 305.028 536.996 305.028 536.922C276.517 552.71 271.609 557.82 261.279 553.576C255.494 551.271 251.888 546.204 253.991 541.578L243.373 547.305C227.584 556.616 209.641 543.061 223.627 528.625C219.821 531.268 218.381 531.165 217.066 531.811C201.878 536.1 191.272 517.904 206.16 505.935ZM411.534 339.439C411.309 339.542 411.084 339.645 410.871 339.747C411.084 339.63 411.309 339.542 411.534 339.439ZM418.647 337.838C418.384 337.838 418.108 337.838 417.845 337.853C418.108 337.838 418.384 337.853 418.647 337.838ZM417.131 337.926C416.868 337.956 416.606 337.97 416.355 338C416.606 337.97 416.868 337.941 417.131 337.926ZM415.654 338.132C415.404 338.176 415.153 338.22 414.915 338.264C415.153 338.205 415.416 338.176 415.654 338.132ZM412.862 338.881C412.636 338.969 412.398 339.043 412.173 339.145C412.398 339.057 412.636 338.969 412.862 338.881ZM462.333 435.265C462.158 435.427 461.97 435.574 461.782 435.721C461.97 435.574 462.146 435.427 462.333 435.265ZM465.789 431.065C465.914 430.86 466.052 430.669 466.177 430.463C466.052 430.669 465.914 430.874 465.789 431.065ZM463.924 433.606C464.086 433.415 464.249 433.239 464.412 433.048C464.262 433.239 464.086 433.43 463.924 433.606ZM464.888 432.387C465.038 432.181 465.188 431.99 465.339 431.77C465.188 431.976 465.038 432.181 464.888 432.387Z" fill="#BBD1EA"/>
</g>
<path d="M200.827 427.423C185.576 444.165 205.147 459.894 222.376 449.1L233.958 442.447C233.645 443.181 233.457 443.916 233.357 444.621C232.756 449.364 236.462 454.064 241.909 456.369C252.84 461.142 260.078 454.534 275.479 445.428L282.654 441.169L289.64 437.057C289.64 437.057 289.603 437.175 289.603 437.234C287.687 444.327 294.611 452.624 307.02 448.072L341.842 431.991L366.521 413.618L399.69 374.759C407.303 365.83 413.902 355.77 419.324 344.858L436.616 310.082L489.418 283.427L449.149 196.5L370.052 237.327C370.052 237.327 313.656 234.096 289.565 235.961C265.449 237.841 228.211 246.682 228.211 246.682C228.211 246.682 184.123 256.639 183.334 258.916C172.19 265.818 170.024 284.337 183.334 289.507C196.795 294.691 208.577 297.041 223.728 290.682C223.853 290.652 223.941 290.608 224.041 290.579C224.041 290.579 225.293 290.432 227.234 290.241C233.119 289.609 245.553 288.508 249.873 289.507C250.912 289.771 251.876 290.065 252.728 290.432C253.729 290.799 254.606 291.284 255.395 291.798C266.038 299.141 256.96 318.541 241.584 336.972C225.957 356.695 220.761 363.818 215.339 369.766C214.462 370.764 213.548 371.719 212.584 372.674C208.953 376.419 204.508 380.428 196.582 387.624C195.33 388.799 193.978 390.018 192.513 391.34C189.382 394.174 185.876 397.405 181.769 401.15C163.263 416.981 180.893 442.139 200.839 427.453L200.827 427.423Z" fill="#FFB294"/>
<g style="mix-blend-mode:multiply" opacity="0.5">
<path d="M307.796 411.638C330.66 396.761 323.598 401.651 339.65 389.594L330.397 399.712C332.2 400.447 334.053 401.387 335.581 402.473C338.01 404.148 340.302 406.644 340.99 409.846C338.887 404.632 332.501 402.797 327.58 402.415C322.233 404.691 314.395 411.197 311.678 413.532C317.375 416.66 323.072 422.05 323.999 429.569C321.933 421.286 314.057 416.969 307.784 415.515C295.438 421.198 289.69 437.015 289.69 437.015L282.678 441.171C288.288 425.53 307.821 411.638 307.821 411.638H307.796Z" fill="#FFB294"/>
</g>
<g style="mix-blend-mode:multiply" opacity="0.5">
<path d="M300.372 381.573C300.409 381.499 300.484 381.382 300.497 381.338C300.559 381.323 300.509 381.411 300.372 381.573Z" fill="#FFB294"/>
</g>
<g style="mix-blend-mode:multiply" opacity="0.5">
<path d="M253.917 416.538L275.366 405.259C275.366 405.259 298.293 384.038 300.371 381.57C299.394 383.494 288.488 395.287 282.29 401.925C287.95 402.836 293.985 405.655 297.241 411.207C292.858 405.817 285.007 404.525 279.185 405.229C278.484 405.964 278.058 406.419 278.058 406.419C272.774 408.519 264.61 414.217 260.002 417.595C266.413 419.666 273.212 423.91 275.804 431.092C272.849 425.012 267.014 422.236 261.217 420.9C259.639 420.547 258.024 420.327 256.459 420.224C242.147 426.818 233.971 442.429 233.971 442.429L229.889 444.779C235.21 430.181 253.93 416.523 253.93 416.523L253.917 416.538Z" fill="#FFB294"/>
</g>
<g style="mix-blend-mode:multiply" opacity="0.5">
<path d="M216.465 409.961C223.114 398.476 241.257 392.367 241.257 392.367C252.088 375.845 274.664 361.145 274.664 361.145C268.629 364.845 250.773 385.171 244.588 392.308C251.45 394.35 261.404 398.726 262.105 405.599C260.49 398.286 248.056 395.804 241.658 395.26V395.099C230.827 399.02 223.802 406.025 220.697 409.697C227.008 410.739 233.369 414.161 236.674 420.858C232.693 414.646 223.652 412.56 217.279 413.001C207.976 418.611 200.838 427.423 200.838 427.423L193.689 431.109C202.341 416.144 216.478 409.961 216.478 409.961H216.465Z" fill="#FFB294"/>
</g>
<g style="mix-blend-mode:multiply" opacity="0.5">
<path d="M223.753 290.683C223.853 290.654 223.941 290.61 224.041 290.58C224.041 290.58 225.293 290.434 227.234 290.243C227.672 289.288 228.048 288.334 228.424 287.335C229.425 284.765 230.239 282.048 230.84 279.287C231.466 276.57 231.779 273.706 231.879 270.916C231.98 268.081 231.629 265.291 231.091 262.574C231.379 265.335 231.466 268.126 231.091 270.842C230.74 273.559 230.214 276.203 229.363 278.744C228.511 281.314 227.509 283.737 226.358 286.087C225.544 287.673 224.667 289.215 223.753 290.683Z" fill="#FFB294"/>
</g>
<g style="mix-blend-mode:multiply" opacity="0.5">
<path d="M252.716 290.418C253.718 290.785 254.595 291.27 255.383 291.784L257.074 289.464C258.363 287.628 259.578 285.719 260.58 283.618C261.619 281.562 262.433 279.36 262.996 277.083C263.56 274.807 263.748 272.457 263.785 270.137C263.497 272.457 263.034 274.689 262.283 276.789C261.494 278.89 260.492 280.828 259.303 282.635C258.138 284.397 256.798 286.012 255.358 287.554L253.167 289.904C253.042 290.08 252.892 290.227 252.729 290.418H252.716Z" fill="#FFB294"/>
</g>
<g style="mix-blend-mode:multiply" opacity="0.5">
<path d="M212.572 372.659C221.086 372.556 229.112 376.374 234.184 385.627C230.264 376.374 223.315 371.41 215.326 369.766C214.45 370.764 213.536 371.719 212.572 372.673V372.659Z" fill="#FFB294"/>
</g>
<g style="mix-blend-mode:multiply" opacity="0.5">
<path d="M192.5 391.326C194.128 390.841 196.069 390.621 197.859 390.665C204.659 390.885 209.003 394.674 212.484 400.549C208.853 392.354 203.056 388.286 196.57 387.625C195.318 388.8 193.965 390.019 192.5 391.341V391.326Z" fill="#FFB294"/>
</g>
<g style="mix-blend-mode:multiply" opacity="0.5">
<path d="M365.934 389.591C360.9 388.945 355.892 388.24 350.908 387.314C345.912 386.492 340.941 385.581 336.008 384.436C294.55 374.993 276.857 363.934 262.633 352.42C260.567 350.82 259.239 349.16 253.981 343.844C272.049 370.264 307.033 382.644 335.62 387.197C345.674 388.768 355.804 389.826 365.934 389.591Z" fill="#FFB294"/>
</g>
<path d="M392.252 238.984C392.252 209.759 409.681 197.79 431.206 212.27C452.742 226.751 470.172 262.173 470.172 291.399C470.172 320.624 452.742 332.622 431.206 318.127C409.694 303.662 392.252 268.209 392.252 238.984Z" fill="#1A1A1A"/>
<path d="M331.287 264.981L429.003 199.246C435.402 194.943 444.217 195.545 453.946 202.08C473.542 215.268 489.406 247.49 489.406 274.101C489.406 287.494 485.387 296.908 478.901 301.27L381.185 367.005C387.671 362.643 391.69 353.229 391.69 339.835C391.69 313.239 375.825 281.003 356.23 267.815C346.5 261.265 337.698 260.663 331.287 264.981Z" fill="#FFB294"/>
<path d="M320.781 292.136C320.781 265.54 336.646 254.658 356.229 267.816C375.825 281.004 391.689 313.226 391.689 339.837C391.689 366.448 375.825 377.345 356.229 364.157C336.646 350.983 320.781 318.733 320.781 292.136Z" fill="#FFB294"/>
<path d="M417.333 342.684L495.303 295.498C486.763 278.492 479.113 260.854 470.185 244.097C459.993 224.946 449.149 206.324 439.044 187.145L367.786 240.425C374.948 235.608 384.79 228.089 395.671 235.403C417.57 250.133 435.313 286.172 435.313 315.912C435.313 330.877 424.582 337.809 417.333 342.684Z" fill="#F2F2F2"/>
<path d="M403.797 209.144L708.878 3.02519C715.915 -1.70372 725.594 -1.04285 736.288 6.15331C757.824 20.6337 775.254 56.0565 775.254 85.2817C775.254 99.9971 770.834 110.336 763.709 115.138L458.627 321.257C465.765 316.455 470.172 306.116 470.172 291.4C470.172 262.175 452.742 226.752 431.206 212.272C420.513 205.076 410.834 204.415 403.797 209.144Z" fill="#1A1A1A"/>
<path d="M382.123 361.806L301.073 416.702V365.448L382.123 310.566V361.806Z" fill="#D9BD92"/>
<path d="M382.123 374.365L301.073 429.247V416.705L382.123 361.809V374.365Z" fill="#855044"/>
<path d="M301.072 416.704L220.022 361.808V310.568L260.541 310.539L301.072 365.45V416.704Z" fill="#FFE3BA"/>
<path d="M301.072 429.247L220.022 374.365V361.809L301.072 416.705V429.247Z" fill="#CC8B7C"/>
<path d="M387.406 317.661V315.384L343.507 251.809L299.594 255.921L214.725 313.387L258.637 310.538L302.537 375.142L387.406 317.661Z" fill="#5246ED"/>
<path d="M302.537 375.14V372.849L258.637 309.273L214.725 313.386V315.677L258.637 311.564L302.537 375.14Z" fill="#961B20"/>
<path d="M387.406 315.384L343.507 251.809L258.637 309.275L302.537 372.851L387.406 315.384Z" fill="#0D00BB"/>
<path d="M275.417 387.829L289.416 397.302V375.199L275.417 365.727V387.829Z" fill="#FCC674"/>
<path opacity="0.5" d="M282.415 371.66L279.873 369.883L283.342 390.238L285.934 392L282.415 371.66Z" fill="white"/>
<path opacity="0.5" d="M279.649 369.752L278.685 369.047L282.154 389.402L283.168 390.092L279.649 369.752Z" fill="white"/>
<path d="M274.227 387.065L290.079 399.959L291.682 398.872V397.697L274.227 385.875V387.065Z" fill="#5E3930"/>
<path d="M272.623 388.151L290.078 399.958V398.783L272.623 386.961V388.151Z" fill="#5E3930"/>
<path d="M272.624 386.962L290.079 398.784L291.682 397.697L274.227 385.875L272.624 386.962Z" fill="#CC8B7C"/>
<path d="M289.916 374.876V395.98L276.769 387.08V365.977L289.916 374.876ZM277.695 386.61L288.989 394.262V375.346L277.695 367.695V386.61Z" fill="#5E3930"/>
<path d="M289.527 375.142V396.246L276.38 387.346V366.242L289.527 375.142ZM277.307 386.876L288.601 394.528V375.612L277.307 367.96V386.876Z" fill="#855044"/>
<path d="M290.467 374.671V396.876L289.791 397.331L289.528 396.244V375.141L276.38 366.226V387.33L275.704 387.785L275.454 386.698L274.778 364.963L275.454 364.508L290.467 374.671Z" fill="#CC8B7C"/>
<path d="M275.705 366.679V387.783L274.778 387.152V364.961L281.865 369.763L281.853 370.835L275.705 366.679Z" fill="#855044"/>
<path d="M289.527 385.685V396.244L289.139 396.508L276.38 387.344L275.992 377.049L276.38 376.785L289.527 385.685ZM277.307 386.874L288.601 394.526V386.155L277.307 378.503V386.874Z" fill="#CC8B7C"/>
<path d="M289.141 385.951V396.51L275.993 387.61V377.051L289.141 385.951ZM276.92 387.14L288.214 394.792V386.42L276.92 378.769V387.14Z" fill="#855044"/>
<path d="M289.791 397.331L288.864 396.7V375.596L281.853 370.838L281.865 369.766L289.791 375.126V397.331Z" fill="#855044"/>
<path d="M253.666 326.984L263.145 333.387V344.196L253.666 337.779V326.984Z" fill="#FCC674"/>
<path opacity="0.5" d="M258.397 330.99L256.682 329.801L259.024 340.595L260.789 341.785L258.397 330.99Z" fill="white"/>
<path opacity="0.5" d="M256.533 329.7L255.882 329.23L258.223 340.025L258.912 340.495L256.533 329.7Z" fill="white"/>
<path d="M263.469 333.135V344.017L254.579 337.996V327.113L263.469 333.12V333.135ZM255.205 337.687L262.843 342.857V333.032L255.205 327.862V337.687Z" fill="#5E3930"/>
<path d="M263.219 332.885V344.193L254.329 338.172V326.863L263.219 332.885ZM254.955 337.863L262.593 343.033V333.208L254.955 328.038V337.863Z" fill="#855044"/>
<path d="M263.846 333.033V345.076L263.395 345.384L263.22 344.65V333.342L254.317 327.32V338.629L253.866 338.937L253.691 338.203L253.24 326.469L253.691 326.16L263.846 333.033Z" fill="#CC8B7C"/>
<path d="M253.24 326.469V338.511L253.866 338.937V327.629L258.01 330.434L258.035 329.714L253.24 326.469Z" fill="#855044"/>
<path d="M263.395 345.385L262.756 344.959V333.651L258.023 330.449L258.035 329.715L263.395 333.342V345.385Z" fill="#855044"/>
<path d="M253.24 337.586V338.511L253.866 338.937L263.395 345.384V344.459L253.866 338.012L253.24 337.586Z" fill="#855044"/>
<path d="M254.143 337.82L254.682 338.187L262.758 343.665V344.032L254.494 338.437L253.868 338.011L254.143 337.82Z" fill="#CC8B7C"/>
<path d="M227.974 355.638L241.973 365.11V342.993L227.974 333.535V355.638Z" fill="#FCC674"/>
<path opacity="0.5" d="M234.972 339.468L232.43 337.691L235.898 358.046L238.49 359.794L234.972 339.468Z" fill="white"/>
<path opacity="0.5" d="M232.206 337.557L231.255 336.852L234.71 357.192L235.725 357.882L232.206 337.557Z" fill="white"/>
<path d="M226.784 354.858L242.636 367.767L244.238 366.681V365.491L226.784 353.684V354.858Z" fill="#5E3930"/>
<path d="M225.18 355.944L242.635 367.767V366.577L225.18 354.77V355.944Z" fill="#5E3930"/>
<path d="M225.181 354.77L242.636 366.578L244.238 365.491L226.784 353.684L225.181 354.77Z" fill="#CC8B7C"/>
<path d="M242.473 342.669V363.773L229.325 354.873V333.77L242.473 342.669ZM230.252 354.418L241.546 362.07V343.154L230.252 335.502V354.418Z" fill="#5E3930"/>
<path d="M242.086 342.935V364.039L228.939 355.139V334.035L242.086 342.935ZM229.865 354.669L241.159 362.32V343.405L229.865 335.753V354.669Z" fill="#855044"/>
<path d="M243.023 342.478V364.669L242.347 365.124L242.084 364.037V342.933L228.937 334.034V355.138L228.261 355.593L228.01 354.506L227.334 332.756L228.01 332.301L243.023 342.478Z" fill="#CC8B7C"/>
<path d="M228.261 334.491V355.595L227.335 354.963V332.758L234.422 337.56L234.409 338.647L228.261 334.491Z" fill="#855044"/>
<path d="M242.086 353.493V364.053L241.698 364.317L228.939 355.153L228.55 344.858L228.939 344.594L242.086 353.493ZM229.865 354.668L241.159 362.32V353.949L229.865 346.297V354.668Z" fill="#CC8B7C"/>
<path d="M241.709 353.743V364.303L228.562 355.403V344.844L241.709 353.743ZM229.488 354.933L240.782 362.584V354.213L229.488 346.562V354.933Z" fill="#855044"/>
<path d="M242.348 365.124L241.421 364.493V343.389L234.409 338.645L234.422 337.559L242.348 342.934V365.124Z" fill="#855044"/>
<path d="M337.484 378.007L314.771 393.368V370.987L337.484 355.625V378.007Z" fill="#FCC674"/>
<path opacity="0.5" d="M321.845 366.639L327.279 362.879L323.11 387.346L317.613 391.076L321.845 366.639Z" fill="white"/>
<path opacity="0.5" d="M327.968 362.452L329.746 361.145L325.576 385.611L323.736 386.889L327.968 362.452Z" fill="white"/>
<path d="M338.688 377.213L314.108 396.055L312.48 394.968V393.764L338.688 376.023V377.213Z" fill="#5E3930"/>
<path d="M340.314 378.315L314.107 396.055V394.866L340.314 377.125V378.315Z" fill="#5E3930"/>
<path d="M340.314 377.125L314.107 394.866L312.48 393.764L338.687 376.023L340.314 377.125Z" fill="#CC8B7C"/>
<path d="M336.121 355.859V377.228L314.271 392.031V370.663L336.121 355.859ZM335.182 357.607L315.21 371.133V390.283L335.182 376.758V357.607Z" fill="#5E3930"/>
<path d="M336.508 356.121V377.489L314.658 392.293V370.925L336.508 356.121ZM335.569 357.869L315.597 371.395V390.545L335.569 377.019V357.869Z" fill="#855044"/>
<path d="M328.244 362.304L328.92 361.835V381L328.707 381.147L328.745 382.233L329.859 381.47V360.102L328.219 361.218L328.244 362.304Z" fill="#5E3930"/>
<path d="M328.255 362.82L329.307 362.1V381.265L328.718 381.662L328.756 382.749L330.246 381.735V360.367L328.23 361.733L328.255 362.82Z" fill="#855044"/>
<path d="M319.829 367.988L320.518 367.533V386.698L320.305 386.83L320.33 387.917L321.457 387.153V365.785L319.804 366.901L319.829 367.988Z" fill="#5E3930"/>
<path d="M319.84 368.518L320.905 367.798V386.949L320.316 387.346L320.341 388.447L321.844 387.419V366.051L319.815 367.431L319.84 368.518Z" fill="#855044"/>
<path d="M313.718 370.456V392.926L314.394 393.381L314.657 392.294V370.926L336.507 356.123V377.491L337.183 377.946L337.446 376.859L338.135 354.845L337.446 354.375L313.718 370.456Z" fill="#CC8B7C"/>
<path d="M337.183 356.577V377.945L338.135 377.313V354.844L322.421 365.476L322.433 366.578L337.183 356.577Z" fill="#855044"/>
<path d="M314.395 393.38L315.334 392.749V371.38L322.434 366.578L322.421 365.477L314.395 370.91V393.38Z" fill="#855044"/>
<path d="M372.455 354.448L349.741 369.824V347.443L372.455 332.066V354.448Z" fill="#FCC674"/>
<path opacity="0.5" d="M356.816 343.096L362.25 339.336L358.08 363.803L352.584 367.533L356.816 343.096Z" fill="white"/>
<path opacity="0.5" d="M362.939 338.908L364.717 337.586L360.547 362.053L358.707 363.345L362.939 338.908Z" fill="white"/>
<path d="M373.658 353.669L349.079 372.511L347.451 371.41V370.22L373.658 352.465V353.669Z" fill="#5E3930"/>
<path d="M375.285 354.771L349.078 372.511V371.322L375.285 353.566V354.771Z" fill="#5E3930"/>
<path d="M375.285 353.566L349.078 371.322L347.45 370.22L373.657 352.465L375.285 353.566Z" fill="#CC8B7C"/>
<path d="M371.09 332.316V353.685L349.24 368.488V347.12L371.09 332.316ZM370.151 334.064L350.179 347.59V366.74L370.151 353.215V334.064Z" fill="#5E3930"/>
<path d="M371.479 332.578V353.946L349.629 368.75V347.382L371.479 332.578ZM370.539 334.326L350.568 347.852V367.002L370.539 353.476V334.326Z" fill="#855044"/>
<path d="M363.217 338.746L363.893 338.291V357.456L363.68 357.588L363.718 358.675L364.832 357.911V336.543L363.192 337.659L363.217 338.746Z" fill="#5E3930"/>
<path d="M363.228 339.276L364.28 338.556V357.707L363.691 358.103L363.729 359.19L365.219 358.177V336.809L363.203 338.189L363.228 339.276Z" fill="#855044"/>
<path d="M354.802 344.445L355.491 343.99V363.14L355.278 363.287L355.303 364.374L356.43 363.61V342.242L354.777 343.358L354.802 344.445Z" fill="#5E3930"/>
<path d="M354.813 344.956L355.877 344.252V363.402L355.289 363.799L355.314 364.885L356.816 363.872V342.504L354.788 343.87L354.813 344.956Z" fill="#855044"/>
<path d="M348.689 346.913V369.383L349.365 369.838L349.628 368.737V347.368L371.478 332.58V353.948L372.154 354.403L372.417 353.302L373.105 331.287L372.417 330.832L348.689 346.913Z" fill="#CC8B7C"/>
<path d="M372.154 333.037V354.405L373.105 353.773V331.289L357.391 341.936L357.404 343.023L372.154 333.037Z" fill="#855044"/>
<path d="M349.366 369.837L350.305 369.206V347.837L357.404 343.02L357.392 341.934L349.366 347.367V369.837Z" fill="#855044"/>
<path d="M264.359 363.173V404.411L252.101 396.113V354.875L264.359 363.173Z" fill="#855044"/>
<path d="M265.223 362.746V404.998L264.597 405.424L264.359 404.41V363.172L252.1 354.874V396.113L251.474 396.539L251.224 395.525L250.598 353.699L251.224 353.273L265.223 362.746Z" fill="#CC8B7C"/>
<path d="M251.474 355.3V396.538L250.598 395.951V353.699L257.209 358.164L257.196 359.177L251.474 355.3Z" fill="#5E3930"/>
<path d="M264.596 405.424L263.732 404.836V363.598L257.196 359.177L257.208 358.164L264.596 363.172V405.424Z" fill="#5E3930"/>
<path d="M252.351 377.608L252.514 377.711C252.614 377.785 252.752 377.77 252.902 377.697L252.74 377.594C252.589 377.682 252.452 377.682 252.351 377.608Z" fill="#5E3930"/>
<path d="M252.351 377.608L252.514 377.711C252.614 377.785 252.752 377.77 252.902 377.697L252.74 377.594C252.589 377.682 252.452 377.682 252.351 377.608Z" fill="#5E3930"/>
<path d="M252.891 374.056L252.728 373.953L252.878 374.071L252.891 374.056Z" fill="#855044"/>
<path d="M252.716 373.953L252.879 374.056C252.428 374.364 252.065 375.099 252.065 375.701V377.478C252.065 377.771 252.165 377.992 252.303 378.095L252.14 377.992C251.99 377.889 251.902 377.683 251.902 377.375V375.598C251.902 374.996 252.253 374.262 252.704 373.953H252.716Z" fill="#5E3930"/>
<path d="M252.877 374.055C252.426 374.363 252.063 375.097 252.063 375.7V377.477C252.063 378.079 252.439 378.328 252.877 378.02V377.697C252.564 377.873 252.313 377.697 252.313 377.271V375.567C252.313 375.141 252.551 374.627 252.864 374.378V374.069L252.877 374.055Z" fill="white"/>
<path d="M63.4587 483.984H78.8912C78.0348 486.349 77.2606 488.73 76.6677 491.191C79.0064 497.497 86.4015 501.953 95.2954 504.43C100.747 506.151 99.6765 510.269 98.013 514.596L84.1122 514.789L71.3149 506.891H58.3694C54.0707 501.792 56.36 496.499 60.774 491.143C61.9599 489.196 62.7998 486.767 63.4751 484.017L63.4587 483.984Z" fill="#FFB294"/>
<path d="M59.456 492.781C52.9009 497.237 52.5056 504.958 54.5315 511.007C58.7643 516.943 67.9711 513.05 74.2298 514.739C88.6412 518.632 88.6412 521.897 95.5751 521.768C106.758 521.575 114.153 516.943 113.561 513.355C113.083 510.412 108.257 507.436 100.401 504.54L87.7024 501.484C89.6623 502.594 92.3469 503.543 95.2951 504.444C99.2973 507.001 97.8645 509.688 94.1258 512.937C89.9588 514.691 84.7707 512.937 78.1332 509.511L63.8206 502.787C59.9996 500.422 58.2208 497.221 59.4725 492.797L59.456 492.781Z" fill="#25435C"/>
<path d="M19.6986 298.913L37.3875 327.739L40.6816 340.85L46.232 362.646L55.7023 399.966C48.6531 418.144 51.8483 441.999 54.4176 452.102C56.7399 461.335 56.2624 491.625 56.2624 491.625C57.1353 493.137 58.9305 493.99 61.0881 494.44C67.8244 495.743 78.5794 492.333 79.4029 486.799C79.4029 486.799 80.3746 416.583 81.4122 410.31C82.7463 402.267 82.4993 397.457 82.4993 397.457C96.4825 344.421 83.6851 308.002 83.6851 308.002L77.2618 290.773L19.7151 298.913H19.6986Z" fill="#25435C"/>
<g style="mix-blend-mode:multiply" opacity="0.5">
<path d="M23.5006 342.41C24.1759 354.812 31.4721 365.815 36.4131 377.317C39.5425 384.556 41.8154 392.132 43.3471 399.87C45.1918 386.969 45.9659 373.199 46.2294 362.711L55.6997 399.982C48.6505 418.16 51.8457 442.015 54.415 452.118C56.7373 461.351 56.2598 491.641 56.2598 491.641C57.1327 493.153 58.9279 494.006 61.0855 494.456C63.2431 490.74 62.996 482.504 62.1725 478.386C58.6314 459.807 63.5066 422.535 66.5371 403.103C63.7042 386.373 59.0267 378.636 59.0267 357.097C59.0267 351.225 63.556 339.321 62.4689 332.131C57.8408 331.327 45.867 339.965 40.6625 340.866C40.5142 340.866 40.3496 340.914 40.2014 340.914C34.6509 341.413 29.0345 341.911 23.4841 342.426L23.5006 342.41Z" fill="#227FBC"/>
</g>
<path d="M7.04706 503.77H22.0843C21.6067 506.183 21.1784 508.596 20.8984 510.993C24.3407 523.057 24.6371 530.827 31.7852 537.487L27.3382 548.136C27.3382 548.136 13.3222 544.741 13.1081 543.969C12.8939 543.197 2.69891 527.722 2.69891 527.722C2.22128 521.722 2.10597 516.221 4.32944 512.424C5.49882 509.368 6.33884 506.521 7.04706 503.754V503.77Z" fill="#FFB294"/>
<path d="M4.33052 512.438C-0.610523 516.33 -0.429386 524.245 0.591763 530.164C2.88111 534.926 6.17515 537.854 9.96328 544.867L13.5374 549.468C20.669 555.339 33.4827 556.144 38.012 553.071C40.9602 548.068 37.4849 543.114 28.7228 534.315C32.0498 541.039 28.2122 544.288 19.516 543.355C15.3819 542.567 12.6315 537.162 8.15161 529.811C4.05054 522.089 1.30003 517.569 4.34701 512.438H4.33052Z" fill="#25435C"/>
<path d="M-0.00147247 511.057C1.08556 512.569 2.37023 513.711 3.70432 514.516C11.7253 519.535 23.0403 514.113 23.0403 514.113C22.7273 500.601 37.3858 425.061 37.3858 425.061C40.1034 418.079 42.0139 409.183 43.348 399.854C45.1926 386.952 45.9667 373.183 46.2303 362.695C46.5432 352.094 46.3785 344.71 46.3785 344.71C51.369 342.152 57.0676 337.375 62.4698 332.099C73.686 321.144 83.6504 307.985 83.6504 307.985L80.6199 285.69L23.2379 282.875C18.4121 288.2 14.5911 292.913 11.6594 297.192C-5.83188 322.399 4.97255 331.841 3.63847 346.608C1.99146 363.837 11.8735 416.068 11.8735 416.068C1.89263 427.377 -0.00141907 451.635 1.59618 466.498C3.02909 479.963 -0.00147247 511.041 -0.00147247 511.041V511.057Z" fill="#25435C"/>
<g style="mix-blend-mode:multiply" opacity="0.5">
<path d="M-0.000654221 511.057C1.08638 512.569 2.37105 513.711 3.70513 514.515C6.78505 497.738 13.5214 443.398 16.6178 426.669C20.7847 404.261 16.6672 412.256 16.6178 389.51C16.6178 366.458 15.3331 342.908 18.6271 319.953C19.4012 314.581 24.441 302.87 19.0388 298.607C17.0789 297.047 14.4601 296.741 11.6931 297.207C-5.79819 322.414 5.00624 331.857 3.67216 346.624C2.02514 363.852 11.9072 416.084 11.9072 416.084C1.92632 427.393 0.0322704 451.651 1.62988 466.514C3.06278 479.978 0.0323181 511.057 0.0323181 511.057H-0.000654221Z" fill="#227FBC"/>
</g>
<path d="M87.5713 154.443C86.3526 147.252 81.7574 140.625 75.2352 137.102C68.713 133.579 60.3792 133.322 53.7582 136.684C50.563 138.308 47.6642 140.898 46.6924 144.276C45.3748 148.845 47.7795 153.671 50.8759 157.322C55.8664 163.21 62.6355 167.296 69.6518 170.513C72.8306 171.977 77.047 174.502 80.5387 174.953C83.6515 175.355 85.4632 169.789 86.3032 167.456C87.802 163.306 88.296 158.786 87.5713 154.427V154.443Z" fill="black"/>
<path d="M112.374 263.524C112.704 263.315 121.054 258.183 121.054 258.183C121.054 258.183 130.261 255.771 136.915 250.124C143.025 244.945 145.166 242.805 145.166 242.805C147.011 240.73 146.962 239.105 144.195 240.505L149.877 234.649C151.491 232.719 150.832 231.191 148.691 232.236L143.766 235.486L149.877 230.467C151.787 228.408 150.618 226.574 148.164 227.845L133.802 236.837L144.623 227.105C146.402 225.271 144.886 223.502 142.581 225.014L125.221 237.255L124.71 236.564C124.71 236.564 127.461 228.874 127.346 226.992C127.757 223.856 125.089 222.842 124.068 226.027C124.068 226.027 122.207 233.073 120.395 234.859C118.583 236.644 115.141 246.167 114.4 250.35C113.642 254.532 108.619 257.99 108.619 257.99L112.374 263.54V263.524Z" fill="#FFB294"/>
<path d="M119.919 258.874C119.919 258.874 114.682 255.737 113.957 251.828L103.268 254.161L92.7763 209.731C91.3104 200.771 88.527 193.291 81.3625 190.781L73.9179 207.945C73.9179 207.945 78.4637 263.925 96.9267 272.821C107.171 277.598 113.1 266.627 119.936 258.874H119.919Z" fill="#5246ED"/>
<path d="M8.01784 302.983C13.1071 306.2 17.8834 308.758 22.4127 310.768C64.3293 329.702 82.7924 302.983 82.7924 302.983C79.9595 288.216 80.223 274.06 83.6652 260.644C83.6652 260.644 94.832 259.695 94.832 248.386C94.832 237.078 84.6534 230.611 81.31 219.753C78.016 208.959 81.3595 190.766 81.3595 190.766L58.5318 193.034C58.5318 193.034 50.659 188.61 38.2735 197.602C26.4973 206.144 16.4177 214.734 16.4177 214.734C16.4177 214.734 18.5753 223.678 20.7328 234.826C24.0269 251.797 27.3703 273.995 23.2527 277.872C16.4176 284.258 8.03432 302.983 8.03432 302.983H8.01784Z" fill="#5246ED"/>
<path d="M89.3496 262.669C92.7919 259.033 96.0364 255.157 98.3752 250.749C100.714 246.358 102.114 241.387 101.719 236.448C101.587 235.113 101.027 234.534 99.7587 235.178C100.121 233.183 100.236 232.523 100.599 230.529C101.01 227.987 98.1776 228.051 98.1776 228.051C98.1776 228.051 98.4082 226.588 98.7211 225.542C99.0176 222.984 95.46 223.033 94.8012 225.156C94.8012 222.502 92.3637 221.665 89.8931 226.459C87.6367 230.802 86.0556 235.532 83.7827 239.521C83.7827 236.062 83.0251 232.684 81.5428 229.531C80.4557 227.215 78.5451 228.904 79.5498 233.135C80.9333 238.99 76.9805 245.746 79.4345 252.551C79.9945 254.111 80.5875 255.494 80.3405 257.119C80.0111 259.226 76.2229 261.816 76.7664 261.495C78.051 260.739 75.9923 264.454 76.3053 265.886C76.47 266.61 76.9805 267.189 77.4911 267.736C78.1169 268.428 79.4511 270.535 80.4393 270.68C81.4275 270.825 82.6133 269.216 83.2556 268.621C85.3473 266.706 87.3896 264.712 89.3331 262.653L89.3496 262.669Z" fill="#FFB294"/>
<path d="M64.1644 201.353C63.7856 203.717 63.8844 206.13 63.3574 208.463C62.8303 210.795 61.4962 213.144 59.2234 214.029C56.4564 215.106 53.36 213.691 50.8565 212.13C47.5789 210.087 44.5155 207.739 41.7156 205.117C40.2003 203.685 38.6851 202.06 38.3392 200.034C37.9933 198.071 38.8003 196.109 39.6238 194.275C41.4191 190.253 43.3296 186.28 45.3554 182.371C45.9648 181.197 46.6236 179.99 47.7271 179.234C48.7647 178.542 50.0659 178.333 51.3341 178.382C55.2869 178.526 58.7457 180.923 61.7927 183.384C63.4891 184.752 65.1526 186.183 66.9807 187.39C68.5783 188.435 70.6206 188.87 69.5501 191.025C68.7101 192.714 66.9972 194.066 66.0749 195.771C65.1361 197.524 64.4773 199.422 64.1644 201.385V201.353Z" fill="#FFB294"/>
<g style="mix-blend-mode:multiply" opacity="0.5">
<path d="M73.9154 191.506C73.9154 191.506 74.5248 208.429 65.3509 210.52C52.2078 213.512 53.1631 184.895 53.1631 184.895L73.9154 191.522V191.506Z" fill="#FFB294"/>
</g>
<path d="M83.2073 164.756C82.812 169.083 81.7744 174.15 84.7719 179.185C86.2213 181.63 83.4543 183.158 81.972 183.319C80.1603 186.086 82.5978 195.513 73.1604 196.381C67.9229 196.381 55.4715 191.153 50.8104 187.164C48.0764 184.815 46.0671 181.759 44.2883 178.638C41.7189 174.134 39.5449 169.292 38.9355 164.177C38.3261 159.045 39.4296 153.56 42.8224 149.603C46.8576 144.906 53.3963 143.04 59.6385 142.283C65.4524 141.56 72.6498 141.479 76.5697 146.385C80.8849 151.79 83.8496 157.726 83.1908 164.772L83.2073 164.756Z" fill="#FFB294"/>
<path d="M62.9952 171.462C59.8659 173.151 56.3742 174.245 53.6072 176.449C50.1979 179.167 48.2709 183.334 47.4803 187.548C46.6898 191.779 46.9368 196.106 47.1839 200.401C44.4663 199.822 41.6993 199.243 39.1958 198.069C36.6923 196.894 34.3865 195.061 33.2171 192.599C32.4925 191.055 32.2289 189.35 31.9819 187.677C31.2901 182.996 30.5985 178.315 30.2032 173.602C29.5938 166.443 29.676 159.06 32.0807 152.271C34.4853 145.483 39.5088 139.29 46.4097 136.796C49.7038 135.606 53.3107 135.3 56.7859 135.767C69.3032 137.44 78.8395 141.928 75.9078 154.346C75.1173 157.692 73.7172 160.926 71.7079 163.725C69.435 166.91 66.4539 169.596 62.9787 171.478L62.9952 171.462Z" fill="black"/>
<path d="M45.623 176.369C45.343 179.441 46.4465 182.626 48.6041 184.895C49.1476 185.474 49.79 186.004 50.5641 186.181C55.1592 187.259 55.291 179.345 54.1875 176.723C52.5734 172.846 46.1336 170.803 45.623 176.369Z" fill="#FFB294"/>
<path d="M79.5978 156.116C76.5015 154.008 72.7133 153.14 68.9911 152.56C69.8969 150.051 70.7863 147.558 71.6922 145.048C71.9887 144.244 72.3016 143.375 73.0098 142.877C74.4592 141.815 76.5179 142.812 77.9014 143.97C83.4189 148.603 86.8612 157.065 84.9506 164.126C84.0448 163.226 83.9459 161.167 83.2542 159.976C82.3648 158.448 81.0802 157.129 79.6143 156.116H79.5978Z" fill="black"/>
<g style="mix-blend-mode:multiply" opacity="0.3">
<path d="M8.01846 302.981C13.1077 306.198 17.8841 308.756 22.4134 310.766C23.9616 310.509 25.4933 310.219 27.0415 310.107C32.4437 309.705 37.8953 311.362 43.2975 310.766C51.7796 309.866 58.6148 303.528 63.5559 296.755C67.3111 291.527 70.2427 285.752 74.3108 280.734C78.0166 276.165 79.3013 273.849 76.4684 267.929C70.3415 268.524 64.4946 270.294 58.1536 269.988C51.9773 269.634 45.6034 267.575 41.4365 263.103C36.9566 258.277 35.573 251.505 33.1025 245.424C30.6814 239.392 27.0415 233.875 22.4628 229.258C21.9028 231.124 21.277 232.974 20.717 234.84C24.011 251.811 27.3544 274.009 23.2369 277.886C16.4018 284.272 8.01846 302.997 8.01846 302.997V302.981Z" fill="#CF2D32"/>
</g>
<path d="M86.0195 266.161C83.7467 262.895 81.6055 259.196 78.0974 259.678L41.8302 282.858L31.3716 243.849C29.9057 230.16 25.36 219.945 16.3673 214.766C7.58871 225.479 5.06876 238.042 10.3721 252.89C16.3014 274.864 22.9224 295.647 36.2961 304.542C54.051 311.508 69.7965 284.805 86.0031 266.161H86.0195Z" fill="#5246ED"/>
</g>
<defs>
<clipPath id="clip0_7230_10359">
<rect width="727" height="555" fill="white" transform="matrix(-1 0 0 1 727 0)"/>
</clipPath>
</defs>
</svg>
