<svg width="21" height="24" viewBox="0 0 21 24" fill="none" xmlns="http://www.w3.org/2000/svg">
<g id="Frame 1707478343" clip-path="url(#clip0_13731_20758)">
<path id="Vector" d="M13.3733 0.495745C13.4426 0.445493 13.5289 0.439278 13.6026 0.479231L16.7961 2.19701H20.3053C20.4371 2.19701 20.5439 2.31918 20.5439 2.46975V21.5196C20.5439 21.6702 20.4371 21.7924 20.3053 21.7924H16.8136L13.6026 23.5196C13.5703 23.537 13.5355 23.5455 13.501 23.5455C13.4565 23.5455 13.4121 23.5313 13.3733 23.5031C13.3043 23.453 13.2623 23.3662 13.2623 23.2728V21.7924H6.69356C6.56181 21.7924 6.45491 21.6702 6.45491 21.5196V2.46975C6.45491 2.31918 6.56181 2.19701 6.69356 2.19701H13.2623V0.726049C13.2623 0.632649 13.3043 0.545818 13.3733 0.495745ZM13.2623 4.04229H8.06953V19.9471H13.2623V4.04229ZM20.0666 21.2469V2.7425H17.8187L19.2696 3.52273C19.3532 3.56783 19.4066 3.66389 19.4066 3.76954V3.77434V20.2199V20.2245C19.4066 20.3301 19.3532 20.4262 19.2696 20.4713L17.8277 21.2469H20.0666ZM13.7396 22.8429C19.3219 19.8308 16.6676 21.2653 18.9293 20.0467V3.94747L13.7396 1.15594C13.7396 7.44254 13.7396 12.2116 13.7396 22.8429ZM6.93221 2.7425V21.2469H13.2623V20.4926H7.83088C7.69912 20.4926 7.59223 20.3704 7.59223 20.2199V3.76954C7.59223 3.61897 7.69912 3.4968 7.83088 3.4968H13.2623V2.7425H6.93221Z" fill="#B1B1F5"/>
<g id="Group 5">
<path id="Vector_2" d="M10.1524 9.29171C10.2049 9.30921 10.2749 9.32672 10.3274 9.32672C11.22 9.36172 11.9027 8.29404 12.0252 7.68143C12.3577 6.28119 11.0275 6.05366 11.0275 6.05366C11.0275 6.05366 9.73228 5.65109 9.39972 7.05133C9.22469 7.64643 9.34721 8.90664 10.1524 9.29171ZM14.9307 12.9323C14.9307 12.8623 14.8607 12.8098 14.7906 12.8098L13.1454 12.9498C13.1104 12.9498 13.0754 12.9323 13.0403 12.8973C12.4978 12.1447 11.9202 11.3921 11.5351 10.8845C11.045 10.2544 10.3624 9.76429 9.59226 9.57176C9.29471 9.48424 9.03216 9.46674 8.83963 9.46674C8.6646 9.46674 8.48957 9.53675 8.36705 9.65927L6.10916 11.7421C6.00414 11.8646 5.95163 12.0222 5.96914 12.1797V14.6476C5.96914 14.7176 6.03915 14.7701 6.10916 14.7701L6.49423 14.7351C6.56424 14.7351 6.61675 14.6651 6.61675 14.5951L6.87929 12.9498C6.87929 12.8098 6.9493 12.6698 7.05432 12.5823L8.24453 12.0397L7.14184 15.9603C7.12433 16.0829 7.17684 16.1879 7.28186 16.2404L9.67977 17.4481C9.8373 17.5356 9.95982 17.6581 10.0473 17.8157L11.5176 20.7212C11.5526 20.7737 11.6051 20.8087 11.6751 20.8087L12.2877 20.7562C12.3927 20.7387 12.4627 20.6511 12.4277 20.5461L11.2725 16.958C11.2375 16.8355 11.1675 16.7305 11.08 16.6255L10.0123 15.5403C9.8723 15.3828 9.8198 15.1727 9.88981 14.9627C10.4849 13.2299 10.9225 12.5823 10.9225 12.5823L12.1827 14.0525C12.2877 14.1925 12.4803 14.2451 12.6378 14.21L14.8957 13.65C14.9657 13.6325 15.0007 13.5799 15.0007 13.5099L14.9307 12.9323Z" fill="#EDAA46"/>
<path id="Vector_3" d="M7.17727 16.6934C7.12476 16.6584 7.05475 16.6934 7.05475 16.7634L6.09209 21.5067C6.07458 21.6118 6.1621 21.6993 6.26712 21.6818L6.7922 21.6293C6.86222 21.6293 6.91473 21.5768 6.93223 21.5067L8.31497 17.376C8.31497 17.341 8.31497 17.306 8.27996 17.2885L7.17727 16.6934Z" fill="#EDAA46"/>
<g id="Group">
<path id="Vector_4" d="M6.70447 15.3149L6.47694 15.1399C6.40692 15.0874 6.30191 15.1049 6.2494 15.1749L4.81415 17.0827C4.79665 17.1177 4.76164 17.1177 4.72664 17.1002L3.11636 15.8925C3.02885 15.84 2.92383 15.8575 2.85382 15.9275L2.7663 16.0326C2.71379 16.1201 2.59127 16.1201 2.50376 16.0676L2.46875 16.0501C2.38124 15.9976 2.27622 15.9976 2.20621 16.0851L0.0358352 19.0256C-0.0166738 19.1131 -0.0166738 19.2181 0.0708411 19.2881L0.105847 19.3056C0.193362 19.3581 0.210865 19.4806 0.140853 19.5682L0.0533382 19.6732C0.000829204 19.7607 0.000829172 19.8657 0.0883441 19.9357C0.140853 19.9532 0.193362 19.9882 0.228368 20.0232C0.333386 20.0933 0.438404 20.1808 0.525919 20.2508C0.630937 20.3383 0.735955 20.4083 0.840973 20.4958C0.858476 20.5133 0.893482 20.5308 0.910985 20.5483C0.928488 20.5658 0.963494 20.6008 0.9985 20.6008C1.016 20.6008 1.03351 20.5833 1.03351 20.5658C1.05101 20.5483 1.05101 20.5308 1.06851 20.4958C1.08601 20.4608 1.12102 20.4083 1.13852 20.3733C1.47108 19.9357 2.10119 19.8482 2.53876 20.1808C2.66128 20.2683 2.7488 20.3733 2.81881 20.4958C2.83631 20.5308 2.88882 20.5483 2.92383 20.5133L6.72198 15.4725C6.75698 15.4025 6.75698 15.3499 6.70447 15.3149Z" fill="#5246ED"/>
<path id="Vector_5" d="M2.39885 20.4052C2.0838 20.1601 1.62872 20.2301 1.38368 20.5452C1.13864 20.8602 1.20865 21.3153 1.5237 21.5604C1.83876 21.8054 2.29384 21.7354 2.53888 21.4203C2.78392 21.1053 2.71391 20.6327 2.39885 20.4052ZM2.20632 21.1753C2.1013 21.3153 1.89127 21.3503 1.75124 21.2453C1.61122 21.1403 1.57621 20.9303 1.68123 20.7902C1.78625 20.6502 1.99628 20.6152 2.13631 20.7202C2.29383 20.8252 2.32884 21.0353 2.20632 21.1753Z" fill="black"/>
</g>
</g>
</g>
<defs>
<clipPath id="clip0_13731_20758">
<rect width="20.5439" height="23.0924" fill="white" transform="translate(0 0.453125)"/>
</clipPath>
</defs>
</svg>
