<svg width="400" height="250" viewBox="0 0 400 250" fill="none" xmlns="http://www.w3.org/2000/svg">
<g clip-path="url(#clip0_8180_10788)">
<g clip-path="url(#clip1_8180_10788)">
<path opacity="0.15" d="M298.306 88.1652C298.306 88.1652 288.906 14.6097 233.445 67.4928C162.348 135.281 114.557 0.550316 61.8153 55.5461C33.0014 85.59 109.142 152.783 58.2908 188.144C7.43975 223.505 48.9942 249.977 48.9942 249.977H337.739C337.739 249.977 367.631 252.136 369.894 214.312C372.153 176.489 337.406 176.03 358.971 128.697C380.536 81.3647 305.083 118.292 298.306 88.1652Z" fill="url(#paint0_linear_8180_10788)"/>
<g opacity="0.45">
<rect x="293.141" y="147" width="21" height="103" fill="url(#paint1_linear_8180_10788)"/>
<rect x="234.141" y="192" width="21" height="58" fill="url(#paint2_linear_8180_10788)"/>
<path d="M255.141 111L274.141 95L293.141 111V250H255.141V111Z" fill="url(#paint3_linear_8180_10788)"/>
<rect x="261.141" y="116" width="11" height="27" fill="white"/>
<rect x="261.141" y="147" width="11" height="27" fill="white"/>
<rect x="261.141" y="178" width="11" height="27" fill="white"/>
<rect x="276.141" y="116" width="11" height="27" fill="white"/>
<rect x="276.141" y="147" width="11" height="27" fill="white"/>
<rect x="276.141" y="178" width="11" height="27" fill="white"/>
<rect x="261.141" y="210" width="26" height="40" fill="white"/>
<rect x="124.141" y="111" width="28" height="139" fill="url(#paint4_linear_8180_10788)"/>
<rect x="129.141" y="103" width="18" height="8" fill="url(#paint5_linear_8180_10788)"/>
<path d="M132.141 95L138.141 90.5L144.141 95V103H132.141V95Z" fill="url(#paint6_linear_8180_10788)"/>
<path d="M152.141 160L180.141 176V250H152.141V160Z" fill="url(#paint7_linear_8180_10788)"/>
</g>
<path d="M48.6289 249.531H323.77" stroke="#9CACCE" stroke-width="2" stroke-miterlimit="10"/>
<path d="M333.404 249.531H367.408" stroke="#9CACCE" stroke-width="2" stroke-miterlimit="10"/>
</g>
<g filter="url(#filter0_d_8180_10788)">
<path d="M265.033 248L237.654 237.544L207.613 249.577L174.992 237.461L150.027 247.004C147.78 247.834 145.45 245.76 146.116 243.436L161.677 189.746C162.176 188.004 163.425 186.51 165.089 185.763L190.054 174.062L207.613 186.676L224.756 175.805L252.384 187.921C254.215 188.75 255.546 190.327 255.962 192.236L268.944 244.598C269.526 246.838 267.28 248.83 265.033 248Z" fill="white"/>
</g>
<path d="M190.054 174.148L174.992 237.464L150.027 247.007C147.78 247.837 145.45 245.763 146.116 243.439L161.677 189.749C162.176 188.007 163.425 186.513 165.089 185.766L190.054 174.148Z" fill="url(#paint8_linear_8180_10788)"/>
<path d="M237.738 237.544L207.613 249.576V186.675L224.756 175.805L237.738 237.544Z" fill="url(#paint9_linear_8180_10788)"/>
<mask id="path-21-inside-1_8180_10788" fill="white">
<path d="M180.733 223.106C180.65 223.106 180.566 223.106 180.4 223.106C180.067 223.023 179.817 223.023 179.485 222.94C178.569 222.691 178.07 221.861 178.236 220.948C178.403 220.035 179.318 219.537 180.234 219.703C180.483 219.786 180.733 219.786 180.982 219.869C181.898 220.035 182.48 220.865 182.314 221.778C182.231 222.608 181.565 223.106 180.733 223.106ZM186.558 222.94C185.809 222.94 185.143 222.442 184.977 221.695C184.727 220.782 185.31 219.869 186.225 219.703C186.475 219.62 186.724 219.537 186.974 219.537C187.89 219.289 188.805 219.786 189.055 220.616C189.304 221.529 188.805 222.442 187.973 222.691C187.64 222.774 187.39 222.857 187.057 222.94C186.808 222.94 186.641 222.94 186.558 222.94ZM174.658 220.616C174.325 220.616 173.992 220.533 173.743 220.367C173.493 220.201 173.243 220.035 172.994 219.869C172.245 219.371 172.078 218.293 172.578 217.546C173.077 216.799 174.159 216.633 174.908 217.131C175.157 217.297 175.324 217.463 175.573 217.546C176.322 218.044 176.572 219.04 176.073 219.869C175.74 220.367 175.241 220.616 174.658 220.616ZM192.55 220.201C192.05 220.201 191.468 219.952 191.135 219.454C190.636 218.708 190.802 217.629 191.634 217.131C191.884 216.965 192.05 216.882 192.3 216.716C193.049 216.218 194.131 216.384 194.63 217.131C195.129 217.878 194.963 218.957 194.214 219.454C193.964 219.62 193.715 219.786 193.465 219.952C193.215 220.035 192.883 220.201 192.55 220.201ZM234.491 218.21C233.659 218.21 232.91 217.546 232.827 216.633C232.744 215.72 233.492 214.89 234.408 214.89C234.574 214.89 234.824 214.89 235.074 214.807C235.989 214.641 236.821 215.222 236.988 216.135C237.154 217.048 236.571 217.878 235.656 218.044C235.323 218.127 234.99 218.127 234.658 218.21C234.574 218.21 234.574 218.21 234.491 218.21ZM169.582 216.301C169.166 216.301 168.666 216.135 168.417 215.803C168.25 215.637 168.001 215.388 167.834 215.139C167.168 214.475 167.252 213.397 167.917 212.816C168.583 212.235 169.665 212.235 170.247 212.899C170.414 213.065 170.58 213.314 170.83 213.48C171.496 214.144 171.413 215.222 170.747 215.803C170.414 216.135 169.998 216.301 169.582 216.301ZM229.165 216.301C228.832 216.301 228.416 216.218 228.167 215.969C227.917 215.803 227.667 215.637 227.501 215.388C226.835 214.807 226.752 213.729 227.334 213.065C227.917 212.401 228.999 212.318 229.664 212.899C229.831 213.065 230.081 213.231 230.247 213.397C230.996 213.978 231.079 214.973 230.497 215.72C230.164 216.052 229.664 216.301 229.165 216.301ZM197.792 216.052C197.293 216.052 196.877 215.886 196.544 215.471C195.962 214.807 196.045 213.729 196.711 213.148C196.96 212.982 197.127 212.816 197.293 212.65C197.959 212.069 199.041 212.152 199.623 212.816C200.206 213.48 200.122 214.558 199.457 215.139C199.207 215.305 199.041 215.471 198.791 215.72C198.541 215.969 198.208 216.052 197.792 216.052ZM240.649 215.803C240.067 215.803 239.567 215.554 239.234 215.056C238.735 214.31 238.985 213.231 239.734 212.733C239.983 212.567 240.15 212.484 240.399 212.318C241.148 211.82 242.23 211.986 242.73 212.733C243.229 213.48 243.062 214.558 242.313 215.056C242.064 215.222 241.814 215.388 241.565 215.554C241.232 215.72 240.899 215.803 240.649 215.803ZM224.339 211.737C223.923 211.737 223.506 211.571 223.174 211.239C223.007 211.073 222.757 210.907 222.591 210.658C221.925 210.077 221.842 208.999 222.508 208.335C223.09 207.671 224.172 207.588 224.838 208.252C225.088 208.418 225.254 208.667 225.504 208.833C226.169 209.497 226.169 210.492 225.587 211.156C225.171 211.571 224.755 211.737 224.339 211.737ZM245.892 211.737C245.393 211.737 244.976 211.571 244.644 211.156C244.061 210.492 244.144 209.414 244.81 208.833C244.976 208.667 245.226 208.501 245.393 208.335C246.058 207.754 247.14 207.837 247.723 208.501C248.305 209.165 248.222 210.243 247.556 210.824C247.306 210.99 247.14 211.156 246.89 211.405C246.724 211.654 246.308 211.737 245.892 211.737ZM202.619 211.571C202.203 211.571 201.787 211.405 201.454 211.073C200.788 210.409 200.788 209.414 201.454 208.75L202.036 208.169C202.702 207.505 203.701 207.505 204.366 208.086C205.032 208.75 205.032 209.745 204.45 210.409L203.867 210.99C203.534 211.405 203.118 211.571 202.619 211.571ZM165.338 211.239C164.838 211.239 164.339 210.99 164.006 210.575C163.84 210.326 163.673 210.16 163.507 209.911C162.924 209.165 163.091 208.169 163.84 207.588C164.589 207.007 165.587 207.173 166.17 207.92L166.669 208.584C167.252 209.331 167.085 210.326 166.336 210.907C166.003 211.073 165.671 211.239 165.338 211.239ZM219.262 207.505C218.929 207.505 218.597 207.422 218.264 207.173C218.014 207.007 217.848 206.841 217.598 206.675C216.849 206.177 216.683 205.098 217.265 204.352C217.764 203.605 218.846 203.439 219.595 204.02C219.845 204.186 220.011 204.352 220.261 204.518C221.01 205.098 221.176 206.094 220.594 206.841C220.261 207.256 219.762 207.505 219.262 207.505ZM250.885 207.339C250.469 207.339 249.969 207.173 249.637 206.841C248.971 206.177 249.054 205.098 249.72 204.518L250.302 203.937C250.968 203.273 252.05 203.356 252.632 204.02C253.298 204.684 253.215 205.762 252.549 206.343L251.967 206.924C251.717 207.173 251.301 207.339 250.885 207.339ZM207.196 206.675C206.78 206.675 206.364 206.509 206.031 206.26C205.365 205.596 205.282 204.601 205.948 203.937C206.114 203.688 206.364 203.522 206.53 203.273C207.196 202.609 208.194 202.609 208.86 203.273C209.526 203.937 209.526 204.932 208.86 205.596C208.694 205.762 208.527 206.011 208.278 206.177C208.028 206.509 207.612 206.675 207.196 206.675ZM161.51 205.762C160.927 205.762 160.428 205.513 160.095 205.015L159.596 204.352C159.096 203.605 159.346 202.526 160.095 202.028C160.844 201.53 161.926 201.779 162.425 202.526L162.841 203.19C163.34 203.937 163.174 205.015 162.342 205.513C162.175 205.679 161.843 205.762 161.51 205.762ZM213.604 204.02C213.437 204.02 213.187 204.02 213.021 203.937C212.771 203.854 212.605 203.854 212.439 203.771C211.523 203.605 210.941 202.692 211.19 201.779C211.44 200.866 212.272 200.285 213.187 200.534C213.52 200.617 213.853 200.7 214.186 200.866C215.018 201.198 215.518 202.111 215.185 203.024C214.852 203.605 214.269 204.02 213.604 204.02Z"/>
</mask>
<path d="M180.733 223.106C180.65 223.106 180.566 223.106 180.4 223.106C180.067 223.023 179.817 223.023 179.485 222.94C178.569 222.691 178.07 221.861 178.236 220.948C178.403 220.035 179.318 219.537 180.234 219.703C180.483 219.786 180.733 219.786 180.982 219.869C181.898 220.035 182.48 220.865 182.314 221.778C182.231 222.608 181.565 223.106 180.733 223.106ZM186.558 222.94C185.809 222.94 185.143 222.442 184.977 221.695C184.727 220.782 185.31 219.869 186.225 219.703C186.475 219.62 186.724 219.537 186.974 219.537C187.89 219.289 188.805 219.786 189.055 220.616C189.304 221.529 188.805 222.442 187.973 222.691C187.64 222.774 187.39 222.857 187.057 222.94C186.808 222.94 186.641 222.94 186.558 222.94ZM174.658 220.616C174.325 220.616 173.992 220.533 173.743 220.367C173.493 220.201 173.243 220.035 172.994 219.869C172.245 219.371 172.078 218.293 172.578 217.546C173.077 216.799 174.159 216.633 174.908 217.131C175.157 217.297 175.324 217.463 175.573 217.546C176.322 218.044 176.572 219.04 176.073 219.869C175.74 220.367 175.241 220.616 174.658 220.616ZM192.55 220.201C192.05 220.201 191.468 219.952 191.135 219.454C190.636 218.708 190.802 217.629 191.634 217.131C191.884 216.965 192.05 216.882 192.3 216.716C193.049 216.218 194.131 216.384 194.63 217.131C195.129 217.878 194.963 218.957 194.214 219.454C193.964 219.62 193.715 219.786 193.465 219.952C193.215 220.035 192.883 220.201 192.55 220.201ZM234.491 218.21C233.659 218.21 232.91 217.546 232.827 216.633C232.744 215.72 233.492 214.89 234.408 214.89C234.574 214.89 234.824 214.89 235.074 214.807C235.989 214.641 236.821 215.222 236.988 216.135C237.154 217.048 236.571 217.878 235.656 218.044C235.323 218.127 234.99 218.127 234.658 218.21C234.574 218.21 234.574 218.21 234.491 218.21ZM169.582 216.301C169.166 216.301 168.666 216.135 168.417 215.803C168.25 215.637 168.001 215.388 167.834 215.139C167.168 214.475 167.252 213.397 167.917 212.816C168.583 212.235 169.665 212.235 170.247 212.899C170.414 213.065 170.58 213.314 170.83 213.48C171.496 214.144 171.413 215.222 170.747 215.803C170.414 216.135 169.998 216.301 169.582 216.301ZM229.165 216.301C228.832 216.301 228.416 216.218 228.167 215.969C227.917 215.803 227.667 215.637 227.501 215.388C226.835 214.807 226.752 213.729 227.334 213.065C227.917 212.401 228.999 212.318 229.664 212.899C229.831 213.065 230.081 213.231 230.247 213.397C230.996 213.978 231.079 214.973 230.497 215.72C230.164 216.052 229.664 216.301 229.165 216.301ZM197.792 216.052C197.293 216.052 196.877 215.886 196.544 215.471C195.962 214.807 196.045 213.729 196.711 213.148C196.96 212.982 197.127 212.816 197.293 212.65C197.959 212.069 199.041 212.152 199.623 212.816C200.206 213.48 200.122 214.558 199.457 215.139C199.207 215.305 199.041 215.471 198.791 215.72C198.541 215.969 198.208 216.052 197.792 216.052ZM240.649 215.803C240.067 215.803 239.567 215.554 239.234 215.056C238.735 214.31 238.985 213.231 239.734 212.733C239.983 212.567 240.15 212.484 240.399 212.318C241.148 211.82 242.23 211.986 242.73 212.733C243.229 213.48 243.062 214.558 242.313 215.056C242.064 215.222 241.814 215.388 241.565 215.554C241.232 215.72 240.899 215.803 240.649 215.803ZM224.339 211.737C223.923 211.737 223.506 211.571 223.174 211.239C223.007 211.073 222.757 210.907 222.591 210.658C221.925 210.077 221.842 208.999 222.508 208.335C223.09 207.671 224.172 207.588 224.838 208.252C225.088 208.418 225.254 208.667 225.504 208.833C226.169 209.497 226.169 210.492 225.587 211.156C225.171 211.571 224.755 211.737 224.339 211.737ZM245.892 211.737C245.393 211.737 244.976 211.571 244.644 211.156C244.061 210.492 244.144 209.414 244.81 208.833C244.976 208.667 245.226 208.501 245.393 208.335C246.058 207.754 247.14 207.837 247.723 208.501C248.305 209.165 248.222 210.243 247.556 210.824C247.306 210.99 247.14 211.156 246.89 211.405C246.724 211.654 246.308 211.737 245.892 211.737ZM202.619 211.571C202.203 211.571 201.787 211.405 201.454 211.073C200.788 210.409 200.788 209.414 201.454 208.75L202.036 208.169C202.702 207.505 203.701 207.505 204.366 208.086C205.032 208.75 205.032 209.745 204.45 210.409L203.867 210.99C203.534 211.405 203.118 211.571 202.619 211.571ZM165.338 211.239C164.838 211.239 164.339 210.99 164.006 210.575C163.84 210.326 163.673 210.16 163.507 209.911C162.924 209.165 163.091 208.169 163.84 207.588C164.589 207.007 165.587 207.173 166.17 207.92L166.669 208.584C167.252 209.331 167.085 210.326 166.336 210.907C166.003 211.073 165.671 211.239 165.338 211.239ZM219.262 207.505C218.929 207.505 218.597 207.422 218.264 207.173C218.014 207.007 217.848 206.841 217.598 206.675C216.849 206.177 216.683 205.098 217.265 204.352C217.764 203.605 218.846 203.439 219.595 204.02C219.845 204.186 220.011 204.352 220.261 204.518C221.01 205.098 221.176 206.094 220.594 206.841C220.261 207.256 219.762 207.505 219.262 207.505ZM250.885 207.339C250.469 207.339 249.969 207.173 249.637 206.841C248.971 206.177 249.054 205.098 249.72 204.518L250.302 203.937C250.968 203.273 252.05 203.356 252.632 204.02C253.298 204.684 253.215 205.762 252.549 206.343L251.967 206.924C251.717 207.173 251.301 207.339 250.885 207.339ZM207.196 206.675C206.78 206.675 206.364 206.509 206.031 206.26C205.365 205.596 205.282 204.601 205.948 203.937C206.114 203.688 206.364 203.522 206.53 203.273C207.196 202.609 208.194 202.609 208.86 203.273C209.526 203.937 209.526 204.932 208.86 205.596C208.694 205.762 208.527 206.011 208.278 206.177C208.028 206.509 207.612 206.675 207.196 206.675ZM161.51 205.762C160.927 205.762 160.428 205.513 160.095 205.015L159.596 204.352C159.096 203.605 159.346 202.526 160.095 202.028C160.844 201.53 161.926 201.779 162.425 202.526L162.841 203.19C163.34 203.937 163.174 205.015 162.342 205.513C162.175 205.679 161.843 205.762 161.51 205.762ZM213.604 204.02C213.437 204.02 213.187 204.02 213.021 203.937C212.771 203.854 212.605 203.854 212.439 203.771C211.523 203.605 210.941 202.692 211.19 201.779C211.44 200.866 212.272 200.285 213.187 200.534C213.52 200.617 213.853 200.7 214.186 200.866C215.018 201.198 215.518 202.111 215.185 203.024C214.852 203.605 214.269 204.02 213.604 204.02Z" stroke="#9CACCE" stroke-width="2" mask="url(#path-21-inside-1_8180_10788)"/>
<path d="M207.614 130C222.842 130 235.158 142.281 235.158 157.467C235.158 169.583 217.683 193.565 210.526 202.859C209.028 204.851 206.033 204.851 204.535 202.859C197.378 193.565 179.902 169.583 179.902 157.467C180.069 142.281 192.385 130 207.614 130Z" fill="url(#paint10_linear_8180_10788)"/>
<path d="M207.612 168.257C213.633 168.257 218.514 163.39 218.514 157.386C218.514 151.383 213.633 146.516 207.612 146.516C201.592 146.516 196.711 151.383 196.711 157.386C196.711 163.39 201.592 168.257 207.612 168.257Z" fill="white"/>
<path d="M91.829 166.235C91.829 166.235 87.9197 164.767 85.9674 172.089C84.0151 179.412 78.1536 177.967 76.687 186.281C75.2205 194.595 77.1541 202.908 75.7109 206.817C74.2677 210.726 69.8493 217.104 73.2682 224.913C76.687 232.722 84.5009 237.627 95.2478 234.69C105.995 231.754 116.265 232.736 117.713 215.622C119.161 198.508 105.014 202.417 105.504 195.086C105.995 187.754 113.318 185.304 107.947 178.458C102.576 171.613 98.6667 173.567 96.224 169.167C93.7813 164.767 91.829 166.235 91.829 166.235Z" fill="url(#paint11_linear_8180_10788)"/>
<path d="M93.6526 249.492L93.3554 171.867H93.0939L90.8574 249.641L93.6526 249.492Z" fill="url(#paint12_linear_8180_10788)"/>
<path d="M91.3998 229.868L74.2168 217.094L92.4413 228.045L91.3998 229.868Z" fill="url(#paint13_linear_8180_10788)"/>
<path d="M92.7119 205.284L79.9473 195.797L93.4872 203.928L92.7119 205.284Z" fill="url(#paint14_linear_8180_10788)"/>
<path d="M93.4876 220.743L110.671 207.969L92.4414 218.915L93.4876 220.743Z" fill="url(#paint15_linear_8180_10788)"/>
<path d="M93.6467 191.182L104.94 182.789L92.9648 189.981L93.6467 191.182Z" fill="url(#paint16_linear_8180_10788)"/>
</g>
<defs>
<filter id="filter0_d_8180_10788" x="118" y="154.062" width="171.037" height="123.516" filterUnits="userSpaceOnUse" color-interpolation-filters="sRGB">
<feFlood flood-opacity="0" result="BackgroundImageFix"/>
<feColorMatrix in="SourceAlpha" type="matrix" values="0 0 0 0 0 0 0 0 0 0 0 0 0 0 0 0 0 0 127 0" result="hardAlpha"/>
<feOffset dx="-4" dy="4"/>
<feGaussianBlur stdDeviation="12"/>
<feComposite in2="hardAlpha" operator="out"/>
<feColorMatrix type="matrix" values="0 0 0 0 0.67451 0 0 0 0 0.721569 0 0 0 0 0.792157 0 0 0 0.5 0"/>
<feBlend mode="normal" in2="BackgroundImageFix" result="effect1_dropShadow_8180_10788"/>
<feBlend mode="normal" in="SourceGraphic" in2="effect1_dropShadow_8180_10788" result="shape"/>
</filter>
<linearGradient id="paint0_linear_8180_10788" x1="33" y1="42" x2="177.12" y2="330.928" gradientUnits="userSpaceOnUse">
<stop stop-color="#AACBFA"/>
<stop offset="1" stop-color="#C4DFFB"/>
</linearGradient>
<linearGradient id="paint1_linear_8180_10788" x1="277.338" y1="115.61" x2="333.039" y2="117.064" gradientUnits="userSpaceOnUse">
<stop stop-color="#C5D2EC"/>
<stop offset="0.9964" stop-color="#F1F7FE"/>
</linearGradient>
<linearGradient id="paint2_linear_8180_10788" x1="218.338" y1="174.324" x2="273.957" y2="176.904" gradientUnits="userSpaceOnUse">
<stop stop-color="#C5D2EC"/>
<stop offset="0.9964" stop-color="#F1F7FE"/>
</linearGradient>
<linearGradient id="paint3_linear_8180_10788" x1="226.545" y1="47.7619" x2="327.306" y2="50.9264" gradientUnits="userSpaceOnUse">
<stop stop-color="#C5D2EC"/>
<stop offset="0.9964" stop-color="#F1F7FE"/>
</linearGradient>
<linearGradient id="paint4_linear_8180_10788" x1="103.071" y1="68.6381" x2="177.339" y2="70.5546" gradientUnits="userSpaceOnUse">
<stop stop-color="#C5D2EC"/>
<stop offset="0.9964" stop-color="#F1F7FE"/>
</linearGradient>
<linearGradient id="paint5_linear_8180_10788" x1="115.596" y1="100.562" x2="159.707" y2="113.276" gradientUnits="userSpaceOnUse">
<stop stop-color="#C5D2EC"/>
<stop offset="0.9964" stop-color="#F1F7FE"/>
</linearGradient>
<linearGradient id="paint6_linear_8180_10788" x1="123.111" y1="86.6905" x2="154.487" y2="90.549" gradientUnits="userSpaceOnUse">
<stop stop-color="#C5D2EC"/>
<stop offset="0.9964" stop-color="#F1F7FE"/>
</linearGradient>
<linearGradient id="paint7_linear_8180_10788" x1="131.071" y1="132.571" x2="205.271" y2="135.529" gradientUnits="userSpaceOnUse">
<stop stop-color="#C5D2EC"/>
<stop offset="0.9964" stop-color="#F1F7FE"/>
</linearGradient>
<linearGradient id="paint8_linear_8180_10788" x1="145.81" y1="174.148" x2="193.672" y2="181.447" gradientUnits="userSpaceOnUse">
<stop stop-color="#81A8FB"/>
<stop offset="1" stop-color="#4F84F7"/>
</linearGradient>
<linearGradient id="paint9_linear_8180_10788" x1="207.483" y1="175.805" x2="240.62" y2="179.226" gradientUnits="userSpaceOnUse">
<stop stop-color="#81A8FB"/>
<stop offset="1" stop-color="#4F84F7"/>
</linearGradient>
<linearGradient id="paint10_linear_8180_10788" x1="207.53" y1="130" x2="207.53" y2="204.353" gradientUnits="userSpaceOnUse">
<stop stop-color="#FFB52E"/>
<stop offset="1" stop-color="#E69603"/>
</linearGradient>
<linearGradient id="paint11_linear_8180_10788" x1="37.5223" y1="144.804" x2="158.271" y2="154.993" gradientUnits="userSpaceOnUse">
<stop stop-color="#C5D2EC"/>
<stop offset="0.9964" stop-color="#F1F7FE"/>
</linearGradient>
<linearGradient id="paint12_linear_8180_10788" x1="91.2245" y1="173.212" x2="95.3836" y2="173.237" gradientUnits="userSpaceOnUse">
<stop stop-color="#B0BBCC"/>
<stop offset="1" stop-color="#8D9EB7"/>
</linearGradient>
<linearGradient id="paint13_linear_8180_10788" x1="76.6102" y1="217.315" x2="102.302" y2="223.37" gradientUnits="userSpaceOnUse">
<stop stop-color="#B0BBCC"/>
<stop offset="1" stop-color="#8D9EB7"/>
</linearGradient>
<linearGradient id="paint14_linear_8180_10788" x1="81.7255" y1="195.961" x2="100.812" y2="200.461" gradientUnits="userSpaceOnUse">
<stop stop-color="#B0BBCC"/>
<stop offset="1" stop-color="#8D9EB7"/>
</linearGradient>
<linearGradient id="paint15_linear_8180_10788" x1="94.8354" y1="208.19" x2="120.533" y2="214.248" gradientUnits="userSpaceOnUse">
<stop stop-color="#B0BBCC"/>
<stop offset="1" stop-color="#8D9EB7"/>
</linearGradient>
<linearGradient id="paint16_linear_8180_10788" x1="94.5376" y1="182.934" x2="111.419" y2="186.914" gradientUnits="userSpaceOnUse">
<stop stop-color="#B0BBCC"/>
<stop offset="1" stop-color="#8D9EB7"/>
</linearGradient>
<clipPath id="clip0_8180_10788">
<rect width="400" height="250" fill="white"/>
</clipPath>
<clipPath id="clip1_8180_10788">
<rect width="337.31" height="208.104" fill="white" transform="translate(33 42)"/>
</clipPath>
</defs>
</svg>
