<svg width="48" height="48" viewBox="0 0 48 48" fill="none" xmlns="http://www.w3.org/2000/svg">
<g id="Google">
<path id="back" d="M0 24C0 10.7452 10.7452 0 24 0C37.2548 0 48 10.7452 48 24C48 37.2548 37.2548 48 24 48C10.7452 48 0 37.2548 0 24Z" fill="#BBD1EA" fill-opacity="0.3"/>
<g id="super-g">
<path id="Shape" d="M23.9997 17.6229C25.9525 17.6229 27.2699 18.4665 28.021 19.1713L30.9561 16.3056C29.1534 14.63 26.8077 13.6016 23.9997 13.6016C19.9321 13.6016 16.4192 15.9358 14.709 19.3331L18.0717 21.9447C18.9152 19.4371 21.2494 17.6229 23.9997 17.6229Z" fill="#EA4335"/>
<path id="Shape_2" d="M33.984 24.2317C33.984 23.3766 33.9147 22.7526 33.7644 22.1055H24V25.965H29.7316C29.616 26.9241 28.992 28.3686 27.6053 29.3392L30.8871 31.8815C32.8516 30.0672 33.984 27.3979 33.984 24.2317Z" fill="#4285F4"/>
<path id="Shape_3" d="M18.0832 26.0574C17.8636 25.4103 17.7365 24.7169 17.7365 24.0005C17.7365 23.284 17.8636 22.5907 18.0716 21.9436L14.7089 19.332C14.0041 20.7418 13.5996 22.3249 13.5996 24.0005C13.5996 25.676 14.0041 27.2591 14.7089 28.6689L18.0832 26.0574Z" fill="#FBBC05"/>
<path id="Shape_4" d="M23.9998 34.4017C26.8078 34.4017 29.1651 33.4773 30.8869 31.8826L27.6051 29.3404C26.7269 29.9528 25.5483 30.3804 23.9998 30.3804C21.2496 30.3804 18.9154 28.5661 18.0834 26.0586L14.7207 28.6701C16.4309 32.0675 19.9323 34.4017 23.9998 34.4017Z" fill="#34A853"/>
</g>
</g>
</svg>
