<svg width="31" height="30" viewBox="0 0 31 30" fill="none" xmlns="http://www.w3.org/2000/svg">
<g id="Group 1707477799">
<path id="Vector" d="M23.0149 29H2.49511C1.94553 29 1.5 28.5648 1.5 28.0278V12.1485C1.5 11.6116 1.94553 11.1763 2.49511 11.1763H7.08524C8.25039 11.1763 9.3301 10.5791 9.92955 9.60296L14.4248 2.2833C15.3948 0.703907 17.6794 0.553767 18.8572 1.99204C19.4123 2.66997 19.5912 3.57104 19.3358 4.40261L17.6401 9.92476C17.4486 10.5485 17.9267 11.1763 18.5933 11.1763H26.1811C28.3682 11.1763 29.9567 13.2082 29.3812 15.2696L26.215 26.612C25.8214 28.022 24.5107 29 23.0149 29Z" stroke="#D8D8D8" stroke-width="1.5" stroke-linecap="round"/>
<path id="Vector_2" d="M7.30469 28.9956V11.1719" stroke="#D8D8D8" stroke-width="1.5" stroke-linecap="round" stroke-linejoin="round"/>
</g>
</svg>
