<svg width="27" height="38" viewBox="0 0 27 38" fill="none" xmlns="http://www.w3.org/2000/svg">
<g id="Group 1000004760">
<path id="Vector" d="M25.4455 37.4C25.7399 37.4 26.0223 37.2841 26.2304 37.0778C26.4386 36.8715 26.5556 36.5917 26.5556 36.3V8.8C26.5556 6.46609 25.6199 4.22778 23.9545 2.57746C22.289 0.92714 20.0302 0 17.6749 0H9.23816C6.88284 0 4.62399 0.92714 2.95853 2.57746C1.29307 4.22778 0.357422 6.46609 0.357422 8.8V9.9C0.357422 10.1917 0.474378 10.4715 0.68256 10.6778C0.890743 10.8841 1.1731 11 1.46751 11C1.76193 11 2.04428 10.8841 2.25247 10.6778C2.46065 10.4715 2.57761 10.1917 2.57761 9.9V8.8C2.57761 7.04957 3.27934 5.37084 4.52844 4.1331C5.77753 2.89536 7.47167 2.2 9.23816 2.2H17.6749C19.4413 2.2 21.1355 2.89536 22.3846 4.1331C23.6337 5.37084 24.3354 7.04957 24.3354 8.8V36.3C24.3354 36.5917 24.4524 36.8715 24.6605 37.0778C24.8687 37.2841 25.1511 37.4 25.4455 37.4Z" fill="#5246ED"/>
<g id="Group 1000004759">
<path id="Vector_2" d="M11.3417 24.6562L10.0469 23.3732L15.3269 18.1412L16.6217 19.4243L11.3417 24.6562Z" fill="#B1B1F5"/>
<path id="Vector_3" d="M15.3269 24.6562L10.0469 19.4243L11.3417 18.1411L16.6216 23.3731L15.3269 24.6562Z" fill="#B1B1F5"/>
<path id="Vector_4" d="M21.264 9.90655V32.8935L20.351 33.8008H6.31796L5.40234 32.8935L5.40234 9.90655L6.31796 8.99926H20.351L21.264 9.90655ZM19.4328 31.9862V10.8138H7.23617L7.23617 31.9862H19.4328Z" fill="#B1B1F5"/>
<path id="Vector_5" d="M18.2286 26.7223V29.5849L17.313 30.4922H14.4232V28.6785H16.3974V26.7223H18.2286ZM12.2585 28.6785V30.4922H9.36874L8.45312 29.5849V26.7223H10.2844V28.6785H12.2585ZM18.2286 13.088V15.9507H16.3974V13.9953H14.4232V12.1807H17.313L18.2286 13.088ZM12.2585 12.1807L12.2585 13.9953H10.2844L10.2844 15.9507H8.45313V13.088L9.36874 12.1807H12.2585Z" fill="#B1B1F5"/>
</g>
</g>
</svg>
