<svg width="78" height="80" viewBox="0 0 78 80" fill="none" xmlns="http://www.w3.org/2000/svg">
<g id="Group 1000005996">
<g id="Group 13956">
<path id="SID_00000116207727414361927190000009687955959054351756_" d="M25.5048 56.6325C26.546 56.7028 27.5903 56.5505 28.5681 56.1858C29.5459 55.8212 30.4349 55.2524 31.1758 54.5175C32.5769 52.8211 33.2757 50.6528 33.1288 48.4575C33.1402 47.2585 32.9509 46.066 32.5688 44.9295C32.238 43.9229 31.7522 42.9742 31.1288 42.1175C30.5399 41.3278 29.8946 40.5819 29.1978 39.8855C28.4991 39.1888 27.7948 38.5222 27.0848 37.8855C26.4009 37.2773 25.7491 36.6342 25.1318 35.9585C24.5422 35.3091 24.0562 34.5728 23.6908 33.7755C23.319 32.9756 23.1279 32.1036 23.1308 31.2215C23.1308 29.0882 23.9828 28.0195 25.6868 28.0155C27.3908 28.0115 28.2428 29.0802 28.2428 31.2215V32.5665H33.0768V31.5505C33.2246 29.363 32.5446 27.1999 31.1718 25.4905C30.4418 24.7541 29.5614 24.1841 28.5907 23.8194C27.6201 23.4547 26.5821 23.304 25.5478 23.3775C24.5135 23.304 23.4755 23.4547 22.5049 23.8194C21.5342 24.1841 20.6538 24.7541 19.9238 25.4905C18.5516 27.2003 17.8717 29.3631 18.0188 31.5505C18.0005 33.1638 18.3507 34.76 19.0428 36.2175C19.659 37.5352 20.5087 38.7305 21.5508 39.7455C22.5401 40.6895 23.5238 41.5952 24.5018 42.4625C25.4608 43.3096 26.2977 44.2856 26.9888 45.3625C27.6549 46.3767 28.0108 47.5631 28.0128 48.7765C28.0128 50.8805 27.1291 51.9332 25.3618 51.9345C23.5945 51.9358 22.7105 50.8848 22.7098 48.7815V46.4575H17.8798V48.4575C17.732 50.6529 18.4309 52.8215 19.8328 54.5175C20.5733 55.2533 21.4623 55.8226 22.4405 56.1873C23.4186 56.5521 24.4633 56.7038 25.5048 56.6325ZM41.1698 56.2575V23.7435H36.0578V56.2625H41.1698V56.2575ZM52.9778 56.2575C58.0591 56.2575 60.6008 53.5788 60.6028 48.2215V31.7795C60.6028 26.4208 58.0611 23.7422 52.9778 23.7435H44.8888V56.2625H52.9778V56.2575ZM52.8778 51.6135H50.0008V28.3875H52.8818C54.6151 28.3875 55.4818 29.4402 55.4818 31.5455V48.4555C55.4818 50.5595 54.6151 51.6122 52.8818 51.6135H52.8778Z" fill="#EB5535"/>
<path id="Combined-Shape_00000041254493147437211920000018137652935815520411_" d="M33.207 0V3.837H3.83V33.26H0V0H33.207Z" fill="#EB5535"/>
<path id="Combined-Shape_00000108287282031750917220000007188879028987012243_" d="M44.7979 0V3.837H74.1719V33.26H77.9999V0H44.7979Z" fill="#80BB01"/>
<path id="Combined-Shape_00000161612442977377533470000004781183484749900417_" d="M33.207 80.0022V76.1652H3.83V46.7422H0V80.0022H33.207Z" fill="#F9AE39"/>
<path id="Combined-Shape_00000048489844847056490970000009565890161040346027_" d="M44.7979 80.0022V76.1652H74.1719V46.7422H77.9999V80.0022H44.7979Z" fill="#397BE7"/>
</g>
</g>
</svg>
