<svg width="20" height="20" viewBox="0 0 20 20" fill="none" xmlns="http://www.w3.org/2000/svg">
<g id="Group">
<g id="Group_2">
<path id="Vector" d="M9.99303 20C8.16277 20 6.36639 19.5002 4.7988 18.5515C4.55307 18.399 4.47681 18.0856 4.62933 17.8399C4.72254 17.6874 4.89201 17.5942 5.07842 17.5942C5.17163 17.5942 5.26484 17.6197 5.3411 17.6705C6.73922 18.5176 8.34918 18.9665 9.99303 18.9665C10.4167 18.9665 10.8404 18.9327 11.2641 18.8734C16.1532 18.1703 19.5596 13.6213 18.8647 8.73359C18.5258 6.36171 17.2802 4.26938 15.3652 2.83778C13.8061 1.66031 11.9504 1.04193 10.0185 1.04193C9.58631 1.04193 9.15416 1.07582 8.72201 1.13511C7.52725 1.30453 6.40028 1.71114 5.375 2.32952C4.3836 2.93096 3.52778 3.70182 2.82448 4.63363C2.12966 5.56544 1.62125 6.60737 1.32468 7.72554C1.01964 8.88606 0.951849 10.0805 1.12132 11.2749C1.30773 12.554 1.74835 13.7569 2.44318 14.8327C2.5957 15.0699 2.52791 15.3918 2.29066 15.5443C2.20592 15.6036 2.11271 15.629 2.01103 15.629C1.83309 15.629 1.67209 15.5443 1.57888 15.3918C0.799327 14.1889 0.307866 12.8505 0.104503 11.4189C-0.276803 8.77594 0.3926 6.14147 1.99408 4.00678C2.28218 3.61711 2.60417 3.25286 2.94311 2.91402C4.47681 1.38077 6.41723 0.415078 8.57796 0.101652C9.05248 0.033884 9.54394 0 10.0185 0C12.1792 0 14.2467 0.694621 15.9922 1.99915C18.1276 3.60017 19.5172 5.93816 19.8985 8.58111C20.6781 14.0364 16.882 19.1105 11.425 19.8983C10.9421 19.9661 10.4591 20 9.99303 20Z" fill="#D70000" fill-opacity="0.5"/>
<path id="Vector_2" d="M13.7215 14.0946C13.5859 14.0946 13.4504 14.0438 13.3572 13.9421L10.044 10.6215L6.7648 13.8659C6.66312 13.959 6.53601 14.0183 6.40044 14.0183C6.26486 14.0183 6.12929 13.959 6.03608 13.8659C5.83272 13.6626 5.84119 13.3322 6.03608 13.1374L9.31531 9.89297L6.0615 6.62317C5.95982 6.52152 5.90898 6.39445 5.90898 6.25892C5.90898 6.12338 5.95982 5.98785 6.0615 5.89467C6.16318 5.79301 6.29028 5.74219 6.42586 5.74219C6.56143 5.74219 6.69701 5.80148 6.79022 5.89467L10.0525 9.16447L13.3572 5.89467C13.4588 5.80148 13.5859 5.74219 13.7215 5.74219C13.8571 5.74219 13.9927 5.79301 14.0859 5.89467C14.2892 6.09797 14.2808 6.42834 14.0859 6.62317L10.7812 9.89297L14.0859 13.2136C14.2892 13.4169 14.2892 13.7473 14.0859 13.9421C13.9927 14.0353 13.8656 14.0946 13.7215 14.0946Z" fill="#D70000" fill-opacity="0.5"/>
</g>
</g>
</svg>
