<svg width="17" height="18" viewBox="0 0 17 18" fill="none" xmlns="http://www.w3.org/2000/svg">
<g id="Group 1000004811">
<path id="Vector" d="M8.42012 17.0165C13.0704 17.0165 16.84 13.2072 16.84 8.50818C16.84 3.80933 13.0704 0 8.42012 0C3.76984 0 0 3.80933 0 8.50818C0 13.2072 3.76984 17.0165 8.42012 17.0165Z" fill="#5246ED"/>
<path id="Vector_2" d="M8.42069 15.564C12.2811 15.564 15.4106 12.4015 15.4106 8.50074C15.4106 4.59978 12.2811 1.4375 8.42069 1.4375C4.5604 1.4375 1.43066 4.59978 1.43066 8.50074C1.43066 12.4015 4.5604 15.564 8.42069 15.564Z" fill="white"/>
<path id="Vector_3" d="M8.40261 9.50575L12.6891 7.40669C13.3069 7.12569 12.9053 6.22037 12.2564 6.51082L8.61429 8.16822V3.81365C8.61429 3.12987 7.5918 3.16121 7.5918 3.81365L7.60719 9.02976C7.60719 9.41974 8.02426 9.70073 8.40261 9.50575Z" fill="#5246ED"/>
</g>
</svg>
