<svg width="375" height="241" viewBox="0 0 375 241" fill="none" xmlns="http://www.w3.org/2000/svg">
<path d="M366.001 47.3639C356.337 28.3742 335.117 14.0942 314.462 18.4753C302.095 21.0987 289.804 29.8993 277.946 25.4811C269.399 22.2966 264.575 13.2657 257.391 7.59946C246.333 -1.12193 230.637 -1.02044 217.161 2.8872C203.685 6.79468 191.349 13.9807 178.035 18.4229C155.346 25.994 130.021 25.1719 107.857 16.145C98.1272 12.1824 89.0196 6.71338 79.1144 3.2244C69.2091 -0.264573 57.9749 -1.61946 48.4138 2.74393C38.8528 7.10716 31.992 18.5194 35.3103 28.5902C35.972 30.5983 37.0098 32.5769 36.8741 34.6892C36.6567 38.0766 33.4244 40.5574 30.1546 41.3108C26.885 42.0643 23.4774 41.5723 20.1252 41.6583C5.08178 42.0444 -8.36178 55.9359 -8.43326 71.1682C-8.49239 83.7997 -0.795996 94.8994 5.78369 105.632C12.3634 116.365 18.2768 129.244 14.3573 141.236C12.0331 148.347 6.58074 153.91 3.00889 160.47C-6.25168 177.476 -4.51028 201.988 11.6293 214.339C21.6716 222.024 51.9805 227.169 63.1543 227.169C89.0824 227.169 115.011 227.169 140.939 227.169C170.268 227.169 199.598 227.169 228.927 227.169C250.305 227.169 271.736 228.653 293.06 227.169C328.282 224.718 351.896 185.5 363.9 156.82C366.26 151.181 368.243 145.384 369.707 139.454C373.578 123.769 374.392 106.993 374.853 90.8993C375.276 76.1599 372.744 60.6134 366.001 47.3639Z" fill="url(#paint0_linear_9359_24223)"/>
<path d="M237.385 225.503C237.385 225.503 258.43 96.9405 317.515 23.8228C321.487 18.9075 329.589 20.1987 331.786 26.116C346.478 65.6823 378.265 186.497 237.385 225.503Z" fill="#91B3FA"/>
<path d="M249.845 216.516C249.548 216.838 250.012 217.289 250.351 217.009C262.884 206.667 310.542 156.723 322.063 62.4157C322.1 62.1128 321.633 62.0275 321.569 62.3259C316.844 84.3151 296.835 165.559 249.845 216.516Z" fill="url(#paint1_linear_9359_24223)"/>
<path d="M88.3555 138.593C86.3449 121.38 75.1586 104.049 67.3869 87.3922C63.278 78.5852 60.0392 69.6154 58.9776 59.8998C57.9221 50.2399 59.531 39.0396 53.0045 30.9146C39.8547 14.5464 22.9753 28.2561 15.8055 45.2524C7.48531 64.9757 11.2467 92.4521 11.9831 114.201C12.4271 127.313 11.4784 141.145 13.3666 154.113C16.4944 175.595 25.1324 188.739 37.7279 195.764C49.8089 202.502 64.8475 200.467 74.7259 190.779C83.6497 182.027 91.599 166.362 88.3555 138.593Z" fill="#BDD0FB"/>
<path d="M65.1436 227.128C64.9999 227.099 64.8717 227.004 64.8053 226.861C60.9825 218.6 51.7207 195.634 44.0307 167.84C38.3858 147.438 34.3342 127.39 31.9884 108.254C29.055 84.3248 28.7957 61.7605 31.2175 41.1875C31.2482 40.9255 31.4856 40.738 31.7472 40.769C32.0109 40.7977 32.1964 41.0372 32.1655 41.2994C29.7529 61.7937 30.0119 84.2774 32.9347 108.126C35.2738 127.213 39.3151 147.212 44.9459 167.567C52.619 195.305 61.8582 218.218 65.6716 226.459C65.7823 226.698 65.6784 226.982 65.439 227.093C65.343 227.138 65.2399 227.148 65.1436 227.128Z" fill="url(#paint2_linear_9359_24223)"/>
<path d="M34.441 221.919C18.288 227.736 -6.24047 206.004 -6.98552 186.891C-7.27735 179.403 -3.76394 176.305 -4.88116 165.673C-6.23665 152.774 -12.0826 150.925 -11.9991 140.851C-11.9255 131.99 -7.28152 118.794 2.82184 115.549C12.261 112.518 22.8665 119.328 27.0225 127.11C31.3909 135.289 26.4326 140.419 30.6851 149.785C34.89 159.046 41.9137 158.823 47.0758 165.482C58.4394 180.141 51.259 215.862 34.441 221.919Z" fill="#91B3FA"/>
<path opacity="0.3" d="M4.23928 126.039C6.49269 133.32 8.6807 140.61 10.8593 147.898L14.152 158.82L15.8054 164.277C16.367 166.092 16.9345 167.906 17.482 169.726C18.0251 171.547 18.6114 173.354 19.183 175.166L20.0442 177.882C20.3206 178.791 20.6197 179.692 20.9107 180.596L22.6662 186.018C23.285 187.812 23.873 189.618 24.478 191.419C26.9361 198.607 29.4895 205.757 32.3271 212.823L31.8939 213.027C31.0205 211.332 30.1664 209.624 29.3172 207.911C28.8761 207.062 28.502 206.185 28.1079 205.315L26.9338 202.702L26.3505 201.394C26.1568 200.957 25.9639 200.52 25.7872 200.077L24.6999 197.428C23.9749 195.662 23.2453 193.895 22.5862 192.105C21.9154 190.318 21.2274 188.537 20.5702 186.744L18.6775 181.342C18.3646 180.44 18.0392 179.543 17.7446 178.636L16.8583 175.915C16.27 174.1 15.6667 172.29 15.1073 170.467C12.795 163.196 10.7518 155.845 8.82957 148.466C7.86818 144.776 6.9706 141.07 6.11686 137.354C5.27773 133.633 4.45598 129.911 3.77441 126.153L4.23928 126.039Z" fill="white"/>
<path d="M4.4835 136.687C-0.0549638 134.04 -3.45064 129.106 -3.48438 129.057L-3.28664 128.922C-3.25307 128.971 0.11321 133.861 4.60402 136.48L4.4835 136.687Z" fill="white"/>
<path d="M4.90924 142.499C-1.74245 139.666 -5.51534 133.891 -5.55273 133.833L-5.35169 133.703C-5.31465 133.761 -1.57915 139.475 5.0028 142.279L4.90924 142.499Z" fill="white"/>
<path d="M5.98267 149.642C-2.06137 147.357 -6.21775 139.964 -6.25879 139.889L-6.04922 139.773C-6.00853 139.847 -1.89789 147.154 6.04772 149.411L5.98267 149.642Z" fill="white"/>
<path d="M8.28597 156.098C0.393229 155.05 -4.7508 147.867 -4.80176 147.794L-4.60628 147.656C-4.55584 147.728 0.53027 154.826 8.31762 155.861L8.28597 156.098Z" fill="white"/>
<path d="M10.0115 161.95C4.89149 161.628 -0.137413 157.681 -0.1875 157.641L-0.0388016 157.453C0.0107639 157.493 4.98245 161.394 10.0266 161.711L10.0115 161.95Z" fill="white"/>
<path d="M11.588 168.876C4.45999 168.365 1.09945 165.189 1.06641 165.157L1.23267 164.984C1.26537 165.016 4.5706 168.133 11.6051 168.637L11.588 168.876Z" fill="white"/>
<path d="M14.6724 177.211C7.24884 177.286 1.33142 171.031 1.27246 170.968L1.44742 170.805C1.50551 170.867 7.35336 177.046 14.6698 176.972L14.6724 177.211Z" fill="white"/>
<path d="M16.5119 185.528C7.51723 185.833 1.07945 178.301 1.01562 178.225L1.19876 178.07C1.26206 178.146 7.62732 185.59 16.5039 185.289L16.5119 185.528Z" fill="white"/>
<path d="M19.9312 194.381C6.48798 193.444 -0.337969 184.46 -0.405273 184.37L-0.213272 184.227C-0.146489 184.316 6.61877 193.213 19.9481 194.142L19.9312 194.381Z" fill="white"/>
<path d="M23.0512 204.675C9.07513 205.252 0.527079 192.238 0.442383 192.106L0.643601 191.977C0.727601 192.107 9.20417 205.007 23.0413 204.436L23.0512 204.675Z" fill="white"/>
<path d="M26.4606 214.09C19.1844 214.624 13.2416 210.848 9.53754 207.586C5.52969 204.057 3.20655 200.351 3.18359 200.314L3.38673 200.188C3.47803 200.334 12.672 214.862 26.4432 213.851L26.4606 214.09Z" fill="white"/>
<path d="M249.198 130.797H199.52V226.698H249.198V130.797Z" fill="#7D97F4"/>
<path d="M255.851 139.089H197.154L186.411 95.875H243.283L258.163 135.465C258.947 137.156 257.713 139.089 255.851 139.089Z" fill="url(#paint3_linear_9359_24223)"/>
<path d="M243.284 96.4625L183.33 98.8304V94.0944L239.354 91.7266C241.524 91.7266 243.284 93.0122 243.284 94.5981L243.284 96.4625Z" fill="url(#paint4_linear_9359_24223)"/>
<g opacity="0.89">
<path opacity="0.79" d="M238.504 200.65H210.508C210.4 200.65 210.312 200.563 210.312 200.455V157.039C210.312 156.931 210.4 156.844 210.508 156.844H238.504C238.612 156.844 238.7 156.931 238.7 157.039V200.455C238.7 200.563 238.612 200.65 238.504 200.65Z" fill="white"/>
<g opacity="0.9">
<path d="M223.296 198.281H212.491C212.431 198.281 212.383 198.233 212.383 198.173V159.32C212.383 159.26 212.432 159.211 212.491 159.211H223.296C223.356 159.211 223.404 159.26 223.404 159.32V198.173C223.404 198.233 223.356 198.281 223.296 198.281Z" fill="url(#paint5_linear_9359_24223)"/>
<path d="M236.522 198.281H225.718C225.658 198.281 225.609 198.233 225.609 198.173V159.32C225.609 159.26 225.658 159.211 225.718 159.211H236.522C236.582 159.211 236.631 159.26 236.631 159.32V198.173C236.631 198.233 236.582 198.281 236.522 198.281Z" fill="url(#paint6_linear_9359_24223)"/>
</g>
</g>
<path d="M27.3078 226.698H75.2159V130.797H25.5381V224.926C25.5381 225.904 26.3304 226.698 27.3078 226.698Z" fill="#7D97F4"/>
<path d="M18.884 139.089H77.5812L88.2308 98.7895L31.4515 95.875L16.5716 135.465C15.7881 137.156 17.0217 139.089 18.884 139.089Z" fill="url(#paint7_linear_9359_24223)"/>
<path d="M31.4512 96.4625L95.987 102.604L96.0301 94.0944L35.6842 91.7266C33.3463 91.7266 31.4512 93.0122 31.4512 94.5981V96.4625Z" fill="url(#paint8_linear_9359_24223)"/>
<g opacity="0.89">
<path opacity="0.79" d="M36.2305 200.65H64.2271C64.335 200.65 64.4224 200.563 64.4224 200.455V157.039C64.4224 156.931 64.335 156.844 64.2271 156.844H36.2305C36.1226 156.844 36.0352 156.931 36.0352 157.039V200.455C36.0352 200.563 36.1226 200.65 36.2305 200.65Z" fill="white"/>
<g opacity="0.9">
<path d="M51.4396 198.281H62.2442C62.3042 198.281 62.3527 198.233 62.3527 198.173V159.32C62.3527 159.26 62.3042 159.211 62.2442 159.211H51.4396C51.3796 159.211 51.3311 159.26 51.3311 159.32V198.173C51.3311 198.233 51.3796 198.281 51.4396 198.281Z" fill="url(#paint9_linear_9359_24223)"/>
<path d="M38.213 198.281H49.0176C49.0776 198.281 49.1261 198.233 49.1261 198.173V159.32C49.1261 159.26 49.0774 159.211 49.0176 159.211H38.213C38.153 159.211 38.1045 159.26 38.1045 159.32V198.173C38.1045 198.233 38.1532 198.281 38.213 198.281Z" fill="url(#paint10_linear_9359_24223)"/>
</g>
</g>
<path d="M137.368 70.8203C137.368 70.8203 70.0181 121.715 68.3496 121.715V227.446C68.3496 229.373 69.9098 230.935 71.8345 230.935H203.297C205.003 230.935 206.386 229.551 206.386 227.843V121.715L137.368 70.8203Z" fill="#91B3FA"/>
<path opacity="0.9" d="M155.68 226.705H112.883V219.989C112.883 219.685 113.13 219.438 113.434 219.438H155.129C155.434 219.438 155.68 219.685 155.68 219.989V226.705Z" fill="url(#paint11_linear_9359_24223)"/>
<path opacity="0.9" d="M155.68 232.463H112.883V225.747C112.883 225.443 113.13 225.195 113.434 225.195H155.129C155.434 225.195 155.68 225.442 155.68 225.747V232.463Z" fill="url(#paint12_linear_9359_24223)"/>
<path d="M148.887 219.432H119.676V163.01C119.676 162.668 119.953 162.391 120.295 162.391H148.268C148.61 162.391 148.887 162.668 148.887 163.01V219.432Z" fill="url(#paint13_linear_9359_24223)"/>
<path d="M146.824 158.552H121.738C120.599 158.552 119.676 157.628 119.676 156.487V154.684C119.676 153.599 120.514 152.7 121.595 152.624L146.681 150.88C147.874 150.797 148.887 151.743 148.887 152.94V156.487C148.887 157.628 147.963 158.552 146.824 158.552Z" fill="#BDD0FB"/>
<g opacity="0.9">
<path opacity="0.9" d="M172.084 133.211H171.807C164.592 133.211 158.276 138.324 158.276 145.545V158.55H172.084V133.211Z" fill="url(#paint14_linear_9359_24223)"/>
<path opacity="0.9" d="M158.276 162.391V200.652C158.276 201.94 159.787 203.938 161.074 203.938H172.084V162.391H158.276Z" fill="url(#paint15_linear_9359_24223)"/>
<path opacity="0.9" d="M175.855 133.211H175.153V158.55H188.961V145.545C188.961 138.324 183.07 133.211 175.855 133.211Z" fill="url(#paint16_linear_9359_24223)"/>
<path opacity="0.9" d="M175.153 203.938H186.588C187.875 203.938 188.961 201.94 188.961 200.652V162.391H175.153V203.938Z" fill="url(#paint17_linear_9359_24223)"/>
</g>
<g opacity="0.9">
<path opacity="0.9" d="M96.0307 133.211H95.7532C88.5387 133.211 82.2227 138.324 82.2227 145.545V158.55H96.0307V133.211Z" fill="url(#paint18_linear_9359_24223)"/>
<path opacity="0.9" d="M82.2227 162.391V200.652C82.2227 201.94 83.7336 203.938 85.0206 203.938H96.0307V162.391H82.2227Z" fill="url(#paint19_linear_9359_24223)"/>
<path opacity="0.9" d="M99.8014 133.211H99.0996V158.55H112.908V145.545C112.908 138.324 107.016 133.211 99.8014 133.211Z" fill="url(#paint20_linear_9359_24223)"/>
<path opacity="0.9" d="M99.0996 203.938H110.534C111.821 203.938 112.908 201.94 112.908 200.652V162.391H99.0996V203.938Z" fill="url(#paint21_linear_9359_24223)"/>
</g>
<path opacity="0.64" d="M130.225 204.102H125.816C124.346 204.102 123.15 202.905 123.15 201.434V168.809C123.15 167.338 124.346 166.141 125.816 166.141H130.225C131.695 166.141 132.891 167.338 132.891 168.809V201.434C132.891 202.905 131.695 204.102 130.225 204.102ZM125.816 166.461C124.523 166.461 123.47 167.514 123.47 168.809V201.434C123.47 202.728 124.523 203.782 125.816 203.782H130.225C131.519 203.782 132.571 202.728 132.571 201.434V168.809C132.571 167.514 131.519 166.461 130.225 166.461H125.816Z" fill="white"/>
<path opacity="0.64" d="M142.528 204.102H138.119C136.649 204.102 135.453 202.905 135.453 201.434V168.809C135.453 167.338 136.649 166.141 138.119 166.141H142.528C143.998 166.141 145.194 167.338 145.194 168.809V201.434C145.194 202.905 143.998 204.102 142.528 204.102ZM138.119 166.461C136.826 166.461 135.773 167.514 135.773 168.809V201.434C135.773 202.728 136.826 203.782 138.119 203.782H142.528C143.822 203.782 144.874 202.728 144.874 201.434V168.809C144.874 167.514 143.822 166.461 142.528 166.461H138.119Z" fill="white"/>
<path opacity="0.64" d="M130.225 215.098H125.816C124.346 215.098 123.15 213.9 123.15 212.429V208.677C123.15 207.205 124.346 206.008 125.816 206.008H130.225C131.695 206.008 132.891 207.205 132.891 208.677V212.429C132.891 213.901 131.695 215.098 130.225 215.098ZM125.816 206.328C124.523 206.328 123.47 207.382 123.47 208.677V212.429C123.47 213.724 124.523 214.777 125.816 214.777H130.225C131.519 214.777 132.571 213.724 132.571 212.429V208.677C132.571 207.382 131.519 206.328 130.225 206.328H125.816Z" fill="white"/>
<path opacity="0.64" d="M142.528 215.098H138.119C136.649 215.098 135.453 213.9 135.453 212.429V208.677C135.453 207.205 136.649 206.008 138.119 206.008H142.528C143.998 206.008 145.194 207.205 145.194 208.677V212.429C145.194 213.901 143.998 215.098 142.528 215.098ZM138.119 206.328C136.826 206.328 135.773 207.382 135.773 208.677V212.429C135.773 213.724 136.826 214.777 138.119 214.777H142.528C143.822 214.777 144.874 213.724 144.874 212.429V208.677C144.874 207.382 143.822 206.328 142.528 206.328H138.119Z" fill="white"/>
<path opacity="0.64" d="M190.156 206.329H156.917C155.011 206.329 153.46 204.777 153.46 202.869V145.263C153.46 136.153 160.864 128.742 169.965 128.742H177.107C186.208 128.742 193.612 136.153 193.612 145.263V202.869C193.612 204.777 192.062 206.329 190.156 206.329ZM169.965 129.063C161.041 129.063 153.78 136.33 153.78 145.263V202.87C153.78 204.601 155.187 206.009 156.917 206.009H190.156C191.885 206.009 193.292 204.601 193.292 202.87V145.263C193.292 136.33 186.032 129.062 177.107 129.062L169.965 129.063Z" fill="white"/>
<path opacity="0.64" d="M114.117 206.329H80.8774C78.9715 206.329 77.4209 204.777 77.4209 202.869V145.263C77.4209 136.153 84.8249 128.742 93.9257 128.742H101.068C110.169 128.742 117.573 136.153 117.573 145.263V202.869C117.573 204.777 116.023 206.329 114.117 206.329ZM93.9257 129.063C85.0013 129.063 77.7409 136.33 77.7409 145.263V202.87C77.7409 204.601 79.1479 206.009 80.8773 206.009H114.116C115.846 206.009 117.253 204.601 117.253 202.87V145.263C117.253 136.33 109.992 129.062 101.068 129.062L93.9257 129.063Z" fill="white"/>
<path d="M179.007 71.9297H167.59V90.5381H179.007V71.9297Z" fill="url(#paint22_linear_9359_24223)"/>
<path d="M182.77 74.9487H164.315V70.2954C164.315 69.7094 164.79 69.2344 165.375 69.2344H181.156C182.048 69.2344 182.77 69.9575 182.77 70.8495L182.77 74.9487Z" fill="url(#paint23_linear_9359_24223)"/>
<path d="M64.1183 127.049L137.368 70.8187L206.898 124.804C209.425 126.766 213.132 125.392 213.773 122.255L214.748 117.48L137.368 58.4766L62.4666 115.742C61.1256 116.768 60.639 118.566 61.2798 120.129L64.1183 127.049Z" fill="url(#paint24_linear_9359_24223)"/>
<path d="M250.05 231.641H230.428V26.6169C230.428 23.066 233.304 20.1875 236.851 20.1875H244.742C247.674 20.1875 250.05 22.5663 250.05 25.5007V231.641Z" fill="url(#paint25_linear_9359_24223)"/>
<path d="M296.591 123.477H184.199C180.988 123.477 178.385 120.871 178.385 117.657V54.0389C178.385 50.8244 180.988 48.2188 184.199 48.2188H296.591C299.802 48.2188 302.406 50.8244 302.406 54.0389V117.657C302.406 120.871 299.803 123.477 296.591 123.477Z" fill="url(#paint26_linear_9359_24223)"/>
<path d="M293.442 121.798H186.814C183.603 121.798 181 119.192 181 115.978V57.8201C181 54.6057 183.603 52 186.814 52H293.442C296.653 52 299.256 54.6057 299.256 57.8201V115.978C299.256 119.192 296.653 121.798 293.442 121.798Z" fill="white"/>
<path d="M232.598 96.4199C233.194 96.4601 233.792 96.373 234.352 96.1642C234.911 95.9555 235.42 95.63 235.844 95.2093C236.646 94.2383 237.046 92.9972 236.962 91.7407C236.969 91.0544 236.86 90.3719 236.641 89.7213C236.452 89.1452 236.174 88.6022 235.817 88.1118C235.48 87.6598 235.111 87.2328 234.712 86.8342C234.312 86.4355 233.909 86.0539 233.503 85.6895C233.111 85.3414 232.738 84.9732 232.385 84.5865C232.047 84.2148 231.769 83.7934 231.56 83.337C231.347 82.8791 231.238 82.38 231.239 81.8751C231.239 80.6541 231.727 80.0424 232.702 80.0401C233.678 80.0378 234.165 80.6495 234.165 81.8751V82.645H236.932V82.0634C237.017 80.8114 236.628 79.5733 235.842 78.5948C235.424 78.1733 234.92 77.847 234.365 77.6383C233.809 77.4296 233.215 77.3433 232.623 77.3854C232.031 77.3433 231.437 77.4296 230.881 77.6383C230.326 77.847 229.822 78.1733 229.404 78.5948C228.618 79.5735 228.229 80.8114 228.313 82.0634C228.303 82.9869 228.503 83.9005 228.899 84.7348C229.252 85.489 229.739 86.1732 230.335 86.7541C230.901 87.2944 231.464 87.8128 232.024 88.3093C232.573 88.7942 233.052 89.3528 233.448 89.9692C233.829 90.5497 234.033 91.2288 234.034 91.9233C234.034 93.1276 233.528 93.7301 232.516 93.7309C231.505 93.7316 230.999 93.1301 230.998 91.9261V90.5959H228.234V91.7407C228.149 92.9973 228.549 94.2386 229.352 95.2093C229.775 95.6305 230.284 95.9563 230.844 96.1651C231.404 96.3739 232.002 96.4607 232.598 96.4199ZM241.565 96.2053V77.5949H238.639V96.2081H241.565V96.2053ZM248.323 96.2053C251.232 96.2053 252.686 94.6721 252.688 91.6056V82.1945C252.688 79.1273 251.233 77.5941 248.323 77.5949H243.693V96.2081H248.323V96.2053ZM248.266 93.5471H246.619V80.253H248.268C249.26 80.253 249.756 80.8555 249.756 82.0606V91.7396C249.756 92.9438 249.26 93.5464 248.268 93.5471H248.266Z" fill="#EB5535"/>
<path d="M237.007 64V66.1962H220.192V83.0374H218V64H237.007Z" fill="#EB5535"/>
<path d="M243.642 64V66.1962H260.455V83.0374H262.646V64H243.642Z" fill="#80BB01"/>
<path d="M237.007 109.795V107.599H220.192V90.7578H218V109.795H237.007Z" fill="#F9AE39"/>
<path d="M243.642 109.795V107.599H260.455V90.7578H262.646V109.795H243.642Z" fill="#397BE7"/>
<path d="M238.417 232.374C238.064 232.353 237.737 232.192 237.505 231.924C234.13 228.02 209.413 197.34 236.851 165.531C262.899 135.334 275.229 128.609 275.688 111.984C275.741 110.043 278.308 109.385 279.295 111.057C286.668 123.555 298.911 153.094 267.417 175.457C232.676 200.125 237.464 223.94 239.736 230.639C240.037 231.525 239.349 232.43 238.417 232.374Z" fill="#BDD0FB"/>
<path d="M242.976 232.646C242.139 232.595 241.435 232.006 241.246 231.189C239.954 225.628 236.242 204.763 251.297 198.023C267.871 190.603 282.817 205.449 294.405 192.077C295.015 191.373 296.165 191.86 296.077 192.787C295.45 199.364 291.615 214.776 269.756 219.465C246.359 224.482 243.903 227.397 244.633 230.729C244.858 231.756 244.024 232.709 242.976 232.646Z" fill="#BDD0FB"/>
<path d="M276.128 128.864C275.931 130.109 275.633 131.287 275.261 132.461C274.896 133.634 274.461 134.783 273.978 135.912C273.023 138.177 271.836 140.34 270.514 142.416C267.85 146.559 264.529 150.272 260.803 153.489C258.945 155.088 256.941 156.581 254.952 157.943C253.016 159.271 251.166 160.733 249.407 162.297C245.887 165.427 242.749 168.986 240.031 172.835C234.618 180.536 231.047 189.607 230.355 199.031C229.994 203.733 230.343 208.493 231.335 213.133C232.32 217.779 234.001 222.274 236.097 226.573C236.21 226.802 236.116 227.079 235.887 227.192C235.667 227.301 235.401 227.215 235.28 227.006C232.891 222.782 231.001 218.242 229.787 213.499C229.171 211.131 228.73 208.711 228.473 206.269C228.23 203.825 228.149 201.36 228.274 198.901C228.5 193.981 229.515 189.101 231.157 184.455C232.804 179.808 235.11 175.408 237.885 171.345C240.658 167.276 243.952 163.575 247.611 160.283C249.445 158.64 251.375 157.102 253.406 155.698C255.395 154.347 257.278 152.985 259.086 151.46C262.697 148.445 265.987 145.03 268.751 141.207C270.153 139.31 271.4 137.298 272.521 135.215C273.617 133.13 274.623 130.94 275.298 128.704L275.307 128.675C275.374 128.452 275.61 128.326 275.833 128.393C276.037 128.455 276.16 128.658 276.128 128.864Z" fill="url(#paint27_linear_9359_24223)"/>
<path d="M241.708 228.91C241.765 228.701 241.728 228.513 241.707 228.319L241.645 227.74L241.545 226.582C241.488 225.809 241.447 225.036 241.423 224.261C241.375 222.713 241.391 221.161 241.482 219.611C241.672 216.516 242.136 213.409 243.156 210.439C244.163 207.49 245.808 204.62 248.359 202.634C249.631 201.658 251.092 200.921 252.632 200.486C254.17 200.039 255.772 199.869 257.352 199.889C263.56 200.14 269.68 200.867 275.8 201.371C278.846 201.594 281.931 201.765 284.858 201.138C285.585 200.975 286.297 200.76 286.983 200.481C287.661 200.185 288.324 199.849 288.935 199.426C290.166 198.594 291.221 197.504 292.148 196.313L292.151 196.309C292.278 196.145 292.515 196.116 292.678 196.244C292.84 196.37 292.871 196.602 292.749 196.766C291.814 198.023 290.725 199.202 289.42 200.126C288.772 200.595 288.064 200.976 287.338 201.31C286.603 201.627 285.843 201.875 285.07 202.065C281.955 202.764 278.803 202.606 275.725 202.418C272.637 202.212 269.577 201.872 266.512 201.61C263.457 201.345 260.367 201.1 257.335 200.973C255.84 200.941 254.342 201.089 252.918 201.49C251.49 201.879 250.146 202.543 248.967 203.431C246.588 205.211 244.965 207.882 243.94 210.718C242.902 213.568 242.386 216.609 242.143 219.656C242.025 221.182 241.982 222.715 242.001 224.249C242.011 225.015 242.037 225.782 242.08 226.547L242.158 227.694L242.208 228.266C242.228 228.455 242.233 228.651 242.34 228.824C242.441 228.988 242.391 229.204 242.227 229.305C242.063 229.407 241.847 229.356 241.746 229.191C241.693 229.106 241.682 229.007 241.706 228.917L241.708 228.91Z" fill="url(#paint28_linear_9359_24223)"/>
<path d="M318.937 166.789C320.146 168.04 321.914 169.11 323.157 169.774C321.354 172.08 318.901 174.4 315.642 176.684L314.733 178.818L311.652 175.241C311.652 175.241 317.031 172.453 318.937 166.789Z" fill="url(#paint29_linear_9359_24223)"/>
<path d="M303.87 235.814C303.868 235.749 303.871 235.683 303.886 235.617C304.803 231.716 309.622 229.219 309.622 229.219L311.549 229.339C312.712 232.744 312.603 234.846 312.44 235.785C312.436 235.811 312.428 235.836 312.422 235.861C310.836 236.029 307.569 236.175 303.87 235.814Z" fill="url(#paint30_linear_9359_24223)"/>
<path d="M312.422 235.861C312.342 236.174 312.115 236.421 311.821 236.488C309.57 237 305.973 236.675 304.463 236.502C304.129 236.464 303.881 236.16 303.87 235.812C307.569 236.174 310.837 236.028 312.422 235.861Z" fill="url(#paint31_linear_9359_24223)"/>
<path d="M312.278 226.453L311.526 230.395C311.47 230.684 311.253 230.903 310.986 230.933C310.659 230.969 310.192 230.994 309.722 230.933C309.301 230.878 309.001 230.455 309.068 229.994L309.579 226.496L312.278 226.453Z" fill="url(#paint32_linear_9359_24223)"/>
<path d="M295.535 236.096C297.66 236.002 298.756 235.734 299.32 235.492C299.325 235.704 299.327 235.919 299.324 236.142C299.321 236.381 299.147 236.574 298.93 236.576L287.255 236.689C286.882 236.693 286.658 236.264 286.814 235.919C288.347 236.021 292.25 236.241 295.535 236.096Z" fill="url(#paint33_linear_9359_24223)"/>
<path d="M286.814 235.917C286.828 235.887 286.84 235.856 286.859 235.828C287.867 234.369 290.447 231.455 295.615 230.127L298.103 230.008C298.103 230.008 299.242 231.918 299.321 235.49C298.756 235.732 297.66 236 295.535 236.094C292.25 236.239 288.347 236.019 286.814 235.917Z" fill="url(#paint34_linear_9359_24223)"/>
<path d="M298.504 226.224C298.479 226.41 298.183 229.238 298.069 230.335C298.042 230.596 297.857 230.8 297.62 230.832C297.197 230.89 296.512 230.947 295.91 230.833C295.585 230.772 295.346 230.465 295.34 230.103L295.269 225.672L298.504 226.224Z" fill="url(#paint35_linear_9359_24223)"/>
<path d="M299.671 174.681C299.671 174.681 294.035 197.616 294.606 226.354C294.617 226.878 294.991 227.324 295.505 227.423C296.263 227.57 297.375 227.742 298.294 227.701C298.784 227.679 299.188 227.309 299.262 226.823C300.025 221.868 304.408 193.953 307.087 189.389C307.087 189.389 309.297 214.153 308.925 227.026C308.916 227.346 309.155 227.619 309.473 227.651C309.956 227.699 310.728 227.729 311.707 227.609C312.079 227.563 312.375 227.276 312.422 226.904C312.955 222.713 316.005 197.764 315.57 179.834C315.545 178.823 312.811 174.469 312.811 174.469L299.671 174.681Z" fill="url(#paint36_linear_9359_24223)"/>
<path d="M290.878 147.174C291.817 145.561 292.756 143.948 293.696 142.335C301.077 136.82 312.366 139.369 316.724 139.847C318.154 140.004 319.469 140.687 320.427 141.761C324.223 146.018 332.593 157.708 323.157 169.774C321.914 169.109 320.146 168.04 318.937 166.789C319.953 163.766 319.979 159.924 317.671 155.251C317.601 155.625 317.512 155.996 317.403 156.362C314.484 166.168 314.45 174.289 314.487 176.16C314.493 176.414 314.344 176.645 314.11 176.744C310.087 178.433 302.277 177.592 299.654 177.244C299.173 177.18 298.844 176.738 298.902 176.256C300.036 166.924 293.2 151.711 291.397 147.902C291.268 147.628 291.091 147.382 290.878 147.174Z" fill="url(#paint37_linear_9359_24223)"/>
<path d="M309.599 132.118L310.508 140.086C310.508 140.086 306.044 141.51 302.745 139.259L304.922 131.969L309.599 132.118Z" fill="url(#paint38_linear_9359_24223)"/>
<path d="M304.249 123.108C304.143 123.211 299.836 132.026 299.836 132.026L304.916 134.381L310.239 126.633C310.239 126.633 306.029 121.376 304.249 123.108Z" fill="url(#paint39_linear_9359_24223)"/>
<path d="M308.011 126.883C308.105 127.114 308.087 127.374 307.962 127.59L305.515 131.826C305.478 131.891 305.434 131.949 305.38 132.001C305.085 132.284 304.074 133.112 303.265 132.02C302.575 131.09 301.928 130.245 301.244 129.903C300.844 129.703 300.36 129.875 300.165 130.278C299.764 131.106 298.989 132.794 298.51 134.391C298.39 134.791 298.602 135.216 298.992 135.366C300.019 135.764 302.049 136.48 303.843 136.698C304.138 136.734 304.427 136.605 304.598 136.363C305.351 135.294 307.475 132.307 308.204 131.556C308.881 130.859 310.156 131.097 310.731 131.253C310.949 131.312 311.18 131.278 311.372 131.158C311.947 130.798 312.947 129.91 311.996 128.449C311.759 128.085 311.869 127.594 312.227 127.35C312.868 126.913 313.559 126.1 312.868 124.813C312.168 123.51 310.954 123.411 310.131 123.526C309.766 123.576 309.392 123.391 309.247 123.052C309.182 122.902 309.056 122.775 308.826 122.732C308.392 122.651 308.102 122.26 308.18 121.825C308.314 121.079 308.188 120.115 306.992 119.481C304.797 118.319 302.924 120.3 302.466 121.955C302.008 123.609 304.458 124.733 305.991 124.903C307.117 125.027 307.753 126.245 308.011 126.883Z" fill="url(#paint40_linear_9359_24223)"/>
<path d="M307.046 132.984C307.046 132.984 308.206 130.262 309.446 130.346C310.685 130.43 311.68 131.649 310.167 133.061C308.287 134.818 307.046 132.984 307.046 132.984Z" fill="url(#paint41_linear_9359_24223)"/>
<path d="M307.299 188.806C307.4 188.804 307.491 188.735 307.516 188.633C307.983 186.703 311.677 184.53 311.714 184.509C311.822 184.445 311.859 184.307 311.796 184.199C311.733 184.091 311.595 184.054 311.486 184.117C311.327 184.209 307.588 186.409 307.076 188.526C307.046 188.648 307.121 188.77 307.243 188.8C307.261 188.804 307.281 188.806 307.299 188.806Z" fill="url(#paint42_linear_9359_24223)"/>
<path d="M275.759 149.928C284.226 151.061 289.645 145.638 293.695 142.335C299.042 137.976 303.291 139.986 303.291 139.986L297.692 151.113C289.198 159.393 280.325 157.728 274.707 155.18C274.587 153.05 275.127 151.257 275.759 149.928Z" fill="url(#paint43_linear_9359_24223)"/>
<path d="M263.807 145.078L266.632 146.542C270.024 148.535 273.048 149.568 275.759 149.931C275.127 151.259 274.587 153.052 274.707 155.182C271.131 153.56 268.874 151.58 268.874 151.58C262.467 147.895 263.807 145.078 263.807 145.078Z" fill="url(#paint44_linear_9359_24223)"/>
<path d="M255.619 149.164C255.79 148.559 256.227 148.065 256.805 147.821L262.453 145.441C262.453 145.441 262.527 144.71 261.232 144.235C259.937 143.76 260.215 142.312 260.215 142.312C260.215 142.312 261.986 143.087 264.58 144.319C266.064 145.023 266.911 146.295 267.364 147.256L265.932 149.206C262.445 150.316 258.903 150.575 255.321 150.214L255.619 149.164Z" fill="url(#paint45_linear_9359_24223)"/>
<path d="M320.166 146.986C321.03 145.558 322.538 144.619 323.448 143.219C324.593 141.455 324.632 139.119 323.882 137.154C323.259 135.523 322.15 134.115 321.515 132.489C320.66 130.301 320.644 129.359 321.033 127.163C321.376 125.228 322.127 123.167 323.983 122.057C326.278 120.684 329.086 120.424 331.713 120.921C334.44 121.436 337.084 122.595 339.079 124.526C341.074 126.458 342.374 129.167 342.341 131.945C342.319 133.824 341.715 135.761 342.316 137.542C342.784 138.926 344.001 140.031 345.422 140.363C347.002 140.732 348.645 140.192 350.267 140.213C351.876 140.234 353.471 140.831 354.698 141.871C355.785 142.793 356.591 144.085 356.775 145.499C356.958 146.914 356.466 148.435 355.38 149.358C354.637 149.989 353.592 150.417 353.318 151.353C353.011 152.4 353.911 153.452 354.915 153.877C355.919 154.302 357.049 154.338 358.071 154.719C360.356 155.571 361.741 158.149 361.563 160.584C361.384 163.019 359.845 165.223 357.827 166.594C355.809 167.964 353.359 168.58 350.929 168.778C348.498 168.976 346.055 168.782 343.618 168.668C340.832 168.536 337.99 168.499 335.347 167.605C332.675 166.7 330.366 164.969 328.213 163.144C327.194 162.28 326.16 161.335 325.702 160.079C325.37 159.167 325.368 158.153 324.986 157.261C324.167 155.346 321.894 154.532 320.579 152.917C319.246 151.28 319.073 148.793 320.166 146.986Z" fill="url(#paint46_linear_9359_24223)"/>
<path d="M350.399 150.429C350.404 150.429 350.409 150.429 350.414 150.428C351.567 150.216 352.582 149.371 353.002 148.276C353.422 147.18 353.231 145.873 352.516 144.943C351.454 143.563 349.584 143.206 347.76 142.959L344.454 142.51C342.588 142.257 340.677 141.894 339.604 140.514C338.46 139.042 338.688 137.031 338.909 135.086C338.935 134.864 338.959 134.643 338.982 134.425C339.271 131.646 338.981 129.231 338.119 127.246C337.067 124.824 335.106 123.042 332.873 122.48C332.828 122.467 332.783 122.495 332.771 122.541C332.76 122.586 332.787 122.632 332.832 122.643C335.015 123.193 336.933 124.938 337.964 127.313C338.815 129.272 339.101 131.658 338.815 134.407C338.792 134.625 338.767 134.845 338.742 135.067C338.517 137.046 338.285 139.091 339.472 140.617C340.583 142.048 342.531 142.419 344.431 142.677L347.737 143.126C349.527 143.368 351.36 143.717 352.382 145.046C353.062 145.93 353.244 147.174 352.845 148.215C352.446 149.257 351.48 150.06 350.384 150.262C350.338 150.271 350.308 150.314 350.316 150.36C350.324 150.401 350.359 150.429 350.399 150.429Z" fill="#91B3FA"/>
<path d="M349.356 149.415C349.397 149.415 349.439 149.4 349.471 149.369C349.875 148.99 350.333 148.561 350.605 148.016C350.852 147.522 350.975 146.788 350.58 146.21C350.322 145.833 349.902 145.618 349.486 145.441C348.476 145.011 347.415 144.703 346.332 144.526C345.627 144.411 344.906 144.351 344.208 144.293C343.307 144.218 342.376 144.14 341.484 143.943C340.419 143.708 338.506 143.063 337.674 141.387C337.002 140.033 337.252 138.522 337.516 136.923C337.73 135.627 337.952 134.286 337.648 133.012C337.626 132.922 337.535 132.866 337.445 132.888C337.355 132.909 337.299 133 337.32 133.091C337.608 134.299 337.392 135.605 337.183 136.868C336.922 138.45 336.652 140.085 337.373 141.537C338.267 143.338 340.287 144.024 341.412 144.272C342.325 144.474 343.268 144.553 344.18 144.629C344.871 144.687 345.586 144.746 346.278 144.859C347.334 145.031 348.369 145.331 349.354 145.751C349.698 145.897 350.083 146.08 350.302 146.4C350.559 146.777 350.56 147.352 350.304 147.865C350.059 148.356 349.643 148.746 349.241 149.123C349.173 149.187 349.169 149.294 349.233 149.361C349.266 149.397 349.311 149.415 349.356 149.415Z" fill="#91B3FA"/>
<path d="M322.573 143.73C324.147 143.23 328.738 142.279 333.184 146.255C333.938 146.929 334.258 147.967 334.009 148.948C332.902 153.302 330.004 166.162 332.815 171.66C332.815 171.66 328.104 177.03 322.802 172.848C322.802 172.848 320.29 162.644 317.142 158.197C314.969 155.127 320.34 146.486 321.7 144.397C321.906 144.081 322.214 143.844 322.573 143.73Z" fill="url(#paint47_linear_9359_24223)"/>
<path d="M326.802 135.047C326.802 135.047 329.247 141.632 329.47 144.551C329.47 144.551 326.904 145.769 324.436 143.822C324.436 143.822 324.074 137.211 323.686 136.033L326.802 135.047Z" fill="url(#paint48_linear_9359_24223)"/>
<path d="M323.407 126.069C323.407 126.069 317.427 134.738 321.124 137.168C324.822 139.598 329.079 133.438 329.079 133.438C329.079 133.438 330.423 128.724 328.913 127.157C327.403 125.59 323.407 126.069 323.407 126.069Z" fill="url(#paint49_linear_9359_24223)"/>
<path d="M326.206 123.97C326.206 123.97 323.407 124.682 323.033 125.961C322.66 127.241 327.058 128.35 328.286 128.388L329.358 133.509C329.358 133.509 332.203 128.63 331 125.858C329.798 123.086 326.206 123.97 326.206 123.97Z" fill="url(#paint50_linear_9359_24223)"/>
<path d="M327.883 132.829C327.883 132.829 330.22 130.029 331.197 131.814C332.173 133.599 329.103 135 328.019 134.133L327.883 132.829Z" fill="url(#paint51_linear_9359_24223)"/>
<path d="M317.04 194.453C317.065 194.918 316.309 198.619 315.897 200.594C315.731 201.388 315.869 202.214 316.282 202.912L332.071 228.561C332.262 228.871 332.403 229.208 332.491 229.562C332.792 230.773 333.424 233.742 333.163 236.456L332.394 238.122L335.821 237.285L336.42 228.028L335.437 227.45C334.588 226.95 333.921 226.193 333.531 225.287C332.087 221.93 328.497 213.383 327.539 209.204C326.452 204.456 321.103 200.671 321.103 200.671L321.996 198.458L317.04 194.453Z" fill="url(#paint52_linear_9359_24223)"/>
<path d="M339.592 234.04C339.592 234.04 337.688 231.122 337.451 229.978C337.214 228.835 336.573 226.819 335.438 227.447C335.438 227.447 334.988 233.029 335.209 235.203C335.43 237.378 332.783 237.351 332.783 237.351C332.783 237.351 332.056 237.465 331.531 238.008C331.168 238.383 331.442 239.018 331.963 239.044C332.829 239.086 334.204 239.078 335.644 238.775C336.147 238.67 336.514 238.234 336.536 237.72L336.814 231.3L339.204 234.223L339.592 234.04Z" fill="url(#paint53_linear_9359_24223)"/>
<path d="M326.289 198.43C326.289 198.43 327.204 221.586 327.33 224.875C327.457 228.163 326.982 235.464 323.722 237.696L325.172 238.735C325.172 238.735 326.94 237.182 328.643 234.22C330.556 230.893 331.141 230.281 331.141 230.281L330.467 228.954C330.172 228.373 330.078 227.712 330.199 227.071C330.854 223.611 333.045 212.099 333.653 209.618C334.371 206.689 334.363 202.793 331.65 199.575C328.936 196.358 326.289 198.43 326.289 198.43Z" fill="url(#paint54_linear_9359_24223)"/>
<path d="M329.997 239.699C330.099 239.699 330.185 239.624 330.198 239.522C330.295 238.748 330.702 235.645 331.062 234.837C331.475 233.912 332.811 230.025 330.979 229.727C330.979 229.727 326.546 236.44 325.689 237.349C324.832 238.258 323.722 237.693 323.722 237.693C323.722 237.693 322.877 237.958 322.25 238.788C321.952 239.182 322.245 239.75 322.739 239.747L325.798 239.727C326.686 239.721 327.476 239.168 327.793 238.337C328.31 236.983 329.203 234.994 330.266 234.101L329.793 239.477C329.782 239.597 329.877 239.7 329.997 239.699Z" fill="url(#paint55_linear_9359_24223)"/>
<path d="M322.039 170.362C322.039 170.362 322.763 172.549 321.763 176.188L315.565 199.25C315.467 199.613 315.668 199.987 316.023 200.108C317.999 200.782 324.488 202.673 333.294 201.922C333.738 201.885 334.105 201.564 334.194 201.128C334.733 198.501 336.571 189.54 336.95 187.699C338.392 180.683 340.007 173.115 332.296 168.68C328.8 170.246 325.532 171.188 322.039 170.362Z" fill="url(#paint56_linear_9359_24223)"/>
<path d="M333.824 147.111C333.824 147.111 341.397 153.207 343.388 161.671C345.379 170.135 332.62 171.244 332.62 171.244C332.62 171.244 330.854 169.333 328.807 170.058C326.759 170.782 328.593 166.678 331.002 166.65C333.411 166.621 332.326 168.546 335.708 166.946C339.004 165.387 340.98 160.7 332.398 153.781C331.9 153.38 331.5 152.865 331.255 152.274C329.543 148.155 330.804 145.416 333.824 147.111Z" fill="url(#paint57_linear_9359_24223)"/>
<path d="M268.517 190.469C268.517 190.469 272.264 200.574 277.962 199.334C277.962 199.334 278.55 202.773 277.59 203.178C277.59 203.178 269.043 203.426 268.193 191.675L268.517 190.469Z" fill="url(#paint58_linear_9359_24223)"/>
<path d="M268.678 192.833C268.662 193.008 269.312 193.129 269.52 192.382C269.463 192.058 269.361 190.638 269.113 190.418C267.79 189.243 265.432 187.922 265.432 187.922C265.168 188.325 265.514 188.591 265.514 188.591L266.692 189.386C266.569 189.793 266.389 190.153 266.369 190.618C266.354 190.97 266.484 191.314 266.717 191.581C266.952 191.849 267.267 192.195 267.551 192.458C268.089 192.955 268.678 192.833 268.678 192.833Z" fill="url(#paint59_linear_9359_24223)"/>
<path d="M268.055 192.249C267.895 191.86 267.436 190.803 267.228 190.586C267.087 190.438 267.022 190.304 267.03 190.176C267.037 190.069 267.093 189.974 267.201 189.885L267.243 189.852L268.344 190.441L268.79 191.14L268.656 191.226L268.233 190.562L267.264 190.044C267.217 190.091 267.192 190.138 267.189 190.186C267.184 190.266 267.236 190.363 267.343 190.475C267.614 190.759 268.178 192.13 268.202 192.189L268.055 192.249Z" fill="url(#paint60_linear_9359_24223)"/>
<path fill-rule="evenodd" clip-rule="evenodd" d="M277.908 186.243C277.908 186.243 279.717 184.607 277.391 182.834C275.205 181.168 273.608 183.403 274.332 184.842C274.383 184.944 274.325 185.068 274.214 185.092C274.023 185.134 273.858 185.324 274.159 185.996C274.185 186.054 274.176 186.122 274.138 186.172C273.87 186.532 272.977 187.973 275.672 188.194C275.721 188.198 275.769 188.181 275.805 188.148L277.908 186.243Z" fill="url(#paint61_linear_9359_24223)"/>
<path fill-rule="evenodd" clip-rule="evenodd" d="M287.412 188.641C287.412 188.641 287.585 186.553 288.701 185.873C289.817 185.192 291.984 184.614 292.892 186.883C293.325 187.966 293.181 188.481 292.913 188.724C292.668 188.945 292.641 189.289 292.803 189.578C292.986 189.906 293.011 190.313 292.457 190.681C292.293 190.79 292.183 190.951 292.149 191.132C292.004 191.889 291.23 193.704 287.096 191.719L287.412 188.641Z" fill="url(#paint62_linear_9359_24223)"/>
<path fill-rule="evenodd" clip-rule="evenodd" d="M282.631 184.887C283.445 184.538 285.168 184.183 286.509 186.53C286.603 186.694 286.738 186.829 286.903 186.92C287.702 187.361 290.014 188.963 287.909 191.855C287.812 191.987 287.749 192.14 287.725 192.302C287.655 192.792 287.422 193.878 286.722 194.146C286.513 194.226 286.337 194.373 286.221 194.565C285.75 195.34 284.408 196.971 282.15 195.267C282.035 195.181 281.903 195.119 281.762 195.088L278.644 194.401C278.479 194.364 278.307 194.371 278.144 194.419C277.762 194.53 276.992 194.628 276.706 193.73C276.647 193.547 276.539 193.385 276.393 193.26C275.87 192.816 274.76 191.61 275.6 189.918C275.694 189.729 275.728 189.516 275.696 189.307C275.598 188.674 275.546 187.268 276.859 186.661C277.056 186.57 277.221 186.421 277.321 186.228C277.759 185.384 279.186 183.223 281.701 184.808C281.98 184.984 282.328 185.018 282.631 184.887Z" fill="url(#paint63_linear_9359_24223)"/>
<path fill-rule="evenodd" clip-rule="evenodd" d="M278.396 234.484L278.85 235.009L278.539 236.149C278.457 236.448 278.212 236.673 277.907 236.728C276.894 236.914 274.596 237.25 273.414 236.741C273.414 236.741 273.046 234.274 277.119 235.009L278.396 234.484Z" fill="url(#paint64_linear_9359_24223)"/>
<path fill-rule="evenodd" clip-rule="evenodd" d="M285.501 235.797L285.743 236.391L285.645 238.528C285.631 238.829 285.389 239.081 285.063 239.131C284.617 239.2 283.969 239.27 283.36 239.223C282.882 239.186 282.583 238.737 282.77 238.336L283.489 236.794C283.597 236.564 283.793 236.387 284.034 236.304L285.501 235.797Z" fill="url(#paint65_linear_9359_24223)"/>
<path fill-rule="evenodd" clip-rule="evenodd" d="M283.433 194.128L283.897 198.726C283.897 198.726 281.4 199.574 279.755 198.617L280.199 194L283.433 194.128Z" fill="url(#paint66_linear_9359_24223)"/>
<path fill-rule="evenodd" clip-rule="evenodd" d="M287.437 219.306C287.437 219.306 286.252 232.533 285.469 236.581C285.469 236.581 284.883 237.008 284.007 236.457L282.943 218.805L287.437 219.306Z" fill="url(#paint67_linear_9359_24223)"/>
<path fill-rule="evenodd" clip-rule="evenodd" d="M282.171 220.095L278.923 234.908C278.923 234.908 278.04 235.825 276.892 234.908L277.451 219.336L282.171 220.095Z" fill="url(#paint68_linear_9359_24223)"/>
<path fill-rule="evenodd" clip-rule="evenodd" d="M286.278 199.078L287.091 199.169C288.664 200.857 291.549 212.458 292.59 214.925L296.825 214.233C296.991 214.199 297.127 214.364 297.062 214.521C296.874 214.981 296.169 216.308 293.42 216.308C292.136 216.308 294.141 217.306 293.373 217.648C293.373 217.648 291.685 217.04 291.682 215.97C291.682 215.97 286.844 204.938 285.849 203.777C284.854 202.616 286.278 199.078 286.278 199.078Z" fill="url(#paint69_linear_9359_24223)"/>
<path fill-rule="evenodd" clip-rule="evenodd" d="M287.091 199.162C287.091 199.162 282.787 197.566 277.414 199.218C277.414 199.218 276.812 203.289 277.122 205.227L286.38 205.563L287.091 199.162Z" fill="url(#paint70_linear_9359_24223)"/>
<path fill-rule="evenodd" clip-rule="evenodd" d="M277.249 206.5C277.249 206.5 274.29 216.007 273.851 222.342C273.828 222.668 274.073 222.949 274.399 222.972C275.015 223.016 276.1 223.168 277.576 223.66C279.968 224.457 281.949 224.194 283.737 223.68C285.141 223.276 288.651 222.924 290.096 222.791C290.441 222.759 290.683 222.439 290.622 222.099C290.202 219.755 288.606 211.436 286.185 205.781L277.249 206.5Z" fill="url(#paint71_linear_9359_24223)"/>
<path fill-rule="evenodd" clip-rule="evenodd" d="M277.092 205.008L277.248 206.5C277.248 206.5 280.095 206.511 286.385 206.299L286.418 205.22C286.418 205.22 279.45 205.357 277.092 205.008Z" fill="url(#paint72_linear_9359_24223)"/>
<path fill-rule="evenodd" clip-rule="evenodd" d="M277.113 189.673C276.398 192.438 276.606 195.615 279.856 196.328C282.105 196.821 284.467 194.528 285.182 191.763C285.897 188.998 284.673 186.893 282.445 186.316C280.217 185.738 277.827 186.908 277.113 189.673Z" fill="url(#paint73_linear_9359_24223)"/>
<path fill-rule="evenodd" clip-rule="evenodd" d="M277.357 190.529C277.357 190.529 277.25 188.856 276.417 189.372C275.584 189.888 276.739 191.892 277.254 192.01C277.769 192.127 277.357 190.529 277.357 190.529Z" fill="url(#paint74_linear_9359_24223)"/>
<path fill-rule="evenodd" clip-rule="evenodd" d="M284.483 192.451C284.483 192.451 284.732 191.175 285.635 191.765C286.538 192.355 284.815 194.439 283.754 193.975L284.483 192.451Z" fill="url(#paint75_linear_9359_24223)"/>
<path fill-rule="evenodd" clip-rule="evenodd" d="M285.819 191.435C285.819 191.435 283.235 194.236 281.893 188.425C281.893 188.425 280.553 190.16 279.942 188.625C279.942 188.625 277.274 189.54 276.98 188.417C276.685 187.294 280.585 184.249 283.722 186.434C286.859 188.62 285.819 191.435 285.819 191.435Z" fill="url(#paint76_linear_9359_24223)"/>
<path d="M327.769 175.32C327.769 175.32 335.981 187.09 342.967 188.689C342.967 188.689 342.412 192.051 341.194 192.566C341.194 192.566 334.504 190.966 327.358 176.852L327.769 175.32Z" fill="url(#paint77_linear_9359_24223)"/>
<path d="M329.182 178.641C329.161 178.863 329.987 179.017 330.25 178.069C330.178 177.657 330.05 175.855 329.734 175.575C328.055 174.084 325.061 172.406 325.061 172.406C324.727 172.918 325.166 173.255 325.166 173.255L326.66 174.265C326.504 174.781 326.277 175.238 326.251 175.829C326.232 176.275 326.397 176.713 326.693 177.052C326.99 177.392 327.391 177.831 327.752 178.165C328.435 178.796 329.182 178.641 329.182 178.641Z" fill="url(#paint78_linear_9359_24223)"/>
<path d="M328.41 177.887C328.403 177.869 327.678 176.104 327.357 175.768C327.182 175.585 327.101 175.42 327.111 175.264C327.119 175.134 327.188 175.018 327.321 174.909L327.363 174.875L328.745 175.615L329.308 176.497L329.172 176.584L328.632 175.737L327.384 175.069C327.313 175.137 327.276 175.204 327.272 175.274C327.266 175.381 327.333 175.51 327.474 175.657C327.815 176.014 328.53 177.752 328.56 177.825L328.41 177.887Z" fill="url(#paint79_linear_9359_24223)"/>
<path fill-rule="evenodd" clip-rule="evenodd" d="M362.508 222.568C362.876 222.237 363.458 221.751 363.997 221.46C364.134 221.386 364.303 221.422 364.398 221.545C364.959 222.271 366.828 224.785 367.246 226.515C367.281 226.658 367.207 226.805 367.077 226.873C366.595 227.125 365.323 227.396 363.51 224.872L362.421 223.331C362.252 223.091 362.29 222.764 362.508 222.568Z" fill="url(#paint80_linear_9359_24223)"/>
<path fill-rule="evenodd" clip-rule="evenodd" d="M351.459 216.922C351.459 216.922 352.068 225.155 355.419 227.899C358.353 230.302 362.921 225.926 364.013 224.799C364.172 224.635 364.248 224.403 364.203 224.178C364.094 223.637 363.831 223.217 363.371 222.953C363.047 222.767 362.639 222.809 362.365 223.063C361.455 223.905 359.073 225.947 357.856 225.459C356.333 224.85 355.419 216.922 355.419 216.922H351.459Z" fill="url(#paint81_linear_9359_24223)"/>
<path fill-rule="evenodd" clip-rule="evenodd" d="M359.379 191.913C359.379 191.913 363.948 189.778 366.459 178.078L365.209 177.438C365.209 177.438 360.359 186.992 357.856 189.169C355.353 191.346 359.379 191.913 359.379 191.913Z" fill="url(#paint82_linear_9359_24223)"/>
<path fill-rule="evenodd" clip-rule="evenodd" d="M365.492 178.848L366.459 178.08C366.459 178.08 367.778 176.799 368.241 175.71C368.704 174.621 367.344 173.639 366.832 173.408C366.319 173.177 366.038 173.664 366.14 174.759C366.14 174.759 364.972 176.118 365.141 178.099L365.492 178.848Z" fill="url(#paint83_linear_9359_24223)"/>
<path fill-rule="evenodd" clip-rule="evenodd" d="M349.865 238.094C349.865 238.094 350.228 239.443 350.203 240.439C350.199 240.596 350.083 240.726 349.928 240.747C349.019 240.873 345.913 241.246 344.207 240.748C344.07 240.708 343.975 240.58 343.98 240.437C343.995 239.901 344.372 238.643 347.489 238.321L349.865 238.094Z" fill="url(#paint84_linear_9359_24223)"/>
<path fill-rule="evenodd" clip-rule="evenodd" d="M344.503 217.461C344.119 217.712 347.012 238.049 347.713 238.197C347.713 238.197 348.515 238.943 349.753 238.092C349.038 231.464 348.603 224.741 348.988 217.87L344.503 217.461Z" fill="url(#paint85_linear_9359_24223)"/>
<path fill-rule="evenodd" clip-rule="evenodd" d="M354.651 205.117C354.651 205.117 345.215 205.549 342.968 206.339C342.968 206.339 343.245 214.018 344.167 218.736C344.203 218.919 344.341 219.064 344.523 219.107C345.128 219.247 346.652 219.448 349.068 218.771C349.282 218.711 349.425 218.507 349.41 218.284L349.161 215.225C349.147 215.02 349.302 214.842 349.507 214.828L349.759 214.79C349.973 214.775 350.155 214.944 350.157 215.158L350.634 218.26C350.636 218.461 350.764 218.638 350.954 218.703C351.663 218.943 353.509 219.392 355.943 218.65C356.139 218.59 356.275 218.409 356.276 218.204C356.301 214.439 355.626 209.936 354.651 205.117Z" fill="url(#paint86_linear_9359_24223)"/>
<path fill-rule="evenodd" clip-rule="evenodd" d="M351.114 205.775C351.114 205.775 352.307 209.095 355.185 209.325L354.549 205.539C354.549 205.539 352.319 205.523 351.114 205.775Z" fill="url(#paint87_linear_9359_24223)"/>
<path fill-rule="evenodd" clip-rule="evenodd" d="M359.074 187.647C359.074 187.647 354.809 190.391 349.631 190.086C345.312 189.832 342.688 188.729 341.229 187.486C340.707 187.041 339.965 186.969 339.389 187.34C338.759 187.746 337.919 188.378 337.037 189.3C336.816 189.532 336.77 189.886 336.939 190.159C338.197 192.193 339.539 193.615 340.961 194.442C341.442 194.973 341.7 195.67 341.681 196.387L341.419 206.379C341.411 206.656 341.604 206.897 341.876 206.949C343.769 207.308 350.953 208.56 355.419 207.771V196.994C355.419 196.193 355.861 195.464 356.561 195.076C357.499 194.554 358.896 193.533 360.293 191.611L359.074 187.647Z" fill="url(#paint88_linear_9359_24223)"/>
<path fill-rule="evenodd" clip-rule="evenodd" d="M343.254 183.702C343.254 183.702 343.617 182.676 342.691 182.493C341.766 182.311 342.649 185.034 342.649 185.034L343.254 183.702Z" fill="url(#paint89_linear_9359_24223)"/>
<path fill-rule="evenodd" clip-rule="evenodd" d="M350.654 186.484L351.019 190.503C351.019 190.503 348.9 191.742 347.077 190.659L347.401 187.149L350.654 186.484Z" fill="url(#paint90_linear_9359_24223)"/>
<path fill-rule="evenodd" clip-rule="evenodd" d="M342.783 183.696C342.36 183.415 342.01 183.092 341.798 182.707C341.466 182.105 341.128 181.389 341.409 180.762C341.598 180.341 342.049 180.021 342.05 179.56C342.051 179.221 341.8 178.936 341.717 178.607C341.585 178.089 341.902 177.537 342.349 177.243C342.796 176.95 343.344 176.862 343.876 176.811C344.124 176.787 344.381 176.766 344.596 176.641C344.846 176.494 344.998 176.23 345.19 176.014C345.945 175.163 347.459 175.174 348.202 176.035C348.585 176.479 348.793 177.107 349.315 177.373C349.602 177.519 349.936 177.528 350.252 177.592C350.978 177.739 351.611 178.187 352.143 178.704C352.938 179.477 353.574 180.283 353.78 181.394C353.89 181.984 353.89 182.587 353.89 183.186C353.89 183.949 353.883 184.742 353.545 185.425C353.211 186.099 352.584 186.601 352.297 187.296C352.204 187.521 352.148 187.765 352.017 187.971C351.886 188.178 351.651 188.346 351.411 188.3C351.123 188.245 350.977 187.934 350.823 187.684C350.057 186.449 347.505 185.883 346.229 185.269C345.27 184.807 343.81 184.377 342.783 183.696Z" fill="url(#paint91_linear_9359_24223)"/>
<path fill-rule="evenodd" clip-rule="evenodd" d="M344.543 180.3C344.543 180.3 340.123 186.967 344.69 189.009C349 190.937 350.816 186.51 350.816 186.51C350.816 186.51 352.712 184.544 352.075 183.031C351.439 181.517 345.62 179.472 344.543 180.3Z" fill="url(#paint92_linear_9359_24223)"/>
<path fill-rule="evenodd" clip-rule="evenodd" d="M351.276 185.16C351.029 185.106 350.785 184.946 350.573 184.647C350.259 184.204 350.194 183.634 349.976 183.136C349.625 182.337 348.871 181.746 348.029 181.518C347.267 181.312 346.462 181.383 345.673 181.366C344.599 181.343 342.176 180.564 344.142 179.508C345.557 178.748 347.182 179.461 348.584 179.851C349.925 180.224 351.482 180.987 352.36 182.118C352.739 182.606 352.966 183.283 352.834 183.899C352.672 184.652 351.959 185.309 351.276 185.16Z" fill="url(#paint93_linear_9359_24223)"/>
<path fill-rule="evenodd" clip-rule="evenodd" d="M350.249 187.106L351.018 184.99C351.018 184.99 352.503 184.307 352.307 185.458C352.112 186.609 350.777 187.245 350.249 187.106Z" fill="url(#paint94_linear_9359_24223)"/>
<defs>
<linearGradient id="paint0_linear_9359_24223" x1="128.108" y1="-33.8812" x2="240.998" y2="285.779" gradientUnits="userSpaceOnUse">
<stop stop-color="#DAE3FE"/>
<stop offset="1" stop-color="#E9EFFD"/>
</linearGradient>
<linearGradient id="paint1_linear_9359_24223" x1="249.75" y1="139.619" x2="322.065" y2="139.619" gradientUnits="userSpaceOnUse">
<stop stop-color="#DAE3FE"/>
<stop offset="1" stop-color="#E9EFFD"/>
</linearGradient>
<linearGradient id="paint2_linear_9359_24223" x1="29.5761" y1="133.952" x2="65.716" y2="133.952" gradientUnits="userSpaceOnUse">
<stop stop-color="#DAE3FE"/>
<stop offset="1" stop-color="#E9EFFD"/>
</linearGradient>
<linearGradient id="paint3_linear_9359_24223" x1="227.966" y1="115.972" x2="363.485" y2="85.4336" gradientUnits="userSpaceOnUse">
<stop stop-color="#4042E2"/>
<stop offset="1" stop-color="#4F52FF"/>
</linearGradient>
<linearGradient id="paint4_linear_9359_24223" x1="213.354" y1="97.6706" x2="218.93" y2="213.957" gradientUnits="userSpaceOnUse">
<stop stop-color="#4042E2"/>
<stop offset="1" stop-color="#4F52FF"/>
</linearGradient>
<linearGradient id="paint5_linear_9359_24223" x1="230.032" y1="202.242" x2="182.654" y2="110.712" gradientUnits="userSpaceOnUse">
<stop stop-color="#4042E2"/>
<stop offset="1" stop-color="#4F52FF"/>
</linearGradient>
<linearGradient id="paint6_linear_9359_24223" x1="240.468" y1="196.84" x2="193.09" y2="105.31" gradientUnits="userSpaceOnUse">
<stop stop-color="#4042E2"/>
<stop offset="1" stop-color="#4F52FF"/>
</linearGradient>
<linearGradient id="paint7_linear_9359_24223" x1="71.2842" y1="128.271" x2="-23.0996" y2="79.5431" gradientUnits="userSpaceOnUse">
<stop stop-color="#4042E2"/>
<stop offset="1" stop-color="#4F52FF"/>
</linearGradient>
<linearGradient id="paint8_linear_9359_24223" x1="64.458" y1="110.266" x2="72.1361" y2="270.392" gradientUnits="userSpaceOnUse">
<stop stop-color="#4042E2"/>
<stop offset="1" stop-color="#4F52FF"/>
</linearGradient>
<linearGradient id="paint9_linear_9359_24223" x1="66.2857" y1="201.723" x2="18.554" y2="85.8165" gradientUnits="userSpaceOnUse">
<stop stop-color="#4042E2"/>
<stop offset="1" stop-color="#4F52FF"/>
</linearGradient>
<linearGradient id="paint10_linear_9359_24223" x1="54.9737" y1="206.381" x2="7.24199" y2="90.4747" gradientUnits="userSpaceOnUse">
<stop stop-color="#4042E2"/>
<stop offset="1" stop-color="#4F52FF"/>
</linearGradient>
<linearGradient id="paint11_linear_9359_24223" x1="137.661" y1="165.83" x2="135.919" y2="195.424" gradientUnits="userSpaceOnUse">
<stop stop-color="#4042E2"/>
<stop offset="1" stop-color="#4F52FF"/>
</linearGradient>
<linearGradient id="paint12_linear_9359_24223" x1="135.881" y1="252.714" x2="138.459" y2="290.694" gradientUnits="userSpaceOnUse">
<stop stop-color="#4042E2"/>
<stop offset="1" stop-color="#4F52FF"/>
</linearGradient>
<linearGradient id="paint13_linear_9359_24223" x1="131.233" y1="124.248" x2="124.612" y2="-20.9365" gradientUnits="userSpaceOnUse">
<stop stop-color="#FE7062"/>
<stop offset="1" stop-color="#FF928E"/>
</linearGradient>
<linearGradient id="paint14_linear_9359_24223" x1="194.221" y1="187.161" x2="117.947" y2="78.9507" gradientUnits="userSpaceOnUse">
<stop stop-color="#4042E2"/>
<stop offset="1" stop-color="#4F52FF"/>
</linearGradient>
<linearGradient id="paint15_linear_9359_24223" x1="177.261" y1="199.116" x2="100.988" y2="90.9062" gradientUnits="userSpaceOnUse">
<stop stop-color="#4042E2"/>
<stop offset="1" stop-color="#4F52FF"/>
</linearGradient>
<linearGradient id="paint16_linear_9359_24223" x1="203.517" y1="180.609" x2="127.244" y2="72.3985" gradientUnits="userSpaceOnUse">
<stop stop-color="#4042E2"/>
<stop offset="1" stop-color="#4F52FF"/>
</linearGradient>
<linearGradient id="paint17_linear_9359_24223" x1="187.97" y1="191.568" x2="111.696" y2="83.3583" gradientUnits="userSpaceOnUse">
<stop stop-color="#4042E2"/>
<stop offset="1" stop-color="#4F52FF"/>
</linearGradient>
<linearGradient id="paint18_linear_9359_24223" x1="143.378" y1="222.998" x2="67.105" y2="114.788" gradientUnits="userSpaceOnUse">
<stop stop-color="#4042E2"/>
<stop offset="1" stop-color="#4F52FF"/>
</linearGradient>
<linearGradient id="paint19_linear_9359_24223" x1="126.419" y1="234.953" x2="50.1452" y2="126.743" gradientUnits="userSpaceOnUse">
<stop stop-color="#4042E2"/>
<stop offset="1" stop-color="#4F52FF"/>
</linearGradient>
<linearGradient id="paint20_linear_9359_24223" x1="152.675" y1="216.446" x2="76.4014" y2="108.236" gradientUnits="userSpaceOnUse">
<stop stop-color="#4042E2"/>
<stop offset="1" stop-color="#4F52FF"/>
</linearGradient>
<linearGradient id="paint21_linear_9359_24223" x1="137.127" y1="227.405" x2="60.8538" y2="119.196" gradientUnits="userSpaceOnUse">
<stop stop-color="#4042E2"/>
<stop offset="1" stop-color="#4F52FF"/>
</linearGradient>
<linearGradient id="paint22_linear_9359_24223" x1="167.241" y1="89.4418" x2="138.683" y2="128.062" gradientUnits="userSpaceOnUse">
<stop stop-color="#4042E2"/>
<stop offset="1" stop-color="#4F52FF"/>
</linearGradient>
<linearGradient id="paint23_linear_9359_24223" x1="172.455" y1="46.2163" x2="175.457" y2="119.681" gradientUnits="userSpaceOnUse">
<stop stop-color="#4042E2"/>
<stop offset="1" stop-color="#4F52FF"/>
</linearGradient>
<linearGradient id="paint24_linear_9359_24223" x1="142.05" y1="17.7473" x2="140.656" y2="51.1712" gradientUnits="userSpaceOnUse">
<stop stop-color="#4042E2"/>
<stop offset="1" stop-color="#4F52FF"/>
</linearGradient>
<linearGradient id="paint25_linear_9359_24223" x1="318.848" y1="44.0612" x2="157.969" y2="215.22" gradientUnits="userSpaceOnUse">
<stop stop-color="#FF928E"/>
<stop offset="1" stop-color="#FEB3B1"/>
</linearGradient>
<linearGradient id="paint26_linear_9359_24223" x1="248.124" y1="81.4412" x2="470.873" y2="-45.3131" gradientUnits="userSpaceOnUse">
<stop stop-color="#FE7062"/>
<stop offset="1" stop-color="#FF928E"/>
</linearGradient>
<linearGradient id="paint27_linear_9359_24223" x1="228.216" y1="177.808" x2="276.133" y2="177.808" gradientUnits="userSpaceOnUse">
<stop stop-color="#DAE3FE"/>
<stop offset="1" stop-color="#E9EFFD"/>
</linearGradient>
<linearGradient id="paint28_linear_9359_24223" x1="241.396" y1="212.761" x2="292.823" y2="212.761" gradientUnits="userSpaceOnUse">
<stop stop-color="#DAE3FE"/>
<stop offset="1" stop-color="#E9EFFD"/>
</linearGradient>
<linearGradient id="paint29_linear_9359_24223" x1="323.204" y1="172.701" x2="311.614" y2="172.887" gradientUnits="userSpaceOnUse">
<stop stop-color="#FF928E"/>
<stop offset="1" stop-color="#FEB3B1"/>
</linearGradient>
<linearGradient id="paint30_linear_9359_24223" x1="312.51" y1="232.576" x2="303.82" y2="232.716" gradientUnits="userSpaceOnUse">
<stop stop-color="#09005D"/>
<stop offset="1" stop-color="#1A0F91"/>
</linearGradient>
<linearGradient id="paint31_linear_9359_24223" x1="313.576" y1="294.532" x2="308.935" y2="244.463" gradientUnits="userSpaceOnUse">
<stop stop-color="#4042E2"/>
<stop offset="1" stop-color="#4F52FF"/>
</linearGradient>
<linearGradient id="paint32_linear_9359_24223" x1="309.935" y1="222.708" x2="311.832" y2="237.183" gradientUnits="userSpaceOnUse">
<stop stop-color="#FF928E"/>
<stop offset="1" stop-color="#FEB3B1"/>
</linearGradient>
<linearGradient id="paint33_linear_9359_24223" x1="298.601" y1="295.922" x2="293.96" y2="245.854" gradientUnits="userSpaceOnUse">
<stop stop-color="#4042E2"/>
<stop offset="1" stop-color="#4F52FF"/>
</linearGradient>
<linearGradient id="paint34_linear_9359_24223" x1="299.281" y1="233.02" x2="286.771" y2="233.221" gradientUnits="userSpaceOnUse">
<stop stop-color="#09005D"/>
<stop offset="1" stop-color="#1A0F91"/>
</linearGradient>
<linearGradient id="paint35_linear_9359_24223" x1="296.437" y1="224.48" x2="298.334" y2="238.954" gradientUnits="userSpaceOnUse">
<stop stop-color="#FF928E"/>
<stop offset="1" stop-color="#FEB3B1"/>
</linearGradient>
<linearGradient id="paint36_linear_9359_24223" x1="275.645" y1="158.484" x2="330.14" y2="240.048" gradientUnits="userSpaceOnUse">
<stop stop-color="#09005D"/>
<stop offset="1" stop-color="#1A0F91"/>
</linearGradient>
<linearGradient id="paint37_linear_9359_24223" x1="312.181" y1="153.963" x2="252.144" y2="194.297" gradientUnits="userSpaceOnUse">
<stop stop-color="#FE7062"/>
<stop offset="1" stop-color="#FF928E"/>
</linearGradient>
<linearGradient id="paint38_linear_9359_24223" x1="304.775" y1="130.06" x2="311.567" y2="157.372" gradientUnits="userSpaceOnUse">
<stop stop-color="#FF928E"/>
<stop offset="1" stop-color="#FEB3B1"/>
</linearGradient>
<linearGradient id="paint39_linear_9359_24223" x1="305.741" y1="124.737" x2="302.907" y2="143.189" gradientUnits="userSpaceOnUse">
<stop stop-color="#FF928E"/>
<stop offset="1" stop-color="#FEB3B1"/>
</linearGradient>
<linearGradient id="paint40_linear_9359_24223" x1="309.166" y1="133.396" x2="299.793" y2="123.763" gradientUnits="userSpaceOnUse">
<stop stop-color="#09005D"/>
<stop offset="1" stop-color="#1A0F91"/>
</linearGradient>
<linearGradient id="paint41_linear_9359_24223" x1="308.657" y1="144.643" x2="309.003" y2="131.83" gradientUnits="userSpaceOnUse">
<stop stop-color="#FF928E"/>
<stop offset="1" stop-color="#FEB3B1"/>
</linearGradient>
<linearGradient id="paint42_linear_9359_24223" x1="313.376" y1="193.031" x2="350.299" y2="254.799" gradientUnits="userSpaceOnUse">
<stop stop-color="#09005D"/>
<stop offset="1" stop-color="#1A0F91"/>
</linearGradient>
<linearGradient id="paint43_linear_9359_24223" x1="302.779" y1="139.969" x2="242.742" y2="180.303" gradientUnits="userSpaceOnUse">
<stop stop-color="#FE7062"/>
<stop offset="1" stop-color="#FF928E"/>
</linearGradient>
<linearGradient id="paint44_linear_9359_24223" x1="258.817" y1="143.121" x2="281.959" y2="156.506" gradientUnits="userSpaceOnUse">
<stop stop-color="#FF928E"/>
<stop offset="1" stop-color="#FEB3B1"/>
</linearGradient>
<linearGradient id="paint45_linear_9359_24223" x1="257.311" y1="145.727" x2="280.453" y2="159.112" gradientUnits="userSpaceOnUse">
<stop stop-color="#FF928E"/>
<stop offset="1" stop-color="#FEB3B1"/>
</linearGradient>
<linearGradient id="paint46_linear_9359_24223" x1="320.923" y1="130.004" x2="373.619" y2="187.574" gradientUnits="userSpaceOnUse">
<stop stop-color="#09005D"/>
<stop offset="1" stop-color="#1A0F91"/>
</linearGradient>
<linearGradient id="paint47_linear_9359_24223" x1="333.636" y1="151.577" x2="309.439" y2="175.925" gradientUnits="userSpaceOnUse">
<stop stop-color="#4042E2"/>
<stop offset="1" stop-color="#4F52FF"/>
</linearGradient>
<linearGradient id="paint48_linear_9359_24223" x1="325.155" y1="128.165" x2="328.291" y2="156.018" gradientUnits="userSpaceOnUse">
<stop stop-color="#FF928E"/>
<stop offset="1" stop-color="#FEB3B1"/>
</linearGradient>
<linearGradient id="paint49_linear_9359_24223" x1="488.428" y1="-332.913" x2="481.934" y2="-314.478" gradientUnits="userSpaceOnUse">
<stop stop-color="#FF928E"/>
<stop offset="1" stop-color="#FEB3B1"/>
</linearGradient>
<linearGradient id="paint50_linear_9359_24223" x1="326.19" y1="125.18" x2="378.886" y2="182.749" gradientUnits="userSpaceOnUse">
<stop stop-color="#09005D"/>
<stop offset="1" stop-color="#1A0F91"/>
</linearGradient>
<linearGradient id="paint51_linear_9359_24223" x1="492.847" y1="-331.494" x2="486.352" y2="-313.053" gradientUnits="userSpaceOnUse">
<stop stop-color="#FF928E"/>
<stop offset="1" stop-color="#FEB3B1"/>
</linearGradient>
<linearGradient id="paint52_linear_9359_24223" x1="321.022" y1="216.369" x2="376.674" y2="215.152" gradientUnits="userSpaceOnUse">
<stop stop-color="#FF928E"/>
<stop offset="1" stop-color="#FEB3B1"/>
</linearGradient>
<linearGradient id="paint53_linear_9359_24223" x1="339.587" y1="233.16" x2="331.331" y2="233.215" gradientUnits="userSpaceOnUse">
<stop stop-color="#09005D"/>
<stop offset="1" stop-color="#1A0F91"/>
</linearGradient>
<linearGradient id="paint54_linear_9359_24223" x1="381.569" y1="201.569" x2="349.39" y2="211.301" gradientUnits="userSpaceOnUse">
<stop stop-color="#FF928E"/>
<stop offset="1" stop-color="#FEB3B1"/>
</linearGradient>
<linearGradient id="paint55_linear_9359_24223" x1="331.942" y1="234.703" x2="322.101" y2="234.768" gradientUnits="userSpaceOnUse">
<stop stop-color="#09005D"/>
<stop offset="1" stop-color="#1A0F91"/>
</linearGradient>
<linearGradient id="paint56_linear_9359_24223" x1="317.213" y1="201.973" x2="335.324" y2="175.18" gradientUnits="userSpaceOnUse">
<stop stop-color="#09005D"/>
<stop offset="1" stop-color="#1A0F91"/>
</linearGradient>
<linearGradient id="paint57_linear_9359_24223" x1="348.047" y1="117.748" x2="344.911" y2="128.714" gradientUnits="userSpaceOnUse">
<stop stop-color="#FF928E"/>
<stop offset="1" stop-color="#FEB3B1"/>
</linearGradient>
<linearGradient id="paint58_linear_9359_24223" x1="-338.575" y1="214.117" x2="-330.971" y2="213.902" gradientUnits="userSpaceOnUse">
<stop stop-color="#FF928E"/>
<stop offset="1" stop-color="#FEB3B1"/>
</linearGradient>
<linearGradient id="paint59_linear_9359_24223" x1="-338.761" y1="207.576" x2="-331.157" y2="207.361" gradientUnits="userSpaceOnUse">
<stop stop-color="#FF928E"/>
<stop offset="1" stop-color="#FEB3B1"/>
</linearGradient>
<linearGradient id="paint60_linear_9359_24223" x1="268.79" y1="191.05" x2="267.029" y2="191.05" gradientUnits="userSpaceOnUse">
<stop stop-color="#FF928E"/>
<stop offset="1" stop-color="#FEB3B1"/>
</linearGradient>
<linearGradient id="paint61_linear_9359_24223" x1="272.657" y1="182.545" x2="279.668" y2="188.724" gradientUnits="userSpaceOnUse">
<stop stop-color="#09005D"/>
<stop offset="1" stop-color="#1A0F91"/>
</linearGradient>
<linearGradient id="paint62_linear_9359_24223" x1="293.032" y1="189.417" x2="287.436" y2="188.412" gradientUnits="userSpaceOnUse">
<stop stop-color="#09005D"/>
<stop offset="1" stop-color="#1A0F91"/>
</linearGradient>
<linearGradient id="paint63_linear_9359_24223" x1="28.5848" y1="-64.0245" x2="55.0379" y2="-37.5075" gradientUnits="userSpaceOnUse">
<stop stop-color="#09005D"/>
<stop offset="1" stop-color="#1A0F91"/>
</linearGradient>
<linearGradient id="paint64_linear_9359_24223" x1="278.85" y1="235.747" x2="273.405" y2="235.747" gradientUnits="userSpaceOnUse">
<stop stop-color="#4042E2"/>
<stop offset="1" stop-color="#4F52FF"/>
</linearGradient>
<linearGradient id="paint65_linear_9359_24223" x1="285.743" y1="237.518" x2="282.714" y2="237.518" gradientUnits="userSpaceOnUse">
<stop stop-color="#4042E2"/>
<stop offset="1" stop-color="#4F52FF"/>
</linearGradient>
<linearGradient id="paint66_linear_9359_24223" x1="281.407" y1="193.578" x2="282.453" y2="206.285" gradientUnits="userSpaceOnUse">
<stop stop-color="#FF928E"/>
<stop offset="1" stop-color="#FEB3B1"/>
</linearGradient>
<linearGradient id="paint67_linear_9359_24223" x1="70.3935" y1="-160.088" x2="73.8769" y2="-153.824" gradientUnits="userSpaceOnUse">
<stop stop-color="#FF928E"/>
<stop offset="1" stop-color="#FEB3B1"/>
</linearGradient>
<linearGradient id="paint68_linear_9359_24223" x1="65.8208" y1="-157.552" x2="69.3042" y2="-151.288" gradientUnits="userSpaceOnUse">
<stop stop-color="#FF928E"/>
<stop offset="1" stop-color="#FEB3B1"/>
</linearGradient>
<linearGradient id="paint69_linear_9359_24223" x1="299.143" y1="221.152" x2="284.423" y2="200.946" gradientUnits="userSpaceOnUse">
<stop stop-color="#FF928E"/>
<stop offset="1" stop-color="#FEB3B1"/>
</linearGradient>
<linearGradient id="paint70_linear_9359_24223" x1="284.769" y1="196.011" x2="256.2" y2="259.356" gradientUnits="userSpaceOnUse">
<stop stop-color="#FE7062"/>
<stop offset="1" stop-color="#FF928E"/>
</linearGradient>
<linearGradient id="paint71_linear_9359_24223" x1="290.966" y1="198.805" x2="262.398" y2="262.151" gradientUnits="userSpaceOnUse">
<stop stop-color="#FE7062"/>
<stop offset="1" stop-color="#FF928E"/>
</linearGradient>
<linearGradient id="paint72_linear_9359_24223" x1="281.433" y1="206.966" x2="276.554" y2="227.854" gradientUnits="userSpaceOnUse">
<stop stop-color="#E1473D"/>
<stop offset="1" stop-color="#E9605A"/>
</linearGradient>
<linearGradient id="paint73_linear_9359_24223" x1="281.738" y1="183.334" x2="280.693" y2="195.694" gradientUnits="userSpaceOnUse">
<stop stop-color="#FF928E"/>
<stop offset="1" stop-color="#FEB3B1"/>
</linearGradient>
<linearGradient id="paint74_linear_9359_24223" x1="277.478" y1="182.975" x2="276.433" y2="195.338" gradientUnits="userSpaceOnUse">
<stop stop-color="#FF928E"/>
<stop offset="1" stop-color="#FEB3B1"/>
</linearGradient>
<linearGradient id="paint75_linear_9359_24223" x1="285.621" y1="183.657" x2="284.575" y2="196.02" gradientUnits="userSpaceOnUse">
<stop stop-color="#FF928E"/>
<stop offset="1" stop-color="#FEB3B1"/>
</linearGradient>
<linearGradient id="paint76_linear_9359_24223" x1="29.2994" y1="-64.7373" x2="55.7525" y2="-38.2204" gradientUnits="userSpaceOnUse">
<stop stop-color="#09005D"/>
<stop offset="1" stop-color="#1A0F91"/>
</linearGradient>
<linearGradient id="paint77_linear_9359_24223" x1="288.323" y1="43.088" x2="276.133" y2="6.80821" gradientUnits="userSpaceOnUse">
<stop stop-color="#FF928E"/>
<stop offset="1" stop-color="#FEB3B1"/>
</linearGradient>
<linearGradient id="paint78_linear_9359_24223" x1="283.89" y1="44.5808" x2="271.7" y2="8.301" gradientUnits="userSpaceOnUse">
<stop stop-color="#FF928E"/>
<stop offset="1" stop-color="#FEB3B1"/>
</linearGradient>
<linearGradient id="paint79_linear_9359_24223" x1="328.649" y1="172.861" x2="326.819" y2="185.398" gradientUnits="userSpaceOnUse">
<stop stop-color="#FF928E"/>
<stop offset="1" stop-color="#FEB3B1"/>
</linearGradient>
<linearGradient id="paint80_linear_9359_24223" x1="-455.853" y1="568.329" x2="-427.568" y2="556.501" gradientUnits="userSpaceOnUse">
<stop stop-color="#09005D"/>
<stop offset="1" stop-color="#1A0F91"/>
</linearGradient>
<linearGradient id="paint81_linear_9359_24223" x1="308.199" y1="141.273" x2="323.873" y2="167.024" gradientUnits="userSpaceOnUse">
<stop stop-color="#FF928E"/>
<stop offset="1" stop-color="#FEB3B1"/>
</linearGradient>
<linearGradient id="paint82_linear_9359_24223" x1="375.255" y1="178.705" x2="355.596" y2="187.743" gradientUnits="userSpaceOnUse">
<stop stop-color="#FF928E"/>
<stop offset="1" stop-color="#FEB3B1"/>
</linearGradient>
<linearGradient id="paint83_linear_9359_24223" x1="372.65" y1="173.04" x2="352.991" y2="182.077" gradientUnits="userSpaceOnUse">
<stop stop-color="#FF928E"/>
<stop offset="1" stop-color="#FEB3B1"/>
</linearGradient>
<linearGradient id="paint84_linear_9359_24223" x1="355.463" y1="173.263" x2="351.66" y2="203.71" gradientUnits="userSpaceOnUse">
<stop stop-color="#09005D"/>
<stop offset="1" stop-color="#1A0F91"/>
</linearGradient>
<linearGradient id="paint85_linear_9359_24223" x1="386.346" y1="163.219" x2="370.672" y2="188.97" gradientUnits="userSpaceOnUse">
<stop stop-color="#FF928E"/>
<stop offset="1" stop-color="#FEB3B1"/>
</linearGradient>
<linearGradient id="paint86_linear_9359_24223" x1="355.944" y1="211.944" x2="343.36" y2="212.807" gradientUnits="userSpaceOnUse">
<stop stop-color="#09005D"/>
<stop offset="1" stop-color="#1A0F91"/>
</linearGradient>
<linearGradient id="paint87_linear_9359_24223" x1="355.518" y1="203.803" x2="352.353" y2="208.801" gradientUnits="userSpaceOnUse">
<stop stop-color="#09005D"/>
<stop offset="1" stop-color="#1A0F91"/>
</linearGradient>
<linearGradient id="paint88_linear_9359_24223" x1="348.51" y1="195.199" x2="330.225" y2="221.816" gradientUnits="userSpaceOnUse">
<stop stop-color="#FE7062"/>
<stop offset="1" stop-color="#FF928E"/>
</linearGradient>
<linearGradient id="paint89_linear_9359_24223" x1="342.554" y1="175.682" x2="342.99" y2="189.177" gradientUnits="userSpaceOnUse">
<stop stop-color="#FF928E"/>
<stop offset="1" stop-color="#FEB3B1"/>
</linearGradient>
<linearGradient id="paint90_linear_9359_24223" x1="348.886" y1="185.155" x2="349.235" y2="196.819" gradientUnits="userSpaceOnUse">
<stop stop-color="#FF928E"/>
<stop offset="1" stop-color="#FEB3B1"/>
</linearGradient>
<linearGradient id="paint91_linear_9359_24223" x1="345.364" y1="183.996" x2="353.497" y2="177.944" gradientUnits="userSpaceOnUse">
<stop stop-color="#09005D"/>
<stop offset="1" stop-color="#1A0F91"/>
</linearGradient>
<linearGradient id="paint92_linear_9359_24223" x1="347.116" y1="175.539" x2="347.552" y2="189.03" gradientUnits="userSpaceOnUse">
<stop stop-color="#FF928E"/>
<stop offset="1" stop-color="#FEB3B1"/>
</linearGradient>
<linearGradient id="paint93_linear_9359_24223" x1="346.465" y1="183.716" x2="353.267" y2="177.496" gradientUnits="userSpaceOnUse">
<stop stop-color="#09005D"/>
<stop offset="1" stop-color="#1A0F91"/>
</linearGradient>
<linearGradient id="paint94_linear_9359_24223" x1="350.94" y1="175.413" x2="351.376" y2="188.908" gradientUnits="userSpaceOnUse">
<stop stop-color="#FF928E"/>
<stop offset="1" stop-color="#FEB3B1"/>
</linearGradient>
</defs>
</svg>
