<svg width="549" height="566" viewBox="0 0 549 566" fill="none" xmlns="http://www.w3.org/2000/svg">
<path d="M38.1041 149.613C37.8012 149.613 37.526 149.413 37.4456 149.106L36.0852 143.986C35.9893 143.622 36.2058 143.247 36.5706 143.152C36.9354 143.056 37.3096 143.272 37.4054 143.637L38.7658 148.757C38.8616 149.122 38.6452 149.496 38.2804 149.592C38.2216 149.607 38.1629 149.613 38.1041 149.613Z" fill="#9DC4D4"/>
<path d="M41.2731 161.538C40.9701 161.538 40.6949 161.337 40.6145 161.031L39.2541 155.911C39.1583 155.546 39.3747 155.172 39.7396 155.076C40.1044 154.984 40.4785 155.197 40.5744 155.562L41.9347 160.682C42.0306 161.047 41.8142 161.421 41.4493 161.517C41.3906 161.529 41.3318 161.538 41.2731 161.538Z" fill="#9DC4D4"/>
<path d="M30.4859 155.28C30.1829 155.28 29.9078 155.079 29.8274 154.773C29.7315 154.408 29.948 154.034 30.3128 153.938L35.4328 152.577C35.7977 152.482 36.1718 152.698 36.2676 153.063C36.3635 153.428 36.1471 153.802 35.7822 153.898L30.6622 155.258C30.6034 155.273 30.5447 155.28 30.4859 155.28Z" fill="#9DC4D4"/>
<path d="M42.4107 152.116C42.1077 152.116 41.8326 151.915 41.7522 151.608C41.6563 151.244 41.8728 150.87 42.2376 150.774L47.3576 149.413C47.7225 149.317 48.0966 149.534 48.1924 149.899C48.2883 150.264 48.0719 150.638 47.707 150.734L42.587 152.094C42.5282 152.109 42.4695 152.116 42.4107 152.116Z" fill="#9DC4D4"/>
<path d="M54.9086 130.843C52.4846 130.843 50.1534 129.486 49.031 127.161C48.2735 125.593 48.1746 123.825 48.7466 122.183C49.3217 120.541 50.4996 119.218 52.0672 118.464C53.6347 117.706 55.4032 117.607 57.045 118.179C58.6868 118.751 60.01 119.932 60.7675 121.5C62.3289 124.734 60.9654 128.636 57.7283 130.197C56.8193 130.633 55.8577 130.843 54.9086 130.843ZM54.8962 119.175C54.1325 119.175 53.3688 119.348 52.6608 119.688C51.421 120.285 50.4904 121.33 50.0359 122.628C49.5814 123.927 49.6618 125.324 50.2585 126.564C51.4921 129.121 54.5777 130.2 57.1347 128.963C59.6916 127.73 60.7706 124.644 59.537 122.087C58.9403 120.847 57.8952 119.917 56.5967 119.462C56.0432 119.274 55.4682 119.175 54.8962 119.175Z" fill="#9DC4D4"/>
<path d="M87.591 523.602H403.036C411.712 523.602 418.761 516.664 418.777 508.103L419.565 74.467C419.358 62.851 413.7 56.25 403.905 56.25H88.4506C80.653 56.25 73.9963 61.8647 72.7318 69.4922L71.9063 508.103C71.8908 516.664 78.9123 523.602 87.591 523.602Z" fill="#790000"/>
<path d="M403.037 524.281H87.5915C83.1733 524.281 79.0303 522.572 75.9323 519.467C72.89 516.419 71.2204 512.381 71.2266 508.099L72.0521 69.488C72.0521 69.4509 72.0552 69.4138 72.0614 69.3767C73.3847 61.372 80.2794 55.5625 88.4542 55.5625H403.906C414.078 55.5625 420.036 62.448 420.249 74.4504L419.461 508.102C419.442 517.022 412.074 524.281 403.037 524.281ZM73.4187 69.5437L72.5901 508.102C72.5839 512.019 74.1112 515.714 76.897 518.503C79.7383 521.35 83.5351 522.918 87.5915 522.918H403.037C411.323 522.918 418.079 516.271 418.094 508.099L418.882 74.4628C418.681 63.1591 413.363 56.9291 403.906 56.9291H88.4511C80.9689 56.926 74.6554 62.2316 73.4187 69.5437Z" fill="#9DC4D4"/>
<path d="M103.281 524.481H418.726C427.402 524.481 434.454 517.5 434.476 508.886L435.555 72.6095C435.357 60.9256 429.702 54.2812 419.907 54.2812H104.459C96.6611 54.2812 89.9983 59.93 88.7337 67.6039L87.6114 508.886C87.5897 517.5 94.6051 524.481 103.281 524.481Z" fill="white"/>
<path d="M418.729 525.166H103.28C98.8776 525.166 94.7501 523.456 91.6583 520.355C88.5974 517.285 86.9154 513.213 86.9278 508.887L88.0501 67.6083C88.0501 67.5712 88.0532 67.5341 88.0594 67.5001C89.3889 59.449 96.2867 53.6055 104.458 53.6055H419.91C430.082 53.6055 436.037 60.5311 436.241 72.6047L435.162 508.894C435.137 517.866 427.766 525.166 418.729 525.166ZM89.4167 67.667L88.2944 508.894C88.2851 512.854 89.8217 516.583 92.626 519.393C95.4612 522.238 99.2456 523.802 103.283 523.802H418.729C427.018 523.802 433.777 517.112 433.795 508.891L434.874 72.617C434.683 61.2422 429.368 54.972 419.91 54.972H104.458C96.9762 54.969 90.6565 60.3054 89.4167 67.667Z" fill="#9DC4D4"/>
<path d="M103.283 525.159C98.8798 525.159 94.7522 523.45 91.6573 520.349C88.5964 517.278 86.9145 513.207 86.9268 508.881L87.709 201.153C87.709 200.776 88.0151 200.473 88.3923 200.473C88.3923 200.473 88.3923 200.473 88.3954 200.473C88.7726 200.473 89.0787 200.779 89.0756 201.156L88.2934 508.884C88.2841 512.845 89.8208 516.573 92.625 519.384C95.4602 522.228 99.2446 523.793 103.283 523.793L321.296 523.428C321.673 523.428 321.979 523.734 321.979 524.108C321.979 524.485 321.673 524.792 321.296 524.792L103.283 525.159Z" fill="#9DC4D4"/>
<path d="M88.9212 67.3315C88.8717 67.3315 88.8191 67.3253 88.7697 67.3129C88.4017 67.2295 88.173 66.8615 88.2564 66.4967C89.9909 58.9001 96.6538 53.5977 104.461 53.5977H381.073C381.45 53.5977 381.756 53.9038 381.756 54.281C381.756 54.6582 381.45 54.9643 381.073 54.9643H104.458C97.2907 54.9643 91.1751 59.8339 89.5859 66.8028C89.5117 67.1182 89.2303 67.3315 88.9212 67.3315Z" fill="#9DC4D4"/>
<path d="M193.154 87.9494H339.913C343.694 87.9494 346.764 84.9071 346.774 81.1567L346.86 47.3787C346.87 43.6252 343.812 40.5859 340.034 40.5859H193.274C189.493 40.5859 186.423 43.6283 186.414 47.3787L186.327 81.1567C186.315 84.9071 189.373 87.9494 193.154 87.9494Z" fill="#BBD1EA"/>
<path d="M339.913 88.6316H193.154C191.132 88.6316 189.236 87.8463 187.817 86.424C186.41 85.0142 185.637 83.1436 185.644 81.1556L185.727 47.3744C185.736 43.2531 189.122 39.8984 193.271 39.8984H340.03C342.052 39.8984 343.948 40.6838 345.367 42.106C346.773 43.5159 347.546 45.3864 347.54 47.3775L347.454 81.1587C347.447 85.277 344.062 88.6316 339.913 88.6316ZM193.271 41.265C189.873 41.265 187.1 44.0075 187.091 47.3775L187.007 81.1587C187.004 82.7819 187.635 84.3092 188.782 85.4594C189.944 86.625 191.496 87.2681 193.151 87.2681H339.91C343.308 87.2681 346.081 84.5257 346.09 81.1556L346.177 47.3744C346.18 45.7512 345.549 44.2239 344.402 43.0737C343.24 41.9081 341.687 41.265 340.033 41.265H193.271Z" fill="#9DC4D4"/>
<path d="M266.669 2.21484C251.497 2.21484 239.229 14.4213 239.189 29.4785L239.087 70.343C239.078 74.016 242.071 76.9934 245.771 76.9934H287.189C290.89 76.9934 293.899 74.016 293.908 70.343L294.01 29.4785C294.05 14.4213 281.841 2.21484 266.669 2.21484ZM268.107 39.5578C260.804 40.4698 254.679 34.3759 255.619 27.1318C256.259 22.1941 260.284 18.2088 265.259 17.5873C272.562 16.6753 278.684 22.7661 277.747 30.0133C277.11 34.951 273.081 38.9363 268.107 39.5578Z" fill="#BBD1EA"/>
<path d="M287.189 77.6725H245.771C243.789 77.6725 241.931 76.9027 240.537 75.5052C239.158 74.1231 238.4 72.2866 238.403 70.3357L238.505 29.4712C238.546 14.0616 251.176 1.52734 266.666 1.52734C274.207 1.52734 281.274 4.44911 286.568 9.75775C291.824 15.0293 294.708 22.0322 294.69 29.4773L294.588 70.3418C294.582 74.3828 291.261 77.6725 287.189 77.6725ZM266.669 2.89393C251.93 2.89393 239.909 14.819 239.872 29.4773L239.77 70.3418C239.767 71.9248 240.382 73.4182 241.504 74.5436C242.639 75.6814 244.154 76.309 245.771 76.309H287.189C290.51 76.309 293.215 73.6315 293.224 70.3388L293.326 29.4742C293.345 22.394 290.599 15.7342 285.603 10.7224C280.566 5.67346 273.842 2.89393 266.669 2.89393ZM266.656 40.3296C263.493 40.3296 260.494 39.1021 258.25 36.8482C255.674 34.2604 254.468 30.6893 254.941 27.0441C255.619 21.8282 259.922 17.5677 265.175 16.9091C268.889 16.4453 272.509 17.679 275.116 20.2947C277.691 22.8825 278.897 26.4535 278.424 30.0988C277.75 35.3147 273.446 39.5783 268.19 40.2338C267.677 40.2956 267.166 40.3296 266.656 40.3296ZM266.706 18.1768C266.254 18.1768 265.8 18.2046 265.345 18.2602C260.698 18.8415 256.892 22.6073 256.296 27.2172C255.878 30.4389 256.945 33.5956 259.217 35.8805C261.521 38.1932 264.727 39.2846 268.02 38.8764C272.667 38.2952 276.473 34.5294 277.07 29.9195C277.487 26.6978 276.42 23.5411 274.148 21.2562C272.163 19.262 269.507 18.1768 266.706 18.1768Z" fill="#9DC4D4"/>
<path d="M154.779 183.613H128.26C126.464 183.613 124.782 182.917 123.52 181.65C122.271 180.398 121.585 178.734 121.588 176.966L121.653 150.645C121.662 146.984 124.67 144.004 128.356 144.004H154.874C156.671 144.004 158.353 144.7 159.617 145.967C160.866 147.219 161.553 148.883 161.55 150.648L161.485 176.969C161.472 180.633 158.464 183.613 154.779 183.613ZM128.356 145.374C125.419 145.374 123.026 147.742 123.019 150.651L122.954 176.972C122.951 178.373 123.496 179.693 124.488 180.685C125.493 181.693 126.832 182.247 128.263 182.247H154.782C157.719 182.247 160.112 179.878 160.118 176.966L160.183 150.645C160.186 149.245 159.642 147.927 158.649 146.932C157.645 145.927 156.306 145.37 154.874 145.37H128.356V145.374Z" fill="#9DC4D4"/>
<path d="M138.67 175.007C138.537 175.007 138.401 174.995 138.265 174.97C137.508 174.825 136.911 174.302 136.67 173.573L132.088 161.635C131.952 161.283 132.128 160.887 132.481 160.754C132.833 160.621 133.229 160.794 133.362 161.147L137.953 173.115C138.083 173.508 138.389 173.603 138.516 173.628C138.769 173.678 139.023 173.594 139.196 173.406L151.99 153.216C152.191 152.898 152.615 152.802 152.933 153.006C153.251 153.207 153.347 153.63 153.143 153.949L140.321 174.182C140.306 174.206 140.287 174.231 140.269 174.253C139.867 174.738 139.286 175.007 138.67 175.007Z" fill="#5246ED"/>
<path d="M154.475 251.14H127.956C126.16 251.14 124.478 250.445 123.214 249.177C121.965 247.925 121.278 246.262 121.281 244.493L121.346 218.172C121.355 214.512 124.364 211.531 128.049 211.531H154.568C156.364 211.531 158.046 212.227 159.311 213.495C160.56 214.747 161.246 216.41 161.243 218.179L161.178 244.499C161.169 248.16 158.163 251.14 154.475 251.14ZM128.052 212.901C125.115 212.901 122.722 215.269 122.716 218.182L122.651 244.502C122.648 245.903 123.192 247.223 124.184 248.216C125.189 249.224 126.528 249.777 127.96 249.777H154.478C157.415 249.777 159.808 247.409 159.815 244.496L159.879 218.176C159.883 216.775 159.338 215.455 158.346 214.462C157.341 213.457 156.002 212.901 154.571 212.901H128.052Z" fill="#9DC4D4"/>
<path d="M138.367 242.534C138.234 242.534 138.098 242.521 137.962 242.494C137.204 242.348 136.607 241.829 136.366 241.096L131.784 229.159C131.648 228.806 131.824 228.41 132.177 228.277C132.529 228.141 132.925 228.318 133.058 228.67L137.649 240.638C137.779 241.031 138.085 241.127 138.212 241.152C138.466 241.204 138.719 241.118 138.892 240.929L151.686 220.74C151.887 220.421 152.311 220.325 152.629 220.529C152.948 220.73 153.044 221.154 152.84 221.472L140.018 241.705C140.002 241.73 139.984 241.755 139.965 241.776C139.563 242.265 138.985 242.534 138.367 242.534Z" fill="#5246ED"/>
<path d="M154.308 317.09H127.789C125.993 317.09 124.311 316.394 123.047 315.126C121.798 313.874 121.111 312.211 121.114 310.442L121.179 284.122C121.188 280.461 124.197 277.48 127.882 277.48H154.401C156.197 277.48 157.879 278.176 159.144 279.444C160.393 280.696 161.079 282.359 161.076 284.128L161.011 310.448C161.002 314.109 157.997 317.09 154.308 317.09ZM127.885 278.85C124.948 278.85 122.555 281.218 122.549 284.131L122.484 310.452C122.481 311.852 123.025 313.172 124.017 314.165C125.022 315.17 126.361 315.726 127.793 315.726H154.311C157.248 315.726 159.641 313.358 159.648 310.448L159.712 284.128C159.716 282.727 159.171 281.407 158.179 280.415C157.174 279.407 155.835 278.853 154.404 278.853H127.885V278.85Z" fill="#9DC4D4"/>
<path d="M154.735 385.265H128.216C126.42 385.265 124.738 384.57 123.473 383.302C122.224 382.05 121.538 380.387 121.541 378.618L121.606 352.297C121.615 348.637 124.62 345.656 128.309 345.656H154.827C156.624 345.656 158.306 346.352 159.57 347.62C160.819 348.872 161.506 350.535 161.503 352.304L161.438 378.624C161.429 382.288 158.423 385.265 154.735 385.265ZM128.312 347.026C125.375 347.026 122.982 349.394 122.976 352.304L122.911 378.624C122.908 380.025 123.452 381.345 124.444 382.338C125.449 383.345 126.788 383.899 128.219 383.899H154.738C157.675 383.899 160.068 381.531 160.074 378.618L160.139 352.297C160.142 350.897 159.598 349.577 158.606 348.584C157.601 347.579 156.262 347.023 154.831 347.023H128.312V347.026Z" fill="#9DC4D4"/>
<path d="M154.869 452.535H128.35C126.554 452.535 124.872 451.839 123.607 450.572C122.358 449.319 121.672 447.656 121.675 445.888L121.74 419.567C121.749 415.906 124.757 412.926 128.443 412.926H154.961C156.758 412.926 158.44 413.621 159.704 414.889C160.953 416.141 161.64 417.805 161.637 419.573L161.572 445.894C161.562 449.554 158.554 452.535 154.869 452.535ZM128.446 414.292C125.509 414.292 123.116 416.661 123.109 419.573L123.044 445.894C123.041 447.294 123.586 448.615 124.578 449.607C125.583 450.615 126.922 451.168 128.353 451.168H154.872C157.809 451.168 160.202 448.8 160.208 445.888L160.273 419.567C160.276 418.166 159.732 416.846 158.739 415.854C157.735 414.849 156.396 414.292 154.964 414.292H128.446Z" fill="#9DC4D4"/>
<path d="M343.286 132.547H192.6C190.909 132.547 189.323 131.892 188.135 130.698C186.957 129.517 186.311 127.953 186.317 126.289L186.33 121.645C186.339 118.198 189.171 115.391 192.64 115.391H343.326C345.017 115.391 346.603 116.046 347.79 117.24C348.968 118.421 349.615 119.985 349.608 121.648L349.596 126.292C349.587 129.743 346.758 132.547 343.286 132.547ZM192.64 116.76C189.919 116.76 187.699 118.955 187.693 121.652L187.681 126.295C187.678 127.594 188.182 128.815 189.1 129.737C190.031 130.67 191.274 131.184 192.597 131.184H343.283C346.003 131.184 348.223 128.988 348.23 126.292L348.242 121.648C348.245 120.35 347.741 119.129 346.823 118.207C345.892 117.274 344.649 116.76 343.326 116.76H192.64Z" fill="#9DC4D4"/>
<path d="M400.781 171.38H188.912C187.22 171.38 185.634 170.724 184.447 169.531C183.269 168.35 182.623 166.785 182.629 165.122C182.638 161.675 185.47 158.867 188.939 158.867H400.812C402.503 158.867 404.089 159.523 405.277 160.716C406.455 161.897 407.101 163.462 407.095 165.125C407.085 168.575 404.253 171.38 400.781 171.38ZM188.939 160.237C186.219 160.237 183.999 162.432 183.992 165.128C183.989 166.427 184.493 167.648 185.412 168.569C186.342 169.503 187.585 170.016 188.908 170.016H400.781C403.502 170.016 405.722 167.821 405.728 165.125C405.731 163.826 405.227 162.605 404.309 161.684C403.378 160.75 402.135 160.237 400.812 160.237H188.939Z" fill="#9DC4D4"/>
<path d="M370.781 200.11H188.868C187.176 200.11 185.59 199.455 184.403 198.261C183.225 197.08 182.579 195.516 182.585 193.852C182.594 190.405 185.426 187.598 188.895 187.598H370.808C372.5 187.598 374.086 188.253 375.273 189.447C376.451 190.628 377.097 192.192 377.091 193.855C377.085 197.303 374.253 200.11 370.781 200.11ZM188.895 188.964C186.175 188.964 183.955 191.159 183.949 193.855C183.945 195.154 184.449 196.375 185.368 197.297C186.298 198.23 187.541 198.744 188.864 198.744H370.777C373.498 198.744 375.718 196.548 375.724 193.852C375.727 192.554 375.224 191.333 374.305 190.411C373.375 189.477 372.132 188.964 370.808 188.964H188.895Z" fill="#9DC4D4"/>
<path d="M385.27 239.411H201.05C200.673 239.411 200.367 239.105 200.367 238.728C200.367 238.351 200.673 238.044 201.05 238.044H385.27C387.991 238.044 390.211 235.849 390.217 233.153C390.22 231.855 389.716 230.633 388.798 229.712C387.867 228.778 386.624 228.265 385.301 228.265H202.971C202.593 228.265 202.287 227.959 202.287 227.582C202.287 227.205 202.593 226.898 202.971 226.898H385.301C386.992 226.898 388.578 227.554 389.765 228.747C390.943 229.928 391.59 231.493 391.583 233.156C391.574 236.604 388.742 239.411 385.27 239.411Z" fill="#9DC4D4"/>
<path d="M299.561 267.602H189.143C187.452 267.602 185.866 266.947 184.678 265.754C183.5 264.572 182.854 263.008 182.86 261.345C182.87 257.897 185.702 255.09 189.171 255.09H299.589C301.28 255.09 302.866 255.745 304.053 256.939C305.231 258.12 305.877 259.684 305.871 261.348C305.862 264.798 303.033 267.602 299.561 267.602ZM189.171 256.456C186.45 256.456 184.23 258.652 184.224 261.348C184.221 262.646 184.725 263.868 185.643 264.789C186.574 265.723 187.817 266.236 189.14 266.236H299.558C302.279 266.236 304.495 264.041 304.505 261.345C304.508 260.046 304.004 258.825 303.086 257.903C302.155 256.97 300.912 256.456 299.589 256.456H189.171Z" fill="#9DC4D4"/>
<path d="M400.45 303.927H188.58C186.889 303.927 185.303 303.271 184.116 302.078C182.938 300.897 182.292 299.332 182.298 297.669C182.307 294.221 185.139 291.414 188.608 291.414H400.481C402.172 291.414 403.758 292.07 404.946 293.263C406.124 294.444 406.77 296.008 406.764 297.672C406.754 301.119 403.922 303.927 400.45 303.927ZM188.608 292.781C185.888 292.781 183.668 294.976 183.661 297.672C183.658 298.97 184.162 300.192 185.081 301.113C186.011 302.047 187.254 302.56 188.577 302.56H400.45C403.171 302.56 405.391 300.365 405.397 297.669C405.4 296.37 404.896 295.149 403.978 294.228C403.047 293.294 401.804 292.781 400.481 292.781H188.608Z" fill="#9DC4D4"/>
<path d="M370.451 332.653H188.537C186.846 332.653 185.26 331.998 184.073 330.804C182.895 329.623 182.249 328.059 182.255 326.395C182.264 322.948 185.096 320.141 188.565 320.141H370.478C372.17 320.141 373.756 320.796 374.943 321.99C376.121 323.171 376.767 324.735 376.761 326.398C376.755 329.849 373.923 332.653 370.451 332.653ZM188.565 321.507C185.845 321.507 183.625 323.702 183.618 326.398C183.615 327.697 184.119 328.918 185.038 329.84C185.968 330.773 187.211 331.287 188.534 331.287H370.447C373.168 331.287 375.388 329.091 375.394 326.395C375.397 325.097 374.893 323.876 373.975 322.954C373.045 322.02 371.802 321.507 370.478 321.507H188.565Z" fill="#9DC4D4"/>
<path d="M395.776 371.276H188.21C185.109 371.276 182.601 368.781 182.607 365.704C182.617 362.628 185.137 360.133 188.238 360.133H395.803C398.905 360.133 401.412 362.628 401.406 365.704C401.397 368.781 398.877 371.276 395.776 371.276Z" fill="white"/>
<path d="M299.237 397.502H188.819C185.718 397.502 183.211 395.007 183.217 391.931C183.226 388.854 185.746 386.359 188.847 386.359H299.265C302.366 386.359 304.873 388.854 304.867 391.931C304.858 395.007 302.338 397.502 299.237 397.502Z" fill="white"/>
<path d="M400.803 435.135H188.931C185.829 435.135 183.322 432.64 183.328 429.564C183.337 426.487 185.857 423.992 188.958 423.992H400.831C403.932 423.992 406.44 426.487 406.433 429.564C406.424 432.64 403.904 435.135 400.803 435.135Z" fill="white"/>
<path d="M370.8 463.862H188.887C185.785 463.862 183.278 461.367 183.284 458.29C183.293 455.214 185.813 452.719 188.914 452.719H370.827C373.929 452.719 376.436 455.214 376.427 458.29C376.424 461.367 373.901 463.862 370.8 463.862Z" fill="white"/>
<path d="M540.311 224.859L404.241 225.305C400.973 225.314 398.589 222.98 398.589 219.767V9.03234C398.589 4.92332 402.42 1.14512 406.6 1.13275L542.67 0.687528C545.939 0.678252 548.322 3.01257 548.322 6.22497V216.96C548.322 221.069 544.492 224.844 540.311 224.859Z" fill="white"/>
<path d="M531.383 77.7476C535.934 109.64 512.715 140.091 479.518 145.764C446.321 151.438 415.721 130.185 411.17 98.2927C406.619 66.4006 429.839 35.9493 463.035 30.2759C496.232 24.6024 526.832 45.8586 531.383 77.7476Z" fill="white"/>
<path d="M468.684 147.375C455.803 147.375 443.47 143.443 433.131 135.905C420.693 126.84 412.654 113.514 410.496 98.3888C405.898 66.1845 429.418 35.3282 462.924 29.6021C479.669 26.7391 496.183 30.4802 509.428 40.1328C521.866 49.2011 529.905 62.5238 532.063 77.6489C536.661 109.853 513.141 140.71 479.638 146.436C475.962 147.066 472.301 147.375 468.684 147.375ZM473.866 30.0319C470.326 30.0319 466.745 30.3349 463.15 30.9501C430.367 36.5525 407.352 66.7193 411.844 98.1971C413.95 112.954 421.793 125.955 433.932 134.801C446.874 144.237 463.023 147.889 479.4 145.091C512.183 139.488 535.198 109.321 530.706 77.8437C528.6 63.0865 520.756 50.0854 508.618 41.2366C498.517 33.875 486.459 30.0319 473.866 30.0319Z" fill="#9DC4D4"/>
<path d="M472.37 88.0717L511.052 130.569C525.812 117.456 533.993 97.916 531.124 77.8007C529.303 65.0501 523.317 54.003 514.669 45.6953L472.37 88.0717Z" fill="white"/>
<path d="M511.052 131.248C510.867 131.248 510.681 131.174 510.548 131.025L471.867 88.5282C471.622 88.2592 471.632 87.8449 471.888 87.5852L514.184 45.2057C514.447 44.9398 514.871 44.9367 515.14 45.1964C524.251 53.9493 530.011 65.1912 531.798 77.6975C534.603 97.3398 527.015 117.294 511.507 131.075C511.374 131.192 511.213 131.248 511.052 131.248ZM473.314 88.0922L511.102 129.606C525.93 116.15 533.156 96.8699 530.447 77.8954C528.737 65.9115 523.287 55.1242 514.676 46.6526L473.314 88.0922Z" fill="#9DC4D4"/>
<path d="M476.059 29.4766L472.367 88.0695L514.669 45.7055C504.618 36.0405 490.964 30.0918 476.059 29.4766Z" fill="#5246ED"/>
<path d="M489.594 84.8903C490.982 94.6079 483.905 103.89 473.788 105.618C463.672 107.346 454.347 100.869 452.962 91.1513C451.574 81.4337 458.651 72.1521 468.767 70.4237C478.881 68.6954 488.206 75.1697 489.594 84.8903Z" fill="white"/>
<path d="M470.487 106.584C466.461 106.584 462.606 105.353 459.375 102.997C455.479 100.159 452.962 95.9849 452.288 91.2482C450.85 81.1813 458.194 71.541 468.653 69.7508C473.881 68.8542 479.045 70.026 483.185 73.0436C487.08 75.8819 489.597 80.0558 490.271 84.7925C491.709 94.8594 484.366 104.5 473.906 106.29C472.759 106.485 471.615 106.584 470.487 106.584ZM472.067 70.8237C471.015 70.8237 469.952 70.9134 468.882 71.0958C459.143 72.7623 452.307 81.7131 453.639 91.0534C454.264 95.4222 456.586 99.2715 460.178 101.893C464.019 104.691 468.811 105.774 473.674 104.945C483.413 103.278 490.249 94.3277 488.917 84.9873C488.292 80.6186 485.97 76.7693 482.378 74.1474C479.382 71.9646 475.805 70.8237 472.067 70.8237Z" fill="#9DC4D4"/>
<path d="M529.979 172.478L415.878 174.185C414.725 174.204 413.807 173.273 413.838 172.117L414.042 163.741C414.07 162.603 415.003 161.676 416.135 161.66L530.235 159.953C531.388 159.935 532.307 160.865 532.276 162.022L532.072 170.398C532.044 171.532 531.11 172.46 529.979 172.478Z" fill="#9DC4D4"/>
<path d="M530.481 195.727L414.745 197.459C414.049 197.468 413.493 196.905 413.511 196.207L413.755 186.189C413.771 185.503 414.337 184.943 415.02 184.931L530.756 183.199C531.452 183.19 532.008 183.753 531.989 184.452L531.745 194.469C531.727 195.155 531.164 195.718 530.481 195.727Z" fill="#9DC4D4"/>
<path d="M404.216 225.981C402.444 225.981 400.833 225.344 399.674 224.19C398.533 223.053 397.905 221.482 397.905 219.763L397.652 141.169C397.599 141.073 397.571 140.962 397.571 140.848L397.902 9.025C397.902 4.55115 402.045 0.460681 406.593 0.445222L542.664 0C542.673 0 542.679 0 542.689 0C544.46 0 546.074 0.636916 547.231 1.79016C548.371 2.92795 548.999 4.50168 548.999 6.21763V216.952C548.999 221.429 544.856 225.52 540.308 225.535L404.234 225.981C404.231 225.981 404.225 225.981 404.216 225.981ZM398.944 138.853C398.987 138.943 399.012 139.042 399.012 139.15L399.272 219.763C399.272 221.117 399.757 222.348 400.638 223.226C401.538 224.122 402.809 224.617 404.219 224.617C404.225 224.617 404.231 224.617 404.237 224.617L540.311 224.172C544.148 224.16 547.642 220.721 547.642 216.956V6.21763C547.642 4.86342 547.156 3.63598 546.275 2.7579C545.375 1.86128 544.105 1.36659 542.695 1.36659C542.689 1.36659 542.682 1.36659 542.676 1.36659L406.602 1.8118C402.766 1.82417 399.272 5.26227 399.272 9.0281L398.944 138.853Z" fill="#9DC4D4"/>
<path d="M459.306 380.477H177.052V542.064H459.306V380.477Z" fill="white"/>
<path d="M459.306 542.743H177.051C176.674 542.743 176.368 542.437 176.368 542.06V380.472C176.368 380.095 176.674 379.789 177.051 379.789H459.306C459.683 379.789 459.99 380.095 459.99 380.472V542.06C459.99 542.437 459.683 542.743 459.306 542.743ZM177.735 541.377H458.626V381.156H177.735V541.377Z" fill="#9DC4D4"/>
<path d="M220.65 517.597H190.459C188.882 517.597 187.599 516.314 187.599 514.737V457.489C187.599 455.912 188.882 454.629 190.459 454.629H220.65C222.227 454.629 223.51 455.912 223.51 457.489V514.737C223.51 516.314 222.227 517.597 220.65 517.597ZM190.459 455.995C189.636 455.995 188.965 456.666 188.965 457.489V514.737C188.965 515.559 189.636 516.23 190.459 516.23H220.65C221.473 516.23 222.143 515.559 222.143 514.737V457.489C222.143 456.666 221.473 455.995 220.65 455.995H190.459Z" fill="#BBD1EA"/>
<path d="M196.679 486.904C196.515 486.904 196.348 486.845 196.218 486.724C195.94 486.468 195.922 486.038 196.178 485.76L215.385 464.878C215.638 464.599 216.071 464.581 216.349 464.837C216.627 465.094 216.646 465.524 216.389 465.802L197.183 486.684C197.047 486.829 196.865 486.904 196.679 486.904Z" fill="#BBD1EA"/>
<path d="M195.616 505.274C195.455 505.274 195.291 505.216 195.161 505.101C194.88 504.851 194.855 504.418 195.105 504.137L212.608 484.525C212.859 484.244 213.291 484.219 213.573 484.47C213.854 484.72 213.879 485.153 213.628 485.434L196.126 505.046C195.993 505.197 195.804 505.274 195.616 505.274Z" fill="#BBD1EA"/>
<path d="M446.538 517.597H416.346C414.769 517.597 413.486 516.314 413.486 514.737V457.489C413.486 455.912 414.769 454.629 416.346 454.629H446.538C448.115 454.629 449.398 455.912 449.398 457.489V514.737C449.395 516.314 448.115 517.597 446.538 517.597ZM416.343 455.995C415.521 455.995 414.85 456.666 414.85 457.489V514.737C414.85 515.559 415.521 516.23 416.343 516.23H446.535C447.357 516.23 448.028 515.559 448.028 514.737V457.489C448.028 456.666 447.357 455.995 446.535 455.995H416.343Z" fill="#BBD1EA"/>
<path d="M422.567 483.447C422.403 483.447 422.236 483.388 422.106 483.267C421.828 483.011 421.809 482.581 422.066 482.303L440.604 462.147C440.858 461.869 441.291 461.85 441.569 462.107C441.847 462.363 441.866 462.793 441.609 463.072L423.071 483.227C422.935 483.372 422.749 483.447 422.567 483.447Z" fill="white"/>
<path d="M421.503 505.27C421.342 505.27 421.179 505.212 421.049 505.097C420.767 504.847 420.743 504.414 420.993 504.133L438.496 484.521C438.746 484.24 439.179 484.215 439.46 484.466C439.742 484.716 439.767 485.149 439.516 485.43L422.013 505.042C421.877 505.193 421.692 505.27 421.503 505.27Z" fill="white"/>
<path d="M246.18 291.016H229.169V329.166H246.18V291.016Z" fill="#5246ED"/>
<path d="M464.167 392.599H172.191C169.671 392.599 167.918 390.095 168.781 387.729L191.46 325.442C191.985 324.001 193.358 323.045 194.891 323.055L440.876 324.536C442.373 324.545 443.708 325.469 444.243 326.867L467.555 387.674C468.467 390.045 466.711 392.599 464.167 392.599Z" fill="#5246ED"/>
<path d="M403.565 542.068L402.987 384.046L319.143 277.688L232.795 382.562L233.605 542.068H403.565Z" fill="white"/>
<path d="M403.565 542.747H233.602C233.224 542.747 232.921 542.445 232.918 542.067L232.111 382.561C232.111 382.4 232.167 382.245 232.266 382.125L318.614 277.247C318.744 277.09 318.936 277 319.14 277C319.143 277 319.146 277 319.146 277C319.353 277.003 319.548 277.099 319.675 277.26L403.515 383.618C403.611 383.739 403.661 383.887 403.661 384.039L404.242 542.061C404.242 542.244 404.171 542.417 404.044 542.547C403.92 542.676 403.747 542.747 403.565 542.747ZM234.282 541.381H402.878L402.3 384.28L319.13 278.772L233.478 382.805L234.282 541.381Z" fill="#9DC4D4"/>
<path d="M278.414 517.748L249.345 517.594C247.477 517.594 245.956 516.072 245.956 514.202V458.018C245.956 456.147 247.477 454.629 249.348 454.629L278.42 454.783C280.284 454.783 281.806 456.305 281.806 458.175V514.36C281.803 516.227 280.284 517.748 278.414 517.748ZM249.342 455.992C248.229 455.992 247.32 456.901 247.32 458.018V514.202C247.32 515.318 248.229 516.227 249.345 516.227H249.348L278.417 516.382C279.53 516.382 280.439 515.473 280.439 514.357V458.172C280.439 457.056 279.53 456.147 278.414 456.147L249.342 455.992Z" fill="#BBD1EA"/>
<path d="M255.028 499.571C254.867 499.571 254.703 499.513 254.573 499.398C254.292 499.148 254.267 498.715 254.517 498.433L272.02 478.822C272.271 478.541 272.704 478.516 272.985 478.766C273.266 479.017 273.291 479.45 273.04 479.731L255.538 499.343C255.402 499.494 255.216 499.571 255.028 499.571Z" fill="#BBD1EA"/>
<path d="M386.084 517.748L357.015 517.594C355.147 517.594 353.626 516.072 353.626 514.202V458.018C353.626 456.147 355.147 454.629 357.018 454.629L386.09 454.783C387.954 454.783 389.476 456.305 389.476 458.175V514.36C389.476 516.227 387.954 517.748 386.084 517.748ZM357.012 455.992C355.898 455.992 354.989 456.901 354.989 458.018V514.202C354.989 515.318 355.898 516.227 357.015 516.227H357.018L386.087 516.382C387.2 516.382 388.109 515.473 388.109 514.357V458.172C388.109 457.056 387.2 456.147 386.084 456.147L357.012 455.992Z" fill="#BBD1EA"/>
<path d="M362.698 490.591C362.537 490.591 362.373 490.532 362.243 490.418C361.962 490.167 361.937 489.734 362.187 489.453L379.69 469.842C379.941 469.56 380.373 469.536 380.655 469.786C380.936 470.036 380.961 470.469 380.71 470.751L363.208 490.362C363.075 490.514 362.886 490.591 362.698 490.591Z" fill="#BBD1EA"/>
<path d="M295.729 542.414H340.826V459.405C340.826 457.142 338.992 455.309 336.729 455.309H299.825C297.562 455.309 295.729 457.142 295.729 459.405V542.414Z" fill="#BBD1EA"/>
<path d="M308.142 494.1C307.984 494.1 307.823 494.044 307.693 493.933C307.409 493.685 307.381 493.253 307.628 492.968L332.422 464.542C332.669 464.258 333.102 464.23 333.386 464.477C333.671 464.724 333.699 465.157 333.451 465.442L308.658 493.868C308.522 494.019 308.333 494.1 308.142 494.1Z" fill="white"/>
<path d="M313.506 505.264C313.345 505.264 313.181 505.205 313.052 505.091C312.77 504.841 312.746 504.408 312.996 504.126L330.891 484.076C331.142 483.795 331.575 483.77 331.856 484.02C332.137 484.271 332.162 484.704 331.912 484.985L314.016 505.035C313.883 505.187 313.695 505.264 313.506 505.264Z" fill="white"/>
<path d="M223.466 390.751L317.856 277.449C318.731 276.398 320.36 276.41 321.22 277.473L412.957 390.776C413.553 391.515 413.022 392.606 412.066 392.606H402.577L319.55 287.887L231.551 392.984H224.532C223.367 392.987 222.724 391.645 223.466 390.751Z" fill="#5246ED"/>
<path d="M231.554 393.672H224.536C223.723 393.672 223.006 393.217 222.662 392.485C222.325 391.761 222.43 390.933 222.944 390.317L317.334 277.015C317.881 276.356 318.706 276.001 319.551 275.988C320.41 275.994 321.214 276.381 321.752 277.046L413.489 390.348C413.931 390.892 414.018 391.625 413.715 392.256C413.409 392.896 412.778 393.292 412.067 393.292H402.578C402.371 393.292 402.173 393.196 402.043 393.032L319.538 288.971L232.074 393.425C231.947 393.582 231.755 393.672 231.554 393.672ZM319.529 277.355C319.084 277.355 318.663 277.55 318.382 277.89L223.992 391.192C223.744 391.489 223.843 391.792 223.899 391.907C224.017 392.157 224.255 392.305 224.536 392.305H231.236L319.031 287.453C319.161 287.295 319.362 287.202 319.563 287.208C319.767 287.212 319.962 287.307 320.088 287.468L402.909 391.928H412.067C412.33 391.928 412.444 391.749 412.481 391.672C412.515 391.597 412.583 391.403 412.426 391.211L320.688 277.908C320.407 277.562 319.99 277.361 319.538 277.358C319.538 277.355 319.532 277.355 319.529 277.355Z" fill="white"/>
<path d="M361.095 405.961H275.266C274.889 405.961 274.583 405.655 274.583 405.277V395.742C274.583 371.703 294.142 352.145 318.181 352.145C342.22 352.145 361.778 371.703 361.778 395.742V405.277C361.775 405.655 361.472 405.961 361.095 405.961ZM275.95 404.594H360.412V395.742C360.412 372.455 341.468 353.511 318.181 353.511C294.893 353.511 275.95 372.455 275.95 395.742V404.594Z" fill="#BBD1EA"/>
<path d="M304.422 395.767C304.258 395.767 304.091 395.708 303.962 395.587C303.683 395.331 303.665 394.901 303.921 394.623L334.521 361.358C334.775 361.08 335.207 361.061 335.486 361.318C335.764 361.574 335.782 362.004 335.526 362.282L304.926 395.547C304.793 395.693 304.608 395.767 304.422 395.767Z" fill="#BBD1EA"/>
<path d="M321.636 395.768C321.475 395.768 321.311 395.71 321.182 395.595C320.9 395.345 320.875 394.912 321.126 394.631L337.961 375.767C338.211 375.486 338.644 375.461 338.925 375.712C339.207 375.962 339.232 376.395 338.981 376.676L322.143 395.54C322.01 395.691 321.825 395.768 321.636 395.768Z" fill="#BBD1EA"/>
<path d="M26.7109 521.415L28.3125 536.68L38.6361 537.889V519.789L26.7109 521.415Z" fill="#FFB294"/>
<path d="M38.6331 538.567C38.6053 538.567 38.5805 538.567 38.5527 538.561L28.2322 537.352C27.9138 537.315 27.6664 537.061 27.6324 536.746L26.0309 521.482C25.9938 521.114 26.2535 520.783 26.6183 520.733L38.5403 519.107C38.7382 519.082 38.933 519.141 39.0814 519.271C39.2298 519.401 39.3164 519.586 39.3164 519.784V537.884C39.3164 538.078 39.2329 538.264 39.0876 538.394C38.9639 538.505 38.8001 538.567 38.6331 538.567ZM28.9341 536.06L37.9498 537.117V520.566L27.4562 521.998L28.9341 536.06Z" fill="#9DC4D4"/>
<path d="M40.2598 564.457C35.959 565.063 28.9035 565.595 20.6237 564.448C17.909 564.074 16.1127 561.439 16.7651 558.78C18.5892 551.369 21.7305 537.314 27.1226 530.796L28.4614 534.33L30.3103 531.004C30.5638 530.549 31.0183 530.24 31.5347 530.175L35.588 529.662C36.4352 529.554 37.2205 530.116 37.3967 530.951L38.0429 534.018L39.4559 529.993L44.1709 559.294C44.5017 561.795 42.761 564.104 40.2598 564.457Z" fill="white"/>
<path d="M30.5051 565.806C27.4844 565.806 24.1236 565.62 20.5309 565.123C19.0407 564.915 17.705 564.087 16.8609 562.844C16.023 561.607 15.7448 560.067 16.1034 558.614L16.493 557.016C18.3543 549.361 21.4708 536.551 26.5971 530.358C26.7516 530.17 26.9928 530.08 27.234 530.12C27.4751 530.16 27.673 530.324 27.7596 530.553L28.5789 532.711L29.7136 530.667C30.0722 530.024 30.7215 529.585 31.4512 529.493L35.5046 528.979C36.6949 528.828 37.8203 529.629 38.0677 530.803L38.2099 531.477L38.8128 529.758C38.9179 529.465 39.2086 529.279 39.5177 529.304C39.83 529.332 40.0804 529.567 40.1299 529.876L44.8418 559.177C45.2221 562.065 43.2094 564.727 40.3525 565.129C37.8234 565.487 34.4564 565.806 30.5051 565.806ZM26.9186 532.182C22.42 538.443 19.5632 550.183 17.8225 557.341L17.4329 558.942C17.1639 560.033 17.3649 561.147 17.9956 562.077C18.6202 562.999 19.6157 563.617 20.7226 563.771C28.851 564.897 35.7859 564.396 40.1701 563.781C42.2849 563.484 43.7783 561.508 43.5 559.381L39.2178 532.758L38.6953 534.245C38.5933 534.532 38.3119 534.708 38.0058 534.699C37.6998 534.681 37.4462 534.458 37.3813 534.158L36.7351 531.091C36.6331 530.606 36.1662 530.275 35.6808 530.34L31.6274 530.853C31.3275 530.89 31.0585 531.072 30.9132 531.335L29.0643 534.662C28.9345 534.894 28.6747 535.033 28.4181 535.011C28.1522 534.993 27.9234 534.823 27.8276 534.572L26.9186 532.182Z" fill="#9DC4D4"/>
<path d="M28.3039 560.896C25.546 560.896 22.5624 560.651 19.588 559.974C19.2201 559.891 18.9913 559.526 19.0748 559.158C19.1583 558.79 19.5262 558.558 19.891 558.645C29.9765 560.945 40.5474 557.986 40.6526 557.955C41.0143 557.853 41.3915 558.064 41.4966 558.425C41.6017 558.787 41.3915 559.164 41.0267 559.269C40.7082 559.359 35.2202 560.896 28.3039 560.896Z" fill="#9DC4D4"/>
<path d="M25.8399 549.542C25.472 549.542 25.169 549.252 25.1566 548.881C25.1443 548.503 25.4411 548.188 25.8152 548.176L35.4895 547.857C35.8728 547.829 36.182 548.139 36.1944 548.516C36.2068 548.893 35.9099 549.208 35.5358 549.221L25.8616 549.539C25.8554 549.542 25.8492 549.542 25.8399 549.542Z" fill="#9DC4D4"/>
<path d="M75.0566 513.289L76.6025 535.566H89.0224L89.6005 513.289H75.0566Z" fill="#FFB294"/>
<path d="M89.0214 536.245H76.6016C76.243 536.245 75.9462 535.966 75.9214 535.608L74.3755 513.331C74.3631 513.143 74.4281 512.957 74.5579 512.818C74.6878 512.679 74.8671 512.602 75.0557 512.602H89.5996C89.7851 512.602 89.9613 512.676 90.0881 512.809C90.218 512.942 90.286 513.118 90.2829 513.303L89.7047 535.58C89.6955 535.948 89.3925 536.245 89.0214 536.245ZM77.2416 534.878H88.3598L88.9009 513.968H75.7885L77.2416 534.878Z" fill="#9DC4D4"/>
<path d="M73.3589 548.134C73.328 550.242 74.7688 552.091 76.8186 552.567C83.9576 554.231 100.041 557.928 104.629 558.612C110.584 559.499 117.903 557.675 121.047 554.19C124.191 550.709 114.001 542.392 109.165 539.365C101.98 534.87 95.0758 525.987 92.1818 525.588C89.2879 525.189 83.8834 533.587 83.8834 533.587L75.0501 529.876C75.0563 529.876 73.5166 537.445 73.3589 548.134Z" fill="white"/>
<path d="M107.743 559.523C106.658 559.523 105.578 559.449 104.53 559.291C99.9019 558.601 83.4999 554.826 76.6639 553.237C74.3172 552.69 72.6383 550.541 72.6754 548.126C72.8331 537.497 74.3728 529.82 74.3883 529.742C74.4285 529.541 74.5583 529.371 74.7377 529.276C74.917 529.18 75.1334 529.17 75.322 529.251L83.6297 532.741C85.0581 530.596 89.3898 524.53 92.2806 524.916C93.9502 525.145 96.3031 527.38 99.5618 530.472C102.583 533.338 106.005 536.588 109.533 538.792C113.432 541.229 121.674 547.687 122.29 552.084C122.432 553.098 122.185 553.961 121.56 554.653C118.886 557.612 113.231 559.523 107.743 559.523ZM75.5755 530.837C75.186 533.069 74.1688 539.646 74.042 548.145C74.0142 549.923 75.2478 551.503 76.9761 551.905C83.7967 553.491 100.155 557.256 104.734 557.94C110.674 558.824 117.618 556.978 120.546 553.738C120.892 553.355 121.022 552.875 120.936 552.272C120.462 548.887 113.589 542.941 108.806 539.949C105.164 537.67 101.689 534.371 98.6219 531.461C95.898 528.88 93.3256 526.437 92.092 526.267C90.4039 526.057 86.6071 530.624 84.4614 533.957C84.2821 534.235 83.9296 534.346 83.6235 534.216L75.5755 530.837Z" fill="#9DC4D4"/>
<path d="M107.625 555.434C94.6854 555.434 77.3249 548.422 76.3448 548.02C75.9954 547.877 75.8284 547.479 75.9707 547.129C76.1129 546.78 76.5117 546.61 76.8611 546.755C77.1765 546.885 108.574 559.571 117.784 551.254C118.066 551 118.495 551.025 118.749 551.303C119.003 551.585 118.981 552.014 118.7 552.268C116.146 554.574 112.154 555.434 107.625 555.434Z" fill="#9DC4D4"/>
<path d="M93.8576 541.939C93.6721 541.939 93.4866 541.862 93.3506 541.714C93.097 541.432 93.1187 541.002 93.4 540.749L99.7166 535.051C99.998 534.797 100.428 534.822 100.681 535.1C100.935 535.381 100.913 535.811 100.632 536.065L94.3152 541.763C94.1853 541.884 94.0215 541.939 93.8576 541.939Z" fill="#9DC4D4"/>
<path d="M23.1894 368.06C23.1894 368.06 19.34 437.696 17.3273 461.738C15.3145 485.777 22.0361 524.422 22.0361 524.422L41.2054 523.414C41.2054 523.414 42.5194 476.431 43.9447 463.383C43.9447 463.383 52.0422 445.695 54.4414 429.921C56.8407 414.146 65.0154 389.229 65.0154 389.229C65.0154 389.229 71.6535 513.597 72.2935 523.367C72.2935 523.367 87.3259 524.035 92.715 520.647C92.715 520.647 102.266 475.299 100.893 450.626C99.5201 425.954 101.029 364.652 101.029 364.652L23.1894 368.06Z" fill="#BBD1EA"/>
<path d="M40.4143 464.062H34.5554C34.1782 464.062 33.8721 463.756 33.8721 463.379C33.8721 463.001 34.1782 462.695 34.5554 462.695H40.4143C40.7915 462.695 41.0976 463.001 41.0976 463.379C41.0976 463.756 40.7915 464.062 40.4143 464.062Z" fill="#9DC4D4"/>
<path d="M82.158 500.227C82.1549 500.227 82.1487 500.227 82.1456 500.227C81.7684 500.22 81.4685 499.908 81.4747 499.531C81.6849 488.011 94.3181 467.379 94.8561 466.504C95.0539 466.183 95.4744 466.084 95.796 466.282C96.1175 466.479 96.2165 466.9 96.0186 467.221C95.8887 467.432 83.0453 488.41 82.8413 499.556C82.8351 499.93 82.529 500.227 82.158 500.227Z" fill="#9DC4D4"/>
<path d="M107.102 256.687C108.5 256.579 115.348 270.607 136.787 270.019C158.225 269.432 175.422 245.442 175.422 245.442C175.422 245.442 182.827 232.958 188.445 228.444C194.063 223.93 194.944 223.336 194.944 223.336C194.944 223.336 196.706 225.683 194.944 228.444C193.181 231.205 188.318 236.371 188.318 236.371C188.318 236.371 193.676 239.311 191.258 245.439C188.479 252.486 180.647 251.92 180.647 251.92C180.647 251.92 164.752 322.289 99.0635 288.851L107.102 256.687Z" fill="#FFB294"/>
<path d="M131.642 298.545C121.65 298.545 110.655 295.512 98.7578 289.455C98.4734 289.31 98.3281 288.988 98.4054 288.682L106.441 256.515C106.512 256.23 106.756 256.023 107.05 255.999C107.681 255.949 108.138 256.469 109.261 257.718C112.498 261.329 120.076 269.797 136.769 269.33C157.614 268.758 174.699 245.276 174.869 245.038C175.141 244.574 182.37 232.445 188.018 227.906C193.596 223.426 194.527 222.789 194.564 222.765C194.864 222.564 195.275 222.629 195.491 222.919C195.575 223.031 197.513 225.68 195.522 228.806C194.082 231.066 190.69 234.813 189.36 236.254C190.838 237.389 193.936 240.518 191.899 245.687C189.425 251.961 183.13 252.57 181.186 252.607C180.103 256.793 172.272 284.165 150.224 294.516C144.495 297.203 138.29 298.545 131.642 298.545ZM99.8616 288.484C119.074 298.152 135.816 299.763 149.634 293.28C172.81 282.406 179.915 252.069 179.983 251.766C180.057 251.438 180.363 251.215 180.697 251.237C180.997 251.256 188.068 251.67 190.625 245.186C192.795 239.683 188.185 237.077 187.991 236.968C187.805 236.866 187.678 236.684 187.644 236.477C187.61 236.267 187.675 236.056 187.821 235.902C187.87 235.849 192.659 230.748 194.366 228.073C195.365 226.506 195.049 225.108 194.725 224.345C193.964 224.926 192.31 226.209 188.872 228.973C183.415 233.357 176.084 245.663 176.01 245.786C175.803 246.08 158.331 270.106 136.806 270.697C136.354 270.709 135.906 270.716 135.464 270.716C119.074 270.716 111.518 262.287 108.24 258.633C107.999 258.364 107.74 258.076 107.517 257.838L99.8616 288.484Z" fill="#FFA37F"/>
<path d="M0.851562 288.85C0.851562 288.85 7.28563 247.327 30.0135 237.112C52.7415 226.896 83.4895 228.315 91.9704 233.417C100.448 238.518 122.548 261.586 122.548 261.586L103.021 288.85C103.021 288.85 107.485 362.24 103.954 381.617C103.954 381.617 82.2281 384.149 73.0145 380.522C63.8009 376.892 33.5042 371.809 19.0222 378.463L21.6533 285.545L0.851562 288.85Z" fill="#5246ED"/>
<path d="M88.6256 383.167C82.8439 383.167 76.7221 382.713 72.7646 381.155C63.7056 377.587 33.7552 372.442 19.3072 379.08C19.0938 379.179 18.8434 379.16 18.6455 379.028C18.4476 378.898 18.3332 378.675 18.3394 378.44L20.9489 286.344L0.960332 289.52C0.743905 289.557 0.52748 289.482 0.372889 289.331C0.218298 289.176 0.147188 288.957 0.181198 288.743C0.447094 287.034 6.93372 246.735 29.7358 236.486C52.1608 226.406 83.1655 227.318 92.3234 232.831C100.783 237.92 122.138 260.169 123.044 261.112C123.272 261.35 123.297 261.715 123.106 261.981L103.717 289.046C103.995 293.715 108.03 363.058 104.626 381.736C104.573 382.033 104.332 382.255 104.032 382.292C103.522 382.351 96.3768 383.167 88.6256 383.167ZM38.7083 374.532C52.4638 374.532 67.3106 377.537 73.2655 379.884C81.4464 383.106 100.062 381.337 103.37 380.991C106.682 361.182 102.384 289.615 102.338 288.889C102.329 288.731 102.372 288.577 102.465 288.45L121.662 261.647C118.656 258.533 99.3047 238.625 91.6154 233.997C83.6509 229.208 53.0048 227.519 30.2924 237.729C10.0348 246.834 2.81233 281.849 1.68691 288.02L21.5456 284.863C21.7466 284.829 21.9507 284.891 22.1022 285.024C22.2537 285.157 22.3402 285.352 22.334 285.556L19.7338 377.401C24.8662 375.324 31.6435 374.532 38.7083 374.532Z" fill="#111111"/>
<path d="M38.984 359.99C38.6594 359.99 38.3718 359.758 38.3131 359.428C38.2482 359.057 38.4955 358.701 38.8665 358.636C73.3928 352.533 83.4195 328.673 83.5154 328.435C83.6576 328.086 84.0564 327.916 84.4027 328.058C84.7521 328.2 84.9222 328.596 84.7799 328.945C84.681 329.193 74.3636 353.748 39.1015 359.978C39.0644 359.987 39.0242 359.99 38.984 359.99Z" fill="#9DC4D4"/>
<path d="M101.376 317.869H57.1475L70.9988 268.465H115.227L101.376 317.869Z" fill="#060606"/>
<path d="M4.75079 289.013L27.1355 279.008C27.1355 279.008 23.9819 316.935 69.2707 299.42C69.2707 299.42 67.6012 294.547 67.8362 288.852C68.0711 283.16 71.4783 288.667 71.9545 293.295C72.4306 297.92 83.0633 296.044 89.4541 294.22C95.8418 292.395 104.23 293.589 89.4541 301.742C74.6783 309.892 71.4412 306.256 71.4412 306.256C71.4412 306.256 52.5719 332.66 29.0926 327.052C0.212001 320.154 4.75079 289.013 4.75079 289.013Z" fill="#FFB294"/>
<path d="M35.6413 328.505C33.4553 328.505 31.2138 328.257 28.932 327.713C-0.214505 320.75 4.03055 289.229 4.07693 288.911C4.11094 288.679 4.25934 288.481 4.47268 288.385L26.8574 278.38C27.0769 278.281 27.3336 278.306 27.5314 278.448C27.7293 278.587 27.8375 278.822 27.8159 279.06C27.8035 279.199 26.7894 292.915 35.7649 299.624C42.703 304.809 53.6882 304.602 68.4268 299.006C67.9816 297.491 66.9613 293.443 67.153 288.821C67.1839 288.07 67.2798 285.785 68.7206 285.742C68.7329 285.742 68.7422 285.742 68.7546 285.742C70.5602 285.742 72.3194 290.191 72.6317 293.224C72.6936 293.821 72.978 294.281 73.5036 294.64C76.1285 296.415 83.6324 295.172 89.2626 293.564C92.2616 292.711 97.3477 292.154 98.235 294.306C98.7204 295.484 98.3711 297.599 89.7789 302.339C77.8754 308.906 73.1697 308.012 71.5867 307.19C69.0019 310.554 54.3004 328.505 35.6413 328.505ZM5.38477 289.477C5.20544 291.109 4.64273 297.93 6.76371 305.297C9.98229 316.493 17.548 323.589 29.2505 326.384C52.0031 331.816 70.6993 306.117 70.8848 305.854C71.0054 305.684 71.1971 305.582 71.4043 305.57C71.6114 305.56 71.8124 305.641 71.9515 305.798C71.967 305.814 75.2783 308.776 89.1265 301.139C97.5486 296.492 97.0076 294.89 96.9798 294.822C96.6768 294.083 93.4613 293.78 89.6429 294.872C86.6345 295.731 76.5305 298.332 72.743 295.765C71.8742 295.178 71.3826 294.368 71.2775 293.36C70.959 290.268 69.4564 287.535 68.8226 287.142C68.736 287.3 68.566 287.748 68.5196 288.874C68.2908 294.362 69.9016 299.145 69.9171 299.191C70.0346 299.537 69.8584 299.918 69.5183 300.051C54.0066 306.049 42.3752 306.271 34.9456 300.712C26.8203 294.634 26.338 283.645 26.4091 280.077L5.38477 289.477Z" fill="#FFA37F"/>
<path d="M64.4966 218.189C62.5642 219.961 58.783 222.122 55.8241 220.632C53.6227 219.522 52.3922 216.649 52.4664 213.357C51.4461 213.44 50.1104 213.369 49.1551 212.525C47.6864 211.226 47.9616 208.839 48.0173 207.269C48.2832 200.025 44.0721 198.912 45.1048 193.996C45.9148 190.131 48.951 187.831 49.5168 187.398C52.3829 185.224 54.3246 185.926 59.1416 184.665C67.2484 182.54 67.5081 179.047 72.8476 179.031C73.1568 179.031 80.4256 179.112 82.8929 184.133C84.8995 188.217 82.5559 193.182 80.1319 195.789C76.9937 199.165 74.7429 197.499 71.5923 200.331C66.0673 205.299 70.2412 212.93 64.4966 218.189Z" fill="black"/>
<path d="M57.9975 221.806C57.1565 221.806 56.3155 221.636 55.5179 221.237C53.2887 220.114 51.8943 217.403 51.7891 214.061C50.5029 214.051 49.4672 213.705 48.7066 213.031C47.1329 211.64 47.2411 209.364 47.3184 207.701L47.34 207.237C47.4699 203.691 46.4743 201.684 45.5962 199.913C44.7182 198.144 43.8896 196.474 44.4399 193.849C45.1912 190.266 47.6863 187.926 49.1085 186.85C51.0811 185.353 52.7167 185.112 54.782 184.809C55.9507 184.639 57.2709 184.444 58.9714 183.999C62.8269 182.988 64.8026 181.699 66.5433 180.558C68.352 179.374 69.9164 178.35 72.8475 178.344C73.1752 178.338 80.8275 178.375 83.5081 183.826C85.5672 188.018 83.4617 193.203 80.6357 196.249C78.8363 198.184 77.2935 198.589 75.8002 198.982C74.5696 199.307 73.4102 199.61 72.0529 200.831C69.5052 203.122 69.1713 206.044 68.8158 209.139C68.4355 212.444 68.0459 215.863 64.9572 218.689C63.4978 220.025 60.7338 221.806 57.9975 221.806ZM52.4693 212.669C52.6425 212.669 52.8094 212.734 52.9362 212.855C53.0784 212.988 53.1557 213.173 53.1495 213.368C53.0784 216.46 54.2471 219.069 56.13 220.016C58.8601 221.394 62.493 219.091 64.0327 217.681C66.7442 215.202 67.0905 212.181 67.4553 208.981C67.8233 205.772 68.2036 202.451 71.1346 199.814C72.7362 198.373 74.177 197.993 75.4477 197.659C76.8143 197.3 78.1036 196.96 79.6309 195.315C81.7333 193.052 84.1759 188.284 82.2775 184.426C79.9803 179.751 72.9804 179.708 72.8506 179.708C70.3215 179.714 69.0476 180.549 67.2884 181.699C65.5508 182.836 63.3865 184.253 59.3146 185.319C57.543 185.783 56.1795 185.984 54.9768 186.16C52.9578 186.457 51.6222 186.652 49.9279 187.938C48.6571 188.899 46.431 190.983 45.7725 194.131C45.3211 196.292 45.9796 197.622 46.8144 199.307C47.7172 201.128 48.8426 203.397 48.7004 207.287L48.6788 207.766C48.6077 209.228 48.5242 211.049 49.6063 212.008C50.2185 212.549 51.1615 212.771 52.4106 212.669C52.4322 212.669 52.4508 212.669 52.4693 212.669Z" fill="#1F1F1F"/>
<path d="M80.679 205.256L80.3605 204.981C78.7559 203.599 77.0863 201.995 76.6596 199.92C74.8478 191.102 66.7689 187.899 66.3979 195.997C66.3051 198.04 58.8415 197.935 59.7257 200.081C62.0353 205.674 62.0848 204.168 58.826 206.23C58.455 206.246 58.0902 206.326 57.7439 206.487C56.0743 207.266 55.4807 209.536 56.4237 211.555C56.9957 212.779 58.0005 213.623 59.0765 213.932V222.769C59.0765 226.08 57.073 229.063 54.009 230.316L51.0254 231.534C51.0254 231.534 64.9386 240.614 79.0558 230.643L77.1698 229.799C73.8523 228.312 71.6725 225.06 71.5581 221.424L71.5427 219.695C72.4919 219.779 73.4101 219.717 74.2604 219.47C78.2086 218.319 79.5226 213.771 78.8486 208.113L80.4564 207.251C81.2108 206.843 81.3221 205.813 80.679 205.256Z" fill="#FFB294"/>
<path d="M64.7807 235.964C56.7142 235.964 50.7439 232.161 50.6511 232.1C50.4378 231.96 50.3203 231.716 50.3451 231.463C50.3698 231.209 50.5306 230.993 50.7655 230.894L53.7491 229.676C56.572 228.522 58.393 225.808 58.393 222.759V214.405C57.2862 213.941 56.3617 213.026 55.8052 211.836C55.2827 210.714 55.1559 209.486 55.4435 208.376C55.7464 207.22 56.4607 206.326 57.4562 205.862C57.8118 205.696 58.2013 205.59 58.6095 205.553C59.1413 205.222 59.5803 204.991 59.9358 204.799C60.2636 204.623 60.6377 204.425 60.6995 204.329C60.7305 204.14 60.3718 203.318 59.9575 202.363C59.7194 201.815 59.4319 201.151 59.0949 200.334C58.9217 199.917 58.9279 199.496 59.1134 199.119C59.5834 198.158 61.0458 197.746 62.737 197.273C63.7697 196.983 65.6928 196.445 65.7144 195.959C65.9247 191.418 68.3178 190.74 69.3381 190.663C72.2444 190.434 76.1091 193.857 77.3242 199.778C77.7107 201.667 79.3215 203.185 80.8025 204.459L81.121 204.734C81.594 205.142 81.8352 205.757 81.7672 206.379C81.6991 207 81.3281 207.548 80.7778 207.844L79.5751 208.491C80.2089 214.758 78.3538 218.984 74.4457 220.119C73.7594 220.32 73.0173 220.419 72.2258 220.406L72.2351 221.411C72.3402 224.747 74.3839 227.799 77.4448 229.172L79.3308 230.016C79.5534 230.115 79.708 230.328 79.7296 230.572C79.7544 230.817 79.6431 231.055 79.4452 231.197C74.3468 234.802 69.2422 235.964 64.7807 235.964ZM52.5928 231.623C56.0989 233.417 66.7688 237.739 77.655 230.758L76.8914 230.415C73.3605 228.832 70.9984 225.307 70.8778 221.436L70.8623 219.692C70.8592 219.5 70.9396 219.315 71.0818 219.185C71.2241 219.055 71.4127 218.987 71.6044 219.006C72.5041 219.086 73.3327 219.018 74.0716 218.805C77.3644 217.846 78.8609 213.975 78.1745 208.184C78.1405 207.906 78.2827 207.634 78.53 207.501L80.1378 206.639C80.2954 206.555 80.3944 206.404 80.416 206.227C80.4346 206.051 80.3696 205.884 80.2336 205.767L79.9152 205.491C78.2641 204.069 76.4647 202.359 75.9916 200.05C74.959 195.02 71.762 191.844 69.4494 192.02C68.055 192.129 67.1923 193.588 67.081 196.021C67.013 197.493 65.0281 198.049 63.1081 198.587C62.0878 198.875 60.5418 199.305 60.344 199.716C60.3409 199.725 60.3316 199.741 60.3594 199.812C60.6934 200.619 60.9778 201.277 61.2128 201.818C62.3073 204.341 62.5701 204.941 60.582 206.002C60.2141 206.2 59.7534 206.444 59.1938 206.799C59.0918 206.864 58.9774 206.901 58.8568 206.904C58.56 206.917 58.2848 206.982 58.0375 207.099C57.416 207.39 56.9646 207.965 56.7698 208.722C56.5596 209.526 56.6585 210.426 57.0481 211.261C57.5119 212.253 58.3405 213.005 59.268 213.27C59.5617 213.354 59.7627 213.623 59.7627 213.926V222.762C59.7627 226.367 57.6077 229.577 54.2686 230.943L52.5928 231.623Z" fill="#FFA37F"/>
<path d="M71.5446 220.372C71.5106 220.372 71.4765 220.369 71.4394 220.363C65.6979 219.482 63.1163 215.098 63.0081 214.912C62.8195 214.584 62.9339 214.167 63.2585 213.978C63.5862 213.79 64.0036 213.901 64.1891 214.229C64.2139 214.269 66.5729 218.236 71.6435 219.012C72.0176 219.071 72.2711 219.417 72.2155 219.791C72.166 220.131 71.8754 220.372 71.5446 220.372Z" fill="#FFA37F"/>
<path d="M478.294 295.045C475.017 308.567 461.261 317.268 447.568 314.48C433.876 311.692 425.429 298.473 428.706 284.955C431.983 271.433 445.739 262.732 459.432 265.52C473.124 268.308 481.571 281.527 478.294 295.045Z" fill="#FFB800"/>
<path d="M453.419 315.735C443.859 315.735 434.565 310.739 429.723 301.989C425.512 294.38 425.876 285.606 430 278C430.179 277.669 430.669 277.821 431 278C431.331 278.179 431.68 278.169 431.5 278.5C427.598 285.695 426.935 294.13 430.917 301.328C437.53 313.277 452.903 317.853 465.18 311.527C471.166 308.442 475.519 303.269 477.433 296.959C479.319 290.75 478.608 284.171 475.433 278.436C468.819 266.486 453.447 261.91 441.169 268.236C440.835 268.412 440.421 268.276 440.251 267.942C440.078 267.608 440.211 267.194 440.545 267.024C453.472 260.361 469.66 265.184 476.629 277.774C479.984 283.834 480.735 290.788 478.741 297.355C476.716 304.021 472.125 309.484 465.805 312.739C461.863 314.771 457.615 315.735 453.419 315.735Z" fill="#FF7A00"/>
<path d="M447.866 303.939L448.666 300.575C446.329 299.981 444.189 298.868 443.036 297.811L445.08 293.887C446.366 295.007 448.271 296.181 450.562 296.658C452.571 297.075 454.133 296.58 454.47 295.164C454.791 293.819 453.864 292.734 451.467 291.312C447.998 289.256 445.847 286.952 446.666 283.52C447.408 280.404 450.175 278.413 454.126 278.45L454.927 275.086L458.381 275.8L457.639 278.917C459.976 279.51 461.445 280.336 462.471 281.143L460.496 284.933C459.673 284.355 458.245 283.205 455.706 282.679C453.415 282.206 452.438 283.044 452.203 284.034C451.925 285.202 452.982 286.201 455.709 287.954C459.55 290.31 460.78 292.607 460.019 295.795C459.268 298.945 456.408 301.178 452.185 301.045L451.325 304.656L447.866 303.939Z" fill="#FF7A00"/>
<path d="M532.575 287.449C535.877 296.718 531.203 307.104 522.134 310.644C513.066 314.181 503.036 309.534 499.734 300.264C496.432 290.992 501.107 280.61 510.175 277.07C519.244 273.53 529.273 278.177 532.575 287.449Z" fill="#FFB800"/>
<path d="M515.871 313.083C513.301 313.083 510.744 312.532 508.342 311.435C503.763 309.345 500.291 305.529 498.569 300.694C495.044 290.8 500.053 279.679 509.737 275.9C515.589 273.616 522.104 274.453 527.156 278.139C527.462 278.362 527.527 278.788 527.304 279.094C527.082 279.397 526.655 279.465 526.349 279.243C521.677 275.832 515.651 275.059 510.231 277.174C501.231 280.687 496.575 291.032 499.855 300.236C501.454 304.722 504.669 308.259 508.908 310.195C513.079 312.099 517.757 312.22 522.073 310.538C531.073 307.026 535.729 296.681 532.449 287.476C532.322 287.121 532.508 286.731 532.863 286.604C533.219 286.478 533.608 286.663 533.735 287.019C537.26 296.912 532.251 308.034 522.568 311.812C520.391 312.659 518.128 313.083 515.871 313.083Z" fill="#FF7A00"/>
<path d="M518.446 304.348L517.618 302.02C515.985 302.574 514.269 302.741 513.165 302.558L512.862 299.411C514.071 299.581 515.67 299.544 517.228 298.935C518.595 298.403 519.337 297.497 518.99 296.517C518.659 295.586 517.683 295.296 515.688 295.376C512.807 295.493 510.621 294.952 509.774 292.575C509.004 290.417 509.888 288.147 512.272 286.629L511.443 284.301L513.793 283.383L514.563 285.541C516.195 284.987 517.398 284.91 518.329 284.994L518.619 288.036C517.899 288.008 516.594 287.875 514.869 288.549C513.311 289.158 513.051 290.039 513.295 290.726C513.583 291.536 514.606 291.721 516.925 291.712C520.147 291.629 521.776 292.528 522.561 294.733C523.337 296.916 522.49 299.367 519.909 300.935L520.799 303.436L518.446 304.348Z" fill="#FF7A00"/>
<path d="M540.954 350.706C545.576 360.48 541.6 372.34 532.074 377.197C522.549 382.054 511.078 378.069 506.459 368.299C501.836 358.526 505.813 346.665 515.338 341.808C524.864 336.951 536.332 340.933 540.954 350.706Z" fill="#FFB800"/>
<path d="M523.532 380.578C521.374 380.578 519.209 380.222 517.107 379.505C511.891 377.724 507.695 373.946 505.293 368.866C500.377 358.468 504.625 345.807 514.763 340.637C520.891 337.512 528.077 337.716 533.982 341.182C534.307 341.373 534.415 341.791 534.226 342.115C534.035 342.44 533.617 342.551 533.293 342.36C527.792 339.132 521.098 338.943 515.388 341.856C505.902 346.691 501.929 358.548 506.533 368.284C508.778 373.03 512.692 376.555 517.555 378.215C522.341 379.848 527.483 379.468 532.034 377.149C541.52 372.31 545.493 360.456 540.889 350.72C540.728 350.38 540.874 349.972 541.214 349.811C541.557 349.65 541.962 349.795 542.123 350.136C547.039 360.53 542.791 373.194 532.653 378.364C529.762 379.835 526.654 380.578 523.532 380.578Z" fill="#FF7A00"/>
<path d="M527.357 370.726L526.197 368.271C524.472 369.053 522.617 369.424 521.389 369.344L520.715 365.937C522.054 365.992 523.798 365.776 525.434 364.941C526.868 364.208 527.582 363.139 527.094 362.106C526.63 361.123 525.529 360.916 523.362 361.219C520.227 361.664 517.778 361.308 516.591 358.801C515.515 356.528 516.235 353.947 518.672 352.03L517.512 349.575L519.98 348.316L521.056 350.589C522.781 349.807 524.086 349.59 525.112 349.578L525.761 352.871C524.973 352.92 523.532 352.917 521.717 353.841C520.079 354.676 519.893 355.669 520.236 356.392C520.638 357.246 521.779 357.338 524.311 357.072C527.824 356.63 529.703 357.434 530.804 359.759C531.892 362.059 531.234 364.833 528.581 366.827L529.827 369.464L527.357 370.726Z" fill="#FF7A00"/>
</svg>
