<svg width="172" height="27" viewBox="0 0 172 27" fill="none" xmlns="http://www.w3.org/2000/svg">
<g id="Group 637">
<g id="Group 563">
<ellipse id="Ellipse 33" cx="12.8571" cy="13.5681" rx="12.8571" ry="12.8571" fill="#5246ED"/>
<path id="Vector" d="M12.8554 11.0692C11.4783 11.0692 10.3544 12.1931 10.3544 13.5703C10.3544 14.9475 11.4783 16.0714 12.8554 16.0714C14.2326 16.0714 15.3564 14.9475 15.3564 13.5703C15.3564 12.1931 14.2326 11.0692 12.8554 11.0692ZM20.3566 13.5703C20.3566 12.5346 20.366 11.5083 20.3078 10.4745C20.2496 9.27366 19.9757 8.20794 19.0976 7.32985C18.2177 6.44988 17.1539 6.17782 15.9531 6.11965C14.9174 6.06149 13.8911 6.07087 12.8573 6.07087C11.8216 6.07087 10.7953 6.06149 9.7615 6.11965C8.56071 6.17782 7.49501 6.45175 6.61693 7.32985C5.73698 8.20982 5.46493 9.27366 5.40676 10.4745C5.3486 11.5102 5.35798 12.5365 5.35798 13.5703C5.35798 14.6041 5.3486 15.6323 5.40676 16.6662C5.46493 17.867 5.73886 18.9327 6.61693 19.8108C7.49689 20.6907 8.56071 20.9628 9.7615 21.021C10.7972 21.0791 11.8235 21.0698 12.8573 21.0698C13.893 21.0698 14.9193 21.0791 15.9531 21.021C17.1539 20.9628 18.2196 20.6889 19.0976 19.8108C19.9776 18.9308 20.2496 17.867 20.3078 16.6662C20.3678 15.6323 20.3566 14.606 20.3566 13.5703ZM12.8554 17.4185C10.7259 17.4185 9.00725 15.6999 9.00725 13.5703C9.00725 11.4407 10.7259 9.72209 12.8554 9.72209C14.9849 9.72209 16.7036 11.4407 16.7036 13.5703C16.7036 15.6999 14.9849 17.4185 12.8554 17.4185ZM16.8612 10.4632C16.364 10.4632 15.9624 10.0617 15.9624 9.56448C15.9624 9.06727 16.364 8.66575 16.8612 8.66575C17.3584 8.66575 17.7599 9.06727 17.7599 9.56448C17.76 9.68255 17.7369 9.79948 17.6918 9.90859C17.6467 10.0177 17.5805 10.1168 17.497 10.2003C17.4135 10.2838 17.3144 10.35 17.2053 10.3951C17.0962 10.4402 16.9792 10.4634 16.8612 10.4632Z" fill="white"/>
</g>
<g id="Group 562">
<ellipse id="Ellipse 34" cx="49.2849" cy="12.8571" rx="12.8571" ry="12.8571" fill="#5246ED"/>
<path id="Vector_2" d="M56.7851 7.95177C56.2235 8.2142 55.6278 8.38637 55.0178 8.46255C55.6603 8.05705 56.1411 7.41896 56.3706 6.66721C55.7667 7.04537 55.1058 7.31167 54.4166 7.45454C54.1287 7.13061 53.7807 6.87251 53.3943 6.69622C53.008 6.51993 52.5914 6.42921 52.1704 6.42969C50.471 6.42969 49.093 7.88273 49.093 9.67561C49.093 9.92977 49.1203 10.1778 49.1729 10.4155C46.6152 10.2801 44.3477 8.98772 42.8299 7.02369C42.5562 7.51907 42.4124 8.08233 42.4132 8.65569C42.4128 9.1901 42.5375 9.71635 42.7764 10.1877C43.0152 10.659 43.3607 11.0608 43.7822 11.3573C43.2936 11.341 42.8158 11.2018 42.3884 10.9513C42.3881 10.9649 42.3881 10.9783 42.3881 10.9922C42.3881 12.5644 43.4487 13.8763 44.8563 14.1749C44.4031 14.3043 43.9279 14.3233 43.4666 14.2303C43.8582 15.5196 44.9946 16.4584 46.3413 16.4847C45.2512 17.387 43.905 17.8764 42.5193 17.8742C42.271 17.8742 42.0261 17.859 41.7852 17.8288C43.1922 18.7824 44.8299 19.2886 46.5024 19.2868C52.1628 19.2868 55.2581 14.3411 55.2581 10.0522C55.2581 9.91169 55.255 9.77136 55.2492 9.63185C55.852 9.17282 56.3721 8.60385 56.7851 7.95177Z" fill="white"/>
</g>
<g id="Group 561">
<circle id="Ellipse 35" cx="85.7146" cy="12.8571" r="12.8571" fill="#5246ED"/>
<path id="Vector_3" d="M92.9018 9.1423C92.8164 8.82428 92.649 8.53427 92.4163 8.30129C92.1836 8.0683 91.8938 7.90052 91.5759 7.81473C90.4057 7.5 85.7148 7.5 85.7148 7.5C85.7148 7.5 81.024 7.5 79.8538 7.81306C79.5357 7.89857 79.2458 8.06626 79.0131 8.29929C78.7803 8.53231 78.613 8.82247 78.5279 9.14063C78.2148 10.3125 78.2148 12.7567 78.2148 12.7567C78.2148 12.7567 78.2148 15.2009 78.5279 16.3711C78.7003 17.0173 79.2093 17.5262 79.8538 17.6987C81.024 18.0134 85.7148 18.0134 85.7148 18.0134C85.7148 18.0134 90.4057 18.0134 91.5759 17.6987C92.2221 17.5262 92.7294 17.0173 92.9018 16.3711C93.2148 15.2009 93.2148 12.7567 93.2148 12.7567C93.2148 12.7567 93.2148 10.3125 92.9018 9.1423ZM84.2249 15V10.5134L88.1088 12.74L84.2249 15Z" fill="white"/>
</g>
<g id="Group 560">
<ellipse id="Ellipse 36" cx="122.142" cy="12.8571" rx="12.8571" ry="12.8571" fill="#5246ED"/>
<path id="Vector_4" d="M119.771 20.3605V13.8429H117.856V10.8019H119.771V8.20451C119.771 6.16344 120.902 4.28906 123.508 4.28906C124.563 4.28906 125.343 4.40705 125.343 4.40705L125.282 7.24684C125.282 7.24684 124.486 7.2378 123.618 7.2378C122.678 7.2378 122.527 7.74297 122.527 8.58143V10.8019H125.356L125.233 13.8429H122.527V20.3605H119.771Z" fill="white"/>
</g>
<g id="Group 559">
<ellipse id="Ellipse 37" cx="158.572" cy="12.8571" rx="12.8571" ry="12.8571" fill="#5246ED"/>
<path id="Vector_5" fill-rule="evenodd" clip-rule="evenodd" d="M156.644 10.5861H159.43V11.9736C159.831 11.1756 160.86 10.4586 162.406 10.4586C165.369 10.4586 166.072 12.0471 166.072 14.9616V20.3594H163.072V15.6254C163.072 13.9656 162.671 13.0296 161.65 13.0296C160.233 13.0296 159.644 14.0384 159.644 15.6246V20.3594H156.644V10.5861ZM151.5 20.2319H154.5V10.4586H151.5V20.2319ZM154.93 7.27188C154.93 7.52333 154.88 7.7723 154.783 8.00432C154.686 8.23633 154.544 8.44676 154.365 8.62338C154.002 8.98384 153.511 9.18562 153 9.18438C152.489 9.18403 151.999 8.98277 151.636 8.62413C151.458 8.44691 151.316 8.23624 151.22 8.0042C151.123 7.77215 151.073 7.52329 151.072 7.27188C151.072 6.76413 151.275 6.27813 151.637 5.91963C152 5.56049 152.49 5.35915 153.001 5.35938C153.512 5.35938 154.003 5.56113 154.365 5.91963C154.726 6.27813 154.93 6.76413 154.93 7.27188Z" fill="white"/>
</g>
</g>
</svg>
