<svg width="55" height="55" viewBox="0 0 55 55" fill="none" xmlns="http://www.w3.org/2000/svg">
<g id="Group 1000004850">
<mask id="mask0_3620_14530" style="mask-type:alpha" maskUnits="userSpaceOnUse" x="0" y="0" width="55" height="55">
<rect id="Rectangle 4154" width="55" height="55" fill="#D9D9D9"/>
</mask>
<g mask="url(#mask0_3620_14530)">
<path id="Shape" opacity="0.3" fill-rule="evenodd" clip-rule="evenodd" d="M27.1651 10C17.1317 10 9 18.0578 9 28C9 37.9422 17.1317 46 27.1651 46C37.1985 46 45.3303 37.9422 45.3303 28C45.3303 18.0578 37.1985 10 27.1651 10Z" fill="#B1B1F5"/>
<g id="circle-heart">
<path id="Shape_2" d="M26.3367 32.86L25.6243 33.5617L25.6272 33.5646L26.3367 32.86ZM28.6428 32.86L29.3524 33.5646L29.3553 33.5617L28.6428 32.86ZM33.8495 27.5736L33.1518 26.8573L33.1444 26.8645L33.1371 26.8719L33.8495 27.5736ZM33.8495 22.135L33.1397 22.8393L33.1409 22.8405L33.8495 22.135ZM28.3968 22.135L27.6882 21.4294L27.687 21.4306L28.3968 22.135ZM27.4898 23.049L26.78 23.7534L27.4898 24.4687L28.1996 23.7534L27.4898 23.049ZM26.5827 22.135L27.2925 21.4306L27.2913 21.4294L26.5827 22.135ZM21.13 22.135L21.8387 22.8405L21.8399 22.8393L21.13 22.135ZM21.13 27.5736L21.8425 26.8719L21.8352 26.8645L21.8278 26.8573L21.13 27.5736ZM25.6272 33.5646C26.1436 34.0846 26.8242 34.3373 27.4898 34.3373V32.3373C27.3251 32.3373 27.1653 32.2751 27.0462 32.1553L25.6272 33.5646ZM27.4898 34.3373C28.1553 34.3373 28.8359 34.0846 29.3524 33.5646L27.9333 32.1553C27.8143 32.2751 27.6544 32.3373 27.4898 32.3373V34.3373ZM29.3553 33.5617L34.562 28.2754L33.1371 26.8719L27.9304 32.1582L29.3553 33.5617ZM34.5473 28.29C36.463 26.4239 36.4473 23.3268 34.5582 21.4294L33.1409 22.8405C34.2652 23.9697 34.2494 25.7882 33.1518 26.8573L34.5473 28.29ZM34.5594 21.4306C32.666 19.5225 29.5851 19.5242 27.6882 21.4294L29.1055 22.8405C30.222 21.7192 32.03 21.7209 33.1397 22.8393L34.5594 21.4306ZM27.687 21.4306L26.78 22.3446L28.1996 23.7534L29.1067 22.8393L27.687 21.4306ZM28.1996 22.3446L27.2925 21.4306L25.8729 22.8393L26.78 23.7534L28.1996 22.3446ZM27.2913 21.4294C25.3945 19.5242 22.3135 19.5225 20.4201 21.4306L21.8399 22.8393C22.9496 21.7209 24.7576 21.7192 25.874 22.8405L27.2913 21.4294ZM20.4213 21.4294C18.5323 23.3268 18.5165 26.4239 20.4322 28.29L21.8278 26.8573C20.7301 25.7882 20.7144 23.9697 21.8387 22.8405L20.4213 21.4294ZM20.4175 28.2754L25.6243 33.5617L27.0492 32.1582L21.8425 26.8719L20.4175 28.2754Z" fill="#5246ED"/>
</g>
</g>
</g>
</svg>
