<svg width="371" height="363" viewBox="0 0 371 363" fill="none" xmlns="http://www.w3.org/2000/svg">
<path d="M361.747 43.0538H337.679C337.679 43.0538 329.909 42.7934 334.742 37.9218C334.742 37.9218 336.768 36.1315 339.857 37.9218C339.857 37.9218 338.546 34.9163 343.141 32.4317C343.141 32.4317 347.324 30.2291 352.395 31.8783C352.395 31.8783 357.521 33.3539 357.261 37.1623C357.261 37.1623 361.823 35.8277 363.687 38.844C365.995 42.5873 361.747 43.0538 361.747 43.0538ZM53.4709 87.1048H35.926C35.926 87.1048 30.2584 86.9421 33.7803 83.8932C33.7803 83.8932 34.6148 83.2639 35.9802 83.4158C36.6629 83.4918 37.3023 83.1554 37.4866 82.6238C37.7033 81.9728 38.3318 81.1699 39.8923 80.4429C39.8923 80.4429 42.9483 79.065 46.6329 80.0957C46.6329 80.0957 49.0387 80.6925 49.8948 82.1572C50.2632 82.7974 51.0435 83.2097 51.9104 83.2205C52.9399 83.2314 54.1645 83.4809 54.8689 84.4574C56.5594 86.8119 53.4709 87.1048 53.4709 87.1048Z" fill="#E0E0E0"/>
<path d="M345.166 299.103C358.213 274.712 370.329 249.887 370.947 224.173C371.358 207.399 369.765 187.098 350.79 173.406C326.786 156.089 289.323 172.494 262.632 160.7C250.56 155.373 246.073 145.347 239.647 137.807C231.476 128.204 221.376 118.895 204.991 113.383C178.375 104.432 140.826 102.24 117.331 115.412C87.6708 132.035 95.2566 155.503 91.4962 176.878C87.7033 198.426 48.4413 206.064 39.2408 226.006C28.8157 248.596 43.749 276.904 57.6635 298.029C61.0663 303.204 291.101 297.909 345.166 299.103Z" fill="#EAF5E1"/>
<path d="M94.1412 294.468C113.171 294.566 141.368 295.607 142.17 272.41C142.517 262.352 132.124 257.893 133.858 247.759C135.224 239.773 145.671 230.562 138.323 223.184C132.937 217.78 123.173 219.288 117.798 214.08C111.025 207.527 112.033 193.465 106.56 185.762C92.8516 166.471 73.161 179.881 66.518 196.102C57.1116 219.082 57.0033 208.569 35.2645 218.702C23.9291 223.986 29.3801 243.169 39.8702 253.52C46.1664 259.737 48.3554 260.876 45.3861 269.253C42.9478 276.142 32.8045 281.947 42.2109 289.499C47.4452 293.698 51.1622 293.893 57.3392 294.012C69.6066 294.229 81.8739 294.403 94.1412 294.468Z" fill="#88A484"/>
<path d="M119.218 254.942C119.012 254.844 118.752 254.909 118.644 255.104C118.557 255.256 114.775 261.951 109.411 268.906C109.4 268.884 109.378 268.862 109.357 268.84C105.509 265.227 111.188 251.177 111.242 251.036C111.329 250.829 111.221 250.602 110.993 250.515C110.776 250.439 110.527 250.536 110.44 250.743C110.191 251.339 104.512 265.423 108.75 269.405C108.804 269.459 108.869 269.491 108.934 269.502C102.605 277.586 94.2283 285.766 87.1627 284.171C87.1193 284.161 87.076 284.161 87.0326 284.161V241.162C90.9556 239.99 95.312 233.752 98.6281 227.925C98.834 228.001 99.0507 228.034 99.2783 228.034C100.73 228.034 102.714 226.591 105.282 223.661C107.514 221.122 109.389 218.345 109.4 218.312C109.53 218.128 109.465 217.878 109.27 217.759C109.075 217.639 108.804 217.694 108.685 217.889C106.019 221.86 101.175 227.697 99.0399 227.209C101.857 222.175 103.83 217.639 104.014 217.227C104.101 217.021 104.003 216.793 103.776 216.706C103.559 216.619 103.31 216.717 103.223 216.923C103.136 217.14 94.1091 237.788 87.0434 240.316V210.316C87.0434 210.099 86.8484 209.914 86.6208 209.914C86.3824 209.914 86.1982 210.088 86.1982 210.316V251.09C79.1434 250.45 73.3998 243.951 69.8237 238.612C69.7261 238.471 69.6394 238.33 69.5419 238.189C71.2975 237.169 71.7201 233.285 70.8207 226.352C70.1271 220.97 68.8483 215.654 68.8375 215.599C68.7833 215.382 68.5557 215.252 68.3282 215.296C68.1006 215.35 67.9597 215.556 68.0031 215.773C69.8778 223.531 71.7526 235.965 69.0976 237.495C65.619 232.026 63.6358 226.927 63.625 226.873C63.5491 226.666 63.2999 226.558 63.0831 226.634C62.8664 226.71 62.7472 226.938 62.823 227.144C62.8447 227.198 65.1205 233.068 69.0976 239.003C71.4384 242.497 73.8983 245.339 76.4233 247.444C79.6094 250.102 82.8929 251.589 86.1982 251.871H86.209V278.638C86.1332 278.616 86.0465 278.605 85.9706 278.627C74.4293 281.199 61.5226 252.793 61.3926 252.5C61.3059 252.294 61.0566 252.197 60.8399 252.283C60.6232 252.37 60.5256 252.609 60.6123 252.804C60.6448 252.88 63.9392 260.171 68.6641 267.05C70.203 269.296 71.7201 271.238 73.1939 272.887C64.817 274.645 58.705 265.412 58.64 265.314C58.5208 265.13 58.2607 265.065 58.0548 265.184C57.8489 265.303 57.7947 265.542 57.9139 265.737C57.979 265.835 59.5828 268.276 62.3137 270.479C65.1313 272.746 68.1114 273.907 71.0591 273.907C71.9477 273.907 72.8363 273.799 73.7141 273.593L73.8116 273.56C77.5937 277.586 81.159 279.614 84.4534 279.614C85.0278 279.614 85.5913 279.549 86.144 279.43C86.1548 279.43 86.1765 279.419 86.1873 279.419V294.891C86.5016 295 86.7834 295.152 87.0434 295.336V284.953C87.672 285.094 88.3222 285.159 88.9941 285.159C91.7683 285.159 94.8352 283.965 98.1512 281.611C101.402 279.289 104.913 275.828 108.565 271.325C114.775 263.676 119.359 255.549 119.402 255.462C119.511 255.289 119.435 255.05 119.218 254.942Z" fill="#6E856B"/>
<path d="M321.64 300.361C336.129 300.437 357.597 301.229 358.204 283.565C358.464 275.905 350.553 272.509 351.875 264.795C352.915 258.719 360.87 251.699 355.278 246.079C351.182 241.956 343.747 243.116 339.651 239.156C334.493 234.165 335.262 223.456 331.09 217.597C320.654 202.917 305.656 213.116 300.606 225.464C293.443 242.965 293.356 234.957 276.808 242.672C268.171 246.697 272.332 261.301 280.308 269.189C285.098 273.93 286.767 274.788 284.513 281.167C282.649 286.408 274.933 290.824 282.096 296.585C286.084 299.786 288.913 299.938 293.616 300.014C302.957 300.177 312.299 300.318 321.64 300.361Z" fill="#88A484"/>
<path d="M340.733 270.275C340.571 270.199 340.376 270.253 340.3 270.405C340.235 270.514 337.352 275.624 333.267 280.908C333.256 280.886 333.245 280.876 333.223 280.865C330.297 278.12 334.61 267.411 334.654 267.302C334.719 267.15 334.632 266.966 334.469 266.912C334.307 266.847 334.112 266.933 334.047 267.085C333.863 267.541 329.528 278.261 332.757 281.299C332.801 281.342 332.844 281.364 332.898 281.375C328.076 287.527 321.704 293.755 316.329 292.539C316.296 292.529 316.264 292.528 316.231 292.528V259.794C319.211 258.904 322.527 254.152 325.063 249.714C325.215 249.769 325.377 249.801 325.562 249.801C326.667 249.801 328.173 248.705 330.135 246.47C331.836 244.539 333.256 242.423 333.277 242.401C333.375 242.26 333.332 242.076 333.18 241.978C333.028 241.892 332.833 241.935 332.736 242.076C330.709 245.103 327.014 249.541 325.388 249.172C327.534 245.342 329.04 241.881 329.17 241.577C329.235 241.425 329.159 241.241 328.997 241.175C328.834 241.11 328.639 241.186 328.574 241.338C328.509 241.501 321.639 257.223 316.253 259.143V236.304C316.253 236.13 316.112 236 315.928 236C315.743 236 315.602 236.141 315.602 236.304V267.356C310.227 266.868 305.86 261.921 303.129 257.852C303.053 257.743 302.988 257.635 302.912 257.526C304.256 256.745 304.571 253.783 303.888 248.521C303.357 244.42 302.381 240.383 302.371 240.34C302.327 240.177 302.154 240.069 301.981 240.112C301.807 240.145 301.699 240.307 301.731 240.481C303.162 246.383 304.592 255.856 302.566 257.016C299.922 252.85 298.415 248.977 298.394 248.933C298.328 248.77 298.144 248.694 297.982 248.749C297.808 248.803 297.722 248.977 297.787 249.139C297.808 249.183 299.531 253.653 302.566 258.177C304.343 260.836 306.229 263.006 308.147 264.601C310.574 266.63 313.077 267.758 315.581 267.975H315.592V288.351C315.537 288.33 315.472 288.33 315.407 288.34C306.63 290.272 296.811 268.637 296.714 268.42C296.649 268.268 296.454 268.192 296.291 268.257C296.129 268.322 296.053 268.496 296.118 268.659C296.139 268.713 298.654 274.268 302.251 279.508C303.422 281.223 304.581 282.698 305.698 283.946C299.325 285.281 294.666 278.261 294.611 278.185C294.514 278.044 294.319 278 294.167 278.087C294.015 278.174 293.961 278.358 294.059 278.51C294.113 278.586 295.327 280.442 297.407 282.123C299.553 283.849 301.818 284.738 304.072 284.738C304.755 284.738 305.427 284.662 306.099 284.5C306.12 284.489 306.142 284.489 306.164 284.478C309.046 287.548 311.755 289.089 314.27 289.089C314.703 289.089 315.136 289.046 315.559 288.948C315.57 288.948 315.581 288.937 315.592 288.937V300.796H316.242V293.136C316.719 293.245 317.217 293.299 317.726 293.299C319.84 293.299 322.18 292.398 324.695 290.597C327.176 288.829 329.842 286.192 332.627 282.764C337.352 276.937 340.842 270.753 340.874 270.687C340.95 270.536 340.896 270.351 340.733 270.275Z" fill="#6E856B"/>
<path d="M203.377 320.319C286.078 320.319 353.121 313.217 353.121 304.456C353.121 295.696 286.078 288.594 203.377 288.594C120.675 288.594 53.6328 295.696 53.6328 304.456C53.6328 313.217 120.675 320.319 203.377 320.319Z" fill="#C7DEC3"/>
<path d="M106.951 313.597H91.9958C91.9308 313.597 91.8658 313.575 91.8658 313.532C91.8116 313.054 91.2914 309.94 85.9488 307.781C85.8513 307.738 85.9055 307.662 86.0247 307.662C86.9783 307.651 89.9151 307.857 94.0331 310.461C94.109 310.515 94.2715 310.483 94.2607 310.418C94.1523 309.821 93.7405 308.085 92.2451 306.902C92.1692 306.837 92.3101 306.772 92.4293 306.815C93.6647 307.228 96.6015 308.345 97.5443 309.745C97.5876 309.81 97.7935 309.799 97.7935 309.723C97.826 308.595 98.1403 306.121 100.188 304.559C100.264 304.504 100.438 304.537 100.427 304.602C100.254 305.622 99.7442 309.495 101.738 310.602C101.814 310.645 101.944 310.624 101.966 310.57C102.128 310.038 102.941 308.031 105.889 307.39C106.008 307.369 106.116 307.434 106.051 307.488C105.488 307.922 104.166 309.148 104.924 310.624C104.957 310.689 105.141 310.689 105.173 310.624C105.401 310.244 106.149 309.506 108.717 308.985C108.836 308.964 108.945 309.029 108.88 309.083C108.208 309.669 106.073 311.752 107.081 313.51C107.102 313.553 107.037 313.597 106.951 313.597Z" fill="#88A484"/>
<path d="M72.4993 296.394H87.4542C87.5192 296.394 87.5842 296.372 87.5842 296.328C87.6384 295.851 88.1586 292.737 93.5011 290.578C93.5987 290.535 93.5445 290.459 93.4253 290.459C92.4716 290.448 89.5348 290.654 85.4168 293.258C85.341 293.312 85.1784 293.28 85.1893 293.215C85.2976 292.618 85.7094 290.882 87.2049 289.699C87.2808 289.634 87.1399 289.569 87.0207 289.612C85.7853 290.025 82.8485 291.142 81.9057 292.542C81.8623 292.607 81.6564 292.596 81.6564 292.52C81.6239 291.392 81.3097 288.918 79.2615 287.356C79.1856 287.301 79.0122 287.334 79.0231 287.399C79.1965 288.419 79.7058 292.292 77.7118 293.399C77.636 293.442 77.5059 293.421 77.4842 293.366C77.3217 292.835 76.5089 290.828 73.5613 290.187C73.4421 290.166 73.3337 290.231 73.3987 290.285C73.9623 290.719 75.2844 291.945 74.5258 293.421C74.4933 293.486 74.309 293.486 74.2765 293.421C74.049 293.041 73.3012 292.303 70.7329 291.782C70.6137 291.761 70.5053 291.826 70.5703 291.88C71.2422 292.466 73.3771 294.549 72.3692 296.307C72.3476 296.35 72.4126 296.394 72.4993 296.394Z" fill="#6E856B"/>
<path d="M77.6367 298.034H63.9714C63.9063 298.034 63.8522 298.013 63.8522 297.98C63.8088 297.546 63.332 294.703 58.4446 292.729C58.3579 292.696 58.4012 292.62 58.5096 292.62C59.3765 292.609 62.0641 292.805 65.8245 295.181C65.9003 295.224 66.0412 295.202 66.0304 295.137C65.9328 294.584 65.5535 293 64.1881 291.926C64.1231 291.871 64.2423 291.806 64.3507 291.839C65.4777 292.219 68.1652 293.228 69.0213 294.519C69.0647 294.584 69.2489 294.562 69.2489 294.497C69.2814 293.466 69.5632 291.21 71.438 289.777C71.503 289.723 71.6655 289.756 71.6547 289.821C71.503 290.743 71.0262 294.291 72.8468 295.3C72.9118 295.333 73.0418 295.322 73.0527 295.267C73.2044 294.79 73.9521 292.946 76.6288 292.36C76.7372 292.338 76.8456 292.403 76.7805 292.446C76.2604 292.848 75.0575 293.965 75.751 295.311C75.7836 295.365 75.9461 295.376 75.9786 295.311C76.1845 294.964 76.8781 294.291 79.2188 293.814C79.3272 293.792 79.4247 293.846 79.3706 293.9C78.7529 294.443 76.8022 296.342 77.7342 297.947C77.7667 298.002 77.7125 298.034 77.6367 298.034Z" fill="#799175"/>
<path d="M306.414 312.671H318.779C318.833 312.671 318.888 312.649 318.888 312.616C318.931 312.226 319.354 309.643 323.775 307.864C323.851 307.832 323.818 307.766 323.71 307.766C322.93 307.756 320.492 307.929 317.089 310.088C317.024 310.132 316.894 310.099 316.894 310.045C316.98 309.546 317.327 308.114 318.563 307.137C318.628 307.083 318.508 307.029 318.411 307.061C317.392 307.408 314.965 308.32 314.184 309.492C314.141 309.546 313.979 309.535 313.979 309.47C313.957 308.537 313.697 306.486 311.995 305.195C311.93 305.152 311.789 305.173 311.8 305.228C311.941 306.063 312.364 309.275 310.717 310.186C310.652 310.219 310.543 310.208 310.532 310.164C310.392 309.73 309.72 308.059 307.292 307.539C307.195 307.517 307.097 307.571 307.162 307.615C307.628 307.973 308.723 308.992 308.094 310.208C308.062 310.262 307.921 310.262 307.888 310.208C307.704 309.893 307.075 309.285 304.951 308.851C304.854 308.83 304.767 308.884 304.821 308.927C305.374 309.416 307.14 311.13 306.306 312.595C306.284 312.638 306.339 312.671 306.414 312.671Z" fill="#88A484"/>
<path d="M334.124 302.16H352.221C352.308 302.16 352.373 302.128 352.373 302.084C352.427 301.509 353.067 297.744 359.525 295.13C359.645 295.086 359.58 294.989 359.439 294.989C358.29 294.978 354.736 295.227 349.751 298.385C349.653 298.45 349.458 298.406 349.469 298.33C349.599 297.603 350.097 295.509 351.907 294.077C352.005 294.001 351.831 293.914 351.69 293.969C350.195 294.468 346.64 295.813 345.503 297.517C345.448 297.603 345.199 297.582 345.199 297.495C345.167 296.128 344.776 293.133 342.306 291.245C342.219 291.18 342.002 291.213 342.013 291.3C342.219 292.526 342.837 297.213 340.431 298.558C340.344 298.612 340.182 298.591 340.16 298.515C339.965 297.875 338.979 295.444 335.413 294.663C335.272 294.631 335.132 294.717 335.218 294.782C335.901 295.314 337.494 296.79 336.584 298.569C336.54 298.645 336.324 298.645 336.28 298.569C336.009 298.103 335.099 297.224 331.989 296.583C331.848 296.551 331.718 296.627 331.794 296.692C332.607 297.408 335.186 299.914 333.972 302.052C333.94 302.106 334.015 302.16 334.124 302.16Z" fill="#799175"/>
<path d="M293.859 107.49V109.921H285.113V107.49H293.859ZM293.863 70.5938V73.0241H285.118V70.5938H293.863Z" fill="#8F4B48"/>
<path d="M313.793 123.819C313.793 129.982 308.765 135.016 302.609 135.016H302.057C295.901 135.016 290.873 129.982 290.873 123.819V56.6034C290.873 50.4406 295.901 45.4062 302.057 45.4062H302.609C308.765 45.4062 313.793 50.4406 313.793 56.6034V123.819Z" fill="#8F4B48"/>
<path d="M286.755 296.824C286.755 298.799 285.357 300.404 283.656 300.404H117.332C115.63 300.404 114.232 298.788 114.232 296.824V31.5414C114.232 29.5667 115.63 27.9609 117.332 27.9609H283.645C285.347 27.9609 286.745 29.5776 286.745 31.5414V296.824H286.755Z" fill="#FCD497"/>
<path d="M244.514 217.125H269.471V258.583H244.514V217.125Z" fill="white"/>
<path d="M245.934 218.984H268.062V256.721H245.934V218.984Z" fill="#AEC1E6"/>
<path d="M249.911 218.984L245.934 223.227V235.704L261.658 218.984H249.911ZM268.062 218.984H266.795L245.934 241.173V246.153L268.062 222.619V218.984ZM268.062 244.2L256.294 256.721H261.615L268.062 249.853V244.2ZM268.062 252.739L264.28 256.721H266.61L268.062 255.191V252.739Z" fill="#D7E2F8"/>
<path d="M243.322 258.125H270.664V260.903H243.322V258.125Z" fill="#8F4B48"/>
<path d="M245.934 226.543V225.046H268.063V226.543H245.934ZM252.674 134.844H277.631V176.302H252.674V134.844Z" fill="white"/>
<path d="M254.082 136.703H276.211V174.439H254.082V136.703Z" fill="#AEC1E6"/>
<path d="M258.07 136.703L254.082 140.956V153.434L269.806 136.703H258.07ZM276.211 136.703H274.943L254.082 158.891V163.872L276.211 140.338V136.703ZM276.211 161.919L264.442 174.439H269.763L276.211 167.571V161.919ZM276.211 170.457L272.44 174.439H274.77L276.211 172.92V170.457Z" fill="#D7E2F8"/>
<path d="M251.482 175.836H278.835V178.614H251.482V175.836Z" fill="#8F4B48"/>
<path d="M254.088 144.264V142.766H276.216V144.264H254.088ZM252.674 53.75H277.631V95.2079H252.674V53.75Z" fill="white"/>
<path d="M254.082 55.6094H276.211V93.3457H254.082V55.6094Z" fill="#AEC1E6"/>
<path d="M258.07 55.6094L254.082 59.8626V72.3401L269.806 55.6094H258.07ZM276.211 55.6094H274.943L254.082 77.7976V82.7778L276.211 59.2441V55.6094ZM276.211 80.8248L264.442 93.3457H269.763L276.211 86.4885V80.8248ZM276.211 89.3637L272.44 93.3457H274.77L276.211 91.8267V89.3637Z" fill="#D7E2F8"/>
<path d="M251.482 94.7422H278.835V97.5198H251.482V94.7422Z" fill="#8F4B48"/>
<path d="M254.087 63.1692V61.6719H276.216V63.1692H254.087ZM123 134.841H147.957V176.298H123V134.841Z" fill="white"/>
<path d="M124.408 136.703H146.537V174.439H124.408V136.703Z" fill="#AEC1E6"/>
<path d="M128.396 136.703L124.408 140.956V153.434L140.133 136.703H128.396ZM146.548 136.703H145.269L124.408 158.891V163.872L146.548 140.338V136.703ZM146.548 161.919L134.768 174.439H140.089L146.548 167.571V161.919ZM146.548 170.457L142.766 174.439H145.096L146.548 172.92V170.457Z" fill="#D7E2F8"/>
<path d="M121.809 175.836H149.15V178.614H121.809V175.836Z" fill="#8F4B48"/>
<path d="M124.414 144.264V142.767H146.543V144.264H124.414ZM123 53.75H147.957V95.2079H123V53.75Z" fill="white"/>
<path d="M124.408 55.6094H146.537V93.3457H124.408V55.6094Z" fill="#AEC1E6"/>
<path d="M128.396 55.6094L124.408 59.8626V72.3401L140.133 55.6094H128.396ZM146.548 55.6094H145.269L124.408 77.7976V82.7778L146.548 59.2441V55.6094ZM146.548 80.8248L134.768 93.3457H140.089L146.548 86.4885V80.8248ZM146.548 89.3637L142.766 93.3457H145.096L146.548 91.8267V89.3637Z" fill="#D7E2F8"/>
<path d="M121.809 94.7422H149.15V97.5198H121.809V94.7422Z" fill="#8F4B48"/>
<path d="M124.414 63.1692V61.6719H146.543V63.1692H124.414Z" fill="white"/>
<path d="M291.241 31.7777C291.241 32.7 289.843 33.4486 288.142 33.4486H112.834C111.132 33.4486 109.734 32.7 109.734 31.7777V25.6475C109.734 24.7252 111.132 23.9766 112.834 23.9766H288.142C289.843 23.9766 291.241 24.7252 291.241 25.6475V31.7777Z" fill="#8F4B48"/>
<path d="M133.543 217.125H158.5V258.583H133.543V217.125Z" fill="white"/>
<path d="M134.953 218.984H157.082V256.721H134.953V218.984Z" fill="#AEC1E6"/>
<path d="M138.941 218.984L134.953 223.227V235.704L150.677 218.984H138.941ZM157.093 218.984H155.814L134.953 241.173V246.153L157.093 222.619V218.984ZM157.093 244.2L145.313 256.721H150.634L157.093 249.853V244.2ZM157.093 252.739L153.311 256.721H155.641L157.093 255.191V252.739Z" fill="#D7E2F8"/>
<path d="M132.352 258.125H159.693V260.903H132.352V258.125Z" fill="#8F4B48"/>
<path d="M134.953 226.286V224.789H157.082V226.286H134.953Z" fill="white"/>
<path d="M157.461 0C154.773 0 152.562 2.1483 152.562 4.774V200.931C152.562 203.557 154.762 205.705 157.461 205.705H243.527C246.215 205.705 248.425 203.557 248.425 200.931V4.774C248.425 2.1483 246.226 0 243.527 0H157.461Z" fill="#FF9E8A"/>
<path d="M239.139 204.775H161.851C158.817 204.775 156.346 202.366 156.346 199.404V11.3083C156.346 8.3462 158.817 5.9375 161.851 5.9375H239.139C242.174 5.9375 244.645 8.3462 244.645 11.3083V199.415C244.645 202.366 242.174 204.775 239.139 204.775ZM161.851 8.3245C160.16 8.3245 158.795 9.65905 158.795 11.3083V199.415C158.795 201.064 160.171 202.398 161.851 202.398H239.139C240.83 202.398 242.195 201.064 242.195 199.415V11.3083C242.195 9.65905 240.819 8.3245 239.139 8.3245H161.851Z" fill="white"/>
<path d="M291.241 206.645C291.241 207.567 289.843 208.316 288.142 208.316H112.834C111.132 208.316 109.734 207.567 109.734 206.645V200.515C109.734 199.592 111.132 198.844 112.834 198.844H288.142C289.843 198.844 291.241 199.592 291.241 200.515V206.645ZM169.5 221.195H231.487V298.642H169.5V221.195Z" fill="#8F4B48"/>
<path d="M174.096 224.891H226.893V298.649H174.096V224.891Z" fill="#A85855"/>
<path d="M198.879 223.578H202.108V298.649H198.879V223.578Z" fill="#8F4B48"/>
<path d="M205.393 262.5C206.279 262.5 206.997 261.8 206.997 260.937C206.997 260.075 206.279 259.375 205.393 259.375C204.507 259.375 203.789 260.075 203.789 260.937C203.789 261.8 204.507 262.5 205.393 262.5Z" fill="white"/>
<path d="M195.596 262.5C196.482 262.5 197.2 261.8 197.2 260.937C197.2 260.075 196.482 259.375 195.596 259.375C194.71 259.375 193.992 260.075 193.992 260.937C193.992 261.8 194.71 262.5 195.596 262.5Z" fill="white"/>
<path d="M291.241 298.942C291.241 299.864 289.843 300.613 288.142 300.613H112.834C111.132 300.613 109.734 299.864 109.734 298.942V292.812C109.734 291.889 111.132 291.141 112.834 291.141H288.142C289.843 291.141 291.241 291.889 291.241 292.812V298.942Z" fill="#8F4B48"/>
<path d="M205.891 44.8984H236.57V95.8717H205.891V44.8984Z" fill="white"/>
<path d="M207.625 47.1875H234.836V93.5821H207.625V47.1875Z" fill="#AEC1E6"/>
<path d="M212.523 47.1875L207.625 52.4064V67.7483L226.958 47.1875H212.523ZM234.836 47.1875H233.276L207.625 74.4536V80.5838L234.836 51.6469V47.1875ZM234.836 78.186L220.369 93.5821H226.904L234.836 85.1408V78.186ZM234.836 88.6888L230.198 93.5821H233.059L234.836 91.7051V88.6888Z" fill="#D7E2F8"/>
<path d="M204.418 95.3047H238.045V98.7224H204.418V95.3047Z" fill="#8F4B48"/>
<path d="M207.632 56.476V54.6315H234.843V56.476H207.632ZM164.906 44.8984H195.585V95.8717H164.906V44.8984Z" fill="white"/>
<path d="M166.65 47.1875H193.862V93.5821H166.65V47.1875Z" fill="#AEC1E6"/>
<path d="M171.549 47.1875L166.65 52.4064V67.7483L185.983 47.1875H171.549ZM193.862 47.1875H192.301L166.65 74.4536V80.5838L193.862 51.6469V47.1875ZM193.862 78.186L179.384 93.5821H185.929L193.862 85.1408V78.186ZM193.862 88.6888L189.213 93.5821H192.074L193.862 91.7051V88.6888Z" fill="#D7E2F8"/>
<path d="M163.443 95.3047H197.07V98.7224H163.443V95.3047Z" fill="#8F4B48"/>
<path d="M166.65 56.4773V54.6328H193.862V56.4773H166.65ZM205.892 128.572H236.571V179.545H205.892V128.572Z" fill="white"/>
<path d="M207.625 130.859H234.836V177.254H207.625V130.859Z" fill="#AEC1E6"/>
<path d="M212.523 130.859L207.625 136.078V151.42L226.958 130.859H212.523ZM234.836 130.859H233.276L207.625 158.136V164.256L234.836 135.319V130.859ZM234.836 161.869L220.369 177.254H226.904L234.836 168.813V161.869ZM234.836 172.361L230.198 177.254H233.059L234.836 175.377V172.361Z" fill="#D7E2F8"/>
<path d="M204.418 178.984H238.045V182.402H204.418V178.984Z" fill="#8F4B48"/>
<path d="M207.627 140.161V138.316H234.839V140.161H207.627ZM164.906 128.578H195.585V179.551H164.906V128.578Z" fill="white"/>
<path d="M166.65 130.859H193.862V177.254H166.65V130.859Z" fill="#AEC1E6"/>
<path d="M171.549 130.859L166.65 136.078V151.42L185.983 130.859H171.549ZM193.862 130.859H192.301L166.65 158.136V164.256L193.862 135.319V130.859ZM193.862 161.869L179.384 177.254H185.929L193.862 168.813V161.869ZM193.862 172.361L189.213 177.254H192.074L193.862 175.377V172.361Z" fill="#D7E2F8"/>
<path d="M163.443 178.984H197.07V182.402H163.443V178.984Z" fill="#8F4B48"/>
<path d="M166.645 140.157V138.312H193.856V140.157H166.645Z" fill="white"/>
<path d="M332.846 311.342H324.471V223.77C324.471 222.253 325.698 221.023 327.212 221.023H330.581C331.832 221.023 332.846 222.04 332.846 223.293V311.342Z" fill="url(#paint0_linear_13603_16332)"/>
<path d="M352.712 265.145H304.74C303.369 265.145 302.258 264.032 302.258 262.659V235.486C302.258 234.113 303.369 233 304.74 233H352.712C354.083 233 355.194 234.113 355.194 235.486V262.659C355.194 264.032 354.083 265.145 352.712 265.145Z" fill="url(#paint1_linear_13603_16332)"/>
<path d="M351.369 264.422H305.857C304.486 264.422 303.375 263.309 303.375 261.936V237.095C303.375 235.722 304.486 234.609 305.857 234.609H351.369C352.739 234.609 353.85 235.722 353.85 237.095V261.936C353.85 263.309 352.739 264.422 351.369 264.422Z" fill="white"/>
<path d="M325.399 253.572C325.653 253.589 325.908 253.552 326.147 253.463C326.386 253.374 326.603 253.235 326.784 253.055C327.127 252.64 327.297 252.11 327.261 251.574C327.264 251.28 327.218 250.989 327.125 250.711C327.044 250.465 326.925 250.233 326.773 250.024C326.629 249.83 326.471 249.648 326.301 249.478C326.13 249.308 325.958 249.145 325.785 248.989C325.618 248.84 325.459 248.683 325.308 248.518C325.164 248.359 325.045 248.179 324.956 247.984C324.865 247.788 324.818 247.575 324.819 247.36C324.819 246.838 325.027 246.577 325.443 246.576C325.86 246.575 326.068 246.836 326.068 247.36V247.688H327.249V247.44C327.285 246.905 327.119 246.376 326.783 245.959C326.605 245.778 326.39 245.639 326.153 245.55C325.916 245.461 325.662 245.424 325.409 245.442C325.157 245.424 324.903 245.461 324.666 245.55C324.429 245.639 324.214 245.778 324.035 245.959C323.7 246.377 323.534 246.905 323.57 247.44C323.565 247.835 323.651 248.225 323.82 248.581C323.971 248.903 324.178 249.195 324.433 249.444C324.675 249.674 324.915 249.896 325.154 250.108C325.388 250.315 325.593 250.554 325.761 250.817C325.924 251.065 326.011 251.355 326.012 251.652C326.012 252.166 325.796 252.423 325.364 252.424C324.932 252.424 324.716 252.167 324.716 251.653V251.085H323.536V251.574C323.5 252.11 323.671 252.64 324.013 253.055C324.194 253.235 324.411 253.374 324.65 253.463C324.889 253.552 325.144 253.59 325.399 253.572ZM329.226 253.48V245.531H327.977V253.482H329.226V253.48ZM332.111 253.48C333.352 253.48 333.973 252.826 333.974 251.516V247.496C333.974 246.186 333.353 245.531 332.111 245.531H330.135V253.482H332.111V253.48ZM332.086 252.345H331.383V246.667H332.087C332.511 246.667 332.723 246.924 332.723 247.439V251.573C332.723 252.087 332.511 252.345 332.087 252.345H332.086Z" fill="#EB5535"/>
<path d="M327.279 239.734V240.672H320.102V247.866H319.166V239.734H327.279Z" fill="#EB5535"/>
<path d="M330.109 239.734V240.672H337.286V247.866H338.221V239.734H330.109Z" fill="#80BB01"/>
<path d="M327.279 259.288V258.35H320.102V251.156H319.166V259.288H327.279Z" fill="#F9AE39"/>
<path d="M330.109 259.288V258.35H337.286V251.156H338.221V259.288H330.109Z" fill="#397BE7"/>
<path d="M35.3286 306.803C34.839 306.892 34.3486 306.676 34.0871 306.327C33.8257 305.978 33.7718 305.519 33.8561 305.083C33.9406 304.646 34.153 304.227 34.3938 303.828C34.7921 303.166 35.2954 302.522 35.9563 302.057C34.7743 301.99 33.5777 302.005 32.3801 302.102C32.2712 302.111 32.1624 302.121 32.0534 302.131C32.1146 302.881 32.1759 303.63 32.2369 304.379C32.2778 304.879 32.3169 305.394 32.1427 305.888C31.9685 306.382 31.5279 306.858 30.9616 306.961C30.472 307.049 29.9817 306.833 29.7201 306.485C29.4587 306.136 29.4049 305.677 29.4892 305.24C29.5736 304.804 29.786 304.385 30.0269 303.985C30.4376 303.302 30.96 302.639 31.652 302.171C30.3234 302.314 28.9987 302.556 27.6959 302.893C27.7249 303.657 27.7538 304.421 27.7826 305.185C27.8015 305.687 27.8181 306.205 27.6232 306.694C27.4283 307.184 26.9689 307.646 26.4006 307.73C25.9092 307.802 25.4302 307.568 25.1851 307.21C24.9399 306.851 24.906 306.389 25.0091 305.954C25.1121 305.519 25.3418 305.107 25.5988 304.714C26.0102 304.085 26.5186 303.476 27.1654 303.036C26.2277 303.298 25.3025 303.609 24.3973 303.97C24.1295 304.077 23.8641 304.189 23.6002 304.305C23.6006 305.094 23.6011 305.882 23.6015 306.671C23.6019 307.176 23.5992 307.695 23.3866 308.18C23.1742 308.665 22.6994 309.115 22.1298 309.182C21.6375 309.24 21.1688 308.992 20.9379 308.625C20.7067 308.258 20.6902 307.794 20.8091 307.361C20.9278 306.928 21.172 306.521 21.4428 306.135C21.8295 305.584 22.2928 305.051 22.8577 304.642C21.9758 305.06 21.1194 305.527 20.2948 306.038C19.8819 306.748 19.4689 307.457 19.0558 308.166C18.7849 308.632 18.5034 309.11 18.0649 309.467C17.6263 309.825 16.9875 310.038 16.475 309.858C16.0321 309.702 15.7734 309.275 15.7774 308.838C15.7812 308.402 16.0173 307.966 16.3493 307.617C16.6815 307.268 17.1044 306.997 17.5384 306.755C18.3382 306.311 19.2278 305.948 20.1303 305.901C20.1328 305.899 20.1348 305.897 20.1377 305.895C21.0144 305.349 21.9275 304.855 22.8682 304.414C22.1374 304.515 21.3891 304.436 20.6878 304.287C20.2202 304.187 19.7571 304.054 19.3675 303.818C18.9776 303.583 18.6642 303.234 18.5756 302.812C18.487 302.39 18.6545 301.895 19.0535 301.607C19.5152 301.275 20.1761 301.284 20.6707 301.495C21.1654 301.706 21.5312 302.082 21.8845 302.449C22.4225 303.009 22.9606 303.569 23.4986 304.129C24.6646 303.618 25.869 303.189 27.0963 302.845C26.3341 302.801 25.608 302.548 24.9532 302.228C24.5387 302.026 24.1378 301.792 23.835 301.472C23.5321 301.152 23.3335 300.736 23.368 300.299C23.4024 299.861 23.6997 299.408 24.1581 299.211C24.6882 298.983 25.311 299.139 25.7199 299.457C26.1288 299.776 26.3694 300.23 26.6007 300.673C26.9527 301.346 27.3047 302.02 27.6567 302.694C27.6954 302.684 27.7341 302.673 27.773 302.663C29.0471 302.34 30.3407 302.109 31.6374 301.969C30.8074 301.822 30.0802 301.4 29.4582 300.911C29.1062 300.634 28.7744 300.328 28.5568 299.954C28.339 299.58 28.2434 299.13 28.3765 298.699C28.5098 298.269 28.899 297.87 29.3845 297.757C29.946 297.625 30.5089 297.893 30.829 298.285C31.1489 298.676 31.2763 299.173 31.3971 299.656C31.5872 300.416 31.7772 301.175 31.9673 301.935C31.9853 301.933 32.0035 301.931 32.0217 301.93L32.0354 301.91C32.0359 301.916 32.0363 301.922 32.037 301.928C33.2994 301.81 34.563 301.781 35.8133 301.842C35.2124 301.455 34.7577 300.895 34.3993 300.307C34.1698 299.93 33.9696 299.53 33.9008 299.095C33.832 298.66 33.9055 298.184 34.1862 297.793C34.4668 297.403 34.9759 297.117 35.4719 297.144C36.0459 297.174 36.4764 297.602 36.6343 298.084C36.7923 298.567 36.732 299.097 36.6704 299.614C36.5828 300.347 36.4953 301.08 36.4077 301.813C36.4095 301.835 36.4113 301.857 36.4131 301.879C37.7845 301.979 39.1332 302.191 40.4379 302.517C40.5757 302.551 40.5222 302.755 40.3826 302.72C39.0998 302.4 37.7759 302.19 36.4303 302.088C36.4883 302.799 36.5464 303.51 36.6044 304.221C36.6453 304.721 36.6842 305.236 36.5102 305.73C36.3355 306.225 35.8949 306.7 35.3286 306.803ZM39.9989 266.372C39.7609 265.802 40.1767 265.123 40.7468 264.891C41.3169 264.658 41.9715 264.769 42.5564 264.968C43.5027 265.29 44.2949 265.785 45.0997 266.338C44.6204 265.545 44.1699 264.734 43.7462 263.912C43.4661 263.368 43.1979 262.817 42.9414 262.261C41.6574 262.788 40.2143 262.922 38.8561 262.636C38.3413 262.528 37.7796 262.309 37.5781 261.823C37.3425 261.255 37.7582 260.576 38.3267 260.342C38.8952 260.108 39.5469 260.218 40.1289 260.415C41.1063 260.746 41.918 261.264 42.7501 261.84C41.9793 260.117 41.3292 258.338 40.8383 256.517C39.5042 256.817 38.0817 256.717 36.8049 256.226C36.3137 256.038 35.7938 255.733 35.6717 255.221C35.5292 254.623 36.0473 254.018 36.6457 253.878C37.2439 253.737 37.8701 253.948 38.4135 254.235C39.2942 254.701 39.9949 255.313 40.6992 255.985C40.212 254.057 39.8832 252.012 40.1392 250.034C40.1444 249.993 40.1516 249.952 40.1574 249.911C38.7797 250.027 37.3682 249.725 36.1611 249.05C35.702 248.793 35.2307 248.417 35.183 247.893C35.1273 247.281 35.7263 246.757 36.3386 246.703C36.9508 246.649 37.5402 246.948 38.0372 247.31C38.9129 247.947 39.5532 248.726 40.2077 249.569C40.5656 247.292 41.3447 245.072 41.6237 242.786C40.2237 242.919 38.7844 242.619 37.5566 241.933C37.0975 241.676 36.6262 241.3 36.5787 240.776C36.523 240.163 37.122 239.639 37.7342 239.585C38.3465 239.532 38.9359 239.83 39.4329 240.192C40.3321 240.847 40.9831 241.65 41.6561 242.52C41.7157 241.947 41.7422 241.371 41.7199 240.788C41.6747 239.607 41.3771 238.448 40.8942 237.359C39.5523 237.879 38.0484 237.972 36.6536 237.617C36.1438 237.487 35.5917 237.245 35.4107 236.751C35.1992 236.174 35.6431 235.513 36.2208 235.303C36.7985 235.093 37.4451 235.23 38.0183 235.451C39.0698 235.858 39.9142 236.478 40.8012 237.155C39.9854 235.414 38.6969 233.866 37.2066 232.723C35.9408 233.043 34.5848 233.003 33.342 232.601C32.8415 232.439 32.3059 232.162 32.1568 231.657C31.9824 231.068 32.4675 230.436 33.0573 230.264C33.6472 230.091 34.2838 230.269 34.8418 230.526C35.7321 230.937 36.4558 231.5 37.1834 232.121C37.2185 232.127 37.2544 232.141 37.2895 232.167C38.5796 233.111 39.6694 234.318 40.5198 235.67C40.7074 235.968 40.885 236.275 41.051 236.588C40.9233 235.324 41.1435 234.025 41.6894 232.877C41.9155 232.402 42.2601 231.907 42.7798 231.825C43.387 231.729 43.9489 232.293 44.0423 232.901C44.136 233.508 43.8768 234.116 43.5484 234.636C42.936 235.606 42.1482 236.322 41.2955 237.075C41.6147 237.747 41.8712 238.448 42.0241 239.174C42.2558 240.275 42.2662 241.374 42.1556 242.468C42.6121 241.24 43.4184 240.142 44.4597 239.346C44.8776 239.027 45.4101 238.744 45.9098 238.908C46.4936 239.1 46.7364 239.858 46.5424 240.442C46.3486 241.025 45.8404 241.448 45.3112 241.76C44.2969 242.359 43.2397 242.636 42.1032 242.925C41.8685 244.724 41.3407 246.509 40.9597 248.262C40.8398 248.815 40.7364 249.366 40.663 249.92C41.0907 248.563 41.9423 247.342 43.0716 246.476C43.4892 246.156 44.0211 245.872 44.521 246.036C45.1051 246.227 45.3489 246.985 45.1558 247.569C44.9627 248.153 44.4552 248.576 43.9262 248.889C42.8895 249.503 41.8076 249.78 40.642 250.078C40.5703 250.669 40.5362 251.265 40.5604 251.868C40.6045 252.973 40.7742 254.071 41.0094 255.149C41.0719 255.436 41.14 255.722 41.2117 256.007C41.4807 254.745 42.1034 253.558 42.996 252.625C43.3598 252.245 43.842 251.884 44.3612 251.969C44.9677 252.069 45.3244 252.781 45.2226 253.387C45.1208 253.993 44.684 254.489 44.209 254.88C43.3315 255.601 42.3687 256.033 41.3342 256.475C41.8139 258.255 42.4624 259.992 43.2175 261.673C43.1662 260.327 43.5099 258.967 44.2023 257.812C44.4729 257.36 44.863 256.9 45.3881 256.869C46.0017 256.832 46.5071 257.446 46.5422 258.06C46.5775 258.674 46.2614 259.254 45.8848 259.74C45.1702 260.663 44.2999 261.307 43.3609 261.988C43.4629 262.21 43.5659 262.432 43.6713 262.651C44.2497 263.859 44.8848 265.044 45.5836 266.191C45.5535 264.879 45.8975 263.56 46.5721 262.434C46.8427 261.983 47.2329 261.523 47.758 261.491C48.3715 261.454 48.877 262.069 48.9121 262.683C48.9472 263.296 48.6311 263.877 48.2546 264.363C47.5596 265.26 46.7177 265.894 45.8082 266.554C46.6204 267.852 47.5168 269.095 48.5089 270.258C48.7156 270.5 48.3259 270.804 48.1197 270.563C47.1176 269.389 46.2151 268.131 45.3959 266.82C44.1054 267.348 42.6528 267.48 41.2847 267.19C40.7672 267.08 40.2026 266.859 39.9989 266.372Z" fill="#FFC4EC"/>
<path d="M27.8669 294.69C30.7617 294.337 35.1904 290.09 37.9968 290.996C37.75 294.41 32.9213 293.223 30.5918 294.644C28.5563 296.213 35.3201 299.253 38.932 298.07C41.9202 297.226 41.8455 293.249 46.1121 288.51C49.7011 284.407 51.4533 284.725 52.4201 281.945C54.1877 276.858 50.1109 270.674 49.4468 270.855C49.1786 270.928 49.5896 271.995 49.233 274.403C49.3853 274.65 46.8505 283.818 45.3019 280.154C44.6867 275.889 49.7923 274.253 48.0763 269.136C46.7882 265.299 41.1586 263.872 40.9284 264.241C43.5897 265.678 43.4047 273.465 41.3775 276.065C40.0332 277.525 39.719 275.903 39.9381 274.118C39.8809 268.153 40.2645 265.005 36.7936 261.676C32.5391 257.596 27.3208 261.288 20.7149 260.655C20.7149 260.655 17.1461 267.974 19.0975 273.08C20.9756 277.993 26.1935 275.242 29.2304 277.108C30.6241 277.788 30.4875 279.773 29.328 280.441C27.5479 281.959 24.5264 281.33 22.3523 280.851C18.7509 280.058 17.6872 278.96 17.1075 279.512C15.5242 280.924 19.8032 287.137 23.1022 286.859C26.8274 288.171 32.7759 282.874 36.1646 285.55C35.4552 288.6 26.9947 289.953 23.6884 289.306C21.9872 288.767 21.0255 287.681 20.7911 287.904C21.158 289.798 25.2456 294.832 27.8669 294.69Z" fill="#BEB5FF"/>
<path d="M34.4188 295.82C35.3208 295.944 36.2432 295.842 37.099 295.534C37.93 295.236 38.6568 294.738 39.2797 294.118C39.9614 293.436 40.5192 292.65 41.0968 291.881C41.7238 291.051 42.3943 290.25 43.1155 289.499C43.4419 289.161 43.7683 288.812 44.1304 288.512C44.4319 288.262 44.7962 288.043 45.2038 288.11C45.2083 288.111 45.2106 288.108 45.2153 288.108C45.2665 288.16 45.3202 288.208 45.3702 288.261C45.5392 288.437 45.7046 288.618 45.8624 288.806C45.8825 288.778 45.9051 288.753 45.9285 288.727C45.6401 288.391 45.3319 288.068 45.0066 287.766C45.006 287.763 45.0057 287.76 45.0039 287.759C44.9032 287.596 44.8352 287.41 44.7864 287.224C44.7396 287.05 44.6971 286.848 44.7479 286.671C44.8255 286.407 45.0044 286.169 45.1692 285.952C45.3357 285.736 45.5084 285.522 45.6846 285.313C46.9255 283.843 48.3709 282.534 49.4198 280.91C50.2809 279.574 50.8843 278.007 50.7226 276.394C50.7163 276.329 50.6145 276.345 50.6213 276.413C50.7143 277.352 50.5417 278.293 50.2031 279.171C49.5398 280.889 48.3061 282.279 47.0739 283.617C46.3907 284.358 45.6988 285.092 45.0858 285.893C44.8608 286.188 44.5971 286.533 44.6288 286.923C44.6447 287.141 44.7065 287.368 44.7971 287.576C43.8613 286.751 42.8032 286.079 41.7539 285.409C41.706 285.378 41.6552 285.346 41.6074 285.315C41.6074 285.315 41.6074 285.315 41.6071 285.312C41.1809 284.505 41.0312 283.586 41.0714 282.679C41.1517 280.829 42.0304 279.197 42.9491 277.635C43.2004 277.208 43.4547 276.781 43.6995 276.349C43.9297 275.944 44.1601 275.532 44.3321 275.097C44.6218 274.355 44.725 273.482 44.3111 272.765C44.2783 272.708 44.1837 272.749 44.2183 272.807C44.7398 273.709 44.413 274.772 43.9733 275.636C43.0982 277.351 41.8965 278.915 41.3109 280.771C40.8613 282.197 40.7831 283.839 41.4431 285.21C40.4609 284.581 39.4828 283.931 38.6251 283.133C38.157 282.696 37.74 282.216 37.3581 281.707C37.3559 281.703 37.3566 281.698 37.3529 281.693C37.3478 281.689 37.344 281.684 37.3374 281.679C36.9926 281.217 36.6754 280.735 36.3753 280.241C35.8763 279.42 35.4162 278.577 34.9266 277.75C34.7764 276.749 34.8821 275.725 35.0522 274.735C35.3559 272.956 35.9801 271.198 35.875 269.372C35.7801 267.747 34.9351 265.975 33.2829 265.456C33.2193 265.436 33.184 265.531 33.2476 265.552C34.1667 265.839 34.8594 266.565 35.2784 267.417C36.0881 269.066 35.7673 270.953 35.3831 272.671C35.0288 274.253 34.6109 275.902 34.7966 277.533C34.7334 277.428 34.6712 277.321 34.6064 277.214C33.9564 276.167 33.2082 275.199 32.3469 274.318C30.5818 272.514 28.4834 271.086 26.4031 269.678C26.3497 269.64 26.2903 269.723 26.3436 269.761C26.5985 269.933 26.8534 270.105 27.1072 270.278C29.1053 271.642 31.0986 273.073 32.7295 274.875C32.1437 274.578 31.4457 274.548 30.803 274.515C29.9975 274.474 29.0629 274.392 28.524 273.708C28.4829 273.656 28.4044 273.721 28.4452 273.773C28.9491 274.414 29.8107 274.56 30.5775 274.606C31.3755 274.654 32.2682 274.637 32.9446 275.124C32.9479 275.126 32.9502 275.123 32.9536 275.125C32.9536 275.125 32.9536 275.125 32.9554 275.126C33.7547 276.049 34.4142 277.064 35.0268 278.118C35.6129 279.127 36.1656 280.155 36.8175 281.125C36.8798 281.217 36.9452 281.309 37.009 281.4C36.2452 280.855 35.2271 280.738 34.307 280.855C33.2429 280.989 32.2603 281.468 31.3032 281.926C30.353 282.381 29.3922 282.78 28.3712 283.038C26.4043 283.533 24.3306 283.574 22.347 283.153C22.2827 283.138 22.2737 283.242 22.3375 283.255C23.4186 283.484 24.5266 283.578 25.6308 283.535C26.6214 283.496 27.6067 283.348 28.5654 283.093C29.5545 282.828 30.4835 282.431 31.4052 281.991C32.3662 281.531 33.3544 281.059 34.4275 280.943C35.4184 280.837 36.5345 281.014 37.2642 281.748C37.8262 282.49 38.4621 283.165 39.1899 283.757C40.1905 284.566 41.296 285.231 42.3744 285.927C42.4669 285.988 42.5576 286.047 42.6484 286.107C41.9463 286.027 41.2234 286.155 40.5623 286.398C39.8513 286.659 39.207 287.072 38.5738 287.481C37.9185 287.907 37.2601 288.323 36.5635 288.68C35.2129 289.372 33.7747 289.884 32.2918 290.2C32.2266 290.214 32.2439 290.317 32.3073 290.302C33.1208 290.127 33.9235 289.897 34.7018 289.609C35.4015 289.35 36.0849 289.048 36.7435 288.702C37.4193 288.346 38.0583 287.937 38.6979 287.522C39.3394 287.109 39.9954 286.696 40.7219 286.449C41.3956 286.22 42.1291 286.112 42.8356 286.236C42.8385 286.235 42.8379 286.232 42.8397 286.233C43.6397 286.766 44.4136 287.335 45.1047 287.999C44.7405 287.981 44.4053 288.162 44.1244 288.387C43.7109 288.714 43.3461 289.113 42.9826 289.492C42.2811 290.23 41.626 291.008 41.0139 291.822C40.4245 292.607 39.8556 293.416 39.15 294.103C38.509 294.728 37.7607 295.214 36.9104 295.493C36.113 295.755 35.2599 295.833 34.4287 295.718C34.3637 295.71 34.3544 295.811 34.4188 295.82Z" fill="white"/>
<path d="M30.0447 256.238C29.1986 252.165 25.6476 249.68 22.645 249.729C21.2936 249.752 19.406 250.599 19.6407 252.471C20.1054 256.179 25.0395 253.402 30.0447 256.238ZM33.4348 253.503C34.6266 251.306 33.9543 248.78 32.5507 247.63C31.919 247.112 30.7196 246.764 30.1009 247.714C28.8751 249.595 32.2283 250.249 33.4348 253.503ZM17.7403 294.894C15.9541 293.138 13.3504 293.091 11.8695 294.129C11.2029 294.596 10.5454 295.657 11.2893 296.516C12.763 298.218 14.294 295.162 17.7403 294.894Z" fill="#FFBAEA"/>
<path d="M17.3874 240.163C17.8199 240.099 18.119 239.697 18.0554 239.264C17.9918 238.831 17.5896 238.532 17.1571 238.596C16.7246 238.659 16.4256 239.062 16.4892 239.494C16.5528 239.927 16.9549 240.226 17.3874 240.163Z" fill="#C6B5FF"/>
<path d="M38.9612 221.478C39.0938 221.061 38.8636 220.615 38.4469 220.483C38.0303 220.35 37.5852 220.58 37.4526 220.997C37.32 221.414 37.5502 221.859 37.9669 221.992C38.3835 222.125 38.8286 221.894 38.9612 221.478ZM13.7142 275.601C13.8468 275.184 13.6166 274.739 13.1999 274.606C12.7833 274.474 12.3382 274.704 12.2056 275.121C12.073 275.538 12.3032 275.983 12.7199 276.115C13.1365 276.248 13.5816 276.018 13.7142 275.601ZM29.0814 243.14C29.3003 242.452 28.9202 241.717 28.2324 241.498C27.5447 241.279 26.8097 241.659 26.5909 242.347C26.372 243.035 26.7521 243.77 27.4398 243.989C28.1276 244.208 28.8625 243.828 29.0814 243.14ZM6.32097 286.841C6.53983 286.153 6.15975 285.418 5.472 285.199C4.78425 284.98 4.04931 285.36 3.83044 286.048C3.61158 286.736 3.99166 287.472 4.67941 287.691C5.36716 287.91 6.10211 287.529 6.32097 286.841ZM27.7742 313.827C27.993 313.139 27.613 312.404 26.9252 312.185C26.2375 311.966 25.5025 312.346 25.2836 313.034C25.0648 313.722 25.4449 314.458 26.1326 314.677C26.8204 314.895 27.5553 314.515 27.7742 313.827Z" fill="#C6B5FF"/>
<path d="M210.373 306.803C210.863 306.892 211.353 306.676 211.614 306.327C211.876 305.978 211.93 305.519 211.845 305.083C211.761 304.646 211.548 304.227 211.308 303.828C210.91 303.166 210.406 302.522 209.745 302.057C210.927 301.99 212.124 302.005 213.322 302.102C213.431 302.111 213.539 302.121 213.648 302.131C213.587 302.881 213.526 303.63 213.465 304.379C213.424 304.879 213.385 305.394 213.559 305.888C213.733 306.382 214.174 306.858 214.74 306.961C215.23 307.049 215.72 306.833 215.982 306.485C216.243 306.136 216.297 305.677 216.213 305.24C216.128 304.804 215.916 304.385 215.675 303.985C215.264 303.302 214.742 302.639 214.05 302.171C215.378 302.314 216.703 302.556 218.006 302.893C217.977 303.657 217.948 304.421 217.919 305.185C217.9 305.687 217.884 306.205 218.079 306.694C218.274 307.184 218.733 307.646 219.301 307.73C219.793 307.802 220.272 307.568 220.517 307.21C220.762 306.851 220.796 306.389 220.693 305.954C220.59 305.519 220.36 305.107 220.103 304.714C219.692 304.085 219.183 303.476 218.536 303.036C219.474 303.298 220.399 303.609 221.305 303.97C221.572 304.077 221.838 304.189 222.102 304.305C222.101 305.094 222.101 305.882 222.1 306.671C222.1 307.176 222.103 307.695 222.315 308.18C222.528 308.665 223.002 309.115 223.572 309.182C224.064 309.24 224.533 308.992 224.764 308.625C224.995 308.258 225.012 307.794 224.893 307.361C224.774 306.928 224.53 306.521 224.259 306.135C223.872 305.584 223.409 305.051 222.844 304.642C223.726 305.06 224.582 305.527 225.407 306.038C225.82 306.748 226.233 307.457 226.646 308.166C226.917 308.632 227.199 309.11 227.637 309.467C228.076 309.825 228.714 310.038 229.227 309.858C229.67 309.702 229.928 309.275 229.924 308.838C229.921 308.402 229.685 307.966 229.353 307.617C229.02 307.268 228.597 306.997 228.163 306.755C227.364 306.311 226.474 305.948 225.572 305.901C225.569 305.899 225.567 305.897 225.564 305.895C224.687 305.349 223.774 304.855 222.834 304.414C223.564 304.515 224.313 304.436 225.014 304.287C225.482 304.187 225.945 304.054 226.334 303.818C226.724 303.583 227.038 303.234 227.126 302.812C227.215 302.39 227.047 301.895 226.648 301.607C226.187 301.275 225.526 301.284 225.031 301.495C224.537 301.706 224.171 302.082 223.817 302.449C223.279 303.009 222.741 303.569 222.203 304.129C221.037 303.618 219.833 303.189 218.606 302.845C219.368 302.801 220.094 302.548 220.749 302.228C221.163 302.026 221.564 301.792 221.867 301.472C222.17 301.152 222.368 300.736 222.334 300.299C222.299 299.861 222.002 299.408 221.544 299.211C221.014 298.983 220.391 299.139 219.982 299.457C219.573 299.776 219.332 300.23 219.101 300.673C218.749 301.346 218.397 302.02 218.045 302.694C218.006 302.684 217.968 302.673 217.929 302.663C216.655 302.34 215.361 302.109 214.064 301.969C214.895 301.822 215.622 301.4 216.244 300.911C216.596 300.634 216.927 300.328 217.145 299.954C217.363 299.58 217.459 299.13 217.326 298.699C217.192 298.269 216.803 297.87 216.318 297.757C215.756 297.625 215.193 297.893 214.873 298.285C214.553 298.676 214.426 299.173 214.305 299.656C214.115 300.416 213.925 301.175 213.735 301.935C213.717 301.933 213.698 301.931 213.68 301.93L213.666 301.91C213.666 301.916 213.666 301.922 213.665 301.928C212.403 301.81 211.139 301.781 209.889 301.842C210.489 301.455 210.944 300.895 211.303 300.307C211.532 299.93 211.732 299.53 211.801 299.095C211.87 298.66 211.796 298.184 211.516 297.793C211.235 297.403 210.726 297.117 210.23 297.144C209.656 297.174 209.225 297.602 209.068 298.084C208.91 298.567 208.97 299.097 209.031 299.614C209.119 300.347 209.207 301.08 209.294 301.813C209.292 301.835 209.291 301.857 209.289 301.879C207.917 301.979 206.569 302.191 205.264 302.517C205.126 302.551 205.18 302.755 205.319 302.72C206.602 302.4 207.926 302.19 209.272 302.088C209.213 302.799 209.155 303.51 209.097 304.221C209.057 304.721 209.018 305.236 209.192 305.73C209.366 306.225 209.807 306.7 210.373 306.803ZM205.703 266.372C205.941 265.802 205.525 265.123 204.955 264.891C204.385 264.658 203.73 264.769 203.145 264.968C202.199 265.29 201.407 265.785 200.602 266.338C201.081 265.545 201.532 264.734 201.955 263.912C202.236 263.368 202.504 262.817 202.76 262.261C204.044 262.788 205.487 262.922 206.846 262.636C207.36 262.528 207.922 262.309 208.124 261.823C208.359 261.255 207.943 260.576 207.375 260.342C206.806 260.108 206.155 260.218 205.573 260.415C204.595 260.746 203.784 261.264 202.952 261.84C203.722 260.117 204.372 258.338 204.863 256.517C206.197 256.817 207.62 256.717 208.897 256.226C209.388 256.038 209.908 255.733 210.03 255.221C210.172 254.623 209.654 254.018 209.056 253.878C208.458 253.737 207.832 253.948 207.288 254.235C206.408 254.701 205.707 255.313 205.003 255.985C205.49 254.057 205.819 252.012 205.563 250.034C205.557 249.993 205.55 249.952 205.545 249.911C206.922 250.027 208.334 249.725 209.541 249.05C210 248.793 210.471 248.417 210.519 247.893C210.575 247.281 209.976 246.757 209.363 246.703C208.751 246.649 208.162 246.948 207.665 247.31C206.789 247.947 206.149 248.726 205.494 249.569C205.136 247.292 204.357 245.072 204.078 242.786C205.478 242.919 206.918 242.619 208.145 241.933C208.605 241.676 209.076 241.3 209.123 240.776C209.179 240.163 208.58 239.639 207.968 239.585C207.356 239.532 206.766 239.83 206.269 240.192C205.37 240.847 204.719 241.65 204.046 242.52C203.986 241.947 203.96 241.371 203.982 240.788C204.027 239.607 204.325 238.448 204.808 237.359C206.15 237.879 207.654 237.972 209.048 237.617C209.558 237.487 210.11 237.245 210.291 236.751C210.503 236.174 210.059 235.513 209.481 235.303C208.904 235.093 208.257 235.23 207.684 235.451C206.632 235.858 205.788 236.478 204.901 237.155C205.717 235.414 207.005 233.866 208.496 232.723C209.761 233.043 211.117 233.003 212.36 232.601C212.861 232.439 213.396 232.162 213.545 231.657C213.72 231.068 213.235 230.436 212.645 230.264C212.055 230.091 211.418 230.269 210.86 230.526C209.97 230.937 209.246 231.5 208.519 232.121C208.484 232.127 208.448 232.141 208.413 232.167C207.122 233.111 206.033 234.318 205.182 235.67C204.995 235.968 204.817 236.275 204.651 236.588C204.779 235.324 204.559 234.025 204.013 232.877C203.787 232.402 203.442 231.907 202.922 231.825C202.315 231.729 201.753 232.293 201.66 232.901C201.566 233.508 201.825 234.116 202.154 234.636C202.766 235.606 203.554 236.322 204.407 237.075C204.087 237.747 203.831 238.448 203.678 239.174C203.446 240.275 203.436 241.374 203.546 242.468C203.09 241.24 202.284 240.142 201.242 239.346C200.824 239.027 200.292 238.744 199.792 238.908C199.208 239.1 198.966 239.858 199.16 240.442C199.353 241.025 199.862 241.448 200.391 241.76C201.405 242.359 202.462 242.636 203.599 242.925C203.834 244.724 204.361 246.509 204.742 248.262C204.862 248.815 204.966 249.366 205.039 249.92C204.611 248.563 203.76 247.342 202.63 246.476C202.213 246.156 201.681 245.872 201.181 246.036C200.597 246.227 200.353 246.985 200.546 247.569C200.739 248.153 201.247 248.576 201.776 248.889C202.812 249.503 203.894 249.78 205.06 250.078C205.131 250.669 205.166 251.265 205.142 251.868C205.097 252.973 204.928 254.071 204.692 255.149C204.63 255.436 204.562 255.722 204.49 256.007C204.221 254.745 203.598 253.558 202.706 252.625C202.342 252.245 201.86 251.884 201.341 251.969C200.734 252.069 200.377 252.781 200.479 253.387C200.581 253.993 201.018 254.489 201.493 254.88C202.37 255.601 203.333 256.033 204.368 256.475C203.888 258.255 203.239 259.992 202.484 261.673C202.536 260.327 202.192 258.967 201.5 257.812C201.229 257.36 200.839 256.9 200.314 256.869C199.7 256.832 199.195 257.446 199.16 258.06C199.124 258.674 199.44 259.254 199.817 259.74C200.532 260.663 201.402 261.307 202.341 261.988C202.239 262.21 202.136 262.432 202.031 262.651C201.452 263.859 200.817 265.044 200.118 266.191C200.148 264.879 199.804 263.56 199.13 262.434C198.859 261.983 198.469 261.523 197.944 261.491C197.33 261.454 196.825 262.069 196.79 262.683C196.755 263.296 197.071 263.877 197.447 264.363C198.142 265.26 198.984 265.894 199.894 266.554C199.081 267.852 198.185 269.095 197.193 270.258C196.986 270.5 197.376 270.804 197.582 270.563C198.584 269.389 199.487 268.131 200.306 266.82C201.596 267.348 203.049 267.48 204.417 267.19C204.934 267.08 205.499 266.859 205.703 266.372Z" fill="#FFC4EC"/>
<path d="M217.836 294.69C214.941 294.337 210.512 290.09 207.706 290.996C207.953 294.41 212.781 293.223 215.111 294.644C217.146 296.213 210.382 299.253 206.771 298.07C203.782 297.226 203.857 293.249 199.59 288.51C196.001 284.407 194.249 284.725 193.282 281.945C191.515 276.858 195.592 270.674 196.256 270.855C196.524 270.928 196.113 271.995 196.47 274.403C196.317 274.65 198.852 283.818 200.401 280.154C201.016 275.889 195.91 274.253 197.626 269.136C198.914 265.299 204.544 263.872 204.774 264.241C202.113 265.678 202.298 273.465 204.325 276.065C205.669 277.525 205.984 275.903 205.764 274.118C205.822 268.153 205.438 265.005 208.909 261.676C213.163 257.596 218.382 261.288 224.988 260.655C224.988 260.655 228.556 267.974 226.605 273.08C224.727 277.993 219.509 275.242 216.472 277.108C215.078 277.788 215.215 279.773 216.375 280.441C218.155 281.959 221.176 281.33 223.35 280.851C226.952 280.058 228.015 278.96 228.595 279.512C230.178 280.924 225.899 287.137 222.6 286.859C218.875 288.171 212.927 282.874 209.538 285.55C210.247 288.6 218.708 289.953 222.014 289.306C223.715 288.767 224.677 287.681 224.911 287.904C224.545 289.798 220.457 294.832 217.836 294.69Z" fill="#BEB5FF"/>
<path d="M211.284 295.82C210.382 295.944 209.46 295.842 208.604 295.534C207.773 295.236 207.046 294.738 206.423 294.118C205.742 293.436 205.184 292.65 204.606 291.881C203.979 291.051 203.309 290.25 202.587 289.499C202.261 289.161 201.935 288.812 201.573 288.512C201.271 288.262 200.907 288.043 200.499 288.11C200.495 288.111 200.492 288.108 200.488 288.108C200.436 288.16 200.383 288.208 200.333 288.261C200.164 288.437 199.998 288.618 199.841 288.806C199.82 288.778 199.798 288.753 199.774 288.727C200.063 288.391 200.371 288.068 200.696 287.766C200.697 287.763 200.697 287.76 200.699 287.759C200.8 287.596 200.868 287.41 200.917 287.224C200.963 287.05 201.006 286.848 200.955 286.671C200.877 286.407 200.699 286.169 200.534 285.952C200.367 285.736 200.195 285.522 200.018 285.313C198.777 283.843 197.332 282.534 196.283 280.91C195.422 279.574 194.819 278.007 194.98 276.394C194.987 276.329 195.088 276.345 195.082 276.413C194.989 277.352 195.161 278.293 195.5 279.171C196.163 280.889 197.397 282.279 198.629 283.617C199.312 284.358 200.004 285.092 200.617 285.893C200.842 286.188 201.106 286.533 201.074 286.923C201.058 287.141 200.996 287.368 200.906 287.576C201.842 286.751 202.9 286.079 203.949 285.409C203.997 285.378 204.048 285.346 204.096 285.315C204.096 285.315 204.096 285.315 204.096 285.312C204.522 284.505 204.672 283.586 204.632 282.679C204.551 280.829 203.673 279.197 202.754 277.635C202.503 277.208 202.248 276.781 202.003 276.349C201.773 275.944 201.543 275.532 201.371 275.097C201.081 274.355 200.978 273.482 201.392 272.765C201.425 272.708 201.519 272.749 201.485 272.807C200.963 273.709 201.29 274.772 201.73 275.636C202.605 277.351 203.806 278.915 204.392 280.771C204.842 282.197 204.92 283.839 204.26 285.21C205.242 284.581 206.22 283.931 207.078 283.133C207.546 282.696 207.963 282.216 208.345 281.707C208.347 281.703 208.346 281.698 208.35 281.693C208.355 281.689 208.359 281.684 208.366 281.679C208.71 281.217 209.028 280.735 209.328 280.241C209.827 279.42 210.287 278.577 210.776 277.75C210.927 276.749 210.821 275.725 210.651 274.735C210.347 272.956 209.723 271.198 209.828 269.372C209.923 267.747 210.768 265.975 212.42 265.456C212.483 265.436 212.519 265.531 212.455 265.552C211.536 265.839 210.844 266.565 210.425 267.417C209.615 269.066 209.936 270.953 210.32 272.671C210.674 274.253 211.092 275.902 210.906 277.533C210.97 277.428 211.032 277.321 211.097 277.214C211.747 276.167 212.495 275.199 213.356 274.318C215.121 272.514 217.22 271.086 219.3 269.678C219.353 269.64 219.413 269.723 219.359 269.761C219.104 269.933 218.85 270.105 218.596 270.278C216.598 271.642 214.605 273.073 212.973 274.875C213.559 274.578 214.257 274.548 214.9 274.515C215.705 274.474 216.64 274.392 217.179 273.708C217.22 273.656 217.299 273.721 217.258 273.773C216.754 274.414 215.892 274.56 215.125 274.606C214.327 274.654 213.435 274.637 212.758 275.124C212.755 275.126 212.753 275.123 212.749 275.125C212.749 275.125 212.749 275.125 212.748 275.126C211.948 276.049 211.289 277.064 210.676 278.118C210.09 279.127 209.537 280.155 208.885 281.125C208.823 281.217 208.758 281.309 208.694 281.4C209.458 280.855 210.476 280.738 211.396 280.855C212.46 280.989 213.443 281.468 214.4 281.926C215.35 282.381 216.311 282.78 217.332 283.038C219.299 283.533 221.372 283.574 223.356 283.153C223.42 283.138 223.429 283.242 223.365 283.255C222.284 283.484 221.176 283.578 220.072 283.535C219.082 283.496 218.096 283.348 217.138 283.093C216.148 282.828 215.219 282.431 214.298 281.991C213.337 281.531 212.349 281.059 211.275 280.943C210.285 280.837 209.168 281.014 208.439 281.748C207.877 282.49 207.241 283.165 206.513 283.757C205.512 284.566 204.407 285.231 203.328 285.927C203.236 285.988 203.145 286.047 203.055 286.107C203.757 286.027 204.48 286.155 205.141 286.398C205.852 286.659 206.496 287.072 207.129 287.481C207.784 287.907 208.443 288.323 209.139 288.68C210.49 289.372 211.928 289.884 213.411 290.2C213.476 290.214 213.459 290.317 213.395 290.302C212.582 290.127 211.779 289.897 211.001 289.609C210.301 289.35 209.618 289.048 208.959 288.702C208.283 288.346 207.645 287.937 207.005 287.522C206.363 287.109 205.707 286.696 204.981 286.449C204.307 286.22 203.573 286.112 202.867 286.236C202.864 286.235 202.865 286.232 202.863 286.233C202.063 286.766 201.289 287.335 200.598 287.999C200.962 287.981 201.297 288.162 201.578 288.387C201.992 288.714 202.357 289.113 202.72 289.492C203.422 290.23 204.077 291.008 204.689 291.822C205.278 292.607 205.847 293.416 206.553 294.103C207.194 294.728 207.942 295.214 208.792 295.493C209.59 295.755 210.443 295.833 211.274 295.718C211.339 295.71 211.349 295.811 211.284 295.82Z" fill="white"/>
<path d="M215.658 256.238C216.504 252.165 220.055 249.68 223.057 249.729C224.409 249.752 226.296 250.599 226.062 252.471C225.597 256.179 220.663 253.402 215.658 256.238ZM212.268 253.503C211.076 251.306 211.748 248.78 213.152 247.63C213.783 247.112 214.983 246.764 215.601 247.714C216.827 249.595 213.474 250.249 212.268 253.503ZM227.962 294.894C229.748 293.138 232.352 293.091 233.833 294.129C234.499 294.596 235.157 295.657 234.413 296.516C232.939 298.218 231.408 295.162 227.962 294.894Z" fill="#FFBAEA"/>
<path d="M227.678 239.618C227.546 239.201 227.776 238.756 228.192 238.623C228.609 238.491 229.054 238.721 229.187 239.138C229.319 239.555 229.089 240 228.672 240.133C228.256 240.265 227.811 240.035 227.678 239.618Z" fill="#C6B5FF"/>
<path d="M173.242 253.352C173.443 252.964 173.291 252.486 172.903 252.285C172.515 252.084 172.037 252.236 171.836 252.625C171.635 253.013 171.787 253.491 172.176 253.692C172.564 253.893 173.042 253.741 173.242 253.352Z" fill="#C6B5FF"/>
<path d="M191.295 233.872C191.163 233.455 191.393 233.01 191.81 232.877C192.226 232.744 192.671 232.975 192.804 233.392C192.937 233.808 192.706 234.254 192.29 234.386C191.873 234.519 191.428 234.289 191.295 233.872ZM206.741 221.478C206.609 221.061 206.839 220.615 207.255 220.483C207.672 220.35 208.117 220.58 208.25 220.997C208.382 221.414 208.152 221.859 207.736 221.992C207.319 222.125 206.874 221.894 206.741 221.478ZM231.988 275.601C231.856 275.184 232.086 274.739 232.503 274.606C232.919 274.474 233.364 274.704 233.497 275.121C233.629 275.538 233.399 275.983 232.983 276.115C232.566 276.248 232.121 276.018 231.988 275.601ZM216.621 243.14C216.402 242.452 216.782 241.717 217.47 241.498C218.158 241.279 218.893 241.659 219.112 242.347C219.331 243.035 218.951 243.77 218.263 243.989C217.575 244.208 216.84 243.828 216.621 243.14Z" fill="#C6B5FF"/>
<path d="M194.004 252.806C194.336 252.164 194.085 251.375 193.444 251.044C192.803 250.712 192.014 250.963 191.682 251.604C191.351 252.246 191.602 253.035 192.243 253.366C192.884 253.698 193.672 253.447 194.004 252.806Z" fill="#C6B5FF"/>
<path d="M239.381 286.845C239.162 286.157 239.543 285.421 240.23 285.203C240.918 284.984 241.653 285.364 241.872 286.052C242.091 286.74 241.711 287.475 241.023 287.694C240.335 287.913 239.6 287.533 239.381 286.845ZM217.928 313.831C217.709 313.143 218.089 312.408 218.777 312.189C219.465 311.97 220.2 312.35 220.419 313.038C220.638 313.726 220.258 314.461 219.57 314.68C218.882 314.899 218.147 314.519 217.928 313.831Z" fill="#C6B5FF"/>
<path d="M122.525 241.2C122.525 241.2 121.794 241.727 120.629 242.892C117.094 246.428 108.057 254.355 104.644 254.193C100.204 253.987 93.5147 248.686 93.5147 248.686L92.7734 233.234L106.843 244.569L118.682 239.102L120.68 238.183C120.68 238.183 121.9 236.487 124.006 235.773C126.124 235.049 127.506 233.818 127.992 234.412C128.489 235.006 125.27 236.757 126.048 236.919C128.003 237.308 132.259 235.979 133.878 236.195C136.061 236.487 129.049 241.945 122.525 241.2Z" fill="#F2B2B2"/>
<path d="M121.123 243.135C120.864 243.415 120.572 243.73 120.259 244.052L119.857 244.454C116.687 247.674 110.268 252.52 106.424 254.015C105.623 254.327 104.933 254.494 104.409 254.47C100.619 254.295 93.9974 250.268 92.1457 249.097V249.094C91.827 248.895 91.6514 248.779 91.6514 248.779L91.7758 232.734C95.3546 233.766 101.289 239.464 106.916 244.454L116.261 239.417L116.758 239.146L118.044 238.443L121.123 243.135Z" fill="#5F4AFF"/>
<path d="M120.259 244.046L119.859 244.446L116.262 239.411L116.759 239.141L120.259 244.046Z" fill="white"/>
<path d="M106.424 254.014C105.623 254.327 104.933 254.494 104.409 254.47C100.619 254.294 93.9973 250.267 92.1455 249.097V249.094L92.5445 243.891C92.5445 243.891 92.4921 247.995 95.717 249.838C98.2654 251.295 100.658 252.955 103.754 253.535C104.763 253.722 105.647 253.883 106.424 254.014Z" fill="#412EDB"/>
<path d="M75.9127 339.526L76.541 343.754H61.5537L69.8168 339.212L70.1942 267.321L81.9063 266.609L76.2269 336.249L75.9127 339.526Z" fill="#F9CBCB"/>
<path d="M87.1456 343.754C88.8087 342.264 82.4334 270.372 82.5354 266.609L94.2477 267.321L93.8701 339.212L102.133 343.754H87.1456Z" fill="#F9CBCB"/>
<path d="M94.7121 335.251L94.247 267.323L82.748 258.555L69.5128 266.176L68.9375 335.512H77.1021L81.6899 281.957L86.6149 335.199L94.7121 335.251Z" fill="#333382"/>
<path d="M99.7276 340.256C97.7854 339.748 97.1599 340.051 95.3917 339.009C94.4558 338.504 94.3707 336.732 93.3283 337.546C91.1699 338.969 88.8199 336.546 87.4896 336.846C87.8166 336.757 83.7474 344.571 86.9993 344.623C91.5967 345.122 96.7561 345.076 101.298 344.779C103.512 344.011 102.974 341.275 99.7276 340.256ZM63.3312 340.256C63.3312 340.255 63.3312 340.255 63.3312 340.255C65.2757 339.749 67.1059 339.73 68.8744 338.689C69.8104 338.183 69.3918 337.051 70.4342 337.866C72.5937 339.289 74.8093 336.858 76.1401 337.159C75.8132 337.07 79.3114 344.571 76.0596 344.623C71.4622 345.122 66.3027 345.076 61.7606 344.779C59.5469 344.011 60.0841 341.275 63.3312 340.256Z" fill="#333382"/>
<path d="M83.2296 237.732C82.9099 241.702 81.9934 245.612 80.6906 249.488C79.0031 243.719 77.9434 238.348 78.3747 232.473C78.7859 232.3 82.7795 232.443 83.2898 232.507C83.3925 234.258 83.3681 235.999 83.2296 237.732Z" fill="white"/>
<path d="M79.498 235.639C79.6638 235.953 79.8956 237.697 80.305 237.612C80.5554 237.537 81.4305 237.823 81.5471 237.339C81.729 236.813 82.1093 235.707 82.1093 235.639C82.032 235.541 81.1785 234.001 80.7896 233.802L79.9154 233.643C79.4818 233.498 79.3195 234.925 79.1572 235.253L79.498 235.639Z" fill="#333382"/>
<path d="M80.1404 237.408L79.1572 247.996L80.6905 251.447L82.385 247.969L81.3187 237.367L80.1404 237.408Z" fill="#333382"/>
<path d="M94.5549 299.758C90.3852 302.036 86.4341 302.318 82.8675 299.085C81.7018 292.35 81.0892 285.56 81.1883 278.702C81.0287 285.339 80.3717 292.445 79.3369 299.908C75.6198 302.219 71.2476 301.145 66.7109 299.22C66.7109 299.22 70.3408 284.193 71.2577 269.33C72.2767 252.896 70.6611 236.421 71.9937 235.251C73.9961 233.551 76.5842 232.887 78.3742 232.477C78.0423 236.625 78.5616 240.832 79.454 244.787C79.8122 246.376 80.2334 247.935 80.6902 249.491C81.205 247.956 81.6721 246.372 82.0654 244.779C83.0294 240.848 83.5439 236.672 83.2895 232.511C84.8646 232.963 87.4474 233.777 89.2959 235.627C90.2852 236.668 88.8092 251.055 89.8284 265.995C90.9685 282.557 94.5549 299.758 94.5549 299.758Z" fill="#212163"/>
<path d="M83.2299 237.732L80.7716 234.527C80.7716 234.527 78.3508 236.648 78.3508 236.733C78.1865 235.336 78.2932 233.867 78.3749 232.473C78.7862 232.3 82.7797 232.443 83.2901 232.507C83.3927 234.258 83.3684 235.999 83.2299 237.732Z" fill="#333382"/>
<path d="M79.988 266.228C79.5424 265.795 80.2323 265.105 80.6648 265.551C81.1102 265.983 80.4203 266.674 79.988 266.228ZM79.988 268.825C79.5424 268.392 80.2323 267.702 80.6648 268.148C81.1102 268.58 80.4203 269.27 79.988 268.825ZM79.988 271.421C79.5424 270.989 80.2321 270.299 80.6648 270.745C81.1102 271.177 80.4203 271.867 79.988 271.421ZM79.988 274.019C79.5424 273.586 80.2321 272.896 80.6648 273.342C81.1102 273.774 80.4203 274.464 79.988 274.019ZM79.988 276.615C79.5425 276.183 80.2319 275.493 80.6648 275.938C81.1102 276.371 80.4205 277.061 79.988 276.615ZM79.988 279.212C79.5424 278.779 80.2321 278.09 80.6648 278.535C81.1102 278.968 80.4205 279.658 79.988 279.212Z" fill="#412EDB"/>
<path d="M84.0001 235.865C83.5478 239.835 82.2508 243.745 80.4075 247.621C78.0195 241.852 76.5202 236.481 77.1305 230.606C77.7125 230.433 83.3631 230.576 84.0855 230.64C84.2305 232.391 84.1963 234.132 84.0001 235.865Z" fill="white"/>
<path d="M78.7205 233.772C78.955 234.086 79.2829 235.83 79.8624 235.745C80.2167 235.67 81.4549 235.956 81.6198 235.472C81.8773 234.946 82.4152 233.84 82.4152 233.772C82.3059 233.674 81.0981 232.134 80.548 231.935L79.311 231.776C78.6976 231.631 78.468 233.058 78.2383 233.386L78.7205 233.772Z" fill="#333382"/>
<path d="M79.6293 235.533L78.2383 246.121L80.408 249.572L82.8057 246.094L81.2968 235.492L79.6293 235.533Z" fill="#333382"/>
<path d="M100.027 297.891C94.1264 300.169 88.5356 300.451 83.4886 297.218L81.1127 276.835L78.4928 298.041C73.2329 300.352 67.0466 299.278 60.627 297.353C60.627 297.353 65.7633 282.327 67.0606 267.463C68.5028 251.029 66.2165 234.554 68.1021 233.384C70.9356 231.684 74.5979 231.02 77.131 230.609C76.6612 234.758 77.3961 238.965 78.6585 242.92C79.1658 244.509 79.7615 246.068 80.408 247.624C81.1363 246.089 81.7973 244.505 82.3538 242.912C83.7179 238.981 84.446 234.805 84.0859 230.644C86.3147 231.096 92.7379 231.865 93.9688 234.824C94.6151 236.377 90.3069 250.268 93.3387 264.128C96.8945 280.383 100.027 297.891 100.027 297.891Z" fill="#5F4AFF"/>
<path d="M84.0006 235.865L80.522 232.66C80.522 232.66 77.0966 234.781 77.0966 234.866C76.864 233.469 77.015 232.001 77.1308 230.606C77.7128 230.433 83.3634 230.576 84.0858 230.64C84.2309 232.391 84.1967 234.132 84.0006 235.865Z" fill="#333382"/>
<path d="M86.5855 242.911L87.0719 243.696C86.6282 244.029 80.7998 248.468 80.3986 248.784C80.0144 248.468 74.6214 244.037 74.2118 243.696C74.5254 243.192 76.0848 240.683 76.4303 240.128C76.3406 240.04 71.4478 235.058 71.3613 234.971L76.4047 230.728C76.6645 230.688 76.883 230.645 77.113 230.617C75.9996 234.691 77.3018 241.298 80.4071 247.623C83.5378 242.087 84.7914 235.962 84.0937 230.643C85.4609 230.809 89.5995 234.898 89.905 234.92C89.8126 235.013 84.9276 240.039 84.8362 240.128L86.5855 242.911Z" fill="#412EDB"/>
<path d="M80.4071 247.618C80.3277 247.548 74.6812 242.925 74.6127 242.854C74.8548 242.466 76.5015 239.834 76.6949 239.516L72.0869 234.949C72.2229 234.918 76.9448 230.499 77.1301 230.603C76.5072 236.136 77.9748 241.83 80.4071 247.618ZM84.904 240.054L86.6538 242.854C86.5661 242.918 80.4925 247.554 80.4071 247.618C83.0439 242.052 84.5713 236.417 84.0851 230.638C84.1427 230.642 84.2072 230.667 84.2811 230.672L89.1798 234.949L84.5713 239.516L84.904 240.054Z" fill="#8787FF"/>
<path d="M72.2178 219.668C68.6612 217.007 68.9609 209.536 72.818 208.979C73.5841 205.969 80.8953 202.597 85.7743 207.162C90.2133 211.315 87.0624 218.642 87.0624 218.642L72.2178 219.668Z" fill="#333382"/>
<path d="M77.2871 230.646C77.4471 230.833 77.6166 231.012 77.7767 231.182C79.7928 233.229 81.8276 233.348 83.8623 230.646L83.0806 226.365L82.7886 224.76L78.4648 224.734L77.2871 230.646Z" fill="#F9CBCB"/>
<path d="M77.2868 230.64C77.4467 230.827 77.6162 231.006 77.7764 231.176C77.9556 230.539 78.6336 228.407 79.5759 227.319C80.3388 226.445 82.0628 226.326 83.0802 226.36L82.7882 224.754L78.4645 224.729L77.2868 230.64ZM72.1796 218.312C72.5287 218.664 72.8739 218.98 73.2316 219.259L72.8009 218.396L72.635 218.076C72.635 218.076 72.5599 218.049 72.434 218.047C72.3789 218.036 72.3235 218.025 72.2506 218.016C72.2326 218.018 72.1994 218.04 72.1841 218.06C72.12 218.122 72.1157 218.23 72.1796 218.312Z" fill="#EBB0B0"/>
<path d="M74.0693 222.088L74.0869 222.086C74.213 222.088 74.3568 222.088 74.5158 222.068L74.6221 222.055L73.2318 219.264C72.8741 218.985 72.529 218.669 72.1799 218.317C72.1159 218.235 72.1202 218.127 72.1844 218.065C72.1999 218.045 72.2328 218.023 72.2508 218.021C71.7421 217.976 70.8669 218.014 70.3915 218.666C69.8388 219.418 70.4174 222.185 74.0693 222.088Z" fill="#EBB0B0"/>
<path d="M72.7962 217.794C73.0587 219.898 74.0181 221.826 75.3647 223.259L75.3667 223.275C75.6241 223.548 75.8958 223.805 76.179 224.042C77.7377 225.346 79.6539 226.047 81.555 225.81C84.2972 225.468 86.5649 222.775 87.0664 219.298C87.2057 218.401 87.2309 217.446 87.1093 216.472C86.5157 211.714 83.7505 207.693 79.4711 208.227C76.5227 208.596 74.1897 210.744 73.2147 213.596C72.7755 214.887 72.6121 216.318 72.7962 217.794Z" fill="#F9CBCB"/>
<path d="M76.7985 268.055L75.2616 265.744C75.3182 265.63 75.3488 265.504 75.3384 265.376C75.295 264.84 75.0628 264.414 74.6769 264.076C74.7048 264.05 74.7319 264.023 74.7526 263.992L74.7555 263.989C74.9217 263.765 74.9351 263.454 74.7746 263.216L67.9994 252.548L71.3616 244.479L67.7783 233.812C67.7578 233.826 58.1511 249.279 59.2948 254.933C59.3947 255.758 59.829 256.763 60.4786 257.863C62.308 261.289 65.7861 265.775 68.5329 268.594C68.7199 268.784 68.9944 268.831 69.2272 268.736L69.1679 268.794C69.149 269.337 69.4421 269.712 70.0116 269.94C70.2754 270.045 70.578 269.996 70.7902 269.807L70.8285 269.772C71.6925 270.6 72.2357 271.096 72.2357 271.096L76.7985 268.055ZM79.3528 251.523C79.3528 250.854 79.895 250.312 80.5635 250.312C81.2322 250.312 81.7742 250.854 81.7742 251.523C81.7742 252.192 81.2322 252.734 80.5635 252.734C79.8949 252.734 79.3528 252.192 79.3528 251.523Z" fill="#412EDB"/>
<path d="M79.1074 251.336C79.1074 250.667 79.6494 250.125 80.3181 250.125C80.9866 250.125 81.5288 250.667 81.5288 251.336C81.5288 252.005 80.9866 252.547 80.3181 252.547C79.6493 252.547 79.1074 252.005 79.1074 251.336Z" fill="#8787FF"/>
<path d="M79.3535 256.61C79.3535 255.941 79.8957 255.398 80.5642 255.398C81.2329 255.398 81.7749 255.941 81.7749 256.61C81.7749 257.278 81.2329 257.821 80.5642 257.821C79.8955 257.821 79.3535 257.278 79.3535 256.61Z" fill="#412EDB"/>
<path d="M79.1074 256.422C79.1074 255.753 79.6494 255.211 80.3181 255.211C80.9866 255.211 81.5288 255.753 81.5288 256.422C81.5288 257.091 80.9866 257.633 80.3181 257.633C79.6493 257.633 79.1074 257.091 79.1074 256.422Z" fill="#8787FF"/>
<path d="M79.3535 261.688C79.3535 261.019 79.8957 260.477 80.5642 260.477C81.2329 260.477 81.7749 261.019 81.7749 261.688C81.7749 262.357 81.2329 262.899 80.5642 262.899C79.8955 262.899 79.3535 262.356 79.3535 261.688Z" fill="#412EDB"/>
<path d="M79.1074 261.5C79.1074 260.831 79.6494 260.289 80.3181 260.289C80.9866 260.289 81.5288 260.831 81.5288 261.5C81.5288 262.169 80.9866 262.711 80.3181 262.711C79.6493 262.711 79.1074 262.169 79.1074 261.5Z" fill="#8787FF"/>
<path d="M87.6175 215.975C87.6175 215.975 84.3327 215.482 83.61 209.985C82.8475 211.946 81.0777 214.598 78.0812 215.27C78.2395 214.596 78.1286 213.964 77.8562 213.466C77.8679 214.97 76.7524 216.466 75.2131 216.896C75.3163 216.293 75.3695 215.155 74.6745 214.963C74.4778 216.581 73.7376 218.564 72.3663 218.847C71.6457 217.98 71.3278 216.46 71.1016 214.792C71.1016 214.792 72.7599 210.477 72.8186 210.359C72.8771 210.242 76.618 207.064 76.618 207.064L82.0234 206.664L86.1227 210.76C87.8196 212.475 88.8235 214.203 87.6175 215.975Z" fill="#333382"/>
<path d="M77.639 268.256L70.8046 273.599C70.7422 273.648 70.6522 273.637 70.6033 273.575L69.6701 272.38C69.6213 272.318 69.6324 272.228 69.6947 272.179L76.5297 266.835C76.5921 266.786 76.6821 266.797 76.7309 266.86L77.6639 268.055C77.7123 268.117 77.7013 268.207 77.639 268.256ZM83.9275 268.256L90.7619 273.6C90.8242 273.648 90.9143 273.637 90.9631 273.575L91.8962 272.38C91.945 272.318 91.9339 272.228 91.8715 272.179L85.0366 266.835C84.9742 266.786 84.884 266.798 84.8353 266.86L83.9028 268.055C83.8542 268.117 83.8651 268.207 83.9275 268.256Z" fill="#8787FF"/>
<path d="M76.5573 217.038C76.8046 216.753 77.1432 216.584 77.5012 216.499C77.8555 216.422 78.2755 216.424 78.6324 216.678C78.7302 216.747 78.7534 216.883 78.6836 216.982C78.6142 217.08 78.478 217.103 78.38 217.033C78.3741 217.029 78.3663 217.022 78.3609 217.018C77.9718 216.677 77.1612 216.788 76.7273 217.193L76.7226 217.198C76.676 217.241 76.6034 217.238 76.5601 217.192C76.5198 217.148 76.5192 217.082 76.5573 217.038ZM84.6966 216.091C84.1656 215.825 83.3573 215.948 83.0797 216.385C83.0163 216.487 82.8823 216.519 82.78 216.455C82.678 216.392 82.6463 216.258 82.7097 216.155C82.7135 216.149 82.7193 216.141 82.7238 216.135C82.9942 215.791 83.3968 215.671 83.7581 215.644C84.1252 215.624 84.4981 215.69 84.8158 215.894C84.8692 215.928 84.8848 215.999 84.8508 216.053C84.8189 216.103 84.7548 216.119 84.7029 216.094L84.6966 216.091Z" fill="#0B2D50"/>
<path d="M76.9072 218.138C76.8332 217.625 77.1888 217.149 77.7014 217.075C78.2143 217.001 78.6898 217.357 78.7637 217.87C78.8377 218.382 78.4819 218.858 77.9693 218.932C77.4566 219.006 76.9812 218.65 76.9072 218.138ZM82.9865 217.26C82.9125 216.747 83.2681 216.271 83.7809 216.197C84.2934 216.123 84.7691 216.479 84.8432 216.992C84.9172 217.505 84.5613 217.981 84.0488 218.055C83.536 218.129 83.0606 217.773 82.9865 217.26Z" fill="#FDEAEA"/>
<path d="M77.1266 218.101C77.07 217.709 77.3418 217.346 77.7335 217.289C78.1252 217.233 78.4886 217.505 78.5451 217.896C78.6017 218.288 78.3299 218.652 77.9381 218.708C77.5467 218.765 77.1831 218.493 77.1266 218.101ZM83.2039 217.21C83.1474 216.818 83.4192 216.455 83.811 216.398C84.2028 216.341 84.5661 216.613 84.6227 217.005C84.6792 217.397 84.4074 217.761 84.0156 217.817C83.624 217.874 83.2605 217.602 83.2039 217.21Z" fill="#0B2D50"/>
<path d="M77.9044 217.747C77.8203 217.684 77.8031 217.565 77.866 217.481C77.9287 217.397 78.0479 217.38 78.1321 217.442C78.216 217.505 78.2331 217.624 78.1704 217.709C78.1076 217.793 77.9883 217.81 77.9044 217.747ZM83.9545 216.874C83.8704 216.811 83.8533 216.692 83.9162 216.607C83.9792 216.524 84.0981 216.506 84.182 216.569C84.2662 216.632 84.2833 216.751 84.2204 216.835C84.1577 216.919 84.0388 216.936 83.9545 216.874Z" fill="white"/>
<path d="M82.9185 221.156C82.8378 221.722 82.6123 222.153 82.3129 222.432C82.314 222.44 82.314 222.44 82.314 222.44C81.7961 222.942 81.0545 223.02 80.4568 222.664C80.1106 222.462 79.8177 222.121 79.6289 221.631C79.7334 221.638 79.8292 221.639 79.9317 221.632C80.8563 221.646 81.7455 221.518 82.6285 221.243C82.7285 221.22 82.8205 221.192 82.9185 221.156Z" fill="#0B2D50"/>
<path d="M79.9316 221.631C79.9599 221.827 80.128 221.971 80.3256 221.973C81.0285 221.979 81.7042 221.907 82.3494 221.714C82.5398 221.658 82.6612 221.471 82.6329 221.274L82.6284 221.242C81.7299 221.491 80.8415 221.621 79.9316 221.631Z" fill="white"/>
<path d="M82.3131 222.43C82.3142 222.437 82.3142 222.437 82.3142 222.437C81.7963 222.94 81.0547 223.018 80.457 222.661C80.5941 222.434 80.9212 222.247 81.3191 222.19C81.7383 222.129 82.1288 222.228 82.3131 222.43Z" fill="#FF6ED1"/>
<path d="M76.4634 219.954C76.4265 219.698 76.8041 219.431 77.3068 219.359C77.8096 219.286 78.2471 219.435 78.2842 219.691C78.3212 219.948 77.9436 220.214 77.4407 220.287C76.9379 220.36 76.5004 220.211 76.4634 219.954ZM84.1804 218.841C84.1434 218.584 84.521 218.318 85.0237 218.245C85.5265 218.172 85.964 218.321 86.0011 218.578C86.0381 218.834 85.6605 219.101 85.1578 219.173C84.655 219.246 84.2175 219.097 84.1804 218.841Z" fill="#FFB3B3"/>
<path d="M47.3826 348.068H47.2013C46.3551 348.068 45.6689 347.382 45.6689 346.535V316.275C45.6689 315.429 46.3551 314.742 47.2013 314.742H47.3826C48.2288 314.742 48.915 315.429 48.915 316.275V346.535C48.915 347.382 48.229 348.068 47.3826 348.068ZM197.193 348.068H197.012C196.166 348.068 195.48 347.382 195.48 346.535V316.275C195.48 315.429 196.166 314.742 197.012 314.742H197.193C198.04 314.742 198.726 315.429 198.726 316.275V346.535C198.726 347.382 198.04 348.068 197.193 348.068Z" fill="#7676B5"/>
<path d="M204.225 320.361H41.7927C38.0245 320.361 35.0674 317.128 35.4006 313.373L39.5443 266.703C39.8384 263.391 42.6121 260.852 45.9363 260.852H200.081C203.405 260.852 206.179 263.391 206.473 266.703L210.617 313.373C210.95 317.128 207.993 320.361 204.225 320.361Z" fill="#5246ED"/>
<path d="M53.7666 280.551H59.0798L60.9927 290.69L63.7923 280.551H69.0864L71.8929 290.676L73.8079 280.551H79.0936L75.1031 298.662H69.6175L66.4423 287.259L63.2795 298.662H57.794L53.7666 280.551ZM80.909 280.551H95.9V284.418H86.5153V287.296H95.2211V290.99H86.5153V294.56H96.1719V298.662H80.909V280.551ZM99.1848 280.551H104.779V294.202H113.509V298.662H99.1848V280.551ZM127.673 291.249L132.575 292.732C132.246 294.107 131.727 295.256 131.019 296.179C130.311 297.101 129.433 297.797 128.383 298.266C127.333 298.736 125.998 298.97 124.376 298.97C122.408 298.97 120.801 298.684 119.554 298.112C118.307 297.54 117.23 296.534 116.325 295.094C115.419 293.654 114.966 291.81 114.966 289.563C114.966 286.567 115.763 284.265 117.356 282.656C118.949 281.047 121.203 280.242 124.117 280.242C126.397 280.242 128.19 280.704 129.495 281.626C130.799 282.548 131.769 283.965 132.403 285.875L127.463 286.975C127.291 286.423 127.109 286.02 126.92 285.764C126.607 285.336 126.224 285.007 125.772 284.776C125.319 284.545 124.813 284.43 124.253 284.43C122.985 284.43 122.013 284.94 121.339 285.96C120.828 286.717 120.573 287.906 120.573 289.526C120.573 291.533 120.877 292.909 121.487 293.653C122.096 294.398 122.952 294.77 124.055 294.77C125.125 294.77 125.934 294.469 126.482 293.868C127.029 293.267 127.426 292.394 127.673 291.249ZM134.588 289.619C134.588 286.662 135.411 284.36 137.058 282.713C138.704 281.066 140.997 280.242 143.936 280.242C146.949 280.242 149.271 281.051 150.901 282.67C152.531 284.288 153.346 286.555 153.346 289.47C153.346 291.587 152.989 293.323 152.278 294.678C151.565 296.032 150.536 297.087 149.19 297.84C147.844 298.594 146.167 298.971 144.158 298.971C142.117 298.971 140.427 298.645 139.089 297.995C137.751 297.344 136.667 296.314 135.835 294.906C135.004 293.498 134.588 291.736 134.588 289.619ZM140.182 289.643C140.182 291.472 140.522 292.786 141.201 293.584C141.88 294.383 142.804 294.783 143.973 294.783C145.175 294.783 146.105 294.392 146.764 293.609C147.422 292.827 147.752 291.422 147.752 289.396C147.752 287.691 147.408 286.446 146.721 285.659C146.033 284.873 145.101 284.479 143.924 284.479C142.796 284.479 141.89 284.879 141.207 285.678C140.524 286.477 140.182 287.799 140.182 289.643ZM156.297 280.551H163.654L166.491 291.571L169.308 280.551H176.66V298.662H172.078V284.85L168.549 298.662H164.402L160.878 284.85V298.662H156.297V280.551H156.297ZM180.216 280.551H195.208V284.418H185.823V287.296H194.528V290.99H185.823V294.56H195.479V298.662H180.216L180.216 280.551Z" fill="#DB44AB"/>
<path d="M52.1523 279.036H57.4656L59.3784 289.174L62.178 279.036H67.4722L70.2787 289.161L72.1937 279.036H77.4793L73.489 297.146H68.0034L64.8284 285.744L61.6656 297.146H56.1801L52.1523 279.036ZM79.2947 279.036H94.2858V282.902H84.901V285.781H93.6069V289.475H84.901V293.045H94.5576V297.146H79.2947V279.036ZM97.5707 279.036H103.165V292.687H111.895V297.146H97.5709L97.5707 279.036ZM126.059 289.734L130.961 291.216C130.632 292.592 130.113 293.741 129.405 294.663C128.697 295.585 127.818 296.281 126.769 296.751C125.719 297.22 124.383 297.455 122.762 297.455C120.794 297.455 119.187 297.169 117.94 296.597C116.692 296.025 115.616 295.019 114.71 293.578C113.805 292.138 113.352 290.295 113.352 288.047C113.352 285.052 114.149 282.749 115.742 281.14C117.335 279.531 119.588 278.727 122.502 278.727C124.783 278.727 126.575 279.188 127.88 280.11C129.185 281.033 130.155 282.449 130.788 284.36L125.849 285.459C125.676 284.908 125.495 284.504 125.306 284.249C124.993 283.821 124.61 283.491 124.157 283.26C123.705 283.03 123.198 282.914 122.638 282.914C121.371 282.914 120.399 283.425 119.724 284.445C119.214 285.201 118.959 286.39 118.959 288.01C118.959 290.018 119.263 291.394 119.873 292.138C120.482 292.882 121.338 293.254 122.441 293.254C123.511 293.254 124.32 292.954 124.868 292.353C125.415 291.752 125.812 290.879 126.059 289.734ZM132.974 288.103C132.974 285.147 133.797 282.845 135.444 281.197C137.09 279.55 139.383 278.727 142.322 278.727C145.335 278.727 147.657 279.536 149.287 281.154C150.917 282.773 151.732 285.039 151.732 287.955C151.732 290.072 151.375 291.807 150.663 293.162C149.951 294.517 148.922 295.571 147.576 296.324C146.23 297.078 144.553 297.455 142.544 297.455C140.503 297.455 138.813 297.13 137.475 296.479C136.137 295.828 135.053 294.799 134.221 293.39C133.39 291.982 132.974 290.22 132.974 288.103ZM138.568 288.128C138.568 289.956 138.908 291.27 139.587 292.069C140.266 292.868 141.19 293.267 142.359 293.267C143.561 293.267 144.491 292.876 145.15 292.093C145.808 291.311 146.138 289.907 146.138 287.881C146.138 286.176 145.794 284.93 145.107 284.144C144.419 283.357 143.487 282.964 142.31 282.964C141.182 282.964 140.276 283.363 139.593 284.162C138.909 284.961 138.568 286.283 138.568 288.128ZM154.683 279.036H162.04L164.877 290.055L167.694 279.036H175.046V297.146H170.464V283.335L166.934 297.146H162.788L159.264 283.335V297.146H154.683V279.036H154.683ZM178.602 279.036H193.593V282.902H184.209V285.781H192.914V289.475H184.209V293.045H193.865V297.146H178.602V279.036Z" fill="white"/>
<path d="M210.617 313.373L206.474 266.703C206.18 263.391 203.406 260.852 200.082 260.852H199.554C199.805 261.449 199.97 262.092 200.03 262.769L204.174 309.439C204.507 313.194 201.55 316.427 197.782 316.427H35.876C36.8426 318.724 39.1119 320.361 41.7932 320.361H204.225C207.993 320.361 210.951 317.128 210.617 313.373Z" fill="#5246ED"/>
<path d="M73.7565 265.29L69.5252 267.745C69.5252 267.745 68.597 267.161 67.1146 265.732C63.7397 262.475 58.1467 256.672 57.7335 253.584C57.0322 248.311 67.3349 234.039 67.3349 234.039L70.695 244.432L65.3672 253.005L71.3705 261.797L73.7565 265.29Z" fill="#F9CBCB"/>
<path d="M71.8574 261.625L71.8545 261.628C71.8318 261.662 71.8003 261.694 71.769 261.722C70.4235 262.914 68.2969 264.739 67.0599 265.888C66.8319 266.096 66.484 266.088 66.2646 265.871C62.9154 262.518 58.3629 256.512 57.7329 253.583C56.6098 248.362 65.7448 234.955 67.9995 233.461L72.4041 243.537L68.149 248.858L66.0339 252.537L71.8661 260.924C72.0141 261.138 72.0057 261.42 71.8574 261.625Z" fill="#5F4AFF"/>
<path d="M75.1131 276.304C76.1514 276.134 74.5736 272.474 74.9523 272.244C75.7528 271.756 77.764 275.109 78.5198 274.743C79.6134 274.212 76.2022 271.063 76.4768 270.641C76.9251 269.953 80.241 272.831 80.4381 271.573C80.6351 270.315 75.9551 269.056 76.1974 267.706C76.4397 266.355 78.9345 268.696 79.3169 267.352C79.6455 266.197 76.8215 265.688 75.6959 265.223C74.4097 264.691 72.5897 264.725 72.2353 264.853L69.8686 267.043C69.4016 268.119 69.2356 269.698 70.5314 271.423C71.5186 272.736 71.3129 275.54 71.7872 275.616C72.7826 275.777 72.1348 272.769 73.0319 272.695C73.5521 272.651 74.3751 276.425 75.1131 276.304Z" fill="#FFCCCC"/>
<path d="M50.133 245.798C50.2656 245.381 50.0354 244.936 49.6187 244.803C49.2021 244.67 48.757 244.901 48.6244 245.318C48.4918 245.734 48.722 246.18 49.1387 246.312C49.5553 246.445 50.0004 246.215 50.133 245.798Z" fill="#C6B5FF"/>
<defs>
<linearGradient id="paint0_linear_13603_16332" x1="362.211" y1="231.221" x2="293.492" y2="304.279" gradientUnits="userSpaceOnUse">
<stop stop-color="#FF928E"/>
<stop offset="1" stop-color="#FEB3B1"/>
</linearGradient>
<linearGradient id="paint1_linear_13603_16332" x1="332.025" y1="247.19" x2="427.133" y2="193.107" gradientUnits="userSpaceOnUse">
<stop stop-color="#FE7062"/>
<stop offset="1" stop-color="#FF928E"/>
</linearGradient>
</defs>
</svg>
