<svg width="204" height="135" viewBox="0 0 204 135" fill="none" xmlns="http://www.w3.org/2000/svg">
<g id="Group 13 Copy">
<g id="Group 18">
<g id="chemny">
<path id="Fill 6" fill-rule="evenodd" clip-rule="evenodd" d="M171.848 76.7731H161.699V57.2344H171.848V76.7731Z" fill="#AAD3FC"/>
<path id="Fill 7" fill-rule="evenodd" clip-rule="evenodd" d="M171.848 62.3984V64.2417L161.699 63.0604V62.3984H171.848Z" fill="#73B2F1"/>
<path id="Fill 8" fill-rule="evenodd" clip-rule="evenodd" d="M173.297 62.3916H160.611V60.1797H173.297V62.3916Z" fill="#274DB2"/>
</g>
<g id="Group 9">
<path id="Fill 9" fill-rule="evenodd" clip-rule="evenodd" d="M36.293 137.228H1.86072C2.34518 135.642 3.59193 134.401 5.02297 133.836C6.55942 133.229 8.26411 133.32 9.84244 133.778C9.55274 133.694 9.16252 133.167 8.95938 132.943C8.47353 132.408 8.08261 131.846 7.97091 131.109C7.84736 130.285 8.0847 129.448 8.5922 128.798C9.44035 127.709 10.9175 127.317 12.2396 127.458C12.3052 127.465 12.3715 127.473 12.4379 127.484C12.6961 127.523 12.9502 127.588 13.1939 127.684C14.2528 128.102 15.1889 128.834 15.9896 129.639C16.1404 129.791 16.2898 129.945 16.4273 130.11C16.4273 130.11 14.1886 128.228 13.663 126.799C11.7202 122.737 15.8291 116.839 20.9424 118.508C22.9975 119.384 24.6743 121.175 25.7821 123.286C21.6915 117.093 28.4725 113.332 30.8815 118.904C29.3919 114.309 31.6145 109.505 36.1045 112.201C36.1708 112.225 36.2287 112.256 36.293 112.281V137.228Z" fill="#489493"/>
<path id="Fill 10" fill-rule="evenodd" clip-rule="evenodd" d="M36.2923 137.227H15.9961C16.281 136.293 17.0165 135.562 17.8595 135.229C18.7654 134.872 19.7705 134.926 20.7008 135.195C20.2266 134.262 20.874 133.005 21.7827 132.642C22.6914 132.278 23.7076 132.58 24.5821 133.034C23.8278 132.679 23.262 131.926 22.9526 131.084C21.8072 128.691 24.2294 125.217 27.2439 126.2C28.455 126.716 29.4433 127.771 30.097 129.015C27.6846 125.368 31.6825 123.151 33.1025 126.434C31.7216 122.844 34.3862 120.738 36.293 121.548L36.2923 137.227Z" fill="#6FB7AB"/>
<path id="Fill 11" fill-rule="evenodd" clip-rule="evenodd" d="M15.4961 117.612C15.9965 118.119 16.7207 118.051 16.7207 118.051C16.7207 118.051 16.6335 117.161 16.1331 116.653C15.6327 116.145 14.9085 116.214 14.9085 116.214C14.9085 116.214 14.9957 117.104 15.4961 117.612Z" fill="#489493"/>
<path id="Fill 12" fill-rule="evenodd" clip-rule="evenodd" d="M31.0808 123.394C31.452 124.108 32.2519 124.323 32.2519 124.323C32.2519 124.323 32.45 123.383 32.0788 122.671C31.7076 121.958 30.9077 121.742 30.9077 121.742C30.9077 121.742 30.7096 122.682 31.0808 123.394Z" fill="#6FB7AB"/>
<path id="Fill 13" fill-rule="evenodd" clip-rule="evenodd" d="M17.1356 115.648C16.9221 116.666 17.4205 117.687 17.4205 117.687C17.4205 117.687 18.2655 117.055 18.479 116.037C18.6925 115.019 18.1948 114 18.1948 114C18.1948 114 17.3491 114.63 17.1356 115.648Z" fill="#489493"/>
</g>
<path id="Fill 26" fill-rule="evenodd" clip-rule="evenodd" d="M71.8245 51.1289L144.801 49.8594L187.069 91.1488H30.8556L71.8245 51.1289Z" fill="#DE4855"/>
<g id="Group 12">
<path id="Fill 27" fill-rule="evenodd" clip-rule="evenodd" d="M81.9609 134.289H34.4807V91.1562H81.9609V134.289Z" fill="#AAD3FC"/>
<path id="Combined Shape" fill-rule="evenodd" clip-rule="evenodd" d="M39.5541 98.0686H76.5234V97.5156H39.5541V98.0686ZM39.5541 103.967H76.5234V103.414H39.5541V103.967ZM76.5234 110.234H39.5541V109.681H76.5234V110.234ZM39.5541 116.132H76.5234V115.579H39.5541V116.132ZM76.5234 122.401H39.5541V121.848H76.5234V122.401ZM39.5541 128.297H76.5234V127.744H39.5541V128.297Z" fill="#73B2F1"/>
<g id="Group 10">
<path id="Fill 29" fill-rule="evenodd" clip-rule="evenodd" d="M137.007 134.213H77.0289V90.9844H137.007V134.213Z" fill="#2E4078"/>
<path id="Combined Shape_2" fill-rule="evenodd" clip-rule="evenodd" d="M77.0299 98.1687H137.008V97.6172H77.0299V98.1687ZM77.0299 104.053H137.008V103.502H77.0299V104.053ZM137.008 110.302H77.0299V109.751H137.008V110.302ZM77.0299 116.187H137.008V115.635H77.0299V116.187ZM137.008 122.436H77.0299V121.885H137.008V122.436ZM77.0299 128.32H137.008V127.768H77.0299V128.32Z" fill="#274DB2"/>
</g>
<path id="Fill 28" fill-rule="evenodd" clip-rule="evenodd" d="M39.5537 134.289H34.4795V91.1562H39.5537V134.289Z" fill="#2E4078"/>
<path id="Combined Shape_3" fill-rule="evenodd" clip-rule="evenodd" d="M34.4805 98.0686H39.5547V97.5156H34.4805V98.0686ZM34.4805 103.967H39.5547V103.414H34.4805V103.967ZM39.5547 110.234H34.4805V109.681H39.5547V110.234ZM34.4805 116.132H39.5547V115.579H34.4805V116.132ZM39.5547 122.401H34.4805V121.848H39.5547V122.401ZM34.4805 128.297H39.5547V127.744H34.4805V128.297Z" fill="#274DB2"/>
<path id="Fill 59" fill-rule="evenodd" clip-rule="evenodd" d="M76.8857 91.1562V94.1055L39.5539 92.1205V91.1562H76.8857Z" fill="#73B2F1"/>
<path id="Fill 60" fill-rule="evenodd" clip-rule="evenodd" d="M39.5537 91.1562V92.2622L34.4795 91.9441V91.1562H39.5537Z" fill="#1C2D64"/>
<path id="Fill 61" fill-rule="evenodd" clip-rule="evenodd" d="M136.139 91.1562V94.4742L76.8863 94.1883V91.1562H136.139Z" fill="#1C2D64"/>
</g>
<g id="Group 11">
<path id="Fill 48" fill-rule="evenodd" clip-rule="evenodd" d="M183.445 134.281H135.965V91.1484H183.445V134.281Z" fill="#AAD3FC"/>
<path id="Combined Shape_4" fill-rule="evenodd" clip-rule="evenodd" d="M136.327 98.0608H183.444V97.5078H136.327V98.0608ZM136.327 103.959H183.444V103.406H136.327V103.959ZM183.444 110.227H136.327V109.674H183.444V110.227ZM136.327 116.124H183.444V115.571H136.327V116.124ZM183.444 122.393H136.327V121.84H183.444V122.393ZM136.327 128.289H183.444V127.736H136.327V128.289Z" fill="#73B2F1"/>
<path id="Fill 58" fill-rule="evenodd" clip-rule="evenodd" d="M135.965 91.8546L183.445 94.4663V91.1484H135.965V91.8546Z" fill="#73B2F1"/>
</g>
<path id="Fill 65" fill-rule="evenodd" clip-rule="evenodd" d="M186.345 137.23H33.0306V134.281H186.345V137.23Z" fill="#6FB7AB"/>
<g id="Group 8">
<path id="Fill 108" fill-rule="evenodd" clip-rule="evenodd" d="M34.4805 132.067H0.773102V130.961H34.4805V132.067Z" fill="#A6BEC4"/>
<path id="Fill 110" fill-rule="evenodd" clip-rule="evenodd" d="M32.1069 137.229H33.59C33.6811 137.229 33.7549 137.151 33.7549 137.055V129.929C33.7549 129.89 33.7427 129.852 33.7202 129.822L32.9793 128.818C32.9126 128.727 32.7843 128.727 32.7182 128.818L31.9767 129.822C31.9542 129.852 31.9427 129.89 31.9427 129.929V137.055C31.9427 137.151 32.0164 137.229 32.1069 137.229Z" fill="#AAD3FC"/>
<path id="Fill 111" fill-rule="evenodd" clip-rule="evenodd" d="M28.485 137.229H29.9664C30.0575 137.229 30.1318 137.151 30.1318 137.055V129.929C30.1318 129.89 30.119 129.852 30.0966 129.822L29.3562 128.818C29.2895 128.727 29.1613 128.727 29.0946 128.818L28.3542 129.822C28.3318 129.852 28.3196 129.89 28.3196 129.929V137.055C28.3196 137.151 28.394 137.229 28.485 137.229Z" fill="#AAD3FC"/>
<path id="Fill 112" fill-rule="evenodd" clip-rule="evenodd" d="M25.2223 137.229H26.7038C26.7948 137.229 26.8691 137.151 26.8691 137.055V129.929C26.8691 129.89 26.8563 129.852 26.8339 129.822L26.0935 128.818C26.0275 128.727 25.8986 128.727 25.8326 128.818L25.0915 129.822C25.0691 129.852 25.0569 129.89 25.0569 129.929V137.055C25.0569 137.151 25.1313 137.229 25.2223 137.229Z" fill="#AAD3FC"/>
<path id="Fill 113" fill-rule="evenodd" clip-rule="evenodd" d="M21.9606 137.229H23.4426C23.5337 137.229 23.6074 137.151 23.6074 137.055V129.929C23.6074 129.89 23.5959 129.852 23.5734 129.822L22.8315 128.818C22.7661 128.727 22.6372 128.727 22.5711 128.818L21.8305 129.822C21.808 129.852 21.7952 129.89 21.7952 129.929V137.055C21.7952 137.151 21.8689 137.229 21.9606 137.229Z" fill="#AAD3FC"/>
<path id="Fill 114" fill-rule="evenodd" clip-rule="evenodd" d="M18.6989 137.229H20.1803C20.272 137.229 20.3457 137.151 20.3457 137.055V129.929C20.3457 129.89 20.3342 129.852 20.3117 129.822L19.5704 128.818C19.5044 128.727 19.3761 128.727 19.3094 128.818L18.5687 129.822C18.5463 129.852 18.5335 129.89 18.5335 129.929V137.055C18.5335 137.151 18.6079 137.229 18.6989 137.229Z" fill="#AAD3FC"/>
<path id="Fill 115" fill-rule="evenodd" clip-rule="evenodd" d="M15.0733 137.229H16.5558C16.6469 137.229 16.7207 137.151 16.7207 137.055V129.929C16.7207 129.89 16.7092 129.852 16.6861 129.822L15.9451 128.818C15.8791 128.727 15.7501 128.727 15.684 128.818L14.9431 129.822C14.92 129.852 14.9085 129.89 14.9085 129.929V137.055C14.9085 137.151 14.9823 137.229 15.0733 137.229Z" fill="#AAD3FC"/>
<path id="Fill 116" fill-rule="evenodd" clip-rule="evenodd" d="M11.8112 137.229H13.2926C13.3843 137.229 13.458 137.151 13.458 137.055V129.929C13.458 129.89 13.4452 129.852 13.4227 129.822L12.6821 128.818C12.616 128.727 12.4871 128.727 12.4211 128.818L11.6804 129.822C11.6573 129.852 11.6458 129.89 11.6458 129.929V137.055C11.6458 137.151 11.7195 137.229 11.8112 137.229Z" fill="#AAD3FC"/>
<path id="Fill 117" fill-rule="evenodd" clip-rule="evenodd" d="M8.54951 137.229H10.0308C10.1225 137.229 10.1963 137.151 10.1963 137.055V129.929C10.1963 129.89 10.1835 129.852 10.161 129.822L9.42035 128.818C9.3543 128.727 9.22541 128.727 9.16 128.818L8.41805 129.822C8.39561 129.852 8.38407 129.89 8.38407 129.929V137.055C8.38407 137.151 8.45781 137.229 8.54951 137.229Z" fill="#AAD3FC"/>
<path id="Fill 118" fill-rule="evenodd" clip-rule="evenodd" d="M5.28618 137.229H6.76815C6.85985 137.229 6.93359 137.151 6.93359 137.055V129.929C6.93359 129.89 6.92141 129.852 6.89897 129.822L6.15766 128.818C6.09161 128.727 5.96271 128.727 5.8973 128.818L5.156 129.822C5.13355 129.852 5.12137 129.89 5.12137 129.929V137.055C5.12137 137.151 5.19512 137.229 5.28618 137.229Z" fill="#AAD3FC"/>
<path id="Fill 119" fill-rule="evenodd" clip-rule="evenodd" d="M1.66274 137.229H3.14482C3.23521 137.229 3.30957 137.151 3.30957 137.055V129.929C3.30957 129.89 3.29739 129.852 3.27495 129.822L2.53455 128.818C2.46788 128.727 2.33967 128.727 2.27301 128.818L1.5326 129.822C1.51017 129.852 1.49735 129.89 1.49735 129.929V137.055C1.49735 137.151 1.57235 137.229 1.66274 137.229Z" fill="#AAD3FC"/>
</g>
</g>
<g id="Group 4">
<g id="Group 16">
<path id="Fill 57" fill-rule="evenodd" clip-rule="evenodd" d="M134.438 134.218H136.505L135.214 47.5156H134.438V134.218Z" fill="#73B2F1"/>
<path id="Fill 62" fill-rule="evenodd" clip-rule="evenodd" d="M80.5026 90.5279H134.438V23.6588L107.47 2.23438L80.5026 23.6588V90.5279Z" fill="#AAD3FC"/>
<path id="Fill 63" fill-rule="evenodd" clip-rule="evenodd" d="M107.47 2.23438L134.438 23.6588V28.5051L108.727 8.26834L80.5026 30.6908V23.6588L107.47 2.23438Z" fill="#73B2F1"/>
<path id="Fill 64" fill-rule="evenodd" clip-rule="evenodd" d="M76.2187 24.2252L107.47 0.351562L138.701 24.4649L135.656 27.564L107.47 5.17183L79.404 27.4688L76.2187 24.2252Z" fill="#DE4855"/>
</g>
<g id="Group 3">
<path id="Fill 76" fill-rule="evenodd" clip-rule="evenodd" d="M125.666 89.0992H117.7V65.1641H125.666V89.0992Z" fill="#274DB2"/>
<path id="Fill 77" fill-rule="evenodd" clip-rule="evenodd" d="M116.253 89.0992H108.287V65.1641H116.253V89.0992Z" fill="#274DB2"/>
<path id="Fill 78" fill-rule="evenodd" clip-rule="evenodd" d="M106.477 89.0992H98.511V65.1641H106.477V89.0992Z" fill="#274DB2"/>
<path id="Fill 79" fill-rule="evenodd" clip-rule="evenodd" d="M97.0635 89.0992H89.0979V65.1641H97.0635V89.0992Z" fill="#274DB2"/>
<path id="Fill 80" fill-rule="evenodd" clip-rule="evenodd" d="M88.0106 63.6875H127.943L128.562 90.5685H127.309V63.9204H88.0106V63.6875Z" fill="#73B2F1"/>
</g>
<g id="Group">
<path id="Fill 81" fill-rule="evenodd" clip-rule="evenodd" d="M116.253 48.2242H108.287V24.2891H116.253V48.2242Z" fill="#274DB2"/>
<path id="Fill 82" fill-rule="evenodd" clip-rule="evenodd" d="M106.477 48.2242H98.511V24.2891H106.477V48.2242Z" fill="#274DB2"/>
<path id="Fill 83" fill-rule="evenodd" clip-rule="evenodd" d="M97.4249 22.8125H118.174L118.787 49.6935H117.547V23.0447H97.4249V22.8125Z" fill="#73B2F1"/>
</g>
<g id="Group 2">
<path id="Fill 84" fill-rule="evenodd" clip-rule="evenodd" d="M128.562 51.9047H86.2002V49.6953H128.562V51.9047Z" fill="#274DB2"/>
<path id="Fill 85" fill-rule="evenodd" clip-rule="evenodd" d="M86.2004 51.6048H128.74V49.3281L130.373 51.6048V53.7469L86.2004 52.1089V51.6048Z" fill="#73B2F1"/>
<path id="Fill 86" fill-rule="evenodd" clip-rule="evenodd" d="M126.751 49.3292H126.031V43.4375H126.751V49.3292Z" fill="#6FB7AB"/>
<path id="Fill 87" fill-rule="evenodd" clip-rule="evenodd" d="M103.578 49.3292H102.858V43.4375H103.578V49.3292Z" fill="#6FB7AB"/>
<path id="Fill 88" fill-rule="evenodd" clip-rule="evenodd" d="M111.544 49.3292H110.824V43.4375H111.544V49.3292Z" fill="#6FB7AB"/>
<path id="Fill 89" fill-rule="evenodd" clip-rule="evenodd" d="M95.9744 49.3292H95.2546V43.4375H95.9744V49.3292Z" fill="#6FB7AB"/>
<path id="Fill 90" fill-rule="evenodd" clip-rule="evenodd" d="M119.146 49.3292H118.426V43.4375H119.146V49.3292Z" fill="#6FB7AB"/>
<path id="Fill 91" fill-rule="evenodd" clip-rule="evenodd" d="M88.3699 49.3292H87.6501V43.4375H88.3699V49.3292Z" fill="#6FB7AB"/>
<path id="Fill 92" fill-rule="evenodd" clip-rule="evenodd" d="M126.751 44.1029H126.031V43.5086H126.751V44.1029Z" fill="#4A8B7F"/>
<path id="Fill 93" fill-rule="evenodd" clip-rule="evenodd" d="M103.578 44.1029H102.858V43.5086H103.578V44.1029Z" fill="#4A8B7F"/>
<path id="Fill 94" fill-rule="evenodd" clip-rule="evenodd" d="M111.544 44.1029H110.824V43.5086H111.544V44.1029Z" fill="#4A8B7F"/>
<path id="Fill 95" fill-rule="evenodd" clip-rule="evenodd" d="M95.9744 44.1029H95.2546V43.5086H95.9744V44.1029Z" fill="#4A8B7F"/>
<path id="Fill 96" fill-rule="evenodd" clip-rule="evenodd" d="M119.146 44.1029H118.426V43.5086H119.146V44.1029Z" fill="#4A8B7F"/>
<path id="Fill 97" fill-rule="evenodd" clip-rule="evenodd" d="M88.3699 44.1029H87.6501V43.5086H88.3699V44.1029Z" fill="#4A8B7F"/>
<path id="Fill 98" fill-rule="evenodd" clip-rule="evenodd" d="M86.9246 43.4339H127.477V41.9609L86.9246 42.3029V43.4339Z" fill="#6FB7AB"/>
</g>
</g>
<g id="Group 5">
<path id="Fill 70" fill-rule="evenodd" clip-rule="evenodd" d="M72.4355 121.687H42.6884V103.266H72.4355V121.687Z" fill="#AAD3FC"/>
<path id="Fill 71" fill-rule="evenodd" clip-rule="evenodd" d="M70.9844 120.216H65.9056V104.742H70.9844V120.216Z" fill="#274DB2"/>
<path id="Fill 72" fill-rule="evenodd" clip-rule="evenodd" d="M64.4541 120.216H50.3061V104.742H64.4541V120.216Z" fill="#274DB2"/>
<path id="Fill 73" fill-rule="evenodd" clip-rule="evenodd" d="M48.8555 120.216H43.7767V104.742H48.8555V120.216Z" fill="#274DB2"/>
<path id="Fill 74" fill-rule="evenodd" clip-rule="evenodd" d="M42.6875 103.266H72.7974L73.1602 121.687H72.3578V103.5H42.6875V103.266Z" fill="#73B2F1"/>
<path id="Fill 75" fill-rule="evenodd" clip-rule="evenodd" d="M72.3578 121.32H42.6875V121.775L73.1602 123.162V121.32H72.3578Z" fill="#73B2F1"/>
</g>
<g id="Group 6">
<path id="Fill 55" fill-rule="evenodd" clip-rule="evenodd" d="M175.22 134.457H144.022V100.07H175.22V134.457Z" fill="#2E4078"/>
<path id="Fill 56" fill-rule="evenodd" clip-rule="evenodd" d="M144.022 101.576L175.22 106.726V100.07H144.022V101.576Z" fill="#1C2D64"/>
<path id="Fill 66" fill-rule="evenodd" clip-rule="evenodd" d="M170.142 134.46H149.464V107.469H170.142V134.46Z" fill="#AAD3FC"/>
<path id="Fill 67" fill-rule="evenodd" clip-rule="evenodd" d="M168.689 132.979H160.709V108.945H168.689V132.979Z" fill="#274DB2"/>
<path id="Fill 68" fill-rule="evenodd" clip-rule="evenodd" d="M158.896 132.979H150.915V108.945H158.896V132.979Z" fill="#274DB2"/>
<path id="Fill 69" fill-rule="evenodd" clip-rule="evenodd" d="M149.463 107.094H170.612L170.866 134.455H170.152V107.47H149.463V107.094Z" fill="white"/>
</g>
<g id="Group 7">
<path id="Fill 99" fill-rule="evenodd" clip-rule="evenodd" d="M203.999 132.418H180.54V131.297H203.999V132.418Z" fill="#A6BEC4"/>
<path id="Fill 101" fill-rule="evenodd" clip-rule="evenodd" d="M201.638 137.651H203.113C203.204 137.651 203.277 137.572 203.277 137.475V130.25C203.277 130.21 203.265 130.172 203.243 130.142L202.505 129.123C202.439 129.032 202.311 129.032 202.245 129.123L201.507 130.142C201.485 130.172 201.473 130.21 201.473 130.25V137.475C201.473 137.572 201.546 137.651 201.638 137.651Z" fill="#AAD3FC"/>
<path id="Fill 102" fill-rule="evenodd" clip-rule="evenodd" d="M198.389 137.651H199.865C199.956 137.651 200.029 137.572 200.029 137.475V130.25C200.029 130.21 200.017 130.172 199.995 130.142L199.257 129.123C199.191 129.032 199.063 129.032 198.997 129.123L198.259 130.142C198.237 130.172 198.225 130.21 198.225 130.25V137.475C198.225 137.572 198.299 137.651 198.389 137.651Z" fill="#AAD3FC"/>
<path id="Fill 103" fill-rule="evenodd" clip-rule="evenodd" d="M194.779 137.651H196.255C196.345 137.651 196.42 137.572 196.42 137.475V130.25C196.42 130.21 196.407 130.172 196.385 130.142L195.648 129.123C195.581 129.032 195.453 129.032 195.387 129.123L194.65 130.142C194.628 130.172 194.615 130.21 194.615 130.25V137.475C194.615 137.572 194.689 137.651 194.779 137.651Z" fill="#AAD3FC"/>
<path id="Fill 104" fill-rule="evenodd" clip-rule="evenodd" d="M191.532 137.651H193.008C193.098 137.651 193.172 137.572 193.172 137.475V130.25C193.172 130.21 193.16 130.172 193.137 130.142L192.4 129.123C192.334 129.032 192.206 129.032 192.139 129.123L191.402 130.142C191.379 130.172 191.367 130.21 191.367 130.25V137.475C191.367 137.572 191.441 137.651 191.532 137.651Z" fill="#AAD3FC"/>
<path id="Fill 105" fill-rule="evenodd" clip-rule="evenodd" d="M188.284 137.651H189.76C189.85 137.651 189.924 137.572 189.924 137.475V130.25C189.924 130.21 189.912 130.172 189.889 130.142L189.151 129.123C189.086 129.032 188.958 129.032 188.892 129.123L188.154 130.142C188.132 130.172 188.119 130.21 188.119 130.25V137.475C188.119 137.572 188.193 137.651 188.284 137.651Z" fill="#AAD3FC"/>
<path id="Fill 106" fill-rule="evenodd" clip-rule="evenodd" d="M185.036 137.651H186.511C186.602 137.651 186.676 137.572 186.676 137.475V130.25C186.676 130.21 186.664 130.172 186.642 130.142L185.904 129.123C185.838 129.032 185.71 129.032 185.644 129.123L184.906 130.142C184.883 130.172 184.871 130.21 184.871 130.25V137.475C184.871 137.572 184.945 137.651 185.036 137.651Z" fill="#AAD3FC"/>
<path id="Fill 107" fill-rule="evenodd" clip-rule="evenodd" d="M181.426 137.651H182.902C182.993 137.651 183.066 137.572 183.066 137.475V130.25C183.066 130.21 183.054 130.172 183.032 130.142L182.294 129.123C182.228 129.032 182.1 129.032 182.034 129.123L181.296 130.142C181.273 130.172 181.262 130.21 181.262 130.25V137.475C181.262 137.572 181.335 137.651 181.426 137.651Z" fill="#AAD3FC"/>
</g>
</g>
</svg>
