<svg width="223" height="224" viewBox="0 0 223 224" fill="none" xmlns="http://www.w3.org/2000/svg">
<g id="Group">
<path id="Vector" d="M215.783 178.923C211.187 180.155 204.718 176.97 201.205 175.255C200.763 175.078 200.414 174.877 200.089 174.767C196.717 173.212 184.129 168.518 176.772 166.063C169.74 163.718 153.971 157.811 153.855 157.744C153.53 157.634 153.431 157.267 153.541 156.943C153.651 156.618 154.019 156.52 154.344 156.629C154.461 156.696 170.23 162.603 177.262 164.948C184.643 167.495 197.206 172.097 200.695 173.72C201.02 173.829 201.369 174.031 201.835 174.299C206.14 176.392 215.098 180.779 218.435 175.95C219.2 174.762 219.665 173.555 219.621 172.288C219.513 168.579 215.533 165.121 211.946 163.131C210.897 162.526 208.408 161.324 206.102 160.073L202.006 158.023C195.071 154.569 187.112 150.603 185.082 149.278C184.383 148.875 183.169 148.02 181.513 146.989C175.099 142.904 163.11 135.296 159.265 133.08C157.634 132.14 155.488 130.748 153.249 129.38C149.122 126.846 144.505 123.952 142.763 123.337C139.864 122.441 135.167 120.355 134.934 120.221C134.609 120.111 134.511 119.744 134.621 119.42C134.731 119.095 135.098 118.997 135.423 119.106C135.423 119.106 140.328 121.235 143.136 122.155C145.086 122.813 149.587 125.64 153.947 128.308C156.21 129.767 158.332 131.067 159.963 132.008C163.808 134.223 175.797 141.831 182.211 145.916C183.867 146.948 185.056 147.711 185.78 148.206C187.81 149.531 196.002 153.632 202.587 156.884L206.683 158.934C209.081 160.16 211.57 161.362 212.619 161.967C214.483 163.041 220.732 166.875 220.957 172.127C220.958 173.602 220.567 175.084 219.575 176.53C218.418 177.725 217.162 178.554 215.783 178.923Z" fill="#3B4B75"/>
<g id="Group_2">
<path id="Vector_2" d="M220.057 172.083C219.919 167.89 215.522 164.347 212.051 162.425C211.119 161.887 208.862 160.82 206.115 159.392C206.115 159.392 201.189 161.597 202.205 167.227C203.197 172.765 213.697 174.083 215.959 174.067C218.196 173.959 220.057 172.083 220.057 172.083Z" fill="#FFC999"/>
<path id="Vector_3" d="M217.233 174.409C216.865 174.508 216.406 174.631 215.897 174.571C213.727 174.562 202.675 173.392 201.536 167.303C200.422 161.306 205.783 158.886 205.783 158.886C205.967 158.837 206.151 158.787 206.292 158.946C208.689 160.173 211.179 161.375 212.227 161.979C214.092 163.054 220.34 166.888 220.565 172.139C220.614 172.323 220.547 172.439 220.388 172.58C220.388 172.58 219.071 173.917 217.233 174.409ZM206.195 160.054C205.257 160.601 202.06 162.638 202.848 167.05C203.741 172.221 214.192 173.355 215.969 173.371C217.538 173.344 218.929 172.283 219.407 171.86C219.14 168.291 215.276 164.9 211.713 163.002C210.757 162.373 208.384 161.239 206.195 160.054Z" fill="#3B4B75"/>
</g>
<path id="Vector_4" d="M168.635 138.639C168.267 138.738 167.893 138.445 167.911 138.145C167.911 138.145 167.264 133.891 166.288 132.087C166.073 131.653 165.619 130.693 165.133 129.249C163.328 124.716 160.005 116.36 156.987 113.922C153.056 110.648 140.781 105.28 140.664 105.213C140.339 105.104 140.241 104.737 140.351 104.412C140.461 104.087 140.829 103.989 141.154 104.098C141.712 104.342 153.778 109.667 157.734 113.034C160.918 115.722 164.381 124.237 166.212 128.862C166.764 130.189 167.127 131.174 167.342 131.608C168.367 133.596 169.014 137.849 169.063 138.033C169.137 138.308 169.002 138.541 168.635 138.639Z" fill="#3B4B75"/>
<path id="Vector_5" d="M148.596 166.429C146.666 166.946 144.704 166.98 143.239 166.291C142.448 165.912 140.088 165.561 133.211 165.633C125.874 165.828 116.123 166.572 109.737 167.004C106.072 167.298 103.467 167.504 102.474 167.475C98.6437 167.518 88.6226 160.268 84.0775 156.174C79.1583 151.787 67.8718 133.564 65.6791 127.954C63.7259 122.871 59.2949 115.894 53.3167 113.069C47.6633 110.354 15.84 102.257 15.515 102.147C15.1901 102.038 14.9998 101.695 15.1099 101.371C15.2199 101.046 15.563 100.856 15.8879 100.965C17.1631 101.312 48.1527 109.239 53.898 111.929C60.1339 114.98 64.8225 122.183 66.8249 127.45C69.0176 133.06 80.1138 150.941 84.9165 155.261C89.8357 159.648 99.2923 166.262 102.547 166.275C103.423 166.237 106.145 166.098 109.718 165.829C116.196 165.372 125.83 164.561 133.283 164.433C139.051 164.265 142.471 164.529 143.82 165.151C145.844 166.084 149.386 165.332 151.873 163.584C153.355 162.498 154.212 161.285 154.352 159.968C154.449 158.86 154.154 157.759 153.166 156.646C149.35 151.964 145.07 149.963 137.421 149.357C136.403 149.236 135.41 149.207 134.301 149.111C132.707 149.046 131.113 148.981 129.428 148.941C122.661 148.688 116.286 148.429 113.582 146.793C110.62 144.93 107.283 141.3 107.269 139.041C107.256 138.258 107.709 137.743 108.052 137.553C110.313 136.062 122.759 140.596 126.267 143.394C129.517 145.966 133.84 147.758 134.514 148.07C135.599 148.074 136.617 148.195 137.518 148.248C145.492 148.964 149.981 151.008 154.079 156.008C155.233 157.372 155.626 158.84 155.511 160.248C155.353 161.864 154.202 163.451 152.56 164.678C151.28 165.415 149.883 166.084 148.596 166.429ZM108.874 138.414C108.782 138.439 108.69 138.464 108.69 138.464C108.598 138.488 108.439 138.629 108.421 138.929C108.447 140.496 111.318 143.858 114.188 145.745C116.659 147.247 123.15 147.573 129.5 147.741C130.101 147.777 130.702 147.812 131.302 147.848C129.604 147.025 127.39 145.749 125.52 144.283C121.87 141.326 110.896 137.872 108.874 138.414Z" fill="#3B4B75"/>
<g id="Group_3">
<path id="Vector_6" d="M152.115 164.119C149.56 165.984 145.742 166.81 143.486 165.743C142.137 165.121 138.165 165.004 133.158 165.067C133.158 165.067 130.823 157.824 136.522 156.297C142.221 154.77 147.825 157.301 149.008 157.673C150.191 158.044 153.068 160.323 152.592 163.696L152.115 164.119Z" fill="#FFC999"/>
<path id="Vector_7" d="M148.597 166.436C146.667 166.953 144.705 166.987 143.24 166.297C142.449 165.919 140.089 165.568 133.212 165.64C132.912 165.622 132.679 165.488 132.605 165.212C132.556 165.029 131.339 161.223 132.93 158.338C133.671 157.057 134.81 156.162 136.465 155.718C141.796 154.29 146.86 156.277 148.81 156.935C149.018 156.978 149.135 157.045 149.251 157.112C150.876 157.661 153.734 160.239 153.284 163.704C153.241 163.913 153.174 164.029 153.082 164.054L152.579 164.385C151.281 165.421 149.884 166.091 148.597 166.436ZM133.585 164.458C139.077 164.363 142.381 164.56 143.729 165.182C145.753 166.116 149.295 165.363 151.782 163.615L152.033 163.449C152.331 160.517 149.645 158.581 148.787 158.319C148.67 158.252 148.462 158.209 148.253 158.167C146.396 157.484 141.564 155.631 136.601 156.961C135.314 157.306 134.401 157.944 133.887 158.967C132.926 160.896 133.315 163.448 133.585 164.458Z" fill="#3B4B75"/>
</g>
<path id="Vector_8" d="M163.671 124.518C163.487 124.568 163.187 124.55 163.021 124.299C162.855 124.048 162.849 123.657 163.1 123.491C163.829 122.902 165.011 121.799 165.323 121.125C165.678 120.243 165.802 115.193 165.162 111.331C164.878 109.538 163.724 106.7 159.645 102.875C158.074 101.426 149.666 95.4164 149.55 95.3493C149.292 95.1232 149.194 94.7561 149.42 94.4987C149.647 94.2412 150.015 94.1427 150.272 94.3688C150.622 94.5702 158.889 100.421 160.484 101.961C164.023 105.243 165.944 108.367 166.381 111.103C166.881 114.805 166.971 120.29 166.414 121.521C165.949 122.727 164.081 124.212 163.83 124.377C163.855 124.469 163.763 124.494 163.671 124.518Z" fill="#3B4B75"/>
<path id="Vector_9" d="M160.27 103.006C160.178 103.03 160.086 103.055 159.969 102.988C159.645 102.878 159.454 102.536 159.564 102.211C159.937 101.029 160.207 100.563 160.341 100.331C160.408 100.214 160.335 99.9389 160.212 99.48C159.794 97.9198 156.08 91.0455 153.571 88.6684C149.725 84.9773 132.234 79.6306 122.793 76.7503C120.635 76.0497 118.826 75.5507 117.643 75.1791C110.936 72.9433 76.7713 72.6544 70.8874 72.7555C64.7276 72.9305 51.8116 70.6861 43.6817 67.5527C35.5272 64.3275 1.29508 48.7116 0.945547 48.5102C0.62061 48.4005 0.522244 48.0334 0.632305 47.7088C0.742366 47.3842 1.11004 47.2857 1.43498 47.3954C1.7845 47.5968 35.9247 63.2374 44.0792 66.4625C52.0252 69.6452 64.7083 71.7553 70.7761 71.605C76.752 71.4792 111.125 71.8106 117.949 74.1136C119.132 74.4851 120.965 75.076 123.098 75.6847C133.281 78.7598 150.239 83.9543 154.343 87.8714C156.993 90.4075 160.872 97.5324 161.223 99.209C161.518 100.31 161.567 100.494 161.206 100.984C161.071 101.217 160.869 101.566 160.539 102.54C160.705 102.791 160.546 102.932 160.27 103.006Z" fill="#3B4B75"/>
</g>
</svg>
