<svg width="61" height="61" viewBox="0 0 61 61" fill="none" xmlns="http://www.w3.org/2000/svg">
<g id="Group 1707477738">
<rect id="Rectangle 8134" x="0.5" y="0.5" width="60" height="60" rx="30" fill="white" stroke="#F3F3F3"/>
<path id="Vector" d="M26.3034 32.127C26.3034 32.2766 26.2438 32.42 26.1378 32.5258C26.0317 32.6316 25.8878 32.691 25.7378 32.691C25.5878 32.691 25.444 32.6316 25.3379 32.5258C25.2318 32.42 25.1723 32.2766 25.1723 32.127C25.1723 30.6275 25.7638 29.2118 26.8379 28.1407C27.912 27.0696 29.3316 26.4797 30.8352 26.4797C30.9852 26.4797 31.1291 26.5391 31.2352 26.6449C31.3412 26.7506 31.4008 26.8941 31.4008 27.0437C31.4008 27.1933 31.3412 27.3367 31.2352 27.4425C31.1291 27.5483 30.9852 27.6077 30.8352 27.6077C28.3364 27.6077 26.3034 29.635 26.3034 32.127ZM29.2607 18.8029V15.6483C29.2607 14.7825 29.967 14.0781 30.8352 14.0781C31.7034 14.0781 32.4098 14.7825 32.4098 15.6483V18.8029C32.4098 19.6687 31.7034 20.3731 30.8352 20.3731C29.967 20.3731 29.2607 19.6687 29.2607 18.8029ZM30.3919 18.8029C30.3919 19.0467 30.5908 19.245 30.8352 19.245C31.0797 19.245 31.2786 19.0467 31.2786 18.8029V15.6483C31.2786 15.4045 31.0797 15.2062 30.8352 15.2062C30.5908 15.2062 30.3919 15.4045 30.3919 15.6483V18.8029ZM38.9565 24.0281C38.6599 23.7324 38.4965 23.338 38.4965 22.9178C38.4965 22.4976 38.6599 22.1032 38.9565 21.8075L41.1933 19.5768C41.4899 19.2811 41.8854 19.1181 42.3068 19.1181C42.7281 19.1181 43.1235 19.2811 43.4202 19.5769C44.0341 20.1891 44.0341 21.1853 43.4202 21.7975L41.1834 24.0281C40.8765 24.3342 40.4732 24.4872 40.07 24.4873C39.6666 24.4873 39.2635 24.3342 38.9565 24.0281ZM39.6277 22.9178C39.6277 23.0367 39.6734 23.1477 39.7563 23.2304C39.8395 23.3132 39.9523 23.3597 40.0698 23.3597C40.1874 23.3597 40.3002 23.3132 40.3834 23.2304L42.6202 20.9999C42.7032 20.9169 42.7498 20.8044 42.7498 20.6872C42.7498 20.57 42.7032 20.4576 42.6202 20.3746C42.579 20.3336 42.5301 20.3011 42.4763 20.2791C42.4225 20.2571 42.3648 20.2459 42.3066 20.2462C42.2484 20.2459 42.1908 20.257 42.1369 20.2791C42.0831 20.3011 42.0342 20.3336 41.9931 20.3746L39.7562 22.6052C39.7151 22.6463 39.6826 22.695 39.6606 22.7487C39.6385 22.8024 39.6273 22.8598 39.6277 22.9178ZM48.9341 32.127C48.9341 32.9928 48.2278 33.6972 47.3596 33.6972H44.1962C43.3281 33.6972 42.6217 32.9928 42.6217 32.127C42.6217 31.2612 43.3281 30.5568 44.1962 30.5568H47.3596C48.2278 30.5567 48.9341 31.2611 48.9341 32.127ZM47.803 32.127C47.8028 32.0098 47.7561 31.8974 47.673 31.8145C47.5898 31.7316 47.4771 31.685 47.3596 31.6848H44.1962C43.9518 31.6848 43.7529 31.8832 43.7529 32.127C43.7529 32.3708 43.9518 32.5691 44.1962 32.5691H47.3596C47.4771 32.569 47.5898 32.5223 47.673 32.4395C47.7561 32.3566 47.8028 32.2442 47.803 32.127ZM18.2504 21.7976C17.6365 21.1853 17.6365 20.1892 18.2504 19.5769C18.547 19.2811 18.9424 19.1182 19.3638 19.1182C19.7851 19.1182 20.1806 19.2811 20.4772 19.5769L22.7141 21.8075C23.0106 22.1033 23.174 22.4976 23.174 22.9179C23.174 23.3381 23.0106 23.7324 22.7141 24.0282C22.4071 24.3343 22.0039 24.4874 21.6006 24.4874C21.1974 24.4874 20.7942 24.3343 20.4872 24.0282L18.2504 21.7976ZM19.0502 20.9999L21.287 23.2304C21.3702 23.3132 21.483 23.3597 21.6005 23.3597C21.7181 23.3597 21.8309 23.3132 21.9141 23.2304C21.9552 23.1894 21.9877 23.1406 22.0098 23.087C22.0319 23.0333 22.0431 22.9758 22.0427 22.9178C22.0431 22.8598 22.0319 22.8023 22.0098 22.7486C21.9877 22.695 21.9552 22.6462 21.9141 22.6051L19.6773 20.3745C19.6361 20.3335 19.5872 20.301 19.5334 20.279C19.4795 20.257 19.4219 20.2458 19.3637 20.2462C19.3055 20.2458 19.2479 20.257 19.1941 20.279C19.1403 20.301 19.0914 20.3334 19.0502 20.3744C18.9672 20.4574 18.9206 20.5699 18.9206 20.6871C18.9206 20.8044 18.9672 20.9168 19.0502 20.9999ZM17.4742 33.6972H14.3109C13.4427 33.6972 12.7363 32.9928 12.7363 32.127C12.7363 31.2612 13.4427 30.5568 14.3109 30.5568H17.4742C18.3425 30.5568 19.0488 31.2612 19.0488 32.127C19.0488 32.9928 18.3425 33.6972 17.4742 33.6972ZM14.3109 32.5691H17.4742C17.7187 32.5691 17.9176 32.3708 17.9176 32.127C17.9176 31.8832 17.7188 31.6848 17.4742 31.6848H14.3109C14.0664 31.6848 13.8675 31.8832 13.8675 32.127C13.8675 32.3708 14.0664 32.5691 14.3109 32.5691ZM44.654 43.6279V46.3603C44.654 46.5098 44.5944 46.6533 44.4884 46.7591C44.3823 46.8649 44.2384 46.9243 44.0884 46.9243H17.582C17.432 46.9243 17.2882 46.8649 17.1821 46.7591C17.076 46.6533 17.0164 46.5098 17.0164 46.3603V43.6279C17.0164 42.1607 18.2134 40.967 19.6847 40.967H21.6041V32.127C21.6041 27.0509 25.7451 22.9214 30.8352 22.9214C35.9253 22.9214 40.0664 27.0509 40.0664 32.127V40.967H41.9858C43.4571 40.967 44.654 42.1607 44.654 43.6279ZM22.7353 40.967H28.1351V36.3854C28.1351 34.9006 29.3464 33.6927 30.8352 33.6927C32.3241 33.6927 33.5354 34.9006 33.5354 36.3854V40.967H38.9352V32.127C38.9352 27.673 35.3016 24.0494 30.8352 24.0494C26.3688 24.0494 22.7352 27.673 22.7352 32.127L22.7353 40.967ZM32.4042 36.3854C32.4042 35.5226 31.7004 34.8208 30.8352 34.8208C29.9701 34.8208 29.2663 35.5226 29.2663 36.3854V40.967H32.4042V36.3854ZM43.5228 43.6279C43.5228 42.7827 42.8333 42.0951 41.9858 42.0951H19.6847C18.8371 42.0951 18.1476 42.7827 18.1476 43.6279V45.7962H43.5228V43.6279Z" fill="#5246ED"/>
</g>
</svg>
