<svg width="25" height="24" viewBox="0 0 25 24" fill="none" xmlns="http://www.w3.org/2000/svg">
<g id="heart">
<path id="Vector" d="M21.0041 4.64029C20.5041 4.14009 19.9105 3.74329 19.2571 3.47256C18.6037 3.20184 17.9034 3.0625 17.1962 3.0625C16.489 3.0625 15.7887 3.20184 15.1353 3.47256C14.4819 3.74329 13.8883 4.14009 13.3883 4.64029L12.3507 5.67791L11.3131 4.64029C10.3032 3.63038 8.93347 3.06302 7.50525 3.06302C6.07702 3.06302 4.70729 3.63038 3.69739 4.64029C2.68748 5.6502 2.12012 7.01993 2.12012 8.44815C2.12012 9.87638 2.68748 11.2461 3.69739 12.256L4.735 13.2936L12.3507 20.9094L19.9665 13.2936L21.0041 12.256C21.5043 11.756 21.9011 11.1624 22.1718 10.5091C22.4425 9.85569 22.5819 9.15539 22.5819 8.44815C22.5819 7.74092 22.4425 7.04062 22.1718 6.38725C21.9011 5.73389 21.5043 5.14026 21.0041 4.64029Z" stroke="#979797" stroke-width="1.5" stroke-linecap="round" stroke-linejoin="round"/>
</g>
</svg>
