<svg width="18" height="20" viewBox="0 0 18 20" fill="none" xmlns="http://www.w3.org/2000/svg">
<g id="book-blank">
<path id="Path" d="M3.75 15H15.625C16.6605 15 17.5 14.1605 17.5 13.125V1.875C17.5 0.839453 16.6602 0 15.625 0H3.75C1.67891 0 0 1.67891 0 3.75V16.25C0 18.3211 1.67891 20 3.75 20H16.25C16.9402 20 17.5 19.4402 17.5 18.7852C17.5 18.0586 16.9414 17.5 16.25 17.5H3.80469C3.15195 17.5 2.56875 17.0227 2.50703 16.3727C2.43477 15.6289 3.01914 15 3.75 15Z" fill="#5246ED"/>
<path id="Path_2" opacity="0.4" d="M15.625 15H3.75C3.05977 15 2.5 15.5597 2.5 16.25C2.5 16.9402 3.05977 17.5 3.75 17.5H16.25V14.8851C16.0195 14.9531 15.8438 15 15.625 15Z" fill="#5246ED"/>
</g>
</svg>
