<svg width="32" height="10" viewBox="0 0 32 10" fill="none" xmlns="http://www.w3.org/2000/svg">
<g id="Group 7">
<rect id="Rectangle" width="32" height="10" rx="5" fill="#5246ED"/>
<path id="HOST" fill-rule="evenodd" clip-rule="evenodd" d="M13.3242 7.97656C13.8398 7.97656 14.3034 7.86003 14.7148 7.62695C15.1263 7.39388 15.4512 7.05469 15.6895 6.60938C15.9277 6.16406 16.0469 5.625 16.0469 4.99219C16.0469 4.35677 15.9277 3.81576 15.6895 3.36914C15.4512 2.92253 15.1263 2.58268 14.7148 2.34961C14.3034 2.11654 13.8398 2 13.3242 2C12.8086 2 12.3451 2.11654 11.9336 2.34961C11.5221 2.58268 11.1966 2.92253 10.957 3.36914C10.7174 3.81576 10.5977 4.35677 10.5977 4.99219C10.5977 5.6224 10.7174 6.16016 10.957 6.60547C11.1966 7.05078 11.5221 7.39062 11.9336 7.625C12.3451 7.85938 12.8086 7.97656 13.3242 7.97656ZM6.22656 7.89844V5.49219H8.72656V7.89844H9.95312V2.07812H8.72656V4.48047H6.22656V2.07812H5V7.89844H6.22656ZM12.5469 6.67188C12.7682 6.81771 13.0273 6.89062 13.3242 6.89062C13.6237 6.89062 13.8841 6.81771 14.1055 6.67188C14.3268 6.52604 14.498 6.31185 14.6191 6.0293C14.7402 5.74674 14.8008 5.40104 14.8008 4.99219C14.8008 4.58073 14.7402 4.23307 14.6191 3.94922C14.498 3.66536 14.3268 3.45052 14.1055 3.30469C13.8841 3.15885 13.6237 3.08594 13.3242 3.08594C13.0273 3.08594 12.7682 3.15885 12.5469 3.30469C12.3255 3.45052 12.153 3.66536 12.0293 3.94922C11.9056 4.23307 11.8438 4.58073 11.8438 4.99219C11.8438 5.40104 11.9056 5.74674 12.0293 6.0293C12.153 6.31185 12.3255 6.52604 12.5469 6.67188ZM18.8516 7.98047C19.3281 7.98047 19.7344 7.90951 20.0703 7.76758C20.4062 7.62565 20.6634 7.42383 20.8418 7.16211C21.0202 6.90039 21.1094 6.59115 21.1094 6.23438C21.1094 5.99219 21.0664 5.77799 20.9805 5.5918C20.8945 5.4056 20.7728 5.24349 20.6152 5.10547C20.4577 4.96745 20.2721 4.85091 20.0586 4.75586C19.8451 4.66081 19.612 4.58464 19.3594 4.52734L18.8398 4.39844C18.6732 4.35938 18.5202 4.31055 18.3809 4.25195C18.2415 4.19336 18.1302 4.11784 18.0469 4.02539C17.9635 3.93294 17.9219 3.81901 17.9219 3.68359C17.9219 3.55599 17.9583 3.44271 18.0312 3.34375C18.1042 3.24479 18.2103 3.16732 18.3496 3.11133C18.4889 3.05534 18.6576 3.02734 18.8555 3.02734C19.1497 3.02734 19.3835 3.09115 19.5566 3.21875C19.7298 3.34635 19.8268 3.52344 19.8477 3.75H21.0312C21.026 3.40625 20.9329 3.10286 20.752 2.83984C20.571 2.57682 20.3197 2.37109 19.998 2.22266C19.6764 2.07422 19.2995 2 18.8672 2C18.4427 2 18.0645 2.07357 17.7324 2.2207C17.4004 2.36784 17.1387 2.57357 16.9473 2.83789C16.7559 3.10221 16.6602 3.41016 16.6602 3.76172C16.6602 4.19141 16.8021 4.53451 17.0859 4.79102C17.3698 5.04753 17.7565 5.23438 18.2461 5.35156L18.8828 5.50781C19.0938 5.55729 19.2728 5.61328 19.4199 5.67578C19.5671 5.73828 19.679 5.8138 19.7559 5.90234C19.8327 5.99089 19.8711 6.10026 19.8711 6.23047C19.8711 6.3737 19.8288 6.49935 19.7441 6.60742C19.6595 6.71549 19.5397 6.79948 19.3848 6.85938C19.2298 6.91927 19.0482 6.94922 18.8398 6.94922C18.6237 6.94922 18.4323 6.91667 18.2656 6.85156C18.099 6.78646 17.9661 6.68815 17.8672 6.55664C17.7682 6.42513 17.7109 6.26302 17.6953 6.07031H16.5078C16.5182 6.48958 16.6204 6.84115 16.8145 7.125C17.0085 7.40885 17.2793 7.6224 17.627 7.76562C17.9746 7.90885 18.3828 7.98047 18.8516 7.98047ZM24.4492 3.09375V7.89844H23.2344V3.09375H21.4492V2.07812H26.2305V3.09375H24.4492Z" fill="white"/>
</g>
</svg>
