<svg width="30" height="30" viewBox="0 0 30 30" fill="none" xmlns="http://www.w3.org/2000/svg">
<g id="house" clip-path="url(#clip0_9261_8459)">
<path id="Vector" d="M5.62498 26.7423H24.3748C25.6732 26.7423 26.7185 25.697 26.7185 24.3986V10.3639C26.7185 3.70677 3.28125 3.16021 3.28125 10.3639V24.3986C3.28125 25.697 4.32655 26.7423 5.62498 26.7423Z" fill="#A8D0FF"/>
<path id="Vector_2" d="M13.822 1.25573L2.10933 8.01729C0.988915 8.66447 0.604923 10.0972 1.25149 11.2179C1.89857 12.3396 2.39518 12.724 3.51648 12.0762L13.9604 6.58817C14.7037 6.15905 15.4113 6.22458 16.0687 6.60412L26.485 12.0762C27.6059 12.7227 28.1011 12.3385 28.7482 11.2179C29.395 10.0975 29.0116 8.66494 27.8917 8.01729L16.1717 1.25115C16.0264 1.17444 15.5866 0.943568 15.0003 0.937584C14.4705 0.932178 13.9504 1.18855 13.822 1.25573Z" fill="#0066FF"/>
<path id="Vector_3" d="M9.92192 13.1406C7.71841 13.1406 5.94434 14.9147 5.94434 17.1182V26.7225H13.8995V17.1182C13.8995 14.9147 12.1254 13.1406 9.92192 13.1406Z" fill="white"/>
<path id="Vector_4" d="M2.10936 24.8417H27.8904C28.5396 24.8417 29.0622 25.3643 29.0622 26.0136V27.8885C29.0622 28.5378 28.5396 29.0604 27.8904 29.0604H2.10936C1.46015 29.0604 0.9375 28.5378 0.9375 27.8885V26.0136C0.9375 25.3643 1.46015 24.8417 2.10936 24.8417ZM17.2557 14.3828H23.0857C23.7349 14.3828 24.2576 14.9055 24.2576 15.5547V20.3007C24.2576 20.9499 23.7349 21.4726 23.0857 21.4726H17.2557C16.6065 21.4726 16.0838 20.9499 16.0838 20.3007V15.5547C16.0838 14.9055 16.6065 14.3828 17.2557 14.3828Z" fill="#00A1FF"/>
</g>
<defs>
<clipPath id="clip0_9261_8459">
<rect width="30" height="30" fill="white"/>
</clipPath>
</defs>
</svg>
