<svg width="14" height="14" viewBox="0 0 14 14" fill="none" xmlns="http://www.w3.org/2000/svg">
<g id="house" clip-path="url(#clip0_12113_23188)">
<path id="Vector" d="M2.62499 12.4761H11.3749C11.9808 12.4761 12.4686 11.9883 12.4686 11.3824V4.83282C12.4686 1.72618 1.53125 1.47112 1.53125 4.83282V11.3824C1.53125 11.9883 2.01906 12.4761 2.62499 12.4761Z" fill="#A8D0FF"/>
<path id="Vector_2" d="M6.45027 0.586006L0.984354 3.7414C0.461494 4.04342 0.282298 4.71201 0.584029 5.23504C0.885998 5.75849 1.11775 5.93786 1.64102 5.63558L6.51486 3.07448C6.86171 2.87422 7.19196 2.90481 7.49873 3.08192L12.3597 5.63558C12.8828 5.93727 13.1139 5.75798 13.4158 5.23504C13.7177 4.71218 13.5388 4.04364 13.0161 3.7414L7.54679 0.58387C7.47898 0.548072 7.27376 0.440332 7.00013 0.437539C6.75289 0.435016 6.51018 0.554655 6.45027 0.586006Z" fill="#0066FF"/>
<path id="Vector_3" d="M4.63062 6.13281C3.60231 6.13281 2.77441 6.96071 2.77441 7.98902V12.471H6.48683V7.98902C6.48683 6.96071 5.65893 6.13281 4.63062 6.13281Z" fill="white"/>
<path id="Vector_4" d="M0.98437 11.5918H13.0155C13.3185 11.5918 13.5624 11.8357 13.5624 12.1386V13.0136C13.5624 13.3166 13.3185 13.5605 13.0155 13.5605H0.98437C0.681404 13.5605 0.4375 13.3166 0.4375 13.0136V12.1386C0.4375 11.8357 0.681404 11.5918 0.98437 11.5918ZM8.05266 6.71094H10.7733C11.0763 6.71094 11.3202 6.95484 11.3202 7.25781V9.47263C11.3202 9.7756 11.0763 10.0195 10.7733 10.0195H8.05266C7.74969 10.0195 7.50579 9.7756 7.50579 9.47263V7.25781C7.50579 6.95484 7.74969 6.71094 8.05266 6.71094Z" fill="#00A1FF"/>
</g>
<defs>
<clipPath id="clip0_12113_23188">
<rect width="14" height="14" fill="white"/>
</clipPath>
</defs>
</svg>
