<svg width="20" height="16" viewBox="0 0 20 16" fill="none" xmlns="http://www.w3.org/2000/svg">
<g id="house-building">
<path id="Shape" fill-rule="evenodd" clip-rule="evenodd" d="M9.375e-06 8.65937V14.5H0C0 15.3281 0.671562 16 1.5 16H10.5C11.3281 16 12 15.3281 12 14.5V8.65937C12 8.24062 11.825 7.8375 11.5125 7.55312L7.0125 3.42812C6.44062 2.90344 5.55938 2.90344 4.9875 3.42812L0.486562 7.55312C0.176469 7.8375 9.375e-06 8.24062 9.375e-06 8.65937ZM4.5 9.25C4.5 8.83437 4.83437 8.5 5.25 8.5H6.75C7.16563 8.5 7.5 8.83437 7.5 9.25V10.75C7.5 11.1656 7.16563 11.5 6.75 11.5H5.25C4.83437 11.5 4.5 11.1656 4.5 10.75V9.25Z" fill="#5246ED"/>
<path id="Shape_2" opacity="0.4" fill-rule="evenodd" clip-rule="evenodd" d="M10 1.5C10 0.671562 10.6719 0 11.5 0H18.5C19.3281 0 20 0.671562 20 1.5V14.5C20 15.3281 19.3281 16 18.5 16H12.5C12.8125 15.5813 13 15.0625 13 14.5V11H13.5C13.775 11 14 10.775 14 10.5V9.5C14 9.225 13.775 9 13.5 9H13V8.65938C13 8.43437 12.9688 8.2125 12.9125 8H13.5C13.775 8 14 7.775 14 7.5V6.5C14 6.225 13.775 6 13.5 6H12.5C12.225 6 12 6.225 12 6.5V6.64375L10 4.80937V1.5ZM16.5 6C16.225 6 16 6.225 16 6.5V7.5C16 7.775 16.225 8 16.5 8H17.5C17.775 8 18 7.775 18 7.5V6.5C18 6.225 17.775 6 17.5 6H16.5ZM16.5 11C16.225 11 16 10.775 16 10.5V9.5C16 9.225 16.225 9 16.5 9H17.5C17.775 9 18 9.225 18 9.5V10.5C18 10.775 17.775 11 17.5 11H16.5ZM12 4.5C12 4.775 12.225 5 12.5 5H13.5C13.775 5 14 4.775 14 4.5V3.5C14 3.225 13.775 3 13.5 3H12.5C12.225 3 12 3.225 12 3.5V4.5ZM16 3.5C16 3.225 16.225 3 16.5 3H17.5C17.775 3 18 3.225 18 3.5V4.5C18 4.775 17.775 5 17.5 5H16.5C16.225 5 16 4.775 16 4.5V3.5Z" fill="#5246ED"/>
</g>
</svg>
