<svg width="21" height="19" viewBox="0 0 21 19" fill="none" xmlns="http://www.w3.org/2000/svg">
<g id="house-chimney-blank">
<path id="Path" d="M14.8054 3.61237V2.27775C14.8054 1.64887 15.3144 1.13887 15.9443 1.13887H17.0832C17.7131 1.13887 18.2221 1.64887 18.2221 2.27775V6.60193L20.1119 8.2533C20.5852 8.6697 20.6315 9.38862 20.2186 9.86196C19.8022 10.3353 19.0833 10.3816 18.61 9.96873L10.2499 2.65215L1.88876 9.96873C1.41541 10.3816 0.69614 10.3353 0.281767 9.86196C-0.132393 9.38862 -0.0844182 8.6697 0.388999 8.2533L9.49896 0.281792C9.89756 -0.0939308 10.5702 -0.0939308 11.0009 0.281792L14.8054 3.61237Z" fill="#5246ED"/>
<path id="Path_2" opacity="0.4" d="M10.2507 2.65234L18.2264 9.63082L18.2407 15.9409C18.2442 17.2008 17.2228 18.2222 15.9629 18.2222H4.5599C3.30144 18.2222 2.28179 17.2044 2.28108 15.9445L2.2793 9.62726L10.2507 2.65234Z" fill="#5246ED"/>
</g>
</svg>
