<svg width="13" height="12" viewBox="0 0 13 12" fill="none" xmlns="http://www.w3.org/2000/svg">
<g id="icon">
<path id="icon_2" fill-rule="evenodd" clip-rule="evenodd" d="M0.744141 2C0.744141 1.44772 1.19186 1 1.74414 1H11.7441C12.2964 1 12.7441 1.44772 12.7441 2C12.7441 2.55228 12.2964 3 11.7441 3H1.74414C1.19186 3 0.744141 2.55228 0.744141 2ZM2.74414 6C2.74414 5.44772 3.19186 5 3.74414 5H9.74414C10.2964 5 10.7441 5.44772 10.7441 6C10.7441 6.55228 10.2964 7 9.74414 7H3.74414C3.19186 7 2.74414 6.55228 2.74414 6ZM5.74414 9C5.19186 9 4.74414 9.44771 4.74414 10C4.74414 10.5523 5.19186 11 5.74414 11H7.74414C8.29643 11 8.74414 10.5523 8.74414 10C8.74414 9.44771 8.29643 9 7.74414 9H5.74414Z" fill="#5246ED"/>
</g>
</svg>
