<?xml version="1.0" encoding="UTF-8"?>
<svg xmlns="http://www.w3.org/2000/svg" width="463" height="260" viewBox="0 0 463 260" fill="none">
  <path d="M125.587 147.394C117.043 215.582 420.426 194.669 450.961 194.669C428.235 68.4583 373.132 13.9604 332.032 3.06924C299.416 -5.57418 283.291 8.01433 256.762 24.1203C249.001 28.8317 247.153 23.5749 245.085 18.6777C233.174 -9.51827 135.835 65.6232 125.587 147.394Z" fill="#E7EFFF"></path>
  <mask id="mask0_3622_18729" style="mask-type:luminance" maskUnits="userSpaceOnUse" x="125" y="0" width="326" height="198">
    <path d="M125.583 147.394C117.039 215.582 420.422 194.669 450.957 194.669C428.231 68.4584 373.128 13.9605 332.028 3.06927C299.412 -5.57415 283.287 8.01436 256.758 24.1204C248.997 28.8317 247.149 23.5749 245.081 18.6778C233.17 -9.51823 135.831 65.6232 125.583 147.394Z" fill="white"></path>
  </mask>
  <g mask="url(#mask0_3622_18729)">
    <g opacity="0.25">
      <path d="M130.449 176.861C130.449 176.861 132.763 -19.1448 130.449 -16.8251" stroke="#BBD2FF" stroke-width="1.07" stroke-miterlimit="10"></path>
      <path d="M141.117 178.455C141.117 178.455 143.425 -19.0548 141.117 -16.7351" stroke="#BBD2FF" stroke-width="1.07" stroke-miterlimit="10"></path>
      <path d="M151.783 180.044C151.783 180.044 154.091 -18.9649 151.783 -16.6512" stroke="#BBD2FF" stroke-width="1.07" stroke-miterlimit="10"></path>
      <path d="M162.449 181.632C162.449 181.632 164.763 -18.881 162.449 -16.5613" stroke="#BBD2FF" stroke-width="1.07" stroke-miterlimit="10"></path>
      <path d="M173.117 183.226C173.117 183.226 175.431 -18.7852 173.117 -16.4715" stroke="#BBD2FF" stroke-width="1.07" stroke-miterlimit="10"></path>
      <path d="M183.783 184.815C183.783 184.815 186.097 -18.7012 183.783 -16.3815" stroke="#BBD2FF" stroke-width="1.07" stroke-miterlimit="10"></path>
      <path d="M194.447 186.409C194.447 186.409 196.761 -18.6053 194.447 -16.2916" stroke="#BBD2FF" stroke-width="1.07" stroke-miterlimit="10"></path>
      <path d="M205.115 187.998C205.115 187.998 207.429 -18.5213 205.115 -16.2016" stroke="#BBD2FF" stroke-width="1.07" stroke-miterlimit="10"></path>
      <path d="M215.783 189.592C215.783 189.592 218.091 -18.4315 215.783 -16.1118" stroke="#BBD2FF" stroke-width="1.07" stroke-miterlimit="10"></path>
      <path d="M226.447 191.18C226.447 191.18 228.761 -18.3416 226.447 -16.0279" stroke="#BBD2FF" stroke-width="1.07" stroke-miterlimit="10"></path>
      <path d="M237.115 192.769C237.115 192.769 239.429 -18.2576 237.115 -15.9379" stroke="#BBD2FF" stroke-width="1.07" stroke-miterlimit="10"></path>
      <path d="M247.783 194.363C247.783 194.363 250.097 -18.1617 247.783 -15.848" stroke="#BBD2FF" stroke-width="1.07" stroke-miterlimit="10"></path>
      <path d="M258.447 195.952C258.447 195.952 260.761 -18.0777 258.447 -15.758" stroke="#BBD2FF" stroke-width="1.07" stroke-miterlimit="10"></path>
      <path d="M269.115 197.546C269.115 197.546 271.429 -17.982 269.115 -15.6683" stroke="#BBD2FF" stroke-width="1.07" stroke-miterlimit="10"></path>
      <path d="M279.779 199.135C279.779 199.135 282.093 -17.898 279.779 -15.5783" stroke="#BBD2FF" stroke-width="1.07" stroke-miterlimit="10"></path>
      <path d="M290.441 200.729C290.441 200.729 292.755 -17.8082 290.441 -15.4885" stroke="#BBD2FF" stroke-width="1.07" stroke-miterlimit="10"></path>
      <path d="M301.111 202.317C301.111 202.317 303.425 -17.7181 301.111 -15.3984" stroke="#BBD2FF" stroke-width="1.07" stroke-miterlimit="10"></path>
      <path d="M311.779 203.906C311.779 203.906 314.093 -17.6343 311.779 -15.3146" stroke="#BBD2FF" stroke-width="1.07" stroke-miterlimit="10"></path>
      <path d="M322.441 205.5C322.441 205.5 324.755 -17.5383 322.441 -15.2246" stroke="#BBD2FF" stroke-width="1.07" stroke-miterlimit="10"></path>
      <path d="M333.109 207.089C333.109 207.089 335.423 -17.4543 333.109 -15.1346" stroke="#BBD2FF" stroke-width="1.07" stroke-miterlimit="10"></path>
      <path d="M343.777 208.683C343.777 208.683 346.091 -17.3645 343.777 -15.0448" stroke="#BBD2FF" stroke-width="1.07" stroke-miterlimit="10"></path>
      <path d="M354.443 210.272C354.443 210.272 356.757 -17.2746 354.443 -14.9549" stroke="#BBD2FF" stroke-width="1.07" stroke-miterlimit="10"></path>
      <path d="M365.109 211.866C365.109 211.866 367.423 -17.1847 365.109 -14.865" stroke="#BBD2FF" stroke-width="1.07" stroke-miterlimit="10"></path>
      <path d="M375.777 213.454C375.777 213.454 378.091 -17.0949 375.777 -14.7752" stroke="#BBD2FF" stroke-width="1.07" stroke-miterlimit="10"></path>
      <path d="M386.443 215.049C386.443 215.049 388.757 -17.005 386.443 -14.6853" stroke="#BBD2FF" stroke-width="1.07" stroke-miterlimit="10"></path>
      <path d="M397.109 216.637C397.109 216.637 399.423 -16.9149 397.109 -14.5952" stroke="#BBD2FF" stroke-width="1.07" stroke-miterlimit="10"></path>
      <path d="M407.777 218.226C407.777 218.226 410.091 -16.8311 407.777 -14.5114" stroke="#BBD2FF" stroke-width="1.07" stroke-miterlimit="10"></path>
      <path d="M418.443 219.82C418.443 219.82 420.757 -16.7351 418.443 -14.4214" stroke="#BBD2FF" stroke-width="1.07" stroke-miterlimit="10"></path>
      <path d="M429.109 221.408C429.109 221.408 431.423 -16.6513 429.109 -14.3316" stroke="#BBD2FF" stroke-width="1.07" stroke-miterlimit="10"></path>
      <path d="M439.777 223.003C439.777 223.003 442.091 -16.5553 439.777 -14.2416" stroke="#BBD2FF" stroke-width="1.07" stroke-miterlimit="10"></path>
      <path d="M450.443 224.591C450.443 224.591 452.757 -16.4714 450.443 -14.1517" stroke="#BBD2FF" stroke-width="1.07" stroke-miterlimit="10"></path>
    </g>
  </g>
  <path d="M130.87 139.913C130.87 139.913 39.0911 145.272 0 249.425H463C462.175 243.736 452.991 201.023 450.964 194.669L130.87 139.913Z" fill="#ECECEC"></path>
  <path d="M36.9696 211.626L189.968 250.342L306.117 249.425L370.577 213.298C374.427 211.141 373.441 205.326 369.094 204.565L160.491 168.151C148.001 165.969 135.17 166.917 123.134 170.897L36.551 199.548C30.5899 201.52 30.8948 210.08 36.9815 211.62L36.9696 211.626Z" fill="white"></path>
  <path d="M283.146 56.199C289.746 51.355 290.941 41.7398 285.817 34.723C280.692 27.7062 271.188 25.9448 264.588 30.7889C257.989 35.633 256.793 45.2481 261.918 52.2649C267.042 59.2817 276.546 61.0431 283.146 56.199Z" fill="#E7EFFF"></path>
  <path opacity="0.25" d="M273.867 32.6557C279.745 32.9914 284.51 38.1223 284.51 44.1103C284.51 50.0984 279.745 54.6838 273.867 54.3482C270.926 54.1803 268.265 52.8137 266.34 50.7398" stroke="#BBD2FF" stroke-width="1.07" stroke-miterlimit="10"></path>
  <path opacity="0.25" d="M273.866 35.377V43.4989L270.314 48.0304" stroke="#BBD2FF" stroke-width="1.07" stroke-miterlimit="10"></path>
  <path d="M208.115 17.161C205.55 8.39775 213.071 9.58457 214.602 11.3888C215.798 9.63252 219.953 10.9452 220.366 13.6006C222.04 13.6006 223.517 15.4288 222.931 17.0172C227.535 19.5707 220.079 24.4019 219.822 28.8255C215.421 27.9204 215.547 14.6855 215.547 14.6855C215.547 14.6855 209.705 13.0132 209.795 13.193C209.884 13.3728 208.115 17.1551 208.115 17.1551V17.161Z" fill="#183C53"></path>
  <path d="M234.933 84.0367C234.933 84.0367 245.091 100.904 244.152 119.929C243.214 138.954 237.288 186.907 237.288 186.907L207.345 179.246C207.345 179.246 200.577 140.549 199.626 127.158C198.682 113.767 202.048 85.2055 202.048 85.2055L234.927 84.0367H234.933Z" fill="#7B9AC9"></path>
  <path d="M202.054 85.2116L201.605 89.2875C201.605 89.2875 213.492 96.2466 237.45 88.9339L235.71 85.2116H202.054Z" fill="#698CB7"></path>
  <path d="M206.997 84.756C206.997 84.756 205.263 87.9448 205.496 91.6311" stroke="#7B9AC9" stroke-width="1.07" stroke-linecap="round" stroke-linejoin="round"></path>
  <path d="M231.828 84.3003C231.828 84.3003 233.448 87.8728 233.377 93.0456" stroke="#7B9AC9" stroke-width="1.07" stroke-linecap="round" stroke-linejoin="round"></path>
  <path d="M223.122 84.5461L222.979 92.9438" stroke="#7B9AC9" stroke-width="1.07" stroke-linecap="round" stroke-linejoin="round"></path>
  <path d="M192.535 42.0543C200.768 34.7296 214.299 33.279 214.299 33.279C214.299 33.279 237.934 35.2271 240.117 42.8216C241.94 49.1633 248.314 80.3024 232.182 85.703C216.051 91.1036 204.362 86.2844 201.743 85.2115C198.287 83.8029 200.188 72.1265 197.061 63.2852C193.934 54.444 192.529 42.0543 192.529 42.0543H192.535Z" fill="#ADCDFF"></path>
  <path d="M192.535 42.0545C188.433 45.4711 181.928 59.8748 181.928 59.8748L183.518 75.5313C183.518 75.5313 191.805 73.799 198.926 63.2914C199.883 58.8319 192.541 42.0605 192.541 42.0605L192.535 42.0545Z" fill="#ADCDFF"></path>
  <path d="M162.729 50.4041C166.663 57.9086 169.288 77.2035 178.113 74.9677C186.938 72.7319 184.63 73.0316 184.63 73.0316L181.927 59.8747C181.927 59.8747 178.651 60.0725 177.222 58.1604C175.793 56.2483 166.489 43.4989 166.489 43.4989L162.723 50.4041H162.729Z" fill="#DFA980"></path>
  <path d="M179.124 59.4132C179.124 59.4132 180.367 57.7408 182.125 59.2274C183.883 60.7139 186.711 74.3324 186.711 74.3324C186.711 74.3324 183.656 77.2694 182.245 77.0597C180.834 76.8499 179.997 76.4003 179.997 76.4003C179.997 76.4003 176.923 77.0057 175.542 76.6101C174.269 76.2505 174.329 74.5302 174.329 74.5302C174.329 74.5302 179.901 72.1985 179.124 59.4192V59.4132Z" fill="#ADCDFF"></path>
  <path d="M234.747 38.1942C242.382 40.6817 243.781 44.2841 246.537 58.7897C249.294 73.2953 247.644 76.0286 245.946 80.6021C244.248 85.1755 241.342 86.2365 241.342 86.2365L231.638 72.8458L231.297 49.1153L234.747 38.2002V38.1942Z" fill="#ADCDFF"></path>
  <path d="M210.705 68.6081C210.705 68.6081 225.485 87.5073 230.681 89.1017C235.877 90.6961 241.336 86.2306 241.336 86.2306L236.72 75.1416L231.632 72.8399C231.632 72.8399 220.044 67.4332 216.72 64.4182C213.396 61.4032 210.705 68.6081 210.705 68.6081Z" fill="#DFA980"></path>
  <path d="M231.629 72.8398C228.173 71.8448 243.85 74.9977 245.082 82.4783C245.04 85.811 244.245 87.0997 242.816 87.2855C241.387 88.5862 239.013 87.741 239.013 87.741C239.013 87.741 239.217 75.0217 231.635 72.8398H231.629Z" fill="#ADCDFF"></path>
  <path d="M219.506 21.1949C219.602 26.1101 219.5 25.6245 219.5 25.6245L220.367 34.268C220.367 34.268 216.708 43.7086 213.073 45.0273C209.437 46.34 209.055 41.7665 209.055 41.6466V30.4078L219.506 21.1949Z" fill="#DFA980"></path>
  <path d="M220.367 34.2682C220.367 34.2682 216.869 39.0694 214.25 40.1364C213.049 40.9156 212.433 44.9556 212.068 44.7398C211.703 44.524 210.346 40.1364 209.694 40.2023C209.043 40.2682 209.061 34.1963 209.061 34.1963L206.615 43.8167L213.067 47.1494L219.249 42.0485L221.473 36.3062L220.361 34.2682H220.367Z" fill="#ADCDFF"></path>
  <path d="M214.25 40.1362C214.25 40.1362 217.784 43.3131 218.561 43.4989C219.338 43.6847 222.519 34.6517 222.519 34.6517L220.438 33.1772C220.438 33.1772 216.163 39.0753 214.256 40.1422L214.25 40.1362Z" fill="#8DA8D8"></path>
  <path d="M209.698 40.2081L206.619 43.8225C206.619 43.8225 206.206 42.336 206.619 39.5008C207.031 36.6656 208.084 35.4608 208.084 35.4608L209.07 34.2021C209.07 34.2021 208.999 38.3739 209.704 40.2081H209.698Z" fill="#8DA8D8"></path>
  <path d="M209.055 30.4079V32.6976C209.055 32.6976 209.168 33.8845 210.155 33.9144C212.391 33.9804 217.694 27.4888 217.694 27.4888L209.055 30.4139V30.4079Z" fill="#CB9161"></path>
  <path d="M209.472 14.3919C207.804 16.0643 206.196 25.2112 206.076 26.5838C205.957 27.9565 208.522 30.8276 210.011 31.1273C211.499 31.427 215.972 29.8746 217.7 27.4829C219.428 25.0913 220.085 16.37 220.085 16.37L213.138 12.8455L209.478 14.3979L209.472 14.3919Z" fill="#DFA980"></path>
  <path d="M219.254 22.5857C219.254 22.5857 217.753 23.1671 217.562 17.9343C217.472 15.6026 210.686 12.8334 208.115 17.1611C208.934 10.3278 214.029 11.6705 215.039 12.198C216.049 12.7255 222.686 15.4468 222.913 17.8863C223.141 20.3259 220.851 24.1381 219.499 25.6247C219.517 24.1202 219.254 22.5857 219.254 22.5857Z" fill="#183C53"></path>
  <path d="M219.254 22.5857C219.589 20.5117 221.753 20.5417 221.448 22.304C221.143 24.0662 219.254 24.7735 219.254 24.7735V22.5857Z" fill="#DFA980"></path>
  <path d="M220.398 21.9262C220.398 21.9262 220.936 22.9812 219.955 23.4547" stroke="#CB9161" stroke-width="0.67" stroke-linecap="round" stroke-linejoin="round"></path>
  <path d="M211.379 22.3099C210.781 22.9093 208.754 24.4019 208.694 24.7735C208.635 25.1451 209.472 25.7445 210.064 25.9243" stroke="#CB9161" stroke-width="0.67" stroke-linecap="round" stroke-linejoin="round"></path>
  <path d="M213.85 22.4118C213.85 22.4118 215.41 22.0821 216.265 22.6156" stroke="#CB9161" stroke-width="0.67" stroke-linecap="round" stroke-linejoin="round"></path>
  <path d="M209.52 22.208C209.52 22.208 208.186 21.9263 207.559 22.22" stroke="#CB9161" stroke-width="0.67" stroke-linecap="round" stroke-linejoin="round"></path>
  <path d="M212.074 26.4278C212.074 26.4278 214.053 25.4328 214.394 25.7025C214.735 25.9722 214.747 27.4528 213.82 27.5966C213.079 27.7105 212.612 27.3149 212.08 26.4278H212.074Z" fill="#CB9161"></path>
  <path d="M198.562 57.4409C198.562 57.4409 197.695 54.7316 197.617 54.2042C197.54 53.6767 198.036 53.5868 198.425 53.6107C198.813 53.6287 205.594 54.5758 205.922 54.5818C206.556 54.5938 206.73 55.0433 206.921 55.7206C207.184 56.6437 210.712 68.6138 210.712 68.6138C210.712 68.6138 200.727 63.7946 200.535 63.6867C200.481 63.6568 198.568 57.4469 198.568 57.4469L198.562 57.4409Z" fill="white"></path>
  <path d="M197.814 53.7186C197.964 53.7007 198.245 53.7186 198.418 53.7246C198.807 53.7426 205.635 54.402 205.964 54.408C206.598 54.4199 206.771 54.8695 206.962 55.5468C207.225 56.4699 210.753 68.44 210.753 68.44" stroke="#D8DADE" stroke-width="0.67" stroke-linecap="round" stroke-linejoin="round"></path>
  <g style="mix-blend-mode:multiply" opacity="0.25">
    <path d="M199.524 57.9204C199.458 57.8664 199.41 57.7825 199.381 57.6866C199.249 57.255 198.795 55.4448 198.783 55.289C198.771 55.1511 198.836 55.0852 199.01 55.0912C199.464 55.1032 200.534 55.1991 201.138 55.283C201.473 55.3309 201.605 55.4089 201.647 55.5467C201.671 55.6306 202.065 57.0512 202.352 58.1062C202.37 58.1721 202.412 58.3579 202.023 58.328C201.838 58.31 199.811 58.0522 199.733 58.0283C199.644 58.0043 199.572 57.9623 199.524 57.9204Z" fill="#CBD6E2"></path>
  </g>
  <path d="M215.698 73.4031C218.711 73.6129 217.144 67.6129 216.792 65.9705C216.439 64.3281 216.505 62.416 213.455 60.9894C210.035 59.389 209.246 57.9624 208.487 58.5858C207.578 59.3351 207.303 60.1742 208.218 61.445C208.905 62.404 210.161 63.1173 210.161 63.1173C210.161 63.1173 208.451 64.2142 206.52 63.7767C204.588 63.3391 200.6 62.2362 198.801 59.6408C197.707 58.8496 197.091 61.1333 198.143 62.452C197.599 64.6518 199.154 65.6168 199.154 65.6168C199.154 65.6168 198.932 66.8456 200.032 67.8586C201.438 71.5989 212.313 73.1634 215.692 73.3971L215.698 73.4031Z" fill="#DFA980"></path>
  <path d="M198.148 62.4519C198.148 62.4519 201 65.8385 205.168 66.8515" stroke="#CB9161" stroke-width="0.67" stroke-linecap="round" stroke-linejoin="round"></path>
  <path d="M199.16 65.6228C199.16 65.6228 202.012 68.2182 204.816 68.8775" stroke="#CB9161" stroke-width="0.67" stroke-linecap="round" stroke-linejoin="round"></path>
  <path d="M200.037 67.8646C200.037 67.8646 201.789 69.6208 204.073 70.1063" stroke="#CB9161" stroke-width="0.67" stroke-linecap="round" stroke-linejoin="round"></path>
  <path d="M200.048 56.3308C200.216 56.2398 200.263 55.9982 200.152 55.7913C200.041 55.5843 199.814 55.4903 199.645 55.5813C199.477 55.6723 199.43 55.9138 199.541 56.1208C199.652 56.3278 199.879 56.4218 200.048 56.3308Z" fill="#D8DADE"></path>
  <path d="M200.415 57.7284C200.583 57.6374 200.63 57.3959 200.519 57.1889C200.408 56.9819 200.181 56.8879 200.012 56.9789C199.844 57.0699 199.797 57.3115 199.908 57.5184C200.019 57.7254 200.246 57.8194 200.415 57.7284Z" fill="#D8DADE"></path>
  <path d="M201.348 57.0273C201.517 56.9363 201.564 56.6947 201.453 56.4877C201.341 56.2808 201.115 56.1868 200.946 56.2778C200.777 56.3688 200.731 56.6103 200.842 56.8173C200.953 57.0242 201.18 57.1183 201.348 57.0273Z" fill="#D8DADE"></path>
  <path opacity="0.16" d="M223.051 186.907L215.512 100.538L213.072 99.2376" stroke="#183C53" stroke-width="1.07" stroke-linecap="round" stroke-linejoin="round"></path>
  <path opacity="0.16" d="M215.813 101.989C215.813 101.989 216.315 138.445 206.24 152.812C213.893 180.924 215.813 188.597 215.813 188.597L223.059 186.913L215.813 101.989Z" fill="#183C53"></path>
  <path d="M163.77 51.0275C165.307 51.1833 166.688 50.0924 166.939 48.5699C167.501 45.1593 167.609 44.0684 166.538 42.3241C165.253 40.2262 163.065 36.9594 162.55 35.4669C162.036 33.9744 159.34 33.9264 159.854 36.2581C160.41 38.1702 160.787 39.7107 160.787 39.7107L159.794 39.3391C159.794 39.3391 159.908 36.5399 158.508 36.5399C157.343 36.6777 156.32 38.6378 156.32 38.6378C156.32 38.6378 155.483 38.5898 155.346 37.379C155.208 36.1682 153.301 35.419 152.601 36.4439C152.32 37.5169 152.649 40.1782 153.157 40.5019L155.202 41.8086C155.202 41.8086 155.25 42.9295 156.135 43.3011C156.039 44.0924 156.649 45.7767 158.694 47.455C160.739 49.1334 163.023 50.8297 163.531 50.9855C163.591 51.0035 163.668 51.0155 163.77 51.0275Z" fill="#DFA980"></path>
  <path d="M156.319 38.6377C156.319 38.6377 154.938 40.5378 155.201 41.8085" stroke="#CB9161" stroke-width="0.67" stroke-linecap="round" stroke-linejoin="round"></path>
  <path d="M156.135 43.3072C156.135 43.3072 157.301 39.5729 158.257 39.2971C159.22 39.0154 160.105 39.2012 159.925 40.9755C159.812 41.5989 159.501 42.3122 159.501 42.3122L160.093 43.3072" stroke="#CB9161" stroke-width="0.67" stroke-linecap="round" stroke-linejoin="round"></path>
  <path d="M158.881 46.7237C158.881 46.7237 158.229 45.3571 158.725 44.5479C159.222 43.7387 161.051 41.8745 161.518 41.9944C161.984 42.1143 162.606 42.7437 162.54 43.9845C162.474 45.2252 162.199 45.417 162.199 45.417C162.199 45.417 163.718 44.9495 164.214 46.472" stroke="#CB9161" stroke-width="0.67" stroke-linecap="round" stroke-linejoin="round"></path>
  <g style="mix-blend-mode:multiply" opacity="0.59">
    <path d="M180 76.3945C180 76.3945 183.037 73.8949 181.202 64.76" stroke="#E7E2DD" stroke-width="1.07" stroke-miterlimit="10"></path>
  </g>
  <g style="mix-blend-mode:multiply" opacity="0.59">
    <path d="M186.715 74.3325C186.715 74.3325 185.95 62.8239 182.129 59.2275" stroke="#E7E2DD" stroke-width="1.07" stroke-miterlimit="10"></path>
  </g>
  <g style="mix-blend-mode:multiply" opacity="0.59">
    <path d="M232.139 58.6101L233.257 72.0368" stroke="#E7E2DD" stroke-width="1.07" stroke-miterlimit="10"></path>
  </g>
  <g style="mix-blend-mode:multiply" opacity="0.59">
    <path d="M233.254 72.0367C233.254 72.0367 235.592 71.3474 239.652 72.6601C242.976 73.733 245.086 79.6851 245.086 79.6851" stroke="#E7E2DD" stroke-width="1.07" stroke-miterlimit="10"></path>
  </g>
  <g style="mix-blend-mode:multiply" opacity="0.59">
    <path d="M240.705 77.1076C240.705 77.1076 244.221 81.3394 242.822 87.2855" stroke="#E7E2DD" stroke-width="1.07" stroke-miterlimit="10"></path>
  </g>
  <g style="mix-blend-mode:multiply">
    <path d="M340.058 209.774C340.058 209.774 291.646 218.987 286.88 227.289C278.904 241.189 302.725 256.689 325.027 245.942C347.329 235.189 349.535 220.281 356.291 214.575C341.613 211.218 340.058 209.774 340.058 209.774Z" fill="#E7E2DD"></path>
  </g>
  <path d="M333.898 200.501C333.898 206.285 339.68 216.883 349.073 216.883C358.466 216.883 364.248 206.285 364.248 200.501C364.248 198.289 364.248 197.474 364.248 190.497C361.51 185.522 354.245 188.627 349.073 188.627C343.573 188.627 336.559 185.282 333.898 190.497C333.898 197.474 333.898 198.517 333.898 200.501Z" fill="#CCCFD1"></path>
  <path d="M349.073 197.474C357.454 197.474 364.248 194.35 364.248 190.497C364.248 186.644 357.454 183.52 349.073 183.52C340.692 183.52 333.898 186.644 333.898 190.497C333.898 194.35 340.692 197.474 349.073 197.474Z" fill="#D8DBDE"></path>
  <path d="M349.073 196.126C356.793 196.126 363.052 193.426 363.052 190.096C363.052 186.765 356.793 184.066 349.073 184.066C341.352 184.066 335.094 186.765 335.094 190.096C335.094 193.426 341.352 196.126 349.073 196.126Z" fill="#CCCFD1"></path>
  <path d="M349.075 196.125C342.953 196.125 337.745 194.429 335.855 192.061C337.745 189.64 342.953 187.896 349.075 187.896C355.198 187.896 360.405 189.64 362.295 192.061C360.405 194.429 355.198 196.125 349.075 196.125Z" fill="#93AE82"></path>
  <path d="M360.865 193.332C358.384 195.011 354.031 196.125 349.068 196.125C344.112 196.125 339.753 195.011 337.271 193.332C339.753 191.612 343.98 190.335 348.937 190.335C353.893 190.335 358.378 191.612 360.859 193.332H360.865Z" fill="#93AE82"></path>
  <path d="M349.816 95.3055C351.508 100.874 358.192 102.456 367.586 97.1757C376.979 91.9009 385.301 76.0706 381.905 76.2385C378.509 76.4063 380.548 76.2385 383.603 73.1755C386.659 70.1125 389.038 63.603 384.793 62.602C380.548 61.601 373.415 67.0496 370.868 68.5781C368.321 70.1125 363.4 74.0267 363.568 74.5361C363.735 75.0456 364.757 78.6241 363.908 78.1086C363.059 77.5931 361.607 75.723 361.146 76.5741C360.686 77.4253 347.442 87.4653 349.816 95.2995V95.3055Z" fill="#93AE82"></path>
  <path d="M317.556 70.1125C315.349 65.5151 320.312 66.1984 324.647 67.7269C328.982 69.2554 329.867 69.1295 330.375 71.683C330.716 73.1695 330.799 70.3643 331.732 70.7059C332.665 71.0476 345.908 75.4712 349.137 84.8339C352.366 94.1966 343.553 98.9439 336.234 91.811C329.281 85.0377 325.155 79.3853 326.596 79.0436C328.037 78.702 329.418 78.2404 327.828 78.1086C326.237 77.9767 326.171 78.7919 323.708 77.1735C321.245 75.5551 318.536 72.1565 317.556 70.1125Z" fill="#93AE82"></path>
  <path d="M384.243 63.8967C374.945 71.8088 355.609 89.3414 352.554 99.1117C346.802 117.513 349.821 193.728 349.821 193.728" stroke="#93AE82" stroke-width="2.93" stroke-miterlimit="10" stroke-linecap="round"></path>
  <path d="M319.68 68.8778C328.086 73.2175 343.237 80.6561 345.659 95.2576C348.08 109.859 350.669 192.457 350.669 192.457" stroke="#93AE82" stroke-width="2.93" stroke-miterlimit="10" stroke-linecap="round"></path>
  <path d="M390.502 115.559C390.017 112.52 382.669 114.025 381.91 114.708C381.15 115.391 381.061 117.603 380.469 117.262C379.877 116.92 380.212 115.212 379.536 115.26C378.855 115.308 370.621 117.603 365.019 121.008C359.417 124.413 357.461 131.048 361.623 134.201C365.784 137.354 373.085 134.542 378.005 132.157C382.932 129.771 386.155 125.941 386.412 125.432C386.669 124.922 382.759 125.348 383.183 125.006C383.608 124.664 386.675 123.813 387.094 123.561C387.512 123.31 391.267 120.325 390.502 115.559Z" fill="#93AE82"></path>
  <path d="M387.598 116.411C379.616 119.222 359.873 125.264 357.326 141.352C354.522 159.082 352.148 192.673 352.148 192.673" stroke="#93AE82" stroke-width="2.93" stroke-miterlimit="10" stroke-linecap="round"></path>
  <path d="M341.546 125.707C346.795 128.309 347.573 121.961 347.148 118.556C346.724 115.152 341.372 106.215 339.256 104.512C337.133 102.81 337.558 106.898 337.133 106.299C336.709 105.705 337.133 103.403 336.2 102.552C335.268 101.701 323.298 93.2975 320.069 95.6711C316.84 98.0448 323.041 103.487 323.633 103.661C324.224 103.835 327.142 104.632 326.969 104.89C326.795 105.148 324.99 105.28 324.99 105.28C324.99 105.28 333.821 121.877 341.546 125.707Z" fill="#93AE82"></path>
  <path d="M321.68 96.9419C328.131 99.2376 340.442 113.539 344.855 126.9C349.267 140.261 347.701 192.457 347.701 192.457" stroke="#93AE82" stroke-width="2.93" stroke-miterlimit="10" stroke-linecap="round"></path>
  <path d="M367.478 101.857C368.537 102.259 370.617 105.004 370.659 107.048C370.701 109.092 368.046 109.517 368.309 110.111C368.573 110.704 370.701 109.332 370.659 110.782C370.617 112.233 369.374 130.718 353.721 129.939C340.052 129.256 350.492 109.685 352.363 110.111C354.229 110.536 355.843 111.543 355.843 110.782C355.843 110.021 353.721 109.428 353.721 108.319C353.721 107.21 361.445 99.5554 367.472 101.851L367.478 101.857Z" fill="#93AE82"></path>
  <path d="M366.64 102.45C366.64 102.45 353.246 118.323 351.871 129.705C350.496 141.088 349.031 193.26 349.031 193.26" stroke="#93AE82" stroke-width="2.93" stroke-miterlimit="10" stroke-linecap="round"></path>
  <path d="M323.048 118.281C318.749 116.836 315.819 116.075 315.436 118.113C314.928 120.834 317.983 131.635 327.406 136.059C336.829 140.483 339.968 135.729 340.058 132.241C340.148 128.752 336.166 122.71 330.731 120.582C325.296 118.455 324.435 118.622 324.351 118.88C324.267 119.138 325.17 121.128 324.321 120.786C323.472 120.445 323.048 118.281 323.048 118.281Z" fill="#93AE82"></path>
  <path d="M316.369 118.029C316.626 118.197 334.623 126.966 340.058 140.585C345.493 154.203 347.705 192.457 347.705 192.457" stroke="#93AE82" stroke-width="2.93" stroke-miterlimit="10" stroke-linecap="round"></path>
  <path d="M353.17 146.513C353.17 146.513 350.886 183.047 352.417 193.26" stroke="#93AE82" stroke-width="2.93" stroke-miterlimit="10" stroke-linecap="round"></path>
  <path d="M340.059 151.985C340.059 151.985 346.295 157.392 349.033 193.26" stroke="#93AE82" stroke-width="2.93" stroke-miterlimit="10" stroke-linecap="round"></path>
  <path d="M353.421 144.247C354.413 144.211 355.244 143.468 355.4 142.485C356.069 138.217 355.998 135.831 361.708 136.065C363.663 136.065 361.116 138.373 362.814 138.289C363.92 137.27 364.679 137.336 366.294 137.857C367.908 138.379 377.415 148.077 372.745 150.888C368.075 153.7 360.775 153.184 360.859 152.591C360.942 151.997 361.116 150.205 360.01 151.056C358.904 151.907 360.596 152.033 357.63 152.183C354.664 152.333 347.681 151.907 346.796 147.867C346.156 144.93 350.82 144.349 353.421 144.253V144.247Z" fill="#93AE82"></path>
  <path d="M338.707 151.206C335.568 147.46 332.597 150.097 329.792 152.315C326.988 154.527 325.039 160.91 325.039 164.399C324.955 165.166 326.737 164.141 326.905 164.399C327.072 164.657 324.86 165.933 325.033 166.527C325.207 167.12 325.033 175.038 327.921 174.613C330.809 174.187 335.562 166.017 335.903 164.825C336.244 163.632 334.97 161.768 335.646 161.977C336.322 162.187 336.495 163.632 337.087 163.122C337.679 162.613 345.404 154.359 344.555 151.632C343.706 148.904 338.695 151.206 338.695 151.206H338.707Z" fill="#93AE82"></path>
  <path d="M338.706 151.206C338.706 151.206 327.483 161.438 327.723 172.161" stroke="#93AE82" stroke-width="2.13" stroke-miterlimit="10" stroke-linecap="round"></path>
  <path d="M354.736 143.707C354.736 143.707 365.905 146.405 369.475 149.324" stroke="#93AE82" stroke-width="2.13" stroke-miterlimit="10" stroke-linecap="round"></path>
  <path d="M239.319 127.769C239.319 127.769 236.892 126.936 232.611 125.3C229.962 124.293 234.972 135.298 234.972 135.298L242.984 137.132V128.896L239.319 127.769Z" fill="#C16434"></path>
  <path d="M259.157 129.034L237.883 127.212C237.883 127.212 238.093 135.394 235.862 140.603C233.632 145.818 257.423 140.723 257.423 140.723L271.958 134.651L259.157 129.034Z" fill="#183C53"></path>
  <g style="mix-blend-mode:multiply">
    <path d="M256.065 128.77L256.765 143.288L243.545 140.854C243.545 140.854 251.264 139.2 256.065 128.77Z" fill="#D9D9D9"></path>
  </g>
  <path d="M235.103 126.187C237.615 131.066 236.64 134.351 234.858 134.77C233.076 135.19 227.079 138.331 226.386 138.259C226.099 138.229 224.616 134.477 223.056 132.607C220.831 129.945 218.452 128.866 219.175 128.752C220.401 128.555 225.381 125.564 229.387 126.481C231.05 126.864 235.097 126.187 235.097 126.187H235.103Z" fill="#C16434"></path>
  <g style="mix-blend-mode:multiply">
    <path d="M274.89 243.844L283.123 238.395L281.156 238.018L269.682 241.279C251.159 232.725 218.519 222.469 218.519 222.469C218.519 222.469 254.226 192.853 221.467 196.329C193.323 199.314 181.76 212.255 167.942 212.567C158.238 212.783 149.431 210.205 141.73 206.951L155.566 200.213L153.497 199.626L137.061 204.847C131.458 202.173 126.561 199.362 122.46 197.384L129.808 194.003L127.452 193.464L118.926 195.832C117.258 195.196 115.763 194.795 114.466 194.747C101.748 194.267 77.3896 198.475 72.14 203.294C69.6168 202.761 66.8963 202.353 64.0264 202.113L67.0039 199.632C67.0039 199.632 66.0892 199.038 65.4374 199.392C65.0906 199.578 61.9397 200.783 59.0578 201.868C58.6213 201.862 58.1848 201.856 57.7424 201.856C40.4928 201.856 26.5078 207.55 26.5078 214.569C26.5078 221.588 40.4928 227.282 57.7424 227.282C70.7707 227.282 81.9336 224.034 86.6152 219.418C91.1832 220.084 97.2281 220.761 105.192 221.45C118.83 222.637 134.998 234.056 153.252 238.174C151.482 254.861 180.714 258.691 184.815 259.213C193.072 260.268 232.935 259.429 255.906 254.759C269.52 251.99 281.269 252.374 282.059 250.33C282.674 248.735 279.757 246.433 274.89 243.832V243.844Z" fill="#E7E2DD"></path>
  </g>
  <path d="M170.431 195.304C170.431 195.304 168.661 200.225 168.332 201.376C166.042 209.492 170.138 215.732 169.091 216.104C168.045 216.475 161.546 214.497 161.546 214.497L154.275 203.121C154.275 203.121 157.923 201.778 158.861 196.293C159.489 192.625 159.346 187.494 159.346 187.494L163.346 187.218L170.431 195.304Z" fill="#E4BCA7"></path>
  <path d="M167.938 212.567C168.399 213.958 168.177 217.225 164.201 213.269C161.385 210.469 157.421 206.579 156.267 201.778C153.451 203.013 151.998 205.35 152.512 206.345C152.662 206.639 156.142 207.994 157.284 209.594C159.998 213.418 162.396 219.616 168.351 223.117C170.85 224.585 173.104 224.921 173.606 223.854C175.884 219.005 170.348 218.01 167.944 212.567H167.938Z" fill="#183C53"></path>
  <path d="M154.283 203.114C151.628 205.081 152.19 205.524 151.371 208.173C150.546 210.817 149.895 213.304 149.895 213.304L152.812 214.533C152.812 214.533 154.779 211.788 155.652 210.913C157.596 212.088 157.458 216.463 161.853 219.412C166.247 222.361 169.41 223.662 169.41 223.662L157.518 209.019L154.289 203.114H154.283Z" fill="#183C53"></path>
  <path d="M125.111 127.314L135.868 123.046C135.868 123.046 160.746 123.981 169.404 125.863C178.062 127.745 182.313 135.675 181.219 144.966C180.125 154.257 170.187 196.287 170.187 196.287C170.187 196.287 162.379 197.042 159.108 192.283C158.044 169.086 163.186 141.741 163.186 141.741L125.117 127.32L125.111 127.314Z" fill="#4D55B8"></path>
  <path d="M159.805 167.462C159.805 167.462 159.225 175.038 159.195 176.417C162.538 185.936 172.104 188.075 172.104 188.075L174.143 177.772L159.805 167.468V167.462Z" fill="#3B4594"></path>
  <path d="M179.475 196.611C182.745 200.459 184.712 206.321 184.886 207.994C185.059 209.666 185.806 213.089 185.806 213.089C185.806 213.089 205.226 222.559 204.802 217.536C201.597 212.933 196.096 207.244 194.745 204.733C193.394 202.221 189.944 193.476 189.944 193.476L179.475 196.611Z" fill="#E4BCA7"></path>
  <path d="M185.099 209.492C185.099 209.492 184.149 214.689 185.709 215.444C187.276 216.2 203.443 224.735 208.166 224.651C212.89 224.567 212.047 220.551 209.165 219.005C206.283 217.458 202.211 214.132 202.211 214.132C202.211 214.132 204.358 217.704 199.885 216.697C195.413 215.69 187.539 213.167 185.099 209.492Z" fill="#183C53"></path>
  <path d="M137.938 152.021L156.066 199.488C156.198 199.836 155.941 200.208 155.57 200.208H154.344C153.967 200.208 153.633 199.974 153.495 199.62L135.396 151.686L137.932 152.021H137.938Z" fill="#98BAEB"></path>
  <g style="mix-blend-mode:multiply">
    <path d="M137.941 152.021L138.42 153.268C138.42 153.268 136.734 153.784 136.901 155.642L135.406 151.686L137.941 152.021Z" fill="#E7E2DD"></path>
  </g>
  <path d="M127.307 151.686L129.806 193.392C129.824 193.722 129.567 194.004 129.232 194.004H128.018C127.713 194.004 127.468 193.77 127.444 193.464L124.76 150.493L127.295 151.686H127.307Z" fill="#98BAEB"></path>
  <g style="mix-blend-mode:multiply">
    <path d="M124.773 150.493L125.072 155.264C125.072 155.264 126.089 153.136 127.404 153.244C127.273 151.098 127.309 151.686 127.309 151.686L124.773 150.493Z" fill="#E7E2DD"></path>
  </g>
  <path d="M121.021 160.839L102.527 175.95" stroke="#98BAEB" stroke-width="1.07" stroke-linecap="round" stroke-linejoin="round"></path>
  <path d="M119.857 158.765L144.957 176.998" stroke="#98BAEB" stroke-width="1.07" stroke-linecap="round" stroke-linejoin="round"></path>
  <path d="M108.75 157.656L118.825 178.773" stroke="#98BAEB" stroke-width="1.07" stroke-linecap="round" stroke-linejoin="round"></path>
  <path d="M120.332 180.086L138.413 157.656" stroke="#98BAEB" stroke-width="1.07" stroke-linecap="round" stroke-linejoin="round"></path>
  <path d="M108.412 152.021C108.412 152.021 93.6074 197.984 93.6074 198.463C93.6074 198.943 95.1141 199.26 95.7479 198.463C96.3817 197.666 111.455 152.249 111.455 152.249L108.418 152.027L108.412 152.021Z" fill="#98BAEB"></path>
  <g style="mix-blend-mode:multiply">
    <path d="M111.77 151.686L111.077 153.352C111.077 153.352 109.056 152.399 107.238 155.636C107.89 153.604 108.404 152.015 108.404 152.015L111.764 151.68L111.77 151.686Z" fill="#E7E2DD"></path>
  </g>
  <path d="M118.9 152.021L117.955 205.482C117.955 205.692 118.117 205.86 118.326 205.86H120.125C120.329 205.86 120.49 205.698 120.496 205.494L121.758 151.686L118.9 152.021Z" fill="#98BAEB"></path>
  <g style="mix-blend-mode:multiply">
    <path d="M121.76 151.038V153.831C121.76 153.831 118.872 154.011 118.807 157.656L118.908 152.021L121.766 151.038H121.76Z" fill="#E7E2DD"></path>
  </g>
  <path d="M115.445 102.439C111.344 101.707 104.952 102.325 102.345 102.097C90.1 101.024 89.1613 103.182 91.0985 109.386C94.2435 119.432 90.937 140.849 90.9789 142.065C91.1104 145.41 94.6022 154.569 111.439 152.249C132.402 149.36 141.083 155.222 148.294 152.885C153.448 151.212 154.745 146.441 150.225 145.728C146.136 145.08 137.538 143.738 135.158 139.919C132.778 136.101 124.384 115.278 121.915 111.999C118.979 108.103 118.297 102.954 115.445 102.445V102.439Z" fill="#BFD6FF"></path>
  <mask id="mask1_3622_18729" style="mask-type:luminance" maskUnits="userSpaceOnUse" x="90" y="101" width="63" height="53">
    <path d="M115.445 102.439C111.344 101.707 104.952 102.325 102.345 102.097C90.1 101.024 89.1613 103.182 91.0985 109.386C94.2435 119.432 90.937 140.849 90.9789 142.065C91.1104 145.41 94.6022 154.569 111.439 152.249C132.402 149.36 141.083 155.222 148.294 152.885C153.448 151.212 154.745 146.441 150.225 145.728C146.136 145.08 137.538 143.738 135.158 139.92C132.778 136.101 124.384 115.278 121.915 111.999C118.979 108.103 118.297 102.954 115.445 102.445V102.439Z" fill="white"></path>
  </mask>
  <g mask="url(#mask1_3622_18729)">
    <path d="M97.401 100.071C99.6491 108.097 96.2171 114.463 93.5983 124.515C91.3801 133.026 88.9705 146.627 101.754 145.44C103.805 145.248 93.5983 150.271 100.654 153.802C117.813 162.391 111.769 145.44 142.77 151.668C144.839 134.033 97.401 100.071 97.401 100.071Z" fill="#ADCDFF"></path>
  </g>
  <path d="M103.658 136.479C104.615 148.407 110.827 149.03 119.359 149.03C127.891 149.03 139.784 149.156 142.773 151.668C145.763 154.179 178.719 195.856 179.479 196.611C183.18 197.996 189.26 195.808 189.948 193.476C184.172 177.154 168.872 145.805 162.45 139.152C157.075 133.578 148.316 130.491 146.115 130.365C143.915 130.239 125.111 127.32 125.111 127.32L103.664 136.485L103.658 136.479Z" fill="#4D55B8"></path>
  <path d="M176.947 163.794C174.837 159.778 172.618 155.809 170.316 151.901C166.783 146.153 163.393 140.117 158.55 135.376C156.881 133.871 154.717 133.134 152.63 132.409C148.343 131.042 143.853 130.305 139.375 129.867C139.195 129.855 139.058 129.699 139.076 129.52C139.094 129.346 139.249 129.214 139.423 129.232C143.967 129.633 148.475 130.395 152.834 131.791C154.472 132.325 156.074 132.972 157.575 133.835C159.058 134.77 160.212 136.113 161.318 137.432C164.899 141.867 167.835 146.776 170.705 151.68C172.977 155.618 175.153 159.61 177.234 163.65C177.276 163.728 177.246 163.824 177.168 163.865C177.091 163.907 176.995 163.871 176.953 163.8L176.947 163.794Z" fill="#3B4594"></path>
  <path d="M165.969 126.121C165.969 126.121 160.785 126.589 156.755 133.739C146.424 131.006 142.43 133.266 141.832 134.225C141.234 135.184 131.045 134.219 131.045 134.219C131.045 134.219 115.446 151.068 105.569 143.959C103.339 138.69 102.525 133.38 102.525 133.38L128.002 124.485L165.969 126.133V126.121Z" fill="#3B4594"></path>
  <path d="M184.848 213.406L186.103 221.528L189.529 221.906L190.33 217.764C190.33 217.764 192.423 218.831 194.372 220.527C196.321 222.224 197.727 222.601 201.314 223.602C204.901 224.609 208.172 224.651 208.172 224.651L189.517 214.503L184.848 213.412V213.406Z" fill="#183C53"></path>
  <path d="M143.892 124.239L123.234 130.419L143.067 132.618L165.417 126.355L143.892 124.239Z" fill="#E2E4E7"></path>
  <path d="M130.873 129.178L140.236 129.442L147.59 126.48L142.741 125.449L130.873 129.178Z" fill="#CCCFD1"></path>
  <path d="M125.113 130.85L143.062 132.277" stroke="#CCCFD1" stroke-width="1.07" stroke-miterlimit="10" stroke-linecap="round"></path>
  <path d="M101.754 103.397C105.82 93.1896 119.255 90.9359 119.255 90.9359C119.255 90.9359 123.954 91.1696 126.029 90.9598C128.104 90.756 137.24 92.2605 141.102 100.065C139.829 101.234 140.337 103.577 140.283 107.719C140.121 110.003 136.002 125.857 136.002 125.857L110.352 127.811L113.563 113.108C113.563 113.108 111.033 105.094 101.76 103.392L101.754 103.397Z" fill="#4D62DA"></path>
  <g style="mix-blend-mode:multiply" opacity="0.22">
    <path d="M104.893 104.297C112.098 95.767 119.691 94.9039 119.691 94.9039L119.255 90.9418C119.255 90.9418 115.237 91.6131 110.932 93.8909C110.441 94.1486 109.945 94.4303 109.449 94.736C106.364 96.6362 103.344 99.4114 101.754 103.397C102.902 103.607 103.948 103.913 104.893 104.291V104.297Z" fill="#3B4594"></path>
  </g>
  <path d="M141.103 100.071C142.406 103.793 149.408 123.621 149.408 125.108C149.408 126.594 135.871 123.046 135.871 123.046C135.871 123.046 135.656 116.584 136.391 108.073C136.738 104.051 138.633 101.713 141.103 100.077V100.071Z" fill="#E4BCA7"></path>
  <mask id="mask2_3622_18729" style="mask-type:luminance" maskUnits="userSpaceOnUse" x="135" y="100" width="15" height="26">
    <path d="M141.109 100.071C142.412 103.793 149.414 123.621 149.414 125.108C149.414 126.594 135.877 123.046 135.877 123.046C135.877 123.046 135.662 116.584 136.397 108.073C136.744 104.051 138.639 101.713 141.109 100.077V100.071Z" fill="white"></path>
  </mask>
  <g mask="url(#mask2_3622_18729)">
    <g style="mix-blend-mode:multiply" opacity="0.47">
      <path d="M137.949 103.181C136.389 108.073 137.537 118.065 142.302 121.817L130.948 124.652L129.955 105.022L138.439 100.91C138.439 100.91 139.504 98.2903 137.949 103.175V103.181Z" fill="#E4BCA7"></path>
    </g>
  </g>
  <path d="M128.845 122.77C128.845 122.77 127.524 126.121 128.265 128.027C129.006 129.933 134.812 129.615 136.713 128.824C138.615 128.033 141.532 126.654 141.957 127.134C142.381 127.607 143.266 129.657 145.06 128.033C146.035 128.033 146.077 127.44 146.077 127.44C146.077 127.44 146.633 127.08 146.513 126.487C146.393 125.893 146.668 124.185 145.407 122.872C144.145 121.559 142.633 121.338 140.654 121.523C139.093 121.667 128.851 122.776 128.851 122.776L128.845 122.77Z" fill="#E4BCA7"></path>
  <path d="M139.535 124.85C139.535 124.85 141.795 124.095 143.057 124.85C144.324 125.605 145.066 127.428 145.048 128.027" stroke="#D6A890" stroke-width="0.62" stroke-linecap="round" stroke-linejoin="round"></path>
  <path d="M139.535 122.788C139.535 122.788 142.782 122.075 144.007 122.788C145.233 123.501 145.909 124.76 146.184 125.378C146.459 125.995 146.064 127.434 146.064 127.434" stroke="#D6A890" stroke-width="0.62" stroke-linecap="round" stroke-linejoin="round"></path>
  <path d="M172.842 105.987L152.226 111.867C151.461 112.083 150.845 112.646 150.558 113.39L143.174 132.355C143.132 132.469 143.233 132.576 143.347 132.547L165.422 126.361C166.133 126.163 166.707 125.635 166.976 124.946L173.876 107.12C174.133 106.46 173.529 105.795 172.848 105.987H172.842Z" fill="#CCCFD1"></path>
  <g style="mix-blend-mode:multiply" opacity="0.25">
    <path d="M150.558 113.384L143.174 132.349C143.132 132.463 143.233 132.571 143.347 132.541L164.053 126.738L165.972 126.121C165.972 126.121 165.972 126.121 165.978 126.121C167.221 121.877 159.508 124.377 156.106 121.464C153.302 119.066 152.68 113.629 152.549 111.777L152.232 111.867C151.473 112.083 150.851 112.646 150.564 113.39L150.558 113.384Z" fill="#CBD6E2"></path>
  </g>
  <path d="M172.839 105.987L152.223 111.867C151.458 112.083 150.842 112.646 150.555 113.39L143.303 132.019" stroke="white" stroke-width="1.07" stroke-miterlimit="10" stroke-linecap="round"></path>
  <g style="mix-blend-mode:multiply" opacity="0.2">
    <path d="M113.814 111.993C113.814 111.993 116.839 123.046 125.109 123.699C109.76 127.859 107.686 124.952 107.686 124.952L113.814 111.993Z" fill="#67423B"></path>
  </g>
  <path d="M125.709 72.69C122.803 71.3173 119.568 72.1145 118.031 72.6061C116.86 74.4462 124.172 88.6761 124.172 88.6761C124.172 88.6761 123.419 90.6422 125.23 91.9009C129.105 92.9079 133.153 91.6012 134.217 88.6581C131.885 85.4813 127.927 73.7929 125.709 72.684V72.69Z" fill="#93645A"></path>
  <g style="mix-blend-mode:multiply" opacity="0.2">
    <path d="M126.432 81.7051L119.197 75.6271L118.031 78.8819C120.423 82.8319 124.172 88.6821 124.172 88.6821C124.172 88.6821 123.418 90.6482 125.23 91.9069C127.61 92.5243 130.055 92.2726 131.831 91.3015C128.082 89.5033 126.432 81.7051 126.432 81.7051Z" fill="#67423B"></path>
  </g>
  <path d="M124.59 86.7161C125.033 89.1677 125.314 90.7201 125.756 93.9449C126.133 96.7142 120.644 96.3665 117.774 93.5313C117.392 93.1537 117.242 92.6082 117.332 92.0808C118.061 87.9269 117.595 83.2575 117.595 83.2575L124.59 86.7161Z" fill="#E4BCA7"></path>
  <g style="mix-blend-mode:multiply" opacity="0.47">
    <path d="M125.116 90.4504C121.9 90.1388 120.345 87.5733 119.992 84.6962C124.417 84.9779 125.116 85.7032 125.116 90.4504Z" fill="#E4BCA7"></path>
  </g>
  <path d="M119.632 73.2115C123.309 71.7969 126.43 73.2115 128.14 77.9048C129.85 82.5982 129.025 87.2915 127.865 88.6522C126.705 90.0128 121.348 88.0348 117.193 84.2465C113.348 80.74 119.632 73.2055 119.632 73.2055V73.2115Z" fill="#E4BCA7"></path>
  <path d="M127.482 83.8689C127.482 83.8689 128.48 83.5392 128.576 82.8979C128.618 82.5982 127.362 81.3934 126.148 80.6501" stroke="#D6A890" stroke-width="0.67" stroke-linecap="round" stroke-linejoin="round"></path>
  <path d="M122.723 81.1536C123.053 81.1536 123.321 80.8853 123.321 80.5542C123.321 80.2232 123.053 79.9548 122.723 79.9548C122.393 79.9548 122.125 80.2232 122.125 80.5542C122.125 80.8853 122.393 81.1536 122.723 81.1536Z" fill="#C59A86"></path>
  <path d="M127.674 80.2305C128.004 80.2305 128.272 79.9621 128.272 79.6311C128.272 79.3 128.004 79.0316 127.674 79.0316C127.344 79.0316 127.076 79.3 127.076 79.6311C127.076 79.9621 127.344 80.2305 127.674 80.2305Z" fill="#C59A86"></path>
  <path d="M123.418 84.3244C123.167 85.4333 124.231 86.3744 125.708 85.0677C124.9 84.8459 123.418 84.3244 123.418 84.3244Z" fill="#D6A890"></path>
  <path d="M124.248 73.0436C124.248 73.0436 122.592 78.9957 117.343 82.2564C118.239 88.1246 120.159 90.5102 119.973 90.8459C119.417 91.8409 115.453 93.6211 111.8 92.2425C107.28 90.5402 105.982 88.3644 105.982 88.3644C105.982 88.3644 110.401 79.8888 111.961 77.7669C113.689 75.4232 116.96 70.3582 124.254 73.0376L124.248 73.0436Z" fill="#93645A"></path>
  <path d="M123.418 84.3245C124.381 84.2645 125.594 83.8629 125.708 85.0677C124.297 85.2356 123.418 84.3245 123.418 84.3245Z" fill="#D6A890"></path>
  <path d="M117.91 82.5861C117.336 79.4572 113.988 82.1005 116.182 84.4502C116.565 84.8578 117.133 85.0676 117.683 84.9717C118.562 84.8218 118.203 84.1745 117.91 82.5861Z" fill="#E4BCA7"></path>
  <path d="M116.487 82.3643C116.487 82.3643 116.146 83.3893 117.192 83.9048" stroke="#D6A890" stroke-width="0.67" stroke-linecap="round" stroke-linejoin="round"></path>
  <g style="mix-blend-mode:multiply" opacity="0.2">
    <path d="M125.71 85.0677C124.909 85.3614 123.886 85.0557 123.42 84.3245C124.221 84.6362 124.885 84.828 125.71 85.0677Z" fill="#D6A890"></path>
  </g>
  <g style="mix-blend-mode:multiply" opacity="0.2">
    <path d="M118.365 72.5162C115.011 73.3493 113.133 76.1845 111.961 77.7729C110.401 79.8948 105.982 88.3704 105.982 88.3704C105.982 88.3704 106.269 89.2276 108.272 90.4743C108.272 90.4743 113.151 89.3714 113.05 81.4413C112.948 73.649 121.331 72.0306 121.606 71.9767C120.553 72.0486 119.304 72.1565 118.371 72.5162H118.365Z" fill="#67423B"></path>
  </g>
  <path d="M101.755 103.398C99.7338 108.385 92.7323 128.117 94.5141 134.776C96.2958 141.436 106.424 142.946 114.61 137.54C122.795 132.133 133.169 128.507 133.169 128.507C133.169 128.507 137.163 123.04 132.278 122.662C128.308 122.351 110.956 125.012 110.956 125.012C110.956 125.012 114.287 114.642 113.808 111.987C113.33 109.332 107.572 103.176 101.749 103.398H101.755Z" fill="#E4BCA7"></path>
  <g style="mix-blend-mode:multiply" opacity="0.47">
    <path d="M105.188 103.949C104.076 103.565 102.916 103.356 101.756 103.398C101.72 103.487 101.678 103.583 101.642 103.685C101.63 103.715 101.618 103.745 101.606 103.775C101.576 103.847 101.546 103.925 101.516 104.003C101.505 104.039 101.487 104.075 101.475 104.111C101.439 104.195 101.409 104.285 101.373 104.375C101.361 104.405 101.349 104.429 101.337 104.458C101.289 104.584 101.241 104.71 101.188 104.842C101.188 104.842 101.188 104.848 101.188 104.854C101.14 104.98 101.092 105.112 101.038 105.25C101.026 105.28 101.014 105.316 101.002 105.346C100.96 105.46 100.919 105.573 100.871 105.693C100.859 105.723 100.847 105.759 100.835 105.789C100.781 105.933 100.727 106.083 100.673 106.233C100.673 106.233 100.673 106.239 100.673 106.245C100.554 106.574 100.428 106.916 100.297 107.276C100.291 107.3 100.279 107.324 100.273 107.342C100.213 107.503 100.153 107.671 100.093 107.839C100.093 107.857 100.082 107.869 100.076 107.887C99.8722 108.457 99.663 109.062 99.4477 109.685C99.4477 109.685 99.4477 109.697 99.4418 109.703C98.0606 113.737 96.4761 118.844 95.4238 123.544C97.8932 114.427 101.505 108.193 105.194 103.943L105.188 103.949Z" fill="#E4BCA7"></path>
  </g>
  <path d="M261.02 210.709C266.114 213.197 270.031 217.818 270.993 218.651C270.413 219.322 267.585 222.697 266.473 223.98C265.971 223.458 265.289 222.853 265.289 222.853C265.289 222.853 263.699 224.04 262.808 226.683C260.572 233.307 254.975 236.22 254.12 236.22C251.203 236.298 251.059 236.034 249.774 235.854C246.079 235.339 246.605 232.677 251.077 231.664C252.088 231.436 252.494 231.251 252.883 230.651C253.839 229.321 253.134 223.476 252.668 220.605C255.083 216.685 256.076 208.287 261.02 210.703V210.709Z" fill="#183C53"></path>
  <mask id="mask3_3622_18729" style="mask-type:luminance" maskUnits="userSpaceOnUse" x="247" y="210" width="24" height="27">
    <path d="M261.024 210.709C266.118 213.197 270.035 217.818 270.997 218.651C270.417 219.323 267.589 222.697 266.477 223.98C265.975 223.459 265.293 222.853 265.293 222.853C265.293 222.853 263.703 224.04 262.812 226.683C260.576 233.307 254.979 236.22 254.124 236.22C251.207 236.298 251.063 236.034 249.778 235.854C246.083 235.339 246.609 232.677 251.081 231.664C252.091 231.437 252.498 231.251 252.887 230.651C253.843 229.321 253.138 223.476 252.671 220.605C255.087 216.685 256.079 208.288 261.024 210.703V210.709Z" fill="white"></path>
  </mask>
  <g mask="url(#mask3_3622_18729)">
    <g style="mix-blend-mode:multiply">
      <path d="M260.849 209.492L269.034 213.838C269.034 213.838 254.009 221.702 253.339 228.494C252.664 220.611 251.994 217.776 251.994 217.776L260.843 209.498L260.849 209.492Z" fill="#D9D9D9"></path>
    </g>
  </g>
  <path d="M251.583 143.504C251.583 143.504 211.099 141.622 204.803 149.018C198.513 156.415 205.753 166.479 209.873 172.575C213.992 178.665 243.995 221.283 247.057 224.477C253.777 225.053 265.299 215.151 265.299 213.406C256.659 206.747 233.682 166.341 233.682 166.341L256.51 164.165L277.55 155.462L251.583 143.498V143.504Z" fill="#183C53"></path>
  <g style="mix-blend-mode:multiply">
    <path d="M237.44 172.575L241.386 179.012C241.386 179.012 232.351 199.77 238.833 213.131C228.136 197.528 208.842 168.403 208.842 168.403L237.44 172.575Z" fill="#D9D9D9"></path>
  </g>
  <path d="M231.558 228.35C233.028 233.84 232.12 239.828 232.12 241.105C231.235 241.105 226.84 241.183 225.142 241.183C225.202 240.464 225.214 239.546 225.214 239.546C225.214 239.546 223.139 239.397 220.568 240.47C219.611 240.871 218.577 241.063 217.537 241.051C209.68 240.961 203.528 240.799 201.567 240.529C197.872 240.014 198.607 235.92 203.187 235.86C209.399 235.776 216.054 231.61 218.619 228.523C223.151 227.78 230.129 223.021 231.558 228.344V228.35Z" fill="#183C53"></path>
  <mask id="mask4_3622_18729" style="mask-type:luminance" maskUnits="userSpaceOnUse" x="199" y="225" width="34" height="17">
    <path d="M231.554 228.35C233.024 233.84 232.116 239.828 232.116 241.105C231.231 241.105 226.836 241.183 225.138 241.183C225.198 240.463 225.21 239.546 225.21 239.546C225.21 239.546 223.135 239.397 220.564 240.469C219.607 240.871 218.573 241.063 217.533 241.051C209.676 240.961 203.524 240.799 201.563 240.529C197.868 240.014 198.603 235.92 203.183 235.86C209.395 235.776 216.05 231.61 218.615 228.523C223.147 227.78 230.125 223.021 231.554 228.344V228.35Z" fill="white"></path>
  </mask>
  <g mask="url(#mask4_3622_18729)">
    <g style="mix-blend-mode:multiply">
      <path d="M235.692 236.322C235.692 236.322 219.842 230.807 210.377 234.212C212.715 226.983 224.242 220.749 224.242 220.749L235.692 236.328V236.322Z" fill="#D9D9D9"></path>
    </g>
  </g>
  <path d="M277.551 155.468C274.298 166.347 272.816 177.772 260.236 176.243C247.656 174.721 227.578 173.57 227.578 173.57L233.127 232.018C233.127 232.018 215.811 232.881 212.607 229.069C211.506 222.577 201.037 168.817 202.598 162.277C204.308 155.138 211.249 152.776 225.348 151.907C239.447 151.038 277.551 155.468 277.551 155.468Z" fill="#183C53"></path>
  <g style="mix-blend-mode:multiply">
    <path d="M203.559 159.688C203.559 159.688 204.39 151.907 229.621 151.038C254.853 150.169 260.808 149.774 260.808 149.774" stroke="#D9D9D9" stroke-width="1.07" stroke-linecap="round" stroke-linejoin="round"></path>
  </g>
  <path d="M247.442 178.503L233.588 234.499C233.534 234.721 233.702 234.973 233.935 235.009L235.173 235.225C235.334 235.249 235.735 235.249 235.95 234.458C236.165 233.666 251.077 178.269 251.077 178.269L247.442 178.503Z" fill="#98BAEB"></path>
  <g style="mix-blend-mode:multiply">
    <path d="M251.071 178.275L250.455 180.565C250.455 180.565 248.338 180.565 246.365 182.855L247.441 178.509L251.077 178.275H251.071Z" fill="#E7E2DD"></path>
  </g>
  <path d="M270.627 181.962L283.243 237.622C283.309 237.904 283.111 238.138 282.842 238.096L281.694 238.204C281.509 238.174 281.341 238.018 281.294 237.826L266.723 181.338L270.627 181.962Z" fill="#98BAEB"></path>
  <g style="mix-blend-mode:multiply">
    <path d="M270.629 181.962L270.988 183.556C270.988 183.556 268.261 183.172 268.01 186.337C267.556 184.575 266.719 181.338 266.719 181.338L270.623 181.962H270.629Z" fill="#E7E2DD"></path>
  </g>
  <path d="M247.055 188.465L274.044 209.744" stroke="#98BAEB" stroke-width="1.07" stroke-linecap="round" stroke-linejoin="round"></path>
  <path d="M269.029 188.591L242.039 208.018" stroke="#98BAEB" stroke-width="1.07" stroke-linecap="round" stroke-linejoin="round"></path>
  <path d="M242.043 177.394C242.043 177.394 265.349 182.231 269.086 182.729C272.823 183.226 281.182 182.735 282.162 172.161C283.143 161.588 287.567 142.958 291.735 137.228C284.285 143.372 274.198 173.726 274.198 173.726L242.043 177.4V177.394Z" fill="#BFD6FF"></path>
  <path d="M242.042 173.906C228.721 173.966 227.107 175.65 228.99 176.711C229.528 177.01 230.126 177.172 230.742 177.208C234.072 177.394 238.772 177.993 242.431 178.197C246.365 178.419 265.45 180.265 270.072 178.449C274.694 176.633 282.329 172.988 282.867 167.006C284.123 153.136 296.661 144.319 298.15 142.737C301.169 139.53 303.531 127.428 291.848 129.873C289.618 130.341 277.803 137.336 275.25 150.697C272.691 164.057 270.61 173.168 263.627 173.162C257.038 173.162 243.908 174.043 242.042 173.894V173.906Z" fill="#BFD6FF"></path>
  <path d="M285.451 75.5673C287.944 77.2337 292.022 82.0109 288.853 86.6683C285.684 91.3257 284.453 94.053 284.333 96.3367C284.225 98.4166 285.995 99.7593 285.995 99.7593C285.995 99.7593 275.998 107.312 272.698 107.072C269.397 106.838 269.732 103.775 269.732 103.775C269.732 103.775 274.611 95.7433 274.623 93.7712C274.635 91.7992 285.451 75.5673 285.451 75.5673Z" fill="#C16434"></path>
  <path d="M274.624 93.7714L272.322 99.238C272.322 99.238 279.766 95.186 281.285 92.7164C280.962 91.6615 274.618 93.7714 274.618 93.7714H274.624Z" fill="#A1512F"></path>
  <path d="M285.452 75.5674C282.217 73.5474 275.443 74.5424 273.787 79.6494C272.131 84.7563 270.241 85.026 269.643 86.1649C268.998 87.3937 269.709 88.065 270.953 88.3587C271.186 88.7124 270.116 92.8483 271.533 93.7114C273.566 94.9522 277.38 94.9342 280.37 93.4836C283.365 92.0271 286.875 87.112 286.875 87.112L285.452 75.5734V75.5674Z" fill="#C16434"></path>
  <path d="M286.882 75.5673C284.048 73.7991 277.465 73.2956 274.637 77.9529C275.546 78.5224 276.191 78.1088 278.433 77.7312C280.67 77.3595 280.377 78.5463 280.377 81.0039C280.377 83.4615 282.194 86.1948 283.587 84.984C283.324 88.982 285.381 92.2308 285.381 92.2308C285.381 92.2308 287.27 89.8211 288.855 87.8251C292.538 83.1737 290.882 78.0368 286.882 75.5733V75.5673Z" fill="#183C53"></path>
  <path d="M283.062 85.991C283.403 83.036 286.691 85.2897 284.796 87.6214C284.467 88.029 283.947 88.2568 283.427 88.2028C282.596 88.1189 282.889 87.4895 283.062 85.991Z" fill="#C16434"></path>
  <path d="M284.375 85.6974C284.375 85.6974 284.757 86.6324 283.812 87.1779" stroke="#A1512F" stroke-width="0.67" stroke-linecap="round" stroke-linejoin="round"></path>
  <path d="M273.109 89.2817C273.109 89.2817 274.652 88.9161 274.939 88.1428" stroke="#A1512F" stroke-width="0.67" stroke-linecap="round" stroke-linejoin="round"></path>
  <path d="M274.258 83.7972C274.588 83.7972 274.856 83.5289 274.856 83.1978C274.856 82.8668 274.588 82.5984 274.258 82.5984C273.928 82.5984 273.66 82.8668 273.66 83.1978C273.66 83.5289 273.928 83.7972 274.258 83.7972Z" fill="#935536"></path>
  <path d="M271.333 100.772L272.762 104.237L279.124 101.324L287.805 104.105C287.805 104.105 260.391 134.165 259.931 134.753C259.471 135.34 271.327 100.772 271.327 100.772H271.333Z" fill="#F7F7F7"></path>
  <path d="M271.818 100.173C270.359 100.64 267.537 102.96 265.217 106.341C260.787 114.714 249.875 145.89 249.875 145.89L250.09 147.616L260.069 138.433L270.018 105.568L271.818 100.167V100.173Z" fill="#183C53"></path>
  <path d="M284.846 98.5066C296.218 102.595 299.357 111.957 298.221 120.103C297.085 128.249 277.348 149.018 277.348 149.018L250.084 147.622L263.776 126.271L284.84 98.5066H284.846Z" fill="#183C53"></path>
  <g style="mix-blend-mode:multiply">
    <path d="M271.333 101.09L266.137 105.627L267.626 106.095L265.527 106.778L262.914 126.187" stroke="#D9D9D9" stroke-width="1.07" stroke-linecap="round" stroke-linejoin="round"></path>
  </g>
  <g style="mix-blend-mode:multiply">
    <path d="M263.781 127.788L283.064 107.516L281.922 106.455L284.606 106.629C284.606 106.629 290.352 104.219 290.771 101.833C289.671 101.006 284.845 98.5066 284.845 98.5066" stroke="#D9D9D9" stroke-width="1.07" stroke-linecap="round" stroke-linejoin="round"></path>
  </g>
  <path d="M272.762 104.237L284.337 96.3307L285.999 99.7533L274.759 107.635C274.759 107.635 274.161 104.543 272.762 104.231V104.237Z" fill="#F7F7F7"></path>
  <path d="M272.763 104.237C272.763 104.237 271.818 101.989 271.818 100.173C270.443 99.7833 268.715 103.715 268.715 103.715L270.042 106.628C270.042 106.628 270.389 103.613 272.763 104.237Z" fill="#F7F7F7"></path>
  <g style="mix-blend-mode:multiply">
    <path d="M244.387 155.138C244.387 155.138 235.37 165.676 237.792 173.87C242.916 174.103 248.01 172.569 248.01 172.569L244.387 155.132V155.138Z" fill="#D9D9D9"></path>
  </g>
  <path d="M244.523 150.079C244.523 150.079 240.403 167.474 242.92 174.103C249.605 179.846 264.522 181.344 271.53 178.779C278.543 176.213 274.209 165.88 277.551 155.462C280.893 145.044 244.523 150.079 244.523 150.079Z" fill="#183C53"></path>
  <path d="M231.496 146.321C239.137 149.216 246.653 151.506 246.653 151.506L249.003 142.784L233.959 139.314L231.496 146.321Z" fill="#C16434"></path>
  <path d="M211.165 123.711C211.004 123.646 210.938 123.712 210.872 123.879C210.549 124.695 209.999 126.043 209.754 126.936C210.699 127.452 238.704 139.212 239.111 139.212C239.518 139.212 237.545 134.783 237.341 134.681C237.15 134.585 214.011 124.886 211.165 123.711Z" fill="#E2E4E7"></path>
  <path d="M209.754 126.936L209.527 127.602C209.443 127.847 209.562 128.117 209.808 128.219C213.67 129.766 238.549 139.65 239.213 139.913C239.924 140.195 240.181 139.692 240.229 139.38C240.277 139.068 209.754 126.942 209.754 126.942V126.936Z" fill="#183C53"></path>
  <path d="M238.28 141.046C239.183 144.295 239.165 148.473 236.068 147.921C232.971 147.37 225.647 143.875 224.152 141.046C222.657 138.217 221.832 133.008 221.832 133.008L225.216 134.351C225.216 134.351 225.539 135.813 226.089 136.665C226.418 137.174 226.573 135.969 226.573 135.969C226.573 135.969 226.573 134.95 227.141 132.493C227.572 130.647 230.46 131.324 230.998 133.032C231.536 134.741 230.998 135.394 232.529 135.646C235.919 136.191 237.605 138.637 238.28 141.046Z" fill="#C16434"></path>
  <path d="M210.997 127.434L212.074 124.089C211.679 123.927 211.368 123.801 211.171 123.718C211.009 123.652 210.944 123.718 210.878 123.885C210.555 124.695 210.011 126.031 209.766 126.924L211.003 127.44L210.997 127.434Z" fill="#CCCFD1"></path>
  <path d="M239.944 140.693L238.479 140.357C238.479 140.357 236.859 147.64 235.926 148.862C238.383 150.091 239.166 149.774 239.166 149.774L243.543 146.057L239.944 140.699V140.693Z" fill="#F7F7F7"></path>
  <path d="M288.386 105.43C278.084 111.382 266.581 142.743 266.581 142.743C266.581 142.743 243.579 140.651 239.95 140.693C239.932 145.949 236.895 151.506 236.895 151.506C236.895 151.506 264.416 161.078 270.455 160.191C276.494 159.304 281.456 154.563 286.413 145.913C291.376 137.264 297.576 126.331 298.228 121.428C298.885 116.525 296.416 100.79 288.386 105.43Z" fill="#183C53"></path>
  <path d="M100.09 168.979C100.09 168.979 104.514 201.149 104.706 201.862C104.897 202.575 103.408 204.074 102.691 202.383C101.973 200.687 96.5801 168.457 96.5801 168.457L100.09 168.979Z" fill="#93AE82"></path>
  <g style="mix-blend-mode:multiply">
    <path d="M100.09 168.979L100.281 170.363C100.281 170.363 97.8716 172.461 97.6503 174.781C97.0046 170.981 96.5801 168.463 96.5801 168.463L100.09 168.985V168.979Z" fill="#E7E2DD"></path>
  </g>
  <path d="M87.0312 170.735C87.0312 170.735 86.0566 215.612 86.0566 216.2C86.0566 216.787 83.9101 217.956 83.5872 215.81C83.2644 213.664 83.1328 169.434 83.1328 169.434L87.0312 170.735Z" fill="#93AE82"></path>
  <g style="mix-blend-mode:multiply">
    <path d="M87.0312 170.735V172.629C87.0312 172.629 84.5857 172.983 83.1567 176.597C83.1388 171.916 83.1328 169.428 83.1328 169.428L87.0312 170.729V170.735Z" fill="#E7E2DD"></path>
  </g>
  <path d="M74.0387 169.434C74.0387 169.434 67.4797 198.355 67.2824 199.201C67.0851 200.046 64.9446 200.765 65.0761 198.745C65.2077 196.725 70.535 168.457 70.535 168.457L74.0447 169.434H74.0387Z" fill="#93AE82"></path>
  <g style="mix-blend-mode:multiply">
    <path d="M74.0373 169.434L73.6128 171.298C73.6128 171.298 71.6875 171.298 69.3438 174.775C69.6905 172.911 70.5276 168.457 70.5276 168.457L74.0373 169.434Z" fill="#E7E2DD"></path>
  </g>
  <path d="M85.2016 171.304C99.4932 171.304 111.079 167.172 111.079 162.073C111.079 156.975 99.4932 152.843 85.2016 152.843C70.9099 152.843 59.3242 156.975 59.3242 162.073C59.3242 167.172 70.9099 171.304 85.2016 171.304Z" fill="#C0DCAD"></path>
  <mask id="mask5_3622_18729" style="mask-type:luminance" maskUnits="userSpaceOnUse" x="59" y="152" width="53" height="20">
    <path d="M85.2055 171.304C99.4971 171.304 111.083 167.172 111.083 162.074C111.083 156.975 99.4971 152.843 85.2055 152.843C70.9138 152.843 59.3281 156.975 59.3281 162.074C59.3281 167.172 70.9138 171.304 85.2055 171.304Z" fill="white"></path>
  </mask>
  <g mask="url(#mask5_3622_18729)">
    <g style="mix-blend-mode:multiply" opacity="0.2">
      <path d="M55.7344 156.625L76.8883 167.012" stroke="#C0DCAD" stroke-width="1.07" stroke-linecap="round" stroke-linejoin="round"></path>
    </g>
    <g style="mix-blend-mode:multiply" opacity="0.2">
      <path d="M72.5605 160.539L91.8011 169.98" stroke="#C0DCAD" stroke-width="1.07" stroke-linecap="round" stroke-linejoin="round"></path>
    </g>
    <g style="mix-blend-mode:multiply" opacity="0.2">
      <path d="M83.1387 164.759L85.7934 164.153C87.031 163.871 88.3285 164.015 89.4765 164.561L98.176 168.697" stroke="#C0DCAD" stroke-width="1.07" stroke-linecap="round" stroke-linejoin="round"></path>
    </g>
    <g style="mix-blend-mode:multiply" opacity="0.2">
      <path d="M78.9395 152.021L96.5836 160.917" stroke="#C0DCAD" stroke-width="1.07" stroke-linecap="round" stroke-linejoin="round"></path>
    </g>
    <g style="mix-blend-mode:multiply" opacity="0.2">
      <path d="M103.662 159.196L109.51 161.75" stroke="#C0DCAD" stroke-width="1.07" stroke-linecap="round" stroke-linejoin="round"></path>
    </g>
    <g style="mix-blend-mode:multiply" opacity="0.2">
      <path d="M62.5273 162.073C62.5273 162.073 67.3524 164.321 68.4107 164.909C69.469 165.496 69.5587 164.801 69.5587 164.801" stroke="#C0DCAD" stroke-width="1.07" stroke-linecap="round" stroke-linejoin="round"></path>
    </g>
    <g style="mix-blend-mode:multiply" opacity="0.2">
      <path d="M65.0664 164.453L66.1666 164.987" stroke="#C0DCAD" stroke-width="1.07" stroke-linecap="round" stroke-linejoin="round"></path>
    </g>
    <g style="mix-blend-mode:multiply" opacity="0.2">
      <path d="M98.4355 159.22L100.319 160.155" stroke="#C0DCAD" stroke-width="1.07" stroke-linecap="round" stroke-linejoin="round"></path>
    </g>
    <g style="mix-blend-mode:multiply" opacity="0.2">
      <path d="M96.7441 158.243C96.7441 158.243 97.9101 157.956 98.7053 158.243C99.5005 158.531 106.903 162.073 106.903 162.073" stroke="#C0DCAD" stroke-width="1.07" stroke-linecap="round" stroke-linejoin="round"></path>
    </g>
  </g>
  <g style="mix-blend-mode:multiply" opacity="0.59">
    <path d="M80.1426 162.745C85.6407 162.745 90.0978 161.156 90.0978 159.196C90.0978 157.236 85.6407 155.648 80.1426 155.648C74.6446 155.648 70.1875 157.236 70.1875 159.196C70.1875 161.156 74.6446 162.745 80.1426 162.745Z" fill="#E7E2DD"></path>
  </g>
  <path d="M91.0939 157.104C91.0939 158.369 88.8637 160.539 86.1134 160.539C83.363 160.539 81.1328 158.369 81.1328 157.104V148.035C82.0297 146.405 84.4153 147.418 86.1134 147.418C87.919 147.418 90.221 146.321 91.0939 148.035V157.104Z" fill="#698CB7"></path>
  <path d="M86.1134 150.325C88.864 150.325 91.0939 149.3 91.0939 148.035C91.0939 146.771 88.864 145.746 86.1134 145.746C83.3627 145.746 81.1328 146.771 81.1328 148.035C81.1328 149.3 83.3627 150.325 86.1134 150.325Z" fill="#98BAEB"></path>
  <path d="M86.1142 149.774C88.5116 149.774 90.455 148.936 90.455 147.903C90.455 146.871 88.5116 146.033 86.1142 146.033C83.7169 146.033 81.7734 146.871 81.7734 147.903C81.7734 148.936 83.7169 149.774 86.1142 149.774Z" fill="#8DA8D8"></path>
  <path d="M86.1133 149.774C88.0147 149.774 89.629 149.246 90.215 148.515C89.629 147.76 88.0147 147.22 86.1133 147.22C84.212 147.22 82.5977 147.76 82.0117 148.515C82.5977 149.246 84.212 149.774 86.1133 149.774Z" fill="#183C53"></path>
  <path d="M81.7733 151.038H81.0558C79.5132 151.038 78.2695 152.291 78.2695 153.832C78.2695 155.378 79.5192 156.625 81.0558 156.625H82.0064" stroke="#698CB7" stroke-width="1.87" stroke-miterlimit="10"></path>
  <path d="M85.4219 153.34V150.187C85.4219 149.881 85.667 149.636 85.9719 149.636H86.2829" stroke="#ADCDFF" stroke-width="0.53" stroke-linecap="round" stroke-linejoin="round"></path>
  <path d="M85.3077 155.108H84.1238C84.0461 155.108 83.9863 155.048 83.9863 154.97V153.844C83.9863 153.736 84.0162 153.628 84.07 153.532L84.65 152.711L85.3137 153.676V155.108H85.3077Z" fill="#98BAEB"></path>
  <path d="M86.801 153.622L86.233 152.819C86.1971 152.753 86.1254 152.711 86.0477 152.711H84.6426L85.3062 153.676H86.7651C86.7651 153.676 86.813 153.646 86.795 153.622H86.801Z" fill="#8DA8D8"></path>
  <path d="M85.3086 153.676H86.7735V154.952C86.7735 155.042 86.7017 155.114 86.612 155.114H85.3086V153.682V153.676Z" fill="#ADCDFF"></path>
  <g style="mix-blend-mode:multiply">
    <path d="M281.291 117.022L266.583 142.742L242.045 140.764" stroke="#D9D9D9" stroke-width="1.07" stroke-linecap="round" stroke-linejoin="round"></path>
  </g>
  <path d="M235.927 126.804C233.846 125.624 228.19 123.328 226.175 124.647C224.788 125.552 223.514 127.122 223.03 128.099C222.797 128.579 222.761 129.13 223.168 129.388C223.819 129.801 225.476 129.843 226.414 128.878C227.353 127.913 229.511 128.177 230.45 128.405C231.389 128.633 235.927 126.798 235.927 126.798V126.804Z" fill="#C16434"></path>
  <path d="M225.387 134.669C225.387 134.669 225.65 136.395 226.098 136.659L226.547 135.082" stroke="#A1512F" stroke-width="0.67" stroke-linecap="round" stroke-linejoin="round"></path>
  <path d="M225.805 129.43C225.805 129.43 227.114 128.854 228.142 127.548C229.267 128.812 230.845 131 233.255 131.192" stroke="#A1512F" stroke-width="0.67" stroke-linecap="round" stroke-linejoin="round"></path>
</svg>
