<svg width="20" height="20" viewBox="0 0 20 20" fill="none" xmlns="http://www.w3.org/2000/svg">
<g id="Layer 2">
<g id="checkmark-circle">
<path id="Vector" d="M7.67754 9.28853C7.48875 9.10022 7.23269 8.99444 6.96569 8.99444C6.6987 8.99444 6.44264 9.10022 6.25384 9.28853C6.06505 9.47683 5.95898 9.73223 5.95898 9.99853C5.95898 10.2648 6.06505 10.5202 6.25384 10.7085L9.26165 13.7085C9.35534 13.8012 9.46644 13.8745 9.5886 13.9243C9.71075 13.9741 9.84155 13.9993 9.9735 13.9985C10.1108 13.9942 10.2457 13.9618 10.3698 13.9033C10.494 13.8448 10.6048 13.7615 10.6954 13.6585L17.7136 5.65853C17.8757 5.45786 17.9538 5.20254 17.9317 4.94581C17.9096 4.68908 17.7891 4.45076 17.5951 4.28054C17.4012 4.11031 17.1489 4.02133 16.8907 4.03213C16.6326 4.04293 16.3887 4.1527 16.2097 4.33853L9.9735 11.5385L7.67754 9.28853Z" fill="#80BB01" fill-opacity="0.5"/>
<path id="Vector_2" opacity="0.3" d="M18.9974 9C18.7315 9 18.4765 9.10536 18.2884 9.29289C18.1004 9.48043 17.9948 9.73478 17.9948 10C17.9948 12.1217 17.1497 14.1566 15.6455 15.6569C14.1413 17.1571 12.1012 18 9.97396 18C8.38993 17.9993 6.84159 17.5308 5.52417 16.6535C4.20674 15.7763 3.17924 14.5297 2.57121 13.0708C1.96319 11.6119 1.80188 10.0061 2.10762 8.45589C2.41336 6.90569 3.17246 5.48048 4.2892 4.36C5.03183 3.60938 5.9171 3.01404 6.89322 2.60881C7.86933 2.20358 8.91667 1.99661 9.97396 2C10.6151 2.004 11.2538 2.07777 11.8789 2.22C12.0097 2.26035 12.1474 2.27356 12.2835 2.2588C12.4197 2.24404 12.5513 2.20163 12.6704 2.13418C12.7894 2.06673 12.8934 1.97567 12.9758 1.86662C13.0582 1.75757 13.1174 1.63284 13.1496 1.50011C13.1818 1.36739 13.1865 1.22948 13.1632 1.0949C13.14 0.960317 13.0894 0.831909 13.0144 0.717592C12.9395 0.603274 12.842 0.505471 12.7277 0.430211C12.6134 0.354952 12.485 0.303831 12.3501 0.28C11.5713 0.0972427 10.7741 0.00330743 9.97396 0C7.99315 0.0102635 6.05978 0.605521 4.41783 1.71065C2.77587 2.81578 1.49892 4.38126 0.748118 6.20953C-0.00268447 8.0378 -0.193689 10.0469 0.199207 11.9834C0.592104 13.9198 1.55129 15.6968 2.95573 17.09C4.81726 18.9475 7.34077 19.9939 9.97396 20C12.633 20 15.1832 18.9464 17.0634 17.0711C18.9437 15.1957 20 12.6522 20 10C20 9.73478 19.8944 9.48043 19.7063 9.29289C19.5183 9.10536 19.2633 9 18.9974 9Z" fill="#80BB01" fill-opacity="0.5"/>
</g>
</g>
</svg>
