<svg width="32" height="32" viewBox="0 0 32 32" fill="none" xmlns="http://www.w3.org/2000/svg">
<g id="list 1" clip-path="url(#clip0_3096_11589)">
<path id="Vector" d="M19.6501 18.2401L12.6501 12.2401C12.4689 12.0851 12.2384 12 12.0001 12C11.7617 12 11.5312 12.0851 11.3501 12.2401L8.00005 15.1101V13.0001C8.00005 12.7348 7.89469 12.4805 7.70716 12.293C7.51962 12.1054 7.26527 12.0001 7.00005 12.0001C6.73483 12.0001 6.48048 12.1054 6.29294 12.293C6.10541 12.4805 6.00005 12.7348 6.00005 13.0001V16.8301L4.35005 18.2401C4.25025 18.3254 4.16823 18.4296 4.10869 18.5467C4.04915 18.6637 4.01324 18.7914 4.00303 18.9223C3.99282 19.0532 4.00849 19.1849 4.04916 19.3097C4.08983 19.4346 4.15469 19.5503 4.24005 19.6501C4.32541 19.7499 4.42959 19.8319 4.54665 19.8914C4.6637 19.951 4.79134 19.9869 4.92227 19.9971C5.0532 20.0073 5.18486 19.9916 5.30973 19.951C5.43461 19.9103 5.55025 19.8454 5.65005 19.7601L6.00005 19.4601V24.0001C6.00005 24.5305 6.21076 25.0392 6.58584 25.4143C6.96091 25.7894 7.46962 26.0001 8.00005 26.0001H16.0001C16.5305 26.0001 17.0392 25.7894 17.4143 25.4143C17.7893 25.0392 18.0001 24.5305 18.0001 24.0001V19.4601L18.3501 19.7601C18.5516 19.9325 18.8134 20.0177 19.0778 19.9971C19.3423 19.9765 19.5877 19.8516 19.7601 19.6501C19.9324 19.4485 20.0177 19.1867 19.9971 18.9223C19.9764 18.6579 19.8516 18.4125 19.6501 18.2401ZM16.0001 24.0001H13.0001V22.0001C13.0001 21.7348 12.8947 21.4805 12.7072 21.293C12.5196 21.1054 12.2653 21.0001 12.0001 21.0001C11.7348 21.0001 11.4805 21.1054 11.2929 21.293C11.1054 21.4805 11.0001 21.7348 11.0001 22.0001V24.0001H8.00005V17.7501L12.0001 14.3201L16.0001 17.7501V24.0001Z" fill="#9F85EC"/>
<path id="Vector_2" d="M21 4H18C18 3.46957 17.7893 2.96086 17.4142 2.58579C17.0391 2.21071 16.5304 2 16 2H13V1C13 0.734784 12.8946 0.48043 12.7071 0.292893C12.5196 0.105357 12.2652 0 12 0C11.7348 0 11.4804 0.105357 11.2929 0.292893C11.1054 0.48043 11 0.734784 11 1V2H8C7.46957 2 6.96086 2.21071 6.58579 2.58579C6.21071 2.96086 6 3.46957 6 4H3C2.20435 4 1.44129 4.31607 0.87868 4.87868C0.31607 5.44129 0 6.20435 0 7L0 29C0 29.7956 0.31607 30.5587 0.87868 31.1213C1.44129 31.6839 2.20435 32 3 32H21C21.7956 32 22.5587 31.6839 23.1213 31.1213C23.6839 30.5587 24 29.7956 24 29V21C24 20.7348 23.8946 20.4804 23.7071 20.2929C23.5196 20.1054 23.2652 20 23 20C22.7348 20 22.4804 20.1054 22.2929 20.2929C22.1054 20.4804 22 20.7348 22 21V29C22 29.2652 21.8946 29.5196 21.7071 29.7071C21.5196 29.8946 21.2652 30 21 30H3C2.73478 30 2.48043 29.8946 2.29289 29.7071C2.10536 29.5196 2 29.2652 2 29V7C2 6.73478 2.10536 6.48043 2.29289 6.29289C2.48043 6.10536 2.73478 6 3 6H6C6 6.53043 6.21071 7.03914 6.58579 7.41421C6.96086 7.78929 7.46957 8 8 8H16C16.5304 8 17.0391 7.78929 17.4142 7.41421C17.7893 7.03914 18 6.53043 18 6H21C21.2652 6 21.5196 6.10536 21.7071 6.29289C21.8946 6.48043 22 6.73478 22 7V17C22 17.2652 22.1054 17.5196 22.2929 17.7071C22.4804 17.8946 22.7348 18 23 18C23.2652 18 23.5196 17.8946 23.7071 17.7071C23.8946 17.5196 24 17.2652 24 17V7C24 6.20435 23.6839 5.44129 23.1213 4.87868C22.5587 4.31607 21.7956 4 21 4ZM8 6V4H16V6H8ZM29 6C28.2044 6 27.4413 6.31607 26.8787 6.87868C26.3161 7.44129 26 8.20435 26 9V29C26 29.54 26.15 29.57 28.29 31.71C28.383 31.8037 28.4936 31.8781 28.6154 31.9289C28.7373 31.9797 28.868 32.0058 29 32.0058C29.132 32.0058 29.2627 31.9797 29.3846 31.9289C29.5064 31.8781 29.617 31.8037 29.71 31.71C31.85 29.57 32 29.55 32 29V9C32 8.20435 31.6839 7.44129 31.1213 6.87868C30.5587 6.31607 29.7956 6 29 6ZM29 8C29.2652 8 29.5196 8.10536 29.7071 8.29289C29.8946 8.48043 30 8.73478 30 9V12H28V9C28 8.73478 28.1054 8.48043 28.2929 8.29289C28.4804 8.10536 28.7348 8 29 8ZM29 29.59L28 28.59V14H30V28.59L29 29.59Z" fill="#38004D"/>
</g>
<defs>
<clipPath id="clip0_3096_11589">
<rect width="32" height="32" fill="white"/>
</clipPath>
</defs>
</svg>
