<svg width="9" height="12" viewBox="0 0 9 12" fill="none" xmlns="http://www.w3.org/2000/svg">
<g id="location-pin">
<path id="Path" opacity="0.4" d="M8.42179 4.60934C8.42179 6.52617 5.85578 9.93875 4.73068 11.3468C4.46092 11.6823 3.96088 11.6823 3.69111 11.3468C2.54628 9.93875 0 6.52617 0 4.60934C0 2.28369 1.88525 0.398438 4.2109 0.398438C6.53566 0.398438 8.42179 2.28369 8.42179 4.60934Z" fill="#5246ED"/>
<path id="Path_2" fill-rule="evenodd" clip-rule="evenodd" d="M2.09961 4.6C2.09961 3.44019 3.0398 2.5 4.19961 2.5C5.35898 2.5 6.29961 3.44019 6.29961 4.6C6.29961 5.75937 5.35898 6.7 4.19961 6.7C3.0398 6.7 2.09961 5.75937 2.09961 4.6Z" fill="#5246ED"/>
</g>
</svg>
