<svg width="10" height="12" viewBox="0 0 10 12" fill="none" xmlns="http://www.w3.org/2000/svg">
<g id="location-pin">
<path id="Path" opacity="0.4" d="M9.2216 4.61089C9.2216 6.52773 6.65558 9.94031 5.53048 11.3483C5.26072 11.6839 4.76068 11.6839 4.49092 11.3483C3.34608 9.94031 0.799805 6.52773 0.799805 4.61089C0.799805 2.28525 2.68506 0.399994 5.0107 0.399994C7.33547 0.399994 9.2216 2.28525 9.2216 4.61089Z" fill="#5246ED"/>
<path id="Path_2" fill-rule="evenodd" clip-rule="evenodd" d="M2.8999 4.6C2.8999 3.44019 3.84009 2.5 4.9999 2.5C6.15928 2.5 7.0999 3.44019 7.0999 4.6C7.0999 5.75937 6.15928 6.7 4.9999 6.7C3.84009 6.7 2.8999 5.75937 2.8999 4.6Z" fill="#5246ED"/>
</g>
</svg>
