<svg width="257" height="156" viewBox="0 0 257 156" fill="none" xmlns="http://www.w3.org/2000/svg">
<path d="M196.766 153.278C193.476 150.472 191.477 146.041 192.001 141.727C192.525 137.413 195.771 133.447 199.982 132.531C204.193 131.615 208.993 134.151 210.272 138.301C210.976 130.3 211.787 121.963 216.004 115.148C219.821 108.978 226.434 104.563 233.6 103.774C240.767 102.984 248.312 105.967 252.782 111.674C257.251 117.381 258.346 125.678 255.215 132.231C252.909 137.057 248.661 140.65 244.21 143.572C229.826 152.936 212.574 156.744 195.629 154.295L196.766 153.278Z" fill="#F2F2F2"/>
<path d="M245.694 106.129C239.781 110.989 234.356 116.424 229.498 122.356C221.896 131.608 215.744 141.981 211.257 153.113C210.928 153.925 212.235 154.279 212.56 153.476C219.902 135.383 231.623 119.436 246.65 107.094C247.325 106.539 246.363 105.579 245.694 106.129Z" fill="white"/>
<path d="M82.7325 152.513C87.2517 148.661 89.9967 142.574 89.2768 136.649C88.557 130.723 84.0982 125.276 78.3146 124.018C72.5309 122.76 65.938 126.243 64.1813 131.943C63.2145 120.953 62.1004 109.502 56.3093 100.143C51.0655 91.6684 41.9833 85.6045 32.1401 84.5197C22.297 83.4348 11.9334 87.5321 5.79463 95.3709C-0.344172 103.21 -1.84723 114.606 2.45223 123.605C5.61948 130.235 11.4547 135.169 17.5685 139.183C37.0738 151.989 61.2701 157.33 84.2932 153.911" fill="#F2F2F2"/>
<path d="M15.5288 87.761C23.6506 94.4357 31.1015 101.901 37.7737 110.048C44.447 118.188 50.3221 126.961 55.3165 136.244C58.1081 141.452 60.6159 146.81 62.8287 152.294C63.2799 153.409 61.4846 153.895 61.0385 152.792C57.1191 143.124 52.2701 133.867 46.5611 125.154C40.8798 116.472 34.3772 108.367 27.1447 100.952C23.0539 96.7607 18.7379 92.7991 14.216 89.0855C13.2892 88.324 14.6096 87.0058 15.5288 87.761L15.5288 87.761Z" fill="white"/>
<path d="M184.479 154.69H76.6572V43.0687C76.6572 19.3205 95.8059 0 119.343 0H141.794C165.33 0 184.479 19.3205 184.479 43.0687V154.69Z" fill="#F2F2F2"/>
<path d="M162.029 154.689H76.6574V43.0675C76.6338 33.9678 79.4897 25.098 84.8092 17.7496C85.0053 17.4799 85.2009 17.2137 85.4026 16.9505C87.9756 13.5455 91.0376 10.5469 94.4875 8.05341C94.6823 7.91035 94.878 7.76977 95.0765 7.62918C97.9633 5.61357 101.086 3.96585 104.373 2.72352C104.569 2.64886 104.767 2.57406 104.966 2.50231C107.94 1.43172 111.022 0.698374 114.156 0.315809C114.35 0.289029 114.55 0.268073 114.749 0.247117C117.803 -0.0823723 120.883 -0.0823723 123.938 0.247117C124.137 0.268073 124.336 0.289026 124.533 0.316095C127.666 0.698686 130.747 1.43194 133.72 2.50232C133.919 2.57407 134.117 2.64887 134.313 2.72368C137.56 3.95033 140.646 5.57347 143.502 7.55686C143.7 7.69439 143.899 7.83497 144.095 7.97556C146.028 9.36828 147.845 10.9199 149.525 12.6145C150.873 13.9737 152.129 15.4226 153.284 16.9514C153.485 17.2138 153.681 17.4799 153.876 17.7492C159.196 25.0977 162.052 33.9676 162.029 43.0675V154.689Z" fill="#CCCCCC"/>
<path d="M155.086 104.764C157.696 104.764 159.812 102.629 159.812 99.9954C159.812 97.3617 157.696 95.2266 155.086 95.2266C152.475 95.2266 150.359 97.3617 150.359 99.9954C150.359 102.629 152.475 104.764 155.086 104.764Z" fill="#6C63FF"/>
<path d="M175.646 151.344H172.025L170.302 137.25L175.647 137.25L175.646 151.344Z" fill="#FFB8B8"/>
<path d="M169.438 150.301H176.422V154.738H165.04C165.04 154.155 165.154 153.578 165.375 153.04C165.596 152.502 165.92 152.012 166.328 151.6C166.736 151.188 167.221 150.862 167.755 150.639C168.288 150.416 168.86 150.301 169.438 150.301V150.301Z" fill="#2F2E41"/>
<path d="M193.665 151.344H190.043L188.32 137.25L193.666 137.25L193.665 151.344Z" fill="#FFB8B8"/>
<path d="M187.457 150.301H194.442V154.738H183.06C183.06 154.155 183.173 153.578 183.394 153.04C183.615 152.502 183.939 152.012 184.348 151.6C184.756 151.188 185.241 150.862 185.774 150.639C186.308 150.416 186.88 150.301 187.457 150.301V150.301Z" fill="#2F2E41"/>
<path d="M157.478 100.943C157.218 100.556 157.045 100.115 156.971 99.6531C156.897 99.191 156.925 98.7182 157.052 98.268C157.179 97.8177 157.402 97.4011 157.706 97.0474C158.01 96.6937 158.387 96.4115 158.811 96.2208L171.122 61.9844L177.18 65.32L163.123 98.0375C163.394 98.7769 163.386 99.5906 163.101 100.325C162.817 101.059 162.275 101.662 161.58 102.02C160.884 102.378 160.082 102.466 159.326 102.268C158.57 102.069 157.913 101.598 157.478 100.943V100.943Z" fill="#FFB8B8"/>
<path d="M191.815 107.374C191.412 107.141 191.065 106.822 190.798 106.439C190.531 106.057 190.351 105.619 190.269 105.159C190.188 104.698 190.207 104.224 190.327 103.772C190.446 103.32 190.662 102.899 190.96 102.541L187.146 66.3242L194.04 66.642L195.626 102.265C196.19 102.81 196.537 103.545 196.6 104.331C196.663 105.116 196.439 105.898 195.969 106.527C195.499 107.157 194.817 107.591 194.051 107.747C193.286 107.903 192.49 107.77 191.815 107.374V107.374Z" fill="#FFB8B8"/>
<path d="M180.818 55.641C184.825 55.641 188.073 52.3635 188.073 48.3205C188.073 44.2775 184.825 41 180.818 41C176.811 41 173.562 44.2775 173.562 48.3205C173.562 52.3635 176.811 55.641 180.818 55.641Z" fill="#FFB8B8"/>
<path d="M191.769 99.1396H169.896L169.922 98.9679C169.961 98.7112 173.82 73.2044 170.974 64.8598C170.688 64.0398 170.713 63.1422 171.045 62.3397C171.376 61.5372 171.989 60.8866 172.767 60.5132H172.767C176.835 58.5802 184.644 56.2 191.236 61.9764C192.205 62.8404 192.963 63.9202 193.448 65.1305C193.933 66.3407 194.132 67.6483 194.03 68.9496L191.769 99.1396Z" fill="#6C63FF"/>
<path d="M174.097 76.9728L164.249 74.957L168.865 63.9201C169.141 62.8512 169.826 61.9364 170.77 61.3764C171.714 60.8165 172.84 60.6571 173.9 60.9332C174.96 61.2094 175.868 61.8985 176.425 62.8494C176.983 63.8004 177.143 64.9355 176.872 66.0058L174.097 76.9728Z" fill="#6C63FF"/>
<path d="M186.709 80.7157L186.117 67.0227C185.668 64.4486 187.129 62.0153 189.375 61.6176C191.621 61.2213 193.815 63.0065 194.266 65.5995L196.491 78.3943L186.709 80.7157Z" fill="#6C63FF"/>
<path d="M191.041 97.5C194.561 111.025 194.945 128.22 193.995 146.977L189.269 146.381L180.702 110.614L175.975 146.977L170.658 146.679C169.07 126.998 167.523 110.103 170.067 98.9903L191.041 97.5Z" fill="#2F2E41"/>
<path d="M185.598 53.9767C184.244 55.4315 181.731 54.6505 181.554 52.6632C181.54 52.5089 181.541 52.3536 181.557 52.1995C181.648 51.3192 182.152 50.5199 182.032 49.5904C182.004 49.3591 181.919 49.1387 181.783 48.95C180.705 47.4927 178.173 49.6018 177.155 48.2825C176.531 47.4736 177.265 46.2 176.786 45.2959C176.153 44.1026 174.281 44.6913 173.107 44.0378C171.8 43.3107 171.878 41.2881 172.738 40.0579C173.787 38.5577 175.626 37.7571 177.442 37.6417C179.258 37.5264 181.062 38.0217 182.757 38.6883C184.683 39.4458 186.594 40.4926 187.779 42.2017C189.221 44.28 189.36 47.0742 188.639 49.5045C188.2 50.9828 186.703 52.7888 185.598 53.9767Z" fill="#2F2E41"/>
<path d="M248.132 154.882H30.0382C29.9451 154.881 29.8559 154.844 29.7902 154.777C29.7244 154.711 29.6875 154.621 29.6875 154.527C29.6875 154.433 29.7244 154.343 29.7902 154.276C29.8559 154.21 29.9451 154.172 30.0382 154.172H248.132C248.225 154.172 248.314 154.21 248.38 154.276C248.446 154.343 248.483 154.433 248.483 154.527C248.483 154.621 248.446 154.711 248.38 154.777C248.314 154.844 248.225 154.881 248.132 154.882V154.882Z" fill="#3F3D56"/>
<path d="M138.544 122.349H100.142C99.636 122.352 99.1499 122.152 98.7899 121.794C98.4299 121.435 98.2256 120.947 98.2217 120.437V33.9512C98.2256 33.4409 98.4299 32.953 98.7899 32.5946C99.1499 32.2361 99.636 32.0363 100.142 32.0391H138.544C139.05 32.0363 139.536 32.2361 139.896 32.5946C140.256 32.953 140.46 33.4409 140.464 33.9512V120.437C140.46 120.947 140.256 121.435 139.896 121.794C139.536 122.152 139.05 122.352 138.544 122.349V122.349Z" fill="white"/>
<path d="M140.464 60.0273H98.2217V60.6234H140.464V60.0273Z" fill="#CCCCCC"/>
<path d="M140.612 94.0352H98.3691V94.6313H140.612V94.0352Z" fill="#CCCCCC"/>
<path d="M112.105 32.0391H111.515V122.647H112.105V32.0391Z" fill="#CCCCCC"/>
<path d="M126.876 32.0391H126.285V122.647H126.876V32.0391Z" fill="#CCCCCC"/>
</svg>
