<svg width="20" height="18" viewBox="0 0 20 18" fill="none" xmlns="http://www.w3.org/2000/svg">
<g id="arrow-right-from-bracket">
<path id="Path" d="M19.6332 9.63311L14.6331 14.6333C14.1448 15.1216 13.3537 15.1216 12.8654 14.6333C12.3771 14.145 12.3771 13.3539 12.8654 12.8656L15.7347 10.0003H7.50004C6.80861 10.0003 6.25 9.4417 6.25 8.75027C6.25 8.05884 6.809 7.50023 7.50004 7.50023H15.7347L12.8682 4.63373C12.3799 4.14544 12.3799 3.3544 12.8682 2.8661C13.3561 2.37819 14.1471 2.37741 14.6358 2.8661L19.636 7.86626C20.1215 8.35573 20.1215 9.14482 19.6332 9.63311Z" fill="#5246ED"/>
<path id="Path_2" opacity="0.4" d="M6.2502 15.0005H3.75012C3.05986 15.0005 2.50008 14.4407 2.50008 13.7504V3.75012C2.50008 3.05986 3.05986 2.50008 3.75012 2.50008H6.2502C6.94045 2.50008 7.50024 1.9403 7.50024 1.25004C7.50024 0.559783 6.94163 0 6.2502 0H3.75012C1.67896 0 0 1.67896 0 3.75012V13.7504C0 15.8216 1.67896 17.5006 3.75012 17.5006H6.2502C6.94045 17.5006 7.50024 16.9408 7.50024 16.2505C7.50024 15.5603 6.94163 15.0005 6.2502 15.0005Z" fill="#5246ED"/>
</g>
</svg>
