<svg width="31" height="26" viewBox="0 0 31 26" fill="none" xmlns="http://www.w3.org/2000/svg">
<g id="map-location">
<path id="Path" d="M21.848 6.18679C21.848 9.00179 18.0692 14.0182 16.4098 16.0393C16.0117 16.5806 15.2777 16.5806 14.8796 16.0393C13.2202 14.0182 9.44141 9.00179 9.44141 6.18679C9.44141 2.77014 12.2174 0 15.6447 0C19.072 0 21.848 2.77014 21.848 6.18679Z" fill="#5246ED"/>
<path id="Shape" opacity="0.4" fill-rule="evenodd" clip-rule="evenodd" d="M22.2616 25.933V10.332C22.4425 9.97622 22.6079 9.62564 22.7578 9.27505C22.7707 9.24166 22.7836 9.20955 22.7965 9.17745L22.7966 9.17709C22.8095 9.14487 22.8225 9.11265 22.8354 9.07914L28.8319 6.68691C29.6487 6.3621 30.5326 6.96016 30.5326 7.83662V21.7982C30.5326 22.3034 30.2225 22.7571 29.7521 22.9479L22.2616 25.933ZM1.5369 9.65657L7.86995 7.1303C7.99401 7.8624 8.24731 8.58935 8.53163 9.27505C8.68154 9.62564 8.84696 9.97622 9.02789 10.332V23.2933L2.45809 25.9175C1.64339 26.1959 0.756836 25.6443 0.756836 24.7678V10.8063C0.756836 10.301 1.06571 9.80093 1.5369 9.65657ZM10.6356 23.1696L20.6074 26V13.147C19.5476 14.7607 18.4207 16.2197 17.7022 17.0704C16.6424 18.4367 14.647 18.4367 13.5873 17.0704C12.8688 16.2197 11.7418 14.7607 10.6356 13.147V23.1696Z" fill="#5246ED"/>
</g>
</svg>
