<svg width="21" height="18" viewBox="0 0 21 18" fill="none" xmlns="http://www.w3.org/2000/svg">
<g id="map-location-dot">
<path id="Shape" fill-rule="evenodd" clip-rule="evenodd" d="M5.99609 4.28316C5.99609 6.23201 8.60526 9.70494 9.751 11.1041C10.0258 11.4789 10.5327 11.4789 10.8075 11.1041C11.9533 9.70494 14.5624 6.23201 14.5624 4.28316C14.5624 1.91779 12.6457 0 10.2793 0C7.91281 0 5.99609 1.91779 5.99609 4.28316ZM11.707 3.99762C11.707 4.78644 11.0681 5.42534 10.2793 5.42534C9.49044 5.42534 8.85154 4.78644 8.85154 3.99762C8.85154 3.20916 9.49044 2.5699 10.2793 2.5699C11.0681 2.5699 11.707 3.20916 11.707 3.99762Z" fill="#5246ED"/>
<path id="Shape_2" opacity="0.4" fill-rule="evenodd" clip-rule="evenodd" d="M14.8483 17.9527V7.15195C14.9732 6.90567 15.0874 6.66295 15.191 6.42024C15.1999 6.39704 15.2088 6.37473 15.2177 6.35242L15.2177 6.35242C15.2267 6.33011 15.2356 6.30781 15.2445 6.28461L19.3849 4.62845C19.9488 4.40359 20.5592 4.81762 20.5592 5.42441V15.0901C20.5592 15.4399 20.345 15.754 20.0202 15.886L14.8483 17.9527ZM0.538608 6.68437L4.91136 4.93541C4.99703 5.44225 5.17192 5.94552 5.36823 6.42024C5.47174 6.66295 5.58596 6.90567 5.71089 7.15195V16.1252L1.17466 17.942C0.612136 18.1347 0 17.7528 0 17.146V7.48032C0 7.13053 0.213266 6.78431 0.538608 6.68437ZM6.82094 16.0395L13.7061 17.9991V9.10079C12.9744 10.218 12.1963 11.2281 11.7002 11.817C10.9685 12.7629 9.59072 12.7629 8.85901 11.817C8.36288 11.2281 7.58477 10.218 6.82094 9.10079V16.0395Z" fill="#5246ED"/>
</g>
</svg>
