<svg width="19" height="19" viewBox="0 0 19 19" fill="none" xmlns="http://www.w3.org/2000/svg">
<g id="mdi:email">
<path id="Vector" d="M15.3929 6.15677L9.23566 10.0051L3.07838 6.15677V4.61745L9.23566 8.46575L15.3929 4.61745M15.3929 3.07812H3.07838C2.22406 3.07812 1.53906 3.76312 1.53906 4.61745V13.8534C1.53906 14.2616 1.70124 14.6532 1.98992 14.9418C2.2786 15.2305 2.67013 15.3927 3.07838 15.3927H15.3929C15.8012 15.3927 16.1927 15.2305 16.4814 14.9418C16.7701 14.6532 16.9323 14.2616 16.9323 13.8534V4.61745C16.9323 4.20919 16.7701 3.81766 16.4814 3.52898C16.1927 3.2403 15.8012 3.07813 15.3929 3.07812Z" fill="#878787"/>
</g>
</svg>
