<svg width="20" height="20" viewBox="0 0 20 20" fill="none" xmlns="http://www.w3.org/2000/svg">
<g id="pending-icon 1" clip-path="url(#clip0_9609_11260)">
<g id="&#240;&#159;&#166;&#134; icon &#34;assign user line&#34;">
<path id="Vector" d="M10.0002 9.44514C10.8201 9.44624 11.622 9.2041 12.3043 8.74937C12.9865 8.29464 13.5186 7.64776 13.8331 6.89056C14.1477 6.13335 14.2305 5.29987 14.0713 4.49556C13.912 3.69125 13.5177 2.95226 12.9383 2.3721C12.3589 1.79193 11.6205 1.39666 10.8164 1.23629C10.0123 1.07593 9.17867 1.15768 8.42105 1.4712C7.66343 1.78472 7.01582 2.31592 6.56018 2.99759C6.10454 3.67926 5.86133 4.48076 5.86133 5.30069C5.86133 6.39891 6.29721 7.45222 7.07324 8.22929C7.84928 9.00637 8.902 9.44366 10.0002 9.44514ZM10.0002 2.2618C10.6006 2.26071 11.1879 2.43781 11.6875 2.7707C12.1872 3.10358 12.5769 3.57727 12.8071 4.13176C13.0374 4.68626 13.098 5.29662 12.9811 5.88554C12.8642 6.47447 12.5752 7.01547 12.1507 7.44002C11.7261 7.86458 11.1851 8.15359 10.5962 8.27045C10.0073 8.38731 9.39689 8.32678 8.8424 8.0965C8.2879 7.86623 7.81422 7.47658 7.48133 6.9769C7.14845 6.47722 6.97134 5.88999 6.97244 5.28958C6.97391 4.48702 7.29338 3.71774 7.86088 3.15024C8.42838 2.58274 9.19765 2.26327 10.0002 2.2618Z" fill="#F9AE39"/>
<path id="Vector_2" d="M3.33412 17.715V14.315C4.19182 13.4148 5.22748 12.703 6.37522 12.2247C7.52295 11.7465 8.75765 11.5124 10.0008 11.5372C11.7022 11.5143 13.3769 11.9623 14.8397 12.8317L15.5897 11.9928C13.9173 10.9394 11.9771 10.3898 10.0008 10.4094C8.55479 10.3726 7.11847 10.6552 5.79423 11.2372C4.46999 11.8191 3.29044 12.686 2.33967 13.7761C2.26556 13.8716 2.2246 13.9886 2.22301 14.1094V17.715C2.21553 18.0176 2.32825 18.3109 2.5365 18.5306C2.74474 18.7502 3.03154 18.8785 3.33412 18.8872H10.2174L9.16189 17.7761L3.33412 17.715Z" fill="#F9AE39"/>
<path id="Vector_3" d="M16.667 17.7158V17.7769H14.917L13.917 18.888H16.667C16.9657 18.8793 17.2491 18.7542 17.4567 18.5393C17.6643 18.3244 17.7797 18.0368 17.7781 17.738V14.5547L16.667 15.7936V17.7158Z" fill="#F9AE39"/>
<path id="Vector_4" d="M19.3116 10.3437C19.2017 10.2459 19.0576 10.1957 18.9107 10.204C18.7639 10.2123 18.6263 10.2786 18.5282 10.3882L12.0727 17.6104L9.18379 14.5048C9.13637 14.4494 9.07849 14.4038 9.01346 14.3707C8.94843 14.3376 8.87752 14.3177 8.80478 14.312C8.73204 14.3063 8.65889 14.3151 8.58952 14.3377C8.52014 14.3602 8.4559 14.3963 8.40045 14.4437C8.34614 14.4931 8.30216 14.5528 8.27106 14.6193C8.23996 14.6858 8.22234 14.7578 8.21925 14.8312C8.21615 14.9046 8.22762 14.9778 8.253 15.0467C8.27838 15.1156 8.31717 15.1788 8.36712 15.2326L12.0838 19.2326L19.356 11.1104C19.4487 11.0014 19.4959 10.8609 19.4876 10.7181C19.4793 10.5753 19.4163 10.4412 19.3116 10.3437Z" fill="#F9AE39"/>
</g>
</g>
<defs>
<clipPath id="clip0_9609_11260">
<rect width="20" height="20" fill="white"/>
</clipPath>
</defs>
</svg>
