<svg width="17" height="17" viewBox="0 0 17 17" fill="none" xmlns="http://www.w3.org/2000/svg">
<g id="Refund Icon">
<path id="Vector" d="M15.9944 8.18359C16.0171 8.76529 15.9733 9.34768 15.8637 9.91941C15.5849 11.3676 14.8855 12.7015 13.8532 13.7542C12.8208 14.807 11.5012 15.5319 10.0594 15.8383C8.61749 16.1447 7.11733 16.0191 5.74642 15.4772C4.37551 14.9352 3.19469 14.0009 2.35156 12.7912" stroke="#5246ED" stroke-linecap="round"/>
<path id="Vector_2" d="M1.00218 8.69209C0.989204 8.157 1.03411 7.62209 1.13613 7.09667C1.41165 5.65082 2.10618 4.31802 3.13324 3.26425C4.1603 2.21047 5.4745 1.48228 6.91217 1.17037C8.34983 0.858463 9.84745 0.976612 11.2185 1.5101C12.5895 2.0436 13.7734 2.96886 14.6227 4.17067" stroke="#5246ED" stroke-linecap="round"/>
<path id="Vector_3" d="M11.252 3.85866L14.7121 4.2639L15.0565 1.01562" stroke="#5246ED" stroke-linecap="round"/>
<path id="Vector_4" d="M5.65614 13.0263L2.19917 12.6211L1.85156 15.8694" stroke="#5246ED" stroke-linecap="round"/>
<path id="Vector_5" d="M6.51758 5.49609H7.44879C8.35768 5.49609 9.36224 5.79603 9.36224 7.17767C9.36224 8.68055 8.08661 9.2549 6.74081 9.09217C6.72485 9.09107 6.70892 9.09479 6.6951 9.10287C6.68128 9.11095 6.67021 9.123 6.66333 9.13746C6.65645 9.15191 6.65408 9.16811 6.65652 9.18393C6.65896 9.19976 6.66611 9.21448 6.67703 9.22619L9.5472 12.3117" stroke="#5246ED" stroke-linecap="round"/>
<path id="Vector_6" d="M10.4575 5.49609H7.24609" stroke="#5246ED" stroke-linecap="round"/>
<path id="Vector_7" d="M6.56836 7.22266H10.4814" stroke="#5246ED" stroke-linecap="round"/>
</g>
</svg>
