<svg width="30" height="30" viewBox="0 0 30 30" fill="none" xmlns="http://www.w3.org/2000/svg">
<g id="relax" clip-path="url(#clip0_12367_16034)">
<g id="Group">
<path id="Vector" d="M26.1349 5.14838C26.1349 5.49024 25.999 5.81806 25.7573 6.0598C25.5155 6.30153 25.1876 6.43738 24.8458 6.43738C24.6765 6.43739 24.5089 6.40398 24.3525 6.3392C24.1961 6.27443 24.0539 6.17949 23.9342 6.0598C23.8145 5.9401 23.7196 5.79805 23.6548 5.64166C23.59 5.48527 23.5566 5.31766 23.5566 5.14838C23.5566 4.9791 23.59 4.81149 23.6548 4.6551C23.7196 4.4987 23.8145 4.35655 23.9342 4.23685C24.0539 4.11716 24.1961 4.02222 24.3525 3.95745C24.5089 3.89267 24.6765 3.85937 24.8458 3.85938C25.1876 3.85938 25.5155 3.99512 25.7573 4.23685C25.999 4.47859 26.1349 4.80651 26.1349 5.14838Z" fill="#FBD67E"/>
<path id="Vector_2" d="M9.69434 19.7344H18.527V21.3896H9.69434V19.7344Z" fill="#E6F4F6"/>
<path id="Vector_3" d="M9.26549 10.7109L6.28265 15.8947L7.09924 16.3654L10.0821 11.1747L9.26549 10.7109ZM5.16157 17.8396L3.2998 21.0856L4.10969 21.5562L5.97816 18.3102L5.16157 17.8396Z" fill="#586597"/>
<path id="Vector_4" d="M0.967981 11.2424C0.581564 11.2461 0.366395 11.6902 0.601789 11.9967L7.52282 21.0911H1.67473C0.903865 21.0911 0.268555 21.7245 0.268555 22.4955C0.268555 23.2665 0.903865 23.9016 1.67473 23.9016H7.1255L3.8609 28.8013C3.81419 28.8721 3.78767 28.9543 3.784 29.0391C3.78032 29.1238 3.79967 29.208 3.84007 29.2826C3.88047 29.3572 3.94033 29.4195 4.01332 29.4627C4.08632 29.506 4.16971 29.5286 4.25455 29.5282H6.59452C6.6723 29.5288 6.74895 29.51 6.81767 29.4736C6.88638 29.4371 6.94503 29.3842 6.98818 29.3195L10.5933 23.9016H19.468L23.0786 29.3195C23.122 29.3844 23.1808 29.4375 23.2498 29.474C23.3189 29.5104 23.3961 29.5291 23.4741 29.5282H25.8123C25.8973 29.5289 25.9809 29.5065 26.0542 29.4634C26.1274 29.4203 26.1875 29.3581 26.2281 29.2834C26.2688 29.2088 26.2885 29.1245 26.2849 29.0395C26.2813 28.9546 26.2545 28.8723 26.2078 28.8013L22.9413 23.9016H28.3939C29.1649 23.9016 29.7983 23.2665 29.7983 22.4955C29.7983 21.7245 29.1649 21.0911 28.3939 21.0911V20.6206C28.3939 19.8496 27.7605 19.2162 26.9896 19.2162H11.5143V20.15H18.082V21.0911H11.0346C10.7978 20.8044 7.54833 16.8671 5.8896 14.5583C6.29224 14.0406 6.24091 13.4165 5.86236 12.9177L5.01097 11.7972C4.77932 11.4907 4.44209 11.298 4.08267 11.2497C4.06111 11.246 4.0415 11.2422 4.02088 11.2422C3.08333 11.2422 1.90553 11.2423 0.967981 11.2424Z" fill="#586597"/>
<path id="Vector_5" d="M1.91602 12.1797C2.61489 12.1797 3.33401 12.1797 3.97035 12.1797C4.08013 12.1974 4.18357 12.2579 4.26147 12.361L5.11287 13.4815C5.27449 13.6948 5.23022 13.9692 5.01583 14.1315C4.81137 14.2856 4.76814 14.5765 4.91879 14.7833C6.42565 16.8808 9.00171 20.0616 9.83491 21.0873H8.69972L1.91602 12.1797Z" fill="#DAB3B3"/>
<path id="Vector_6" d="M19.0156 20.1484H26.9895C27.2574 20.1484 27.4527 20.351 27.4527 20.619V21.0896H19.0156V20.1484Z" fill="#F6C490"/>
<path id="Vector_7" d="M1.67454 22.0234H28.3937C28.6617 22.0234 28.8643 22.2261 28.8643 22.494C28.8643 22.7619 28.6616 22.9646 28.3937 22.9646H1.67454C1.40661 22.9646 1.20215 22.7619 1.20215 22.494C1.20215 22.2261 1.40671 22.0234 1.67454 22.0234ZM8.255 23.9002H9.47259L6.34531 28.5929H5.12773L8.255 23.9002ZM20.5957 23.9002H21.8133L24.9405 28.5929H23.7229L20.5957 23.9002Z" fill="#DAB3B3"/>
<path id="Vector_8" d="M24.8465 3.27507C24.0854 3.27507 23.3059 3.77629 23.0701 4.66906L20.6249 4.67977C19.9974 4.6826 19.9974 5.62103 20.6249 5.62103H23.4763C23.7367 5.62202 23.9478 5.41087 23.9469 5.15035C23.9469 4.62043 24.3499 4.216 24.8465 4.216C25.3431 4.216 25.7461 4.62043 25.7461 5.15035C25.7461 5.68026 25.3431 6.08469 24.8465 6.08469C24.219 6.08469 24.219 7.02595 24.8465 7.02595H27.1927C27.8201 7.02595 27.8201 6.08164 27.1927 6.08469L26.4371 6.08825C26.5451 5.89409 26.6802 5.6061 26.6873 5.15024C26.6873 4.12672 25.8631 3.27507 24.8465 3.27507ZM24.7905 0.472257C24.6753 0.485489 24.5692 0.540939 24.4925 0.627854C24.4158 0.71477 24.3741 0.827034 24.3753 0.942942V1.87036C24.3753 1.99519 24.4248 2.11481 24.513 2.20308C24.6013 2.29134 24.721 2.34094 24.8458 2.34094C24.9707 2.34094 25.0904 2.29134 25.1787 2.20308C25.2669 2.11481 25.3164 1.99519 25.3164 1.87036V0.942942C25.3172 0.876101 25.3038 0.809811 25.2768 0.748634C25.2499 0.687457 25.2101 0.632743 25.1603 0.588171C25.1105 0.543599 25.0517 0.510201 24.9879 0.490206C24.9241 0.470211 24.8568 0.464099 24.7905 0.472257ZM27.8979 4.45183C27.7731 4.45183 27.6533 4.50143 27.5651 4.5897C27.4768 4.67796 27.4273 4.7977 27.4273 4.92252C27.4273 5.04734 27.4768 5.16697 27.5651 5.25523C27.6533 5.34349 27.7731 5.39309 27.8979 5.39309H28.8252C28.95 5.39309 29.0698 5.34349 29.158 5.25523C29.2463 5.16697 29.2958 5.04734 29.2958 4.92252C29.2958 4.7977 29.2463 4.67796 29.158 4.5897C29.0698 4.50143 28.95 4.45183 28.8252 4.45183H27.8979ZM27.6488 1.63497C27.5279 1.64053 27.4138 1.69263 27.3304 1.78029L26.673 2.4309C26.6293 2.47451 26.5946 2.52623 26.5709 2.58326C26.5472 2.64028 26.5351 2.70144 26.535 2.76318C26.535 2.82493 26.5471 2.88606 26.5707 2.94311C26.5943 3.00016 26.6289 3.05202 26.6726 3.09568C26.7162 3.13934 26.7682 3.17393 26.8252 3.19754C26.8823 3.22115 26.9434 3.23326 27.0052 3.23322C27.0669 3.23318 27.1281 3.221 27.1851 3.19732C27.2421 3.17364 27.2937 3.13896 27.3373 3.09525L27.9881 2.43772C28.055 2.37184 28.1005 2.28739 28.1189 2.19529C28.1373 2.10319 28.1275 2.0077 28.091 1.92118C28.0545 1.83467 27.9927 1.76116 27.9139 1.71012C27.8351 1.65907 27.7426 1.63292 27.6488 1.63497ZM22.0291 1.63497C21.9364 1.6357 21.846 1.66395 21.7694 1.71606C21.6927 1.76817 21.6331 1.84185 21.5983 1.92778C21.5635 2.01371 21.5551 2.10796 21.5739 2.19875C21.5926 2.28954 21.6378 2.37277 21.7038 2.43782L22.3545 3.09536C22.3981 3.13948 22.4499 3.1745 22.507 3.19851C22.5641 3.22252 22.6254 3.23506 22.6874 3.23527C22.7493 3.23549 22.8107 3.22343 22.8679 3.19981C22.9252 3.17619 22.9772 3.14145 23.0211 3.09763C23.0649 3.0538 23.0997 3.00181 23.1233 2.94452C23.147 2.88722 23.159 2.8258 23.1588 2.76383C23.1586 2.70186 23.1461 2.6405 23.122 2.58337C23.098 2.52624 23.063 2.47442 23.0189 2.4309L22.3682 1.78029C22.3244 1.7344 22.2718 1.69789 22.2135 1.67292C22.1553 1.64795 22.0925 1.63499 22.0291 1.63497ZM22.0014 7.02649C21.8832 7.04046 21.7749 7.09879 21.6982 7.18976C21.6215 7.28074 21.5822 7.39747 21.5883 7.51631C21.5945 7.63516 21.6458 7.74724 21.7315 7.82978C21.8172 7.91231 21.9311 7.95918 22.0501 7.96083H22.9704C23.0351 7.96626 23.1002 7.95816 23.1616 7.93715C23.223 7.91614 23.2793 7.88267 23.3271 7.83875C23.3748 7.79484 23.4128 7.74148 23.4389 7.68207C23.4649 7.62267 23.4784 7.55848 23.4784 7.49361C23.4784 7.42873 23.4649 7.36454 23.4389 7.30514C23.4128 7.24573 23.3748 7.19248 23.3271 7.14857C23.2793 7.10466 23.223 7.07107 23.1616 7.05006C23.1002 7.02905 23.0351 7.02106 22.9704 7.02649H22.0501C22.0339 7.02565 22.0176 7.02565 22.0014 7.02649Z" fill="#586597"/>
<path id="Vector_9" d="M8.58686 4.70497C8.00546 4.71856 7.37955 4.80188 6.70281 4.97778V4.97966C5.03264 5.40702 3.05567 6.57656 1.88189 8.65439C1.75262 8.87687 1.83033 9.16266 2.054 9.2934L2.14921 9.34466C2.33014 9.44989 2.55846 9.4237 2.70948 9.28055C3.43573 8.57781 4.54364 8.44087 5.42663 8.94549C6.12925 9.35234 6.57108 10.1009 6.57464 10.9083C6.57464 11.264 6.96485 11.488 7.2759 11.3147C7.97749 10.9145 8.8409 10.9168 9.54446 11.3222C10.2471 11.7292 10.6816 12.4777 10.6851 13.285C10.6851 13.6408 11.0754 13.8648 11.3864 13.6915C12.088 13.2913 12.9514 13.2935 13.655 13.699C14.54 14.2098 14.9764 15.2362 14.7297 16.2202C14.6782 16.4235 14.77 16.6365 14.9531 16.7421L15.0412 16.7933C15.2673 16.922 15.5549 16.8441 15.6821 16.6194C17.6975 13.1832 16.89 8.35997 12.78 5.81307C12.7706 5.80745 12.764 5.79854 12.7546 5.79292C12.7546 5.7901 12.7453 5.79011 12.7415 5.78729V5.78542C11.6732 5.24524 10.3349 4.66438 8.59075 4.70515L8.58686 4.70497Z" fill="#586597"/>
<path id="Vector_10" d="M8.54308 5.64467C9.31779 5.61607 9.95644 5.74152 10.5993 5.9486C9.38525 6.57757 8.16056 7.88544 7.1662 9.51348C6.90812 8.94557 6.48705 8.48104 5.89552 8.13843C5.16112 7.71454 4.39808 7.63949 3.72949 7.74295C4.65419 6.87881 5.59455 6.23069 6.94832 5.87354C7.55082 5.73369 8.07277 5.66202 8.54308 5.64467Z" fill="#FBD67E"/>
<path id="Vector_11" d="M11.8516 6.50936C12.0285 6.4997 12.1646 6.53607 12.2691 6.59541C12.2691 6.59541 12.2691 6.59822 12.2785 6.59916C12.2879 6.60197 12.2877 6.60573 12.2934 6.60855C12.5015 6.73717 12.6902 7.03187 12.7367 7.63205C12.8211 8.72304 12.3306 10.4586 11.4218 12.1179C11.1555 11.5004 10.656 10.9113 10.0104 10.514C9.34827 10.1324 8.52743 10.0043 7.89746 10.1331C8.89416 8.48186 10.1779 7.16968 11.1746 6.70557C11.4481 6.57838 11.6734 6.51959 11.8558 6.50967L11.8516 6.50936Z" fill="#FF9395"/>
<path id="Vector_12" d="M13.6639 7.67188C15.5943 9.59287 16.239 12.4852 15.5186 14.5526C15.2886 13.781 14.858 13.3105 14.1234 12.8864C13.5367 12.5482 12.8567 12.4166 12.2852 12.4946C13.2139 10.7961 13.7406 9.05158 13.6639 7.67188Z" fill="#B0DAE4"/>
<path id="Vector_13" d="M13.0322 4.86356C13.1092 4.87438 13.1826 4.904 13.2455 4.94985C13.3084 4.9957 13.359 5.05639 13.3927 5.12632C13.4265 5.19624 13.4424 5.27327 13.439 5.35058C13.4356 5.42788 13.4128 5.50299 13.3731 5.56921L13.1239 6.0014C13.0954 6.05857 13.0555 6.10916 13.0065 6.15019C12.9575 6.19121 12.9006 6.22181 12.8391 6.23994C12.7776 6.25806 12.7128 6.26338 12.649 6.25562C12.5852 6.24785 12.5236 6.22711 12.468 6.19474C12.4124 6.16237 12.364 6.11901 12.3257 6.06736C12.2875 6.01572 12.2603 5.95687 12.2457 5.89446C12.2311 5.83206 12.2295 5.76747 12.2409 5.70459C12.2524 5.64171 12.2767 5.58188 12.3123 5.52888L12.5614 5.0968C12.6072 5.01534 12.6765 4.94957 12.7604 4.908C12.8443 4.86644 12.9391 4.85092 13.0322 4.86356Z" fill="#586597"/>
</g>
</g>
<defs>
<clipPath id="clip0_12367_16034">
<rect width="30" height="30" fill="white"/>
</clipPath>
</defs>
</svg>
