<svg width="65" height="64" viewBox="0 0 65 64" fill="none" xmlns="http://www.w3.org/2000/svg">
<g id="room">
<path id="Vector" d="M58.915 19.6378V44.3628C58.915 45.2553 58.6775 46.1153 58.245 46.8628C57.8069 47.6234 57.1756 48.2547 56.415 48.6928L35 61.0578C34.2398 61.4963 33.3776 61.7272 32.5 61.7272C31.6223 61.7272 30.7602 61.4963 30 61.0578L8.58496 48.6928C7.80996 48.2453 7.18496 47.6103 6.75496 46.8628C6.31561 46.1029 6.08451 45.2406 6.08496 44.3628V19.6378C6.08496 17.8503 7.03746 16.2003 8.58496 15.3078L30 2.94281C30.7602 2.50428 31.6223 2.27344 32.5 2.27344C33.3776 2.27344 34.2398 2.50428 35 2.94281L56.415 15.3078C57.9625 16.2003 58.915 17.8503 58.915 19.6378Z" fill="#EFEFEF"/>
<path id="Vector_2" d="M58.2449 46.8625C57.8068 47.6231 57.1755 48.2544 56.4149 48.6925L34.9999 61.0575C34.2397 61.496 33.3775 61.7269 32.4999 61.7269C31.6223 61.7269 30.7601 61.496 29.9999 61.0575L8.58488 48.6925C7.80988 48.245 7.18488 47.61 6.75488 46.8625L32.4999 32L58.2449 46.8625Z" fill="#F0C020"/>
<path id="Vector_3" d="M50.3525 42.3075V46.56C50.3525 48.215 49.0075 49.56 47.3525 49.56H45.685C44.03 49.56 42.685 48.215 42.685 46.56V42.1525H22.315V46.56C22.315 48.215 20.97 49.56 19.315 49.56H17.6475C15.9925 49.56 14.6475 48.215 14.6475 46.56V42.3075L32.5 32L50.3525 42.3075Z" fill="#E8A61E"/>
<path id="Vector_4" d="M50.3525 19.4478V42.3103L32.5 32.0028L14.6475 42.3103V19.7128C14.6475 17.5578 16.1375 16.4478 17.6475 16.4478H18.67C19.76 16.4478 20.715 17.0328 21.24 17.9078C22.56 16.9353 24.1 16.4478 25.6725 16.4478H39.3275C40.88 16.4478 42.4275 16.9203 43.7625 17.9053C44.3875 16.8653 45.3675 16.4453 46.5975 16.4453C47.01 16.4453 47.32 16.4478 47.3525 16.4478C49.0075 16.4478 50.3525 17.7928 50.3525 19.4478Z" fill="#AFAFAF"/>
<path id="Vector_5" d="M16.3965 34.0547H48.6035V40.4027H16.3965V34.0547Z" fill="#72C2E9"/>
<path id="Vector_6" d="M18.6692 18.1953H17.6465C17.315 18.1953 16.997 18.327 16.7626 18.5614C16.5282 18.7958 16.3965 19.1138 16.3965 19.4453V34.0566H19.9192V19.4453C19.9192 19.1138 19.7875 18.7958 19.5531 18.5614C19.3187 18.327 19.0008 18.1953 18.6692 18.1953ZM47.3535 18.1953H46.3307C45.9992 18.1953 45.6813 18.327 45.4468 18.5614C45.2124 18.7958 45.0807 19.1138 45.0807 19.4453V34.0566H48.6035V19.4453C48.6035 19.1138 48.4718 18.7958 48.2374 18.5614C48.0029 18.327 47.685 18.1953 47.3535 18.1953Z" fill="#FC5D3D"/>
<path id="Vector_7" d="M46.1035 29.3125H18.8965C17.5157 29.3125 16.3965 30.4318 16.3965 31.8125V34.0572H48.6035V31.8125C48.6035 30.4318 47.4842 29.3125 46.1035 29.3125Z" fill="#EFEFEF"/>
<path id="Vector_8" d="M19.3162 47.8133H17.6465C17.315 47.8133 16.997 47.6816 16.7626 47.4471C16.5282 47.2127 16.3965 46.8948 16.3965 46.5633V40.4062H20.5662V46.5633C20.5662 46.8948 20.4345 47.2127 20.2001 47.4471C19.9657 47.6816 19.6478 47.8133 19.3162 47.8133ZM47.3535 47.8133H45.6837C45.3522 47.8133 45.0343 47.6816 44.7999 47.4471C44.5654 47.2127 44.4337 46.8948 44.4337 46.5633V40.4062H48.6035V46.5633C48.6035 46.8948 48.4718 47.2127 48.2374 47.4471C48.0029 47.6816 47.685 47.8133 47.3535 47.8133Z" fill="#FC5D3D"/>
<path id="Vector_9" d="M45.0814 23.9446V29.3121H19.9189V23.9446C19.9189 20.7521 22.5162 18.1953 25.6714 18.1953H39.3287C42.4797 18.1953 45.0814 20.7451 45.0814 23.9446Z" fill="#72C2E9"/>
<path id="Vector_10" d="M43.3207 29.3097H33.9162V28.0234C33.9162 26.6427 35.0355 25.5234 36.4162 25.5234H40.8207C42.2015 25.5234 43.3207 26.6427 43.3207 28.0234V29.3097ZM31.0832 29.3097H21.6787V28.0234C21.6787 26.6427 22.798 25.5234 24.1787 25.5234H28.5832C29.964 25.5234 31.0832 26.6427 31.0832 28.0234V29.3097Z" fill="#EFEFEF"/>
<path id="Vector_11" d="M35.2958 48.2974C34.3636 47.9904 33.6356 47.7919 33.1481 45.6921C32.9893 45.0079 32.0111 45.0099 31.8528 45.6921C31.3761 47.7454 30.7113 47.9651 29.7051 48.2976C29.0991 48.4979 29.0976 49.3596 29.7051 49.5604C31.3766 50.1126 31.5661 50.9294 31.8528 52.1656C32.0121 52.8514 32.9891 52.8511 33.1483 52.1656C33.6246 50.1126 34.3256 49.8809 35.2961 49.5604C35.9018 49.3599 35.9031 48.4981 35.2958 48.2974Z" fill="black"/>
<path id="Vector_12" d="M33.5123 48.9547C33.1448 49.2147 32.8148 49.5597 32.5298 50.0647C32.2923 49.6672 31.9673 49.2922 31.4873 48.9647C31.8748 48.6997 32.2223 48.3372 32.5173 47.8047C32.8173 48.3447 33.1598 48.7022 33.5123 48.9547Z" fill="#EFEFEF"/>
<path id="Vector_13" d="M34.6648 58.3638C34.5819 58.2202 34.5595 58.0496 34.6024 57.8895C34.6452 57.7294 34.75 57.5929 34.8935 57.51L35.543 57.135C35.6141 57.0933 35.6928 57.0661 35.7745 57.0549C35.8561 57.0438 35.9392 57.0489 36.0189 57.0699C36.0986 57.091 36.1733 57.1276 36.2388 57.1777C36.3043 57.2278 36.3592 57.2903 36.4004 57.3617C36.4416 57.4331 36.4683 57.5119 36.4789 57.5936C36.4895 57.6754 36.4839 57.7584 36.4623 57.8379C36.4407 57.9175 36.4036 57.992 36.3531 58.0571C36.3026 58.1223 36.2397 58.1768 36.168 58.2175L35.5185 58.5925C35.375 58.6754 35.2044 58.6978 35.0443 58.6549C34.8842 58.612 34.7477 58.5073 34.6648 58.3638ZM37.4793 56.7388C37.3964 56.5952 37.374 56.4246 37.4169 56.2645C37.4598 56.1044 37.5645 55.9679 37.708 55.885L56.1015 45.2655C56.1726 45.2238 56.2513 45.1966 56.333 45.1854C56.4146 45.1743 56.4977 45.1794 56.5774 45.2004C56.6571 45.2215 56.7318 45.2581 56.7973 45.3082C56.8627 45.3583 56.9177 45.4208 56.9589 45.4922C57.0001 45.5636 57.0268 45.6424 57.0374 45.7241C57.048 45.8059 57.0424 45.8889 57.0208 45.9684C56.9992 46.048 56.9621 46.1225 56.9116 46.1876C56.8611 46.2528 56.7982 46.3073 56.7265 46.348L38.333 56.9675C38.1895 57.0504 38.0189 57.0728 37.8588 57.0299C37.6987 56.987 37.5622 56.8823 37.4793 56.7388Z" fill="#F8E5B0"/>
<path id="Vector_14" d="M56.4141 46.4328C56.2483 46.4328 56.0893 46.367 55.9721 46.2498C55.8549 46.1325 55.7891 45.9736 55.7891 45.8078V23.9453C55.7891 23.7796 55.8549 23.6206 55.9721 23.5034C56.0893 23.3862 56.2483 23.3203 56.4141 23.3203C56.5798 23.3203 56.7388 23.3862 56.856 23.5034C56.9732 23.6206 57.0391 23.7796 57.0391 23.9453V45.8076C57.0391 45.8897 57.023 45.971 56.9916 46.0468C56.9602 46.1227 56.9141 46.1916 56.8561 46.2497C56.7981 46.3077 56.7291 46.3538 56.6533 46.3852C56.5775 46.4166 56.4962 46.4328 56.4141 46.4328ZM56.4141 22.0703C56.2483 22.0703 56.0893 22.0045 55.9721 21.8873C55.8549 21.77 55.7891 21.6111 55.7891 21.4453V20.6953C55.7891 20.5296 55.8549 20.3706 55.9721 20.2534C56.0893 20.1362 56.2483 20.0703 56.4141 20.0703C56.5798 20.0703 56.7388 20.1362 56.856 20.2534C56.9732 20.3706 57.0391 20.5296 57.0391 20.6953V21.4453C57.0391 21.6111 56.9732 21.77 56.856 21.8873C56.7388 22.0045 56.5798 22.0703 56.4141 22.0703Z" fill="white"/>
<path id="Vector_15" d="M46.1035 38.5293H45.3535C45.1877 38.5293 45.0288 38.4635 44.9115 38.3463C44.7943 38.229 44.7285 38.0701 44.7285 37.9043C44.7285 37.7386 44.7943 37.5796 44.9115 37.4624C45.0288 37.3452 45.1877 37.2793 45.3535 37.2793H46.1035C46.2692 37.2793 46.4282 37.3452 46.5454 37.4624C46.6626 37.5796 46.7285 37.7386 46.7285 37.9043C46.7285 38.0701 46.6626 38.229 46.5454 38.3463C46.4282 38.4635 46.2692 38.5293 46.1035 38.5293ZM42.8535 38.5293H18.8965C18.7307 38.5293 18.5718 38.4635 18.4545 38.3463C18.3373 38.229 18.2715 38.0701 18.2715 37.9043C18.2715 37.7386 18.3373 37.5796 18.4545 37.4624C18.5718 37.3452 18.7307 37.2793 18.8965 37.2793H42.8535C43.0192 37.2793 43.1782 37.3452 43.2954 37.4624C43.4126 37.5796 43.4785 37.7386 43.4785 37.9043C43.4785 38.0701 43.4126 38.229 43.2954 38.3463C43.1782 38.4635 43.0192 38.5293 42.8535 38.5293ZM22.4152 23.3386C22.3389 23.3084 22.2693 23.2634 22.2103 23.2063C22.1513 23.1492 22.1042 23.081 22.0716 23.0057C22.0389 22.9304 22.0215 22.8493 22.0202 22.7673C22.0189 22.6852 22.0338 22.6036 22.064 22.5273C22.6547 21.0348 24.0707 20.0703 25.6712 20.0703H36.0785C36.2442 20.0703 36.4032 20.1362 36.5204 20.2534C36.6376 20.3706 36.7035 20.5296 36.7035 20.6953C36.7035 20.8611 36.6376 21.02 36.5204 21.1373C36.4032 21.2545 36.2442 21.3203 36.0785 21.3203H25.6712C24.5867 21.3203 23.627 21.9746 23.2262 22.9871C23.1961 23.0634 23.1512 23.133 23.0941 23.192C23.037 23.251 22.9688 23.2981 22.8935 23.3308C22.8182 23.3634 22.7372 23.3809 22.6552 23.3822C22.5731 23.3836 22.4916 23.3687 22.4152 23.3386ZM39.3285 21.3203H38.5785C38.4127 21.3203 38.2538 21.2545 38.1365 21.1373C38.0193 21.02 37.9535 20.8611 37.9535 20.6953C37.9535 20.5296 38.0193 20.3706 38.1365 20.2534C38.2538 20.1362 38.4127 20.0703 38.5785 20.0703H39.3285C39.4942 20.0703 39.6532 20.1362 39.7704 20.2534C39.8876 20.3706 39.9535 20.5296 39.9535 20.6953C39.9535 20.8611 39.8876 21.02 39.7704 21.1373C39.6532 21.2545 39.4942 21.3203 39.3285 21.3203Z" fill="#C5E5FE"/>
<path id="Vector_16" d="M10.7724 43.8212C10.4867 43.9835 10.3642 44.365 10.5449 44.6737C10.7147 44.975 11.1044 45.0735 11.3974 44.9037C11.6974 44.7312 11.7999 44.3487 11.6274 44.0487C11.4599 43.7637 11.0624 43.6535 10.7724 43.8212Z" fill="black"/>
<path id="Vector_17" d="M37.5479 34.6797C37.893 34.6797 38.1729 34.3999 38.1729 34.0547C38.1729 33.7095 37.893 33.4297 37.5479 33.4297C37.2027 33.4297 36.9229 33.7095 36.9229 34.0547C36.9229 34.3999 37.2027 34.6797 37.5479 34.6797Z" fill="black"/>
<path id="Vector_18" d="M59.54 44.3591V19.6341C59.54 17.6298 58.4622 15.7633 56.7275 14.7628L35.3122 2.39785C33.6132 1.41785 31.4535 1.3796 29.6875 2.39785L8.27271 14.7628C6.53771 15.7633 5.45996 17.6301 5.45996 19.6341V44.3591C5.46009 45.3464 5.72005 46.3164 6.21374 47.1714C6.70742 48.0265 7.41744 48.7366 8.27246 49.2303L29.6877 61.5953C30.5435 62.087 31.5132 62.3457 32.5001 62.3457C33.487 62.3457 34.4567 62.087 35.3125 61.5953L56.7275 49.2303C57.5826 48.7367 58.2926 48.0266 58.7863 47.1715C59.28 46.3164 59.5399 45.3465 59.54 44.3591ZM56.1027 15.8456C56.767 16.2304 57.3187 16.7828 57.7025 17.4476C58.0863 18.1125 58.2889 18.8664 58.29 19.6341V44.3591C58.29 44.9166 58.182 45.4676 57.9765 45.9818L49.2285 40.9348V40.4001C49.2285 40.3963 49.2275 40.3928 49.2275 40.3893L49.2285 31.8073V19.4398C49.2285 18.4059 48.3875 17.5648 47.3535 17.5648H46.3307C45.2967 17.5648 44.4557 18.4059 44.4557 19.4398V20.1638C43.2372 18.5103 41.3412 17.5658 39.3285 17.5658H33.125V2.94285C33.6753 3.02086 34.2056 3.2033 34.6875 3.48035L56.1027 15.8456ZM39.3285 18.8158C42.197 18.8158 44.4507 21.1638 44.4557 23.9311V28.6818H43.9457V28.0206C43.9457 26.2973 42.544 24.8956 40.8207 24.8956H36.4162C34.693 24.8956 33.2912 26.2973 33.2912 28.0206V28.6818H31.7085V28.0206C31.7085 26.2973 30.3067 24.8956 28.5835 24.8956H24.179C22.4557 24.8956 21.054 26.2973 21.054 28.0206V28.6818H20.544V23.9313C20.549 21.1226 22.845 18.8161 25.6712 18.8161L39.3285 18.8158ZM47.9785 29.3128C47.439 28.9037 46.7806 28.6821 46.1035 28.6818H45.7062L45.706 19.4398C45.706 19.0954 45.9865 18.8148 46.331 18.8148H47.3537C47.6982 18.8148 47.9787 19.0954 47.9787 19.4398L47.9785 29.3128ZM30.4585 28.6821H22.304V28.0208C22.304 26.9868 23.145 26.1458 24.179 26.1458H28.5835C29.6175 26.1458 30.4585 26.9868 30.4585 28.0208V28.6821ZM42.696 28.6821H34.5415V28.0208C34.5415 26.9868 35.3825 26.1458 36.4165 26.1458H40.821C41.855 26.1458 42.696 26.9868 42.696 28.0208V28.6821ZM19.2937 28.6821H18.8965C18.1925 28.6821 17.5445 28.9188 17.0215 29.3131V19.4398C17.0215 19.0954 17.302 18.8148 17.6465 18.8148H18.6692C19.0137 18.8148 19.2942 19.0954 19.2942 19.4398L19.2937 28.6821ZM17.0215 41.0248H19.9412V46.5568C19.9412 46.9013 19.6607 47.1818 19.3162 47.1818H17.6465C17.4808 47.1816 17.3219 47.1157 17.2047 46.9986C17.0876 46.8814 17.0217 46.7225 17.0215 46.5568V41.0248ZM17.0225 39.7748V34.6761H35.0475C35.2132 34.6761 35.3722 34.6102 35.4894 34.493C35.6066 34.3758 35.6725 34.2169 35.6725 34.0511C35.6725 33.8853 35.6066 33.7264 35.4894 33.6092C35.3722 33.4919 35.2132 33.4261 35.0475 33.4261H17.0215V31.8068C17.0215 30.7728 17.8625 29.9318 18.8965 29.9318H19.9127L19.9187 29.9323L46.1035 29.9318C47.1375 29.9318 47.9785 30.7728 47.9785 31.8068V33.4261H40.0475C39.8817 33.4261 39.7227 33.4919 39.6055 33.6092C39.4883 33.7264 39.4225 33.8853 39.4225 34.0511C39.4225 34.2169 39.4883 34.3758 39.6055 34.493C39.7227 34.6102 39.8817 34.6761 40.0475 34.6761H47.9775V39.7748H17.0225ZM45.0587 41.0248H47.9785V46.5568C47.9785 46.9013 47.698 47.1818 47.3535 47.1818H45.6837C45.518 47.1816 45.3592 47.1157 45.242 46.9986C45.1248 46.8814 45.0589 46.7225 45.0587 46.5568V41.0248ZM56.1025 48.1478L34.6877 60.5126C34.022 60.895 33.2678 61.0962 32.5001 61.0962C31.7324 61.0962 30.9781 60.895 30.3125 60.5126L8.89746 48.1476C8.41634 47.8693 7.99262 47.5019 7.64896 47.0651L9.23246 46.1508C9.30373 46.1098 9.36623 46.0552 9.41637 45.99C9.4665 45.9248 9.5033 45.8504 9.52467 45.771C9.54603 45.6916 9.55153 45.6088 9.54085 45.5272C9.53018 45.4457 9.50354 45.3671 9.46246 45.2958C9.29496 45.0084 8.89746 44.9008 8.60746 45.0683L7.02396 45.9826C6.81698 45.4662 6.71041 44.915 6.70996 44.3586V19.6336C6.71102 18.8659 6.91361 18.1118 7.2975 17.447C7.68138 16.7821 8.23309 16.2296 8.89746 15.8448L30.3122 3.4801C30.7941 3.20297 31.3246 3.02045 31.875 2.94235V17.5653H25.6715C23.6647 17.5653 21.7642 18.5081 20.5442 20.1628V19.4393C20.5442 18.4053 19.7032 17.5643 18.6692 17.5643H17.6465C16.6125 17.5643 15.7715 18.4053 15.7715 19.4393V40.9338L12.9375 42.5681C12.64 42.7406 12.5375 43.1231 12.71 43.4231C12.7508 43.4942 12.8053 43.5566 12.8703 43.6066C12.9353 43.6566 13.0096 43.6932 13.0888 43.7144C13.1681 43.7355 13.2507 43.7408 13.332 43.7298C13.4133 43.7189 13.4916 43.692 13.5625 43.6506H13.565L15.7715 42.3771V46.5563C15.7715 47.5903 16.6125 48.4313 17.6465 48.4313H19.3162C20.3502 48.4313 21.1912 47.5903 21.1912 46.5563V41.0243H43.809V46.5563C43.809 47.5903 44.65 48.4313 45.684 48.4313H47.3537C48.3877 48.4313 49.2287 47.5903 49.2287 46.5563V42.3771L56.0552 46.3156C56.0702 46.3256 56.0877 46.3356 56.1027 46.3456L57.351 47.0651C57.0074 47.5021 56.5837 47.8696 56.1025 48.1478Z" fill="black"/>
</g>
</svg>
