<svg width="727" height="561" viewBox="0 0 727 561" fill="none" xmlns="http://www.w3.org/2000/svg">
<g clip-path="url(#clip0_7230_9751)">
<path d="M715.18 445.62L527.021 555.437C514.316 562.852 498.665 562.852 485.96 555.437L11.824 278.711C-3.94427 269.507 -3.94427 246.498 11.824 237.295L204.498 124.841C214.394 119.063 226.587 119.063 236.486 124.841L715.18 404.233C730.94 413.431 730.94 436.425 715.18 445.623V445.62Z" fill="#6D6E71"/>
<path d="M715.181 406.577L236.486 127.191C226.59 121.413 214.397 121.413 204.498 127.191L11.8243 239.644C4.32886 244.018 0.41394 251.511 0.0452881 259.158C-0.34906 250.728 3.56299 242.12 11.8243 237.298L204.498 124.845C214.394 119.067 226.588 119.067 236.486 124.845L715.181 404.231C723.436 409.05 727.348 417.652 726.951 426.079C726.582 418.438 722.67 410.95 715.181 406.58V406.577Z" fill="url(#paint0_linear_7230_9751)"/>
<path d="M712.311 422.869L524.712 532.359C513.436 538.94 499.542 538.94 488.266 532.359L14.6702 255.945C10.038 253.241 10.038 246.482 14.6702 243.778L207.327 131.336C215.474 126.581 225.51 126.581 233.654 131.336L712.311 410.702C716.943 413.406 716.943 420.165 712.311 422.869Z" fill="#D1D3D4"/>
<path d="M707.079 417.774L523.775 524.762C513.082 531.004 499.905 531.004 489.212 524.762L21.9567 252.031C18.8019 250.191 18.8019 245.586 21.9567 243.746L208.647 134.785C216.025 130.478 225.118 130.478 232.496 134.785L707.079 411.777C709.362 413.108 709.362 416.442 707.079 417.774Z" fill="#231F20"/>
<path d="M701.276 415.247L523.767 518.849C512.654 525.337 498.96 525.337 487.844 518.849L24.9042 248.655C23.2897 247.323 214.097 138.235 214.097 137.452C219.647 134.214 226.485 134.214 232.035 137.452C232.089 141.329 709.309 408.606 701.279 415.244L701.276 415.247Z" fill="url(#paint1_linear_7230_9751)"/>
<path d="M11.828 268.458L485.964 545.184C498.669 552.599 514.32 552.599 527.025 545.184L715.181 435.368C721.376 431.751 725.123 426.002 726.449 419.8C728.495 429.376 724.745 440.039 715.181 445.623L527.022 555.439C514.317 562.854 498.666 562.854 485.961 555.439L11.8251 278.713C2.255 273.129 -1.49414 262.461 0.549011 252.879C1.87494 259.087 5.62415 264.841 11.8251 268.458H11.828Z" fill="black"/>
<path d="M153.532 360.002C154.264 360.002 154.858 359.401 154.858 358.661C154.618 357.693 155.51 349.585 154.195 349.232C153.281 349.544 119.715 327.162 119.455 330.504C116.403 332.151 152.269 350.405 152.206 351.171V358.664C152.206 359.404 152.801 360.004 153.532 360.004V360.002Z" fill="#A7A9AC"/>
<path d="M104.138 331.173C104.869 331.173 105.463 330.573 105.463 329.833C105.223 328.865 106.115 320.757 104.8 320.404C103.886 320.716 70.3207 298.334 70.0607 301.676C67.0087 303.323 102.874 321.577 102.812 322.342V329.836C102.812 330.575 103.406 331.176 104.138 331.176V331.173Z" fill="#A7A9AC"/>
<path opacity="0.3" d="M247.968 219.304C202.095 204.546 156.416 193.895 111.743 187.123L207.33 131.336C215.477 126.581 225.513 126.581 233.657 131.336L712.311 410.702C716.943 413.406 716.943 420.165 712.311 422.869L621.836 475.673C547.239 368.538 413.983 272.72 247.965 219.304H247.968Z" fill="white"/>
<path opacity="0.3" d="M124.249 319.899L14.6709 255.945C10.0387 253.241 10.0387 246.482 14.6709 243.778L207.328 131.336C215.475 126.581 225.511 126.581 233.655 131.336L456.428 261.356C319.514 266.299 203.413 286.933 124.249 319.899Z" fill="white"/>
<path style="mix-blend-mode:color-dodge" d="M340.292 406.663C339.672 501.455 590.315 501.444 589.667 406.658C590.287 311.872 339.644 311.886 340.292 406.663Z" fill="url(#paint2_radial_7230_9751)"/>
<path style="mix-blend-mode:screen" opacity="0.7" d="M576.096 0V377.084C564.305 450.99 439.425 454.812 386.414 422.943C364.713 410.279 353.866 393.68 353.866 377.084V0H576.096Z" fill="url(#paint3_linear_7230_9751)"/>
<g style="mix-blend-mode:luminosity">
<path d="M464.982 438.01C405.838 438.01 357.893 410.027 357.893 375.509C357.893 340.991 405.838 313.008 464.982 313.008C524.125 313.008 572.07 340.991 572.07 375.509C572.07 410.027 524.125 438.01 464.982 438.01Z" fill="url(#paint4_linear_7230_9751)"/>
<path d="M464.982 432.588C410.97 432.588 367.186 407.033 367.186 375.509C367.186 343.985 410.97 318.43 464.982 318.43C518.993 318.43 562.777 343.985 562.777 375.509C562.777 407.033 518.993 432.588 464.982 432.588Z" fill="white"/>
<path d="M507.409 400.273C526.813 379.315 521.094 359.071 477.51 337.789C469.852 335.256 452.035 348.342 424.89 350.078C423.076 350.219 421.647 351.051 421.41 352.112C418.627 364.484 400.112 379.627 399.926 379.78C398.769 380.719 398.949 382.007 400.349 382.825L419.927 394.25C459.936 416.881 505.641 401.096 507.412 400.273H507.409ZM474.173 342.512C508.767 359.565 519.346 376.666 501.586 396.879C483.354 403.462 443.939 407.206 408.439 380.878C413.277 376.655 425.542 365.157 428.942 354.48C447.237 352.496 466.931 345.338 474.17 342.515L474.173 342.512Z" fill="#00A79D"/>
<path d="M438.535 360.077C453.54 358.928 471.443 351.414 471.443 351.414C498.645 364.772 503.743 377.136 491.426 390.947C480.75 394.904 451.537 399.934 423.693 379.282C423.693 379.282 436.566 368.833 438.535 360.075V360.077Z" fill="#00A79D"/>
</g>
<g clip-path="url(#clip1_7230_9751)">
<path style="mix-blend-mode:screen" opacity="0.7" d="M86.1403 118.935V50.4807L72.3519 36.7869V32.4564V-292.367H375.742V59.4084H375.718V64.1746L372.27 67.598V129.21L399.85 156.593L379.166 177.128C369.793 167.821 340.727 138.958 330.902 129.205L317.113 142.899V211.358L330.902 225.051L322.96 232.939L323.815 233.789V234.384L315.584 242.558L314.428 241.41L203.349 351.704L94.4693 243.599L92.4459 245.608L84.2152 237.433V236.839L85.9406 235.127L62.0083 211.363L89.5881 183.98V122.368L86.1403 118.94V118.935ZM328.702 235.778V236.372L320.472 244.547L317.727 241.82V241.226L325.961 233.057L328.702 235.778Z" fill="url(#paint5_linear_7230_9751)"/>
<path d="M316.77 268.828L330.56 276.892L202.992 351.468L61.635 268.828L258.155 153.938L399.516 236.58L378.829 248.673C369.116 245.066 319.851 205.654 310.568 198.779L278.842 246.654L316.767 268.828H316.77Z" fill="#8DC63F"/>
<g style="mix-blend-mode:multiply">
<path d="M316.771 268.829V284.953L202.993 351.469L89.216 284.953V268.829L258.15 170.062L371.934 236.581V244.645C369.129 243.661 313.927 206.895 309.928 204.363L278.846 246.654L316.771 268.829Z" fill="#A4D165"/>
</g>
<path d="M96.1113 272.862L103.008 268.83V232.281L96.1113 232.55L92.7048 266.914L96.1113 272.862Z" fill="#2C2A28"/>
<path d="M99.5595 266.812L103.008 264.8V260.768L130.591 244.641L154.669 262.766L154.729 303.09L99.5595 266.812Z" fill="#5E5549"/>
<path d="M130.591 244.641L154.669 262.766L154.729 303.09L125.682 283.99L123.802 263.402L115.403 253.519L130.591 244.641Z" fill="#474037"/>
<path d="M175.41 290.996L127.144 262.777V222.465L175.41 250.896V290.996Z" fill="#B1AAA0"/>
<path d="M130.591 264.79L154.734 278.907V246.65L130.594 232.551L130.591 264.79Z" fill="black"/>
<path d="M143.236 271.434L153.902 277.672V246.911L143.236 240.68V271.434Z" fill="#6DA7BF"/>
<path d="M150.302 248.574L152.174 276.661L153.902 277.672V246.911L143.236 240.68V242.892L150.302 248.574Z" fill="#6DA7BF"/>
<path d="M131.422 264.527L142.086 270.761V240.01L131.425 233.781L131.422 264.527Z" fill="#9DC4D4"/>
<path d="M138.486 241.673L140.357 269.751L142.086 270.761V240.01L131.425 233.781V235.993L138.486 241.673Z" fill="#6DA7BF"/>
<path d="M299.531 234.562L299.525 258.747L258.158 282.938L258.149 258.747L299.531 234.562Z" fill="#B1AAA0"/>
<path d="M244.362 278.915L278.842 258.759V234.574L244.362 254.73V278.915Z" fill="white"/>
<path d="M245.291 277.718L277.908 258.648V235.773L245.291 254.843V277.718Z" fill="#482815"/>
<path d="M267.535 264.368L277.379 258.613V236.426L267.535 242.181V264.368Z" fill="#904F29"/>
<path d="M272.692 244.221L276.867 241.78V237.688L272.692 240.129V244.221Z" fill="#9DC4D4"/>
<path d="M268.051 246.936L272.227 244.494V240.402L268.051 242.844V246.936Z" fill="#9DC4D4"/>
<path d="M272.692 255.832L276.867 253.391V242.246L272.692 244.688V255.832Z" fill="#9DC4D4"/>
<path d="M268.051 258.547L272.227 256.106V244.961L268.051 247.402V258.547Z" fill="#9DC4D4"/>
<path d="M272.692 260.393L276.867 257.952V253.859L272.692 256.301V260.393Z" fill="#9DC4D4"/>
<path d="M268.051 263.108L272.227 260.666V256.574L268.051 259.016V263.108Z" fill="#9DC4D4"/>
<path d="M272.227 240.401V242.522L268.051 244.505V242.845L272.227 240.404V240.401ZM276.867 241.78L274.584 243.114L274.45 241.463L272.692 242.299V240.129L276.867 237.688V241.78ZM276.867 257.952L275.842 258.553L275.523 254.645L276.867 253.86V257.952ZM276.867 253.392L275.487 254.201L274.62 243.563L276.867 242.25V253.392Z" fill="#6DA7BF"/>
<path d="M256.679 270.715L266.523 264.96V242.773L256.679 248.528V270.715Z" fill="#904F29"/>
<path d="M261.833 250.569L266.012 248.127V244.035L261.833 246.477V250.569Z" fill="#9DC4D4"/>
<path d="M257.193 253.284L261.371 250.842V246.75L257.193 249.191V253.284Z" fill="#9DC4D4"/>
<path d="M261.833 262.18L266.012 259.739V248.594L261.833 251.035V262.18Z" fill="#9DC4D4"/>
<path d="M257.193 264.895L261.371 262.453V251.309L257.193 253.75V264.895Z" fill="#9DC4D4"/>
<path d="M261.833 266.741L266.012 264.299V260.207L261.833 262.648V266.741Z" fill="#9DC4D4"/>
<path d="M257.193 269.455L261.371 267.014V262.922L257.193 265.363V269.455Z" fill="#9DC4D4"/>
<path d="M261.371 246.748V248.87L257.196 250.852V249.193L261.371 246.751V246.748ZM266.012 248.127L263.729 249.461L263.595 247.81L261.836 248.646V246.477L266.012 244.035V248.127ZM266.012 264.3L264.986 264.9L264.668 260.992L266.012 260.208V264.3ZM266.012 259.74L264.632 260.549L263.765 249.911L266.012 248.598V259.74Z" fill="#6DA7BF"/>
<path d="M245.824 277.063L255.668 271.308V249.121L245.824 254.876V277.063Z" fill="#904F29"/>
<path d="M250.981 256.916L255.156 254.475V250.383L250.981 252.824V256.916Z" fill="#9DC4D4"/>
<path d="M246.34 259.631L250.516 257.19V253.098L246.34 255.539V259.631Z" fill="#9DC4D4"/>
<path d="M250.981 268.528L255.156 266.086V254.941L250.981 257.383V268.528Z" fill="#9DC4D4"/>
<path d="M246.34 271.242L250.516 268.801V257.656L246.34 260.098V271.242Z" fill="#9DC4D4"/>
<path d="M250.981 273.088L255.156 270.647V266.555L250.981 268.996V273.088Z" fill="#9DC4D4"/>
<path d="M246.34 275.803L250.516 273.362V269.27L246.34 271.711V275.803Z" fill="#9DC4D4"/>
<path d="M250.516 253.096V255.217L246.34 257.2V255.54L250.516 253.099V253.096ZM255.156 254.475L252.873 255.809L252.739 254.158L250.981 254.994V252.824L255.156 250.383V254.475ZM255.156 270.647L254.131 271.248L253.812 267.34L255.156 266.555V270.647ZM255.156 266.087L253.776 266.896L252.909 256.258L255.156 254.946V266.087Z" fill="#6DA7BF"/>
<path d="M254.709 301.081L206.44 329.297V288.985L258.148 258.75L254.709 301.081Z" fill="#FFF2CF"/>
<path d="M199.545 329.298L151.278 301.081V260.77L199.545 289.2V329.298Z" fill="#BFB59B"/>
<path d="M151.277 301.08L99.5864 270.874L99.5596 266.812L151.277 297.048V301.08Z" fill="#7D7161"/>
<path d="M213.338 313.172L247.814 293.016V268.828L213.338 288.984V313.172Z" fill="white"/>
<path d="M214.268 311.972L246.885 292.902V270.027L214.268 289.094V311.972Z" fill="#482815"/>
<path d="M236.511 298.625L246.355 292.87V270.68L236.511 276.435V298.625Z" fill="#904F29"/>
<path d="M241.664 278.479L245.84 276.037V271.945L241.664 274.387V278.479Z" fill="#9DC4D4"/>
<path d="M237.024 281.194L241.199 278.752V274.66L237.024 277.102V281.194Z" fill="#9DC4D4"/>
<path d="M241.664 290.087L245.84 287.646V276.504L241.664 278.945V290.087Z" fill="#9DC4D4"/>
<path d="M237.024 292.802L241.199 290.36V279.219L237.024 281.66V292.802Z" fill="#9DC4D4"/>
<path d="M241.664 294.651L245.84 292.209V288.117L241.664 290.559V294.651Z" fill="#9DC4D4"/>
<path d="M237.024 297.365L241.199 294.923V290.828L237.024 293.273V297.365Z" fill="#9DC4D4"/>
<path d="M241.199 274.658V276.78L237.024 278.763V277.103L241.199 274.661V274.658ZM245.84 276.037L243.557 277.371L243.423 275.721L241.664 276.557V274.387L245.84 271.945V276.037ZM245.84 292.21L244.815 292.81L244.496 288.902L245.84 288.118V292.21ZM245.84 287.647L244.46 288.456L243.593 277.818L245.84 276.505V287.647Z" fill="#6DA7BF"/>
<path d="M225.652 304.972L235.496 299.217V277.027L225.652 282.782V304.972Z" fill="#904F29"/>
<path d="M230.809 284.827L234.984 282.385V278.293L230.809 280.734V284.827Z" fill="#9DC4D4"/>
<path d="M226.168 287.541L230.344 285.1V281.008L226.168 283.449V287.541Z" fill="#9DC4D4"/>
<path d="M230.809 296.435L234.984 293.993V282.852L230.809 285.293V296.435Z" fill="#9DC4D4"/>
<path d="M226.168 299.15L230.344 296.708V285.566L226.168 288.008V299.15Z" fill="#9DC4D4"/>
<path d="M230.809 300.998L234.984 298.557V294.465L230.809 296.906V300.998Z" fill="#9DC4D4"/>
<path d="M226.168 303.712L230.344 301.271V297.176L226.168 299.62V303.712Z" fill="#9DC4D4"/>
<path d="M230.344 281.006V283.128L226.169 285.11V283.45L230.344 281.009V281.006ZM234.984 282.385L232.701 283.719L232.567 282.068L230.809 282.904V280.734L234.984 278.293V282.385ZM234.984 298.558L233.959 299.158L233.64 295.25L234.984 294.465V298.558ZM234.984 293.995L233.604 294.803L232.737 284.166L234.984 282.853V293.995Z" fill="#6DA7BF"/>
<path d="M214.799 311.32L224.643 305.565V283.375L214.799 289.13V311.32Z" fill="#904F29"/>
<path d="M219.952 291.174L224.131 288.733V284.641L219.952 287.082V291.174Z" fill="#9DC4D4"/>
<path d="M215.312 293.889L219.49 291.448V287.355L215.312 289.797V293.889Z" fill="#9DC4D4"/>
<path d="M219.952 302.782L224.131 300.341V289.199L219.952 291.641V302.782Z" fill="#9DC4D4"/>
<path d="M215.312 305.497L219.49 303.056V291.914L215.312 294.355V305.497Z" fill="#9DC4D4"/>
<path d="M219.952 307.345L224.131 304.904V300.809L219.952 303.253V307.345Z" fill="#9DC4D4"/>
<path d="M215.312 310.06L219.49 307.619V303.523L215.312 305.968V310.06Z" fill="#9DC4D4"/>
<path d="M219.49 287.354V289.475L215.315 291.458V289.798L219.49 287.357V287.354ZM224.131 288.733L221.848 290.067L221.714 288.416L219.955 289.252V287.082L224.131 284.641V288.733ZM224.131 304.905L223.106 305.506L222.787 301.598L224.131 300.813V304.905ZM224.131 300.342L222.751 301.151L221.884 290.513L224.131 289.201V300.342Z" fill="#6DA7BF"/>
<g style="mix-blend-mode:multiply">
<path d="M254.697 268.836L206.44 294.804V288.985L258.148 258.75L254.697 268.836Z" fill="#939598"/>
</g>
<path d="M158.171 293.016L192.65 313.172V288.984L158.171 268.828V293.016Z" fill="#DED9D5"/>
<path d="M159.102 292.906L191.719 311.976V289.098L159.102 270.031V292.906Z" fill="#482815"/>
<path d="M181.343 305.565L191.188 311.32V289.13L181.343 283.375V305.565Z" fill="#904F29"/>
<path d="M186.5 291.448L190.676 293.889V289.797L186.5 287.355V291.448Z" fill="#9DC4D4"/>
<path d="M181.86 288.733L186.035 291.174V287.082L181.86 284.641V288.733Z" fill="#9DC4D4"/>
<path d="M186.5 303.056L190.676 305.497V294.355L186.5 291.914V303.056Z" fill="#9DC4D4"/>
<path d="M181.86 300.341L186.035 302.782V291.641L181.86 289.199V300.341Z" fill="#9DC4D4"/>
<path d="M186.5 307.619L190.676 310.06V305.968L186.5 303.523V307.619Z" fill="#9DC4D4"/>
<path d="M181.86 304.905L186.035 307.346V303.254L181.86 300.812V304.905Z" fill="#9DC4D4"/>
<path d="M186.035 287.079V289.201L181.86 286.3V284.641L186.035 287.082V287.079ZM190.676 293.884L188.393 292.55L188.259 290.743L186.5 289.52V287.351L190.676 289.792V293.884ZM190.676 310.057L189.651 309.456L189.332 305.177L190.676 305.961V310.054V310.057ZM190.676 305.494L189.296 304.685L188.429 293.036L190.676 294.349V305.491V305.494Z" fill="#6DA7BF"/>
<path d="M170.488 299.217L180.332 304.972V282.782L170.488 277.027V299.217Z" fill="#904F29"/>
<path d="M175.642 285.1L179.82 287.541V283.449L175.642 281.008V285.1Z" fill="#9DC4D4"/>
<path d="M171.001 282.385L175.18 284.827V280.734L171.001 278.293V282.385Z" fill="#9DC4D4"/>
<path d="M175.642 296.708L179.82 299.15V288.008L175.642 285.566V296.708Z" fill="#9DC4D4"/>
<path d="M171.001 293.993L175.18 296.435V285.293L171.001 282.852V293.993Z" fill="#9DC4D4"/>
<path d="M175.642 301.271L179.82 303.712V299.62L175.642 297.176V301.271Z" fill="#9DC4D4"/>
<path d="M171.001 298.557L175.18 300.998V296.906L171.001 294.465V298.557Z" fill="#9DC4D4"/>
<path d="M175.18 280.731V282.853L171.004 279.953V278.293L175.18 280.734V280.731ZM179.82 287.537L177.537 286.203L177.403 284.395L175.645 283.173V281.003L179.82 283.444V287.537ZM179.82 303.709L178.795 303.108L178.476 298.829L179.82 299.614V303.706V303.709ZM179.82 299.146L178.44 298.337L177.573 286.688L179.82 288.001V299.143V299.146Z" fill="#6DA7BF"/>
<path d="M159.633 292.87L169.477 298.625V276.435L159.633 270.68V292.87Z" fill="#904F29"/>
<path d="M164.789 278.752L168.965 281.194V277.102L164.789 274.66V278.752Z" fill="#9DC4D4"/>
<path d="M160.149 276.037L164.324 278.479V274.387L160.149 271.945V276.037Z" fill="#9DC4D4"/>
<path d="M164.789 290.36L168.965 292.802V281.66L164.789 279.219V290.36Z" fill="#9DC4D4"/>
<path d="M160.149 287.646L164.324 290.09V278.945L160.149 276.504V287.646Z" fill="#9DC4D4"/>
<path d="M164.789 294.924L168.965 297.366V293.273L164.789 290.832V294.924Z" fill="#9DC4D4"/>
<path d="M160.149 292.209L164.324 294.651V290.559L160.149 288.117V292.209Z" fill="#9DC4D4"/>
<path d="M164.324 274.384V276.505L160.149 273.605V271.945L164.324 274.387V274.384ZM168.965 281.189L166.682 279.855L166.548 278.047L164.789 276.825V274.655L168.965 277.097V281.189ZM168.965 297.361L167.94 296.761L167.621 292.482L168.965 293.266V297.358V297.361ZM168.965 292.798L167.585 291.99L166.718 280.341L168.965 281.654V292.795V292.798Z" fill="#6DA7BF"/>
<g style="mix-blend-mode:multiply">
<path d="M199.545 294.463L151.278 270.031V260.77L199.545 289.2V294.463Z" fill="#808285"/>
</g>
<path d="M258.158 303.097L254.71 301.081L254.698 260.782L261.604 260.77L258.158 303.097Z" fill="#858078"/>
<path d="M313.321 270.843L316.77 228.516H309.873V268.828L313.321 270.843Z" fill="#858078"/>
<path d="M365.039 240.613L327.111 218.442L368.484 194.254L365.039 240.613Z" fill="#2F2218"/>
<path d="M313.32 270.844L258.157 303.096V299.064L313.32 266.812V270.844Z" fill="#B2AA95"/>
<path d="M313.322 266.812L309.874 264.799V260.767L299.526 254.723L258.159 278.907V299.063L313.322 266.812Z" fill="#5E5549"/>
<path d="M375.381 178.128L261.604 111.609L251.262 117.66L258.158 246.656L375.381 178.128Z" fill="#B1AAA0"/>
<path d="M313.322 266.813L302.981 264.797L258.159 282.94V278.908V299.064L313.322 266.813Z" fill="#7D7161"/>
<path d="M299.56 218.423H285.77L258.21 226.535L289.105 200.249L303.008 196.254L299.56 218.423Z" fill="#7D7161"/>
<path d="M316.771 196.547C316.881 196.61 368.104 166.538 368.211 166.52V178.126C368.211 178.28 368.336 178.407 368.488 178.407C368.64 178.407 368.766 178.28 368.766 178.126V166.034C368.694 165.255 315.534 196.007 316.771 196.55V196.547Z" fill="black"/>
<path d="M368.486 166.317C369.911 165.568 261.611 103.504 261.468 103.305C261.051 103.428 261.474 115.403 261.328 115.648C262.476 117.962 261.65 103.703 261.885 104.038C261.96 104.038 368.382 166.383 368.489 166.32L368.486 166.317Z" fill="black"/>
<path d="M316.772 200.582C316.93 200.138 369.486 170.685 368.63 169.825C368.35 169.825 261.779 107.045 261.472 107.341L247.679 115.401C246.237 117.65 261.83 107.471 261.612 107.908L367.936 170.066C368.058 170.579 315.136 199.8 316.775 200.582H316.772Z" fill="black"/>
<path d="M240.916 115.926C241.182 115.591 262.151 104.109 261.85 103.409C261.505 102.684 241.152 115.495 240.776 115.401C240.535 115.531 240.642 115.938 240.916 115.926Z" fill="black"/>
<path d="M327.111 202.595C327.264 202.595 327.391 202.468 327.391 202.314V190.222C327.391 190.068 327.264 189.941 327.111 189.941C326.957 189.941 326.831 190.068 326.831 190.222V202.314C326.831 202.468 326.957 202.595 327.111 202.595Z" fill="black"/>
<path d="M361.591 182.44C361.743 182.44 361.868 182.313 361.868 182.159C361.606 181.879 362.381 161.665 361.591 161.723C360.801 161.665 361.576 181.879 361.311 182.159C361.311 182.313 361.436 182.44 361.588 182.44H361.591Z" fill="black"/>
<path d="M347.796 190.5C347.95 190.5 348.076 190.374 348.076 190.22V178.124C348.076 177.97 347.95 177.844 347.796 177.844C347.643 177.844 347.516 177.97 347.516 178.124V190.22C347.516 190.374 347.643 190.5 347.796 190.5Z" fill="black"/>
<path d="M340.904 194.532C341.121 194.559 341.214 194.227 341.184 194.248C341.184 193.982 341.184 182.165 341.184 182.135C341.172 181.99 341.052 181.875 340.904 181.875C340.751 181.875 340.624 182.002 340.624 182.156V194.248C340.624 194.402 340.751 194.529 340.907 194.529L340.904 194.532Z" fill="black"/>
<path d="M340.904 162.286C341.057 162.286 341.184 162.159 341.184 162.005V149.91C341.184 149.756 341.057 149.629 340.904 149.629C340.75 149.629 340.624 149.756 340.624 149.91V162.005C340.624 162.159 340.75 162.286 340.904 162.286Z" fill="black"/>
<path d="M337.455 160.27C337.608 160.27 337.734 160.143 337.734 159.989V147.894C337.734 147.74 337.608 147.613 337.455 147.613C337.301 147.613 337.175 147.74 337.175 147.894V159.989C337.175 160.143 337.301 160.27 337.455 160.27Z" fill="black"/>
<path d="M316.771 148.174C316.924 148.174 317.051 148.047 317.051 147.893V135.804C317.051 135.65 316.924 135.523 316.771 135.523C316.617 135.523 316.491 135.65 316.491 135.804V147.893C316.491 148.047 316.617 148.174 316.771 148.174Z" fill="black"/>
<path d="M313.32 146.161C313.473 146.161 313.6 146.034 313.6 145.88V133.785C313.6 133.631 313.473 133.504 313.32 133.504C313.166 133.504 313.04 133.631 313.04 133.785V145.88C313.04 146.034 313.166 146.161 313.32 146.161Z" fill="black"/>
<path d="M292.634 134.067C292.854 134.094 292.944 133.762 292.914 133.783C292.914 133.518 292.914 121.7 292.911 121.67C292.899 121.525 292.779 121.41 292.631 121.41C292.475 121.41 292.352 121.537 292.352 121.691V133.786C292.352 133.94 292.481 134.067 292.634 134.067Z" fill="black"/>
<path d="M289.185 132.048C289.338 132.048 289.465 131.921 289.465 131.768V119.675C289.465 119.521 289.338 119.395 289.185 119.395C289.032 119.395 288.905 119.521 288.905 119.675V131.768C288.905 131.921 289.032 132.048 289.185 132.048Z" fill="black"/>
<path d="M268.498 119.958C268.651 119.958 268.777 119.832 268.777 119.678V107.585C268.777 107.431 268.651 107.305 268.498 107.305C268.344 107.305 268.218 107.431 268.218 107.585V119.678C268.218 119.832 268.344 119.958 268.498 119.958Z" fill="black"/>
<path d="M254.708 119.957C254.862 119.957 254.988 119.83 254.988 119.676V107.578C254.988 107.424 254.862 107.297 254.708 107.297C254.555 107.297 254.429 107.424 254.429 107.578V119.676C254.429 119.83 254.555 119.957 254.708 119.957Z" fill="black"/>
<g style="mix-blend-mode:multiply">
<path d="M313.345 202.007H315.849L328.629 194.535C328.375 194.441 326.766 194.788 326.811 194.254C326.706 193.699 329.365 194.079 329.591 193.973L335.543 190.494H333.963C333.603 190.5 333.603 189.926 333.963 189.932H336.506L349.321 182.439C349.074 182.343 347.44 182.693 347.488 182.159C347.378 181.603 350.057 181.981 350.284 181.878L356.212 178.413C356.134 178.426 354.581 178.432 354.557 178.377C354.432 178.302 347.685 174.361 347.575 174.294C345.038 172.812 325.401 161.333 323.44 160.186C323.535 160.116 319.395 158.146 319.98 157.838C320.03 157.21 323.571 159.742 323.741 159.712H337.483C339.742 160.859 326.96 160.047 327.275 160.273L329.764 161.725H340.905C341.057 161.725 341.182 161.852 341.182 162.006C341.182 162.16 341.057 162.286 340.905 162.286H330.73L350.486 173.817H361.618C363.883 174.964 351.133 174.152 351.452 174.379C351.535 174.406 357.341 177.855 357.43 177.846H368.541C368.693 177.846 368.818 177.973 368.818 178.127C368.818 178.281 368.693 178.407 368.541 178.407H357.323L351.395 181.872C351.199 182.107 363.832 181.283 361.612 182.433H350.433L337.617 189.926H347.807C347.959 189.926 348.084 190.053 348.084 190.207C348.084 190.361 347.959 190.488 347.807 190.488H336.655L330.703 193.967H340.931C341.083 193.967 341.209 194.094 341.209 194.248C341.209 194.402 341.083 194.529 340.931 194.529H329.74L316.961 202.001H327.189C327.341 202.001 327.466 202.127 327.466 202.281C327.466 202.435 327.341 202.562 327.189 202.562H315.998C315.908 202.616 315.798 202.616 315.709 202.562H313.345C312.985 202.568 312.985 201.995 313.345 202.001V202.007ZM326.161 160.27H324.7L327.186 161.722H328.649L326.161 160.27ZM329.615 162.286H328.149L347.873 173.817H349.372L329.615 162.286ZM350.337 174.379H348.835L354.769 177.846H356.28L350.337 174.379ZM254.657 119.394H268.5C268.652 119.394 268.777 119.521 268.777 119.675C268.777 119.829 268.652 119.955 268.5 119.955H254.657C254.299 119.962 254.293 119.388 254.657 119.394ZM254.707 115.646L255.193 115.362C255.315 115.501 262.242 115.033 261.908 115.643C262.221 116.265 254.171 115.779 254.064 115.924L254.71 115.643L254.707 115.646ZM302.926 147.614H316.77C316.922 147.614 317.047 147.74 317.047 147.894C317.047 148.048 316.922 148.175 316.77 148.175H302.926C302.568 148.181 302.563 147.608 302.926 147.614ZM299.505 145.598H313.348C313.5 145.598 313.626 145.725 313.626 145.878C313.626 146.032 313.5 146.159 313.348 146.159H299.505C299.147 146.165 299.141 145.592 299.505 145.598ZM278.791 133.505H292.635C292.787 133.505 292.912 133.632 292.912 133.786C292.912 133.94 292.787 134.067 292.635 134.067H278.791C278.434 134.073 278.428 133.499 278.791 133.505ZM275.37 131.49H289.214C289.366 131.49 289.491 131.616 289.491 131.77C289.491 131.924 289.366 132.051 289.214 132.051H275.37C275.012 132.057 275.006 131.484 275.37 131.49Z" fill="#D1D3D4"/>
</g>
<path d="M299.531 202.317L299.528 153.941L244.362 178.129L258.158 226.502L299.531 202.317Z" fill="#FFF2CF"/>
<path d="M244.362 226.535L278.842 206.379V182.191L244.362 202.347V226.535Z" fill="white"/>
<path d="M245.291 225.335L277.908 206.266V183.391L245.291 202.46V225.335Z" fill="#482815"/>
<path d="M267.535 211.985L277.379 206.23V184.043L267.535 189.798V211.985Z" fill="#904F29"/>
<path d="M272.692 191.838L276.867 189.397V185.305L272.692 187.746V191.838Z" fill="#9DC4D4"/>
<path d="M268.051 194.553L272.227 192.112V188.02L268.051 190.461V194.553Z" fill="#9DC4D4"/>
<path d="M272.692 203.449L276.867 201.008V189.863L272.692 192.308V203.449Z" fill="#9DC4D4"/>
<path d="M268.051 206.164L272.227 203.723V192.578L268.051 195.023V206.164Z" fill="#9DC4D4"/>
<path d="M272.692 208.01L276.867 205.569V201.477L272.692 203.918V208.01Z" fill="#9DC4D4"/>
<path d="M268.051 210.725L272.227 208.284V204.191L268.051 206.633V210.725Z" fill="#9DC4D4"/>
<path d="M272.227 188.018V190.139L268.051 192.122V190.462L272.227 188.021V188.018ZM276.867 189.397L274.584 190.731L274.45 189.08L272.692 189.916V187.746L276.867 185.305V189.397ZM276.867 205.569L275.842 206.17L275.523 202.262L276.867 201.477V205.569ZM276.867 201.009L275.487 201.818L274.62 191.18L276.867 189.868V201.009Z" fill="#6DA7BF"/>
<path d="M256.679 218.333L266.523 212.578V190.391L256.679 196.146V218.333Z" fill="#904F29"/>
<path d="M261.833 198.186L266.012 195.744V191.652L261.833 194.094V198.186Z" fill="#9DC4D4"/>
<path d="M257.193 200.901L261.371 198.459V194.367L257.193 196.809V200.901Z" fill="#9DC4D4"/>
<path d="M261.833 209.797L266.012 207.356V196.211L261.833 198.655V209.797Z" fill="#9DC4D4"/>
<path d="M257.193 212.512L261.371 210.071V198.926L257.193 201.37V212.512Z" fill="#9DC4D4"/>
<path d="M261.833 214.358L266.012 211.916V207.824L261.833 210.266V214.358Z" fill="#9DC4D4"/>
<path d="M257.193 217.073L261.371 214.631V210.539L257.193 212.98V217.073Z" fill="#9DC4D4"/>
<path d="M261.371 194.365V196.487L257.196 198.47V196.81L261.371 194.368V194.365ZM266.012 195.744L263.729 197.078L263.595 195.428L261.836 196.264V194.094L266.012 191.652V195.744ZM266.012 211.917L264.986 212.517L264.668 208.609L266.012 207.825V211.917ZM266.012 207.357L264.632 208.166L263.765 197.528L266.012 196.215V207.357Z" fill="#6DA7BF"/>
<path d="M245.824 224.68L255.668 218.925V196.738L245.824 202.493V224.68Z" fill="#904F29"/>
<path d="M250.981 204.534L255.156 202.092V198L250.981 200.441V204.534Z" fill="#9DC4D4"/>
<path d="M246.34 207.248L250.516 204.807V200.715L246.34 203.156V207.248Z" fill="#9DC4D4"/>
<path d="M250.981 216.145L255.156 213.703V202.559L250.981 205.003V216.145Z" fill="#9DC4D4"/>
<path d="M246.34 218.86L250.516 216.418V205.273L246.34 207.718V218.86Z" fill="#9DC4D4"/>
<path d="M250.981 220.705L255.156 218.264V214.172L250.981 216.613V220.705Z" fill="#9DC4D4"/>
<path d="M246.34 223.42L250.516 220.979V216.887L246.34 219.328V223.42Z" fill="#9DC4D4"/>
<path d="M250.516 200.713V202.835L246.34 204.817V203.157L250.516 200.716V200.713ZM255.156 202.092L252.873 203.426L252.739 201.775L250.981 202.611V200.441L255.156 198V202.092ZM255.156 218.265L254.131 218.865L253.812 214.957L255.156 214.172V218.265ZM255.156 213.705L253.776 214.513L252.909 203.876L255.156 202.563V213.705Z" fill="#6DA7BF"/>
<path d="M282.29 212.376L299.531 202.318L299.525 174.102L282.29 184.178V212.376Z" fill="black"/>
<path d="M291.318 206.454L298.936 202.008L298.93 175.102L291.315 179.553L291.318 206.454Z" fill="#9DC4D4"/>
<path d="M296.361 179.9L297.702 202.727L298.936 202.008L298.93 175.102L291.315 179.553V181.487L296.361 179.9Z" fill="#6DA7BF"/>
<path d="M282.886 211.375L290.498 206.933L290.495 180.035L282.883 184.483L282.886 211.375Z" fill="#9DC4D4"/>
<path d="M287.926 184.833L289.264 207.654L290.498 206.933L290.495 180.035L282.883 184.483V186.418L287.926 184.833Z" fill="#6DA7BF"/>
<g style="mix-blend-mode:multiply">
<path d="M299.531 202.317L299.528 153.941L254.71 206.699L285.738 198.285V210.377L299.531 202.317Z" fill="#A7A9AC"/>
</g>
<path d="M299.532 218.439L320.219 206.344V166.035L299.532 178.128V218.439Z" fill="#7D7161"/>
<path d="M306.093 180.646L314.59 175.679V170.699L306.093 175.664V180.646Z" fill="#483F36"/>
<path d="M305.746 205.749L320.219 197.29V190.938L305.746 199.396V205.749Z" fill="#605448"/>
<path d="M305.747 175.364L314.244 170.399V169.527L305.747 174.495V175.364Z" fill="#605448"/>
<path d="M303.18 177.801L311.674 172.834V171.965L303.18 176.929V177.801Z" fill="#BFBBB6"/>
<path d="M311.725 175.614L320.219 170.649V169.777L311.725 174.742V175.614Z" fill="#BFBBB6"/>
<path d="M299.531 180.871L308.025 175.903V175.031L299.531 179.999V180.871Z" fill="#181512"/>
<path d="M314.002 188.355L305.508 193.32V194.192L314.002 189.225V188.355Z" fill="#605448"/>
<path d="M316.57 185.918L308.073 190.885V191.754L316.57 186.79V185.918Z" fill="#BFBBB6"/>
<path d="M309.996 186.953L299.532 193.07V198.487L309.996 192.37V186.953Z" fill="#BFBBB6"/>
<path d="M313.656 185.75L305.162 190.717V191.589L313.656 186.622V185.75Z" fill="#483F36"/>
<path d="M320.219 182.848L311.725 187.815V188.687L320.219 183.72V182.848Z" fill="#181512"/>
<path d="M314.002 203.297L303.18 209.622V210.494L314.002 204.169V203.297Z" fill="#605448"/>
<path d="M316.57 200.859L308.073 205.824V206.696L316.57 201.729V200.859Z" fill="#BFBBB6"/>
<path d="M308.025 203.047L299.531 208.014V208.886L308.025 203.919V203.047Z" fill="#BFBBB6"/>
<path d="M313.656 200.691L305.162 205.656V206.528L313.656 201.564V200.691Z" fill="#483F36"/>
<path d="M320.219 197.793L311.725 202.757V203.629L320.219 198.665V197.793Z" fill="#181512"/>
<path d="M313.656 205.047L299.532 213.304V218.44L313.656 210.183V205.047Z" fill="#483F36"/>
<path d="M314.002 208.277L305.508 213.242V214.114L314.002 209.146V208.277Z" fill="#605448"/>
<path d="M316.57 205.84L308.073 210.807V211.676L316.57 206.712V205.84Z" fill="#BFBBB6"/>
<path d="M308.025 208.027L299.531 212.992V213.864L308.025 208.899V208.027Z" fill="#BFBBB6"/>
<path d="M320.219 202.773L311.725 207.741V208.613L320.219 203.646V202.773Z" fill="#181512"/>
<path d="M305.747 180.344L314.244 175.377V174.508L305.747 179.472V180.344Z" fill="#605448"/>
<path d="M303.18 182.782L311.674 177.817V176.945L303.18 181.913V182.782Z" fill="#BFBBB6"/>
<path d="M311.725 181.214L320.219 176.247V175.375L311.725 180.342V181.214Z" fill="#BFBBB6"/>
<path d="M306.093 182.95L314.59 177.985V177.113L306.093 182.078V182.95Z" fill="#483F36"/>
<path d="M299.531 185.852L308.025 180.888V180.016L299.531 184.98V185.852Z" fill="#181512"/>
<path d="M303.18 202.707L311.674 197.739V196.867L303.18 201.835V202.707Z" fill="#BFBBB6"/>
<path d="M311.725 200.519L320.219 195.552V194.68L311.725 199.647V200.519Z" fill="#BFBBB6"/>
<path d="M306.093 202.874L318.795 195.45V194.578L306.093 202.002V202.874Z" fill="#483F36"/>
<path d="M299.531 205.774L308.025 200.81V199.938L299.531 204.905V205.774Z" fill="#181512"/>
<path d="M314.002 190.466L305.508 195.43V194.558L314.002 189.594V190.466Z" fill="#605448"/>
<path d="M316.57 189.896L303.18 197.724V196.852L316.57 189.023V189.896Z" fill="#BFBBB6"/>
<path d="M308.025 197.7L299.531 202.665V201.792L308.025 196.828V197.7Z" fill="#BFBBB6"/>
<path d="M313.656 193.474L305.162 198.438V197.566L313.656 192.602V193.474Z" fill="#483F36"/>
<path d="M320.219 188.704L311.725 193.668V192.796L320.219 187.832V188.704Z" fill="#181512"/>
<path d="M314.002 183.371L305.508 188.338V189.208L314.002 184.243V183.371Z" fill="#605448"/>
<path d="M318.5 179.809L308.075 185.902V186.774L318.5 180.681V179.809Z" fill="#BFBBB6"/>
<path d="M308.025 183.121L299.531 188.088V188.961L308.025 183.993V183.121Z" fill="#BFBBB6"/>
<path d="M313.656 180.77L305.162 185.734V186.606L313.656 181.642V180.77Z" fill="#483F36"/>
<path d="M320.219 177.867L311.725 182.831V183.704L320.219 178.739V177.867Z" fill="#181512"/>
<path d="M299.533 218.441L296.085 216.425V176.113L299.533 178.129V218.441Z" fill="#7D7161"/>
<path d="M298.439 183.841L297.024 183.011V178.031L298.439 178.858V183.841Z" fill="#483F36"/>
<path d="M298.496 208.777L296.085 207.368V201.016L298.496 202.425V208.777Z" fill="#605448"/>
<path d="M298.496 178.394L297.08 177.567V176.695L298.496 177.522V178.394Z" fill="#605448"/>
<path d="M298.926 179.582L297.51 178.755V177.883L298.926 178.71V179.582Z" fill="#BFBBB6"/>
<path d="M297.5 181.554L296.084 180.728V179.855L297.5 180.682V181.554Z" fill="#BFBBB6"/>
<path d="M299.533 180.871L298.118 180.041V179.172L299.533 179.999V180.871Z" fill="#181512"/>
<path d="M297.122 195.402L298.535 196.229V197.101L297.122 196.274V195.402Z" fill="#605448"/>
<path d="M296.694 194.215L298.109 195.042V195.914L296.694 195.087V194.215Z" fill="#BFBBB6"/>
<path d="M297.79 192.051L299.533 193.071V198.488L297.79 197.468V192.051Z" fill="#BFBBB6"/>
<path d="M297.178 192.629L298.594 193.456V194.328L297.178 193.501V192.629Z" fill="#483F36"/>
<path d="M296.084 192.926L297.5 193.753V194.625L296.084 193.798V192.926Z" fill="#181512"/>
<path d="M297.12 210.348L298.926 211.401V212.273L297.12 211.22V210.348Z" fill="#605448"/>
<path d="M296.694 209.16L298.109 209.987V210.859L296.694 210.032V209.16Z" fill="#BFBBB6"/>
<path d="M298.118 207.184L299.533 208.01V208.883L298.118 208.056V207.184Z" fill="#BFBBB6"/>
<path d="M297.178 207.574L298.594 208.401V209.273L297.178 208.443V207.574Z" fill="#483F36"/>
<path d="M296.084 207.867L297.5 208.694V209.566L296.084 208.739V207.867Z" fill="#181512"/>
<path d="M297.179 211.93L299.533 213.306V218.442L297.179 217.066V211.93Z" fill="#483F36"/>
<path d="M297.119 215.328L298.535 216.158V217.03L297.119 216.2V215.328Z" fill="#605448"/>
<path d="M296.694 214.141L298.109 214.971V215.843L296.694 215.013V214.141Z" fill="#BFBBB6"/>
<path d="M298.118 212.168L299.533 212.995V213.867L298.118 213.04V212.168Z" fill="#BFBBB6"/>
<path d="M296.084 212.852L297.5 213.678V214.551L296.084 213.721V212.852Z" fill="#181512"/>
<path d="M298.496 183.375L297.08 182.548V181.676L298.496 182.503V183.375Z" fill="#605448"/>
<path d="M298.926 184.558L297.51 183.732V182.859L298.926 183.686V184.558Z" fill="#BFBBB6"/>
<path d="M297.5 187.156L296.084 186.326V185.457L297.5 186.284V187.156Z" fill="#BFBBB6"/>
<path d="M298.439 186.148L297.024 185.321V184.449L298.439 185.276V186.148Z" fill="#483F36"/>
<path d="M299.533 185.851L298.118 185.024V184.152L299.533 184.979V185.851Z" fill="#181512"/>
<path d="M298.926 204.484L297.51 203.657V202.785L298.926 203.612V204.484Z" fill="#BFBBB6"/>
<path d="M297.5 206.46L296.084 205.63V204.758L297.5 205.588V206.46Z" fill="#BFBBB6"/>
<path d="M298.439 206.07L296.32 204.833V203.961L298.439 205.198V206.07Z" fill="#483F36"/>
<path d="M299.533 205.773L298.118 204.946V204.074L299.533 204.901V205.773Z" fill="#181512"/>
<path d="M297.122 197.513L298.535 198.34V197.468L297.122 196.641V197.513Z" fill="#605448"/>
<path d="M296.694 198.196L298.926 199.5V198.631L296.694 197.324V198.196Z" fill="#BFBBB6"/>
<path d="M298.118 201.837L299.533 202.667V201.795L298.118 200.965V201.837Z" fill="#BFBBB6"/>
<path d="M297.178 200.354L298.594 201.183V200.311L297.178 199.484V200.354Z" fill="#483F36"/>
<path d="M296.084 198.775L297.5 199.605V198.733L296.084 197.906V198.775Z" fill="#181512"/>
<path d="M297.122 190.422L298.535 191.249V192.121L297.122 191.291V190.422Z" fill="#605448"/>
<path d="M296.372 189.047L298.109 190.064V190.936L296.372 189.919V189.047Z" fill="#BFBBB6"/>
<path d="M298.118 187.262L299.533 188.089V188.961L298.118 188.134V187.262Z" fill="#BFBBB6"/>
<path d="M297.178 187.648L298.594 188.478V189.35L297.178 188.521V187.648Z" fill="#483F36"/>
<path d="M296.084 187.945L297.5 188.772V189.644L296.084 188.817V187.945Z" fill="#181512"/>
<g style="mix-blend-mode:multiply">
<path d="M299.533 218.441L296.085 216.425V176.113L299.533 178.129V218.441Z" fill="#7D7161"/>
</g>
<path opacity="0.5" d="M279.693 227.281L298.139 216.505V204.805L279.69 215.587L279.693 227.281Z" fill="#A9DDF3"/>
<path d="M298.139 204.605V216.701L279.693 227.477V215.391L298.139 204.608V204.605ZM280.239 226.319L297.59 216.182V205.77L280.236 215.913V226.319H280.239Z" fill="black"/>
<path opacity="0.5" d="M260.217 238.658L278.645 227.893L278.642 216.199L260.211 226.973L260.217 238.658Z" fill="#A9DDF3"/>
<path d="M278.643 216.003V228.089L260.218 238.854L260.212 226.774L278.643 216V216.003ZM260.764 237.695L278.1 227.567V217.162L260.758 227.296L260.764 237.695Z" fill="black"/>
<path d="M278.368 218.956L280.043 217.979V217.27L278.368 218.247V218.956Z" fill="black"/>
<path d="M278.37 226.164L280.045 225.186V224.477L278.37 225.454V226.164Z" fill="black"/>
<path d="M265.053 242.629V194.254L234.081 196.303L202.993 230.534L202.981 278.915L265.053 242.629Z" fill="#DED9D5"/>
<path d="M202.98 278.915L227.127 264.801V220.457L202.992 234.565L202.98 278.915Z" fill="#904F29"/>
<path d="M202.992 238.737L227.127 224.629V224.164L202.992 238.272V238.737Z" fill="#6C3B1F"/>
<path d="M202.989 241.529L227.127 227.418V226.953L202.989 241.064V241.529Z" fill="#A67254"/>
<path d="M202.989 244.318L227.127 230.207V229.742L202.989 243.853V244.318Z" fill="#6C3B1F"/>
<path d="M202.989 247.11L227.127 232.999V232.531L202.989 246.643V247.11Z" fill="#6C3B1F"/>
<path d="M202.989 249.896L227.127 235.785V235.32L202.989 249.432V249.896Z" fill="#BC957F"/>
<path d="M202.986 252.688L227.127 238.574V238.109L202.986 252.224V252.688Z" fill="#482815"/>
<path d="M202.986 255.478L227.127 241.367V240.902L202.986 255.014V255.478Z" fill="#6C3B1F"/>
<path d="M202.986 258.267L227.127 244.152V243.688L202.986 257.802V258.267Z" fill="#482815"/>
<path d="M202.983 261.059L227.127 246.945V246.48L202.983 260.595V261.059Z" fill="#6C3B1F"/>
<path d="M202.983 263.852L227.127 249.738V249.273L202.983 263.388V263.852Z" fill="#A67254"/>
<path d="M202.983 266.642L227.127 252.527V252.062L202.983 266.177V266.642Z" fill="#6C3B1F"/>
<path d="M202.983 269.434L227.127 255.316V254.852L202.983 268.969V269.434Z" fill="#BC957F"/>
<path d="M202.98 272.227L227.127 258.109V257.645L202.98 271.762V272.227Z" fill="#6C3B1F"/>
<path d="M202.98 275.016L227.127 260.898V260.434L202.98 274.551V275.016Z" fill="#6C3B1F"/>
<path d="M282.293 264.797L296.08 256.737V224.488L282.29 232.549L282.293 264.797Z" fill="#482815"/>
<path d="M282.639 264.593L295.734 256.937V225.25L282.636 232.906L282.639 264.593Z" fill="#904F29"/>
<path d="M291.446 248.687L294.85 246.696V227.523L291.443 229.515V248.687H291.446ZM294.641 246.527L291.658 248.271V229.69L294.641 227.946V246.527Z" fill="#AA6E4A"/>
<path d="M291.446 258.312L294.85 256.32V247.973L291.446 249.964V258.312ZM294.641 256.148L291.658 257.892V250.133L294.641 248.389V256.148Z" fill="#AA6E4A"/>
<path d="M287.399 251.055L290.803 249.063V229.891L287.396 231.882V251.055H287.399ZM290.594 248.894L287.611 250.638V232.057L290.594 230.313V248.894Z" fill="#AA6E4A"/>
<path d="M287.401 260.675L290.805 258.683V250.336L287.401 252.328V260.675ZM290.593 258.514L287.61 260.258V252.5L290.593 250.755V258.514Z" fill="#AA6E4A"/>
<path d="M283.356 253.418L286.76 251.426V232.254L283.353 234.246V253.418H283.356ZM286.551 251.254L283.568 252.998V234.418L286.551 232.673V251.254Z" fill="#AA6E4A"/>
<path d="M283.356 263.038L286.76 261.046V252.699L283.353 254.691V263.038H283.356ZM286.551 260.877L283.568 262.622V254.863L286.551 253.119V260.877Z" fill="#AA6E4A"/>
<path d="M291.53 248.523L294.934 246.532V227.359L291.527 229.351V248.523H291.53ZM294.725 246.36L291.742 248.104V229.523L294.725 227.779V246.36Z" fill="#6F3715"/>
<path d="M291.53 258.144L294.934 256.152V247.805L291.53 249.796V258.144ZM294.725 255.983L291.742 257.727V249.968L294.725 248.224V255.983Z" fill="#6F3715"/>
<path d="M287.487 250.89L290.891 248.899V229.727L287.484 231.718V250.89H287.487ZM290.682 248.727L287.699 250.471V231.89L290.682 230.146V248.727Z" fill="#6F3715"/>
<path d="M287.487 260.511L290.891 258.519V250.172L287.487 252.164V260.511ZM290.682 258.347L287.699 260.091V252.333L290.682 250.588V258.347Z" fill="#6F3715"/>
<path d="M283.44 253.254L286.844 251.262V232.09L283.437 234.082V253.254H283.44ZM286.635 251.093L283.652 252.837V234.257L286.635 232.512V251.093Z" fill="#6F3715"/>
<path d="M283.442 262.878L286.846 260.886V252.539L283.442 254.531V262.878ZM286.634 260.714L283.651 262.459V254.7L286.634 252.956V260.714Z" fill="#6F3715"/>
<path d="M283.825 252.498L284.883 251.879V247.289L283.825 247.908V252.498Z" fill="#F1F2F2"/>
<path d="M283.936 250.924L284.768 250.435V247.508L283.936 247.997V250.924Z" fill="#231F20"/>
<path d="M283.936 252.289L284.768 251.8V250.75L283.936 251.236V252.289Z" fill="#00A79D"/>
<path d="M202.993 335.343L209.89 331.311V290.999L258.156 262.783L258.159 303.095L261.605 301.079V260.767L313.322 230.531V270.843L316.771 268.827V228.516L365.043 200.296L365.04 240.611L371.934 236.579V184.172L202.993 282.939V335.343Z" fill="#DED9D5"/>
<path d="M202.992 335.346L196.096 331.314V291.002L96.1114 232.55V272.862L89.2149 268.83V216.426L202.992 282.941V335.346Z" fill="#858078"/>
<path d="M202.992 282.939L85.7697 214.404V162L202.992 230.531V282.939Z" fill="#B1AAA0"/>
<g style="mix-blend-mode:multiply">
<path d="M202.993 284.514L371.934 188.204V184.172L202.993 282.939V284.514Z" fill="#BCBEC0"/>
</g>
<path d="M375.381 178.129V182.161L202.992 282.94V278.909L375.381 178.129Z" fill="#EBE8E6"/>
<g style="mix-blend-mode:multiply">
<path d="M265.053 206.346V194.254L234.081 196.303L202.993 230.534L202.981 241.241L237.473 206.346H265.053Z" fill="#BCBEC0"/>
</g>
<path d="M178.857 264.801L202.992 278.909V234.565L178.857 220.457V264.801Z" fill="#904F29"/>
<path d="M178.857 224.629L202.992 238.74V238.275L178.857 224.164V224.629Z" fill="#6C3B1F"/>
<path d="M178.857 227.422L202.992 241.53V241.065L178.857 226.957V227.422Z" fill="#A67254"/>
<path d="M178.857 230.21L202.992 244.318V243.853L178.857 229.742V230.21Z" fill="#6C3B1F"/>
<path d="M178.857 233L202.992 247.108V246.643L178.857 232.535V233Z" fill="#6C3B1F"/>
<path d="M178.857 235.793L202.992 249.901V249.436L178.857 235.328V235.793Z" fill="#BC957F"/>
<path d="M178.857 238.582L202.992 252.69V252.225L178.857 238.117V238.582Z" fill="#482815"/>
<path d="M178.857 241.371L202.992 255.479V255.015L178.857 240.906V241.371Z" fill="#6C3B1F"/>
<path d="M178.857 244.16L202.992 258.271V257.807L178.857 243.695V244.16Z" fill="#482815"/>
<path d="M178.857 246.953L202.992 261.061V260.597L178.857 246.488V246.953Z" fill="#6C3B1F"/>
<path d="M178.857 249.741L202.992 263.849V263.385L178.857 249.273V249.741Z" fill="#A67254"/>
<path d="M178.857 252.531L202.992 266.639V266.175L178.857 252.066V252.531Z" fill="#6C3B1F"/>
<path d="M178.857 255.324L202.992 269.432V268.968L178.857 254.859V255.324Z" fill="#BC957F"/>
<path d="M178.857 258.113L202.992 272.224V271.757L178.857 257.648V258.113Z" fill="#6C3B1F"/>
<path d="M178.857 260.902L202.992 275.01V274.546L178.857 260.438V260.902Z" fill="#6C3B1F"/>
<g style="mix-blend-mode:multiply">
<path d="M178.857 264.801L202.992 278.909V234.565L178.857 220.457V264.801Z" fill="#BCBEC0"/>
</g>
<path d="M85.7696 210.375L109.904 224.483L109.901 180.14L85.7696 166.031V210.375Z" fill="#904F29"/>
<path d="M85.7696 170.206L109.904 184.314V183.85L85.7696 169.738V170.206Z" fill="#6C3B1F"/>
<path d="M85.7696 172.996L109.904 187.104V186.64L85.7696 172.531V172.996Z" fill="#A67254"/>
<path d="M85.7696 175.785L109.904 189.893V189.429L85.7696 175.32V175.785Z" fill="#6C3B1F"/>
<path d="M85.7696 178.574L109.904 192.685V192.218L85.7696 178.109V178.574Z" fill="#6C3B1F"/>
<path d="M85.7696 181.367L109.904 195.475V195.011L85.7696 180.902V181.367Z" fill="#BC957F"/>
<path d="M85.7696 184.156L109.904 198.267V197.803L85.7696 183.691V184.156Z" fill="#482815"/>
<path d="M85.7696 186.945L109.904 201.053V200.589L85.7696 186.48V186.945Z" fill="#6C3B1F"/>
<path d="M85.7696 189.737L109.904 203.846V203.381L85.7696 189.27V189.737Z" fill="#482815"/>
<path d="M85.7696 192.527L109.904 206.635V206.171L85.7696 192.062V192.527Z" fill="#6C3B1F"/>
<path d="M85.7696 195.316L109.904 209.425V208.96L85.7696 194.852V195.316Z" fill="#A67254"/>
<path d="M85.7696 198.105L109.904 212.217V211.749L85.7696 197.641V198.105Z" fill="#6C3B1F"/>
<path d="M85.7696 200.898L109.904 215.007V214.542L85.7696 200.434V200.898Z" fill="#BC957F"/>
<path d="M85.7696 203.69L109.904 217.799V217.334L85.7696 203.223V203.69Z" fill="#6C3B1F"/>
<path d="M85.7696 206.476L109.904 220.585V220.12L85.7696 206.012V206.476Z" fill="#6C3B1F"/>
<g style="mix-blend-mode:multiply">
<path d="M85.7696 210.375L109.904 224.483L109.901 180.14L85.7696 166.031V210.375Z" fill="#BCBEC0"/>
</g>
<g style="mix-blend-mode:multiply">
<path d="M202.992 284.517L89.2149 220.458V216.426L202.992 282.941V284.517Z" fill="#BCBEC0"/>
</g>
<path d="M202.992 282.938L85.7697 214.404V210.375L202.98 278.912L202.992 282.938Z" fill="#C1BBB3"/>
<path d="M154.724 242.629L189.203 262.785V238.597L154.724 218.441V242.629Z" fill="#DED9D5"/>
<path d="M155.657 242.516L188.273 261.585V238.71L155.657 219.641V242.516Z" fill="#482815"/>
<path d="M177.898 255.175L187.742 260.93V238.743L177.898 232.988V255.175Z" fill="#904F29"/>
<path d="M183.051 241.057L187.227 243.498V239.406L183.051 236.965V241.057Z" fill="#9DC4D4"/>
<path d="M178.41 238.342L182.586 240.784V236.691L178.41 234.25V238.342Z" fill="#9DC4D4"/>
<path d="M183.051 252.668L187.227 255.11V243.965L183.051 241.523V252.668Z" fill="#9DC4D4"/>
<path d="M178.41 249.953L182.586 252.395V241.253L178.41 238.809V249.953Z" fill="#9DC4D4"/>
<path d="M183.051 257.229L187.227 259.67V255.578L183.051 253.137V257.229Z" fill="#9DC4D4"/>
<path d="M178.41 254.514L182.586 256.955V252.863L178.41 250.422V254.514Z" fill="#9DC4D4"/>
<path d="M182.586 236.692V238.814L178.411 235.914V234.254L182.586 236.695V236.692ZM187.227 243.497L184.944 242.164L184.81 240.356L183.051 239.134V236.964L187.227 239.405V243.497ZM187.227 259.67L186.201 259.069L185.882 254.79L187.227 255.575V259.667V259.67ZM187.227 255.11L185.847 254.301L184.979 242.652L187.227 243.965V255.107V255.11Z" fill="#6DA7BF"/>
<path d="M167.043 248.828L176.887 254.583V232.396L167.043 226.641V248.828Z" fill="#904F29"/>
<path d="M172.197 234.709L176.375 237.151V233.059L172.197 230.617V234.709Z" fill="#9DC4D4"/>
<path d="M167.556 231.994L171.734 234.436V230.344L167.556 227.902V231.994Z" fill="#9DC4D4"/>
<path d="M172.197 246.321L176.375 248.762V237.62L172.197 235.176V246.321Z" fill="#9DC4D4"/>
<path d="M167.556 243.606L171.734 246.047V234.905L167.556 232.461V243.606Z" fill="#9DC4D4"/>
<path d="M172.197 250.881L176.375 253.323V249.23L172.197 246.789V250.881Z" fill="#9DC4D4"/>
<path d="M167.556 248.166L171.734 250.608V246.516L167.556 244.074V248.166Z" fill="#9DC4D4"/>
<path d="M171.735 230.345V232.466L167.559 229.566V227.906L171.735 230.348V230.345ZM176.375 237.15L174.092 235.816L173.958 234.008L172.2 232.786V230.616L176.375 233.058V237.15ZM176.375 253.322L175.35 252.722L175.031 248.442L176.375 249.227V253.319V253.322ZM176.375 248.762L174.995 247.954L174.128 236.305L176.375 237.618V248.759V248.762Z" fill="#6DA7BF"/>
<path d="M156.187 242.48L166.031 248.235V226.048L156.187 220.293V242.48Z" fill="#904F29"/>
<path d="M161.34 228.362L165.516 230.803V226.711L161.34 224.27V228.362Z" fill="#9DC4D4"/>
<path d="M156.7 225.647L160.875 228.088V223.996L156.7 221.555V225.647Z" fill="#9DC4D4"/>
<path d="M161.34 239.973L165.516 242.414V231.273L161.34 228.828V239.973Z" fill="#9DC4D4"/>
<path d="M156.7 237.258L160.875 239.699V228.558L156.7 226.113V237.258Z" fill="#9DC4D4"/>
<path d="M161.34 244.534L165.516 246.975V242.883L161.34 240.441V244.534Z" fill="#9DC4D4"/>
<path d="M156.7 241.819L160.875 244.26V240.168L156.7 237.727V241.819Z" fill="#9DC4D4"/>
<path d="M160.875 223.997V226.118L156.7 223.218V221.559L160.875 224V223.997ZM165.516 230.802L163.233 229.468L163.099 227.661L161.34 226.438V224.269L165.516 226.71V230.802ZM165.516 246.975L164.49 246.374L164.172 242.095L165.516 242.879V246.972V246.975ZM165.516 242.415L164.136 241.606L163.268 229.957L165.516 231.27V242.412V242.415Z" fill="#6DA7BF"/>
<path d="M99.5606 210.376L134.037 230.532V206.344L99.5606 186.191V210.376Z" fill="#DED9D5"/>
<path d="M100.491 210.263L133.107 229.332V206.454L100.491 187.391V210.263Z" fill="#482815"/>
<path d="M122.734 222.925L132.578 228.68V206.49L122.734 200.738V222.925Z" fill="#904F29"/>
<path d="M127.888 208.807L132.066 211.248V207.156L127.888 204.715V208.807Z" fill="#9DC4D4"/>
<path d="M123.247 206.092L127.426 208.534V204.441L123.247 202V206.092Z" fill="#9DC4D4"/>
<path d="M127.888 220.415L132.066 222.857V211.715L127.888 209.273V220.415Z" fill="#9DC4D4"/>
<path d="M123.247 217.7L127.426 220.142V209L123.247 206.559V217.7Z" fill="#9DC4D4"/>
<path d="M127.888 224.978L132.066 227.419V223.327L127.888 220.883V224.978Z" fill="#9DC4D4"/>
<path d="M123.247 222.263L127.426 224.705V220.612L123.247 218.168V222.263Z" fill="#9DC4D4"/>
<path d="M127.426 204.442V206.564L123.251 203.664V202.004L127.426 204.445V204.442ZM132.066 211.247L129.783 209.914L129.649 208.106L127.891 206.884V204.714L132.066 207.155V211.247ZM132.066 227.42L131.041 226.819L130.722 222.54L132.066 223.328V227.42ZM132.066 222.857L130.687 222.048L129.819 210.399L132.066 211.712V222.854V222.857Z" fill="#6DA7BF"/>
<path d="M111.875 216.578L121.719 222.333V200.146L111.875 194.391V216.578Z" fill="#904F29"/>
<path d="M117.032 202.459L121.207 204.901V200.809L117.032 198.367V202.459Z" fill="#9DC4D4"/>
<path d="M112.391 199.744L116.566 202.186V198.094L112.391 195.652V199.744Z" fill="#9DC4D4"/>
<path d="M117.032 214.068L121.207 216.509V205.367L117.032 202.926V214.068Z" fill="#9DC4D4"/>
<path d="M112.391 211.353L116.566 213.794V202.652L112.391 200.211V211.353Z" fill="#9DC4D4"/>
<path d="M117.032 218.63L121.207 221.072V216.98L117.032 214.535V218.63Z" fill="#9DC4D4"/>
<path d="M112.391 215.916L116.566 218.358V214.266L112.391 211.824V215.916Z" fill="#9DC4D4"/>
<path d="M116.567 198.095V200.216L112.391 197.316V195.656L116.567 198.098V198.095ZM121.207 204.9L118.924 203.566L118.79 201.758L117.032 200.536V198.366L121.207 200.808V204.9ZM121.207 221.072L120.182 220.472L119.863 216.192L121.207 216.977V221.069V221.072ZM121.207 216.509L119.827 215.701L118.96 204.052L121.207 205.365V216.506V216.509Z" fill="#6DA7BF"/>
<path d="M101.021 210.23L110.865 215.985V193.798L101.021 188.043V210.23Z" fill="#904F29"/>
<path d="M106.175 196.112L110.354 198.553V194.461L106.175 192.02V196.112Z" fill="#9DC4D4"/>
<path d="M101.534 193.397L105.713 195.838V191.746L101.534 189.305V193.397Z" fill="#9DC4D4"/>
<path d="M106.175 207.723L110.354 210.164V199.02L106.175 196.578V207.723Z" fill="#9DC4D4"/>
<path d="M101.534 205.009L105.713 207.45V196.306L101.534 193.867V205.009Z" fill="#9DC4D4"/>
<path d="M106.175 212.284L110.354 214.725V210.633L106.175 208.191V212.284Z" fill="#9DC4D4"/>
<path d="M101.534 209.569L105.713 212.01V207.918L101.534 205.477V209.569Z" fill="#9DC4D4"/>
<path d="M105.713 191.746V193.865L101.538 190.964V189.305L105.713 191.746ZM110.354 198.551L108.071 197.217L107.936 195.41L106.178 194.187V192.018L110.354 194.459V198.551ZM110.354 214.724L109.328 214.123L109.009 209.844L110.354 210.629V214.721V214.724ZM110.354 210.164L108.974 209.355L108.106 197.706L110.354 199.019V210.161V210.164Z" fill="#6DA7BF"/>
<g style="mix-blend-mode:multiply">
<path d="M202.992 241.239L85.7697 190.977V162L202.992 230.531V241.239Z" fill="#939598"/>
</g>
<g style="mix-blend-mode:multiply">
<path d="M299.532 178.128L320.219 166.035V173.408L299.532 180.925V178.128Z" fill="#939598"/>
</g>
<path d="M216.785 262.766L251.262 242.61V218.422L216.785 238.578V262.766Z" fill="white"/>
<path d="M217.715 261.566L250.332 242.496V219.621L217.715 238.688V261.566Z" fill="#482815"/>
<path d="M239.957 248.219L249.801 242.464V220.277L239.957 226.032V248.219Z" fill="#904F29"/>
<path d="M245.11 228.073L249.285 225.631V221.539L245.11 223.98V228.073Z" fill="#9DC4D4"/>
<path d="M240.469 230.787L244.645 228.346V224.254L240.469 226.695V230.787Z" fill="#9DC4D4"/>
<path d="M245.11 239.684L249.285 237.239V226.098L245.11 228.539V239.684Z" fill="#9DC4D4"/>
<path d="M240.469 242.399L244.645 239.954V228.812L240.469 231.254V242.399Z" fill="#9DC4D4"/>
<path d="M245.11 244.244L249.285 241.803V237.711L245.11 240.152V244.244Z" fill="#9DC4D4"/>
<path d="M240.469 246.959L244.645 244.518V240.426L240.469 242.867V246.959Z" fill="#9DC4D4"/>
<path d="M244.645 224.252V226.374L240.469 228.356V226.697L244.645 224.255V224.252ZM249.285 225.631L247.002 226.965L246.868 225.314L245.11 226.15V223.98L249.285 221.539V225.631ZM249.285 241.804L248.26 242.404L247.941 238.496L249.285 237.712V241.804ZM249.285 237.241L247.905 238.049L247.038 227.412L249.285 226.099V237.241Z" fill="#6DA7BF"/>
<path d="M229.101 254.566L238.945 248.811V226.621L229.101 232.379V254.566Z" fill="#904F29"/>
<path d="M234.258 234.42L238.434 231.979V227.887L234.258 230.328V234.42Z" fill="#9DC4D4"/>
<path d="M229.618 237.135L233.793 234.694V230.602L229.618 233.043V237.135Z" fill="#9DC4D4"/>
<path d="M234.258 246.031L238.434 243.587V232.445L234.258 234.887V246.031Z" fill="#9DC4D4"/>
<path d="M229.618 248.743L233.793 246.302V235.16L229.618 237.602V248.743Z" fill="#9DC4D4"/>
<path d="M234.258 250.592L238.434 248.151V244.059L234.258 246.5V250.592Z" fill="#9DC4D4"/>
<path d="M229.618 253.307L233.793 250.866V246.773L229.618 249.215V253.307Z" fill="#9DC4D4"/>
<path d="M233.793 230.6V232.721L229.618 234.704V233.044L233.793 230.603V230.6ZM238.434 231.979L236.151 233.313L236.017 231.662L234.258 232.498V230.328L238.434 227.887V231.979ZM238.434 248.151L237.408 248.752L237.089 244.844L238.434 244.059V248.151ZM238.434 243.588L237.054 244.397L236.186 233.759L238.434 232.447V243.588Z" fill="#6DA7BF"/>
<path d="M218.246 260.914L228.09 255.159V232.969L218.246 238.724V260.914Z" fill="#904F29"/>
<path d="M223.4 240.768L227.578 238.327V234.234L223.4 236.676V240.768Z" fill="#9DC4D4"/>
<path d="M218.76 243.483L222.936 241.041V236.949L218.76 239.391V243.483Z" fill="#9DC4D4"/>
<path d="M223.4 252.376L227.578 249.935V238.793L223.4 241.234V252.376Z" fill="#9DC4D4"/>
<path d="M218.76 255.091L222.936 252.65V241.508L218.76 243.949V255.091Z" fill="#9DC4D4"/>
<path d="M223.4 256.94L227.578 254.498V250.406L223.4 252.848V256.94Z" fill="#9DC4D4"/>
<path d="M218.76 259.655L222.936 257.213V253.121L218.76 255.562V259.655Z" fill="#9DC4D4"/>
<path d="M222.935 236.947V239.069L218.759 241.052V239.392L222.935 236.95V236.947ZM227.578 238.327L225.295 239.66L225.161 238.01L223.403 238.846V236.676L227.578 234.234V238.327ZM227.578 254.499L226.553 255.1L226.234 251.191L227.578 250.407V254.499ZM227.578 249.936L226.198 250.745L225.331 240.107L227.578 238.794V249.936Z" fill="#6DA7BF"/>
<path d="M199.545 240.611L71.9776 166.032L71.9836 162L199.539 236.582L199.545 240.611Z" fill="#C1BBB3"/>
<path d="M327.111 162.006V157.974L306.425 145.879L247.814 180.146L268.503 196.27L327.111 162.006Z" fill="white"/>
<path d="M327.111 162.004V157.973L268.5 192.237L268.503 196.269L327.111 162.004Z" fill="#EBE8E6"/>
<path d="M237.474 198.286L199.546 240.614L199.54 236.585L237.474 194.254L268.502 192.238V196.27L237.474 198.286Z" fill="#EBE8E6"/>
<path d="M175.401 222.469L71.9837 162.001L202.999 85.4062L306.426 145.877L175.401 222.469Z" fill="#382223"/>
<path d="M175.401 222.467L189.206 121.688L306.426 145.875L175.401 222.467Z" fill="#704445"/>
<path d="M175.402 222.467L71.9845 161.999L189.207 121.688L175.402 222.467Z" fill="#543334"/>
<path d="M189.206 121.689L202.999 85.4062L306.426 145.877L189.206 121.689Z" fill="#8D696A"/>
<path d="M237.473 194.253L196.097 170.062L175.401 222.47L199.539 236.584L237.473 194.253Z" fill="#543334"/>
<path d="M268.502 192.237L247.815 180.145L196.098 170.062L237.474 194.253L268.502 192.237Z" fill="#8D696A"/>
<path d="M306.426 149.91L320.219 157.974L268.501 188.206L254.711 180.146L306.426 149.91Z" fill="#EBE8E6"/>
<path d="M306.426 149.91L320.219 157.974L268.501 188.206L254.711 180.146L306.426 149.91Z" fill="#B1AAA0"/>
<path d="M318.496 158.981L268.501 188.206L256.434 181.153L306.426 151.926L318.496 158.981Z" fill="#704445"/>
<path d="M314.674 275.436V275.086L303.697 278.294V278.644L306.442 280.249L314.674 275.436Z" fill="#858070"/>
<g style="mix-blend-mode:multiply">
<path d="M306.441 279.898L303.697 278.293V278.643L306.441 280.249V279.898Z" fill="#858070"/>
</g>
<path d="M314.674 275.087L311.932 273.484L303.697 278.295L306.442 279.9L314.674 275.087Z" fill="#B2AA95"/>
<path d="M319.451 276.674V276.324L308.475 279.532V279.882L311.219 281.488L319.451 276.674Z" fill="#858070"/>
<g style="mix-blend-mode:multiply">
<path d="M311.219 281.134L308.474 279.531V279.881L311.219 281.487V281.134Z" fill="#858070"/>
</g>
<path d="M319.451 276.324L316.709 274.719L308.475 279.532L311.219 281.135L319.451 276.324Z" fill="#B2AA95"/>
<path d="M319.457 280.706V280.355L308.48 283.563V283.913L311.225 285.519L319.457 280.706Z" fill="#858070"/>
<g style="mix-blend-mode:multiply">
<path d="M311.225 285.165L308.48 283.562V283.913L311.225 285.518V285.165Z" fill="#858070"/>
</g>
<path d="M319.457 280.355L316.715 278.75L308.48 283.563L311.225 285.166L319.457 280.355Z" fill="#B2AA95"/>
<path d="M323.471 282.381V282.031L312.494 285.242V285.592L315.239 287.195L323.471 282.381Z" fill="#858070"/>
<g style="mix-blend-mode:multiply">
<path d="M315.238 286.845L312.493 285.242V285.592L315.238 287.195V286.845Z" fill="#858070"/>
</g>
<path d="M323.471 282.032L320.729 280.43L312.494 285.243L315.239 286.846L323.471 282.032Z" fill="#B2AA95"/>
<path d="M328.359 283.557V283.207L317.383 286.415V286.765L320.128 288.37L328.359 283.557Z" fill="#858070"/>
<g style="mix-blend-mode:multiply">
<path d="M320.129 288.02L317.384 286.414V286.764L320.129 288.37V288.02Z" fill="#858070"/>
</g>
<path d="M328.359 283.208L325.617 281.605L317.383 286.416L320.128 288.021L328.359 283.208Z" fill="#B2AA95"/>
<path d="M97.5293 276.057V275.707L108.506 278.915V279.265L105.761 280.87L97.5293 276.057Z" fill="#434038"/>
<path d="M105.761 280.52L108.506 278.914V279.264L105.761 280.87V280.52Z" fill="#858070"/>
<path d="M97.5293 275.708L100.271 274.105L108.506 278.916L105.761 280.521L97.5293 275.708Z" fill="#B2AA95"/>
<path d="M92.7539 277.295V276.945L103.73 280.153V280.503L100.986 282.109L92.7539 277.295Z" fill="#434038"/>
<path d="M100.986 281.755L103.73 280.152V280.502L100.986 282.108V281.755Z" fill="#858070"/>
<path d="M92.7539 276.945L95.4958 275.34L103.73 280.153L100.986 281.756L92.7539 276.945Z" fill="#B2AA95"/>
<path d="M92.7461 281.327V280.977L103.723 284.184V284.535L100.978 286.14L92.7461 281.327Z" fill="#434038"/>
<path d="M100.978 285.786L103.723 284.184V284.534L100.978 286.139V285.786Z" fill="#858070"/>
<path d="M92.7461 280.977L95.488 279.371L103.723 284.185L100.978 285.787L92.7461 280.977Z" fill="#B2AA95"/>
<path d="M88.7305 283.002V282.652L99.707 285.86V286.213L96.9651 287.816L88.7305 283.002Z" fill="#434038"/>
<path d="M96.9651 287.465L99.707 285.859V286.212L96.9651 287.815V287.465Z" fill="#858070"/>
<path d="M88.7305 282.653L91.4724 281.051L99.707 285.861L96.9651 287.467L88.7305 282.653Z" fill="#B2AA95"/>
<path d="M83.8437 284.178V283.828L94.8203 287.036V287.386L92.0754 288.992L83.8437 284.178Z" fill="#434038"/>
<path d="M92.0754 288.641L94.8203 287.035V287.385L92.0754 288.991V288.641Z" fill="#858070"/>
<path d="M83.8437 283.829L86.5856 282.227L94.8203 287.037L92.0754 288.642L83.8437 283.829Z" fill="#B2AA95"/>
<path style="mix-blend-mode:screen" opacity="0.7" d="M218.758 259.653L249.285 241.876V-1.67969H218.758V259.653Z" fill="url(#paint6_linear_7230_9751)"/>
<path style="mix-blend-mode:screen" opacity="0.7" d="M156.699 241.821L187.227 259.669V-1.67969H156.699V241.821Z" fill="url(#paint7_linear_7230_9751)"/>
<path style="mix-blend-mode:screen" opacity="0.7" d="M89.2148 268.83L96.1113 272.862V-5.90234H89.2148V268.83Z" fill="url(#paint8_linear_7230_9751)"/>
<path style="mix-blend-mode:screen" opacity="0.7" d="M309.873 272.862L316.77 268.83V-5.90234H309.873V272.862Z" fill="url(#paint9_linear_7230_9751)"/>
</g>
</g>
<defs>
<linearGradient id="paint0_linear_7230_9751" x1="363.501" y1="426.079" x2="363.501" y2="120.512" gradientUnits="userSpaceOnUse">
<stop stop-color="#6D6E71"/>
<stop offset="0.28" stop-color="#787A7D"/>
<stop offset="0.8" stop-color="#989A9D"/>
<stop offset="1" stop-color="#A7A9AC"/>
</linearGradient>
<linearGradient id="paint1_linear_7230_9751" x1="701.376" y1="329.37" x2="24.8899" y2="329.37" gradientUnits="userSpaceOnUse">
<stop stop-color="#CE8D00"/>
<stop offset="0.33" stop-color="#DF9A15"/>
<stop offset="0.73" stop-color="#EFA72A"/>
<stop offset="1" stop-color="#F6AC32"/>
</linearGradient>
<radialGradient id="paint2_radial_7230_9751" cx="0" cy="0" r="1" gradientUnits="userSpaceOnUse" gradientTransform="translate(464.981 409.533) rotate(180) scale(123.248 72.2635)">
<stop stop-color="#F9ED32"/>
<stop offset="0.1" stop-color="#F3E830"/>
<stop offset="0.23" stop-color="#E4D92D"/>
<stop offset="0.36" stop-color="#CCC229"/>
<stop offset="0.51" stop-color="#A9A122"/>
<stop offset="0.66" stop-color="#7D7719"/>
<stop offset="0.82" stop-color="#47430E"/>
<stop offset="0.97" stop-color="#080701"/>
<stop offset="0.99"/>
</radialGradient>
<linearGradient id="paint3_linear_7230_9751" x1="464.981" y1="461.491" x2="464.981" y2="-79.4755" gradientUnits="userSpaceOnUse">
<stop stop-color="#5246ED"/>
<stop offset="0.79" stop-color="#5246ED"/>
</linearGradient>
<linearGradient id="paint4_linear_7230_9751" x1="464.982" y1="438.013" x2="464.982" y2="313.008" gradientUnits="userSpaceOnUse">
<stop stop-color="#00A79D"/>
<stop offset="0.34" stop-color="#44C1AE"/>
<stop offset="0.79" stop-color="#9CE4C5"/>
<stop offset="1" stop-color="#BFF2CF"/>
</linearGradient>
<linearGradient id="paint5_linear_7230_9751" x1="230.929" y1="380.214" x2="230.929" y2="-408.196" gradientUnits="userSpaceOnUse">
<stop stop-color="#5246ED"/>
<stop offset="0.82" stop-color="#5246ED"/>
</linearGradient>
<linearGradient id="paint6_linear_7230_9751" x1="234.023" y1="271.224" x2="234.023" y2="-48.676" gradientUnits="userSpaceOnUse">
<stop stop-color="#5246ED"/>
<stop offset="0.82" stop-color="#BBD1EA"/>
</linearGradient>
<linearGradient id="paint7_linear_7230_9751" x1="171.964" y1="271.239" x2="171.964" y2="-48.679" gradientUnits="userSpaceOnUse">
<stop stop-color="#5246ED"/>
<stop offset="0.61" stop-color="#BBD1EA"/>
</linearGradient>
<linearGradient id="paint8_linear_7230_9751" x1="92.6631" y1="285.205" x2="92.6631" y2="-56.0342" gradientUnits="userSpaceOnUse">
<stop stop-color="#5246ED"/>
<stop offset="0.895" stop-color="#BBD1EA"/>
</linearGradient>
<linearGradient id="paint9_linear_7230_9751" x1="313.321" y1="285.205" x2="313.321" y2="-56.0342" gradientUnits="userSpaceOnUse">
<stop stop-color="#5246ED"/>
<stop offset="0.82" stop-color="#BBD1EA"/>
</linearGradient>
<clipPath id="clip0_7230_9751">
<rect width="727" height="561" fill="white" transform="matrix(-1 0 0 1 727 0)"/>
</clipPath>
<clipPath id="clip1_7230_9751">
<rect width="337.881" height="379.257" fill="white" transform="matrix(-1 0 0 1 399.516 -27.7891)"/>
</clipPath>
</defs>
</svg>
