<svg width="19" height="20" viewBox="0 0 19 20" fill="none" xmlns="http://www.w3.org/2000/svg">
<g id="shield-keyhole">
<path id="Path" d="M10.3125 10.0938V12.8125C10.3125 13.3301 9.89258 13.75 9.375 13.75C8.85742 13.75 8.4375 13.3301 8.4375 12.8125V10.0938C7.69922 9.74219 7.1875 8.99609 7.1875 8.125C7.1875 6.9168 8.1668 5.9375 9.375 5.9375C10.5832 5.9375 11.5625 6.9168 11.5625 8.125C11.5625 8.99609 11.0508 9.74219 10.3125 10.0938Z" fill="#5246ED"/>
<path id="Shape" opacity="0.4" fill-rule="evenodd" clip-rule="evenodd" d="M10.0977 0.14375L17.5977 3.26914C18.293 3.55781 18.75 4.24219 18.75 4.96484C18.75 14.9922 11.3711 20 9.33984 20C7.39062 20 0 15.0469 0 4.96484C0 4.24219 0.456641 3.55781 1.15625 3.26945L8.65625 0.144063C8.84766 0.0646875 9.17188 0 9.37891 0C9.58203 0 9.90625 0.0646875 10.0977 0.14375ZM10.3125 12.8125V10.0938C11.0508 9.74219 11.5625 8.99609 11.5625 8.125C11.5625 6.9168 10.5832 5.9375 9.375 5.9375C8.1668 5.9375 7.1875 6.9168 7.1875 8.125C7.1875 8.99609 7.69922 9.74219 8.4375 10.0938V12.8125C8.4375 13.3301 8.85742 13.75 9.375 13.75C9.89258 13.75 10.3125 13.3301 10.3125 12.8125Z" fill="#5246ED"/>
</g>
</svg>
