<svg width="35" height="36" viewBox="0 0 35 36" fill="none" xmlns="http://www.w3.org/2000/svg">
<g id="Group-51">
<path id="SID" d="M11.3275 24.8824C12.4414 24.8824 13.2907 24.5709 13.8755 23.9481C14.4603 23.3252 14.7527 22.4319 14.7527 21.2683C14.7527 20.707 14.6692 20.1868 14.5021 19.7077C14.335 19.2286 14.1192 18.8144 13.8546 18.4654C13.5901 18.1163 13.3012 17.7877 12.9879 17.4797C12.6746 17.1717 12.3579 16.8774 12.0376 16.5967C11.7174 16.3161 11.425 16.032 11.1604 15.7445C10.8959 15.4571 10.6801 15.1353 10.513 14.7794C10.3459 14.4235 10.2624 14.047 10.2624 13.65C10.2624 12.7054 10.6453 12.2331 11.4111 12.2331C12.1769 12.2331 12.5598 12.7054 12.5598 13.65V14.2455H14.7318V13.7938C14.7318 12.6301 14.4464 11.7369 13.8755 11.114C13.3047 10.4911 12.4623 10.1797 11.3484 10.1797C10.2345 10.1797 9.39216 10.4911 8.8213 11.114C8.25043 11.7369 7.965 12.6301 7.965 13.7938C7.965 14.5467 8.11816 15.2346 8.42448 15.8575C8.73079 16.4804 9.10673 17.0006 9.55228 17.4181C9.99783 17.8356 10.4399 18.2361 10.8785 18.6194C11.3171 19.0027 11.6895 19.4305 11.9959 19.9028C12.3022 20.3751 12.4553 20.8782 12.4553 21.4121C12.4553 22.3429 12.0585 22.8084 11.2649 22.8084C10.4712 22.8084 10.0744 22.3429 10.0744 21.4121V20.3853H7.90234V21.2683C7.90234 22.4319 8.19474 23.3252 8.77952 23.9481C9.36431 24.5709 10.2136 24.8824 11.3275 24.8824ZM18.3659 24.7181V10.344H16.0685V24.7181H18.3659ZM23.6707 24.7181C25.9542 24.7181 27.0959 23.534 27.0959 21.1656V13.8964C27.0959 11.5281 25.9542 10.344 23.6707 10.344H20.0367V24.7181H23.6707ZM23.6289 22.6647H22.3341V12.3974H23.6289C24.4087 12.3974 24.7985 12.8629 24.7985 13.7938V21.2683C24.7985 22.1992 24.4087 22.6647 23.6289 22.6647Z" fill="#E37552"/>
<g id="Group">
<g id="Group-50">
<path id="Combined-Shape" d="M14.6774 0V1.69646H1.69355V14.7027H0V0L14.6774 0Z" fill="#E37552"/>
<path id="Combined-Shape_2" d="M20.3226 0V1.69646H33.3065V14.7027H35V0L20.3226 0Z" fill="#95CA73"/>
</g>
<g id="Group-50_2">
<path id="Combined-Shape_3" d="M14.6774 35.0605V33.3641H1.69355L1.69355 20.3579H0L0 35.0605H14.6774Z" fill="#F3BD64"/>
<path id="Combined-Shape_4" d="M20.3226 35.0605V33.3641H33.3065V20.3579H35V35.0605H20.3226Z" fill="#5791E6"/>
</g>
</g>
</g>
</svg>
