<svg width="24" height="24" viewBox="0 0 24 24" fill="none" xmlns="http://www.w3.org/2000/svg">
<g id="swap-vert 1" clip-path="url(#clip0_9718_14235)">
<path id="Vector" d="M15.9995 17.0134V11.0034C15.9995 10.4534 15.5495 10.0034 14.9995 10.0034C14.4495 10.0034 13.9995 10.4534 13.9995 11.0034V17.0134H12.2095C11.7595 17.0134 11.5395 17.5534 11.8595 17.8634L14.6495 20.6434C14.8495 20.8334 15.1595 20.8334 15.3595 20.6434L18.1495 17.8634C18.4695 17.5534 18.2395 17.0134 17.7995 17.0134H15.9995ZM8.64954 3.35344L5.85954 6.14344C5.53954 6.45344 5.75954 6.99344 6.20954 6.99344H7.99954V13.0034C7.99954 13.5534 8.44954 14.0034 8.99954 14.0034C9.54954 14.0034 9.99954 13.5534 9.99954 13.0034V6.99344H11.7895C12.2395 6.99344 12.4595 6.45344 12.1395 6.14344L9.34954 3.35344C9.15954 3.16344 8.83954 3.16344 8.64954 3.35344Z" fill="black"/>
</g>
<defs>
<clipPath id="clip0_9718_14235">
<rect width="24" height="24" fill="white"/>
</clipPath>
</defs>
</svg>
