<svg width="24" height="24" viewBox="0 0 24 24" fill="none" xmlns="http://www.w3.org/2000/svg">
<g id="thumbs-up 1">
<path id="Vector" d="M16.4724 19.9991H4.1C3.76863 19.9991 3.5 19.7305 3.5 19.3991V9.59913C3.5 9.26776 3.76863 8.99913 4.1 8.99913H6.86762C7.57015 8.99913 8.22116 8.63053 8.5826 8.02812L11.293 3.51074C11.8779 2.53601 13.2554 2.44335 13.9655 3.33099C14.3002 3.74938 14.4081 4.30548 14.2541 4.81869L13.2317 8.22672C13.1162 8.61169 13.4045 8.99913 13.8064 8.99913H18.3815C19.7002 8.99913 20.658 10.2531 20.311 11.5253L18.4019 18.5253C18.1646 19.3955 17.3743 19.9991 16.4724 19.9991Z" stroke="#5246ED" stroke-width="1.5" stroke-linecap="round"/>
<path id="Vector_2" d="M7 20V9" stroke="#5246ED" stroke-width="1.5" stroke-linecap="round" stroke-linejoin="round"/>
</g>
</svg>
