<svg width="19" height="19" viewBox="0 0 19 19" fill="none" xmlns="http://www.w3.org/2000/svg">
<g id="time" clip-path="url(#clip0_12073_21626)">
<path id="Vector" opacity="0.3" d="M3.61992 9.40234C3.61992 13.0129 5.96484 16.0785 9.21328 17.1578V17.5094C4.94531 17.3652 1.50352 13.9129 1.37695 9.64141H3.0082C3.15234 9.64141 3.27188 9.52187 3.27188 9.37773C3.27188 9.23359 3.15234 9.11406 3.0082 9.11406H1.38047C1.52461 4.86016 4.95937 1.42539 9.21328 1.28125V1.65039C5.96484 2.72617 3.61992 5.7918 3.61992 9.40234Z" fill="#485EFF"/>
<g id="Group 1707478182">
<g id="Group 1707478181">
<path id="Vector_2" d="M18.1426 9.37305V9.39062C18.1426 9.88281 18.1004 10.3785 18.0195 10.8602C17.9949 11.0043 17.8578 11.0992 17.7137 11.0746C17.5695 11.05 17.4746 10.9129 17.4992 10.7688C17.5625 10.3961 17.6012 10.0164 17.6117 9.63672H15.6641C15.5199 9.63672 15.4004 9.51719 15.4004 9.37305C15.4004 9.22891 15.5199 9.10938 15.6641 9.10938H17.6082C17.4711 5.09805 14.409 1.81445 10.4926 1.33281C10.2465 1.30117 9.99336 1.28359 9.74023 1.27656V2.9043C9.74023 3.04844 9.6207 3.16797 9.47656 3.16797C9.33242 3.16797 9.21289 3.04844 9.21289 2.9043V1.27656C4.95898 1.4207 1.52422 4.85547 1.38008 9.10938H3.00781C3.15195 9.10938 3.27148 9.22891 3.27148 9.37305C3.27148 9.51719 3.15195 9.63672 3.00781 9.63672H1.37656C1.50313 13.9082 4.94492 17.3605 9.21289 17.5047V15.5605C9.21289 15.4164 9.33242 15.2969 9.47656 15.2969C9.6207 15.2969 9.74023 15.4164 9.74023 15.5605V17.5082C9.97578 17.5012 10.2113 17.4836 10.4434 17.4555C10.4855 17.452 10.5277 17.4449 10.5699 17.4414C10.6473 17.4309 10.7246 17.4555 10.7773 17.5047C10.823 17.5469 10.8547 17.6031 10.8652 17.6699C10.8828 17.8141 10.7844 17.9477 10.6367 17.9652C10.2605 18.0145 9.87734 18.0391 9.49414 18.0391H9.46953C7.1668 18.032 5.00469 17.1355 3.37695 15.5078C1.74219 13.873 0.845703 11.7039 0.845703 9.39062V9.36602C0.852734 7.06328 1.74922 4.90117 3.37695 3.27344C5.00469 1.6457 7.1668 0.745703 9.46953 0.742188H9.49414C10.5137 0.742188 11.5086 0.917969 12.4402 1.25547C13.618 1.68086 14.6973 2.36289 15.6078 3.27695C17.2355 4.90469 18.1355 7.0668 18.1391 9.36953C18.1426 9.36953 18.1426 9.37305 18.1426 9.37305Z" fill="#284172"/>
</g>
</g>
<path id="Vector_3" d="M14.1524 4.3291L9.71924 8.7623C9.61729 8.86426 9.61729 9.03301 9.71924 9.13496C9.77197 9.1877 9.83877 9.2123 9.90557 9.2123C9.97236 9.2123 10.0392 9.1877 10.0919 9.13496L14.5251 4.70176C14.6271 4.5998 14.6271 4.43105 14.5251 4.3291C14.4231 4.22363 14.2579 4.22363 14.1524 4.3291ZM6.49893 6.02715C6.39697 5.92519 6.22822 5.92519 6.12627 6.02715C6.02432 6.1291 6.02432 6.29785 6.12627 6.3998L8.84385 9.11738C8.89658 9.17012 8.96338 9.19473 9.03018 9.19473C9.09697 9.19473 9.16377 9.17012 9.2165 9.11738C9.31846 9.01543 9.31846 8.84668 9.2165 8.74473L6.49893 6.02715Z" fill="#284172"/>
<path id="Vector_4" d="M12.8165 18.0302C12.7603 18.0302 12.7075 18.0126 12.6583 17.9774C12.5423 17.8895 12.5177 17.7243 12.6056 17.6083L16.9368 11.8321C17.0247 11.7161 17.1899 11.6915 17.306 11.7794C17.422 11.8673 17.4466 12.0325 17.3587 12.1485L13.0274 17.9247C12.9747 17.995 12.8974 18.0302 12.8165 18.0302Z" fill="#5C77FF"/>
<path id="Vector_5" d="M13.5371 13.4336C13.9351 13.4336 14.2578 13.1109 14.2578 12.7129C14.2578 12.3149 13.9351 11.9922 13.5371 11.9922C13.1391 11.9922 12.8164 12.3149 12.8164 12.7129C12.8164 13.1109 13.1391 13.4336 13.5371 13.4336Z" fill="#5C77FF"/>
<path id="Vector_6" d="M16.4268 17.7695C16.8248 17.7695 17.1475 17.4469 17.1475 17.0488C17.1475 16.6508 16.8248 16.3281 16.4268 16.3281C16.0287 16.3281 15.7061 16.6508 15.7061 17.0488C15.7061 17.4469 16.0287 17.7695 16.4268 17.7695Z" fill="#5C77FF"/>
<path id="Vector_7" d="M10.1094 9.375C10.1094 9.72305 9.82461 10.0078 9.47656 10.0078C9.12852 10.0078 8.84375 9.72305 8.84375 9.375C8.84375 9.19922 8.91406 9.04102 9.03008 8.92852C9.14609 8.81602 9.3043 8.74219 9.47656 8.74219C9.64883 8.74219 9.81055 8.8125 9.92305 8.92852C10.0391 9.04102 10.1094 9.19922 10.1094 9.375Z" fill="#5C77FF"/>
</g>
<defs>
<clipPath id="clip0_12073_21626">
<rect width="18" height="18" fill="white" transform="translate(0.476562 0.375)"/>
</clipPath>
</defs>
</svg>
