<svg width="23" height="24" viewBox="0 0 23 24" fill="none" xmlns="http://www.w3.org/2000/svg">
<g id="uil:search">
<path id="Vector" d="M19.9025 19.6536L16.7008 16.4778C17.9436 14.9283 18.5455 12.9614 18.3826 10.9817C18.2198 9.00204 17.3046 7.15998 15.8253 5.83431C14.3461 4.50865 12.4151 3.80014 10.4294 3.85447C8.4438 3.90881 6.55445 4.72185 5.14987 6.12643C3.74529 7.53101 2.93224 9.42037 2.87791 11.406C2.82358 13.3916 3.53208 15.3226 4.85775 16.8019C6.18342 18.2812 8.02548 19.1964 10.0052 19.3592C11.9849 19.522 13.9517 18.9202 15.5013 17.6774L18.6771 20.8532C18.7573 20.9341 18.8527 20.9983 18.9579 21.0421C19.0631 21.0859 19.1759 21.1085 19.2898 21.1085C19.4037 21.1085 19.5165 21.0859 19.6217 21.0421C19.7268 20.9983 19.8223 20.9341 19.9025 20.8532C20.0581 20.6923 20.145 20.4772 20.145 20.2534C20.145 20.0296 20.0581 19.8146 19.9025 19.6536ZM10.6599 17.6774C9.46514 17.6774 8.29719 17.3231 7.30377 16.6593C6.31035 15.9955 5.53607 15.0521 5.07885 13.9482C4.62163 12.8444 4.502 11.6298 4.73509 10.458C4.96818 9.28614 5.54352 8.20975 6.38835 7.36492C7.23319 6.52008 8.30958 5.94474 9.4814 5.71165C10.6532 5.47856 11.8678 5.59819 12.9717 6.05541C14.0755 6.51263 15.019 7.28691 15.6828 8.28033C16.3465 9.27376 16.7008 10.4417 16.7008 11.6365C16.7008 13.2386 16.0644 14.7752 14.9315 15.9081C13.7986 17.0409 12.2621 17.6774 10.6599 17.6774Z" fill="#A0A7AF"/>
</g>
</svg>
