<svg width="22" height="23" viewBox="0 0 22 23" fill="none" xmlns="http://www.w3.org/2000/svg">
<g id="Group">
<path id="Vector" d="M8.42766 9.16691C10.6368 9.16691 12.4276 7.33869 12.4276 5.08345C12.4276 2.82823 10.6368 1 8.42766 1C6.21856 1 4.42773 2.82823 4.42773 5.08345C4.42773 7.33869 6.21856 9.16691 8.42766 9.16691Z" fill="#BBD1EA" stroke="#5246ED" stroke-width="2" stroke-linejoin="round"/>
<path id="Vector_2" d="M18.7139 15V20.8335" stroke="#5246ED" stroke-width="2" stroke-linecap="round" stroke-linejoin="round"/>
<path id="Vector_3" d="M21.0001 17.3334L18.7144 15L16.4287 17.3334" stroke="#5246ED" stroke-width="2" stroke-linecap="round" stroke-linejoin="round"/>
<path id="Vector_4" d="M12.9998 13.8359H8.31414C5.75396 13.8359 4.47388 13.8359 3.49601 14.3446C2.63584 14.792 1.93651 15.506 1.49825 16.3841C1 17.3824 1 18.6892 1 21.3028V22.0028H12.9998" stroke="#5246ED" stroke-width="2" stroke-linecap="round" stroke-linejoin="round"/>
</g>
</svg>
