<svg width="45" height="45" viewBox="0 0 45 45" fill="none" xmlns="http://www.w3.org/2000/svg">
<g id="Group 1000004528">
<path id="Shape" opacity="0.3" fill-rule="evenodd" clip-rule="evenodd" d="M22.5 0C10.0723 0 0 10.0723 0 22.5C0 34.9277 10.0723 45 22.5 45C34.9277 45 45 34.9277 45 22.5C45 10.0723 34.9277 0 22.5 0Z" fill="#BBD1EA"/>
<g id="Group 33658">
<g id="user">
<path id="Path" d="M24.9504 25.4375H19.8009C14.9414 25.4375 11 29.3784 11 34.2384C11 35.2104 11.7882 35.9991 12.7602 35.9991H31.9922C32.9642 36.0006 33.7513 35.2135 33.7513 34.2384C33.7513 29.3784 29.8105 25.4375 24.9504 25.4375Z" fill="#5246ED"/>
<path id="Path_2" opacity="0.4" d="M28.8758 16.5004C28.8758 20.0903 25.9658 23.0008 22.3754 23.0008C18.7849 23.0008 15.875 20.0908 15.875 16.5004C15.875 12.9099 18.7854 10 22.3754 10C25.9658 10 28.8758 12.9104 28.8758 16.5004Z" fill="#5246ED"/>
</g>
</g>
</g>
</svg>
