<svg width="24" height="18" viewBox="0 0 24 18" fill="none" xmlns="http://www.w3.org/2000/svg">
<path id="Vector" d="M17.9305 4.24536C17.9291 3.81451 17.8421 3.38827 17.6745 2.99156C17.507 2.59486 17.2623 2.23566 16.9547 1.93497L15.9789 0.955998C15.3678 0.343835 14.5395 0 13.676 0C12.8124 0 11.9842 0.343835 11.3731 0.955998L0.756331 11.6366C0.5994 11.7982 0.502885 12.0091 0.483105 12.2338L0.00496122 16.9231C-0.00966588 17.0681 0.00814874 17.2145 0.0571055 17.3517C0.106062 17.4889 0.184926 17.6134 0.287945 17.7161C0.379124 17.8068 0.487259 17.8786 0.606148 17.9273C0.725038 17.976 0.852344 18.0007 0.980766 18H1.07835L5.76221 17.5105C5.98273 17.4885 6.18922 17.3918 6.34769 17.2364L16.984 6.55575C17.2863 6.25262 17.5256 5.89233 17.688 5.49573C17.8505 5.09914 17.9329 4.67414 17.9305 4.24536ZM15.5983 5.17539L5.16697 15.6015L2.02488 15.9246L2.34689 12.7722L12.7782 2.34614C13.0249 2.10103 13.3581 1.96353 13.7053 1.96353C14.0524 1.96353 14.3856 2.10103 14.6323 2.34614L15.6081 3.32512C15.8505 3.57223 15.9856 3.90556 15.9837 4.25227C15.9819 4.59899 15.8433 4.93087 15.5983 5.17539ZM24 17.021C24 17.2806 23.8972 17.5297 23.7142 17.7132C23.5312 17.8968 23.283 18 23.0242 18H10.69C10.4312 18 10.183 17.8968 10 17.7132C9.81703 17.5297 9.71422 17.2806 9.71422 17.021C9.71422 16.7614 9.81703 16.5124 10 16.3288C10.183 16.1452 10.4312 16.042 10.69 16.042H23.0242C23.1523 16.042 23.2792 16.0674 23.3976 16.1166C23.516 16.1657 23.6236 16.2379 23.7142 16.3288C23.8048 16.4197 23.8767 16.5276 23.9257 16.6464C23.9748 16.7651 24 16.8924 24 17.021ZM24 11.4898C24 11.7494 23.8972 11.9984 23.7142 12.182C23.5312 12.3656 23.283 12.4688 23.0242 12.4688H16.1936C15.9348 12.4688 15.6866 12.3656 15.5036 12.182C15.3206 11.9984 15.2178 11.7494 15.2178 11.4898C15.2178 11.2301 15.3206 10.9811 15.5036 10.7975C15.6866 10.614 15.9348 10.5108 16.1936 10.5108H23.0242C23.283 10.5108 23.5312 10.614 23.7142 10.7975C23.8972 10.9811 24 11.2301 24 11.4898ZM19.6382 5.95857C19.6382 5.69893 19.741 5.44992 19.924 5.26633C20.107 5.08273 20.3552 4.97959 20.614 4.97959H23.0242C23.283 4.97959 23.5312 5.08273 23.7142 5.26633C23.8972 5.44992 24 5.69893 24 5.95857C24 6.21821 23.8972 6.46722 23.7142 6.65081C23.5312 6.8344 23.283 6.93755 23.0242 6.93755H20.614C20.3552 6.93755 20.107 6.8344 19.924 6.65081C19.741 6.46722 19.6382 6.21821 19.6382 5.95857Z" fill="white"/>
</svg>
