<svg width="27" height="40" viewBox="0 0 27 40" fill="none" xmlns="http://www.w3.org/2000/svg">
<path id="Vector" d="M18.9 36.3636V32.7273H24.3V14.5455H5.4V21.8182H2.7V7.27273C2.7 6.27273 2.96438 5.41667 3.49313 4.70455C4.02188 3.99242 4.6575 3.63636 5.4 3.63636H6.75V0H9.45V3.63636H20.25V0H22.95V3.63636H24.3C25.0425 3.63636 25.6781 3.99242 26.2069 4.70455C26.7356 5.41667 27 6.27273 27 7.27273V32.7273C27 33.7273 26.7356 34.5833 26.2069 35.2955C25.6781 36.0076 25.0425 36.3636 24.3 36.3636H18.9ZM9.45 40L7.56 37.4545L11.0363 32.7273H0V29.0909H11.0363L7.56 24.3636L9.45 21.8182L16.2 30.9091L9.45 40ZM5.4 10.9091H24.3V7.27273H5.4V10.9091Z" fill="url(#paint0_linear_3554_24309)"/>
<defs>
<linearGradient id="paint0_linear_3554_24309" x1="13.5" y1="0" x2="13.5" y2="40" gradientUnits="userSpaceOnUse">
<stop stop-color="#5246ED"/>
<stop offset="1" stop-color="#B1B1F5" stop-opacity="0.19"/>
</linearGradient>
</defs>
</svg>
