<svg width="34" height="34" viewBox="0 0 34 34" fill="none" xmlns="http://www.w3.org/2000/svg">
<g id="villa">
<path id="Vector" d="M20.8366 13.8386C20.3776 13.8386 19.9242 13.6459 19.6069 13.3116L17.0003 10.5859L14.3936 13.3116C14.0763 13.6459 13.6229 13.8386 13.1639 13.8386H5.80859V29.1386C5.80859 29.4503 6.0636 29.7053 6.37526 29.7053H13.6966V24.9736C13.6966 23.0243 15.1246 21.4433 16.8812 21.4433C18.6379 21.4433 20.0716 23.0243 20.0716 24.9736V29.7053H27.3873C27.6989 29.7053 27.9539 29.4503 27.9539 29.1386V13.8386H20.8366ZM12.6086 24.0386C12.6086 24.3503 12.3536 24.6053 12.0419 24.6053H9.20859C8.89693 24.6053 8.64193 24.3503 8.64193 24.0386V21.2053C8.64193 20.8879 8.89693 20.6386 9.20859 20.6386H12.0419C12.3536 20.6386 12.6086 20.8879 12.6086 21.2053V24.0386ZM12.6086 18.3719C12.6086 18.6836 12.3536 18.9386 12.0419 18.9386H9.20859C8.89693 18.9386 8.64193 18.6836 8.64193 18.3719V15.5386C8.64193 15.2213 8.89693 14.9719 9.20859 14.9719H12.0419C12.3536 14.9719 12.6086 15.2213 12.6086 15.5386V18.3719ZM17.0003 17.3803C15.7139 17.3803 14.6656 16.3319 14.6656 15.0399C14.6656 13.7536 15.7139 12.7053 17.0003 12.7053C18.2866 12.7053 19.3349 13.7536 19.3349 15.0399C19.3349 16.3319 18.2866 17.3803 17.0003 17.3803ZM25.1206 24.0386C25.1206 24.3503 24.8656 24.6053 24.5539 24.6053H21.7206C21.4089 24.6053 21.1539 24.3503 21.1539 24.0386V21.2053C21.1539 20.8879 21.4089 20.6386 21.7206 20.6386H24.5539C24.8656 20.6386 25.1206 20.8879 25.1206 21.2053V24.0386ZM25.1206 18.3719C25.1206 18.6836 24.8656 18.9386 24.5539 18.9386H21.7206C21.4089 18.9386 21.1539 18.6836 21.1539 18.3719V15.5386C21.1539 15.2213 21.4089 14.9719 21.7206 14.9719H24.5539C24.8656 14.9719 25.1206 15.2213 25.1206 15.5386V18.3719Z" fill="#2B79C2"/>
<path id="Vector_2" d="M30.5453 11.8926L27.082 4.62005C26.9879 4.42249 26.7889 4.29688 26.5704 4.29688H7.43041C7.21182 4.29688 7.01288 4.42249 6.9188 4.62005L3.45544 11.8926C3.37188 12.0681 3.38406 12.2745 3.48781 12.4388C3.59157 12.6032 3.77253 12.7028 3.96705 12.7028H13.164C13.3187 12.7028 13.4665 12.6397 13.5733 12.5279L17.0004 8.94919L20.4275 12.5279C20.5343 12.6397 20.6821 12.7028 20.8367 12.7028H25.217H30.0337C30.2282 12.7028 30.4092 12.6032 30.5129 12.4388C30.6167 12.2745 30.6289 12.0681 30.5453 11.8926Z" fill="#3B4652"/>
</g>
</svg>
