<svg width="296" height="81" viewBox="0 0 296 81" fill="none" xmlns="http://www.w3.org/2000/svg">
<path d="M25.6 57.1008C28.1 57.1008 30 56.4008 31.4 55.0008C32.8 53.6008 33.4 51.6008 33.4 48.9008C33.4 47.6008 33.2 46.4008 32.8 45.4008C32.4 44.3008 31.9 43.4008 31.3 42.6008C30.7 41.8008 30.1 41.1008 29.3 40.4008C28.5 39.7008 27.9 39.0008 27.2 38.4008C26.5 37.8008 25.8 37.1008 25.2 36.5008C24.6 35.8008 24.1 35.1008 23.7 34.3008C23.3 33.5008 23.1 32.6008 23.1 31.7008C23.1 29.6008 24 28.5008 25.7 28.5008C27.4 28.5008 28.3 29.6008 28.3 31.7008V33.0008H33.2V32.0008C33.2 29.4008 32.5 27.4008 31.3 25.9008C30.1 24.4008 28.1 23.8008 25.6 23.8008C23.1 23.8008 21.2 24.5008 19.9 25.9008C18.6 27.3008 18 29.4008 18 32.0008C18 33.7008 18.4 35.3008 19 36.7008C19.7 38.1008 20.5 39.3008 21.5 40.2008C22.5 41.1008 23.5 42.0008 24.5 42.9008C25.5 43.8008 26.3 44.7008 27 45.8008C27.7 46.9008 28 48.0008 28 49.2008C28 51.3008 27.1 52.4008 25.3 52.4008C23.5 52.4008 22.6 51.4008 22.6 49.2008V46.9008H17.7V48.9008C17.7 51.5008 18.4 53.6008 19.7 55.0008C21 56.4008 23.1 57.1008 25.6 57.1008ZM41.6 56.7008V24.2008H36.4V56.7008H41.6ZM53.6 56.7008C58.8 56.7008 61.4 54.0008 61.4 48.7008V32.2008C61.4 26.8008 58.8 24.2008 53.6 24.2008H45.4V56.7008H53.6ZM53.5 52.1008H50.6V28.8008H53.5C55.3 28.8008 56.2 29.8008 56.2 32.0008V48.9008C56.1 51.0008 55.2 52.1008 53.5 52.1008Z" fill="#EB5535"/>
<path d="M33.2 0.800781V4.60078H3.8V34.0008H0V0.800781H33.2Z" fill="#EB5535"/>
<path d="M46 0.800781V4.60078H75.4V34.0008H79.2V0.800781H46Z" fill="#80BB01"/>
<path d="M33.2 80.1008V76.3008H3.8V46.8008H0V80.1008H33.2Z" fill="#F9AE39"/>
<path d="M46 80.1008V76.3008H75.4V46.8008H79.2V80.1008H46Z" fill="#397BE7"/>
<path d="M92.4 16.4002H97.3V43.3002H105.4V47.8002H92.4V16.4002Z" fill="#003C5C"/>
<path d="M109.5 46.2002C108.3 44.8002 107.6 42.9002 107.6 40.4002V16.4002H112.5V40.7002C112.5 41.8002 112.7 42.5002 113.2 43.0002C113.6 43.5002 114.3 43.7002 115.1 43.7002C115.9 43.7002 116.5 43.5002 117 43.0002C117.5 42.5002 117.7 41.8002 117.7 40.7002V16.4002H122.5V40.3002C122.5 42.8002 121.9 44.8002 120.6 46.1002C119.4 47.5002 117.5 48.1002 115.1 48.1002C112.7 48.1002 110.7 47.5002 109.5 46.2002Z" fill="#003C5C"/>
<path d="M130.1 31.7002L124.7 16.4002H129.9L133.2 26.5002H133.3L136.7 16.4002H141.4L136 31.7002L141.7 47.7002H136.5L132.9 36.8002H132.8L129.1 47.7002H124.4L130.1 31.7002Z" fill="#003C5C"/>
<path d="M145.6 46.2002C144.4 44.8002 143.7 42.9002 143.7 40.4002V16.4002H148.6V40.7002C148.6 41.8002 148.8 42.5002 149.2 43.0002C149.6 43.5002 150.3 43.7002 151.1 43.7002C151.9 43.7002 152.5 43.5002 153 43.0002C153.4 42.5002 153.6 41.8002 153.6 40.7002V16.4002H158.4V40.3002C158.4 42.8002 157.8 44.8002 156.5 46.1002C155.3 47.5002 153.4 48.1002 151 48.1002C148.6 48.1002 146.8 47.5002 145.6 46.2002Z" fill="#003C5C"/>
<path d="M161.9 16.4002H169.2C171.7 16.4002 173.6 17.0002 174.8 18.2002C176 19.4002 176.6 21.2002 176.6 23.6002V25.5002C176.6 28.7002 175.5 30.8002 173.4 31.7002V31.8002C174.6 32.2002 175.4 32.9002 175.9 34.0002C176.4 35.1002 176.6 36.6002 176.6 38.4002V43.9002C176.6 44.8002 176.6 45.5002 176.7 46.1002C176.8 46.7002 176.9 47.2002 177.1 47.7002H172.1C171.9 47.2002 171.8 46.7002 171.7 46.3002C171.6 45.8002 171.6 45.1002 171.6 43.9002V38.2002C171.6 36.8002 171.4 35.8002 170.9 35.2002C170.4 34.6002 169.6 34.4002 168.5 34.4002H166.8V47.8002H161.9V16.4002ZM168.6 29.8002C169.6 29.8002 170.3 29.6002 170.8 29.0002C171.3 28.5002 171.5 27.6002 171.5 26.5002V24.1002C171.5 23.0002 171.3 22.1002 170.9 21.6002C170.5 21.1002 169.9 20.8002 169 20.8002H166.8V29.8002H168.6Z" fill="#003C5C"/>
<path d="M183.7 34.4002L177.7 16.4002H182.9L186.3 27.9002H186.4L189.8 16.4002H194.6L188.6 34.4002V47.8002H183.7V34.4002Z" fill="#003C5C"/>
<path d="M204 16.4002H208.9V29.2002H214.2V16.4002H219.1V47.8002H214.2V33.6002H209V47.7002H204V16.4002Z" fill="#003C5C"/>
<path d="M224.4 46.1002C223.1 44.7002 222.5 42.8002 222.5 40.3002V23.8002C222.5 21.3002 223.1 19.3002 224.4 18.0002C225.7 16.6002 227.5 15.9002 230 15.9002C232.5 15.9002 234.3 16.6002 235.6 18.0002C236.9 19.4002 237.5 21.3002 237.5 23.8002V40.3002C237.5 42.8002 236.9 44.8002 235.6 46.1002C234.3 47.5002 232.5 48.2002 230 48.2002C227.5 48.2002 225.7 47.5002 224.4 46.1002ZM232.5 40.6002V23.5002C232.5 21.4002 231.6 20.4002 229.9 20.4002C228.2 20.4002 227.3 21.4002 227.3 23.5002V40.6002C227.3 42.7002 228.2 43.7002 229.9 43.7002C231.6 43.7002 232.5 42.7002 232.5 40.6002Z" fill="#003C5C"/>
<path d="M264.8 16.4002H278.2V20.9002H269.7V29.2002H276.5V33.7002H269.7V43.3002H278.2V47.8002H264.8V16.4002Z" fill="#003C5C"/>
<path d="M282.2 46.2002C281 44.8002 280.4 42.9002 280.4 40.4002V38.6002H285.1V40.8002C285.1 42.8002 286 43.8002 287.6 43.8002C288.4 43.8002 289.1 43.6002 289.5 43.1002C289.9 42.6002 290.1 41.8002 290.1 40.7002C290.1 39.4002 289.8 38.2002 289.2 37.2002C288.6 36.2002 287.5 35.0002 285.9 33.6002C283.9 31.8002 282.4 30.2002 281.7 28.7002C280.9 27.2002 280.5 25.6002 280.5 23.8002C280.5 21.3002 281.1 19.4002 282.4 18.0002C283.7 16.6002 285.5 16.0002 287.9 16.0002C290.3 16.0002 292 16.7002 293.3 18.0002C294.6 19.3002 295.1 21.3002 295.1 23.8002V25.1002H290.4V23.5002C290.4 22.4002 290.2 21.6002 289.8 21.1002C289.4 20.6002 288.8 20.4002 288 20.4002C286.4 20.4002 285.5 21.4002 285.5 23.4002C285.5 24.5002 285.8 25.6002 286.4 26.6002C287 27.6002 288.1 28.8002 289.7 30.2002C291.8 32.0002 293.2 33.6002 293.9 35.1002C294.7 36.6002 295.1 38.3002 295.1 40.3002C295.1 42.9002 294.5 44.8002 293.2 46.2002C291.9 47.6002 290.1 48.3002 287.7 48.3002C285.3 48.3002 283.4 47.5002 282.2 46.2002Z" fill="#003C5C"/>
<path d="M246.8 15.6008C246.8 15.6008 252.1 18.7008 253.2 19.3008C253.4 19.4008 253.5 19.5008 253.5 19.8008C253.5 22.3008 253.5 45.4008 253.5 47.9008C253.5 48.2008 253.4 48.3008 253.1 48.3008C251.8 48.3008 250.5 48.3008 249.2 48.3008C248.8 48.3008 248.8 48.2008 248.8 47.9008C248.8 46.6008 248.8 24.6008 248.8 23.3008C248.8 22.2008 248.1 21.4008 247.1 21.2008C245.9 21.0008 244.8 21.9008 244.8 23.3008C244.8 24.6008 244.8 46.6008 244.8 47.9008C244.8 48.2008 244.7 48.3008 244.4 48.3008C243.1 48.3008 241.8 48.3008 240.6 48.3008C240.2 48.3008 240.2 48.2008 240.2 47.8008C240.2 45.4008 240.2 22.3008 240.2 19.8008C240.2 19.5008 240.3 19.4008 240.5 19.2008C241.6 18.5008 246.8 15.5008 246.8 15.6008Z" fill="#003C5C"/>
<path d="M262 19.7008C262 19.5008 261.9 19.3008 261.7 19.2008C260.7 18.6008 255.3 15.5008 255.3 15.5008C255.3 15.5008 253.4 16.6008 251.6 17.6008C252.4 18.1008 253.1 18.4008 253.4 18.6008C253.8 18.8008 254 19.2008 254 19.6008C254 20.2008 254 20.9008 254 21.5008C254.4 21.1008 255 20.9008 255.7 21.0008C256.7 21.1008 257.4 22.0008 257.4 23.1008C257.4 24.4008 257.4 46.4008 257.4 47.7008C257.4 48.0008 257.5 48.1008 257.8 48.1008C259.1 48.1008 260.4 48.1008 261.7 48.1008C262 48.1008 262.1 48.0008 262.1 47.7008C262.1 45.3008 262.1 22.2008 262 19.7008Z" fill="#003C5C"/>
<path d="M251.3 16.4008C250.3 16.3008 249.7 15.8008 249.5 14.8008C249.4 13.9008 250.2 13.0008 251.2 13.1008C252.2 13.1008 252.8 13.7008 252.8 14.7008C252.9 15.8008 252.3 16.3008 251.3 16.4008Z" fill="#003C5C"/>
<path d="M92.3 53.2H94.1V59.5H102.1V53.2H103.9V67.8H102.1V61.1H94.1V67.8H92.3V53.2Z" fill="#003C5C"/>
<path d="M106.1 62.5C106.1 59.1 108.1 57 111 57C113.9 57 115.9 59.1 115.9 62.5C115.9 65.9 113.9 68 111 68C108 68 106.1 65.9 106.1 62.5ZM114 62.5C114 60 112.8 58.6 110.9 58.6C109.1 58.6 107.8 60 107.8 62.5C107.8 65 109 66.4 110.9 66.4C112.8 66.5 114 65 114 62.5Z" fill="#003C5C"/>
<path d="M117.6 57.3H119.4V58.8C119.9 57.8 120.9 57.1 122.3 57.1C123.7 57.1 124.8 57.8 125.3 59.1C125.9 57.8 127.1 57.1 128.6 57.1C130.7 57.1 132 58.5 132 60.6V67.9H130.2V61C130.2 59.5 129.4 58.7 128 58.7C126.6 58.7 125.6 59.7 125.6 61.2V67.9H124V60.8C124 59.5 123.1 58.7 121.8 58.7C120.4 58.7 119.4 59.8 119.4 61.3V67.9H117.6V57.3Z" fill="#003C5C"/>
<path d="M133.8 62.6C133.8 59.3 135.7 57.1 138.5 57.1C141.3 57.1 143.1 59.2 143.1 62.4V63H135.5C135.5 65.2 136.7 66.4 138.6 66.4C139.9 66.4 140.9 65.7 141.2 64.8V64.7H142.9V64.8C142.6 66.5 140.8 67.9 138.5 67.9C135.6 68 133.8 65.9 133.8 62.6ZM135.6 61.6H141.4C141.2 59.6 140.1 58.6 138.5 58.6C137 58.6 135.8 59.7 135.6 61.6Z" fill="#003C5C"/>
<path d="M148.8 64.8C148.8 63 150.2 61.9 152.6 61.7L155.6 61.5V60.6C155.6 59.3 154.8 58.5 153.3 58.5C151.9 58.5 151.1 59.1 150.9 60.1V60.2H149.2V60.1C149.4 58.4 150.9 57 153.3 57C155.8 57 157.4 58.3 157.4 60.5V67.8H155.6V66.1C155 67.3 153.7 68 152.3 68C150.2 68 148.8 66.7 148.8 64.8ZM152.7 66.5C154.4 66.5 155.6 65.4 155.6 63.8V62.9L152.8 63.1C151.4 63.2 150.6 63.8 150.6 64.8C150.6 65.8 151.4 66.5 152.7 66.5Z" fill="#003C5C"/>
<path d="M158.8 57.3H160.6L162.7 65.9L165.1 57.3H166.8L169.2 65.9L171.3 57.3H173L170.1 67.9H168.3L165.9 59.7L163.5 67.9H161.7L158.8 57.3Z" fill="#003C5C"/>
<path d="M173.9 64.8C173.9 63 175.3 61.9 177.7 61.7L180.7 61.5V60.6C180.7 59.3 179.9 58.5 178.4 58.5C177 58.5 176.2 59.1 176 60.1V60.2H174.3V60.1C174.5 58.4 176 57 178.5 57C181 57 182.6 58.3 182.6 60.5V67.8H180.8V66.1C180.2 67.3 178.9 68 177.5 68C175.3 68 173.9 66.7 173.9 64.8ZM177.8 66.5C179.5 66.5 180.7 65.4 180.7 63.8V62.9L177.9 63.1C176.5 63.2 175.7 63.8 175.7 64.8C175.7 65.8 176.5 66.5 177.8 66.5Z" fill="#003C5C"/>
<path d="M184.8 71.3V69.9C185 69.9 185.2 70 185.4 70C186.5 70 187.1 69.7 187.6 68.5L187.8 67.9L183.9 57.3H185.8L188.7 66.1L191.6 57.3H193.5L189.4 68.5C188.6 70.5 187.7 71.4 185.8 71.4C185.4 71.4 185 71.3 184.8 71.3Z" fill="#003C5C"/>
<path d="M199.7 58.7H198.2V57.2H199.7V56C199.7 54 200.6 53 202.6 53C203 53 203.4 53 203.7 53.1V54.5C203.5 54.5 203.2 54.5 202.9 54.5C201.9 54.5 201.4 55 201.4 56V57.3H203.6V58.8H201.4V67.9H199.6V58.7H199.7Z" fill="#003C5C"/>
<path d="M205.4 57.3H207.2V59C207.6 57.8 208.5 57 209.7 57C210 57 210.3 57.1 210.4 57.1V58.8C210.3 58.7 209.9 58.7 209.5 58.7C208.1 58.7 207.2 59.7 207.2 61.3V67.8H205.4V57.3Z" fill="#003C5C"/>
<path d="M210.8 62.5C210.8 59.1 212.8 57 215.7 57C218.6 57 220.6 59.1 220.6 62.5C220.6 65.9 218.6 68 215.7 68C212.7 68 210.8 65.9 210.8 62.5ZM218.7 62.5C218.7 60 217.5 58.6 215.6 58.6C213.8 58.6 212.5 60 212.5 62.5C212.5 65 213.7 66.4 215.6 66.4C217.5 66.5 218.7 65 218.7 62.5Z" fill="#003C5C"/>
<path d="M222.3 57.3H224.1V58.8C224.6 57.8 225.6 57.1 227 57.1C228.4 57.1 229.5 57.8 230 59.1C230.6 57.8 231.8 57.1 233.3 57.1C235.4 57.1 236.7 58.5 236.7 60.6V67.9H235V61C235 59.5 234.2 58.7 232.8 58.7C231.4 58.7 230.4 59.7 230.4 61.2V67.9H228.6V60.8C228.6 59.5 227.7 58.7 226.4 58.7C225 58.7 224 59.8 224 61.3V67.9H222.2L222.3 57.3Z" fill="#003C5C"/>
<path d="M243.5 53.2H245.3V59.5H253.3V53.2H255.1V67.8H253.3V61.1H245.3V67.8H243.5V53.2Z" fill="#003C5C"/>
<path d="M257.3 62.5C257.3 59.1 259.3 57 262.2 57C265.1 57 267.1 59.1 267.1 62.5C267.1 65.9 265.1 68 262.2 68C259.2 68 257.3 65.9 257.3 62.5ZM265.2 62.5C265.2 60 264 58.6 262.1 58.6C260.3 58.6 259 60 259 62.5C259 65 260.2 66.4 262.1 66.4C264 66.5 265.2 65 265.2 62.5Z" fill="#003C5C"/>
<path d="M270.6 57.3V58.8C271.1 57.8 272.1 57.1 273.5 57.1C274.9 57.1 276 57.8 276.5 59.1C277.1 57.8 278.3 57.1 279.8 57.1C281.9 57.1 283.2 58.5 283.2 60.6V67.9H281.4V61C281.4 59.5 280.6 58.7 279.2 58.7C277.8 58.7 276.8 59.7 276.8 61.2V67.9H275V60.8C275 59.5 274.1 58.7 272.8 58.7C271.4 58.7 270.4 59.8 270.4 61.3V67.9H268.6V57.3H270.6Z" fill="#003C5C"/>
<path d="M285 62.6C285 59.3 286.9 57.1 289.7 57.1C292.5 57.1 294.3 59.2 294.3 62.4V63H286.7C286.7 65.2 287.9 66.4 289.8 66.4C291.1 66.4 292.1 65.7 292.4 64.8V64.7H294.1V64.8C293.8 66.5 292 67.9 289.7 67.9C286.8 68 285 65.9 285 62.6ZM286.8 61.6H292.6C292.4 59.6 291.3 58.6 289.7 58.6C288.2 58.6 287 59.7 286.8 61.6Z" fill="#003C5C"/>
</svg>
