<svg width="52" height="40" viewBox="0 0 52 40" fill="none" xmlns="http://www.w3.org/2000/svg">
<g id="ya">
<path id="body" d="M24.8955 39.9766C14.195 39.9766 5.52051 31.3021 5.52051 20.6016C5.52051 9.90104 14.195 1.22656 24.8955 1.22656C35.596 1.22656 44.2705 9.90104 44.2705 20.6016C44.2705 31.3021 35.596 39.9766 24.8955 39.9766Z" fill="#FFDA6A"/>
<g id="expression">
<g id="red" filter="url(#filter0_f_12010_21068)">
<path d="M36.0907 24.4748C34.1884 24.4748 32.6463 22.9327 32.6463 21.0304C32.6463 19.1281 34.1884 17.5859 36.0907 17.5859C37.993 17.5859 39.5352 19.1281 39.5352 21.0304C39.5352 22.9327 37.993 24.4748 36.0907 24.4748Z" fill="#F55065"/>
</g>
<g id="red_2" filter="url(#filter1_f_12010_21068)">
<path d="M15.8544 18.8811C13.9521 18.8811 12.4099 17.3389 12.4099 15.4366C12.4099 13.5343 13.9521 11.9922 15.8544 11.9922C17.7567 11.9922 19.2988 13.5343 19.2988 15.4366C19.2988 17.3389 17.7567 18.8811 15.8544 18.8811Z" fill="#F55065"/>
</g>
<path id="Vector" fill-rule="evenodd" clip-rule="evenodd" d="M29.7385 13.5802C30.6202 10.8663 33.535 9.38118 36.2488 10.2629C38.9627 11.1447 40.4478 14.0595 39.566 16.7733C39.4191 17.2256 38.9333 17.4732 38.481 17.3262C38.0287 17.1792 37.7812 16.6934 37.9281 16.2411C38.516 14.4319 37.5259 12.4887 35.7166 11.9009C33.9074 11.313 31.9642 12.3031 31.3764 14.1124C31.2294 14.5647 30.7436 14.8122 30.2913 14.6652C29.839 14.5183 29.5915 14.0325 29.7385 13.5802ZM15.9607 9.2746C16.8425 6.56079 19.7572 5.07562 22.4711 5.95739C25.1849 6.83917 26.67 9.75396 25.7883 12.4678C25.6413 12.9201 25.1555 13.1676 24.7032 13.0206C24.2509 12.8737 24.0034 12.3879 24.1503 11.9356C24.7382 10.1264 23.7481 8.18317 21.9389 7.59533C20.1297 7.00748 18.1865 7.99759 17.5986 9.80679C17.4517 10.2591 16.9659 10.5066 16.5135 10.3597C16.0612 10.2127 15.8137 9.7269 15.9607 9.2746ZM33.847 21.8478C33.346 22.8498 30.4424 24.0527 27.8356 24.153C24.098 24.2968 20.7951 22.5252 18.5445 18.4332C18.3153 18.0165 18.4673 17.4929 18.884 17.2637C19.3007 17.0345 19.8243 17.1865 20.0535 17.6032C21.9825 21.1105 24.6688 22.5513 27.7694 22.4321C28.9275 22.3875 30.0803 22.1168 31.0788 21.7031C31.4793 21.5372 31.8301 21.3572 32.0906 21.1902C32.1976 21.1216 32.2819 21.0598 32.3368 21.0119C32.3473 21.0027 32.3397 21.0113 32.3066 21.0776C32.5193 20.6522 33.0365 20.4798 33.4619 20.6925C33.8873 20.9052 34.0597 21.4224 33.847 21.8478Z" fill="black"/>
</g>
</g>
<defs>
<filter id="filter0_f_12010_21068" x="20.8818" y="5.82123" width="30.4181" height="30.42" filterUnits="userSpaceOnUse" color-interpolation-filters="sRGB">
<feFlood flood-opacity="0" result="BackgroundImageFix"/>
<feBlend mode="normal" in="SourceGraphic" in2="BackgroundImageFix" result="shape"/>
<feGaussianBlur stdDeviation="5.88235" result="effect1_foregroundBlur_12010_21068"/>
</filter>
<filter id="filter1_f_12010_21068" x="0.645451" y="0.227482" width="30.4181" height="30.42" filterUnits="userSpaceOnUse" color-interpolation-filters="sRGB">
<feFlood flood-opacity="0" result="BackgroundImageFix"/>
<feBlend mode="normal" in="SourceGraphic" in2="BackgroundImageFix" result="shape"/>
<feGaussianBlur stdDeviation="5.88235" result="effect1_foregroundBlur_12010_21068"/>
</filter>
</defs>
</svg>
